%TF.GenerationSoftware,Novarm,DipTrace,3.3.0.1*%
%TF.CreationDate,2018-11-14T10:23:36-08:00*%
%FSLAX26Y26*%
%MOIN*%
%TF.FileFunction,Copper,L1,Top*%
%TF.Part,Single*%
%TA.AperFunction,Conductor*%
%ADD13C,0.006*%
%ADD14R,0.011811X0.03937*%
%ADD15R,0.07874X0.051181*%
%TA.AperFunction,ComponentPad*%
%ADD16R,0.059055X0.059055*%
%ADD17C,0.059055*%
G75*
G01*
%LPD*%
X468700Y856200D2*
D13*
X706200Y618700D1*
X749951D1*
Y568700D1*
X568700Y856200D2*
X769636Y655266D1*
Y568700D1*
X668700Y856200D2*
X789321Y735581D1*
Y568700D1*
X768700Y856200D2*
X809006Y815896D1*
Y568700D1*
X868700Y856200D2*
X828691Y816190D1*
Y568700D1*
X968700Y856200D2*
X848376Y735875D1*
Y568700D1*
X1068700Y856200D2*
X868061Y655560D1*
Y568700D1*
X1168700Y856200D2*
X931200Y618700D1*
X887449D1*
X887746Y618405D1*
Y568700D1*
D14*
X749951D3*
X769636D3*
X789321D3*
X809006D3*
X828691D3*
X848376D3*
X868061D3*
X887746D3*
D15*
X659399Y462401D3*
X978297D3*
D16*
X468700Y856200D3*
D17*
X568700D3*
X668700D3*
X768700D3*
X868700D3*
X968700D3*
X1068700D3*
X1168700D3*
M02*
