%TF.GenerationSoftware,Novarm,DipTrace,3.3.0.1*%
%TF.CreationDate,2018-11-14T10:14:48-08:00*%
%FSLAX26Y26*%
%MOIN*%
%TF.FileFunction,Drawing,Top*%
%TF.Part,Single*%
%ADD14C,0.001378*%
%ADD149C,0.006176*%
G75*
G01*
%LPD*%
X393700Y3228346D2*
D14*
Y3452755D1*
X4685039Y3228346D2*
Y3452755D1*
X2539369Y3433070D2*
X433070D1*
G36*
X393700D2*
X433070Y3440944D1*
Y3425196D1*
X393700Y3433070D1*
G37*
X2539369D2*
D14*
X4645669D1*
G36*
X4685039D2*
X4645669Y3425196D1*
Y3440944D1*
X4685039Y3433070D1*
G37*
Y3228346D2*
D14*
X4842519D1*
X4685039Y393700D2*
X4842519D1*
X4822834Y1811023D2*
Y3188976D1*
G36*
Y3228346D2*
X4830708Y3188976D1*
X4814960D1*
X4822834Y3228346D1*
G37*
Y1811023D2*
D14*
Y433070D1*
G36*
Y393700D2*
X4814960Y433070D1*
X4830708D1*
X4822834Y393700D1*
G37*
X2489987Y3445281D2*
D149*
Y3485429D1*
X2470842Y3458678D1*
X2499538D1*
X2513790Y3449128D2*
X2511889Y3447182D1*
X2513790Y3445281D1*
X2515736Y3447182D1*
X2513790Y3449128D1*
X2530033Y3475878D2*
Y3477779D1*
X2531934Y3481626D1*
X2533835Y3483527D1*
X2537682Y3485429D1*
X2545331D1*
X2549134Y3483527D1*
X2551035Y3481626D1*
X2552980Y3477779D1*
Y3473977D1*
X2551035Y3470130D1*
X2547232Y3464426D1*
X2528087Y3445281D1*
X2554882D1*
X2592127Y3472076D2*
X2590181Y3466327D1*
X2586378Y3462481D1*
X2580630Y3460579D1*
X2578729D1*
X2572981Y3462481D1*
X2569179Y3466327D1*
X2567233Y3472076D1*
Y3473977D1*
X2569179Y3479725D1*
X2572981Y3483527D1*
X2578729Y3485429D1*
X2580630D1*
X2586378Y3483527D1*
X2590181Y3479725D1*
X2592127Y3472076D1*
Y3462481D1*
X2590181Y3452930D1*
X2586378Y3447182D1*
X2580630Y3445281D1*
X2576828D1*
X2571080Y3447182D1*
X2569179Y3451029D1*
X2604478Y3477779D2*
X2608325Y3479725D1*
X2614073Y3485429D1*
Y3445281D1*
X4865642Y1886183D2*
X4867543D1*
X4871390Y1884282D1*
X4873291Y1882380D1*
X4875192Y1878534D1*
Y1870884D1*
X4873291Y1867082D1*
X4871390Y1865180D1*
X4867543Y1863235D1*
X4863741D1*
X4859894Y1865180D1*
X4854190Y1868983D1*
X4835045Y1888128D1*
Y1861334D1*
X4838891Y1847081D2*
X4836946Y1848982D1*
X4835045Y1847081D1*
X4836946Y1845136D1*
X4838891Y1847081D1*
X4875192Y1823234D2*
X4873291Y1828937D1*
X4869489Y1830883D1*
X4865642D1*
X4861839Y1828937D1*
X4859894Y1825135D1*
X4857993Y1817486D1*
X4856091Y1811738D1*
X4852244Y1807935D1*
X4848442Y1806034D1*
X4842694D1*
X4838891Y1807935D1*
X4836946Y1809836D1*
X4835045Y1815584D1*
Y1823234D1*
X4836946Y1828937D1*
X4838891Y1830883D1*
X4842694Y1832784D1*
X4848442D1*
X4852244Y1830883D1*
X4856091Y1827036D1*
X4857993Y1821332D1*
X4859894Y1813683D1*
X4861839Y1809836D1*
X4865642Y1807935D1*
X4869489D1*
X4873291Y1809836D1*
X4875192Y1815584D1*
Y1823234D1*
Y1789836D2*
Y1768833D1*
X4859894Y1780285D1*
Y1774537D1*
X4857993Y1770734D1*
X4856091Y1768833D1*
X4850343Y1766888D1*
X4846541D1*
X4840793Y1768833D1*
X4836946Y1772636D1*
X4835045Y1778384D1*
Y1784132D1*
X4836946Y1789836D1*
X4838891Y1791737D1*
X4842694Y1793682D1*
X4875192Y1731588D2*
Y1750689D1*
X4857993Y1752591D1*
X4859894Y1750689D1*
X4861839Y1744941D1*
Y1739238D1*
X4859894Y1733490D1*
X4856091Y1729643D1*
X4850343Y1727742D1*
X4846541D1*
X4840793Y1729643D1*
X4836946Y1733490D1*
X4835045Y1739238D1*
Y1744941D1*
X4836946Y1750689D1*
X4838891Y1752591D1*
X4842694Y1754536D1*
M02*
