%TF.GenerationSoftware,Novarm,DipTrace,3.3.0.1*%
%TF.CreationDate,2018-11-14T10:14:43-08:00*%
%FSLAX26Y26*%
%MOIN*%
%TF.FileFunction,Legend,Top*%
%TF.Part,Single*%
%ADD10C,0.009843*%
%ADD12C,0.003*%
%ADD13C,0.002625*%
%ADD51C,0.007874*%
%ADD57C,0.015401*%
%ADD63C,0.015422*%
%ADD65C,0.012501*%
%ADD143C,0.00772*%
%ADD145C,0.004632*%
%ADD146C,0.003088*%
%ADD147C,0.004374*%
%ADD148C,0.027791*%
%ADD149C,0.006176*%
%ADD150C,0.012351*%
G75*
G01*
%LPD*%
X3041333Y2194881D2*
D10*
X3375960D1*
Y2529527D1*
X3041333D1*
Y2194881D1*
X2929133Y1834654D2*
G02X2929133Y1834654I236220J0D01*
G01*
X3748743Y2307086D2*
X4126846D1*
X3748743Y2527558D2*
X4126846D1*
X3748743Y2307086D2*
Y2527558D1*
X4098987Y2307086D2*
X4130254D1*
Y2527558D1*
X4098987D1*
X3787933D2*
Y2307086D1*
X1911859Y2068490D2*
X2011859D1*
Y1768490D1*
X1911859D2*
X2011859D1*
X1911859Y2068490D2*
Y1768490D1*
X1588434Y2642040D2*
X1785284D1*
Y2799538D1*
X1588434D1*
Y2642040D1*
X3472889Y2577243D2*
Y3202243D1*
X2661889Y2577243D2*
X3472889D1*
X2661889D2*
Y3202243D1*
X3472889D1*
X4309523Y2577243D2*
Y3202243D1*
X3498523Y2577243D2*
X4309523D1*
X3498523D2*
Y3202243D1*
X4309523D1*
X4035432Y751991D2*
X4660432D1*
X4035432Y1562991D2*
Y751991D1*
Y1562991D2*
X4660432D1*
Y751991D1*
X3173251Y1043306D2*
Y418306D1*
X3984251Y1043306D2*
X3173251D1*
X3984251D2*
Y418306D1*
X3173251D1*
X2330731Y1043306D2*
Y418306D1*
X3141731Y1043306D2*
X2330731D1*
X3141731D2*
Y418306D1*
X2330731D1*
X1492149Y1043306D2*
Y418306D1*
X2303149Y1043306D2*
X1492149D1*
X2303149D2*
Y418306D1*
X1492149D1*
X653566Y1043306D2*
Y418306D1*
X1464566Y1043306D2*
X653566D1*
X1464566D2*
Y418306D1*
X653566D1*
X2549529Y2459842D2*
Y2559842D1*
X2299289D2*
X2549529D1*
X2299289Y2459842D2*
Y2559842D1*
Y2459842D2*
X2549529D1*
X2298895Y2707480D2*
Y2607480D1*
X2549135D2*
X2298895D1*
X2549135Y2707480D2*
Y2607480D1*
Y2707480D2*
X2298895D1*
X1106751Y2365460D2*
Y2465460D1*
X606751Y2365460D2*
X1106751D1*
X606751Y2465460D2*
X1106751D1*
X606751Y2365460D2*
Y2465460D1*
X4657480Y1604330D2*
X3521495D1*
Y2266039D1*
X4657480D1*
Y1604330D1*
Y1935052D2*
X3531492D1*
X3689053Y2265774D2*
Y1604330D1*
X1011860Y1681031D2*
Y1581031D1*
X1211860Y1681031D2*
X1011860D1*
X1211860D2*
Y1581031D1*
X1011860D1*
X1344294Y1719613D2*
G02X1344294Y1719613I70862J0D01*
G01*
X1505712Y1837731D2*
X1324602D1*
X1297031Y1759010D2*
Y1680241D1*
X1324602Y1601496D2*
X1489957D1*
X1533282Y1680241D2*
Y1759010D1*
X1356110Y1719626D2*
G02X1356110Y1719626I59046J0D01*
G01*
X1955322Y3142745D2*
X2181684D1*
Y2989202D1*
X1955322D1*
Y3142745D1*
X968831Y2586672D2*
X811333D1*
Y2783523D1*
X968831D1*
Y2586672D1*
X1300433Y2004560D2*
D51*
Y2372688D1*
X1668560D1*
Y2004560D1*
X1300433D1*
X1302392Y1943559D2*
D10*
G02X1302392Y1943559I4925J0D01*
G01*
D57*
X2138440Y2766835D3*
X2143702Y2820911D2*
D10*
X2261810D1*
X2143702Y2852391D2*
X2261810D1*
Y2820911D2*
Y2852391D1*
X2143702Y2820911D2*
Y2852391D1*
X471850Y2522426D2*
X625392D1*
Y2896470D1*
X471850D1*
Y2522426D1*
X2897047Y1581697D2*
X2476967D1*
Y1961616D1*
X2897047D1*
Y1581697D1*
X1523261Y3144313D2*
X1897305D1*
Y2990770D1*
X1523261D1*
Y3144313D1*
X421259Y2131897D2*
X574802D1*
Y2358259D1*
X421259D1*
Y2131897D1*
D63*
X2948566Y1193927D3*
X2898424Y1203128D2*
D10*
Y1321233D1*
X2878739D1*
Y1203128D1*
X2898424D1*
X3035434Y1312278D2*
X3154183D1*
X3016675Y1187276D2*
X3154183D1*
D65*
X3016683Y1312278D3*
D63*
X2523370Y1191355D3*
X2473228Y1200556D2*
D10*
Y1318661D1*
X2453542D1*
Y1200556D1*
X2473228D1*
X2610237Y1309706D2*
X2728987D1*
X2591479Y1184704D2*
X2728987D1*
D65*
X2591486Y1309706D3*
D63*
X3369826Y1191350D3*
X3319684Y1200550D2*
D10*
Y1318655D1*
X3299999D1*
Y1200550D1*
X3319684D1*
X3456694Y1309690D2*
X3575443D1*
X3437935Y1184688D2*
X3575443D1*
D65*
X3437942Y1309690D3*
D63*
X2098173Y1191355D3*
X2048031Y1200556D2*
D10*
Y1318661D1*
X2028346D1*
Y1200556D1*
X2048031D1*
X2185040Y1309706D2*
X2303790D1*
X2166282Y1184704D2*
X2303790D1*
D65*
X2166289Y1309706D3*
D63*
X1676913Y1191355D3*
X1626771Y1200556D2*
D10*
Y1318661D1*
X1607086D1*
Y1200556D1*
X1626771D1*
X1763780Y1309706D2*
X1882530D1*
X1745022Y1184704D2*
X1882530D1*
D65*
X1745029Y1309706D3*
D63*
X1273006Y1191355D3*
X1222864Y1200556D2*
D10*
Y1318661D1*
X1203179D1*
Y1200556D1*
X1222864D1*
X1381457Y1316674D2*
X1500207D1*
X1362699Y1191672D2*
X1500207D1*
D65*
X1362706Y1316674D3*
D63*
X848173Y1191355D3*
X798031Y1200556D2*
D10*
Y1318661D1*
X778346D1*
Y1200556D1*
X798031D1*
X940552Y1316661D2*
X1059301D1*
X921793Y1191659D2*
X1059301D1*
D65*
X921801Y1316661D3*
X424039Y1612705D2*
D13*
X443724D1*
X455535D2*
X473907D1*
X479157D2*
X493592D1*
X500154D2*
X515902D1*
X529025D2*
X538212D1*
X550023D2*
X560522D1*
X567083D2*
X578894D1*
X582831D2*
X601204D1*
X616952D2*
X635325D1*
X648448D2*
X666821D1*
X672070D2*
X691755D1*
X703566D2*
X712752D1*
X727188D2*
X746873D1*
X758684D2*
X777057D1*
X792805D2*
X812490D1*
X816427D2*
X826926D1*
X838737D2*
X849235D1*
X862359D2*
X871545D1*
X885981D2*
X896480D1*
X900417D2*
X912228D1*
X914852D2*
X939787D1*
X424039Y1611393D2*
X445434D1*
X455535D2*
X473907D1*
X479157D2*
X493795D1*
X500154D2*
X515902D1*
X527112D2*
X540731D1*
X550073D2*
X560970D1*
X567083D2*
X578446D1*
X582831D2*
X601204D1*
X616952D2*
X637238D1*
X648448D2*
X666821D1*
X672070D2*
X691755D1*
X701653D2*
X715271D1*
X727188D2*
X748583D1*
X758684D2*
X777057D1*
X792805D2*
X812490D1*
X816427D2*
X826926D1*
X838737D2*
X849235D1*
X860042D2*
X873907D1*
X885981D2*
X896480D1*
X900417D2*
X912228D1*
X914852D2*
X939787D1*
X424039Y1610081D2*
X446746D1*
X455535D2*
X473907D1*
X479157D2*
X494121D1*
X500154D2*
X515902D1*
X525469D2*
X542745D1*
X550241D2*
X561361D1*
X567083D2*
X578055D1*
X582831D2*
X601204D1*
X616952D2*
X638876D1*
X648448D2*
X666821D1*
X672070D2*
X691755D1*
X700010D2*
X717286D1*
X727188D2*
X749896D1*
X758684D2*
X777057D1*
X792805D2*
X812490D1*
X816427D2*
X826926D1*
X838737D2*
X849235D1*
X858136D2*
X875935D1*
X885981D2*
X896480D1*
X900417D2*
X912228D1*
X914852D2*
X939787D1*
X424039Y1608768D2*
X447696D1*
X455535D2*
X473907D1*
X479157D2*
X494460D1*
X500154D2*
X515902D1*
X524139D2*
X544226D1*
X550556D2*
X561610D1*
X567083D2*
X577806D1*
X582831D2*
X601204D1*
X616952D2*
X640160D1*
X648448D2*
X666821D1*
X672070D2*
X691755D1*
X698679D2*
X718767D1*
X727188D2*
X750846D1*
X758684D2*
X777057D1*
X792805D2*
X812490D1*
X816427D2*
X826926D1*
X838737D2*
X849235D1*
X856749D2*
X877474D1*
X885981D2*
X896480D1*
X900417D2*
X912228D1*
X914852D2*
X939787D1*
X424039Y1607456D2*
X448377D1*
X455535D2*
X473907D1*
X479157D2*
X494690D1*
X500149D2*
X515902D1*
X523107D2*
X545221D1*
X550892D2*
X561738D1*
X567083D2*
X577678D1*
X582831D2*
X601204D1*
X616952D2*
X641168D1*
X648448D2*
X666821D1*
X672070D2*
X691755D1*
X697648D2*
X719761D1*
X727188D2*
X751526D1*
X758684D2*
X777057D1*
X792805D2*
X812490D1*
X816427D2*
X826926D1*
X838737D2*
X849235D1*
X855779D2*
X878513D1*
X885981D2*
X896480D1*
X900417D2*
X912228D1*
X914852D2*
X939787D1*
X424039Y1606144D2*
X448899D1*
X455535D2*
X473907D1*
X479157D2*
X494817D1*
X500103D2*
X515902D1*
X522316D2*
X545900D1*
X551121D2*
X561796D1*
X567083D2*
X577620D1*
X582831D2*
X601204D1*
X616952D2*
X641538D1*
X648448D2*
X666821D1*
X672070D2*
X691755D1*
X696856D2*
X720440D1*
X727188D2*
X752049D1*
X758684D2*
X777057D1*
X792805D2*
X812490D1*
X816427D2*
X826926D1*
X838737D2*
X849235D1*
X855136D2*
X879215D1*
X885981D2*
X896480D1*
X900417D2*
X912228D1*
X914852D2*
X939787D1*
X424039Y1604831D2*
X434537D1*
X438216D2*
X449385D1*
X455535D2*
X473907D1*
X479157D2*
X494919D1*
X499936D2*
X515902D1*
X521752D2*
X531650D1*
X535329D2*
X546454D1*
X551243D2*
X561820D1*
X567078D2*
X577591D1*
X582831D2*
X601204D1*
X616952D2*
X627451D1*
X631130D2*
X641738D1*
X648448D2*
X666821D1*
X672070D2*
X691755D1*
X696293D2*
X706191D1*
X709870D2*
X720995D1*
X727188D2*
X737687D1*
X741366D2*
X752535D1*
X758684D2*
X777057D1*
X792805D2*
X812490D1*
X816427D2*
X826926D1*
X838737D2*
X849235D1*
X854778D2*
X864983D1*
X869123D2*
X879780D1*
X885981D2*
X896480D1*
X900417D2*
X912228D1*
X914852D2*
X939787D1*
X424039Y1603519D2*
X434537D1*
X438984D2*
X449796D1*
X455535D2*
X466033D1*
X479157D2*
X495109D1*
X499621D2*
X515902D1*
X521426D2*
X531650D1*
X536097D2*
X546892D1*
X551303D2*
X561829D1*
X567032D2*
X577536D1*
X582831D2*
X593330D1*
X616952D2*
X627451D1*
X631897D2*
X641828D1*
X648448D2*
X658947D1*
X672070D2*
X682569D1*
X695967D2*
X706191D1*
X710637D2*
X721433D1*
X727188D2*
X737687D1*
X742133D2*
X752945D1*
X758684D2*
X769183D1*
X792805D2*
X803304D1*
X816427D2*
X826926D1*
X838737D2*
X849235D1*
X854606D2*
X864983D1*
X869449D2*
X880223D1*
X885981D2*
X896480D1*
X900417D2*
X912228D1*
X922726D2*
X933225D1*
X424039Y1602207D2*
X434537D1*
X439423D2*
X450049D1*
X455535D2*
X466033D1*
X479157D2*
X495433D1*
X499285D2*
X515902D1*
X521266D2*
X531650D1*
X536536D2*
X547161D1*
X551373D2*
X561837D1*
X566865D2*
X577365D1*
X582831D2*
X593330D1*
X616952D2*
X627451D1*
X632337D2*
X641865D1*
X648448D2*
X658947D1*
X672070D2*
X682569D1*
X695807D2*
X706191D1*
X711077D2*
X721702D1*
X727188D2*
X737687D1*
X742573D2*
X753199D1*
X758684D2*
X769183D1*
X792805D2*
X803304D1*
X816427D2*
X826926D1*
X838737D2*
X849235D1*
X854532D2*
X864983D1*
X869788D2*
X880494D1*
X885981D2*
X896480D1*
X900417D2*
X912228D1*
X922726D2*
X933225D1*
X954222D2*
X958159D1*
X424039Y1600894D2*
X434537D1*
X439631D2*
X450136D1*
X455535D2*
X466033D1*
X479157D2*
X495772D1*
X499056D2*
X515902D1*
X521196D2*
X531650D1*
X536749D2*
X547298D1*
X551549D2*
X561885D1*
X566550D2*
X577050D1*
X582831D2*
X593330D1*
X616952D2*
X627451D1*
X632545D2*
X641879D1*
X648448D2*
X658947D1*
X672070D2*
X682569D1*
X695737D2*
X706191D1*
X711290D2*
X721838D1*
X727188D2*
X737687D1*
X742781D2*
X753285D1*
X758684D2*
X769183D1*
X792805D2*
X803304D1*
X816427D2*
X826926D1*
X838737D2*
X849235D1*
X854502D2*
X864983D1*
X870018D2*
X880631D1*
X885981D2*
X896490D1*
X900406D2*
X912228D1*
X922726D2*
X933225D1*
X954233D2*
X961283D1*
X424039Y1599582D2*
X434548D1*
X439662D2*
X450028D1*
X455535D2*
X466033D1*
X479157D2*
X496007D1*
X498929D2*
X515902D1*
X521168D2*
X531650D1*
X536842D2*
X547359D1*
X551866D2*
X562052D1*
X566214D2*
X576713D1*
X582831D2*
X593330D1*
X616952D2*
X627461D1*
X632575D2*
X641884D1*
X648448D2*
X658947D1*
X672070D2*
X682569D1*
X695709D2*
X706191D1*
X711382D2*
X721899D1*
X727188D2*
X737697D1*
X742812D2*
X753178D1*
X758684D2*
X769183D1*
X792805D2*
X803304D1*
X816427D2*
X826926D1*
X838737D2*
X849235D1*
X854491D2*
X864983D1*
X870141D2*
X880692D1*
X885981D2*
X896590D1*
X900306D2*
X912228D1*
X922726D2*
X933225D1*
X954340D2*
X964471D1*
X424039Y1598270D2*
X434647D1*
X439555D2*
X449733D1*
X455535D2*
X466033D1*
X479157D2*
X496180D1*
X498823D2*
X515902D1*
X521157D2*
X531650D1*
X536878D2*
X547383D1*
X552204D2*
X562367D1*
X565985D2*
X576484D1*
X582831D2*
X593330D1*
X616952D2*
X627561D1*
X632468D2*
X641875D1*
X648448D2*
X658947D1*
X672070D2*
X682569D1*
X695698D2*
X706191D1*
X711419D2*
X721924D1*
X727188D2*
X737797D1*
X742704D2*
X752883D1*
X758684D2*
X769183D1*
X792805D2*
X803304D1*
X816427D2*
X826926D1*
X838737D2*
X849235D1*
X854487D2*
X864983D1*
X870199D2*
X880718D1*
X885981D2*
X896828D1*
X900068D2*
X912228D1*
X922726D2*
X933225D1*
X954602D2*
X967700D1*
X424039Y1596957D2*
X434886D1*
X438751D2*
X449349D1*
X455535D2*
X466033D1*
X479157D2*
X496438D1*
X498598D2*
X515902D1*
X521153D2*
X531650D1*
X536892D2*
X547393D1*
X552433D2*
X562703D1*
X565863D2*
X576362D1*
X582831D2*
X593330D1*
X616952D2*
X627799D1*
X631665D2*
X641773D1*
X648448D2*
X658947D1*
X672070D2*
X682569D1*
X695694D2*
X706191D1*
X711433D2*
X721934D1*
X727188D2*
X738035D1*
X741901D2*
X752499D1*
X758684D2*
X769183D1*
X792805D2*
X803304D1*
X816427D2*
X826926D1*
X838737D2*
X849235D1*
X854485D2*
X864983D1*
X870233D2*
X880731D1*
X885981D2*
X897851D1*
X899045D2*
X912228D1*
X922726D2*
X933225D1*
X956006D2*
X970901D1*
X424039Y1595645D2*
X435909D1*
X436802D2*
X448856D1*
X455535D2*
X473907D1*
X479157D2*
X496911D1*
X498140D2*
X515902D1*
X521152D2*
X531650D1*
X536897D2*
X547396D1*
X552555D2*
X562932D1*
X565808D2*
X576306D1*
X582831D2*
X601204D1*
X616952D2*
X628822D1*
X629715D2*
X641527D1*
X648448D2*
X666821D1*
X672070D2*
X690443D1*
X695693D2*
X706191D1*
X711438D2*
X721937D1*
X727188D2*
X739058D1*
X739951D2*
X752005D1*
X758684D2*
X777057D1*
X792805D2*
X811178D1*
X816427D2*
X826926D1*
X838737D2*
X849235D1*
X854485D2*
X864983D1*
X885981D2*
X912228D1*
X922726D2*
X933225D1*
X958147D2*
X973857D1*
X424039Y1594333D2*
X448181D1*
X455535D2*
X473907D1*
X479157D2*
X515902D1*
X521152D2*
X531650D1*
X536899D2*
X547398D1*
X552616D2*
X563054D1*
X565785D2*
X576278D1*
X582831D2*
X601204D1*
X616952D2*
X640328D1*
X648448D2*
X666821D1*
X672070D2*
X690443D1*
X695692D2*
X706191D1*
X711439D2*
X721938D1*
X727188D2*
X751331D1*
X758684D2*
X777057D1*
X792805D2*
X811178D1*
X816427D2*
X826926D1*
X838737D2*
X849235D1*
X854485D2*
X864983D1*
X885981D2*
X912228D1*
X922726D2*
X933225D1*
X960858D2*
X976212D1*
X424039Y1593020D2*
X446703D1*
X455535D2*
X473907D1*
X479157D2*
X488343D1*
X490968D2*
X515902D1*
X521152D2*
X531650D1*
X536899D2*
X547398D1*
X552685D2*
X563109D1*
X565776D2*
X576223D1*
X582831D2*
X601204D1*
X616952D2*
X638614D1*
X648448D2*
X666821D1*
X672070D2*
X690443D1*
X695692D2*
X706191D1*
X711440D2*
X721939D1*
X727188D2*
X749852D1*
X758684D2*
X777057D1*
X792805D2*
X811178D1*
X816427D2*
X826926D1*
X838737D2*
X849235D1*
X854485D2*
X864983D1*
X885981D2*
X912228D1*
X922726D2*
X933225D1*
X963855D2*
X977998D1*
X424039Y1591708D2*
X445036D1*
X455535D2*
X473907D1*
X479157D2*
X488343D1*
X490968D2*
X515902D1*
X521151D2*
X531650D1*
X536899D2*
X547398D1*
X552861D2*
X563132D1*
X565773D2*
X576053D1*
X582831D2*
X601204D1*
X616952D2*
X636637D1*
X648448D2*
X666821D1*
X672070D2*
X690443D1*
X695692D2*
X706191D1*
X711440D2*
X721939D1*
X727188D2*
X748186D1*
X758684D2*
X777057D1*
X792805D2*
X811178D1*
X816427D2*
X826926D1*
X838737D2*
X849235D1*
X854485D2*
X864983D1*
X867608D2*
X880731D1*
X885981D2*
X912228D1*
X922726D2*
X933225D1*
X966924D2*
X978596D1*
X424039Y1590396D2*
X446298D1*
X455535D2*
X473907D1*
X479157D2*
X488343D1*
X490973D2*
X515902D1*
X521151D2*
X531650D1*
X536899D2*
X547398D1*
X553179D2*
X563146D1*
X565766D2*
X575737D1*
X582831D2*
X601204D1*
X616952D2*
X638796D1*
X648448D2*
X666821D1*
X672070D2*
X690443D1*
X695692D2*
X706191D1*
X711440D2*
X721939D1*
X727188D2*
X749448D1*
X758684D2*
X777057D1*
X792805D2*
X811178D1*
X816427D2*
X826926D1*
X838737D2*
X849235D1*
X854485D2*
X864983D1*
X867608D2*
X880731D1*
X885981D2*
X912228D1*
X922726D2*
X933225D1*
X969970D2*
X978974D1*
X424039Y1589083D2*
X447437D1*
X455535D2*
X473907D1*
X479157D2*
X488343D1*
X491019D2*
X515902D1*
X521151D2*
X531650D1*
X536899D2*
X547398D1*
X553516D2*
X563200D1*
X565716D2*
X575400D1*
X582831D2*
X601204D1*
X616952D2*
X640499D1*
X648448D2*
X666821D1*
X672070D2*
X690443D1*
X695692D2*
X706191D1*
X711440D2*
X721939D1*
X727188D2*
X750587D1*
X758684D2*
X777057D1*
X792805D2*
X811178D1*
X816427D2*
X826926D1*
X838737D2*
X849235D1*
X854485D2*
X864983D1*
X867608D2*
X880731D1*
X885981D2*
X912228D1*
X922726D2*
X933225D1*
X966847D2*
X978881D1*
X424039Y1587771D2*
X434537D1*
X438216D2*
X448384D1*
X455535D2*
X473907D1*
X479157D2*
X488343D1*
X491186D2*
X502779D1*
X505403D2*
X515902D1*
X521151D2*
X531650D1*
X536899D2*
X547398D1*
X553745D2*
X563404D1*
X565513D2*
X575171D1*
X582831D2*
X601204D1*
X616952D2*
X627451D1*
X631130D2*
X641693D1*
X648448D2*
X666821D1*
X672070D2*
X690443D1*
X695692D2*
X706191D1*
X711440D2*
X721939D1*
X727188D2*
X737687D1*
X741366D2*
X751533D1*
X758684D2*
X777057D1*
X792805D2*
X811178D1*
X816427D2*
X826926D1*
X838737D2*
X849235D1*
X854485D2*
X864983D1*
X867608D2*
X880731D1*
X885981D2*
X912228D1*
X922726D2*
X933225D1*
X963674D2*
X978116D1*
X424039Y1586459D2*
X434537D1*
X438984D2*
X449141D1*
X455535D2*
X466033D1*
X479157D2*
X488343D1*
X491501D2*
X502779D1*
X505403D2*
X515902D1*
X521151D2*
X531650D1*
X536899D2*
X547398D1*
X553867D2*
X563853D1*
X565064D2*
X575050D1*
X582831D2*
X593330D1*
X616952D2*
X627451D1*
X631897D2*
X642587D1*
X648448D2*
X658947D1*
X672070D2*
X682569D1*
X695692D2*
X706191D1*
X711440D2*
X721939D1*
X727188D2*
X737687D1*
X742133D2*
X752291D1*
X758684D2*
X769183D1*
X792805D2*
X803304D1*
X816427D2*
X826926D1*
X838737D2*
X849235D1*
X854485D2*
X864983D1*
X867608D2*
X880731D1*
X885981D2*
X896480D1*
X900417D2*
X912228D1*
X922726D2*
X933225D1*
X960588D2*
X976151D1*
X424039Y1585146D2*
X434537D1*
X439423D2*
X449692D1*
X455535D2*
X466033D1*
X479157D2*
X488343D1*
X491837D2*
X502779D1*
X505403D2*
X515902D1*
X521151D2*
X531650D1*
X536899D2*
X547398D1*
X553928D2*
X574994D1*
X582831D2*
X593330D1*
X616952D2*
X627451D1*
X632337D2*
X642902D1*
X648448D2*
X658947D1*
X672070D2*
X682569D1*
X695692D2*
X706191D1*
X711440D2*
X721939D1*
X727188D2*
X737687D1*
X742573D2*
X752841D1*
X758684D2*
X769183D1*
X792805D2*
X803304D1*
X816427D2*
X826926D1*
X838737D2*
X849235D1*
X854485D2*
X864983D1*
X870233D2*
X880731D1*
X885981D2*
X896480D1*
X900417D2*
X912228D1*
X922726D2*
X933225D1*
X957936D2*
X973626D1*
X424039Y1583834D2*
X434537D1*
X439637D2*
X450013D1*
X455535D2*
X466033D1*
X479157D2*
X488343D1*
X492066D2*
X502774D1*
X505403D2*
X515902D1*
X521151D2*
X531650D1*
X536899D2*
X547398D1*
X553997D2*
X574966D1*
X582831D2*
X593330D1*
X616952D2*
X627451D1*
X632550D2*
X643072D1*
X648448D2*
X658947D1*
X672070D2*
X682569D1*
X695692D2*
X706191D1*
X711440D2*
X721939D1*
X727188D2*
X737687D1*
X742786D2*
X753163D1*
X758684D2*
X769183D1*
X792805D2*
X803304D1*
X816427D2*
X826926D1*
X838737D2*
X849235D1*
X854485D2*
X864983D1*
X870233D2*
X880731D1*
X885981D2*
X896480D1*
X900417D2*
X912228D1*
X922726D2*
X933225D1*
X955789D2*
X970708D1*
X424039Y1582522D2*
X434537D1*
X439729D2*
X450172D1*
X455535D2*
X466033D1*
X479157D2*
X488343D1*
X492188D2*
X502727D1*
X505403D2*
X515902D1*
X521151D2*
X531650D1*
X536899D2*
X547398D1*
X554173D2*
X574911D1*
X582831D2*
X593330D1*
X616952D2*
X627451D1*
X632642D2*
X643149D1*
X648448D2*
X658947D1*
X672070D2*
X682569D1*
X695692D2*
X706191D1*
X711440D2*
X721939D1*
X727188D2*
X737687D1*
X742878D2*
X753321D1*
X758684D2*
X769183D1*
X792805D2*
X803304D1*
X816427D2*
X826926D1*
X838737D2*
X849235D1*
X854485D2*
X864983D1*
X870233D2*
X880731D1*
X885981D2*
X896480D1*
X900417D2*
X912228D1*
X922726D2*
X933225D1*
X954846D2*
X967583D1*
X424039Y1581209D2*
X434537D1*
X439765D2*
X450241D1*
X455535D2*
X466033D1*
X479157D2*
X488343D1*
X492243D2*
X502560D1*
X505403D2*
X515902D1*
X521151D2*
X531650D1*
X536894D2*
X547393D1*
X554491D2*
X574740D1*
X582831D2*
X593330D1*
X616952D2*
X627451D1*
X632674D2*
X643180D1*
X648448D2*
X658947D1*
X672070D2*
X682569D1*
X695692D2*
X706191D1*
X711435D2*
X721934D1*
X727188D2*
X737687D1*
X742915D2*
X753391D1*
X758684D2*
X769183D1*
X792805D2*
X803304D1*
X816427D2*
X826926D1*
X838737D2*
X849235D1*
X854485D2*
X864983D1*
X870228D2*
X880731D1*
X885981D2*
X896480D1*
X900417D2*
X912228D1*
X922726D2*
X933225D1*
X954511D2*
X964398D1*
X424039Y1579897D2*
X434537D1*
X439779D2*
X450269D1*
X455535D2*
X466033D1*
X479157D2*
X488343D1*
X492271D2*
X502246D1*
X505403D2*
X515902D1*
X521157D2*
X531660D1*
X536833D2*
X547347D1*
X554829D2*
X574425D1*
X582831D2*
X593330D1*
X616952D2*
X627461D1*
X632626D2*
X643192D1*
X648448D2*
X658947D1*
X672070D2*
X682569D1*
X695697D2*
X706201D1*
X711374D2*
X721888D1*
X727188D2*
X737687D1*
X742929D2*
X753419D1*
X758684D2*
X769183D1*
X792805D2*
X803304D1*
X816427D2*
X826926D1*
X838737D2*
X849235D1*
X854485D2*
X864994D1*
X870166D2*
X880731D1*
X885981D2*
X896480D1*
X900417D2*
X912228D1*
X922726D2*
X933225D1*
X954332D2*
X961249D1*
X424039Y1578585D2*
X434537D1*
X439784D2*
X450280D1*
X455535D2*
X466033D1*
X479157D2*
X488343D1*
X492326D2*
X501909D1*
X505403D2*
X515902D1*
X521203D2*
X531760D1*
X536679D2*
X547180D1*
X555058D2*
X574088D1*
X582831D2*
X593330D1*
X616952D2*
X627561D1*
X632478D2*
X643196D1*
X648448D2*
X658947D1*
X672070D2*
X682569D1*
X695743D2*
X706301D1*
X711220D2*
X721720D1*
X727188D2*
X737687D1*
X742934D2*
X753429D1*
X758684D2*
X769183D1*
X792805D2*
X803304D1*
X816427D2*
X826926D1*
X838737D2*
X849235D1*
X854490D2*
X865094D1*
X870012D2*
X880731D1*
X885981D2*
X896480D1*
X900417D2*
X912228D1*
X922726D2*
X933225D1*
X954222D2*
X958159D1*
X424039Y1577272D2*
X434537D1*
X439786D2*
X450283D1*
X455535D2*
X466033D1*
X479157D2*
X488343D1*
X492497D2*
X501681D1*
X505403D2*
X515902D1*
X521375D2*
X531999D1*
X535868D2*
X546860D1*
X555180D2*
X573859D1*
X582831D2*
X593330D1*
X616952D2*
X627799D1*
X631668D2*
X643198D1*
X648448D2*
X658947D1*
X672070D2*
X682569D1*
X695916D2*
X706539D1*
X710408D2*
X721401D1*
X727188D2*
X737687D1*
X742935D2*
X753433D1*
X758684D2*
X769183D1*
X792805D2*
X803304D1*
X816427D2*
X826926D1*
X838737D2*
X849235D1*
X854536D2*
X865332D1*
X869201D2*
X880731D1*
X885981D2*
X896480D1*
X900417D2*
X912228D1*
X922726D2*
X933225D1*
X424039Y1575960D2*
X434537D1*
X439786D2*
X450285D1*
X455535D2*
X475220D1*
X479157D2*
X488343D1*
X492812D2*
X501559D1*
X505403D2*
X515902D1*
X521741D2*
X533021D1*
X533916D2*
X546472D1*
X555240D2*
X573737D1*
X582831D2*
X602516D1*
X616952D2*
X628822D1*
X629717D2*
X643193D1*
X648448D2*
X668133D1*
X672070D2*
X682569D1*
X696281D2*
X707562D1*
X708457D2*
X721013D1*
X727188D2*
X737687D1*
X742936D2*
X753434D1*
X758684D2*
X778369D1*
X792805D2*
X803304D1*
X816427D2*
X834800D1*
X838737D2*
X849235D1*
X854708D2*
X866355D1*
X867249D2*
X880731D1*
X885981D2*
X896480D1*
X900417D2*
X912228D1*
X922726D2*
X933225D1*
X424039Y1574648D2*
X434537D1*
X439787D2*
X450285D1*
X455535D2*
X475220D1*
X479157D2*
X488343D1*
X493149D2*
X501498D1*
X505403D2*
X515902D1*
X522296D2*
X546025D1*
X555310D2*
X573682D1*
X582831D2*
X602516D1*
X616952D2*
X643142D1*
X648448D2*
X668133D1*
X672070D2*
X682569D1*
X696836D2*
X720566D1*
X727188D2*
X737687D1*
X742936D2*
X753435D1*
X758684D2*
X778369D1*
X792805D2*
X803304D1*
X816427D2*
X834800D1*
X838737D2*
X849235D1*
X855079D2*
X880731D1*
X885981D2*
X896480D1*
X900417D2*
X912228D1*
X922726D2*
X933225D1*
X424039Y1573335D2*
X434537D1*
X439787D2*
X450285D1*
X455535D2*
X475220D1*
X479157D2*
X488343D1*
X493378D2*
X501429D1*
X505403D2*
X515902D1*
X523062D2*
X545360D1*
X555486D2*
X573654D1*
X582831D2*
X602516D1*
X616952D2*
X642919D1*
X648448D2*
X668133D1*
X672070D2*
X682569D1*
X697603D2*
X719901D1*
X727188D2*
X737687D1*
X742936D2*
X753435D1*
X758684D2*
X778369D1*
X792805D2*
X803304D1*
X816427D2*
X834800D1*
X838737D2*
X849235D1*
X855685D2*
X880731D1*
X885981D2*
X896480D1*
X900417D2*
X912228D1*
X922726D2*
X933225D1*
X424039Y1572023D2*
X434537D1*
X439787D2*
X450285D1*
X455535D2*
X475220D1*
X479157D2*
X488343D1*
X493500D2*
X501252D1*
X505403D2*
X515902D1*
X524103D2*
X544335D1*
X555804D2*
X573595D1*
X582831D2*
X602516D1*
X616952D2*
X642494D1*
X648448D2*
X668133D1*
X672070D2*
X682569D1*
X698644D2*
X718876D1*
X727188D2*
X737687D1*
X742936D2*
X753435D1*
X758684D2*
X778369D1*
X792805D2*
X803304D1*
X816427D2*
X834800D1*
X838737D2*
X849235D1*
X856665D2*
X880731D1*
X885981D2*
X896480D1*
X900417D2*
X912228D1*
X922726D2*
X933225D1*
X424039Y1570710D2*
X434537D1*
X439787D2*
X450285D1*
X455535D2*
X475220D1*
X479157D2*
X488343D1*
X493556D2*
X500923D1*
X505403D2*
X515902D1*
X525460D2*
X542809D1*
X556144D2*
X573389D1*
X582831D2*
X602516D1*
X616952D2*
X641305D1*
X648448D2*
X668133D1*
X672070D2*
X682569D1*
X700000D2*
X717350D1*
X727188D2*
X737687D1*
X742936D2*
X753435D1*
X758684D2*
X778369D1*
X792805D2*
X803304D1*
X816427D2*
X834800D1*
X838737D2*
X849235D1*
X858183D2*
X880731D1*
X885981D2*
X896480D1*
X900417D2*
X912228D1*
X922726D2*
X933225D1*
X424039Y1569398D2*
X434537D1*
X439787D2*
X450285D1*
X455535D2*
X475220D1*
X479157D2*
X488343D1*
X493579D2*
X500532D1*
X505403D2*
X515902D1*
X527149D2*
X540686D1*
X556394D2*
X572939D1*
X582831D2*
X602516D1*
X616952D2*
X639738D1*
X648448D2*
X668133D1*
X672070D2*
X682569D1*
X701689D2*
X715227D1*
X727188D2*
X737687D1*
X742936D2*
X753435D1*
X758684D2*
X778369D1*
X792805D2*
X803304D1*
X816427D2*
X834800D1*
X838737D2*
X849235D1*
X860168D2*
X880731D1*
X885981D2*
X896480D1*
X900417D2*
X912228D1*
X922726D2*
X933225D1*
X424039Y1568086D2*
X434537D1*
X439787D2*
X450285D1*
X455535D2*
X475220D1*
X479157D2*
X488343D1*
X493592D2*
X500154D1*
X505403D2*
X515902D1*
X529025D2*
X538212D1*
X556585D2*
X572333D1*
X582831D2*
X602516D1*
X616952D2*
X637949D1*
X648448D2*
X668133D1*
X672070D2*
X682569D1*
X703566D2*
X712752D1*
X727188D2*
X737687D1*
X742936D2*
X753435D1*
X758684D2*
X778369D1*
X792805D2*
X803304D1*
X816427D2*
X834800D1*
X838737D2*
X849235D1*
X862359D2*
X868920D1*
X874170D2*
X880731D1*
X885981D2*
X896480D1*
X900417D2*
X912228D1*
X922726D2*
X933225D1*
X456228Y1542275D2*
D12*
X603228D1*
X453354Y1539275D2*
X608048D1*
X450867Y1536275D2*
X612105D1*
X448839Y1533275D2*
X501228D1*
X507228D2*
X613704D1*
X448219Y1530275D2*
X501228D1*
X507228D2*
X614575D1*
X448956Y1527275D2*
X501228D1*
X507228D2*
X614971D1*
X450192Y1524275D2*
X615133D1*
X453356Y1521275D2*
X615194D1*
X457532Y1518275D2*
X615216D1*
X462228Y1515275D2*
X615224D1*
X578512Y1512275D2*
X615226D1*
X447228Y1509275D2*
X558228D1*
X582765D2*
X615227D1*
X441006Y1506275D2*
X562486D1*
X586035D2*
X615227D1*
X435656Y1503275D2*
X516228D1*
X522228D2*
X565846D1*
X587172D2*
X615228D1*
X431507Y1500275D2*
X568443D1*
X587781D2*
X615228D1*
X428343Y1497275D2*
X513228D1*
X519228D2*
X569353D1*
X588054D2*
X615228D1*
X427247Y1494275D2*
X513228D1*
X519228D2*
X569732D1*
X588164D2*
X615228D1*
X426659Y1491275D2*
X513228D1*
X519228D2*
X569729D1*
X588205D2*
X615228D1*
X426395Y1488275D2*
X568493D1*
X588220D2*
X615228D1*
X426289Y1485275D2*
X564746D1*
X588225D2*
X615228D1*
X426249Y1482275D2*
X559092D1*
X588227D2*
X615228D1*
X426235Y1479275D2*
X528228D1*
X537228D2*
X552228D1*
X588227D2*
X615228D1*
X426230Y1476275D2*
X453354D1*
X579228D2*
D3*
X588227D2*
X615228D1*
X426228Y1473275D2*
X450855D1*
X495228D2*
X579228D1*
X588228D2*
X615228D1*
X426228Y1470275D2*
X449074D1*
X487162D2*
X579228D1*
X588228D2*
X615228D1*
X426228Y1467275D2*
X448061D1*
X481080D2*
X579228D1*
X588228D2*
X615228D1*
X426228Y1464275D2*
X447572D1*
X477040D2*
X579228D1*
X588228D2*
X615228D1*
X426228Y1461275D2*
X447360D1*
X474435D2*
X579228D1*
X588228D2*
X615228D1*
X426228Y1458275D2*
X447276D1*
X472809D2*
X579228D1*
X588228D2*
X615228D1*
X426228Y1455275D2*
X447245D1*
X471931D2*
X579216D1*
X588228D2*
X615228D1*
X426228Y1452275D2*
X447233D1*
X471516D2*
X579102D1*
X588228D2*
X615228D1*
X426228Y1449275D2*
X447229D1*
X471338D2*
X578638D1*
X588228D2*
X615228D1*
X426228Y1446275D2*
X447228D1*
X471268D2*
X577612D1*
X588228D2*
X615228D1*
X426228Y1443275D2*
X447228D1*
X471242D2*
X576228D1*
X588228D2*
X615228D1*
X426228Y1440275D2*
X447228D1*
X471232D2*
X492228D1*
X507228D2*
X528228D1*
X558228D2*
X577612D1*
X588228D2*
X615228D1*
X426228Y1437275D2*
X447228D1*
X471229D2*
X492228D1*
X507228D2*
X528239D1*
X558228D2*
X578474D1*
X588228D2*
X615228D1*
X426228Y1434275D2*
X447228D1*
X471228D2*
X492228D1*
X507228D2*
X528354D1*
X558228D2*
X578910D1*
X588228D2*
X615228D1*
X426228Y1431275D2*
X447228D1*
X471228D2*
X492228D1*
X507228D2*
X528817D1*
X558228D2*
X579103D1*
X588228D2*
X615228D1*
X426228Y1428275D2*
X447228D1*
X471228D2*
X492228D1*
X507228D2*
X529843D1*
X558228D2*
X579182D1*
X588228D2*
X615228D1*
X426228Y1425275D2*
X447228D1*
X471228D2*
X492228D1*
X507228D2*
X531228D1*
X558228D2*
X579211D1*
X588228D2*
X615228D1*
X426228Y1422275D2*
X447228D1*
X471228D2*
X492228D1*
X507228D2*
X579222D1*
X588228D2*
X615228D1*
X426228Y1419275D2*
X447228D1*
X471228D2*
X492228D1*
X507228D2*
X579226D1*
X588228D2*
X615228D1*
X426228Y1416275D2*
X447228D1*
X471228D2*
X492228D1*
X507228D2*
X579227D1*
X588228D2*
X615228D1*
X426228Y1413275D2*
X447228D1*
X471228D2*
X492239D1*
X507239D2*
X579227D1*
X588228D2*
X615228D1*
X426228Y1410275D2*
X447228D1*
X471228D2*
X492345D1*
X507345D2*
X579216D1*
X588228D2*
X615228D1*
X426228Y1407275D2*
X447228D1*
X471228D2*
X492739D1*
X507751D2*
X579087D1*
X588228D2*
X615228D1*
X426228Y1404275D2*
X447228D1*
X471228D2*
X493572D1*
X508698D2*
X578771D1*
X588228D2*
X615228D1*
X426228Y1401275D2*
X447228D1*
X471228D2*
X494812D1*
X510402D2*
X577112D1*
X588228D2*
X615228D1*
X426228Y1398275D2*
X447228D1*
X471228D2*
X496407D1*
X513022D2*
X571977D1*
X426228Y1395275D2*
X447228D1*
X482009D2*
X498228D1*
X516228D2*
X564357D1*
X426228Y1392275D2*
X447228D1*
X492228D2*
X555228D1*
X426228Y1389275D2*
X447228D1*
X485085D2*
X537228D1*
X555228D2*
X579228D1*
X609228D2*
X615228D1*
X426228Y1386275D2*
X447228D1*
X479617D2*
X537228D1*
X556612D2*
X579228D1*
X588228D2*
X597228D1*
X604634D2*
X615228D1*
X426228Y1383275D2*
X447228D1*
X475809D2*
X537228D1*
X557474D2*
X579228D1*
X588351D2*
X594228D1*
X600228D2*
X615228D1*
X426228Y1380275D2*
X447228D1*
X473022D2*
X537228D1*
X557910D2*
X579228D1*
X588816D2*
X609228D1*
X615228D2*
D3*
X426228Y1377275D2*
X447228D1*
X472093D2*
X537228D1*
X558103D2*
X579228D1*
X589843D2*
X606228D1*
X612228D2*
X615228D1*
X426228Y1374275D2*
X447228D1*
X471594D2*
X537228D1*
X558182D2*
X579228D1*
X591228D2*
X603228D1*
X609228D2*
X615228D1*
X426228Y1371275D2*
X447228D1*
X471370D2*
X537228D1*
X558211D2*
X579228D1*
X426228Y1368275D2*
X447228D1*
X471280D2*
X537228D1*
X558222D2*
X579228D1*
X426228Y1365275D2*
X447228D1*
X471246D2*
X537228D1*
X558226D2*
X579228D1*
X426228Y1362275D2*
X447228D1*
X471234D2*
X537228D1*
X558227D2*
X579228D1*
X426228Y1359275D2*
X447228D1*
X471230D2*
X492228D1*
X516228D2*
X537228D1*
X558227D2*
X579228D1*
X588228D2*
X594228D1*
X426228Y1356275D2*
X447228D1*
X471228D2*
X492228D1*
X516228D2*
X537228D1*
X558228D2*
X579228D1*
X588228D2*
X594228D1*
X426228Y1353275D2*
X447228D1*
X471228D2*
X492228D1*
X516228D2*
X537228D1*
X558228D2*
X579228D1*
X588228D2*
X594228D1*
X426228Y1350275D2*
X447228D1*
X471228D2*
X492228D1*
X516228D2*
X537228D1*
X558228D2*
X579228D1*
X588228D2*
X615228D1*
X426228Y1347275D2*
X447228D1*
X471228D2*
X492228D1*
X516228D2*
X537228D1*
X558228D2*
X579228D1*
X588228D2*
X615228D1*
X426228Y1344275D2*
X447228D1*
X471228D2*
X492228D1*
X516228D2*
X537228D1*
X558228D2*
X579228D1*
X588228D2*
X615228D1*
X426228Y1341275D2*
X447228D1*
X471228D2*
X579228D1*
X588228D2*
X594228D1*
X426228Y1338275D2*
X447228D1*
X471228D2*
X579228D1*
X588228D2*
X594228D1*
X426228Y1335275D2*
X447228D1*
X471228D2*
X579228D1*
X426228Y1332275D2*
X447228D1*
X471239D2*
X579228D1*
X426228Y1329275D2*
X447228D1*
X471345D2*
X579216D1*
X426228Y1326275D2*
X447228D1*
X471751D2*
X579099D1*
X426228Y1323275D2*
X447228D1*
X472715D2*
X578576D1*
X426228Y1320275D2*
X447228D1*
X474159D2*
X577569D1*
X588228D2*
X615228D1*
X426228Y1317275D2*
X447228D1*
X477891D2*
X574328D1*
X588228D2*
X615228D1*
X426228Y1314275D2*
X447228D1*
X483129D2*
X569707D1*
X588228D2*
X615228D1*
X426228Y1311275D2*
X447228D1*
X489228D2*
X564228D1*
X426228Y1308275D2*
X447228D1*
X471228D2*
X507703D1*
X426228Y1305275D2*
X447228D1*
X471228D2*
X505564D1*
X426228Y1302275D2*
X447228D1*
X471228D2*
X503840D1*
X426228Y1299275D2*
X447228D1*
X471239D2*
X502595D1*
X588228D2*
D3*
X426228Y1296275D2*
X447228D1*
X471356D2*
X501990D1*
X588228D2*
X615228D1*
X426228Y1293275D2*
X447228D1*
X471856D2*
X501862D1*
X588228D2*
X615228D1*
X426228Y1290275D2*
X447228D1*
X473074D2*
X503264D1*
X600790D2*
X615228D1*
X426228Y1287275D2*
X447228D1*
X475058D2*
X506796D1*
X612228D2*
X615216D1*
X426228Y1284275D2*
X447228D1*
X477545D2*
X511278D1*
X570228D2*
X579228D1*
X600790D2*
X615102D1*
X426228Y1281275D2*
X447228D1*
X480228D2*
X579228D1*
X588228D2*
X614638D1*
X426228Y1278275D2*
X447228D1*
X476073D2*
X579228D1*
X588228D2*
X613612D1*
X426228Y1275275D2*
X447228D1*
X472996D2*
X579228D1*
X588228D2*
X612228D1*
X426228Y1272275D2*
X447228D1*
X472057D2*
X579228D1*
X426228Y1269275D2*
X447228D1*
X471569D2*
X579228D1*
X426228Y1266275D2*
X447228D1*
X471358D2*
X579228D1*
X426228Y1263275D2*
X447228D1*
X471274D2*
X579228D1*
X426228Y1260275D2*
X447228D1*
X471244D2*
X579228D1*
X591228D2*
X597228D1*
X609228D2*
X615228D1*
X426228Y1257275D2*
X447228D1*
X471233D2*
X579228D1*
X589843D2*
X595821D1*
X610490D2*
X615228D1*
X426228Y1254275D2*
X447228D1*
X471229D2*
X579228D1*
X588993D2*
X594228D1*
X611240D2*
X615228D1*
X426228Y1251275D2*
X447228D1*
X471228D2*
X579228D1*
X588686D2*
X595821D1*
X610409D2*
X615204D1*
X426228Y1248275D2*
X447228D1*
X471228D2*
X474228D1*
X571023D2*
X579228D1*
X588761D2*
X597228D1*
X609228D2*
X614976D1*
X426228Y1245275D2*
X447228D1*
X561639D2*
X579228D1*
X590213D2*
X614431D1*
X426228Y1242275D2*
X447228D1*
X551091D2*
X579228D1*
X593491D2*
X612093D1*
X426228Y1239275D2*
X447228D1*
X539866D2*
X579228D1*
X597228D2*
X609228D1*
X426228Y1236275D2*
X447228D1*
X528443D2*
X579228D1*
X426228Y1233275D2*
X447228D1*
X516987D2*
X579228D1*
X426228Y1230275D2*
X447228D1*
X505368D2*
X579228D1*
X426228Y1227275D2*
X447228D1*
X493602D2*
X579228D1*
X426228Y1224275D2*
X447228D1*
X482053D2*
X579228D1*
X594228D2*
X603228D1*
X609228D2*
X615228D1*
X426228Y1221275D2*
X447228D1*
X471610D2*
X579228D1*
X591458D2*
X614454D1*
X426228Y1218275D2*
X447228D1*
X463495D2*
X579228D1*
X589407D2*
X612102D1*
X426228Y1215275D2*
X447228D1*
X457326D2*
X579228D1*
X588781D2*
X594228D1*
X603228D2*
X609228D1*
X426228Y1212275D2*
X447228D1*
X454835D2*
X579228D1*
X588455D2*
X612019D1*
X426228Y1209275D2*
X447228D1*
X453971D2*
X565072D1*
X588309D2*
X613874D1*
X426228Y1206275D2*
X447228D1*
X453529D2*
X555501D1*
X588228D2*
X615228D1*
X426228Y1203275D2*
X447228D1*
X453341D2*
X549210D1*
X426228Y1200275D2*
X447228D1*
X453268D2*
X518296D1*
X525228D2*
X547305D1*
X426228Y1197275D2*
X447228D1*
X453241D2*
X507758D1*
X525228D2*
X546711D1*
X426228Y1194275D2*
X447228D1*
X453232D2*
X496957D1*
X525228D2*
X546418D1*
X426228Y1191275D2*
X447228D1*
X453229D2*
X486228D1*
X525228D2*
X546297D1*
X426228Y1188275D2*
X447228D1*
X453228D2*
X497175D1*
X525228D2*
X546252D1*
X588228D2*
X615228D1*
X426228Y1185275D2*
X447228D1*
X453228D2*
X508155D1*
X525228D2*
X546259D1*
X588228D2*
X615228D1*
X426228Y1182275D2*
X447228D1*
X453228D2*
X519228D1*
X525228D2*
X546488D1*
X588228D2*
X615228D1*
X426228Y1179275D2*
X447228D1*
X467881D2*
X547048D1*
X426228Y1176275D2*
X447228D1*
X480712D2*
X549591D1*
X426228Y1173275D2*
X447228D1*
X492187D2*
X556597D1*
X426228Y1170275D2*
X447228D1*
X502835D2*
X566879D1*
X426228Y1167275D2*
X447228D1*
X513066D2*
X579228D1*
X426228Y1164275D2*
X447228D1*
X523286D2*
X579228D1*
X588228D2*
X597228D1*
X609228D2*
X615228D1*
X426228Y1161275D2*
X447228D1*
X533596D2*
X579228D1*
X588239D2*
X596047D1*
X610408D2*
X615228D1*
X426228Y1158275D2*
X447228D1*
X543800D2*
X579228D1*
X588368D2*
X596424D1*
X610031D2*
X615204D1*
X426228Y1155275D2*
X447228D1*
X553488D2*
X579228D1*
X588685D2*
X597228D1*
X609228D2*
X614976D1*
X426228Y1152275D2*
X447228D1*
X562406D2*
X579228D1*
X590188D2*
X614431D1*
X426228Y1149275D2*
X447228D1*
X570865D2*
X579228D1*
X593480D2*
X612093D1*
X426228Y1146275D2*
X447228D1*
X579228D2*
D3*
X597228D2*
X609228D1*
X426228Y1143275D2*
X447228D1*
X426228Y1140275D2*
X447228D1*
X471228D2*
X606228D1*
X426228Y1137275D2*
X447228D1*
X471228D2*
X610023D1*
X426228Y1134275D2*
X447228D1*
X471228D2*
X613076D1*
X426228Y1131275D2*
X447228D1*
X471228D2*
X614189D1*
X426228Y1128275D2*
X447228D1*
X471228D2*
X614788D1*
X426228Y1125275D2*
X447228D1*
X471228D2*
X615056D1*
X426228Y1122275D2*
X447228D1*
X471228D2*
X615165D1*
X426228Y1119275D2*
X447228D1*
X471228D2*
X615205D1*
X426228Y1116275D2*
X447228D1*
X471228D2*
X615220D1*
X426228Y1113275D2*
X447228D1*
X471228D2*
X615225D1*
X426228Y1110275D2*
X447228D1*
X471228D2*
X615227D1*
X426228Y1107275D2*
X447228D1*
X558228D2*
X579228D1*
X597228D2*
X615227D1*
X426228Y1104275D2*
X447228D1*
X558228D2*
X579228D1*
X597228D2*
X615227D1*
X426228Y1101275D2*
X447228D1*
X558228D2*
X579228D1*
X597228D2*
X615228D1*
X426228Y1098275D2*
X447228D1*
X558228D2*
X579228D1*
X597228D2*
X615228D1*
X426228Y1095275D2*
X447228D1*
X558228D2*
X579228D1*
X597228D2*
X615228D1*
X426228Y1092275D2*
X447228D1*
X471228D2*
X579228D1*
X597228D2*
X615228D1*
X426228Y1089275D2*
X447228D1*
X471228D2*
X579228D1*
X597228D2*
X615228D1*
X426228Y1086275D2*
X447228D1*
X471228D2*
X579228D1*
X597228D2*
X615228D1*
X426228Y1083275D2*
X447228D1*
X471228D2*
X579216D1*
X597228D2*
X615228D1*
X426228Y1080275D2*
X447228D1*
X471228D2*
X579099D1*
X597228D2*
X615228D1*
X426228Y1077275D2*
X447228D1*
X471228D2*
X578599D1*
X597228D2*
X615228D1*
X426228Y1074275D2*
X447228D1*
X471228D2*
X577369D1*
X597228D2*
X615228D1*
X426228Y1071275D2*
X447228D1*
X471228D2*
X575268D1*
X597228D2*
X615228D1*
X426228Y1068275D2*
X447228D1*
X471228D2*
X572295D1*
X597228D2*
X615228D1*
X426228Y1065275D2*
X447228D1*
X471228D2*
X568488D1*
X597228D2*
X615228D1*
X426228Y1062275D2*
X447228D1*
X471228D2*
X564228D1*
X597228D2*
X615228D1*
X426228Y1059275D2*
X447228D1*
X471228D2*
X483228D1*
X573228D2*
X579228D1*
X597228D2*
X615228D1*
X426228Y1056275D2*
X447228D1*
X492228D2*
X579228D1*
X597228D2*
X615228D1*
X426228Y1053275D2*
X447228D1*
X485085D2*
X579228D1*
X597228D2*
X615228D1*
X426228Y1050275D2*
X447228D1*
X479617D2*
X579228D1*
X597228D2*
X615228D1*
X426228Y1047275D2*
X447228D1*
X475809D2*
X579228D1*
X597228D2*
X615228D1*
X426228Y1044275D2*
X447228D1*
X473022D2*
X579228D1*
X597228D2*
X615228D1*
X426228Y1041275D2*
X447228D1*
X472093D2*
X579228D1*
X597228D2*
X615228D1*
X426228Y1038275D2*
X447228D1*
X471594D2*
X579216D1*
X597228D2*
X615228D1*
X426228Y1035275D2*
X447228D1*
X471370D2*
X579102D1*
X597228D2*
X615228D1*
X426228Y1032275D2*
X447228D1*
X471280D2*
X578638D1*
X597228D2*
X615228D1*
X426228Y1029275D2*
X447228D1*
X471246D2*
X577612D1*
X597228D2*
X615228D1*
X426228Y1026275D2*
X447228D1*
X471234D2*
X576228D1*
X597228D2*
X615228D1*
X426228Y1023275D2*
X447228D1*
X471230D2*
X492228D1*
X507228D2*
X528228D1*
X558228D2*
X577612D1*
X597228D2*
X615228D1*
X426228Y1020275D2*
X447228D1*
X471228D2*
X492228D1*
X507228D2*
X528228D1*
X558228D2*
X578474D1*
X597228D2*
X615228D1*
X426228Y1017275D2*
X447228D1*
X471228D2*
X492228D1*
X507228D2*
X528228D1*
X558228D2*
X578910D1*
X597228D2*
X615228D1*
X426228Y1014275D2*
X447228D1*
X471228D2*
X492228D1*
X507228D2*
X528228D1*
X558228D2*
X579103D1*
X597228D2*
X615228D1*
X426228Y1011275D2*
X447228D1*
X471228D2*
X492228D1*
X507228D2*
X528228D1*
X558228D2*
X579182D1*
X597228D2*
X615228D1*
X426228Y1008275D2*
X447228D1*
X471228D2*
X492228D1*
X507228D2*
X579211D1*
X597228D2*
X615228D1*
X426228Y1005275D2*
X447228D1*
X471228D2*
X492228D1*
X507228D2*
X579222D1*
X597228D2*
X615228D1*
X426228Y1002275D2*
X447228D1*
X471228D2*
X492228D1*
X507228D2*
X579226D1*
X597228D2*
X615228D1*
X426228Y999275D2*
X447228D1*
X471228D2*
X492228D1*
X507228D2*
X579227D1*
X597228D2*
X615228D1*
X426228Y996275D2*
X447228D1*
X471228D2*
X492239D1*
X507239D2*
X579227D1*
X597228D2*
X615228D1*
X426228Y993275D2*
X447228D1*
X471228D2*
X492356D1*
X507356D2*
X579204D1*
X597228D2*
X615228D1*
X426228Y990275D2*
X447228D1*
X471228D2*
X492855D1*
X507856D2*
X578981D1*
X597228D2*
X615228D1*
X426228Y987275D2*
X447228D1*
X471228D2*
X494063D1*
X509074D2*
X578454D1*
X597228D2*
X615228D1*
X426228Y984275D2*
X447228D1*
X471228D2*
X495981D1*
X511058D2*
X576236D1*
X597228D2*
X615228D1*
X426228Y981275D2*
X447228D1*
X471228D2*
X498228D1*
X513545D2*
X573358D1*
X597228D2*
X615228D1*
X426228Y978275D2*
X447228D1*
X516228D2*
X570228D1*
X597228D2*
X615228D1*
X426228Y975275D2*
X447228D1*
X597228D2*
X615228D1*
X426228Y972275D2*
X447228D1*
X468228D2*
X510228D1*
X522228D2*
X570228D1*
X597228D2*
X615228D1*
X426228Y969275D2*
X447228D1*
X465354D2*
X513228D1*
X522228D2*
X573664D1*
X597228D2*
X615228D1*
X426228Y966275D2*
X447228D1*
X462855D2*
X576694D1*
X597228D2*
X615228D1*
X426228Y963275D2*
X447228D1*
X461074D2*
X577980D1*
X597228D2*
X615228D1*
X426228Y960275D2*
X447228D1*
X460061D2*
X578689D1*
X597228D2*
X615228D1*
X426228Y957275D2*
X447228D1*
X459572D2*
X579015D1*
X597228D2*
X615228D1*
X426228Y954275D2*
X447228D1*
X459360D2*
X579148D1*
X597228D2*
X615228D1*
X426228Y951275D2*
X447228D1*
X459276D2*
X579199D1*
X597228D2*
X615228D1*
X426228Y948275D2*
X447228D1*
X459245D2*
X579218D1*
X597228D2*
X615228D1*
X426228Y945275D2*
X447228D1*
X459233D2*
X579224D1*
X597228D2*
X615228D1*
X426228Y942275D2*
X447228D1*
X459229D2*
X480817D1*
X507228D2*
X528228D1*
X557638D2*
X579227D1*
X597228D2*
X615228D1*
X426228Y939275D2*
X447228D1*
X459228D2*
X479063D1*
X507228D2*
X528228D1*
X559392D2*
X579227D1*
X597228D2*
X615228D1*
X426228Y936275D2*
X447228D1*
X459228D2*
X478070D1*
X507228D2*
X528228D1*
X560385D2*
X579227D1*
X597228D2*
X615228D1*
X426228Y933275D2*
X447228D1*
X459228D2*
X477697D1*
X507228D2*
X528228D1*
X560758D2*
X579228D1*
X597228D2*
X615228D1*
X426228Y930275D2*
X447228D1*
X459228D2*
X477949D1*
X507228D2*
X528228D1*
X560506D2*
X579228D1*
X597228D2*
X615228D1*
X426228Y927275D2*
X447228D1*
X459228D2*
X478889D1*
X507228D2*
X528228D1*
X559567D2*
X579228D1*
X597228D2*
X615228D1*
X426228Y924275D2*
X447228D1*
X459228D2*
X480228D1*
X507228D2*
X528228D1*
X558228D2*
X579228D1*
X597228D2*
X615228D1*
X426228Y921275D2*
X447228D1*
X459228D2*
X579228D1*
X597228D2*
X615228D1*
X426228Y918275D2*
X447228D1*
X459228D2*
X579228D1*
X597228D2*
X615228D1*
X426228Y915275D2*
X447228D1*
X459228D2*
X579228D1*
X597228D2*
X615228D1*
X426228Y912275D2*
X447228D1*
X459228D2*
X579228D1*
X597228D2*
X615228D1*
X426228Y909275D2*
X447228D1*
X459228D2*
X579228D1*
X597228D2*
X615228D1*
X426228Y906275D2*
X447228D1*
X459228D2*
X579228D1*
X597228D2*
X615228D1*
X426228Y903275D2*
X447228D1*
X459228D2*
X579228D1*
X597228D2*
X615228D1*
X426228Y900275D2*
X447228D1*
X459228D2*
X579228D1*
X597228D2*
X615228D1*
X426228Y897275D2*
X447228D1*
X459228D2*
X579228D1*
X597216D2*
X615228D1*
X426228Y894275D2*
X447251D1*
X459228D2*
X579228D1*
X597099D2*
X615228D1*
X426228Y891275D2*
X447485D1*
X459228D2*
D3*
X579228D2*
D3*
X596599D2*
X615228D1*
X426239Y888275D2*
X448048D1*
X595381D2*
X615228D1*
X426356Y885275D2*
X450789D1*
X593397D2*
X615216D1*
X426856Y882275D2*
X454708D1*
X590910D2*
X615087D1*
X428074Y879275D2*
X614771D1*
X430058Y876275D2*
X613268D1*
X432545Y873275D2*
X609975D1*
X435228Y870275D2*
X606228D1*
X518487Y2073771D2*
X569487D1*
X512602Y2070771D2*
X574450D1*
X506998Y2067771D2*
X579440D1*
X501834Y2064771D2*
X584384D1*
X497103Y2061771D2*
X588965D1*
X492844Y2058771D2*
X526142D1*
X559194D2*
X593123D1*
X489110Y2055771D2*
X517494D1*
X568307D2*
X596894D1*
X485759Y2052771D2*
X510749D1*
X575480D2*
X600135D1*
X482706Y2049771D2*
X505412D1*
X581186D2*
X602966D1*
X480024Y2046771D2*
X500875D1*
X585877D2*
X605738D1*
X477719Y2043771D2*
X496626D1*
X589874D2*
X608492D1*
X475491Y2040771D2*
X492635D1*
X593576D2*
X611039D1*
X473116Y2037771D2*
X489026D1*
X497487D2*
X521487D1*
X527487D2*
D3*
X597093D2*
X613289D1*
X470776Y2034771D2*
X485727D1*
X503622D2*
X515675D1*
X524487D2*
X539487D1*
X554487D2*
X575487D1*
X600215D2*
X615496D1*
X468633Y2031771D2*
X482694D1*
X508384D2*
X509487D1*
X521487D2*
X527487D1*
X539487D2*
X545487D1*
X551487D2*
X580269D1*
X602996D2*
X617862D1*
X466560Y2028771D2*
X480020D1*
X512487D2*
X515487D1*
X530499D2*
X539487D1*
X548487D2*
D3*
X556092D2*
X569487D1*
X575487D2*
X584487D1*
X605749D2*
X620188D1*
X464498Y2025771D2*
X477717D1*
X521487D2*
D3*
X539610D2*
X545487D1*
X561164D2*
X582076D1*
X608496D2*
X622237D1*
X462607Y2022771D2*
X475490D1*
X527487D2*
D3*
X549076D2*
X554487D1*
X566487D2*
X580311D1*
X611040D2*
X624032D1*
X460889Y2019771D2*
X473116D1*
X533487D2*
X539487D1*
X559102D2*
X579238D1*
X613278D2*
X625759D1*
X459196Y2016771D2*
X470788D1*
X545487D2*
D3*
X569487D2*
X578487D1*
X615390D2*
X627598D1*
X457369Y2013771D2*
X468739D1*
X617480D2*
X629551D1*
X455421Y2010771D2*
X466954D1*
X578487D2*
D3*
X587487D2*
D3*
X619470D2*
X631396D1*
X453590Y2007771D2*
X465322D1*
X575487D2*
D3*
X581487D2*
D3*
X621456D2*
X633084D1*
X451995Y2004771D2*
X463771D1*
X554487D2*
D3*
X572487D2*
D3*
X593487D2*
D3*
X623392D2*
X634665D1*
X450692Y2001771D2*
X462248D1*
X563487D2*
D3*
X575487D2*
D3*
X590487D2*
D3*
X596487D2*
D3*
X624981D2*
X636107D1*
X449586Y1998771D2*
X460743D1*
X572487D2*
D3*
X599487D2*
D3*
X626253D2*
X637336D1*
X448408Y1995771D2*
X459238D1*
X627511D2*
X638409D1*
X447089Y1992771D2*
X457739D1*
X628865D2*
X639574D1*
X445679Y1989771D2*
X456236D1*
X599487D2*
D3*
X605487D2*
D3*
X630288D2*
X640889D1*
X444225Y1986771D2*
X454739D1*
X601461D2*
X602487D1*
X608487D2*
D3*
X631759D2*
X642297D1*
X442836Y1983771D2*
X453248D1*
X603561D2*
X602487D1*
X633244D2*
X643750D1*
X441627Y1980771D2*
X451844D1*
X605946D2*
X605487D1*
X611487D2*
D3*
X634729D2*
X645139D1*
X440573Y1977771D2*
X450630D1*
X608487D2*
D3*
X636120D2*
X646347D1*
X439516Y1974771D2*
X449574D1*
X637239D2*
X647401D1*
X438585Y1971771D2*
X448505D1*
X509487D2*
X545487D1*
X584487D2*
X587487D1*
X611487D2*
D3*
X638018D2*
X648459D1*
X437896Y1968771D2*
X447480D1*
X509487D2*
X548487D1*
X575487D2*
X587487D1*
X638751D2*
X649378D1*
X437212Y1965771D2*
X446513D1*
X509487D2*
X551487D1*
X566487D2*
X587464D1*
X614487D2*
D3*
X639726D2*
X649974D1*
X436358Y1962771D2*
X445482D1*
X509487D2*
X587230D1*
X620487D2*
D3*
X640938D2*
X650381D1*
X435521Y1959771D2*
X444471D1*
X509487D2*
X586667D1*
X642215D2*
X650898D1*
X434872Y1956771D2*
X443510D1*
X509487D2*
X521487D1*
X542963D2*
X583801D1*
X623487D2*
D3*
X643376D2*
X651684D1*
X434203Y1953771D2*
X442481D1*
X509487D2*
X521487D1*
X543824D2*
X579489D1*
X644412D2*
X652580D1*
X433343Y1950771D2*
X441471D1*
X509487D2*
X521487D1*
X545099D2*
X574346D1*
X645462D2*
X653493D1*
X432415Y1947771D2*
X440510D1*
X509487D2*
X521487D1*
X546834D2*
X569710D1*
X626487D2*
D3*
X646391D2*
X654493D1*
X431489Y1944771D2*
X439492D1*
X509487D2*
X521487D1*
X549047D2*
X566020D1*
X620487D2*
D3*
X647080D2*
X655390D1*
X430485Y1941771D2*
X438588D1*
X509487D2*
X521487D1*
X551487D2*
X564589D1*
X620487D2*
D3*
X626487D2*
D3*
X647763D2*
X655978D1*
X429586Y1938771D2*
X438010D1*
X509487D2*
X587487D1*
X648617D2*
X656382D1*
X428997Y1935771D2*
X437710D1*
X509487D2*
X587487D1*
X623487D2*
D3*
X649442D2*
X656899D1*
X428593Y1932771D2*
X437564D1*
X509487D2*
X587487D1*
X649986D2*
X657673D1*
X428076Y1929771D2*
X437403D1*
X509487D2*
X587487D1*
X629487D2*
D3*
X650272D2*
X658463D1*
X427302Y1926771D2*
X437000D1*
X509487D2*
X587487D1*
X650414D2*
X658994D1*
X426512Y1923771D2*
X436273D1*
X650573D2*
X659286D1*
X425981Y1920771D2*
X435502D1*
X509487D2*
X587487D1*
X626487D2*
D3*
X650976D2*
X659520D1*
X425700Y1917771D2*
X434977D1*
X509487D2*
X587487D1*
X626487D2*
D3*
X651702D2*
X659955D1*
X425572Y1914771D2*
X434687D1*
X509487D2*
X587487D1*
X626487D2*
D3*
X632487D2*
D3*
X652473D2*
X660694D1*
X425519Y1911771D2*
X434454D1*
X509487D2*
X587487D1*
X632487D2*
D3*
X652997D2*
X661471D1*
X425499Y1908771D2*
X434019D1*
X509487D2*
X587487D1*
X653276D2*
X661997D1*
X425491Y1905771D2*
X433281D1*
X509487D2*
X521487D1*
X536487D2*
X548487D1*
X626487D2*
D3*
X653403D2*
X662276D1*
X425489Y1902771D2*
X432504D1*
X509487D2*
X521487D1*
X536487D2*
X548487D1*
X653456D2*
X662403D1*
X425488Y1899771D2*
X431978D1*
X509487D2*
X521487D1*
X536487D2*
X548487D1*
X635487D2*
D3*
X653488D2*
X662456D1*
X425488Y1896771D2*
X431699D1*
X509487D2*
X521487D1*
X536487D2*
X548487D1*
X653601D2*
X662476D1*
X425487Y1893771D2*
X431572D1*
X509487D2*
X521487D1*
X536487D2*
X548487D1*
X653986D2*
X662484D1*
X425487Y1890771D2*
X431519D1*
X509487D2*
X521487D1*
X536487D2*
X548487D1*
X635487D2*
D3*
X654705D2*
X662486D1*
X425487Y1887771D2*
X431499D1*
X509487D2*
X587487D1*
X635487D2*
D3*
X655474D2*
X662487D1*
X425487Y1884771D2*
X431491D1*
X509487D2*
X587487D1*
X635487D2*
D3*
X655998D2*
X662487D1*
X425487Y1881771D2*
X431489D1*
X509487D2*
X587487D1*
X656276D2*
X662487D1*
X425487Y1878771D2*
X431488D1*
X509487D2*
X587487D1*
X656403D2*
X662487D1*
X425487Y1875771D2*
X431488D1*
X509487D2*
X587487D1*
X656456D2*
X662487D1*
X425476Y1872771D2*
X431487D1*
X656476D2*
X662487D1*
X425361Y1869771D2*
X431487D1*
X509487D2*
X521487D1*
X656484D2*
X662487D1*
X424898Y1866771D2*
X431487D1*
X509487D2*
X521487D1*
X656486D2*
X662487D1*
X423872Y1863771D2*
X431487D1*
X509487D2*
X521487D1*
X656487D2*
X662487D1*
X422487Y1860771D2*
X431487D1*
X509487D2*
X521487D1*
X656487D2*
X662487D1*
X423872Y1857771D2*
X431487D1*
X509487D2*
X521487D1*
X656476D2*
X662487D1*
X424734Y1854771D2*
X431487D1*
X509487D2*
X521487D1*
X656370D2*
X662487D1*
X425170Y1851771D2*
X431487D1*
X509487D2*
X587487D1*
X655988D2*
X662487D1*
X425363Y1848771D2*
X431487D1*
X509487D2*
X587487D1*
X655269D2*
X662487D1*
X425442Y1845771D2*
X431487D1*
X509487D2*
X587487D1*
X654500D2*
X662487D1*
X425471Y1842771D2*
X431499D1*
X509487D2*
X587487D1*
X653977D2*
X662487D1*
X425482Y1839771D2*
X431605D1*
X509487D2*
X587487D1*
X653699D2*
X662487D1*
X425486Y1836771D2*
X431987D1*
X509487D2*
X521487D1*
X653572D2*
X662476D1*
X425487Y1833771D2*
X432705D1*
X509487D2*
X521487D1*
X635487D2*
D3*
X653507D2*
X662370D1*
X425487Y1830771D2*
X433475D1*
X509487D2*
X521487D1*
X653381D2*
X661988D1*
X425487Y1827771D2*
X433998D1*
X509487D2*
X521487D1*
X652992D2*
X661269D1*
X425499Y1824771D2*
X434288D1*
X509487D2*
X521487D1*
X626487D2*
D3*
X652271D2*
X660500D1*
X425605Y1821771D2*
X434520D1*
X626487D2*
D3*
X651501D2*
X659977D1*
X425987Y1818771D2*
X434955D1*
X650977D2*
X659687D1*
X426705Y1815771D2*
X435694D1*
X509487D2*
X530487D1*
X542487D2*
X587487D1*
X650699D2*
X659454D1*
X427475Y1812771D2*
X436471D1*
X509487D2*
X530487D1*
X542024D2*
X587487D1*
X626487D2*
D3*
X632487D2*
D3*
X650572D2*
X659019D1*
X428010Y1809771D2*
X436997D1*
X509487D2*
X530487D1*
X541268D2*
X587487D1*
X650507D2*
X658281D1*
X428393Y1806771D2*
X437276D1*
X509487D2*
X530487D1*
X540386D2*
X587487D1*
X650381D2*
X657504D1*
X428903Y1803771D2*
X437415D1*
X509487D2*
X521487D1*
X539467D2*
X551373D1*
X575487D2*
X587487D1*
X649992D2*
X656967D1*
X429674Y1800771D2*
X437573D1*
X509487D2*
X521487D1*
X538364D2*
X550977D1*
X575487D2*
X587487D1*
X649259D2*
X656582D1*
X430475Y1797771D2*
X437976D1*
X509487D2*
X521487D1*
X537085D2*
X550152D1*
X575487D2*
X587487D1*
X623487D2*
D3*
X629487D2*
D3*
X648383D2*
X656072D1*
X431111Y1794771D2*
X438713D1*
X509487D2*
X521487D1*
X535790D2*
X549001D1*
X575487D2*
X587487D1*
X647478D2*
X655301D1*
X431774Y1791771D2*
X439590D1*
X509487D2*
X521487D1*
X534714D2*
X547747D1*
X575487D2*
X587487D1*
X646469D2*
X654500D1*
X432633Y1788771D2*
X440497D1*
X509487D2*
X521487D1*
X534005D2*
X546594D1*
X575487D2*
X587487D1*
X645467D2*
X653864D1*
X433560Y1785771D2*
X441506D1*
X509487D2*
X521487D1*
X533487D2*
X545562D1*
X575487D2*
X587487D1*
X620487D2*
D3*
X626487D2*
D3*
X644509D2*
X653201D1*
X434486Y1782771D2*
X442508D1*
X509487D2*
X544512D1*
X566487D2*
X587487D1*
X643480D2*
X652354D1*
X435490Y1779771D2*
X443478D1*
X509487D2*
X543587D1*
X566487D2*
X587487D1*
X617487D2*
D3*
X626487D2*
D3*
X642471D2*
X651520D1*
X436389Y1776771D2*
X444600D1*
X509487D2*
X542957D1*
X566487D2*
X587487D1*
X617487D2*
D3*
X626487D2*
D3*
X641510D2*
X650871D1*
X436978Y1773771D2*
X445886D1*
X509487D2*
X542487D1*
X566487D2*
X587487D1*
X617487D2*
D3*
X640492D2*
X650203D1*
X437382Y1770771D2*
X447183D1*
X614487D2*
D3*
X623487D2*
D3*
X639577D2*
X649343D1*
X437911Y1767771D2*
X448263D1*
X614487D2*
D3*
X638893D2*
X648415D1*
X438790Y1764771D2*
X449027D1*
X614487D2*
D3*
X638199D2*
X647477D1*
X439974Y1761771D2*
X449754D1*
X620487D2*
D3*
X637240D2*
X646367D1*
X441329Y1758771D2*
X450727D1*
X611487D2*
D3*
X636022D2*
X645086D1*
X442761Y1755771D2*
X451950D1*
X515487D2*
D3*
X611487D2*
D3*
X617487D2*
D3*
X634653D2*
X643779D1*
X444143Y1752771D2*
X453320D1*
X515487D2*
D3*
X633204D2*
X642606D1*
X445349Y1749771D2*
X454770D1*
X512487D2*
D3*
X608487D2*
D3*
X614487D2*
D3*
X631727D2*
X641566D1*
X446402Y1746771D2*
X456247D1*
X515487D2*
D3*
X605487D2*
D3*
X614487D2*
D3*
X630232D2*
X640502D1*
X447470Y1743771D2*
X457742D1*
X488487D2*
D3*
X509487D2*
D3*
X605487D2*
D3*
X628737D2*
X639467D1*
X448507Y1740771D2*
X459237D1*
X503487D2*
D3*
X509487D2*
D3*
X602487D2*
D3*
X627236D2*
X638396D1*
X449579Y1737771D2*
X460739D1*
X491487D2*
D3*
X509487D2*
X512487D1*
X602487D2*
D3*
X625727D2*
X636982D1*
X450993Y1734771D2*
X462248D1*
X494487D2*
D3*
X500487D2*
D3*
X608487D2*
D3*
X624131D2*
X635253D1*
X452721Y1731771D2*
X463856D1*
X515487D2*
D3*
X521487D2*
X524487D1*
X599487D2*
D3*
X622345D2*
X633511D1*
X454463Y1728771D2*
X465736D1*
X494487D2*
X497487D1*
X521487D2*
X527487D1*
X596487D2*
D3*
X605487D2*
D3*
X620401D2*
X631865D1*
X456110Y1725771D2*
X467957D1*
X618470D2*
X630289D1*
X457686Y1722771D2*
X470235D1*
X500487D2*
D3*
X602487D2*
D3*
X616495D2*
X628747D1*
X459228Y1719771D2*
X472366D1*
X509487D2*
X512487D1*
X599487D2*
D3*
X614461D2*
X627138D1*
X460848Y1716771D2*
X474536D1*
X491487D2*
X494487D1*
X503487D2*
D3*
X509487D2*
D3*
X590487D2*
D3*
X612481D2*
X625347D1*
X462733Y1713771D2*
X476978D1*
X485487D2*
D3*
X524487D2*
D3*
X590487D2*
D3*
X610386D2*
X623401D1*
X464956Y1710771D2*
X479598D1*
X512487D2*
D3*
X530487D2*
D3*
X581487D2*
D3*
X607965D2*
X621470D1*
X467235Y1707771D2*
X482191D1*
X513883D2*
X515487D1*
X532461D2*
X533487D1*
X578487D2*
D3*
X605264D2*
X619483D1*
X469366Y1704771D2*
X484801D1*
X514811D2*
X515487D1*
X534561D2*
X533487D1*
X539487D2*
D3*
X575487D2*
D3*
X602399D2*
X617356D1*
X471536Y1701771D2*
X487730D1*
X515487D2*
D3*
X536946D2*
X536487D1*
X545487D2*
D3*
X566487D2*
X569487D1*
X581487D2*
D3*
X599443D2*
X615099D1*
X473990Y1698771D2*
X490980D1*
X539487D2*
X542487D1*
X575487D2*
X578487D1*
X596359D2*
X612668D1*
X476703Y1695771D2*
X494328D1*
X551487D2*
X554487D1*
X566487D2*
D3*
X592972D2*
X610196D1*
X479573Y1692771D2*
X497872D1*
X589139D2*
X607741D1*
X482519Y1689771D2*
X501817D1*
X584836D2*
X605121D1*
X485511Y1686771D2*
X506460D1*
X579753D2*
X602316D1*
X488609Y1683771D2*
X512597D1*
X573099D2*
X599294D1*
X492000Y1680771D2*
X520891D1*
X564403D2*
X595846D1*
X495835Y1677771D2*
X530487D1*
X554487D2*
X591749D1*
X500103Y1674771D2*
X587153D1*
X504835Y1671771D2*
X582389D1*
X510048Y1668771D2*
X577501D1*
X515487Y1665771D2*
X572487D1*
X424039Y1612705D2*
D13*
Y1611393D1*
Y1610081D1*
Y1608768D1*
Y1607456D1*
Y1606144D1*
Y1604831D1*
Y1603519D1*
Y1602207D1*
Y1600894D1*
Y1599582D1*
Y1598270D1*
Y1596957D1*
Y1595645D1*
Y1594333D1*
Y1593020D1*
Y1591708D1*
Y1590396D1*
Y1589083D1*
Y1587771D1*
Y1586459D1*
Y1585146D1*
Y1583834D1*
Y1582522D1*
Y1581209D1*
Y1579897D1*
Y1578585D1*
Y1577272D1*
Y1575960D1*
Y1574648D1*
Y1573335D1*
Y1572023D1*
Y1570710D1*
Y1569398D1*
Y1568086D1*
X443724Y1612705D2*
X445434Y1611393D1*
X446746Y1610081D1*
X447696Y1608768D1*
X448377Y1607456D1*
X448899Y1606144D1*
X449385Y1604831D1*
X449796Y1603519D1*
X450049Y1602207D1*
X450136Y1600894D1*
X450028Y1599582D1*
X449733Y1598270D1*
X449349Y1596957D1*
X448856Y1595645D1*
X448181Y1594333D1*
X446703Y1593020D1*
X445036Y1591708D1*
X446298Y1590396D1*
X447437Y1589083D1*
X448384Y1587771D1*
X449141Y1586459D1*
X449692Y1585146D1*
X450013Y1583834D1*
X450172Y1582522D1*
X450241Y1581209D1*
X450269Y1579897D1*
X450280Y1578585D1*
X450283Y1577272D1*
X450285Y1575960D1*
Y1574648D1*
Y1573335D1*
Y1572023D1*
Y1570710D1*
Y1569398D1*
Y1568086D1*
X455535Y1612705D2*
Y1611393D1*
Y1610081D1*
Y1608768D1*
Y1607456D1*
Y1606144D1*
Y1604831D1*
Y1603519D1*
Y1602207D1*
Y1600894D1*
Y1599582D1*
Y1598270D1*
Y1596957D1*
Y1595645D1*
Y1594333D1*
Y1593020D1*
Y1591708D1*
Y1590396D1*
Y1589083D1*
Y1587771D1*
Y1586459D1*
Y1585146D1*
Y1583834D1*
Y1582522D1*
Y1581209D1*
Y1579897D1*
Y1578585D1*
Y1577272D1*
Y1575960D1*
Y1574648D1*
Y1573335D1*
Y1572023D1*
Y1570710D1*
Y1569398D1*
Y1568086D1*
X473907Y1612705D2*
Y1611393D1*
Y1610081D1*
Y1608768D1*
Y1607456D1*
Y1606144D1*
Y1604831D1*
Y1603519D1*
X466033D1*
Y1602207D1*
Y1600894D1*
Y1599582D1*
Y1598270D1*
Y1596957D1*
Y1595645D1*
X473907D1*
Y1594333D1*
Y1593020D1*
Y1591708D1*
Y1590396D1*
Y1589083D1*
Y1587771D1*
Y1586459D1*
X466033D1*
Y1585146D1*
Y1583834D1*
Y1582522D1*
Y1581209D1*
Y1579897D1*
Y1578585D1*
Y1577272D1*
Y1575960D1*
X475220D1*
Y1574648D1*
Y1573335D1*
Y1572023D1*
Y1570710D1*
Y1569398D1*
Y1568086D1*
X479157Y1612705D2*
Y1611393D1*
Y1610081D1*
Y1608768D1*
Y1607456D1*
Y1606144D1*
Y1604831D1*
Y1603519D1*
Y1602207D1*
Y1600894D1*
Y1599582D1*
Y1598270D1*
Y1596957D1*
Y1595645D1*
Y1594333D1*
Y1593020D1*
Y1591708D1*
Y1590396D1*
Y1589083D1*
Y1587771D1*
Y1586459D1*
Y1585146D1*
Y1583834D1*
Y1582522D1*
Y1581209D1*
Y1579897D1*
Y1578585D1*
Y1577272D1*
Y1575960D1*
Y1574648D1*
Y1573335D1*
Y1572023D1*
Y1570710D1*
Y1569398D1*
Y1568086D1*
X493592Y1612705D2*
X493795Y1611393D1*
X494121Y1610081D1*
X494460Y1608768D1*
X494690Y1607456D1*
X494817Y1606144D1*
X494919Y1604831D1*
X495109Y1603519D1*
X495433Y1602207D1*
X495772Y1600894D1*
X496007Y1599582D1*
X496180Y1598270D1*
X496438Y1596957D1*
X496911Y1595645D1*
X497529Y1594333D1*
X500154Y1612705D2*
Y1611393D1*
Y1610081D1*
Y1608768D1*
X500149Y1607456D1*
X500103Y1606144D1*
X499936Y1604831D1*
X499621Y1603519D1*
X499285Y1602207D1*
X499056Y1600894D1*
X498929Y1599582D1*
X498823Y1598270D1*
X498598Y1596957D1*
X498140Y1595645D1*
X497529Y1594333D1*
X515902Y1612705D2*
Y1611393D1*
Y1610081D1*
Y1608768D1*
Y1607456D1*
Y1606144D1*
Y1604831D1*
Y1603519D1*
Y1602207D1*
Y1600894D1*
Y1599582D1*
Y1598270D1*
Y1596957D1*
Y1595645D1*
Y1594333D1*
Y1593020D1*
Y1591708D1*
Y1590396D1*
Y1589083D1*
Y1587771D1*
Y1586459D1*
Y1585146D1*
Y1583834D1*
Y1582522D1*
Y1581209D1*
Y1579897D1*
Y1578585D1*
Y1577272D1*
Y1575960D1*
Y1574648D1*
Y1573335D1*
Y1572023D1*
Y1570710D1*
Y1569398D1*
Y1568086D1*
X529025Y1612705D2*
X527112Y1611393D1*
X525469Y1610081D1*
X524139Y1608768D1*
X523107Y1607456D1*
X522316Y1606144D1*
X521752Y1604831D1*
X521426Y1603519D1*
X521266Y1602207D1*
X521196Y1600894D1*
X521168Y1599582D1*
X521157Y1598270D1*
X521153Y1596957D1*
X521152Y1595645D1*
Y1594333D1*
Y1593020D1*
X521151Y1591708D1*
Y1590396D1*
Y1589083D1*
Y1587771D1*
Y1586459D1*
Y1585146D1*
Y1583834D1*
Y1582522D1*
Y1581209D1*
X521157Y1579897D1*
X521203Y1578585D1*
X521375Y1577272D1*
X521741Y1575960D1*
X522296Y1574648D1*
X523062Y1573335D1*
X524103Y1572023D1*
X525460Y1570710D1*
X527149Y1569398D1*
X529025Y1568086D1*
X538212Y1612705D2*
X540731Y1611393D1*
X542745Y1610081D1*
X544226Y1608768D1*
X545221Y1607456D1*
X545900Y1606144D1*
X546454Y1604831D1*
X546892Y1603519D1*
X547161Y1602207D1*
X547298Y1600894D1*
X547359Y1599582D1*
X547383Y1598270D1*
X547393Y1596957D1*
X547396Y1595645D1*
X547398Y1594333D1*
Y1593020D1*
Y1591708D1*
Y1590396D1*
Y1589083D1*
Y1587771D1*
Y1586459D1*
Y1585146D1*
Y1583834D1*
Y1582522D1*
X547393Y1581209D1*
X547347Y1579897D1*
X547180Y1578585D1*
X546860Y1577272D1*
X546472Y1575960D1*
X546025Y1574648D1*
X545360Y1573335D1*
X544335Y1572023D1*
X542809Y1570710D1*
X540686Y1569398D1*
X538212Y1568086D1*
X550023Y1612705D2*
X550073Y1611393D1*
X550241Y1610081D1*
X550556Y1608768D1*
X550892Y1607456D1*
X551121Y1606144D1*
X551243Y1604831D1*
X551303Y1603519D1*
X551373Y1602207D1*
X551549Y1600894D1*
X551866Y1599582D1*
X552204Y1598270D1*
X552433Y1596957D1*
X552555Y1595645D1*
X552616Y1594333D1*
X552685Y1593020D1*
X552861Y1591708D1*
X553179Y1590396D1*
X553516Y1589083D1*
X553745Y1587771D1*
X553867Y1586459D1*
X553928Y1585146D1*
X553997Y1583834D1*
X554173Y1582522D1*
X554491Y1581209D1*
X554829Y1579897D1*
X555058Y1578585D1*
X555180Y1577272D1*
X555240Y1575960D1*
X555310Y1574648D1*
X555486Y1573335D1*
X555804Y1572023D1*
X556144Y1570710D1*
X556394Y1569398D1*
X556585Y1568086D1*
X560522Y1612705D2*
X560970Y1611393D1*
X561361Y1610081D1*
X561610Y1608768D1*
X561738Y1607456D1*
X561796Y1606144D1*
X561820Y1604831D1*
X561829Y1603519D1*
X561837Y1602207D1*
X561885Y1600894D1*
X562052Y1599582D1*
X562367Y1598270D1*
X562703Y1596957D1*
X562932Y1595645D1*
X563054Y1594333D1*
X563109Y1593020D1*
X563132Y1591708D1*
X563146Y1590396D1*
X563200Y1589083D1*
X563404Y1587771D1*
X563853Y1586459D1*
X564459Y1585146D1*
X567083Y1612705D2*
Y1611393D1*
Y1610081D1*
Y1608768D1*
Y1607456D1*
Y1606144D1*
X567078Y1604831D1*
X567032Y1603519D1*
X566865Y1602207D1*
X566550Y1600894D1*
X566214Y1599582D1*
X565985Y1598270D1*
X565863Y1596957D1*
X565808Y1595645D1*
X565785Y1594333D1*
X565776Y1593020D1*
X565773Y1591708D1*
X565766Y1590396D1*
X565716Y1589083D1*
X565513Y1587771D1*
X565064Y1586459D1*
X564459Y1585146D1*
X578894Y1612705D2*
X578446Y1611393D1*
X578055Y1610081D1*
X577806Y1608768D1*
X577678Y1607456D1*
X577620Y1606144D1*
X577591Y1604831D1*
X577536Y1603519D1*
X577365Y1602207D1*
X577050Y1600894D1*
X576713Y1599582D1*
X576484Y1598270D1*
X576362Y1596957D1*
X576306Y1595645D1*
X576278Y1594333D1*
X576223Y1593020D1*
X576053Y1591708D1*
X575737Y1590396D1*
X575400Y1589083D1*
X575171Y1587771D1*
X575050Y1586459D1*
X574994Y1585146D1*
X574966Y1583834D1*
X574911Y1582522D1*
X574740Y1581209D1*
X574425Y1579897D1*
X574088Y1578585D1*
X573859Y1577272D1*
X573737Y1575960D1*
X573682Y1574648D1*
X573654Y1573335D1*
X573595Y1572023D1*
X573389Y1570710D1*
X572939Y1569398D1*
X572333Y1568086D1*
X582831Y1612705D2*
Y1611393D1*
Y1610081D1*
Y1608768D1*
Y1607456D1*
Y1606144D1*
Y1604831D1*
Y1603519D1*
Y1602207D1*
Y1600894D1*
Y1599582D1*
Y1598270D1*
Y1596957D1*
Y1595645D1*
Y1594333D1*
Y1593020D1*
Y1591708D1*
Y1590396D1*
Y1589083D1*
Y1587771D1*
Y1586459D1*
Y1585146D1*
Y1583834D1*
Y1582522D1*
Y1581209D1*
Y1579897D1*
Y1578585D1*
Y1577272D1*
Y1575960D1*
Y1574648D1*
Y1573335D1*
Y1572023D1*
Y1570710D1*
Y1569398D1*
Y1568086D1*
X601204Y1612705D2*
Y1611393D1*
Y1610081D1*
Y1608768D1*
Y1607456D1*
Y1606144D1*
Y1604831D1*
Y1603519D1*
X593330D1*
Y1602207D1*
Y1600894D1*
Y1599582D1*
Y1598270D1*
Y1596957D1*
Y1595645D1*
X601204D1*
Y1594333D1*
Y1593020D1*
Y1591708D1*
Y1590396D1*
Y1589083D1*
Y1587771D1*
Y1586459D1*
X593330D1*
Y1585146D1*
Y1583834D1*
Y1582522D1*
Y1581209D1*
Y1579897D1*
Y1578585D1*
Y1577272D1*
Y1575960D1*
X602516D1*
Y1574648D1*
Y1573335D1*
Y1572023D1*
Y1570710D1*
Y1569398D1*
Y1568086D1*
X616952Y1612705D2*
Y1611393D1*
Y1610081D1*
Y1608768D1*
Y1607456D1*
Y1606144D1*
Y1604831D1*
Y1603519D1*
Y1602207D1*
Y1600894D1*
Y1599582D1*
Y1598270D1*
Y1596957D1*
Y1595645D1*
Y1594333D1*
Y1593020D1*
Y1591708D1*
Y1590396D1*
Y1589083D1*
Y1587771D1*
Y1586459D1*
Y1585146D1*
Y1583834D1*
Y1582522D1*
Y1581209D1*
Y1579897D1*
Y1578585D1*
Y1577272D1*
Y1575960D1*
Y1574648D1*
Y1573335D1*
Y1572023D1*
Y1570710D1*
Y1569398D1*
Y1568086D1*
X635325Y1612705D2*
X637238Y1611393D1*
X638876Y1610081D1*
X640160Y1608768D1*
X641168Y1607456D1*
X641538Y1606144D1*
X641738Y1604831D1*
X641828Y1603519D1*
X641865Y1602207D1*
X641879Y1600894D1*
X641884Y1599582D1*
X641875Y1598270D1*
X641773Y1596957D1*
X641527Y1595645D1*
X640328Y1594333D1*
X638614Y1593020D1*
X636637Y1591708D1*
X638796Y1590396D1*
X640499Y1589083D1*
X641693Y1587771D1*
X642587Y1586459D1*
X642902Y1585146D1*
X643072Y1583834D1*
X643149Y1582522D1*
X643180Y1581209D1*
X643192Y1579897D1*
X643196Y1578585D1*
X643198Y1577272D1*
X643193Y1575960D1*
X643142Y1574648D1*
X642919Y1573335D1*
X642494Y1572023D1*
X641305Y1570710D1*
X639738Y1569398D1*
X637949Y1568086D1*
X648448Y1612705D2*
Y1611393D1*
Y1610081D1*
Y1608768D1*
Y1607456D1*
Y1606144D1*
Y1604831D1*
Y1603519D1*
Y1602207D1*
Y1600894D1*
Y1599582D1*
Y1598270D1*
Y1596957D1*
Y1595645D1*
Y1594333D1*
Y1593020D1*
Y1591708D1*
Y1590396D1*
Y1589083D1*
Y1587771D1*
Y1586459D1*
Y1585146D1*
Y1583834D1*
Y1582522D1*
Y1581209D1*
Y1579897D1*
Y1578585D1*
Y1577272D1*
Y1575960D1*
Y1574648D1*
Y1573335D1*
Y1572023D1*
Y1570710D1*
Y1569398D1*
Y1568086D1*
X666821Y1612705D2*
Y1611393D1*
Y1610081D1*
Y1608768D1*
Y1607456D1*
Y1606144D1*
Y1604831D1*
Y1603519D1*
X658947D1*
Y1602207D1*
Y1600894D1*
Y1599582D1*
Y1598270D1*
Y1596957D1*
Y1595645D1*
X666821D1*
Y1594333D1*
Y1593020D1*
Y1591708D1*
Y1590396D1*
Y1589083D1*
Y1587771D1*
Y1586459D1*
X658947D1*
Y1585146D1*
Y1583834D1*
Y1582522D1*
Y1581209D1*
Y1579897D1*
Y1578585D1*
Y1577272D1*
Y1575960D1*
X668133D1*
Y1574648D1*
Y1573335D1*
Y1572023D1*
Y1570710D1*
Y1569398D1*
Y1568086D1*
X672070Y1612705D2*
Y1611393D1*
Y1610081D1*
Y1608768D1*
Y1607456D1*
Y1606144D1*
Y1604831D1*
Y1603519D1*
Y1602207D1*
Y1600894D1*
Y1599582D1*
Y1598270D1*
Y1596957D1*
Y1595645D1*
Y1594333D1*
Y1593020D1*
Y1591708D1*
Y1590396D1*
Y1589083D1*
Y1587771D1*
Y1586459D1*
Y1585146D1*
Y1583834D1*
Y1582522D1*
Y1581209D1*
Y1579897D1*
Y1578585D1*
Y1577272D1*
Y1575960D1*
Y1574648D1*
Y1573335D1*
Y1572023D1*
Y1570710D1*
Y1569398D1*
Y1568086D1*
X691755Y1612705D2*
Y1611393D1*
Y1610081D1*
Y1608768D1*
Y1607456D1*
Y1606144D1*
Y1604831D1*
Y1603519D1*
X682569D1*
Y1602207D1*
Y1600894D1*
Y1599582D1*
Y1598270D1*
Y1596957D1*
Y1595645D1*
X690443D1*
Y1594333D1*
Y1593020D1*
Y1591708D1*
Y1590396D1*
Y1589083D1*
Y1587771D1*
Y1586459D1*
X682569D1*
Y1585146D1*
Y1583834D1*
Y1582522D1*
Y1581209D1*
Y1579897D1*
Y1578585D1*
Y1577272D1*
Y1575960D1*
Y1574648D1*
Y1573335D1*
Y1572023D1*
Y1570710D1*
Y1569398D1*
Y1568086D1*
X703566Y1612705D2*
X701653Y1611393D1*
X700010Y1610081D1*
X698679Y1608768D1*
X697648Y1607456D1*
X696856Y1606144D1*
X696293Y1604831D1*
X695967Y1603519D1*
X695807Y1602207D1*
X695737Y1600894D1*
X695709Y1599582D1*
X695698Y1598270D1*
X695694Y1596957D1*
X695693Y1595645D1*
X695692Y1594333D1*
Y1593020D1*
Y1591708D1*
Y1590396D1*
Y1589083D1*
Y1587771D1*
Y1586459D1*
Y1585146D1*
Y1583834D1*
Y1582522D1*
Y1581209D1*
X695697Y1579897D1*
X695743Y1578585D1*
X695916Y1577272D1*
X696281Y1575960D1*
X696836Y1574648D1*
X697603Y1573335D1*
X698644Y1572023D1*
X700000Y1570710D1*
X701689Y1569398D1*
X703566Y1568086D1*
X712752Y1612705D2*
X715271Y1611393D1*
X717286Y1610081D1*
X718767Y1608768D1*
X719761Y1607456D1*
X720440Y1606144D1*
X720995Y1604831D1*
X721433Y1603519D1*
X721702Y1602207D1*
X721838Y1600894D1*
X721899Y1599582D1*
X721924Y1598270D1*
X721934Y1596957D1*
X721937Y1595645D1*
X721938Y1594333D1*
X721939Y1593020D1*
Y1591708D1*
Y1590396D1*
Y1589083D1*
Y1587771D1*
Y1586459D1*
Y1585146D1*
Y1583834D1*
Y1582522D1*
X721934Y1581209D1*
X721888Y1579897D1*
X721720Y1578585D1*
X721401Y1577272D1*
X721013Y1575960D1*
X720566Y1574648D1*
X719901Y1573335D1*
X718876Y1572023D1*
X717350Y1570710D1*
X715227Y1569398D1*
X712752Y1568086D1*
X727188Y1612705D2*
Y1611393D1*
Y1610081D1*
Y1608768D1*
Y1607456D1*
Y1606144D1*
Y1604831D1*
Y1603519D1*
Y1602207D1*
Y1600894D1*
Y1599582D1*
Y1598270D1*
Y1596957D1*
Y1595645D1*
Y1594333D1*
Y1593020D1*
Y1591708D1*
Y1590396D1*
Y1589083D1*
Y1587771D1*
Y1586459D1*
Y1585146D1*
Y1583834D1*
Y1582522D1*
Y1581209D1*
Y1579897D1*
Y1578585D1*
Y1577272D1*
Y1575960D1*
Y1574648D1*
Y1573335D1*
Y1572023D1*
Y1570710D1*
Y1569398D1*
Y1568086D1*
X746873Y1612705D2*
X748583Y1611393D1*
X749896Y1610081D1*
X750846Y1608768D1*
X751526Y1607456D1*
X752049Y1606144D1*
X752535Y1604831D1*
X752945Y1603519D1*
X753199Y1602207D1*
X753285Y1600894D1*
X753178Y1599582D1*
X752883Y1598270D1*
X752499Y1596957D1*
X752005Y1595645D1*
X751331Y1594333D1*
X749852Y1593020D1*
X748186Y1591708D1*
X749448Y1590396D1*
X750587Y1589083D1*
X751533Y1587771D1*
X752291Y1586459D1*
X752841Y1585146D1*
X753163Y1583834D1*
X753321Y1582522D1*
X753391Y1581209D1*
X753419Y1579897D1*
X753429Y1578585D1*
X753433Y1577272D1*
X753434Y1575960D1*
X753435Y1574648D1*
Y1573335D1*
Y1572023D1*
Y1570710D1*
Y1569398D1*
Y1568086D1*
X758684Y1612705D2*
Y1611393D1*
Y1610081D1*
Y1608768D1*
Y1607456D1*
Y1606144D1*
Y1604831D1*
Y1603519D1*
Y1602207D1*
Y1600894D1*
Y1599582D1*
Y1598270D1*
Y1596957D1*
Y1595645D1*
Y1594333D1*
Y1593020D1*
Y1591708D1*
Y1590396D1*
Y1589083D1*
Y1587771D1*
Y1586459D1*
Y1585146D1*
Y1583834D1*
Y1582522D1*
Y1581209D1*
Y1579897D1*
Y1578585D1*
Y1577272D1*
Y1575960D1*
Y1574648D1*
Y1573335D1*
Y1572023D1*
Y1570710D1*
Y1569398D1*
Y1568086D1*
X777057Y1612705D2*
Y1611393D1*
Y1610081D1*
Y1608768D1*
Y1607456D1*
Y1606144D1*
Y1604831D1*
Y1603519D1*
X769183D1*
Y1602207D1*
Y1600894D1*
Y1599582D1*
Y1598270D1*
Y1596957D1*
Y1595645D1*
X777057D1*
Y1594333D1*
Y1593020D1*
Y1591708D1*
Y1590396D1*
Y1589083D1*
Y1587771D1*
Y1586459D1*
X769183D1*
Y1585146D1*
Y1583834D1*
Y1582522D1*
Y1581209D1*
Y1579897D1*
Y1578585D1*
Y1577272D1*
Y1575960D1*
X778369D1*
Y1574648D1*
Y1573335D1*
Y1572023D1*
Y1570710D1*
Y1569398D1*
Y1568086D1*
X792805Y1612705D2*
Y1611393D1*
Y1610081D1*
Y1608768D1*
Y1607456D1*
Y1606144D1*
Y1604831D1*
Y1603519D1*
Y1602207D1*
Y1600894D1*
Y1599582D1*
Y1598270D1*
Y1596957D1*
Y1595645D1*
Y1594333D1*
Y1593020D1*
Y1591708D1*
Y1590396D1*
Y1589083D1*
Y1587771D1*
Y1586459D1*
Y1585146D1*
Y1583834D1*
Y1582522D1*
Y1581209D1*
Y1579897D1*
Y1578585D1*
Y1577272D1*
Y1575960D1*
Y1574648D1*
Y1573335D1*
Y1572023D1*
Y1570710D1*
Y1569398D1*
Y1568086D1*
X812490Y1612705D2*
Y1611393D1*
Y1610081D1*
Y1608768D1*
Y1607456D1*
Y1606144D1*
Y1604831D1*
Y1603519D1*
X803304D1*
Y1602207D1*
Y1600894D1*
Y1599582D1*
Y1598270D1*
Y1596957D1*
Y1595645D1*
X811178D1*
Y1594333D1*
Y1593020D1*
Y1591708D1*
Y1590396D1*
Y1589083D1*
Y1587771D1*
Y1586459D1*
X803304D1*
Y1585146D1*
Y1583834D1*
Y1582522D1*
Y1581209D1*
Y1579897D1*
Y1578585D1*
Y1577272D1*
Y1575960D1*
Y1574648D1*
Y1573335D1*
Y1572023D1*
Y1570710D1*
Y1569398D1*
Y1568086D1*
X816427Y1612705D2*
Y1611393D1*
Y1610081D1*
Y1608768D1*
Y1607456D1*
Y1606144D1*
Y1604831D1*
Y1603519D1*
Y1602207D1*
Y1600894D1*
Y1599582D1*
Y1598270D1*
Y1596957D1*
Y1595645D1*
Y1594333D1*
Y1593020D1*
Y1591708D1*
Y1590396D1*
Y1589083D1*
Y1587771D1*
Y1586459D1*
Y1585146D1*
Y1583834D1*
Y1582522D1*
Y1581209D1*
Y1579897D1*
Y1578585D1*
Y1577272D1*
Y1575960D1*
Y1574648D1*
Y1573335D1*
Y1572023D1*
Y1570710D1*
Y1569398D1*
Y1568086D1*
X826926Y1612705D2*
Y1611393D1*
Y1610081D1*
Y1608768D1*
Y1607456D1*
Y1606144D1*
Y1604831D1*
Y1603519D1*
Y1602207D1*
Y1600894D1*
Y1599582D1*
Y1598270D1*
Y1596957D1*
Y1595645D1*
Y1594333D1*
Y1593020D1*
Y1591708D1*
Y1590396D1*
Y1589083D1*
Y1587771D1*
Y1586459D1*
Y1585146D1*
Y1583834D1*
Y1582522D1*
Y1581209D1*
Y1579897D1*
Y1578585D1*
Y1577272D1*
Y1575960D1*
X834800D1*
Y1574648D1*
Y1573335D1*
Y1572023D1*
Y1570710D1*
Y1569398D1*
Y1568086D1*
X838737Y1612705D2*
Y1611393D1*
Y1610081D1*
Y1608768D1*
Y1607456D1*
Y1606144D1*
Y1604831D1*
Y1603519D1*
Y1602207D1*
Y1600894D1*
Y1599582D1*
Y1598270D1*
Y1596957D1*
Y1595645D1*
Y1594333D1*
Y1593020D1*
Y1591708D1*
Y1590396D1*
Y1589083D1*
Y1587771D1*
Y1586459D1*
Y1585146D1*
Y1583834D1*
Y1582522D1*
Y1581209D1*
Y1579897D1*
Y1578585D1*
Y1577272D1*
Y1575960D1*
Y1574648D1*
Y1573335D1*
Y1572023D1*
Y1570710D1*
Y1569398D1*
Y1568086D1*
X849235Y1612705D2*
Y1611393D1*
Y1610081D1*
Y1608768D1*
Y1607456D1*
Y1606144D1*
Y1604831D1*
Y1603519D1*
Y1602207D1*
Y1600894D1*
Y1599582D1*
Y1598270D1*
Y1596957D1*
Y1595645D1*
Y1594333D1*
Y1593020D1*
Y1591708D1*
Y1590396D1*
Y1589083D1*
Y1587771D1*
Y1586459D1*
Y1585146D1*
Y1583834D1*
Y1582522D1*
Y1581209D1*
Y1579897D1*
Y1578585D1*
Y1577272D1*
Y1575960D1*
Y1574648D1*
Y1573335D1*
Y1572023D1*
Y1570710D1*
Y1569398D1*
Y1568086D1*
X862359Y1612705D2*
X860042Y1611393D1*
X858136Y1610081D1*
X856749Y1608768D1*
X855779Y1607456D1*
X855136Y1606144D1*
X854778Y1604831D1*
X854606Y1603519D1*
X854532Y1602207D1*
X854502Y1600894D1*
X854491Y1599582D1*
X854487Y1598270D1*
X854485Y1596957D1*
Y1595645D1*
Y1594333D1*
Y1593020D1*
Y1591708D1*
Y1590396D1*
Y1589083D1*
Y1587771D1*
Y1586459D1*
Y1585146D1*
Y1583834D1*
Y1582522D1*
Y1581209D1*
Y1579897D1*
X854490Y1578585D1*
X854536Y1577272D1*
X854708Y1575960D1*
X855079Y1574648D1*
X855685Y1573335D1*
X856665Y1572023D1*
X858183Y1570710D1*
X860168Y1569398D1*
X862359Y1568086D1*
X871545Y1612705D2*
X873907Y1611393D1*
X875935Y1610081D1*
X877474Y1608768D1*
X878513Y1607456D1*
X879215Y1606144D1*
X879780Y1604831D1*
X880223Y1603519D1*
X880494Y1602207D1*
X880631Y1600894D1*
X880692Y1599582D1*
X880718Y1598270D1*
X880731Y1596957D1*
X885981Y1612705D2*
Y1611393D1*
Y1610081D1*
Y1608768D1*
Y1607456D1*
Y1606144D1*
Y1604831D1*
Y1603519D1*
Y1602207D1*
Y1600894D1*
Y1599582D1*
Y1598270D1*
Y1596957D1*
Y1595645D1*
Y1594333D1*
Y1593020D1*
Y1591708D1*
Y1590396D1*
Y1589083D1*
Y1587771D1*
Y1586459D1*
Y1585146D1*
Y1583834D1*
Y1582522D1*
Y1581209D1*
Y1579897D1*
Y1578585D1*
Y1577272D1*
Y1575960D1*
Y1574648D1*
Y1573335D1*
Y1572023D1*
Y1570710D1*
Y1569398D1*
Y1568086D1*
X896480Y1612705D2*
Y1611393D1*
Y1610081D1*
Y1608768D1*
Y1607456D1*
Y1606144D1*
Y1604831D1*
Y1603519D1*
Y1602207D1*
X896490Y1600894D1*
X896590Y1599582D1*
X896828Y1598270D1*
X897851Y1596957D1*
X899104Y1595645D1*
X900417Y1612705D2*
Y1611393D1*
Y1610081D1*
Y1608768D1*
Y1607456D1*
Y1606144D1*
Y1604831D1*
Y1603519D1*
Y1602207D1*
X900406Y1600894D1*
X900306Y1599582D1*
X900068Y1598270D1*
X899045Y1596957D1*
X897792Y1595645D1*
X912228Y1612705D2*
Y1611393D1*
Y1610081D1*
Y1608768D1*
Y1607456D1*
Y1606144D1*
Y1604831D1*
Y1603519D1*
Y1602207D1*
Y1600894D1*
Y1599582D1*
Y1598270D1*
Y1596957D1*
Y1595645D1*
Y1594333D1*
Y1593020D1*
Y1591708D1*
Y1590396D1*
Y1589083D1*
Y1587771D1*
Y1586459D1*
Y1585146D1*
Y1583834D1*
Y1582522D1*
Y1581209D1*
Y1579897D1*
Y1578585D1*
Y1577272D1*
Y1575960D1*
Y1574648D1*
Y1573335D1*
Y1572023D1*
Y1570710D1*
Y1569398D1*
Y1568086D1*
X914852Y1612705D2*
Y1611393D1*
Y1610081D1*
Y1608768D1*
Y1607456D1*
Y1606144D1*
Y1604831D1*
Y1603519D1*
X922726D1*
Y1602207D1*
Y1600894D1*
Y1599582D1*
Y1598270D1*
Y1596957D1*
Y1595645D1*
Y1594333D1*
Y1593020D1*
Y1591708D1*
Y1590396D1*
Y1589083D1*
Y1587771D1*
Y1586459D1*
Y1585146D1*
Y1583834D1*
Y1582522D1*
Y1581209D1*
Y1579897D1*
Y1578585D1*
Y1577272D1*
Y1575960D1*
Y1574648D1*
Y1573335D1*
Y1572023D1*
Y1570710D1*
Y1569398D1*
Y1568086D1*
X939787Y1612705D2*
Y1611393D1*
Y1610081D1*
Y1608768D1*
Y1607456D1*
Y1606144D1*
Y1604831D1*
Y1603519D1*
X933225D1*
Y1602207D1*
Y1600894D1*
Y1599582D1*
Y1598270D1*
Y1596957D1*
Y1595645D1*
Y1594333D1*
Y1593020D1*
Y1591708D1*
Y1590396D1*
Y1589083D1*
Y1587771D1*
Y1586459D1*
Y1585146D1*
Y1583834D1*
Y1582522D1*
Y1581209D1*
Y1579897D1*
Y1578585D1*
Y1577272D1*
Y1575960D1*
Y1574648D1*
Y1573335D1*
Y1572023D1*
Y1570710D1*
Y1569398D1*
Y1568086D1*
X434537Y1606144D2*
Y1604831D1*
Y1603519D1*
Y1602207D1*
Y1600894D1*
X434548Y1599582D1*
X434647Y1598270D1*
X434886Y1596957D1*
X435909Y1595645D1*
X437162Y1594333D1*
Y1606144D2*
X438216Y1604831D1*
X438984Y1603519D1*
X439423Y1602207D1*
X439631Y1600894D1*
X439662Y1599582D1*
X439555Y1598270D1*
X438751Y1596957D1*
X436802Y1595645D1*
X434537Y1594333D1*
X531650Y1606144D2*
Y1604831D1*
Y1603519D1*
Y1602207D1*
Y1600894D1*
Y1599582D1*
Y1598270D1*
Y1596957D1*
Y1595645D1*
Y1594333D1*
Y1593020D1*
Y1591708D1*
Y1590396D1*
Y1589083D1*
Y1587771D1*
Y1586459D1*
Y1585146D1*
Y1583834D1*
Y1582522D1*
Y1581209D1*
X531660Y1579897D1*
X531760Y1578585D1*
X531999Y1577272D1*
X533021Y1575960D1*
X534275Y1574648D1*
Y1606144D2*
X535329Y1604831D1*
X536097Y1603519D1*
X536536Y1602207D1*
X536749Y1600894D1*
X536842Y1599582D1*
X536878Y1598270D1*
X536892Y1596957D1*
X536897Y1595645D1*
X536899Y1594333D1*
Y1593020D1*
Y1591708D1*
Y1590396D1*
Y1589083D1*
Y1587771D1*
Y1586459D1*
Y1585146D1*
Y1583834D1*
Y1582522D1*
X536894Y1581209D1*
X536833Y1579897D1*
X536679Y1578585D1*
X535868Y1577272D1*
X533916Y1575960D1*
X531650Y1574648D1*
X627451Y1606144D2*
Y1604831D1*
Y1603519D1*
Y1602207D1*
Y1600894D1*
X627461Y1599582D1*
X627561Y1598270D1*
X627799Y1596957D1*
X628822Y1595645D1*
X630075Y1594333D1*
Y1606144D2*
X631130Y1604831D1*
X631897Y1603519D1*
X632337Y1602207D1*
X632545Y1600894D1*
X632575Y1599582D1*
X632468Y1598270D1*
X631665Y1596957D1*
X629715Y1595645D1*
X627451Y1594333D1*
X706191Y1606144D2*
Y1604831D1*
Y1603519D1*
Y1602207D1*
Y1600894D1*
Y1599582D1*
Y1598270D1*
Y1596957D1*
Y1595645D1*
Y1594333D1*
Y1593020D1*
Y1591708D1*
Y1590396D1*
Y1589083D1*
Y1587771D1*
Y1586459D1*
Y1585146D1*
Y1583834D1*
Y1582522D1*
Y1581209D1*
X706201Y1579897D1*
X706301Y1578585D1*
X706539Y1577272D1*
X707562Y1575960D1*
X708815Y1574648D1*
Y1606144D2*
X709870Y1604831D1*
X710637Y1603519D1*
X711077Y1602207D1*
X711290Y1600894D1*
X711382Y1599582D1*
X711419Y1598270D1*
X711433Y1596957D1*
X711438Y1595645D1*
X711439Y1594333D1*
X711440Y1593020D1*
Y1591708D1*
Y1590396D1*
Y1589083D1*
Y1587771D1*
Y1586459D1*
Y1585146D1*
Y1583834D1*
Y1582522D1*
X711435Y1581209D1*
X711374Y1579897D1*
X711220Y1578585D1*
X710408Y1577272D1*
X708457Y1575960D1*
X706191Y1574648D1*
X737687Y1606144D2*
Y1604831D1*
Y1603519D1*
Y1602207D1*
Y1600894D1*
X737697Y1599582D1*
X737797Y1598270D1*
X738035Y1596957D1*
X739058Y1595645D1*
X740312Y1594333D1*
Y1606144D2*
X741366Y1604831D1*
X742133Y1603519D1*
X742573Y1602207D1*
X742781Y1600894D1*
X742812Y1599582D1*
X742704Y1598270D1*
X741901Y1596957D1*
X739951Y1595645D1*
X737687Y1594333D1*
X864983Y1606144D2*
Y1604831D1*
Y1603519D1*
Y1602207D1*
Y1600894D1*
Y1599582D1*
Y1598270D1*
Y1596957D1*
Y1595645D1*
Y1594333D1*
Y1593020D1*
Y1591708D1*
Y1590396D1*
Y1589083D1*
Y1587771D1*
Y1586459D1*
Y1585146D1*
Y1583834D1*
Y1582522D1*
Y1581209D1*
X864994Y1579897D1*
X865094Y1578585D1*
X865332Y1577272D1*
X866355Y1575960D1*
X867608Y1574648D1*
X868920Y1606144D2*
X869123Y1604831D1*
X869449Y1603519D1*
X869788Y1602207D1*
X870018Y1600894D1*
X870141Y1599582D1*
X870199Y1598270D1*
X870233Y1596957D1*
X954222Y1602207D2*
X954233Y1600894D1*
X954340Y1599582D1*
X954602Y1598270D1*
X956006Y1596957D1*
X958147Y1595645D1*
X960858Y1594333D1*
X963855Y1593020D1*
X966924Y1591708D1*
X969970Y1590396D1*
X966847Y1589083D1*
X963674Y1587771D1*
X960588Y1586459D1*
X957936Y1585146D1*
X955789Y1583834D1*
X954846Y1582522D1*
X954511Y1581209D1*
X954332Y1579897D1*
X954222Y1578585D1*
X958159Y1602207D2*
X961283Y1600894D1*
X964471Y1599582D1*
X967700Y1598270D1*
X970901Y1596957D1*
X973857Y1595645D1*
X976212Y1594333D1*
X977998Y1593020D1*
X978596Y1591708D1*
X978974Y1590396D1*
X978881Y1589083D1*
X978116Y1587771D1*
X976151Y1586459D1*
X973626Y1585146D1*
X970708Y1583834D1*
X967583Y1582522D1*
X964398Y1581209D1*
X961249Y1579897D1*
X958159Y1578585D1*
X488343Y1594333D2*
Y1593020D1*
Y1591708D1*
Y1590396D1*
Y1589083D1*
Y1587771D1*
Y1586459D1*
Y1585146D1*
Y1583834D1*
Y1582522D1*
Y1581209D1*
Y1579897D1*
Y1578585D1*
Y1577272D1*
Y1575960D1*
Y1574648D1*
Y1573335D1*
Y1572023D1*
Y1570710D1*
Y1569398D1*
Y1568086D1*
X490968Y1594333D2*
Y1593020D1*
Y1591708D1*
X490973Y1590396D1*
X491019Y1589083D1*
X491186Y1587771D1*
X491501Y1586459D1*
X491837Y1585146D1*
X492066Y1583834D1*
X492188Y1582522D1*
X492243Y1581209D1*
X492271Y1579897D1*
X492326Y1578585D1*
X492497Y1577272D1*
X492812Y1575960D1*
X493149Y1574648D1*
X493378Y1573335D1*
X493500Y1572023D1*
X493556Y1570710D1*
X493579Y1569398D1*
X493592Y1568086D1*
X867608Y1591708D2*
Y1590396D1*
Y1589083D1*
Y1587771D1*
Y1586459D1*
Y1585146D1*
X870233D1*
Y1583834D1*
Y1582522D1*
X870228Y1581209D1*
X870166Y1579897D1*
X870012Y1578585D1*
X869201Y1577272D1*
X867249Y1575960D1*
X864983Y1574648D1*
X880731Y1591708D2*
Y1590396D1*
Y1589083D1*
Y1587771D1*
Y1586459D1*
Y1585146D1*
Y1583834D1*
Y1582522D1*
Y1581209D1*
Y1579897D1*
Y1578585D1*
Y1577272D1*
Y1575960D1*
Y1574648D1*
Y1573335D1*
Y1572023D1*
Y1570710D1*
Y1569398D1*
Y1568086D1*
X434537Y1589083D2*
Y1587771D1*
Y1586459D1*
Y1585146D1*
Y1583834D1*
Y1582522D1*
Y1581209D1*
Y1579897D1*
Y1578585D1*
Y1577272D1*
Y1575960D1*
Y1574648D1*
Y1573335D1*
Y1572023D1*
Y1570710D1*
Y1569398D1*
Y1568086D1*
X437162Y1589083D2*
X438216Y1587771D1*
X438984Y1586459D1*
X439423Y1585146D1*
X439637Y1583834D1*
X439729Y1582522D1*
X439765Y1581209D1*
X439779Y1579897D1*
X439784Y1578585D1*
X439786Y1577272D1*
Y1575960D1*
X439787Y1574648D1*
Y1573335D1*
Y1572023D1*
Y1570710D1*
Y1569398D1*
Y1568086D1*
X502779Y1589083D2*
Y1587771D1*
Y1586459D1*
Y1585146D1*
X502774Y1583834D1*
X502727Y1582522D1*
X502560Y1581209D1*
X502246Y1579897D1*
X501909Y1578585D1*
X501681Y1577272D1*
X501559Y1575960D1*
X501498Y1574648D1*
X501429Y1573335D1*
X501252Y1572023D1*
X500923Y1570710D1*
X500532Y1569398D1*
X500154Y1568086D1*
X505403Y1589083D2*
Y1587771D1*
Y1586459D1*
Y1585146D1*
Y1583834D1*
Y1582522D1*
Y1581209D1*
Y1579897D1*
Y1578585D1*
Y1577272D1*
Y1575960D1*
Y1574648D1*
Y1573335D1*
Y1572023D1*
Y1570710D1*
Y1569398D1*
Y1568086D1*
X627451Y1589083D2*
Y1587771D1*
Y1586459D1*
Y1585146D1*
Y1583834D1*
Y1582522D1*
Y1581209D1*
X627461Y1579897D1*
X627561Y1578585D1*
X627799Y1577272D1*
X628822Y1575960D1*
X630075Y1574648D1*
Y1589083D2*
X631130Y1587771D1*
X631897Y1586459D1*
X632337Y1585146D1*
X632550Y1583834D1*
X632642Y1582522D1*
X632674Y1581209D1*
X632626Y1579897D1*
X632478Y1578585D1*
X631668Y1577272D1*
X629717Y1575960D1*
X627451Y1574648D1*
X737687Y1589083D2*
Y1587771D1*
Y1586459D1*
Y1585146D1*
Y1583834D1*
Y1582522D1*
Y1581209D1*
Y1579897D1*
Y1578585D1*
Y1577272D1*
Y1575960D1*
Y1574648D1*
Y1573335D1*
Y1572023D1*
Y1570710D1*
Y1569398D1*
Y1568086D1*
X740312Y1589083D2*
X741366Y1587771D1*
X742133Y1586459D1*
X742573Y1585146D1*
X742786Y1583834D1*
X742878Y1582522D1*
X742915Y1581209D1*
X742929Y1579897D1*
X742934Y1578585D1*
X742935Y1577272D1*
X742936Y1575960D1*
Y1574648D1*
Y1573335D1*
Y1572023D1*
Y1570710D1*
Y1569398D1*
Y1568086D1*
X896480Y1587771D2*
Y1586459D1*
Y1585146D1*
Y1583834D1*
Y1582522D1*
Y1581209D1*
Y1579897D1*
Y1578585D1*
Y1577272D1*
Y1575960D1*
Y1574648D1*
Y1573335D1*
Y1572023D1*
Y1570710D1*
Y1569398D1*
Y1568086D1*
X900417Y1587771D2*
Y1586459D1*
Y1585146D1*
Y1583834D1*
Y1582522D1*
Y1581209D1*
Y1579897D1*
Y1578585D1*
Y1577272D1*
Y1575960D1*
Y1574648D1*
Y1573335D1*
Y1572023D1*
Y1570710D1*
Y1569398D1*
Y1568086D1*
X870233Y1569398D2*
X868920Y1568086D1*
X872857Y1569398D2*
X874170Y1568086D1*
X456228Y1542275D2*
D12*
X453354Y1539275D1*
X450867Y1536275D1*
X448839Y1533275D1*
X448219Y1530275D1*
X448956Y1527275D1*
X450192Y1524275D1*
X453356Y1521275D1*
X457532Y1518275D1*
X462228Y1515275D1*
X603228Y1542275D2*
X608048Y1539275D1*
X612105Y1536275D1*
X613704Y1533275D1*
X614575Y1530275D1*
X614971Y1527275D1*
X615133Y1524275D1*
X615194Y1521275D1*
X615216Y1518275D1*
X615224Y1515275D1*
X615226Y1512275D1*
X615227Y1509275D1*
Y1506275D1*
X615228Y1503275D1*
Y1500275D1*
Y1497275D1*
Y1494275D1*
Y1491275D1*
Y1488275D1*
Y1485275D1*
Y1482275D1*
Y1479275D1*
Y1476275D1*
Y1473275D1*
Y1470275D1*
Y1467275D1*
Y1464275D1*
Y1461275D1*
Y1458275D1*
Y1455275D1*
Y1452275D1*
Y1449275D1*
Y1446275D1*
Y1443275D1*
Y1440275D1*
Y1437275D1*
Y1434275D1*
Y1431275D1*
Y1428275D1*
Y1425275D1*
Y1422275D1*
Y1419275D1*
Y1416275D1*
Y1413275D1*
Y1410275D1*
Y1407275D1*
Y1404275D1*
Y1401275D1*
X501228Y1536275D2*
Y1533275D1*
Y1530275D1*
Y1527275D1*
X507228Y1536275D2*
Y1533275D1*
Y1530275D1*
Y1527275D1*
X573228Y1515275D2*
X578512Y1512275D1*
X582765Y1509275D1*
X586035Y1506275D1*
X587172Y1503275D1*
X587781Y1500275D1*
X588054Y1497275D1*
X588164Y1494275D1*
X588205Y1491275D1*
X588220Y1488275D1*
X588225Y1485275D1*
X588227Y1482275D1*
Y1479275D1*
Y1476275D1*
X588228Y1473275D1*
Y1470275D1*
Y1467275D1*
Y1464275D1*
Y1461275D1*
Y1458275D1*
Y1455275D1*
Y1452275D1*
Y1449275D1*
Y1446275D1*
Y1443275D1*
Y1440275D1*
Y1437275D1*
Y1434275D1*
Y1431275D1*
Y1428275D1*
Y1425275D1*
Y1422275D1*
Y1419275D1*
Y1416275D1*
Y1413275D1*
Y1410275D1*
Y1407275D1*
Y1404275D1*
Y1401275D1*
X447228Y1509275D2*
X441006Y1506275D1*
X435656Y1503275D1*
X431507Y1500275D1*
X428343Y1497275D1*
X427247Y1494275D1*
X426659Y1491275D1*
X426395Y1488275D1*
X426289Y1485275D1*
X426249Y1482275D1*
X426235Y1479275D1*
X426230Y1476275D1*
X426228Y1473275D1*
Y1470275D1*
Y1467275D1*
Y1464275D1*
Y1461275D1*
Y1458275D1*
Y1455275D1*
Y1452275D1*
Y1449275D1*
Y1446275D1*
Y1443275D1*
Y1440275D1*
Y1437275D1*
Y1434275D1*
Y1431275D1*
Y1428275D1*
Y1425275D1*
Y1422275D1*
Y1419275D1*
Y1416275D1*
Y1413275D1*
Y1410275D1*
Y1407275D1*
Y1404275D1*
Y1401275D1*
Y1398275D1*
Y1395275D1*
Y1392275D1*
Y1389275D1*
Y1386275D1*
Y1383275D1*
Y1380275D1*
Y1377275D1*
Y1374275D1*
Y1371275D1*
Y1368275D1*
Y1365275D1*
Y1362275D1*
Y1359275D1*
Y1356275D1*
Y1353275D1*
Y1350275D1*
Y1347275D1*
Y1344275D1*
Y1341275D1*
Y1338275D1*
Y1335275D1*
Y1332275D1*
Y1329275D1*
Y1326275D1*
Y1323275D1*
Y1320275D1*
Y1317275D1*
Y1314275D1*
Y1311275D1*
Y1308275D1*
Y1305275D1*
Y1302275D1*
Y1299275D1*
Y1296275D1*
Y1293275D1*
Y1290275D1*
Y1287275D1*
Y1284275D1*
Y1281275D1*
Y1278275D1*
Y1275275D1*
Y1272275D1*
Y1269275D1*
Y1266275D1*
Y1263275D1*
Y1260275D1*
Y1257275D1*
Y1254275D1*
Y1251275D1*
Y1248275D1*
Y1245275D1*
Y1242275D1*
Y1239275D1*
Y1236275D1*
Y1233275D1*
Y1230275D1*
Y1227275D1*
Y1224275D1*
Y1221275D1*
Y1218275D1*
Y1215275D1*
Y1212275D1*
Y1209275D1*
Y1206275D1*
Y1203275D1*
Y1200275D1*
Y1197275D1*
Y1194275D1*
Y1191275D1*
Y1188275D1*
Y1185275D1*
Y1182275D1*
Y1179275D1*
Y1176275D1*
Y1173275D1*
Y1170275D1*
Y1167275D1*
Y1164275D1*
Y1161275D1*
Y1158275D1*
Y1155275D1*
Y1152275D1*
Y1149275D1*
Y1146275D1*
Y1143275D1*
Y1140275D1*
Y1137275D1*
Y1134275D1*
Y1131275D1*
Y1128275D1*
Y1125275D1*
Y1122275D1*
Y1119275D1*
Y1116275D1*
Y1113275D1*
Y1110275D1*
Y1107275D1*
Y1104275D1*
Y1101275D1*
Y1098275D1*
Y1095275D1*
Y1092275D1*
Y1089275D1*
Y1086275D1*
Y1083275D1*
Y1080275D1*
Y1077275D1*
Y1074275D1*
Y1071275D1*
Y1068275D1*
Y1065275D1*
Y1062275D1*
Y1059275D1*
Y1056275D1*
Y1053275D1*
Y1050275D1*
Y1047275D1*
Y1044275D1*
Y1041275D1*
Y1038275D1*
Y1035275D1*
Y1032275D1*
Y1029275D1*
Y1026275D1*
Y1023275D1*
Y1020275D1*
Y1017275D1*
Y1014275D1*
Y1011275D1*
Y1008275D1*
Y1005275D1*
Y1002275D1*
Y999275D1*
Y996275D1*
Y993275D1*
Y990275D1*
Y987275D1*
Y984275D1*
Y981275D1*
Y978275D1*
Y975275D1*
Y972275D1*
Y969275D1*
Y966275D1*
Y963275D1*
Y960275D1*
Y957275D1*
Y954275D1*
Y951275D1*
Y948275D1*
Y945275D1*
Y942275D1*
Y939275D1*
Y936275D1*
Y933275D1*
Y930275D1*
Y927275D1*
Y924275D1*
Y921275D1*
Y918275D1*
Y915275D1*
Y912275D1*
Y909275D1*
Y906275D1*
Y903275D1*
Y900275D1*
Y897275D1*
Y894275D1*
Y891275D1*
X426239Y888275D1*
X426356Y885275D1*
X426856Y882275D1*
X428074Y879275D1*
X430058Y876275D1*
X432545Y873275D1*
X435228Y870275D1*
X558228Y1509275D2*
X562486Y1506275D1*
X565846Y1503275D1*
X568443Y1500275D1*
X569353Y1497275D1*
X569732Y1494275D1*
X569729Y1491275D1*
X568493Y1488275D1*
X564746Y1485275D1*
X559092Y1482275D1*
X552228Y1479275D1*
X519228Y1506275D2*
X516228Y1503275D1*
X519228Y1506275D2*
X522228Y1503275D1*
X513228Y1500275D2*
Y1497275D1*
Y1494275D1*
Y1491275D1*
X519228Y1500275D2*
Y1497275D1*
Y1494275D1*
Y1491275D1*
X531228Y1482275D2*
X528228Y1479275D1*
X534228Y1482275D2*
X537228Y1479275D1*
X456228D2*
X453354Y1476275D1*
X450855Y1473275D1*
X449074Y1470275D1*
X448061Y1467275D1*
X447572Y1464275D1*
X447360Y1461275D1*
X447276Y1458275D1*
X447245Y1455275D1*
X447233Y1452275D1*
X447229Y1449275D1*
X447228Y1446275D1*
Y1443275D1*
Y1440275D1*
Y1437275D1*
Y1434275D1*
Y1431275D1*
Y1428275D1*
Y1425275D1*
Y1422275D1*
Y1419275D1*
Y1416275D1*
Y1413275D1*
Y1410275D1*
Y1407275D1*
Y1404275D1*
Y1401275D1*
Y1398275D1*
Y1395275D1*
Y1392275D1*
Y1389275D1*
Y1386275D1*
Y1383275D1*
Y1380275D1*
Y1377275D1*
Y1374275D1*
Y1371275D1*
Y1368275D1*
Y1365275D1*
Y1362275D1*
Y1359275D1*
Y1356275D1*
Y1353275D1*
Y1350275D1*
Y1347275D1*
Y1344275D1*
Y1341275D1*
Y1338275D1*
Y1335275D1*
Y1332275D1*
Y1329275D1*
Y1326275D1*
Y1323275D1*
Y1320275D1*
Y1317275D1*
Y1314275D1*
Y1311275D1*
Y1308275D1*
Y1305275D1*
Y1302275D1*
Y1299275D1*
Y1296275D1*
Y1293275D1*
Y1290275D1*
Y1287275D1*
Y1284275D1*
Y1281275D1*
Y1278275D1*
Y1275275D1*
Y1272275D1*
Y1269275D1*
Y1266275D1*
Y1263275D1*
Y1260275D1*
Y1257275D1*
Y1254275D1*
Y1251275D1*
Y1248275D1*
Y1245275D1*
Y1242275D1*
Y1239275D1*
Y1236275D1*
Y1233275D1*
Y1230275D1*
Y1227275D1*
Y1224275D1*
Y1221275D1*
Y1218275D1*
Y1215275D1*
Y1212275D1*
Y1209275D1*
Y1206275D1*
Y1203275D1*
Y1200275D1*
Y1197275D1*
Y1194275D1*
Y1191275D1*
Y1188275D1*
Y1185275D1*
Y1182275D1*
Y1179275D1*
Y1176275D1*
Y1173275D1*
Y1170275D1*
Y1167275D1*
Y1164275D1*
Y1161275D1*
Y1158275D1*
Y1155275D1*
Y1152275D1*
Y1149275D1*
Y1146275D1*
Y1143275D1*
Y1140275D1*
Y1137275D1*
Y1134275D1*
Y1131275D1*
Y1128275D1*
Y1125275D1*
Y1122275D1*
Y1119275D1*
Y1116275D1*
Y1113275D1*
Y1110275D1*
Y1107275D1*
Y1104275D1*
Y1101275D1*
Y1098275D1*
Y1095275D1*
Y1092275D1*
Y1089275D1*
Y1086275D1*
Y1083275D1*
Y1080275D1*
Y1077275D1*
Y1074275D1*
Y1071275D1*
Y1068275D1*
Y1065275D1*
Y1062275D1*
Y1059275D1*
Y1056275D1*
Y1053275D1*
Y1050275D1*
Y1047275D1*
Y1044275D1*
Y1041275D1*
Y1038275D1*
Y1035275D1*
Y1032275D1*
Y1029275D1*
Y1026275D1*
Y1023275D1*
Y1020275D1*
Y1017275D1*
Y1014275D1*
Y1011275D1*
Y1008275D1*
Y1005275D1*
Y1002275D1*
Y999275D1*
Y996275D1*
Y993275D1*
Y990275D1*
Y987275D1*
Y984275D1*
Y981275D1*
Y978275D1*
Y975275D1*
Y972275D1*
Y969275D1*
Y966275D1*
Y963275D1*
Y960275D1*
Y957275D1*
Y954275D1*
Y951275D1*
Y948275D1*
Y945275D1*
Y942275D1*
Y939275D1*
Y936275D1*
Y933275D1*
Y930275D1*
Y927275D1*
Y924275D1*
Y921275D1*
Y918275D1*
Y915275D1*
Y912275D1*
Y909275D1*
Y906275D1*
Y903275D1*
Y900275D1*
Y897275D1*
X447251Y894275D1*
X447485Y891275D1*
X448048Y888275D1*
X450789Y885275D1*
X454708Y882275D1*
X459228Y879275D1*
X579228Y1476275D2*
Y1473275D1*
X495228D2*
X487162Y1470275D1*
X481080Y1467275D1*
X477040Y1464275D1*
X474435Y1461275D1*
X472809Y1458275D1*
X471931Y1455275D1*
X471516Y1452275D1*
X471338Y1449275D1*
X471268Y1446275D1*
X471242Y1443275D1*
X471232Y1440275D1*
X471229Y1437275D1*
X471228Y1434275D1*
Y1431275D1*
Y1428275D1*
Y1425275D1*
Y1422275D1*
Y1419275D1*
Y1416275D1*
Y1413275D1*
Y1410275D1*
Y1407275D1*
Y1404275D1*
Y1401275D1*
Y1398275D1*
X482009Y1395275D1*
X492228Y1392275D1*
X485085Y1389275D1*
X479617Y1386275D1*
X475809Y1383275D1*
X473022Y1380275D1*
X472093Y1377275D1*
X471594Y1374275D1*
X471370Y1371275D1*
X471280Y1368275D1*
X471246Y1365275D1*
X471234Y1362275D1*
X471230Y1359275D1*
X471228Y1356275D1*
Y1353275D1*
Y1350275D1*
Y1347275D1*
Y1344275D1*
Y1341275D1*
Y1338275D1*
Y1335275D1*
X471239Y1332275D1*
X471345Y1329275D1*
X471751Y1326275D1*
X472715Y1323275D1*
X474159Y1320275D1*
X477891Y1317275D1*
X483129Y1314275D1*
X489228Y1311275D1*
X471228Y1308275D1*
Y1305275D1*
Y1302275D1*
X471239Y1299275D1*
X471356Y1296275D1*
X471856Y1293275D1*
X473074Y1290275D1*
X475058Y1287275D1*
X477545Y1284275D1*
X480228Y1281275D1*
X476073Y1278275D1*
X472996Y1275275D1*
X472057Y1272275D1*
X471569Y1269275D1*
X471358Y1266275D1*
X471274Y1263275D1*
X471244Y1260275D1*
X471233Y1257275D1*
X471229Y1254275D1*
X471228Y1251275D1*
Y1248275D1*
X579228Y1473275D2*
Y1470275D1*
Y1467275D1*
Y1464275D1*
Y1461275D1*
Y1458275D1*
X579216Y1455275D1*
X579102Y1452275D1*
X578638Y1449275D1*
X577612Y1446275D1*
X576228Y1443275D1*
X577612Y1440275D1*
X578474Y1437275D1*
X578910Y1434275D1*
X579103Y1431275D1*
X579182Y1428275D1*
X579211Y1425275D1*
X579222Y1422275D1*
X579226Y1419275D1*
X579227Y1416275D1*
Y1413275D1*
X579216Y1410275D1*
X579087Y1407275D1*
X578771Y1404275D1*
X577112Y1401275D1*
X571977Y1398275D1*
X564357Y1395275D1*
X555228Y1392275D1*
X579228Y1389275D1*
Y1386275D1*
Y1383275D1*
Y1380275D1*
Y1377275D1*
Y1374275D1*
Y1371275D1*
Y1368275D1*
Y1365275D1*
Y1362275D1*
Y1359275D1*
Y1356275D1*
Y1353275D1*
Y1350275D1*
Y1347275D1*
Y1344275D1*
Y1341275D1*
Y1338275D1*
Y1335275D1*
Y1332275D1*
X579216Y1329275D1*
X579099Y1326275D1*
X578576Y1323275D1*
X577569Y1320275D1*
X574328Y1317275D1*
X569707Y1314275D1*
X564228Y1311275D1*
X492228Y1443275D2*
Y1440275D1*
Y1437275D1*
Y1434275D1*
Y1431275D1*
Y1428275D1*
Y1425275D1*
Y1422275D1*
Y1419275D1*
Y1416275D1*
X492239Y1413275D1*
X492345Y1410275D1*
X492739Y1407275D1*
X493572Y1404275D1*
X494812Y1401275D1*
X496407Y1398275D1*
X498228Y1395275D1*
X507228Y1443275D2*
Y1440275D1*
Y1437275D1*
Y1434275D1*
Y1431275D1*
Y1428275D1*
Y1425275D1*
Y1422275D1*
Y1419275D1*
Y1416275D1*
X507239Y1413275D1*
X507345Y1410275D1*
X507751Y1407275D1*
X508698Y1404275D1*
X510402Y1401275D1*
X513022Y1398275D1*
X516228Y1395275D1*
X528228Y1443275D2*
Y1440275D1*
X528239Y1437275D1*
X528354Y1434275D1*
X528817Y1431275D1*
X529843Y1428275D1*
X531228Y1425275D1*
X558228Y1443275D2*
Y1440275D1*
Y1437275D1*
Y1434275D1*
Y1431275D1*
Y1428275D1*
Y1425275D1*
X537228Y1392275D2*
Y1389275D1*
Y1386275D1*
Y1383275D1*
Y1380275D1*
Y1377275D1*
Y1374275D1*
Y1371275D1*
Y1368275D1*
Y1365275D1*
Y1362275D1*
Y1359275D1*
Y1356275D1*
Y1353275D1*
Y1350275D1*
Y1347275D1*
Y1344275D1*
X555228Y1389275D2*
X556612Y1386275D1*
X557474Y1383275D1*
X557910Y1380275D1*
X558103Y1377275D1*
X558182Y1374275D1*
X558211Y1371275D1*
X558222Y1368275D1*
X558226Y1365275D1*
X558227Y1362275D1*
Y1359275D1*
X558228Y1356275D1*
Y1353275D1*
Y1350275D1*
Y1347275D1*
Y1344275D1*
X609228Y1389275D2*
X604634Y1386275D1*
X600228Y1383275D1*
X615228Y1389275D2*
Y1386275D1*
Y1383275D1*
Y1380275D1*
Y1377275D1*
Y1374275D1*
X588228Y1386275D2*
X588351Y1383275D1*
X588816Y1380275D1*
X589843Y1377275D1*
X591228Y1374275D1*
X597228Y1386275D2*
X594228Y1383275D1*
X612228D2*
X609228Y1380275D1*
X606228Y1377275D1*
X603228Y1374275D1*
X612228Y1377275D2*
X609228Y1374275D1*
X492228Y1362275D2*
Y1359275D1*
Y1356275D1*
Y1353275D1*
Y1350275D1*
Y1347275D1*
Y1344275D1*
X516228Y1362275D2*
Y1359275D1*
Y1356275D1*
Y1353275D1*
Y1350275D1*
Y1347275D1*
Y1344275D1*
X588228Y1359275D2*
Y1356275D1*
Y1353275D1*
Y1350275D1*
Y1347275D1*
Y1344275D1*
Y1341275D1*
Y1338275D1*
X594228Y1359275D2*
Y1356275D1*
Y1353275D1*
Y1350275D1*
X615228D1*
Y1347275D1*
Y1344275D1*
Y1341275D1*
X594228D1*
Y1338275D1*
X588228Y1320275D2*
Y1317275D1*
Y1314275D1*
X615228Y1320275D2*
Y1317275D1*
Y1314275D1*
X510228Y1311275D2*
X507703Y1308275D1*
X505564Y1305275D1*
X503840Y1302275D1*
X502595Y1299275D1*
X501990Y1296275D1*
X501862Y1293275D1*
X503264Y1290275D1*
X506796Y1287275D1*
X511278Y1284275D1*
X516228Y1281275D1*
X588228Y1299275D2*
Y1296275D1*
Y1293275D1*
X600790Y1290275D1*
X612228Y1287275D1*
X600790Y1284275D1*
X588228Y1281275D1*
Y1278275D1*
Y1275275D1*
X615228Y1296275D2*
Y1293275D1*
Y1290275D1*
X615216Y1287275D1*
X615102Y1284275D1*
X614638Y1281275D1*
X613612Y1278275D1*
X612228Y1275275D1*
X570228Y1284275D2*
Y1281275D1*
X579228Y1284275D2*
Y1281275D1*
Y1278275D1*
Y1275275D1*
Y1272275D1*
Y1269275D1*
Y1266275D1*
Y1263275D1*
Y1260275D1*
Y1257275D1*
Y1254275D1*
Y1251275D1*
Y1248275D1*
Y1245275D1*
Y1242275D1*
Y1239275D1*
Y1236275D1*
Y1233275D1*
Y1230275D1*
Y1227275D1*
Y1224275D1*
Y1221275D1*
Y1218275D1*
Y1215275D1*
Y1212275D1*
X565072Y1209275D1*
X555501Y1206275D1*
X549210Y1203275D1*
X547305Y1200275D1*
X546711Y1197275D1*
X546418Y1194275D1*
X546297Y1191275D1*
X546252Y1188275D1*
X546259Y1185275D1*
X546488Y1182275D1*
X547048Y1179275D1*
X549591Y1176275D1*
X556597Y1173275D1*
X566879Y1170275D1*
X579228Y1167275D1*
Y1164275D1*
Y1161275D1*
Y1158275D1*
Y1155275D1*
Y1152275D1*
Y1149275D1*
Y1146275D1*
X591228Y1260275D2*
X589843Y1257275D1*
X588993Y1254275D1*
X588686Y1251275D1*
X588761Y1248275D1*
X590213Y1245275D1*
X593491Y1242275D1*
X597228Y1239275D1*
Y1260275D2*
X595821Y1257275D1*
X594228Y1254275D1*
X595821Y1251275D1*
X597228Y1248275D1*
X609228Y1260275D2*
X610490Y1257275D1*
X611240Y1254275D1*
X610409Y1251275D1*
X609228Y1248275D1*
X615228Y1260275D2*
Y1257275D1*
Y1254275D1*
X615204Y1251275D1*
X614976Y1248275D1*
X614431Y1245275D1*
X612093Y1242275D1*
X609228Y1239275D1*
X477228Y1251275D2*
X474228Y1248275D1*
X579228Y1251275D2*
X571023Y1248275D1*
X561639Y1245275D1*
X551091Y1242275D1*
X539866Y1239275D1*
X528443Y1236275D1*
X516987Y1233275D1*
X505368Y1230275D1*
X493602Y1227275D1*
X482053Y1224275D1*
X471610Y1221275D1*
X463495Y1218275D1*
X457326Y1215275D1*
X454835Y1212275D1*
X453971Y1209275D1*
X453529Y1206275D1*
X453341Y1203275D1*
X453268Y1200275D1*
X453241Y1197275D1*
X453232Y1194275D1*
X453229Y1191275D1*
X453228Y1188275D1*
Y1185275D1*
Y1182275D1*
X467881Y1179275D1*
X480712Y1176275D1*
X492187Y1173275D1*
X502835Y1170275D1*
X513066Y1167275D1*
X523286Y1164275D1*
X533596Y1161275D1*
X543800Y1158275D1*
X553488Y1155275D1*
X562406Y1152275D1*
X570865Y1149275D1*
X579228Y1146275D1*
X594228Y1224275D2*
X591458Y1221275D1*
X589407Y1218275D1*
X588781Y1215275D1*
X588455Y1212275D1*
X588309Y1209275D1*
X588228Y1206275D1*
X603228Y1224275D2*
X609228D2*
X615228D2*
X614454Y1221275D1*
X612102Y1218275D1*
X609228Y1215275D1*
X612019Y1212275D1*
X613874Y1209275D1*
X615228Y1206275D1*
X597228Y1218275D2*
X594228Y1215275D1*
X600228Y1218275D2*
X603228Y1215275D1*
X528228Y1203275D2*
X518296Y1200275D1*
X507758Y1197275D1*
X496957Y1194275D1*
X486228Y1191275D1*
X497175Y1188275D1*
X508155Y1185275D1*
X519228Y1182275D1*
X525228Y1203275D2*
Y1200275D1*
Y1197275D1*
Y1194275D1*
Y1191275D1*
Y1188275D1*
Y1185275D1*
Y1182275D1*
X588228Y1188275D2*
Y1185275D1*
Y1182275D1*
X615228Y1188275D2*
Y1185275D1*
Y1182275D1*
X588228Y1164275D2*
X588239Y1161275D1*
X588368Y1158275D1*
X588685Y1155275D1*
X590188Y1152275D1*
X593480Y1149275D1*
X597228Y1146275D1*
Y1164275D2*
X596047Y1161275D1*
X596424Y1158275D1*
X597228Y1155275D1*
X609228Y1164275D2*
X610408Y1161275D1*
X610031Y1158275D1*
X609228Y1155275D1*
X615228Y1164275D2*
Y1161275D1*
X615204Y1158275D1*
X614976Y1155275D1*
X614431Y1152275D1*
X612093Y1149275D1*
X609228Y1146275D1*
X471228Y1140275D2*
Y1137275D1*
Y1134275D1*
Y1131275D1*
Y1128275D1*
Y1125275D1*
Y1122275D1*
Y1119275D1*
Y1116275D1*
Y1113275D1*
Y1110275D1*
X606228Y1140275D2*
X610023Y1137275D1*
X613076Y1134275D1*
X614189Y1131275D1*
X614788Y1128275D1*
X615056Y1125275D1*
X615165Y1122275D1*
X615205Y1119275D1*
X615220Y1116275D1*
X615225Y1113275D1*
X615227Y1110275D1*
Y1107275D1*
Y1104275D1*
X615228Y1101275D1*
Y1098275D1*
Y1095275D1*
Y1092275D1*
Y1089275D1*
Y1086275D1*
Y1083275D1*
Y1080275D1*
Y1077275D1*
Y1074275D1*
Y1071275D1*
Y1068275D1*
Y1065275D1*
Y1062275D1*
Y1059275D1*
Y1056275D1*
Y1053275D1*
Y1050275D1*
Y1047275D1*
Y1044275D1*
Y1041275D1*
Y1038275D1*
Y1035275D1*
Y1032275D1*
Y1029275D1*
Y1026275D1*
Y1023275D1*
Y1020275D1*
Y1017275D1*
Y1014275D1*
Y1011275D1*
Y1008275D1*
Y1005275D1*
Y1002275D1*
Y999275D1*
Y996275D1*
Y993275D1*
Y990275D1*
Y987275D1*
Y984275D1*
Y981275D1*
Y978275D1*
Y975275D1*
Y972275D1*
Y969275D1*
Y966275D1*
Y963275D1*
Y960275D1*
Y957275D1*
Y954275D1*
Y951275D1*
Y948275D1*
Y945275D1*
Y942275D1*
Y939275D1*
Y936275D1*
Y933275D1*
Y930275D1*
Y927275D1*
Y924275D1*
Y921275D1*
Y918275D1*
Y915275D1*
Y912275D1*
Y909275D1*
Y906275D1*
Y903275D1*
Y900275D1*
Y897275D1*
Y894275D1*
Y891275D1*
Y888275D1*
X615216Y885275D1*
X615087Y882275D1*
X614771Y879275D1*
X613268Y876275D1*
X609975Y873275D1*
X606228Y870275D1*
X558228Y1110275D2*
Y1107275D1*
Y1104275D1*
Y1101275D1*
Y1098275D1*
Y1095275D1*
Y1092275D1*
X579228Y1110275D2*
Y1107275D1*
Y1104275D1*
Y1101275D1*
Y1098275D1*
Y1095275D1*
Y1092275D1*
Y1089275D1*
Y1086275D1*
X579216Y1083275D1*
X579099Y1080275D1*
X578599Y1077275D1*
X577369Y1074275D1*
X575268Y1071275D1*
X572295Y1068275D1*
X568488Y1065275D1*
X564228Y1062275D1*
X597228Y1110275D2*
Y1107275D1*
Y1104275D1*
Y1101275D1*
Y1098275D1*
Y1095275D1*
Y1092275D1*
Y1089275D1*
Y1086275D1*
Y1083275D1*
Y1080275D1*
Y1077275D1*
Y1074275D1*
Y1071275D1*
Y1068275D1*
Y1065275D1*
Y1062275D1*
Y1059275D1*
Y1056275D1*
Y1053275D1*
Y1050275D1*
Y1047275D1*
Y1044275D1*
Y1041275D1*
Y1038275D1*
Y1035275D1*
Y1032275D1*
Y1029275D1*
Y1026275D1*
Y1023275D1*
Y1020275D1*
Y1017275D1*
Y1014275D1*
Y1011275D1*
Y1008275D1*
Y1005275D1*
Y1002275D1*
Y999275D1*
Y996275D1*
Y993275D1*
Y990275D1*
Y987275D1*
Y984275D1*
Y981275D1*
Y978275D1*
Y975275D1*
Y972275D1*
Y969275D1*
Y966275D1*
Y963275D1*
Y960275D1*
Y957275D1*
Y954275D1*
Y951275D1*
Y948275D1*
Y945275D1*
Y942275D1*
Y939275D1*
Y936275D1*
Y933275D1*
Y930275D1*
Y927275D1*
Y924275D1*
Y921275D1*
Y918275D1*
Y915275D1*
Y912275D1*
Y909275D1*
Y906275D1*
Y903275D1*
Y900275D1*
X597216Y897275D1*
X597099Y894275D1*
X596599Y891275D1*
X595381Y888275D1*
X593397Y885275D1*
X590910Y882275D1*
X588228Y879275D1*
X471228Y1092275D2*
Y1089275D1*
Y1086275D1*
Y1083275D1*
Y1080275D1*
Y1077275D1*
Y1074275D1*
Y1071275D1*
Y1068275D1*
Y1065275D1*
Y1062275D1*
Y1059275D1*
X486228Y1062275D2*
X483228Y1059275D1*
X573228D2*
Y1056275D1*
X579228Y1059275D2*
Y1056275D1*
Y1053275D1*
Y1050275D1*
Y1047275D1*
Y1044275D1*
Y1041275D1*
X579216Y1038275D1*
X579102Y1035275D1*
X578638Y1032275D1*
X577612Y1029275D1*
X576228Y1026275D1*
X577612Y1023275D1*
X578474Y1020275D1*
X578910Y1017275D1*
X579103Y1014275D1*
X579182Y1011275D1*
X579211Y1008275D1*
X579222Y1005275D1*
X579226Y1002275D1*
X579227Y999275D1*
Y996275D1*
X579204Y993275D1*
X578981Y990275D1*
X578454Y987275D1*
X576236Y984275D1*
X573358Y981275D1*
X570228Y978275D1*
X492228Y1056275D2*
X485085Y1053275D1*
X479617Y1050275D1*
X475809Y1047275D1*
X473022Y1044275D1*
X472093Y1041275D1*
X471594Y1038275D1*
X471370Y1035275D1*
X471280Y1032275D1*
X471246Y1029275D1*
X471234Y1026275D1*
X471230Y1023275D1*
X471228Y1020275D1*
Y1017275D1*
Y1014275D1*
Y1011275D1*
Y1008275D1*
Y1005275D1*
Y1002275D1*
Y999275D1*
Y996275D1*
Y993275D1*
Y990275D1*
Y987275D1*
Y984275D1*
Y981275D1*
X492228Y1026275D2*
Y1023275D1*
Y1020275D1*
Y1017275D1*
Y1014275D1*
Y1011275D1*
Y1008275D1*
Y1005275D1*
Y1002275D1*
Y999275D1*
X492239Y996275D1*
X492356Y993275D1*
X492855Y990275D1*
X494063Y987275D1*
X495981Y984275D1*
X498228Y981275D1*
X507228Y1026275D2*
Y1023275D1*
Y1020275D1*
Y1017275D1*
Y1014275D1*
Y1011275D1*
Y1008275D1*
Y1005275D1*
Y1002275D1*
Y999275D1*
X507239Y996275D1*
X507356Y993275D1*
X507856Y990275D1*
X509074Y987275D1*
X511058Y984275D1*
X513545Y981275D1*
X516228Y978275D1*
X528228Y1026275D2*
Y1023275D1*
Y1020275D1*
Y1017275D1*
Y1014275D1*
Y1011275D1*
X558228Y1026275D2*
Y1023275D1*
Y1020275D1*
Y1017275D1*
Y1014275D1*
Y1011275D1*
X468228Y972275D2*
X465354Y969275D1*
X462855Y966275D1*
X461074Y963275D1*
X460061Y960275D1*
X459572Y957275D1*
X459360Y954275D1*
X459276Y951275D1*
X459245Y948275D1*
X459233Y945275D1*
X459229Y942275D1*
X459228Y939275D1*
Y936275D1*
Y933275D1*
Y930275D1*
Y927275D1*
Y924275D1*
Y921275D1*
Y918275D1*
Y915275D1*
Y912275D1*
Y909275D1*
Y906275D1*
Y903275D1*
Y900275D1*
Y897275D1*
Y894275D1*
Y891275D1*
X510228Y972275D2*
X513228Y969275D1*
X522228Y972275D2*
Y969275D1*
X570228Y972275D2*
X573664Y969275D1*
X576694Y966275D1*
X577980Y963275D1*
X578689Y960275D1*
X579015Y957275D1*
X579148Y954275D1*
X579199Y951275D1*
X579218Y948275D1*
X579224Y945275D1*
X579227Y942275D1*
Y939275D1*
Y936275D1*
X579228Y933275D1*
Y930275D1*
Y927275D1*
Y924275D1*
Y921275D1*
Y918275D1*
Y915275D1*
Y912275D1*
Y909275D1*
Y906275D1*
Y903275D1*
Y900275D1*
Y897275D1*
Y894275D1*
Y891275D1*
X483228Y945275D2*
X480817Y942275D1*
X479063Y939275D1*
X478070Y936275D1*
X477697Y933275D1*
X477949Y930275D1*
X478889Y927275D1*
X480228Y924275D1*
X507228Y945275D2*
Y942275D1*
Y939275D1*
Y936275D1*
Y933275D1*
Y930275D1*
Y927275D1*
Y924275D1*
X528228Y945275D2*
Y942275D1*
Y939275D1*
Y936275D1*
Y933275D1*
Y930275D1*
Y927275D1*
Y924275D1*
X555228Y945275D2*
X557638Y942275D1*
X559392Y939275D1*
X560385Y936275D1*
X560758Y933275D1*
X560506Y930275D1*
X559567Y927275D1*
X558228Y924275D1*
X518487Y2073771D2*
X512602Y2070771D1*
X506998Y2067771D1*
X501834Y2064771D1*
X497103Y2061771D1*
X492844Y2058771D1*
X489110Y2055771D1*
X485759Y2052771D1*
X482706Y2049771D1*
X480024Y2046771D1*
X477719Y2043771D1*
X475491Y2040771D1*
X473116Y2037771D1*
X470776Y2034771D1*
X468633Y2031771D1*
X466560Y2028771D1*
X464498Y2025771D1*
X462607Y2022771D1*
X460889Y2019771D1*
X459196Y2016771D1*
X457369Y2013771D1*
X455421Y2010771D1*
X453590Y2007771D1*
X451995Y2004771D1*
X450692Y2001771D1*
X449586Y1998771D1*
X448408Y1995771D1*
X447089Y1992771D1*
X445679Y1989771D1*
X444225Y1986771D1*
X442836Y1983771D1*
X441627Y1980771D1*
X440573Y1977771D1*
X439516Y1974771D1*
X438585Y1971771D1*
X437896Y1968771D1*
X437212Y1965771D1*
X436358Y1962771D1*
X435521Y1959771D1*
X434872Y1956771D1*
X434203Y1953771D1*
X433343Y1950771D1*
X432415Y1947771D1*
X431489Y1944771D1*
X430485Y1941771D1*
X429586Y1938771D1*
X428997Y1935771D1*
X428593Y1932771D1*
X428076Y1929771D1*
X427302Y1926771D1*
X426512Y1923771D1*
X425981Y1920771D1*
X425700Y1917771D1*
X425572Y1914771D1*
X425519Y1911771D1*
X425499Y1908771D1*
X425491Y1905771D1*
X425489Y1902771D1*
X425488Y1899771D1*
Y1896771D1*
X425487Y1893771D1*
Y1890771D1*
Y1887771D1*
Y1884771D1*
Y1881771D1*
Y1878771D1*
Y1875771D1*
X425476Y1872771D1*
X425361Y1869771D1*
X424898Y1866771D1*
X423872Y1863771D1*
X422487Y1860771D1*
X423872Y1857771D1*
X424734Y1854771D1*
X425170Y1851771D1*
X425363Y1848771D1*
X425442Y1845771D1*
X425471Y1842771D1*
X425482Y1839771D1*
X425486Y1836771D1*
X425487Y1833771D1*
Y1830771D1*
Y1827771D1*
X425499Y1824771D1*
X425605Y1821771D1*
X425987Y1818771D1*
X426705Y1815771D1*
X427475Y1812771D1*
X428010Y1809771D1*
X428393Y1806771D1*
X428903Y1803771D1*
X429674Y1800771D1*
X430475Y1797771D1*
X431111Y1794771D1*
X431774Y1791771D1*
X432633Y1788771D1*
X433560Y1785771D1*
X434486Y1782771D1*
X435490Y1779771D1*
X436389Y1776771D1*
X436978Y1773771D1*
X437382Y1770771D1*
X437911Y1767771D1*
X438790Y1764771D1*
X439974Y1761771D1*
X441329Y1758771D1*
X442761Y1755771D1*
X444143Y1752771D1*
X445349Y1749771D1*
X446402Y1746771D1*
X447470Y1743771D1*
X448507Y1740771D1*
X449579Y1737771D1*
X450993Y1734771D1*
X452721Y1731771D1*
X454463Y1728771D1*
X456110Y1725771D1*
X457686Y1722771D1*
X459228Y1719771D1*
X460848Y1716771D1*
X462733Y1713771D1*
X464956Y1710771D1*
X467235Y1707771D1*
X469366Y1704771D1*
X471536Y1701771D1*
X473990Y1698771D1*
X476703Y1695771D1*
X479573Y1692771D1*
X482519Y1689771D1*
X485511Y1686771D1*
X488609Y1683771D1*
X492000Y1680771D1*
X495835Y1677771D1*
X500103Y1674771D1*
X504835Y1671771D1*
X510048Y1668771D1*
X515487Y1665771D1*
X569487Y2073771D2*
X574450Y2070771D1*
X579440Y2067771D1*
X584384Y2064771D1*
X588965Y2061771D1*
X593123Y2058771D1*
X596894Y2055771D1*
X600135Y2052771D1*
X602966Y2049771D1*
X605738Y2046771D1*
X608492Y2043771D1*
X611039Y2040771D1*
X613289Y2037771D1*
X615496Y2034771D1*
X617862Y2031771D1*
X620188Y2028771D1*
X622237Y2025771D1*
X624032Y2022771D1*
X625759Y2019771D1*
X627598Y2016771D1*
X629551Y2013771D1*
X631396Y2010771D1*
X633084Y2007771D1*
X634665Y2004771D1*
X636107Y2001771D1*
X637336Y1998771D1*
X638409Y1995771D1*
X639574Y1992771D1*
X640889Y1989771D1*
X642297Y1986771D1*
X643750Y1983771D1*
X645139Y1980771D1*
X646347Y1977771D1*
X647401Y1974771D1*
X648459Y1971771D1*
X649378Y1968771D1*
X649974Y1965771D1*
X650381Y1962771D1*
X650898Y1959771D1*
X651684Y1956771D1*
X652580Y1953771D1*
X653493Y1950771D1*
X654493Y1947771D1*
X655390Y1944771D1*
X655978Y1941771D1*
X656382Y1938771D1*
X656899Y1935771D1*
X657673Y1932771D1*
X658463Y1929771D1*
X658994Y1926771D1*
X659286Y1923771D1*
X659520Y1920771D1*
X659955Y1917771D1*
X660694Y1914771D1*
X661471Y1911771D1*
X661997Y1908771D1*
X662276Y1905771D1*
X662403Y1902771D1*
X662456Y1899771D1*
X662476Y1896771D1*
X662484Y1893771D1*
X662486Y1890771D1*
X662487Y1887771D1*
Y1884771D1*
Y1881771D1*
Y1878771D1*
Y1875771D1*
Y1872771D1*
Y1869771D1*
Y1866771D1*
Y1863771D1*
Y1860771D1*
Y1857771D1*
Y1854771D1*
Y1851771D1*
Y1848771D1*
Y1845771D1*
Y1842771D1*
Y1839771D1*
X662476Y1836771D1*
X662370Y1833771D1*
X661988Y1830771D1*
X661269Y1827771D1*
X660500Y1824771D1*
X659977Y1821771D1*
X659687Y1818771D1*
X659454Y1815771D1*
X659019Y1812771D1*
X658281Y1809771D1*
X657504Y1806771D1*
X656967Y1803771D1*
X656582Y1800771D1*
X656072Y1797771D1*
X655301Y1794771D1*
X654500Y1791771D1*
X653864Y1788771D1*
X653201Y1785771D1*
X652354Y1782771D1*
X651520Y1779771D1*
X650871Y1776771D1*
X650203Y1773771D1*
X649343Y1770771D1*
X648415Y1767771D1*
X647477Y1764771D1*
X646367Y1761771D1*
X645086Y1758771D1*
X643779Y1755771D1*
X642606Y1752771D1*
X641566Y1749771D1*
X640502Y1746771D1*
X639467Y1743771D1*
X638396Y1740771D1*
X636982Y1737771D1*
X635253Y1734771D1*
X633511Y1731771D1*
X631865Y1728771D1*
X630289Y1725771D1*
X628747Y1722771D1*
X627138Y1719771D1*
X625347Y1716771D1*
X623401Y1713771D1*
X621470Y1710771D1*
X619483Y1707771D1*
X617356Y1704771D1*
X615099Y1701771D1*
X612668Y1698771D1*
X610196Y1695771D1*
X607741Y1692771D1*
X605121Y1689771D1*
X602316Y1686771D1*
X599294Y1683771D1*
X595846Y1680771D1*
X591749Y1677771D1*
X587153Y1674771D1*
X582389Y1671771D1*
X577501Y1668771D1*
X572487Y1665771D1*
X536487Y2061771D2*
X526142Y2058771D1*
X517494Y2055771D1*
X510749Y2052771D1*
X505412Y2049771D1*
X500875Y2046771D1*
X496626Y2043771D1*
X492635Y2040771D1*
X489026Y2037771D1*
X485727Y2034771D1*
X482694Y2031771D1*
X480020Y2028771D1*
X477717Y2025771D1*
X475490Y2022771D1*
X473116Y2019771D1*
X470788Y2016771D1*
X468739Y2013771D1*
X466954Y2010771D1*
X465322Y2007771D1*
X463771Y2004771D1*
X462248Y2001771D1*
X460743Y1998771D1*
X459238Y1995771D1*
X457739Y1992771D1*
X456236Y1989771D1*
X454739Y1986771D1*
X453248Y1983771D1*
X451844Y1980771D1*
X450630Y1977771D1*
X449574Y1974771D1*
X448505Y1971771D1*
X447480Y1968771D1*
X446513Y1965771D1*
X445482Y1962771D1*
X444471Y1959771D1*
X443510Y1956771D1*
X442481Y1953771D1*
X441471Y1950771D1*
X440510Y1947771D1*
X439492Y1944771D1*
X438588Y1941771D1*
X438010Y1938771D1*
X437710Y1935771D1*
X437564Y1932771D1*
X437403Y1929771D1*
X437000Y1926771D1*
X436273Y1923771D1*
X435502Y1920771D1*
X434977Y1917771D1*
X434687Y1914771D1*
X434454Y1911771D1*
X434019Y1908771D1*
X433281Y1905771D1*
X432504Y1902771D1*
X431978Y1899771D1*
X431699Y1896771D1*
X431572Y1893771D1*
X431519Y1890771D1*
X431499Y1887771D1*
X431491Y1884771D1*
X431489Y1881771D1*
X431488Y1878771D1*
Y1875771D1*
X431487Y1872771D1*
Y1869771D1*
Y1866771D1*
Y1863771D1*
Y1860771D1*
Y1857771D1*
Y1854771D1*
Y1851771D1*
Y1848771D1*
Y1845771D1*
X431499Y1842771D1*
X431605Y1839771D1*
X431987Y1836771D1*
X432705Y1833771D1*
X433475Y1830771D1*
X433998Y1827771D1*
X434288Y1824771D1*
X434520Y1821771D1*
X434955Y1818771D1*
X435694Y1815771D1*
X436471Y1812771D1*
X436997Y1809771D1*
X437276Y1806771D1*
X437415Y1803771D1*
X437573Y1800771D1*
X437976Y1797771D1*
X438713Y1794771D1*
X439590Y1791771D1*
X440497Y1788771D1*
X441506Y1785771D1*
X442508Y1782771D1*
X443478Y1779771D1*
X444600Y1776771D1*
X445886Y1773771D1*
X447183Y1770771D1*
X448263Y1767771D1*
X449027Y1764771D1*
X449754Y1761771D1*
X450727Y1758771D1*
X451950Y1755771D1*
X453320Y1752771D1*
X454770Y1749771D1*
X456247Y1746771D1*
X457742Y1743771D1*
X459237Y1740771D1*
X460739Y1737771D1*
X462248Y1734771D1*
X463856Y1731771D1*
X465736Y1728771D1*
X467957Y1725771D1*
X470235Y1722771D1*
X472366Y1719771D1*
X474536Y1716771D1*
X476978Y1713771D1*
X479598Y1710771D1*
X482191Y1707771D1*
X484801Y1704771D1*
X487730Y1701771D1*
X490980Y1698771D1*
X494328Y1695771D1*
X497872Y1692771D1*
X501817Y1689771D1*
X506460Y1686771D1*
X512597Y1683771D1*
X520891Y1680771D1*
X530487Y1677771D1*
X548487Y2061771D2*
X559194Y2058771D1*
X568307Y2055771D1*
X575480Y2052771D1*
X581186Y2049771D1*
X585877Y2046771D1*
X589874Y2043771D1*
X593576Y2040771D1*
X597093Y2037771D1*
X600215Y2034771D1*
X602996Y2031771D1*
X605749Y2028771D1*
X608496Y2025771D1*
X611040Y2022771D1*
X613278Y2019771D1*
X615390Y2016771D1*
X617480Y2013771D1*
X619470Y2010771D1*
X621456Y2007771D1*
X623392Y2004771D1*
X624981Y2001771D1*
X626253Y1998771D1*
X627511Y1995771D1*
X628865Y1992771D1*
X630288Y1989771D1*
X631759Y1986771D1*
X633244Y1983771D1*
X634729Y1980771D1*
X636120Y1977771D1*
X637239Y1974771D1*
X638018Y1971771D1*
X638751Y1968771D1*
X639726Y1965771D1*
X640938Y1962771D1*
X642215Y1959771D1*
X643376Y1956771D1*
X644412Y1953771D1*
X645462Y1950771D1*
X646391Y1947771D1*
X647080Y1944771D1*
X647763Y1941771D1*
X648617Y1938771D1*
X649442Y1935771D1*
X649986Y1932771D1*
X650272Y1929771D1*
X650414Y1926771D1*
X650573Y1923771D1*
X650976Y1920771D1*
X651702Y1917771D1*
X652473Y1914771D1*
X652997Y1911771D1*
X653276Y1908771D1*
X653403Y1905771D1*
X653456Y1902771D1*
X653488Y1899771D1*
X653601Y1896771D1*
X653986Y1893771D1*
X654705Y1890771D1*
X655474Y1887771D1*
X655998Y1884771D1*
X656276Y1881771D1*
X656403Y1878771D1*
X656456Y1875771D1*
X656476Y1872771D1*
X656484Y1869771D1*
X656486Y1866771D1*
X656487Y1863771D1*
Y1860771D1*
X656476Y1857771D1*
X656370Y1854771D1*
X655988Y1851771D1*
X655269Y1848771D1*
X654500Y1845771D1*
X653977Y1842771D1*
X653699Y1839771D1*
X653572Y1836771D1*
X653507Y1833771D1*
X653381Y1830771D1*
X652992Y1827771D1*
X652271Y1824771D1*
X651501Y1821771D1*
X650977Y1818771D1*
X650699Y1815771D1*
X650572Y1812771D1*
X650507Y1809771D1*
X650381Y1806771D1*
X649992Y1803771D1*
X649259Y1800771D1*
X648383Y1797771D1*
X647478Y1794771D1*
X646469Y1791771D1*
X645467Y1788771D1*
X644509Y1785771D1*
X643480Y1782771D1*
X642471Y1779771D1*
X641510Y1776771D1*
X640492Y1773771D1*
X639577Y1770771D1*
X638893Y1767771D1*
X638199Y1764771D1*
X637240Y1761771D1*
X636022Y1758771D1*
X634653Y1755771D1*
X633204Y1752771D1*
X631727Y1749771D1*
X630232Y1746771D1*
X628737Y1743771D1*
X627236Y1740771D1*
X625727Y1737771D1*
X624131Y1734771D1*
X622345Y1731771D1*
X620401Y1728771D1*
X618470Y1725771D1*
X616495Y1722771D1*
X614461Y1719771D1*
X612481Y1716771D1*
X610386Y1713771D1*
X607965Y1710771D1*
X605264Y1707771D1*
X602399Y1704771D1*
X599443Y1701771D1*
X596359Y1698771D1*
X592972Y1695771D1*
X589139Y1692771D1*
X584836Y1689771D1*
X579753Y1686771D1*
X573099Y1683771D1*
X564403Y1680771D1*
X554487Y1677771D1*
X497487Y2037771D2*
X503622Y2034771D1*
X508384Y2031771D1*
X512487Y2028771D1*
X521487Y2037771D2*
X515675Y2034771D1*
X509487Y2031771D1*
X527487Y2037771D2*
X524487Y2034771D1*
X521487Y2031771D1*
X530499Y2028771D1*
X539613Y2025771D1*
X549077Y2022771D1*
X559103Y2019771D1*
X569487Y2016771D1*
X539487Y2034771D2*
X545487Y2031771D1*
X539487Y2028771D1*
X545487Y2025771D1*
X554487Y2034771D2*
X551487Y2031771D1*
X556092Y2028771D1*
X561164Y2025771D1*
X566487Y2022771D1*
X557487Y2019771D1*
X569487Y2016771D1*
X575487Y2034771D2*
X580269Y2031771D1*
X584487Y2028771D1*
X582076Y2025771D1*
X580311Y2022771D1*
X579238Y2019771D1*
X578487Y2016771D1*
X530487Y2034771D2*
X527487Y2031771D1*
X539487D2*
X530487Y2028771D1*
X539610Y2025771D1*
X549076Y2022771D1*
X559102Y2019771D1*
X569487Y2016771D1*
X515487Y2028771D2*
X548487D2*
X572487Y2031771D2*
X569487Y2028771D1*
X572487Y2031771D2*
X575487Y2028771D1*
X521487Y2025771D2*
X527487Y2022771D2*
X554487D2*
X533487Y2019771D2*
X539487D2*
X545487Y2016771D2*
X578487Y2010771D2*
X581487Y2007771D1*
X587487Y2010771D2*
X575487Y2007771D2*
X554487Y2004771D2*
X572487D2*
X575487Y2001771D1*
X593487Y2004771D2*
X596487Y2001771D1*
X599487Y1998771D1*
X563487Y2001771D2*
X590487D2*
X572487Y1998771D2*
X599487Y1989771D2*
X601461Y1986771D1*
X603561Y1983771D1*
X605946Y1980771D1*
X608487Y1977771D1*
X605487Y1989771D2*
X608487Y1986771D1*
X611487Y1980771D2*
X509487Y1971771D2*
Y1968771D1*
Y1965771D1*
Y1962771D1*
Y1959771D1*
Y1956771D1*
Y1953771D1*
Y1950771D1*
Y1947771D1*
Y1944771D1*
Y1941771D1*
Y1938771D1*
Y1935771D1*
Y1932771D1*
Y1929771D1*
Y1926771D1*
X545487Y1971771D2*
X548487Y1968771D1*
X551487Y1965771D1*
X584487Y1971771D2*
X575487Y1968771D1*
X566487Y1965771D1*
X587487Y1971771D2*
Y1968771D1*
X587464Y1965771D1*
X587230Y1962771D1*
X586667Y1959771D1*
X583801Y1956771D1*
X579489Y1953771D1*
X574346Y1950771D1*
X569710Y1947771D1*
X566020Y1944771D1*
X564589Y1941771D1*
X563487Y1938771D1*
X587487D1*
Y1935771D1*
Y1932771D1*
Y1929771D1*
Y1926771D1*
X611487Y1971771D2*
X614487Y1965771D2*
X620487Y1962771D2*
X521487Y1959771D2*
Y1956771D1*
Y1953771D1*
Y1950771D1*
Y1947771D1*
Y1944771D1*
Y1941771D1*
X542487Y1959771D2*
X542963Y1956771D1*
X543824Y1953771D1*
X545099Y1950771D1*
X546834Y1947771D1*
X549047Y1944771D1*
X551487Y1941771D1*
X623487Y1956771D2*
X626487Y1947771D2*
X620487Y1944771D2*
Y1941771D1*
X626487D2*
X623487Y1935771D2*
X629487Y1929771D2*
X509487Y1920771D2*
Y1917771D1*
Y1914771D1*
Y1911771D1*
Y1908771D1*
Y1905771D1*
Y1902771D1*
Y1899771D1*
Y1896771D1*
Y1893771D1*
Y1890771D1*
Y1887771D1*
Y1884771D1*
Y1881771D1*
Y1878771D1*
Y1875771D1*
X587487Y1920771D2*
Y1917771D1*
Y1914771D1*
Y1911771D1*
Y1908771D1*
X626487Y1920771D2*
Y1917771D1*
Y1914771D1*
X632487D2*
Y1911771D1*
X521487Y1908771D2*
Y1905771D1*
Y1902771D1*
Y1899771D1*
Y1896771D1*
Y1893771D1*
Y1890771D1*
X536487Y1908771D2*
Y1905771D1*
Y1902771D1*
Y1899771D1*
Y1896771D1*
Y1893771D1*
Y1890771D1*
X548487Y1908771D2*
Y1905771D1*
Y1902771D1*
Y1899771D1*
Y1896771D1*
Y1893771D1*
Y1890771D1*
Y1887771D1*
X626487Y1905771D2*
X635487Y1899771D2*
Y1890771D2*
Y1887771D1*
Y1884771D1*
X587487Y1887771D2*
Y1884771D1*
Y1881771D1*
Y1878771D1*
Y1875771D1*
X509487Y1869771D2*
Y1866771D1*
Y1863771D1*
Y1860771D1*
Y1857771D1*
Y1854771D1*
Y1851771D1*
Y1848771D1*
Y1845771D1*
Y1842771D1*
Y1839771D1*
Y1836771D1*
Y1833771D1*
Y1830771D1*
Y1827771D1*
Y1824771D1*
X521487Y1869771D2*
Y1866771D1*
Y1863771D1*
Y1860771D1*
Y1857771D1*
Y1854771D1*
Y1851771D1*
X587487D2*
Y1848771D1*
Y1845771D1*
Y1842771D1*
Y1839771D1*
X521487D2*
Y1836771D1*
Y1833771D1*
Y1830771D1*
Y1827771D1*
Y1824771D1*
X635487Y1833771D2*
X626487Y1824771D2*
Y1821771D1*
X509487Y1815771D2*
Y1812771D1*
Y1809771D1*
Y1806771D1*
Y1803771D1*
Y1800771D1*
Y1797771D1*
Y1794771D1*
Y1791771D1*
Y1788771D1*
Y1785771D1*
Y1782771D1*
Y1779771D1*
Y1776771D1*
Y1773771D1*
X530487Y1815771D2*
Y1812771D1*
Y1809771D1*
Y1806771D1*
Y1803771D1*
X521487D1*
Y1800771D1*
Y1797771D1*
Y1794771D1*
Y1791771D1*
Y1788771D1*
Y1785771D1*
X542487Y1815771D2*
X542024Y1812771D1*
X541268Y1809771D1*
X540386Y1806771D1*
X539467Y1803771D1*
X538364Y1800771D1*
X537085Y1797771D1*
X535790Y1794771D1*
X534714Y1791771D1*
X534005Y1788771D1*
X533487Y1785771D1*
X587487Y1815771D2*
Y1812771D1*
Y1809771D1*
Y1806771D1*
Y1803771D1*
Y1800771D1*
Y1797771D1*
Y1794771D1*
Y1791771D1*
Y1788771D1*
Y1785771D1*
Y1782771D1*
Y1779771D1*
Y1776771D1*
Y1773771D1*
X626487Y1812771D2*
X632487D2*
X551487Y1806771D2*
X551373Y1803771D1*
X550977Y1800771D1*
X550152Y1797771D1*
X549001Y1794771D1*
X547747Y1791771D1*
X546594Y1788771D1*
X545562Y1785771D1*
X544512Y1782771D1*
X543587Y1779771D1*
X542957Y1776771D1*
X542487Y1773771D1*
X575487Y1806771D2*
Y1803771D1*
Y1800771D1*
Y1797771D1*
Y1794771D1*
Y1791771D1*
Y1788771D1*
Y1785771D1*
Y1782771D1*
X566487D1*
Y1779771D1*
Y1776771D1*
Y1773771D1*
X623487Y1797771D2*
X629487D2*
X620487Y1785771D2*
X626487D2*
X617487Y1779771D2*
Y1776771D1*
Y1773771D1*
X626487Y1779771D2*
Y1776771D1*
X614487Y1770771D2*
Y1767771D1*
Y1764771D1*
X623487Y1770771D2*
X620487Y1761771D2*
X611487Y1758771D2*
Y1755771D1*
X515487D2*
Y1752771D1*
X617487Y1755771D2*
X512487Y1749771D2*
X515487Y1746771D1*
X608487Y1749771D2*
X614487D2*
Y1746771D1*
X605487D2*
Y1743771D1*
X488487D2*
X509487D2*
Y1740771D1*
Y1737771D1*
X503487Y1740771D2*
X602487D2*
Y1737771D1*
X491487D2*
X494487Y1734771D1*
X512487Y1737771D2*
X500487Y1734771D2*
X608487D2*
X515487Y1731771D2*
X521487D2*
Y1728771D1*
X524487Y1731771D2*
X527487Y1728771D1*
X599487Y1731771D2*
X494487Y1728771D2*
X497487D2*
X596487D2*
X605487D2*
X500487Y1722771D2*
X602487D2*
X509487Y1719771D2*
Y1716771D1*
X512487Y1719771D2*
X509487Y1716771D1*
X599487Y1719771D2*
X491487Y1716771D2*
X494487D2*
X503487D2*
X590487D2*
Y1713771D1*
X485487D2*
X524487D2*
X512487Y1710771D2*
X513883Y1707771D1*
X514811Y1704771D1*
X515487Y1701771D1*
X530487Y1710771D2*
X532461Y1707771D1*
X534561Y1704771D1*
X536946Y1701771D1*
X539487Y1698771D1*
X581487Y1710771D2*
X578487Y1707771D2*
X539487Y1704771D2*
X575487D2*
X545487Y1701771D2*
X566487D2*
X569487D2*
X581487D2*
X542487Y1698771D2*
X575487D2*
X578487D2*
X551487Y1695771D2*
X554487D2*
X566487D2*
X2240157Y3101073D2*
D143*
Y3050833D1*
X2268842D1*
X2315343Y3101073D2*
X2284281D1*
Y3050833D1*
X2315343D1*
X2284281Y3077142D2*
X2303404D1*
X2330782Y3101073D2*
Y3050833D1*
X2347528D1*
X2354713Y3053265D1*
X2359522Y3058018D1*
X2361899Y3062827D1*
X2364275Y3069957D1*
Y3081950D1*
X2361899Y3089135D1*
X2359522Y3093888D1*
X2354713Y3098697D1*
X2347528Y3101073D1*
X2330782D1*
X701120Y2879978D2*
Y2829738D1*
X684373Y2879978D2*
X717867D1*
X733306Y2853669D2*
X754861D1*
X761991Y2856046D1*
X764423Y2858478D1*
X766799Y2863231D1*
Y2870416D1*
X764423Y2875169D1*
X761991Y2877601D1*
X754861Y2879978D1*
X733306D1*
Y2829738D1*
X818109Y2868039D2*
X815732Y2872792D1*
X810924Y2877601D1*
X806170Y2879978D1*
X796609D1*
X791800Y2877601D1*
X787047Y2872792D1*
X784615Y2868039D1*
X782239Y2860854D1*
Y2848861D1*
X784615Y2841731D1*
X787047Y2836923D1*
X791800Y2832169D1*
X796609Y2829738D1*
X806170D1*
X810924Y2832169D1*
X815732Y2836923D1*
X818109Y2841731D1*
X1275155Y3116821D2*
X1244094D1*
Y3066581D1*
X1275155D1*
X1244094Y3092890D2*
X1263217D1*
X1290595Y3100075D2*
Y3066581D1*
Y3090513D2*
X1297780Y3097698D1*
X1302588Y3100075D1*
X1309718D1*
X1314526Y3097698D1*
X1316903Y3090513D1*
Y3066581D1*
X1361027Y3097698D2*
Y3059396D1*
X1358650Y3052267D1*
X1356274Y3049835D1*
X1351465Y3047458D1*
X1344280D1*
X1339527Y3049835D1*
X1361027Y3090513D2*
X1356274Y3095266D1*
X1351465Y3097698D1*
X1344280D1*
X1339527Y3095266D1*
X1334719Y3090513D1*
X1332342Y3083328D1*
Y3078520D1*
X1334719Y3071390D1*
X1339527Y3066581D1*
X1344280Y3064205D1*
X1351465D1*
X1356274Y3066581D1*
X1361027Y3071390D1*
X1376466Y3116821D2*
X1378843Y3114445D1*
X1381275Y3116821D1*
X1378843Y3119253D1*
X1376466Y3116821D1*
X1378843Y3100075D2*
Y3066581D1*
X1396714Y3100075D2*
Y3066581D1*
Y3090513D2*
X1403899Y3097698D1*
X1408708Y3100075D1*
X1415837D1*
X1420646Y3097698D1*
X1423022Y3090513D1*
Y3066581D1*
X1438462Y3085705D2*
X1467146D1*
Y3090513D1*
X1464770Y3095322D1*
X1462393Y3097698D1*
X1457585Y3100075D1*
X1450400D1*
X1445647Y3097698D1*
X1440838Y3092890D1*
X1438462Y3085705D1*
Y3080951D1*
X1440838Y3073766D1*
X1445647Y3069013D1*
X1450400Y3066581D1*
X1457585D1*
X1462393Y3069013D1*
X1467146Y3073766D1*
X633858Y2334608D2*
X655413D1*
X662543Y2336984D1*
X664974Y2339416D1*
X667351Y2344169D1*
Y2351354D1*
X664974Y2356107D1*
X662543Y2358539D1*
X655413Y2360916D1*
X633858D1*
Y2310676D1*
X682790Y2344169D2*
Y2310676D1*
Y2329799D2*
X685222Y2336984D1*
X689975Y2341793D1*
X694784Y2344169D1*
X701969D1*
X729346D2*
X724593Y2341793D1*
X719785Y2336984D1*
X717408Y2329799D1*
Y2325046D1*
X719785Y2317861D1*
X724593Y2313108D1*
X729346Y2310676D1*
X736531D1*
X741340Y2313108D1*
X746093Y2317861D1*
X748525Y2325046D1*
Y2329799D1*
X746093Y2336984D1*
X741340Y2341793D1*
X736531Y2344169D1*
X729346D1*
X792649Y2341793D2*
Y2303491D1*
X790272Y2296361D1*
X787896Y2293929D1*
X783087Y2291553D1*
X775902D1*
X771149Y2293929D1*
X792649Y2334608D2*
X787896Y2339361D1*
X783087Y2341793D1*
X775902D1*
X771149Y2339361D1*
X766341Y2334608D1*
X763964Y2327423D1*
Y2322614D1*
X766341Y2315484D1*
X771149Y2310676D1*
X775902Y2308299D1*
X783087D1*
X787896Y2310676D1*
X792649Y2315484D1*
X808088Y2344169D2*
Y2310676D1*
Y2329799D2*
X810520Y2336984D1*
X815273Y2341793D1*
X820082Y2344169D1*
X827267D1*
X871391D2*
Y2310676D1*
Y2336984D2*
X866638Y2341793D1*
X861829Y2344169D1*
X854699D1*
X849891Y2341793D1*
X845138Y2336984D1*
X842706Y2329799D1*
Y2325046D1*
X845138Y2317861D1*
X849891Y2313108D1*
X854699Y2310676D1*
X861829D1*
X866638Y2313108D1*
X871391Y2317861D1*
X886830Y2344169D2*
Y2310676D1*
Y2334608D2*
X894015Y2341793D1*
X898824Y2344169D1*
X905953D1*
X910762Y2341793D1*
X913138Y2334608D1*
Y2310676D1*
Y2334608D2*
X920323Y2341793D1*
X925132Y2344169D1*
X932262D1*
X937070Y2341793D1*
X939502Y2334608D1*
Y2310676D1*
X954941Y2344169D2*
Y2310676D1*
Y2334608D2*
X962126Y2341793D1*
X966935Y2344169D1*
X974064D1*
X978873Y2341793D1*
X981250Y2334608D1*
Y2310676D1*
Y2334608D2*
X988435Y2341793D1*
X993243Y2344169D1*
X1000373D1*
X1005181Y2341793D1*
X1007613Y2334608D1*
Y2310676D1*
X1023052Y2329799D2*
X1051737D1*
Y2334608D1*
X1049361Y2339416D1*
X1046984Y2341793D1*
X1042176Y2344169D1*
X1034991D1*
X1030237Y2341793D1*
X1025429Y2336984D1*
X1023052Y2329799D1*
Y2325046D1*
X1025429Y2317861D1*
X1030237Y2313108D1*
X1034991Y2310676D1*
X1042176D1*
X1046984Y2313108D1*
X1051737Y2317861D1*
X1067176Y2344169D2*
Y2310676D1*
Y2329799D2*
X1069608Y2336984D1*
X1074362Y2341793D1*
X1079170Y2344169D1*
X1086355D1*
X1318897Y1561394D2*
X1340397D1*
X1347582Y1563825D1*
X1350014Y1566202D1*
X1352390Y1570955D1*
Y1575764D1*
X1350014Y1580517D1*
X1347582Y1582949D1*
X1340397Y1585325D1*
X1318897D1*
Y1535085D1*
X1335644Y1561394D2*
X1352390Y1535085D1*
X1367830Y1554209D2*
X1396515D1*
Y1559017D1*
X1394138Y1563825D1*
X1391761Y1566202D1*
X1386953Y1568579D1*
X1379768D1*
X1375015Y1566202D1*
X1370206Y1561394D1*
X1367830Y1554209D1*
Y1549455D1*
X1370206Y1542270D1*
X1375015Y1537517D1*
X1379768Y1535085D1*
X1386953D1*
X1391761Y1537517D1*
X1396515Y1542270D1*
X1438262Y1561394D2*
X1435886Y1566202D1*
X1428700Y1568579D1*
X1421515D1*
X1414330Y1566202D1*
X1411954Y1561394D1*
X1414330Y1556640D1*
X1419139Y1554209D1*
X1431077Y1551832D1*
X1435886Y1549455D1*
X1438262Y1544647D1*
Y1542270D1*
X1435886Y1537517D1*
X1428700Y1535085D1*
X1421515D1*
X1414330Y1537517D1*
X1411954Y1542270D1*
X1453701Y1554209D2*
X1482386D1*
Y1559017D1*
X1480010Y1563825D1*
X1477633Y1566202D1*
X1472825Y1568579D1*
X1465640D1*
X1460886Y1566202D1*
X1456078Y1561394D1*
X1453701Y1554209D1*
Y1549455D1*
X1456078Y1542270D1*
X1460886Y1537517D1*
X1465640Y1535085D1*
X1472825D1*
X1477633Y1537517D1*
X1482386Y1542270D1*
X1505011Y1585325D2*
Y1544647D1*
X1507387Y1537517D1*
X1512196Y1535085D1*
X1516949D1*
X1497825Y1568579D2*
X1514572D1*
X1874015Y1746743D2*
Y1710873D1*
X1876392Y1703688D1*
X1881200Y1698934D1*
X1888385Y1696503D1*
X1893138D1*
X1900323Y1698934D1*
X1905132Y1703688D1*
X1907509Y1710873D1*
Y1746743D1*
X1961250Y1696503D2*
X1942071Y1746743D1*
X1922948Y1696503D1*
X1930133Y1713249D2*
X1954065D1*
X1976689Y1722811D2*
X1998189D1*
X2005374Y1725243D1*
X2007806Y1727619D1*
X2010182Y1732373D1*
Y1737181D1*
X2007806Y1741934D1*
X2005374Y1744366D1*
X1998189Y1746743D1*
X1976689D1*
Y1696503D1*
X1993435Y1722811D2*
X2010182Y1696503D1*
X2042368Y1746743D2*
Y1696503D1*
X2025621Y1746743D2*
X2059115D1*
X2893700Y2549892D2*
Y2499652D1*
X2915255D1*
X2922440Y2502084D1*
X2924817Y2504461D1*
X2927194Y2509214D1*
Y2516399D1*
X2924817Y2521207D1*
X2922440Y2523584D1*
X2915255Y2525961D1*
X2922440Y2528392D1*
X2924817Y2530769D1*
X2927194Y2535522D1*
Y2540331D1*
X2924817Y2545084D1*
X2922440Y2547516D1*
X2915255Y2549892D1*
X2893700D1*
Y2525961D2*
X2915255D1*
X2942633Y2523584D2*
X2964188D1*
X2971318Y2525961D1*
X2973750Y2528392D1*
X2976126Y2533146D1*
Y2540331D1*
X2973750Y2545084D1*
X2971318Y2547516D1*
X2964188Y2549892D1*
X2942633D1*
Y2499652D1*
X2991565Y2540275D2*
X2996374Y2542707D1*
X3003559Y2549837D1*
Y2499652D1*
X4177165Y2545955D2*
Y2495715D1*
X4198720D1*
X4205905Y2498147D1*
X4208282Y2500524D1*
X4210658Y2505277D1*
Y2512462D1*
X4208282Y2517270D1*
X4205905Y2519647D1*
X4198720Y2522024D1*
X4205905Y2524455D1*
X4208282Y2526832D1*
X4210658Y2531585D1*
Y2536394D1*
X4208282Y2541147D1*
X4205905Y2543579D1*
X4198720Y2545955D1*
X4177165D1*
Y2522024D2*
X4198720D1*
X4226097Y2519647D2*
X4247653D1*
X4254782Y2522024D1*
X4257214Y2524455D1*
X4259591Y2529209D1*
Y2536394D1*
X4257214Y2541147D1*
X4254782Y2543579D1*
X4247653Y2545955D1*
X4226097D1*
Y2495715D1*
X4277462Y2533962D2*
Y2536338D1*
X4279838Y2541147D1*
X4282215Y2543523D1*
X4287023Y2545900D1*
X4296585D1*
X4301338Y2543523D1*
X4303715Y2541147D1*
X4306147Y2536338D1*
Y2531585D1*
X4303715Y2526777D1*
X4298962Y2519647D1*
X4275030Y2495715D1*
X4308523D1*
X3874015Y1246743D2*
Y1196503D1*
X3895570D1*
X3902755Y1198934D1*
X3905132Y1201311D1*
X3907509Y1206064D1*
Y1213249D1*
X3905132Y1218058D1*
X3902755Y1220434D1*
X3895570Y1222811D1*
X3902755Y1225243D1*
X3905132Y1227619D1*
X3907509Y1232373D1*
Y1237181D1*
X3905132Y1241934D1*
X3902755Y1244366D1*
X3895570Y1246743D1*
X3874015D1*
Y1222811D2*
X3895570D1*
X3922948Y1220434D2*
X3944503D1*
X3951633Y1222811D1*
X3954065Y1225243D1*
X3956441Y1229996D1*
Y1237181D1*
X3954065Y1241934D1*
X3951633Y1244366D1*
X3944503Y1246743D1*
X3922948D1*
Y1196503D1*
X3976689Y1246687D2*
X4002942D1*
X3988627Y1227564D1*
X3995812D1*
X4000565Y1225188D1*
X4002942Y1222811D1*
X4005374Y1215626D1*
Y1210873D1*
X4002942Y1203688D1*
X3998189Y1198879D1*
X3991004Y1196503D1*
X3983819D1*
X3976689Y1198879D1*
X3974312Y1201311D1*
X3971880Y1206064D1*
X3503936Y1116821D2*
Y1066581D1*
X3525492D1*
X3532677Y1069013D1*
X3535053Y1071390D1*
X3537430Y1076143D1*
Y1083328D1*
X3535053Y1088136D1*
X3532677Y1090513D1*
X3525492Y1092890D1*
X3532677Y1095322D1*
X3535053Y1097698D1*
X3537430Y1102451D1*
Y1107260D1*
X3535053Y1112013D1*
X3532677Y1114445D1*
X3525492Y1116821D1*
X3503936D1*
Y1092890D2*
X3525492D1*
X3552869Y1090513D2*
X3574424D1*
X3581554Y1092890D1*
X3583986Y1095322D1*
X3586362Y1100075D1*
Y1107260D1*
X3583986Y1112013D1*
X3581554Y1114445D1*
X3574424Y1116821D1*
X3552869D1*
Y1066581D1*
X3625733D2*
Y1116766D1*
X3601802Y1083328D1*
X3637672D1*
X2685039Y1128632D2*
Y1078392D1*
X2706594D1*
X2713779Y1080824D1*
X2716156Y1083201D1*
X2718532Y1087954D1*
Y1095139D1*
X2716156Y1099947D1*
X2713779Y1102324D1*
X2706594Y1104701D1*
X2713779Y1107133D1*
X2716156Y1109509D1*
X2718532Y1114262D1*
Y1119071D1*
X2716156Y1123824D1*
X2713779Y1126256D1*
X2706594Y1128632D1*
X2685039D1*
Y1104701D2*
X2706594D1*
X2733971Y1102324D2*
X2755527D1*
X2762656Y1104701D1*
X2765088Y1107133D1*
X2767465Y1111886D1*
Y1119071D1*
X2765088Y1123824D1*
X2762656Y1126256D1*
X2755527Y1128632D1*
X2733971D1*
Y1078392D1*
X2811589Y1128577D2*
X2787712D1*
X2785336Y1107077D1*
X2787712Y1109454D1*
X2794897Y1111886D1*
X2802027D1*
X2809212Y1109454D1*
X2814021Y1104701D1*
X2816397Y1097516D1*
Y1092762D1*
X2814021Y1085577D1*
X2809212Y1080769D1*
X2802027Y1078392D1*
X2794897D1*
X2787712Y1080769D1*
X2785336Y1083201D1*
X2782904Y1087954D1*
X1822834Y1128632D2*
Y1078392D1*
X1844389D1*
X1851574Y1080824D1*
X1853951Y1083201D1*
X1856327Y1087954D1*
Y1095139D1*
X1853951Y1099947D1*
X1851574Y1102324D1*
X1844389Y1104701D1*
X1851574Y1107133D1*
X1853951Y1109509D1*
X1856327Y1114262D1*
Y1119071D1*
X1853951Y1123824D1*
X1851574Y1126256D1*
X1844389Y1128632D1*
X1822834D1*
Y1104701D2*
X1844389D1*
X1871767Y1102324D2*
X1893322D1*
X1900452Y1104701D1*
X1902883Y1107133D1*
X1905260Y1111886D1*
Y1119071D1*
X1902883Y1123824D1*
X1900452Y1126256D1*
X1893322Y1128632D1*
X1871767D1*
Y1078392D1*
X1949384Y1121447D2*
X1947008Y1126201D1*
X1939823Y1128577D1*
X1935069D1*
X1927884Y1126201D1*
X1923076Y1119015D1*
X1920699Y1107077D1*
Y1095139D1*
X1923076Y1085577D1*
X1927884Y1080769D1*
X1935069Y1078392D1*
X1937446D1*
X1944576Y1080769D1*
X1949384Y1085577D1*
X1951761Y1092762D1*
Y1095139D1*
X1949384Y1102324D1*
X1944576Y1107077D1*
X1937446Y1109454D1*
X1935069D1*
X1927884Y1107077D1*
X1923076Y1102324D1*
X1920699Y1095139D1*
X1011810Y1120758D2*
Y1070518D1*
X1033366D1*
X1040551Y1072950D1*
X1042927Y1075327D1*
X1045304Y1080080D1*
Y1087265D1*
X1042927Y1092073D1*
X1040551Y1094450D1*
X1033366Y1096827D1*
X1040551Y1099259D1*
X1042927Y1101635D1*
X1045304Y1106388D1*
Y1111197D1*
X1042927Y1115950D1*
X1040551Y1118382D1*
X1033366Y1120758D1*
X1011810D1*
Y1096827D2*
X1033366D1*
X1060743Y1094450D2*
X1082298D1*
X1089428Y1096827D1*
X1091860Y1099259D1*
X1094236Y1104012D1*
Y1111197D1*
X1091860Y1115950D1*
X1089428Y1118382D1*
X1082298Y1120758D1*
X1060743D1*
Y1070518D1*
X1119237D2*
X1143169Y1120703D1*
X1109676D1*
X1069540Y2555900D2*
D145*
Y2540149D1*
X1058066Y2548738D1*
Y2544427D1*
X1056640Y2541575D1*
X1055214Y2540149D1*
X1050903Y2538690D1*
X1048051D1*
X1043740Y2540149D1*
X1040855Y2543001D1*
X1039429Y2547312D1*
Y2551623D1*
X1040855Y2555900D1*
X1042314Y2557326D1*
X1045166Y2558786D1*
X1069573Y2529426D2*
X1039429Y2517952D1*
X1069573Y2506478D1*
X1069540Y2494330D2*
Y2478578D1*
X1058066Y2487167D1*
Y2482856D1*
X1056640Y2480004D1*
X1055214Y2478578D1*
X1050903Y2477119D1*
X1048051D1*
X1043740Y2478578D1*
X1040855Y2481430D1*
X1039429Y2485741D1*
Y2490052D1*
X1040855Y2494330D1*
X1042314Y2495756D1*
X1045166Y2497215D1*
X971148Y2554849D2*
X941004D1*
Y2544801D1*
X942463Y2540490D1*
X945315Y2537605D1*
X948200Y2536179D1*
X952478Y2534753D1*
X959674D1*
X963985Y2536179D1*
X966837Y2537604D1*
X969722Y2540490D1*
X971148Y2544801D1*
Y2554849D1*
Y2525489D2*
X941004D1*
X971148Y2507603D2*
X969722Y2510489D1*
X966837Y2513340D1*
X963985Y2514800D1*
X959674Y2516226D1*
X952478D1*
X948200Y2514800D1*
X945315Y2513340D1*
X942463Y2510489D1*
X941004Y2507604D1*
Y2501867D1*
X942463Y2499015D1*
X945315Y2496130D1*
X948200Y2494704D1*
X952478Y2493278D1*
X959674D1*
X963985Y2494704D1*
X966837Y2496130D1*
X969722Y2499015D1*
X971148Y2501867D1*
Y2507603D1*
X861622Y2537264D2*
X864474Y2538690D1*
X867359Y2541575D1*
X868785Y2544427D1*
Y2550164D1*
X867359Y2553049D1*
X864474Y2555900D1*
X861622Y2557360D1*
X857311Y2558786D1*
X850115D1*
X845837Y2557360D1*
X842952Y2555900D1*
X840100Y2553049D1*
X838641Y2550164D1*
Y2544427D1*
X840100Y2541575D1*
X842952Y2538690D1*
X845837Y2537264D1*
X868785Y2528000D2*
X838641D1*
Y2510789D1*
X868785Y2501526D2*
X838641D1*
X868785Y2481430D2*
X848689Y2501526D1*
X855885Y2494363D2*
X838641Y2481430D1*
X752063Y2554849D2*
Y2541949D1*
X753522Y2537638D1*
X754948Y2536179D1*
X757800Y2534753D1*
X760685D1*
X763537Y2536179D1*
X764996Y2537638D1*
X766422Y2541949D1*
Y2554849D1*
X736278D1*
X752063Y2544801D2*
X736278Y2534753D1*
X762111Y2505393D2*
X764996Y2508245D1*
X766422Y2512556D1*
Y2518293D1*
X764996Y2522604D1*
X762111Y2525489D1*
X759259D1*
X756374Y2524030D1*
X754948Y2522604D1*
X753522Y2519752D1*
X750637Y2511130D1*
X749211Y2508245D1*
X747752Y2506819D1*
X744900Y2505393D1*
X740589D1*
X737738Y2508245D1*
X736278Y2512556D1*
Y2518293D1*
X737737Y2522604D1*
X740589Y2525489D1*
X766422Y2486082D2*
X736278D1*
X766422Y2496130D2*
Y2476034D1*
X2063428Y2034017D2*
D143*
X2061052Y2038770D1*
X2056243Y2043579D1*
X2051490Y2045955D1*
X2041929D1*
X2037120Y2043579D1*
X2032367Y2038770D1*
X2029935Y2034017D1*
X2027558Y2026832D1*
Y2014838D1*
X2029935Y2007709D1*
X2032367Y2002900D1*
X2037120Y1998147D1*
X2041929Y1995715D1*
X2051490D1*
X2056243Y1998147D1*
X2061052Y2002900D1*
X2063428Y2007709D1*
Y2014838D1*
X2051490D1*
X2112361Y2045955D2*
Y1995715D1*
X2078868Y2045955D1*
Y1995715D1*
X2127800Y2045955D2*
Y1995715D1*
X2144547D1*
X2151732Y1998147D1*
X2156540Y2002900D1*
X2158917Y2007709D1*
X2161294Y2014838D1*
Y2026832D1*
X2158917Y2034017D1*
X2156540Y2038770D1*
X2151732Y2043579D1*
X2144547Y2045955D1*
X2127800D1*
X660834Y2537264D2*
D145*
X663686Y2538690D1*
X666571Y2541575D1*
X667997Y2544427D1*
Y2550164D1*
X666571Y2553049D1*
X663686Y2555900D1*
X660834Y2557360D1*
X656523Y2558786D1*
X649327D1*
X645049Y2557360D1*
X642164Y2555900D1*
X639312Y2553049D1*
X637853Y2550164D1*
Y2544427D1*
X639312Y2541575D1*
X642164Y2538690D1*
X645049Y2537264D1*
X649327D1*
Y2544427D1*
X667997Y2507904D2*
X637853D1*
X667997Y2528000D1*
X637853D1*
X667997Y2498641D2*
X637853D1*
Y2488593D1*
X639312Y2484282D1*
X642164Y2481397D1*
X645049Y2479971D1*
X649327Y2478545D1*
X656523D1*
X660834Y2479971D1*
X663686Y2481397D1*
X666571Y2484282D1*
X667997Y2488593D1*
Y2498641D1*
X2001814Y3199815D2*
D143*
Y3156760D1*
X1980314Y3178260D2*
X2023369D1*
X2136011Y3178288D2*
X2163645D1*
X2031496Y1923598D2*
X2052995D1*
X2060180Y1926030D1*
X2062612Y1928407D1*
X2064989Y1933160D1*
Y1937968D1*
X2062612Y1942722D1*
X2060180Y1945153D1*
X2052995Y1947530D1*
X2031496D1*
Y1897290D1*
X2048242Y1923598D2*
X2064989Y1897290D1*
X2080428Y1947530D2*
X2113921Y1897290D1*
Y1947530D2*
X2080428Y1897290D1*
X2040368Y1849105D2*
Y1798865D1*
X2023621Y1849105D2*
X2057115D1*
X2072554D2*
X2106047Y1798865D1*
Y1849105D2*
X2072554Y1798865D1*
X407132Y2613487D2*
D146*
X415732D1*
X418606Y2614460D1*
X419579Y2615410D1*
X420530Y2617312D1*
Y2619235D1*
X419579Y2621136D1*
X418606Y2622109D1*
X415732Y2623060D1*
X407132D1*
Y2602964D1*
X413831Y2613487D2*
X420530Y2602964D1*
X426705Y2623060D2*
X440103Y2602964D1*
Y2623060D2*
X426705Y2602964D1*
X454878Y2621612D2*
Y2604390D1*
X446278Y2612989D2*
X463500D1*
X407500Y2670055D2*
X416100D1*
X418974Y2671028D1*
X419947Y2671979D1*
X420897Y2673880D1*
Y2675803D1*
X419947Y2677704D1*
X418974Y2678677D1*
X416100Y2679628D1*
X407500D1*
Y2659532D1*
X414198Y2670055D2*
X420897Y2659532D1*
X427073Y2679628D2*
X440470Y2659532D1*
Y2679628D2*
X427073Y2659532D1*
X446646Y2669569D2*
X457700D1*
X413831Y2772666D2*
Y2752570D1*
X407132Y2772666D2*
X420530D1*
X426705D2*
X440103Y2752570D1*
Y2772666D2*
X426705Y2752570D1*
X454878Y2771218D2*
Y2753996D1*
X446278Y2762596D2*
X463500D1*
X413831Y2725422D2*
Y2705326D1*
X407132Y2725422D2*
X420530D1*
X426705D2*
X440103Y2705326D1*
Y2725422D2*
X426705Y2705326D1*
X446278Y2715363D2*
X457332D1*
X421480Y2819072D2*
X420530Y2820973D1*
X418606Y2822896D1*
X416705Y2823847D1*
X412880D1*
X410957Y2822896D1*
X409056Y2820973D1*
X408083Y2819072D1*
X407132Y2816198D1*
Y2811400D1*
X408083Y2808548D1*
X409056Y2806625D1*
X410957Y2804724D1*
X412880Y2803751D1*
X416705D1*
X418606Y2804724D1*
X420530Y2806625D1*
X421480Y2808548D1*
Y2811400D1*
X416705D1*
X441053Y2823847D2*
Y2803751D1*
X427656Y2823847D1*
Y2803751D1*
X447229Y2823847D2*
Y2803751D1*
X453928D1*
X456802Y2804724D1*
X458725Y2806625D1*
X459676Y2808548D1*
X460626Y2811400D1*
Y2816198D1*
X459676Y2819072D1*
X458725Y2820973D1*
X456802Y2822896D1*
X453928Y2823847D1*
X447229D1*
X1575446Y3173519D2*
D147*
X1580606D1*
X1582331Y3174492D1*
X1582914Y3175443D1*
X1583485Y3177344D1*
Y3179267D1*
X1582914Y3181169D1*
X1582331Y3182141D1*
X1580606Y3183092D1*
X1575446D1*
Y3162996D1*
X1579465Y3173519D2*
X1583485Y3162996D1*
X1588734Y3183092D2*
X1596772Y3162996D1*
Y3183092D2*
X1588734Y3162996D1*
X1607182Y3181644D2*
Y3164422D1*
X1602022Y3173022D2*
X1612355D1*
X1630812Y3173519D2*
X1635972D1*
X1637697Y3174492D1*
X1638280Y3175443D1*
X1638851Y3177344D1*
Y3179267D1*
X1638280Y3181169D1*
X1637697Y3182141D1*
X1635972Y3183092D1*
X1630812D1*
Y3162996D1*
X1634832Y3173519D2*
X1638851Y3162996D1*
X1644100Y3183092D2*
X1652139Y3162996D1*
Y3183092D2*
X1644100Y3162996D1*
X1657388Y3173033D2*
X1664020D1*
X1686497Y3183092D2*
Y3162996D1*
X1682478Y3183092D2*
X1690516D1*
X1695766D2*
X1703804Y3162996D1*
Y3183092D2*
X1695766Y3162996D1*
X1709053Y3173033D2*
X1715686D1*
X1738162Y3183092D2*
Y3162996D1*
X1734143Y3183092D2*
X1742182D1*
X1747431D2*
X1755469Y3162996D1*
Y3183092D2*
X1747431Y3162996D1*
X1765879Y3181644D2*
Y3164422D1*
X1760719Y3173022D2*
X1771052D1*
X1798118Y3178317D2*
X1797548Y3180218D1*
X1796394Y3182141D1*
X1795253Y3183092D1*
X1792958D1*
X1791804Y3182141D1*
X1790663Y3180218D1*
X1790080Y3178317D1*
X1789509Y3175443D1*
Y3170645D1*
X1790080Y3167794D1*
X1790663Y3165870D1*
X1791804Y3163969D1*
X1792958Y3162996D1*
X1795253D1*
X1796394Y3163969D1*
X1797548Y3165870D1*
X1798118Y3167794D1*
Y3170645D1*
X1795253D1*
X1811406Y3183092D2*
Y3162996D1*
X1803367Y3183092D1*
Y3162996D1*
X1816655Y3183092D2*
Y3162996D1*
X1820674D1*
X1822399Y3163969D1*
X1823553Y3165870D1*
X1824123Y3167794D1*
X1824694Y3170645D1*
Y3175443D1*
X1824123Y3178317D1*
X1823553Y3180218D1*
X1822399Y3182141D1*
X1820674Y3183092D1*
X1816655D1*
X3540096Y1721657D2*
D146*
Y1704435D1*
X3531496Y1713035D2*
X3548718D1*
X4367697Y1761803D2*
D148*
X4522695D1*
X4445296Y1684404D2*
Y1839402D1*
X4445196Y2069946D2*
Y2169432D1*
X1012659Y1729368D2*
D149*
X1029859D1*
X1035607Y1731314D1*
X1037553Y1733215D1*
X1039454Y1737018D1*
Y1740864D1*
X1037553Y1744667D1*
X1035607Y1746612D1*
X1029859Y1748514D1*
X1012659D1*
Y1708322D1*
X1026057Y1729368D2*
X1039454Y1708322D1*
X1072852Y1729368D2*
X1070951Y1733215D1*
X1065203Y1735116D1*
X1059455D1*
X1053707Y1733215D1*
X1051805Y1729368D1*
X1053707Y1725566D1*
X1057553Y1723620D1*
X1067104Y1721719D1*
X1070951Y1719818D1*
X1072852Y1715971D1*
Y1714070D1*
X1070951Y1710267D1*
X1065203Y1708322D1*
X1059455D1*
X1053707Y1710267D1*
X1051805Y1714070D1*
X1090951Y1748514D2*
Y1715971D1*
X1092853Y1710267D1*
X1096699Y1708322D1*
X1100502D1*
X1085203Y1735116D2*
X1098601D1*
X1176583Y1748514D2*
X1151734D1*
Y1708322D1*
X1176583D1*
X1151734Y1729368D2*
X1167033D1*
X1188935Y1735116D2*
Y1708322D1*
Y1727467D2*
X1194683Y1733215D1*
X1198529Y1735116D1*
X1204233D1*
X1208080Y1733215D1*
X1209981Y1727467D1*
Y1708322D1*
X600740Y2170889D2*
D145*
X613673D1*
X617951Y2172315D1*
X619410Y2173774D1*
X620836Y2176626D1*
Y2180937D1*
X619410Y2183789D1*
X617951Y2185248D1*
X613673Y2186674D1*
X600740D1*
Y2156530D1*
X630100Y2186674D2*
Y2156530D1*
Y2170889D2*
X634411Y2175200D1*
X637296Y2176626D1*
X641607D1*
X644459Y2175200D1*
X645885Y2170889D1*
Y2156530D1*
X662311Y2176626D2*
X659459Y2175200D1*
X656574Y2172315D1*
X655148Y2168004D1*
Y2165152D1*
X656574Y2160841D1*
X659459Y2157990D1*
X662311Y2156530D1*
X666622D1*
X669507Y2157990D1*
X672359Y2160841D1*
X673818Y2165152D1*
Y2168004D1*
X672359Y2172315D1*
X669507Y2175200D1*
X666622Y2176626D1*
X662311D1*
X687393Y2186674D2*
Y2162267D1*
X688819Y2157990D1*
X691704Y2156530D1*
X694556D1*
X683082Y2176626D2*
X693130D1*
X710982D2*
X708130Y2175200D1*
X705245Y2172315D1*
X703819Y2168004D1*
Y2165152D1*
X705245Y2160841D1*
X708130Y2157990D1*
X710982Y2156530D1*
X715293D1*
X718178Y2157990D1*
X721030Y2160841D1*
X722490Y2165152D1*
Y2168004D1*
X721030Y2172315D1*
X718178Y2175200D1*
X715293Y2176626D1*
X710982D1*
X748964Y2186674D2*
Y2156530D1*
Y2172315D2*
X746112Y2175200D1*
X743227Y2176626D1*
X738916D1*
X736064Y2175200D1*
X733179Y2172315D1*
X731753Y2168004D1*
Y2165152D1*
X733179Y2160841D1*
X736064Y2157990D1*
X738916Y2156530D1*
X743227D1*
X746112Y2157990D1*
X748964Y2160841D1*
X758228Y2186674D2*
X759654Y2185248D1*
X761113Y2186674D1*
X759654Y2188134D1*
X758228Y2186674D1*
X759654Y2176626D2*
Y2156530D1*
X777539Y2176626D2*
X774687Y2175200D1*
X771802Y2172315D1*
X770376Y2168004D1*
Y2165152D1*
X771802Y2160841D1*
X774687Y2157990D1*
X777539Y2156530D1*
X781850D1*
X784735Y2157990D1*
X787587Y2160841D1*
X789046Y2165152D1*
Y2168004D1*
X787587Y2172315D1*
X784735Y2175200D1*
X781850Y2176626D1*
X777539D1*
X815521Y2186674D2*
Y2156530D1*
Y2172315D2*
X812669Y2175200D1*
X809784Y2176626D1*
X805473D1*
X802621Y2175200D1*
X799736Y2172315D1*
X798310Y2168004D1*
Y2165152D1*
X799736Y2160841D1*
X802621Y2157990D1*
X805473Y2156530D1*
X809784D1*
X812669Y2157990D1*
X815521Y2160841D1*
X824784Y2168004D2*
X841995D1*
Y2170889D1*
X840569Y2173774D1*
X839143Y2175200D1*
X836258Y2176626D1*
X831947D1*
X829095Y2175200D1*
X826210Y2172315D1*
X824784Y2168004D1*
Y2165152D1*
X826210Y2160841D1*
X829095Y2157990D1*
X831947Y2156530D1*
X836258D1*
X839143Y2157990D1*
X841995Y2160841D1*
X2941587Y2365266D2*
D150*
X3010475D1*
X2976075Y2330866D2*
Y2399754D1*
X3207451Y2131570D2*
X3138563D1*
X3172963Y2165970D2*
Y2097082D1*
M02*
