%TF.GenerationSoftware,Novarm,DipTrace,3.3.0.1*%
%TF.CreationDate,2018-11-14T10:23:04-08:00*%
%FSLAX26Y26*%
%MOIN*%
%TF.FileFunction,Copper,L2,Bot*%
%TF.Part,Single*%
%TA.AperFunction,Conductor*%
%ADD14C,0.006*%
%TA.AperFunction,CopperBalancing*%
%ADD15C,0.025*%
%TA.AperFunction,ViaPad*%
%ADD20C,0.04*%
G75*
G01*
%LPD*%
X681200Y1099949D2*
D14*
Y899951D1*
X931200Y1236515D2*
Y1074951D1*
Y774951D1*
X962451Y1074951D2*
X931200D1*
X718700Y956692D2*
X787451Y1025443D1*
Y1287449D1*
X987449D1*
X936515Y1236515D1*
X931200D1*
X599951Y1199951D2*
Y1145843D1*
X581200D1*
Y843700D1*
X593700Y831200D1*
Y812449D1*
X637449Y1156200D2*
Y1067758D1*
X656200D1*
Y999011D1*
X662461D1*
Y931234D1*
X637451Y906224D1*
Y868700D1*
X618700Y981200D2*
X636511Y999011D1*
X656200D1*
X568721Y1274948D2*
Y857200D1*
X549973D1*
Y788659D1*
X568721D1*
Y743754D1*
X743700Y1068700D2*
X724949Y1087451D1*
Y1143701D1*
X681200Y1187451D1*
Y1224949D1*
X631201Y1274948D1*
X568721D1*
X824949Y1087451D2*
Y1061713D1*
X831200D1*
Y918700D1*
X799949Y887449D1*
X856200Y1131200D2*
Y899951D1*
X899949Y1199951D2*
Y1158069D1*
X912449D1*
Y956200D1*
Y859779D1*
X899949D1*
Y824949D1*
X887985Y956200D2*
X912449D1*
X612449Y931200D2*
X606200Y924951D1*
Y856200D1*
X656200Y806200D1*
Y718700D1*
X662451Y712449D1*
X874949D1*
X899949Y737449D1*
Y824949D1*
D20*
X681200Y1099949D3*
Y899951D3*
X931200Y1236515D3*
Y774951D3*
X962451Y1074951D3*
X718700Y956692D3*
X931200Y1236515D3*
X599951Y1199951D3*
X593700Y812449D3*
X637449Y1156200D3*
X637451Y868700D3*
X618700Y981200D3*
X568721Y1274948D3*
Y743754D3*
X743700Y1068700D3*
X568721Y1274948D3*
X824949Y1087451D3*
X799949Y887449D3*
X856200Y1131200D3*
Y899951D3*
X899949Y1199951D3*
Y824949D3*
X887985Y956200D3*
X612449Y931200D3*
X1068700Y681200D3*
Y1306200D3*
Y981200D3*
X468700Y1331200D3*
Y993700D3*
Y706200D3*
X668700Y1543700D3*
X856200D3*
X656200Y456200D3*
X881200D3*
X620603Y1556331D2*
D15*
X916779D1*
X628713Y1531462D2*
X908705D1*
X631333Y1506594D2*
X906086D1*
X628856Y1481725D2*
X908525D1*
X620961Y1456856D2*
X916420D1*
X606321Y1431987D2*
X931061D1*
X580951Y1407119D2*
X956431D1*
X433718Y1382250D2*
X1103700D1*
X433718Y1357381D2*
X1103700D1*
X433718Y1332512D2*
X1103700D1*
X433718Y1307644D2*
X533141D1*
X604276D2*
X1103700D1*
X433718Y1282775D2*
X520402D1*
X667611D2*
X1103700D1*
X433718Y1257906D2*
X522949D1*
X692478D2*
X1103700D1*
X433718Y1233037D2*
X536729D1*
X712071D2*
X864783D1*
X935128D2*
X1103700D1*
X433718Y1208169D2*
X536729D1*
X713184D2*
X851684D1*
X948225D2*
X1103700D1*
X433718Y1183300D2*
X536729D1*
X729583D2*
X854018D1*
X945857D2*
X1103700D1*
X433718Y1158431D2*
X536729D1*
X753015D2*
X816016D1*
X944457D2*
X1103700D1*
X433718Y1133562D2*
X536729D1*
X756962D2*
X807260D1*
X944457D2*
X1103700D1*
X433718Y1108693D2*
X536729D1*
X769917D2*
X781100D1*
X944457D2*
X1103700D1*
X433718Y1083825D2*
X536729D1*
X944457D2*
X1103700D1*
X433718Y1058956D2*
X536729D1*
X944457D2*
X1103700D1*
X433718Y1034087D2*
X536729D1*
X777237D2*
X799187D1*
X944457D2*
X1103700D1*
X433718Y1009218D2*
X536729D1*
X713184D2*
X799187D1*
X944457D2*
X1103700D1*
X433718Y984350D2*
X536729D1*
X713184D2*
X799187D1*
X944457D2*
X1103700D1*
X433718Y959481D2*
X536729D1*
X713184D2*
X799187D1*
X944457D2*
X1103700D1*
X433718Y934612D2*
X536729D1*
X714691D2*
X799187D1*
X944457D2*
X1103700D1*
X433718Y909743D2*
X536729D1*
X729153D2*
X756628D1*
X944457D2*
X1103700D1*
X433718Y884875D2*
X536729D1*
X727682D2*
X751029D1*
X944457D2*
X1103700D1*
X433718Y860006D2*
X518106D1*
X707514D2*
X759928D1*
X944457D2*
X1103700D1*
X433718Y835137D2*
X517962D1*
X672133D2*
X852079D1*
X947831D2*
X1103700D1*
X433718Y810268D2*
X517962D1*
X687922D2*
X853335D1*
X946575D2*
X1103700D1*
X433718Y785399D2*
X518141D1*
X688209D2*
X867940D1*
X931934D2*
X1103700D1*
X433718Y760531D2*
X522842D1*
X614574D2*
X624214D1*
X688209D2*
X867940D1*
X931934D2*
X1103700D1*
X433718Y735662D2*
X520438D1*
X931898D2*
X1103700D1*
X433718Y710793D2*
X533428D1*
X604024D2*
X625292D1*
X917508D2*
X1103700D1*
X433718Y685924D2*
X647037D1*
X890344D2*
X1103700D1*
X433718Y661056D2*
X1103700D1*
X433718Y636187D2*
X1103700D1*
X571872Y611318D2*
X965545D1*
X601440Y586449D2*
X935977D1*
X618127Y561581D2*
X919291D1*
X627493Y536712D2*
X909924D1*
X631188Y511843D2*
X906193D1*
X629825Y486974D2*
X907592D1*
X623115Y462106D2*
X914267D1*
X610088Y437237D2*
X927293D1*
X628487Y1497023D2*
X627457Y1487896D1*
X625747Y1478872D1*
X623367Y1470002D1*
X620330Y1461335D1*
X616651Y1452919D1*
X612355Y1444802D1*
X607461Y1437029D1*
X602001Y1429645D1*
X596003Y1422691D1*
X589501Y1416204D1*
X582532Y1410222D1*
X575134Y1404779D1*
X567351Y1399903D1*
X559225Y1395625D1*
X550800Y1391966D1*
X542127Y1388949D1*
X533250Y1386590D1*
X524222Y1384901D1*
X515094Y1383892D1*
X505915Y1383569D1*
X496738Y1383935D1*
X487615Y1384985D1*
X478595Y1386716D1*
X469730Y1389117D1*
X461070Y1392175D1*
X452663Y1395872D1*
X444556Y1400188D1*
X436794Y1405099D1*
X431180Y1409272D1*
X431200Y603188D1*
X437737Y607941D1*
X445543Y612779D1*
X453690Y617020D1*
X462130Y620640D1*
X470819Y623616D1*
X479705Y625935D1*
X488741Y627582D1*
X497875Y628548D1*
X507054Y628829D1*
X516229Y628420D1*
X525348Y627327D1*
X534360Y625554D1*
X543213Y623112D1*
X551859Y620014D1*
X560249Y616277D1*
X568335Y611924D1*
X576074Y606977D1*
X583420Y601465D1*
X590333Y595419D1*
X596775Y588872D1*
X602708Y581861D1*
X608099Y574427D1*
X612920Y566609D1*
X617142Y558453D1*
X620741Y550003D1*
X623699Y541309D1*
X625997Y532417D1*
X627623Y523377D1*
X628567Y514242D1*
X628831Y506200D1*
X628487Y497023D1*
X627457Y487896D1*
X625747Y478872D1*
X623367Y470002D1*
X620330Y461335D1*
X616651Y452919D1*
X612355Y444802D1*
X607461Y437029D1*
X603132Y431174D1*
X934176Y431200D1*
X929619Y437501D1*
X924762Y445296D1*
X920502Y453432D1*
X916864Y461865D1*
X913867Y470546D1*
X911527Y479428D1*
X909859Y488459D1*
X908872Y497590D1*
X908570Y506770D1*
X908957Y515945D1*
X910029Y525067D1*
X911780Y534082D1*
X914203Y542941D1*
X917280Y551595D1*
X920997Y559993D1*
X925333Y568090D1*
X930260Y575839D1*
X935755Y583199D1*
X941785Y590125D1*
X948318Y596582D1*
X955314Y602532D1*
X962737Y607941D1*
X970543Y612779D1*
X978690Y617020D1*
X987130Y620640D1*
X995819Y623616D1*
X1004705Y625935D1*
X1013741Y627582D1*
X1022875Y628548D1*
X1032054Y628829D1*
X1041229Y628420D1*
X1050348Y627327D1*
X1059360Y625554D1*
X1068213Y623112D1*
X1076859Y620014D1*
X1085249Y616277D1*
X1093335Y611924D1*
X1101074Y606977D1*
X1106210Y603124D1*
X1106200Y1409212D1*
X1100134Y1404779D1*
X1092351Y1399903D1*
X1084225Y1395625D1*
X1075800Y1391966D1*
X1067127Y1388949D1*
X1058250Y1386590D1*
X1049222Y1384901D1*
X1040094Y1383892D1*
X1030915Y1383569D1*
X1021738Y1383935D1*
X1012615Y1384985D1*
X1003595Y1386716D1*
X994730Y1389117D1*
X986070Y1392175D1*
X977663Y1395872D1*
X969556Y1400188D1*
X961794Y1405099D1*
X954423Y1410577D1*
X947482Y1416591D1*
X941011Y1423108D1*
X935045Y1430091D1*
X929619Y1437501D1*
X924762Y1445296D1*
X920502Y1453432D1*
X916864Y1461865D1*
X913867Y1470546D1*
X911527Y1479428D1*
X909859Y1488459D1*
X908872Y1497590D1*
X908570Y1506770D1*
X908957Y1515945D1*
X910029Y1525067D1*
X911780Y1534082D1*
X914203Y1542941D1*
X917280Y1551595D1*
X920997Y1559993D1*
X925333Y1568090D1*
X930260Y1575839D1*
X934275Y1581216D1*
X603224Y1581200D1*
X608099Y1574427D1*
X612920Y1566609D1*
X617142Y1558453D1*
X620741Y1550003D1*
X623699Y1541309D1*
X625997Y1532417D1*
X627623Y1523377D1*
X628567Y1514242D1*
X628831Y1506200D1*
X628487Y1497023D1*
X710700Y1035968D2*
Y935923D1*
X716558Y930150D1*
X720848Y924247D1*
X724161Y917746D1*
X726415Y910806D1*
X727557Y903599D1*
Y896302D1*
X726415Y889095D1*
X724161Y882155D1*
X720848Y875654D1*
X716558Y869751D1*
X711399Y864592D1*
X705497Y860302D1*
X698995Y856990D1*
X692056Y854735D1*
X684848Y853594D1*
X681385Y853459D1*
X678882Y847590D1*
X675070Y841368D1*
X670331Y835819D1*
X669273Y834842D1*
X678632Y825359D1*
X681354Y821613D1*
X683455Y817489D1*
X684885Y813087D1*
X685609Y808515D1*
X685700Y741931D1*
X862720Y741949D1*
X870456Y749675D1*
X870449Y789015D1*
X864591Y794750D1*
X860301Y800653D1*
X856989Y807154D1*
X854734Y814094D1*
X853592Y821301D1*
Y828598D1*
X854734Y835805D1*
X856989Y842745D1*
X860301Y849246D1*
X863734Y854062D1*
X856200Y853451D1*
X848926Y854023D1*
X841831Y855726D1*
X836008Y858095D1*
X832830Y854569D1*
X827281Y849830D1*
X821060Y846018D1*
X814318Y843225D1*
X807224Y841522D1*
X799949Y840949D1*
X792675Y841522D1*
X785581Y843225D1*
X778839Y846018D1*
X772617Y849830D1*
X767069Y854569D1*
X762330Y860117D1*
X758518Y866339D1*
X755725Y873081D1*
X754022Y880175D1*
X753449Y887449D1*
X754022Y894724D1*
X755725Y901818D1*
X758518Y908560D1*
X762330Y914781D1*
X767069Y920330D1*
X772617Y925069D1*
X778839Y928881D1*
X785581Y931674D1*
X792675Y933377D1*
X799949Y933949D1*
X801703Y933881D1*
X801700Y1043541D1*
X797617Y1049831D1*
X792069Y1054570D1*
X788964Y1058046D1*
X786661Y1050905D1*
X783348Y1044403D1*
X779058Y1038501D1*
X773899Y1033342D1*
X767997Y1029052D1*
X761495Y1025739D1*
X754556Y1023485D1*
X747348Y1022343D1*
X740052D1*
X732844Y1023485D1*
X725905Y1025739D1*
X719403Y1029052D1*
X713501Y1033342D1*
X710693Y1035956D1*
X626707Y779705D2*
X621032Y774830D1*
X614810Y771018D1*
X608217Y768280D1*
X611682Y761549D1*
X613936Y754609D1*
X615078Y747402D1*
Y740106D1*
X613936Y732898D1*
X611682Y725959D1*
X608369Y719457D1*
X604079Y713554D1*
X598920Y708396D1*
X593018Y704106D1*
X586516Y700793D1*
X579577Y698539D1*
X572369Y697397D1*
X565073D1*
X557865Y698539D1*
X550926Y700793D1*
X544424Y704106D1*
X538522Y708396D1*
X533363Y713554D1*
X529073Y719457D1*
X525760Y725959D1*
X523506Y732898D1*
X522364Y740106D1*
Y747402D1*
X523506Y754609D1*
X525760Y761549D1*
X528997Y767913D1*
X526107Y771319D1*
X523688Y775267D1*
X521917Y779544D1*
X520836Y784044D1*
X520473Y788669D1*
X520564Y859515D1*
X521288Y864087D1*
X522718Y868489D1*
X524819Y872613D1*
X527541Y876359D1*
X530814Y879632D1*
X534560Y882354D1*
X539221Y884759D1*
Y1238972D1*
X533363Y1244749D1*
X529073Y1250651D1*
X525760Y1257153D1*
X523506Y1264092D1*
X522364Y1271300D1*
Y1278596D1*
X523506Y1285804D1*
X525760Y1292743D1*
X529073Y1299245D1*
X533363Y1305148D1*
X538522Y1310306D1*
X544424Y1314596D1*
X550926Y1317909D1*
X557865Y1320163D1*
X565073Y1321305D1*
X572369D1*
X579577Y1320163D1*
X586516Y1317909D1*
X593018Y1314596D1*
X598920Y1310306D1*
X604079Y1305148D1*
X604636Y1304441D1*
X633516Y1304357D1*
X638088Y1303633D1*
X642490Y1302203D1*
X646615Y1300102D1*
X650360Y1297380D1*
X702060Y1245809D1*
X705066Y1242289D1*
X707485Y1238342D1*
X709256Y1234065D1*
X710336Y1229564D1*
X710700Y1224940D1*
Y1199651D1*
X747381Y1162860D1*
X750103Y1159115D1*
X752204Y1154990D1*
X753634Y1150588D1*
X754359Y1146016D1*
X754449Y1113953D1*
X761495Y1111661D1*
X767997Y1108348D1*
X773899Y1104058D1*
X779058Y1098899D1*
X779734Y1098306D1*
X781989Y1105246D1*
X785301Y1111747D1*
X789591Y1117650D1*
X794750Y1122809D1*
X800653Y1127099D1*
X807154Y1130411D1*
X809710Y1131354D1*
X810272Y1138474D1*
X811976Y1145569D1*
X814768Y1152310D1*
X818581Y1158532D1*
X823319Y1164081D1*
X828868Y1168819D1*
X835090Y1172632D1*
X841831Y1175424D1*
X848926Y1177128D1*
X856200Y1177700D1*
X859179Y1177583D1*
X856989Y1182155D1*
X854734Y1189095D1*
X853592Y1196302D1*
Y1203599D1*
X854734Y1210806D1*
X856989Y1217746D1*
X860301Y1224247D1*
X864591Y1230150D1*
X869750Y1235309D1*
X875653Y1239599D1*
X882154Y1242911D1*
X889094Y1245166D1*
X896301Y1246308D1*
X903598D1*
X910805Y1245166D1*
X917745Y1242911D1*
X924246Y1239599D1*
X930149Y1235309D1*
X935308Y1230150D1*
X939598Y1224247D1*
X942910Y1217746D1*
X945165Y1210806D1*
X946306Y1203599D1*
Y1196302D1*
X945165Y1189095D1*
X942910Y1182155D1*
X939598Y1175654D1*
X937861Y1173057D1*
X939704Y1169357D1*
X941134Y1164956D1*
X941859Y1160384D1*
X941949Y1075392D1*
X941859Y857464D1*
X941134Y852892D1*
X940502Y850654D1*
X941381Y846060D1*
X944174Y839318D1*
X945877Y832224D1*
X946449Y824949D1*
X945877Y817675D1*
X944174Y810581D1*
X941381Y803839D1*
X937569Y797617D1*
X932830Y792069D1*
X929443Y789035D1*
X929359Y735134D1*
X928634Y730562D1*
X927204Y726161D1*
X925103Y722036D1*
X922381Y718291D1*
X895809Y691590D1*
X892289Y688583D1*
X888342Y686165D1*
X884065Y684393D1*
X879564Y683313D1*
X874940Y682949D1*
X660136Y683040D1*
X655564Y683764D1*
X651162Y685195D1*
X647037Y687296D1*
X643292Y690018D1*
X633768Y699541D1*
X631046Y703287D1*
X628945Y707411D1*
X627515Y711813D1*
X626791Y716385D1*
X626700Y779667D1*
X539228Y1239033D2*
X535840Y1242067D1*
X531102Y1247616D1*
X527289Y1253838D1*
X524497Y1260579D1*
X522793Y1267674D1*
X522221Y1274948D1*
X522793Y1282222D1*
X524497Y1289317D1*
X527289Y1296058D1*
X531102Y1302280D1*
X535840Y1307829D1*
X541389Y1312567D1*
X547611Y1316380D1*
X554352Y1319172D1*
X561447Y1320876D1*
X568721Y1321448D1*
X575995Y1320876D1*
X583090Y1319172D1*
X589831Y1316380D1*
X596053Y1312567D1*
X601602Y1307829D1*
X604636Y1304441D1*
M02*
