%TF.GenerationSoftware,Novarm,DipTrace,3.3.0.1*%
%TF.CreationDate,2018-11-14T10:23:03-08:00*%
%FSLAX26Y26*%
%MOIN*%
%TF.FileFunction,Copper,L1,Top*%
%TF.Part,Single*%
%AMOUTLINE0*
4,1,4,
0.005906,-0.019685,
-0.005906,-0.019685,
-0.005906,0.019685,
0.005906,0.019685,
0.005906,-0.019685,
0*%
%AMOUTLINE3*
4,1,4,
0.03937,-0.025591,
-0.03937,-0.025591,
-0.03937,0.025591,
0.03937,0.025591,
0.03937,-0.025591,
0*%
%TA.AperFunction,Conductor*%
%ADD14C,0.006*%
%TA.AperFunction,CopperBalancing*%
%ADD15C,0.025*%
%ADD16C,0.013*%
%ADD17R,0.03937X0.043307*%
%ADD18R,0.010827X0.009843*%
%ADD19R,0.009843X0.010827*%
%TA.AperFunction,ViaPad*%
%ADD20C,0.04*%
%ADD34OUTLINE0*%
%ADD37OUTLINE3*%
G75*
G01*
%LPD*%
X758857Y1236515D2*
D14*
Y1177607D1*
X681200Y1099949D1*
Y899951D2*
X756200D1*
Y773228D1*
X758857Y775885D1*
X798720Y1035728D2*
X793700Y1040747D1*
Y1068700D1*
X758857Y1103543D1*
Y1177607D1*
X837598Y1236515D2*
X931200D1*
Y774951D2*
X836663D1*
X837598Y775885D1*
X968700Y1023129D2*
X939271Y993700D1*
X798720D1*
Y1016043D1*
Y996357D1*
X968700Y1023129D2*
X962451Y1029378D1*
Y1074951D1*
X738680Y976672D2*
X718700Y956692D1*
X719487Y1236515D2*
Y1206987D1*
X712451Y1199951D1*
X599951D1*
X593700Y812449D2*
X718700D1*
Y776672D1*
X719487Y775885D1*
X738680Y1035728D2*
X736959Y1037449D1*
X699948D1*
X687449Y1024951D1*
X587449D1*
X581200Y1031200D1*
Y1168700D1*
X599951Y1187451D1*
Y1199951D1*
X739172Y1236515D2*
Y1189172D1*
X706200Y1156200D1*
X637449D1*
X637451Y868700D2*
X699951D1*
X737451Y831200D1*
Y777607D1*
X739172Y775885D1*
X738680Y1016043D2*
X735087Y1012449D1*
X706199D1*
X674949Y981200D1*
X618700D1*
X699802Y1236515D2*
Y1274948D1*
X568721D1*
Y743754D2*
X586755D1*
Y768751D1*
X692669D1*
X699802Y775885D1*
X758857Y1036220D2*
X756200Y1038877D1*
Y1049949D1*
X743700Y1062449D1*
Y1068700D1*
X778543Y1236515D2*
Y1133857D1*
X824949Y1087451D1*
X799949Y887449D2*
Y856199D1*
X781200Y837449D1*
Y778543D1*
X778543Y775885D1*
X798228Y1236515D2*
Y1189172D1*
X856200Y1131200D1*
Y899951D2*
X849949D1*
Y881199D1*
X806200Y837449D1*
Y812451D1*
X799949Y806200D1*
Y777607D1*
X798228Y775885D1*
X817913Y1236515D2*
Y1199951D1*
X899949D1*
Y824949D2*
X893700Y818700D1*
X837397D1*
X817913Y799216D1*
Y775885D1*
X968700Y956200D2*
X948228Y976672D1*
X887985D1*
X798720D1*
X887985D2*
Y956200D1*
X738680Y996357D2*
X736023Y993700D1*
X712451D1*
X649951Y931200D1*
X612449D1*
D20*
X681200Y1099949D3*
Y899951D3*
X931200Y1236515D3*
Y774951D3*
X962451Y1074951D3*
X718700Y956692D3*
X931200Y1236515D3*
X599951Y1199951D3*
X593700Y812449D3*
X637449Y1156200D3*
X637451Y868700D3*
X618700Y981200D3*
X568721Y1274948D3*
Y743754D3*
X743700Y1068700D3*
X568721Y1274948D3*
X824949Y1087451D3*
X799949Y887449D3*
X856200Y1131200D3*
Y899951D3*
X899949Y1199951D3*
Y824949D3*
X887985Y956200D3*
X612449Y931200D3*
X1068700Y681200D3*
Y1306200D3*
Y981200D3*
X468700Y1331200D3*
Y993700D3*
Y706200D3*
X668700Y1543700D3*
X856200D3*
X656200Y456200D3*
X881200D3*
X620603Y1556331D2*
D15*
X916779D1*
X628713Y1531462D2*
X908705D1*
X631333Y1506594D2*
X906086D1*
X628856Y1481725D2*
X908525D1*
X620961Y1456856D2*
X916420D1*
X606321Y1431987D2*
X931061D1*
X580951Y1407119D2*
X956431D1*
X433718Y1382250D2*
X544767D1*
X673712D2*
X863670D1*
X992615D2*
X1103700D1*
X433718Y1357381D2*
X540892D1*
X677623D2*
X859794D1*
X996525D2*
X1103700D1*
X433718Y1332512D2*
X540892D1*
X677623D2*
X859794D1*
X996525D2*
X1103700D1*
X433718Y1307644D2*
X533141D1*
X675829D2*
X861553D1*
X994731D2*
X1103700D1*
X433718Y1282775D2*
X520402D1*
X730731D2*
X1103700D1*
X433718Y1257906D2*
X522949D1*
X872438D2*
X1103700D1*
X433718Y1233037D2*
X546095D1*
X635136D2*
X664907D1*
X935128D2*
X1103700D1*
X433718Y1208169D2*
X551693D1*
X948225D2*
X1103700D1*
X433718Y1183300D2*
X553057D1*
X945857D2*
X1103700D1*
X433718Y1158431D2*
X549217D1*
X923393D2*
X1103700D1*
X433718Y1133562D2*
X549217D1*
X905129D2*
X1103700D1*
X433718Y1108693D2*
X549217D1*
X613210D2*
X633043D1*
X899388D2*
X1103700D1*
X433718Y1083825D2*
X549217D1*
X613210D2*
X635088D1*
X873801D2*
X1103700D1*
X433718Y1058956D2*
X549217D1*
X613210D2*
X656762D1*
X864184D2*
X920008D1*
X1017375D2*
X1103700D1*
X433718Y1034087D2*
X549217D1*
X833145D2*
X920008D1*
X1017375D2*
X1103700D1*
X433718Y1009218D2*
X558977D1*
X833145D2*
X920008D1*
X1017375D2*
X1103700D1*
X433718Y984350D2*
X569814D1*
X1017375D2*
X1103700D1*
X433718Y959481D2*
X573044D1*
X1017375D2*
X1103700D1*
X433718Y934612D2*
X563570D1*
X714691D2*
X822691D1*
X1017375D2*
X1103700D1*
X433718Y909743D2*
X568703D1*
X904159D2*
X920008D1*
X1017375D2*
X1103700D1*
X433718Y884875D2*
X591346D1*
X902688D2*
X1103700D1*
X433718Y860006D2*
X589264D1*
X933011D2*
X1103700D1*
X433718Y835137D2*
X550616D1*
X947831D2*
X1103700D1*
X433718Y810268D2*
X544767D1*
X946575D2*
X1103700D1*
X433718Y785399D2*
X545522D1*
X926910D2*
X1103700D1*
X433718Y760531D2*
X522842D1*
X872510D2*
X1103700D1*
X433718Y735662D2*
X520438D1*
X617624D2*
X674669D1*
X862750D2*
X1103700D1*
X433718Y710793D2*
X533428D1*
X672527D2*
X864855D1*
X991430D2*
X1103700D1*
X433718Y685924D2*
X540892D1*
X677623D2*
X859794D1*
X996525D2*
X1103700D1*
X433718Y661056D2*
X540892D1*
X677623D2*
X859794D1*
X996525D2*
X1103700D1*
X433718Y636187D2*
X542040D1*
X676439D2*
X860943D1*
X995342D2*
X1103700D1*
X571872Y611318D2*
X965545D1*
X601440Y586449D2*
X935977D1*
X618127Y561581D2*
X919291D1*
X627493Y536712D2*
X909924D1*
X631188Y511843D2*
X906193D1*
X629825Y486974D2*
X907592D1*
X623115Y462106D2*
X914267D1*
X610088Y437237D2*
X927293D1*
X1014885Y974964D2*
Y908046D1*
X922515D1*
Y925091D1*
X918184Y920842D1*
X912281Y916552D1*
X905780Y913239D1*
X901214Y911654D1*
X902557Y903599D1*
Y896302D1*
X901415Y889095D1*
X899161Y882155D1*
X895848Y875654D1*
X892415Y870838D1*
X899949Y871449D1*
X907224Y870877D1*
X914318Y869174D1*
X921060Y866381D1*
X927281Y862569D1*
X932830Y857830D1*
X937569Y852281D1*
X941381Y846060D1*
X944174Y839318D1*
X945877Y832224D1*
X946449Y824949D1*
X945877Y817675D1*
X944174Y810581D1*
X941381Y803839D1*
X937569Y797617D1*
X932830Y792069D1*
X927281Y787330D1*
X921060Y783518D1*
X914318Y780725D1*
X907224Y779022D1*
X899949Y778449D1*
X892675Y779022D1*
X885581Y780725D1*
X878839Y783518D1*
X872617Y787330D1*
X870254Y789193D1*
X870003Y786384D1*
X869940Y754364D1*
X868991Y748945D1*
X866943Y743838D1*
X863885Y739264D1*
X859949Y735420D1*
X855304Y732472D1*
X850150Y730546D1*
X844701Y729728D1*
X825897Y729781D1*
X806212D1*
X786527D1*
X766842D1*
X747157D1*
X727472D1*
X707787D1*
X691818D1*
X687710Y730432D1*
X683755Y731717D1*
X680050Y733606D1*
X676687Y736049D1*
X673741Y738997D1*
X646737Y739251D1*
X615892Y739138D1*
X614812Y734638D1*
X611682Y725959D1*
X609616Y721686D1*
X651086Y721561D1*
X656481Y720483D1*
X661537Y718315D1*
X666037Y715149D1*
X669787Y711123D1*
X672624Y706409D1*
X674426Y701210D1*
X675115Y695751D1*
X675007Y641531D1*
X673928Y636136D1*
X671760Y631079D1*
X668595Y626579D1*
X664567Y622830D1*
X659854Y619994D1*
X654655Y618191D1*
X649197Y617502D1*
X567417Y617609D1*
X562022Y618688D1*
X556965Y620856D1*
X552465Y624022D1*
X548716Y628049D1*
X545880Y632763D1*
X544077Y637961D1*
X543388Y643419D1*
X543444Y697012D1*
X544396Y702439D1*
X544424Y704106D1*
X538522Y708396D1*
X533363Y713554D1*
X529073Y719457D1*
X525760Y725959D1*
X523506Y732898D1*
X522364Y740106D1*
Y747402D1*
X523506Y754609D1*
X525760Y761549D1*
X529073Y768050D1*
X533363Y773953D1*
X538522Y779112D1*
X544424Y783402D1*
X550926Y786714D1*
X554204Y787923D1*
X550739Y794654D1*
X548485Y801594D1*
X547343Y808801D1*
Y816098D1*
X548485Y823305D1*
X550739Y830245D1*
X554052Y836746D1*
X558342Y842649D1*
X563501Y847808D1*
X569403Y852098D1*
X575905Y855410D1*
X582844Y857665D1*
X590052Y858806D1*
X592004Y858882D1*
X591094Y865052D1*
Y872348D1*
X592235Y879556D1*
X594490Y886495D1*
X595190Y888010D1*
X588153Y891552D1*
X582250Y895842D1*
X577091Y901001D1*
X572801Y906903D1*
X569489Y913405D1*
X567234Y920344D1*
X566092Y927552D1*
Y934848D1*
X567234Y942056D1*
X569489Y948995D1*
X572801Y955497D1*
X576800Y961029D1*
X574476Y966831D1*
X572772Y973926D1*
X572200Y981200D1*
X572772Y988474D1*
X574476Y995569D1*
X575380Y998018D1*
X570109Y1001085D1*
X565339Y1005340D1*
X558768Y1012041D1*
X556046Y1015787D1*
X553945Y1019911D1*
X552515Y1024313D1*
X551791Y1028885D1*
X551700Y1113877D1*
X551791Y1171015D1*
X552515Y1175587D1*
X553945Y1179989D1*
X556052Y1184121D1*
X554023Y1192676D1*
X553451Y1199951D1*
X554023Y1207225D1*
X555726Y1214319D1*
X558519Y1221061D1*
X562331Y1227283D1*
X563489Y1228750D1*
X557865Y1229733D1*
X550926Y1231987D1*
X544424Y1235300D1*
X538522Y1239590D1*
X533363Y1244749D1*
X529073Y1250651D1*
X525760Y1257153D1*
X523506Y1264092D1*
X522364Y1271300D1*
Y1278596D1*
X523506Y1285804D1*
X525760Y1292743D1*
X529073Y1299245D1*
X533363Y1305148D1*
X538522Y1310306D1*
X543583Y1314033D1*
X543381Y1320898D1*
X543495Y1370869D1*
X544574Y1376264D1*
X546742Y1381321D1*
X549907Y1385821D1*
X553935Y1389570D1*
X558649Y1392406D1*
X563847Y1394209D1*
X569305Y1394898D1*
X651086Y1394791D1*
X656481Y1393712D1*
X661537Y1391544D1*
X666037Y1388378D1*
X669787Y1384351D1*
X672623Y1379637D1*
X674426Y1374439D1*
X675115Y1368981D1*
X675058Y1315388D1*
X674109Y1309969D1*
X672058Y1304855D1*
X678957Y1304448D1*
X702117Y1304357D1*
X706690Y1303633D1*
X711091Y1302203D1*
X715216Y1300102D1*
X718961Y1297380D1*
X722234Y1294107D1*
X724956Y1290361D1*
X727057Y1286237D1*
X727861Y1284056D1*
X731188Y1282619D1*
X750873D1*
X770558D1*
X790243D1*
X809928D1*
X829283Y1282590D1*
X844134Y1282692D1*
X849591Y1281991D1*
X854785Y1280179D1*
X859494Y1277331D1*
X863512Y1273574D1*
X866670Y1269067D1*
X868827Y1264007D1*
X869893Y1258609D1*
X870003Y1237827D1*
Y1235524D1*
X875653Y1239599D1*
X882154Y1242911D1*
X889094Y1245166D1*
X896301Y1246308D1*
X903598D1*
X910805Y1245166D1*
X917745Y1242911D1*
X924246Y1239599D1*
X930149Y1235309D1*
X935308Y1230150D1*
X939598Y1224247D1*
X942910Y1217746D1*
X945165Y1210806D1*
X946306Y1203599D1*
Y1196302D1*
X945165Y1189095D1*
X942910Y1182155D1*
X939598Y1175654D1*
X935308Y1169751D1*
X930149Y1164592D1*
X924246Y1160302D1*
X917745Y1156990D1*
X910805Y1154735D1*
X903598Y1153594D1*
X896970Y1153567D1*
X899161Y1148995D1*
X901415Y1142056D1*
X902557Y1134848D1*
Y1127552D1*
X901415Y1120344D1*
X899161Y1113405D1*
X895848Y1106903D1*
X891558Y1101001D1*
X886399Y1095842D1*
X880497Y1091552D1*
X873995Y1088239D1*
X871439Y1087297D1*
X870877Y1080176D1*
X869174Y1073082D1*
X866381Y1066340D1*
X862569Y1060119D1*
X857830Y1054570D1*
X852281Y1049831D1*
X846060Y1046019D1*
X839318Y1043226D1*
X832224Y1041523D1*
X830623Y1041334D1*
X830633Y1006146D1*
X922515Y1006209D1*
Y1071283D1*
X1014885D1*
X1014878Y974976D1*
X727439Y945251D2*
X706767D1*
Y946292D1*
X702310Y941382D1*
X708532Y937570D1*
X714081Y932831D1*
X717115Y929444D1*
X758515Y929360D1*
X763087Y928636D1*
X767489Y927205D1*
X771621Y925099D1*
X772617Y925069D1*
X778839Y928881D1*
X785581Y931674D1*
X792675Y933377D1*
X799949Y933949D1*
X807224Y933377D1*
X814318Y931674D1*
X820141Y929305D1*
X823319Y932831D1*
X828868Y937570D1*
X835090Y941382D1*
X841831Y944175D1*
X842970Y944497D1*
X842405Y947178D1*
X830606Y947172D1*
X830633Y945251D1*
X809928D1*
X809964Y944287D1*
X727436Y944267D1*
Y945235D1*
X667397Y1229426D2*
Y1245430D1*
X609553Y1245448D1*
X614319Y1244175D1*
X621061Y1241382D1*
X627283Y1237570D1*
X632831Y1232831D1*
X635865Y1229444D1*
X667377Y1229451D1*
X667397Y1236523D1*
X967483Y1290724D2*
X886314Y1290838D1*
X880919Y1291917D1*
X875863Y1294085D1*
X871363Y1297250D1*
X867613Y1301277D1*
X864777Y1305991D1*
X862974Y1311190D1*
X862285Y1316649D1*
X862393Y1370869D1*
X863472Y1376264D1*
X865640Y1381321D1*
X868805Y1385821D1*
X872833Y1389570D1*
X877546Y1392406D1*
X882745Y1394209D1*
X888204Y1394898D1*
X969983Y1394791D1*
X975378Y1393712D1*
X980435Y1391544D1*
X984935Y1388378D1*
X988684Y1384351D1*
X991520Y1379637D1*
X993323Y1374439D1*
X994012Y1368980D1*
X993956Y1315388D1*
X993007Y1309969D1*
X990959Y1304861D1*
X987901Y1300288D1*
X983965Y1296444D1*
X979319Y1293495D1*
X974166Y1291570D1*
X968717Y1290751D1*
X967483Y617495D2*
X886314Y617609D1*
X880919Y618688D1*
X875863Y620856D1*
X871363Y624022D1*
X867613Y628049D1*
X864777Y632763D1*
X862974Y637961D1*
X862285Y643420D1*
X862393Y697641D1*
X863472Y703036D1*
X865640Y708092D1*
X868805Y712592D1*
X872833Y716342D1*
X877546Y719178D1*
X882745Y720981D1*
X888204Y721670D1*
X969983Y721562D1*
X975378Y720483D1*
X980435Y718315D1*
X984935Y715150D1*
X988684Y711123D1*
X991520Y706409D1*
X993323Y701210D1*
X994012Y695751D1*
X993956Y642159D1*
X993007Y636741D1*
X990959Y631633D1*
X987901Y627060D1*
X983965Y623216D1*
X979319Y620267D1*
X974166Y618342D1*
X968717Y617523D1*
X970543Y612779D1*
X978690Y617020D1*
X987130Y620640D1*
X995819Y623616D1*
X1004705Y625935D1*
X1013741Y627582D1*
X1022875Y628548D1*
X1032054Y628829D1*
X1041229Y628420D1*
X1050348Y627327D1*
X1059360Y625554D1*
X1068213Y623112D1*
X1076859Y620014D1*
X1085249Y616277D1*
X1093335Y611924D1*
X1101074Y606977D1*
X1106210Y603124D1*
X1106200Y1409212D1*
X1100134Y1404779D1*
X1092351Y1399903D1*
X1084225Y1395625D1*
X1075800Y1391966D1*
X1067127Y1388949D1*
X1058250Y1386590D1*
X1049222Y1384901D1*
X1040094Y1383892D1*
X1030915Y1383569D1*
X1021738Y1383935D1*
X1012615Y1384985D1*
X1003595Y1386716D1*
X994730Y1389117D1*
X986070Y1392175D1*
X977663Y1395872D1*
X969556Y1400188D1*
X961794Y1405099D1*
X954423Y1410577D1*
X947482Y1416591D1*
X941011Y1423108D1*
X935045Y1430091D1*
X929619Y1437501D1*
X924762Y1445296D1*
X920502Y1453432D1*
X916864Y1461865D1*
X913867Y1470546D1*
X911527Y1479428D1*
X909859Y1488459D1*
X908872Y1497590D1*
X908570Y1506770D1*
X908957Y1515945D1*
X910029Y1525067D1*
X911780Y1534082D1*
X914203Y1542941D1*
X917280Y1551595D1*
X920997Y1559993D1*
X925333Y1568090D1*
X930260Y1575839D1*
X934275Y1581216D1*
X603224Y1581200D1*
X608099Y1574427D1*
X612920Y1566609D1*
X617142Y1558453D1*
X620741Y1550003D1*
X623699Y1541309D1*
X625997Y1532417D1*
X627623Y1523377D1*
X628567Y1514242D1*
X628831Y1506200D1*
X628487Y1497023D1*
X627457Y1487896D1*
X625747Y1478872D1*
X623367Y1470002D1*
X620330Y1461335D1*
X616651Y1452919D1*
X612355Y1444802D1*
X607461Y1437029D1*
X602001Y1429645D1*
X596003Y1422691D1*
X589501Y1416204D1*
X582532Y1410222D1*
X575134Y1404779D1*
X567351Y1399903D1*
X559225Y1395625D1*
X550800Y1391966D1*
X542127Y1388949D1*
X533250Y1386590D1*
X524222Y1384901D1*
X515094Y1383892D1*
X505915Y1383569D1*
X496738Y1383935D1*
X487615Y1384985D1*
X478595Y1386716D1*
X469730Y1389117D1*
X461070Y1392175D1*
X452663Y1395872D1*
X444556Y1400188D1*
X436794Y1405099D1*
X431180Y1409272D1*
X431200Y603188D1*
X437737Y607941D1*
X445543Y612779D1*
X453690Y617020D1*
X462130Y620640D1*
X470819Y623616D1*
X479705Y625935D1*
X488741Y627582D1*
X497875Y628548D1*
X507054Y628829D1*
X516229Y628420D1*
X525348Y627327D1*
X534360Y625554D1*
X543213Y623112D1*
X551859Y620014D1*
X560249Y616277D1*
X568335Y611924D1*
X576074Y606977D1*
X583420Y601465D1*
X590333Y595419D1*
X596775Y588872D1*
X602708Y581861D1*
X608099Y574427D1*
X612920Y566609D1*
X617142Y558453D1*
X620741Y550003D1*
X623699Y541309D1*
X625997Y532417D1*
X627623Y523377D1*
X628567Y514242D1*
X628831Y506200D1*
X628487Y497023D1*
X627457Y487896D1*
X625747Y478872D1*
X623367Y470002D1*
X620330Y461335D1*
X616651Y452919D1*
X612355Y444802D1*
X607461Y437029D1*
X603132Y431174D1*
X934176Y431200D1*
X929619Y437501D1*
X924762Y445296D1*
X920502Y453432D1*
X916864Y461865D1*
X913867Y470546D1*
X911527Y479428D1*
X909859Y488459D1*
X908872Y497590D1*
X908570Y506770D1*
X908957Y515945D1*
X910029Y525067D1*
X911780Y534082D1*
X914203Y542941D1*
X917280Y551595D1*
X920997Y559993D1*
X925333Y568090D1*
X930260Y575839D1*
X935755Y583199D1*
X941785Y590125D1*
X948318Y596582D1*
X955314Y602532D1*
X962737Y607941D1*
X970543Y612779D1*
X671758Y1054453D2*
X666831Y1055725D1*
X660090Y1058518D1*
X653868Y1062330D1*
X648319Y1067069D1*
X643581Y1072617D1*
X639768Y1078839D1*
X636976Y1085581D1*
X635272Y1092675D1*
X634700Y1099949D1*
X635272Y1107224D1*
X635771Y1109728D1*
X630175Y1110272D1*
X623081Y1111976D1*
X616339Y1114768D1*
X610699Y1118192D1*
X610700Y1054481D1*
X671598Y1054451D1*
X563472Y1228781D2*
X557865Y1229733D1*
X550926Y1231987D1*
X544424Y1235300D1*
X538522Y1239590D1*
X533363Y1244749D1*
X529073Y1250651D1*
X525760Y1257153D1*
X523506Y1264092D1*
X522364Y1271300D1*
Y1278596D1*
X523506Y1285804D1*
X525760Y1292743D1*
X529073Y1299245D1*
X533363Y1305148D1*
X538522Y1310306D1*
X543583Y1314033D1*
X968700Y1071247D2*
D16*
Y1023129D1*
X922550D2*
X1014850D1*
X738680Y976672D2*
Y945287D1*
X837598Y1282682D2*
Y1236515D1*
X869985D1*
X928149Y1394886D2*
Y1290742D1*
X862297Y1342814D2*
X994001D1*
X609251Y1394886D2*
Y1342814D1*
X543399D2*
X675103D1*
X837598Y775885D2*
Y729718D1*
Y775885D2*
X869985D1*
X609251Y721658D2*
Y617514D1*
X543399Y669586D2*
X675103D1*
X928149Y721658D2*
Y617514D1*
X862297Y669586D2*
X994001D1*
D17*
X968700Y956200D3*
Y1023129D3*
D18*
X738680Y1035728D3*
Y1016043D3*
Y996357D3*
Y976672D3*
D19*
X758857Y976180D3*
X778543Y976200D3*
D18*
X798720Y976672D3*
Y996357D3*
Y1016043D3*
Y1035728D3*
D19*
X778543Y1036220D3*
X758857D3*
D34*
X837598Y1236515D3*
X817913D3*
X798228D3*
X778543D3*
X758857D3*
X739172D3*
X719487D3*
X699802D3*
D37*
X928149Y1342814D3*
X609251D3*
D34*
X699802Y775885D3*
X719487D3*
X739172D3*
X758857D3*
X778543D3*
X798228D3*
X817913D3*
X837598D3*
D37*
X609251Y669586D3*
X928149D3*
M02*
