%TF.GenerationSoftware,Novarm,DipTrace,3.3.0.1*%
%TF.CreationDate,2018-11-14T10:23:07-08:00*%
%FSLAX26Y26*%
%MOIN*%
%TF.FileFunction,Drawing,Top*%
%TF.Part,Single*%
%ADD13C,0.001378*%
%ADD33C,0.006176*%
G75*
G01*
%LPD*%
X393700Y1618700D2*
D13*
Y1700885D1*
X1143700Y1618700D2*
Y1700885D1*
X768700Y1681200D2*
X433070D1*
G36*
X393700D2*
X433070Y1689074D1*
Y1673326D1*
X393700Y1681200D1*
G37*
X768700D2*
D13*
X1104330D1*
G36*
X1143700D2*
X1104330Y1673326D1*
Y1689074D1*
X1143700Y1681200D1*
G37*
Y1618700D2*
D13*
X1188385D1*
X1143700Y393700D2*
X1188385D1*
X1168700Y1006200D2*
Y1579330D1*
G36*
Y1618700D2*
X1176574Y1579330D1*
X1160826D1*
X1168700Y1618700D1*
G37*
Y1006200D2*
D13*
Y433070D1*
G36*
Y393700D2*
X1160826Y433070D1*
X1176574D1*
X1168700Y393700D1*
G37*
X393700Y1618700D2*
D13*
X236515D1*
X506200Y1568700D2*
X236515D1*
X256200Y1618700D2*
Y1568700D1*
Y1677755D2*
Y1658070D1*
G36*
Y1618700D2*
X248326Y1658070D1*
X264074D1*
X256200Y1618700D1*
G37*
Y1509645D2*
D13*
Y1529330D1*
G36*
Y1568700D2*
X264074Y1529330D1*
X248326D1*
X256200Y1568700D1*
G37*
Y1779355D2*
D13*
Y1618700D1*
X506200Y1568700D2*
X86515D1*
X506200Y1506200D2*
X86515D1*
X106200Y1568700D2*
Y1506200D1*
Y1627755D2*
Y1608070D1*
G36*
Y1568700D2*
X98326Y1608070D1*
X114074D1*
X106200Y1568700D1*
G37*
Y1447145D2*
D13*
Y1466830D1*
G36*
Y1506200D2*
X114074Y1466830D1*
X98326D1*
X106200Y1506200D1*
G37*
Y1766556D2*
D13*
Y1568700D1*
X722641Y1733559D2*
D33*
X716893Y1731657D1*
X713047Y1725909D1*
X711145Y1716359D1*
Y1710611D1*
X713047Y1701060D1*
X716893Y1695312D1*
X722641Y1693411D1*
X726444D1*
X732192Y1695312D1*
X735995Y1701060D1*
X737940Y1710611D1*
Y1716359D1*
X735995Y1725909D1*
X732192Y1731657D1*
X726444Y1733559D1*
X722641D1*
X735995Y1725909D2*
X713047Y1701060D1*
X752193Y1697258D2*
X750291Y1695312D1*
X752193Y1693411D1*
X754138Y1695312D1*
X752193Y1697258D1*
X774139Y1693411D2*
X793284Y1733559D1*
X766490D1*
X828584D2*
X809482D1*
X807581Y1716359D1*
X809482Y1718260D1*
X815230Y1720205D1*
X820934D1*
X826682Y1718260D1*
X830529Y1714457D1*
X832430Y1708709D1*
Y1704907D1*
X830529Y1699159D1*
X826682Y1695312D1*
X820934Y1693411D1*
X815230D1*
X809482Y1695312D1*
X807581Y1697258D1*
X805636Y1701060D1*
X1213409Y1074728D2*
X1215355Y1070881D1*
X1221059Y1065133D1*
X1180911D1*
X1184758Y1050880D2*
X1182812Y1052782D1*
X1180911Y1050880D1*
X1182812Y1048935D1*
X1184758Y1050880D1*
X1211508Y1034638D2*
X1213409D1*
X1217256Y1032737D1*
X1219157Y1030835D1*
X1221059Y1026989D1*
Y1019339D1*
X1219157Y1015537D1*
X1217256Y1013635D1*
X1213409Y1011690D1*
X1209607D1*
X1205760Y1013635D1*
X1200056Y1017438D1*
X1180911Y1036583D1*
Y1009789D1*
X1211508Y995492D2*
X1213409D1*
X1217256Y993591D1*
X1219157Y991689D1*
X1221059Y987843D1*
Y980193D1*
X1219157Y976391D1*
X1217256Y974489D1*
X1213409Y972544D1*
X1209607D1*
X1205760Y974489D1*
X1200056Y978292D1*
X1180911Y997437D1*
Y970643D1*
X1221059Y935343D2*
Y954444D1*
X1203859Y956346D1*
X1205760Y954444D1*
X1207705Y948696D1*
Y942993D1*
X1205760Y937245D1*
X1201957Y933398D1*
X1196209Y931497D1*
X1192407D1*
X1186659Y933398D1*
X1182812Y937245D1*
X1180911Y942993D1*
Y948696D1*
X1182812Y954444D1*
X1184758Y956346D1*
X1188560Y958291D1*
X203841Y1678830D2*
X205743Y1673082D1*
X211491Y1669235D1*
X221041Y1667334D1*
X226789D1*
X236340Y1669235D1*
X242088Y1673082D1*
X243989Y1678830D1*
Y1682632D1*
X242088Y1688380D1*
X236340Y1692183D1*
X226789Y1694128D1*
X221041D1*
X211491Y1692183D1*
X205743Y1688380D1*
X203841Y1682632D1*
Y1678830D1*
X211491Y1692183D2*
X236340Y1669235D1*
X240142Y1708381D2*
X242088Y1706480D1*
X243989Y1708381D1*
X242088Y1710326D1*
X240142Y1708381D1*
X203841Y1734174D2*
X205743Y1728426D1*
X211491Y1724579D1*
X221041Y1722678D1*
X226789D1*
X236340Y1724579D1*
X242088Y1728426D1*
X243989Y1734174D1*
Y1737976D1*
X242088Y1743724D1*
X236340Y1747527D1*
X226789Y1749473D1*
X221041D1*
X211491Y1747527D1*
X205743Y1743724D1*
X203841Y1737976D1*
Y1734174D1*
X211491Y1747527D2*
X236340Y1724579D1*
X203841Y1784772D2*
Y1765671D1*
X221041Y1763769D1*
X219140Y1765671D1*
X217195Y1771419D1*
Y1777123D1*
X219140Y1782871D1*
X222943Y1786717D1*
X228691Y1788619D1*
X232493D1*
X238241Y1786717D1*
X242088Y1782871D1*
X243989Y1777123D1*
Y1771419D1*
X242088Y1765671D1*
X240142Y1763769D1*
X236340Y1761824D1*
X53841Y1628830D2*
X55743Y1623082D1*
X61491Y1619235D1*
X71041Y1617334D1*
X76789D1*
X86340Y1619235D1*
X92088Y1623082D1*
X93989Y1628830D1*
Y1632632D1*
X92088Y1638380D1*
X86340Y1642183D1*
X76789Y1644128D1*
X71041D1*
X61491Y1642183D1*
X55743Y1638380D1*
X53841Y1632632D1*
Y1628830D1*
X61491Y1642183D2*
X86340Y1619235D1*
X90142Y1658381D2*
X92088Y1656480D1*
X93989Y1658381D1*
X92088Y1660326D1*
X90142Y1658381D1*
X53841Y1684174D2*
X55743Y1678426D1*
X61491Y1674579D1*
X71041Y1672678D1*
X76789D1*
X86340Y1674579D1*
X92088Y1678426D1*
X93989Y1684174D1*
Y1687976D1*
X92088Y1693724D1*
X86340Y1697527D1*
X76789Y1699473D1*
X71041D1*
X61491Y1697527D1*
X55743Y1693724D1*
X53841Y1687976D1*
Y1684174D1*
X61491Y1697527D2*
X86340Y1674579D1*
X59545Y1734772D2*
X55743Y1732871D1*
X53841Y1727123D1*
Y1723320D1*
X55743Y1717572D1*
X61491Y1713725D1*
X71041Y1711824D1*
X80592D1*
X88241Y1713725D1*
X92088Y1717572D1*
X93989Y1723320D1*
Y1725221D1*
X92088Y1730925D1*
X88241Y1734772D1*
X82493Y1736673D1*
X80592D1*
X74844Y1734772D1*
X71041Y1730925D1*
X69140Y1725221D1*
Y1723320D1*
X71041Y1717572D1*
X74844Y1713725D1*
X80592Y1711824D1*
X63392Y1750970D2*
X61491D1*
X57644Y1752871D1*
X55743Y1754773D1*
X53841Y1758619D1*
Y1766269D1*
X55743Y1770071D1*
X57644Y1771972D1*
X61491Y1773918D1*
X65293D1*
X69140Y1771972D1*
X74844Y1768170D1*
X93989Y1749024D1*
Y1775819D1*
M02*
