%TF.GenerationSoftware,Novarm,DipTrace,3.3.0.1*%
%TF.CreationDate,2018-11-14T10:23:01-08:00*%
%FSLAX26Y26*%
%MOIN*%
%TF.FileFunction,Legend,Top*%
%TF.Part,Single*%
%ADD32C,0.00772*%
%ADD33C,0.006176*%
G75*
G01*
%LPD*%
X1025230Y983133D2*
D32*
X1020477Y980757D1*
X1015669Y975948D1*
X1013292Y971195D1*
Y961634D1*
X1015668Y956825D1*
X1020477Y952072D1*
X1025230Y949640D1*
X1032415Y947263D1*
X1044409D1*
X1051538Y949640D1*
X1056347Y952072D1*
X1061100Y956825D1*
X1063532Y961633D1*
Y971195D1*
X1061100Y975948D1*
X1056347Y980757D1*
X1051538Y983133D1*
X1025285Y1001004D2*
X1022909D1*
X1018100Y1003381D1*
X1015724Y1005758D1*
X1013347Y1010566D1*
Y1020128D1*
X1015724Y1024881D1*
X1018100Y1027257D1*
X1022909Y1029689D1*
X1027662D1*
X1032470Y1027257D1*
X1039600Y1022504D1*
X1063532Y998573D1*
Y1032066D1*
X838237Y1052356D2*
Y1016486D1*
X840614Y1009301D1*
X845422Y1004548D1*
X852607Y1002116D1*
X857360D1*
X864545Y1004548D1*
X869354Y1009301D1*
X871730Y1016486D1*
Y1052356D1*
X887170Y1042739D2*
X891978Y1045171D1*
X899163Y1052301D1*
Y1002116D1*
X977487Y1279128D2*
Y1243258D1*
X979864Y1236073D1*
X984672Y1231320D1*
X991857Y1228888D1*
X996610D1*
X1003795Y1231320D1*
X1008604Y1236073D1*
X1010980Y1243258D1*
Y1279128D1*
X1028851Y1267134D2*
Y1269511D1*
X1031228Y1274319D1*
X1033605Y1276696D1*
X1038413Y1279073D1*
X1047975D1*
X1052728Y1276696D1*
X1055105Y1274319D1*
X1057536Y1269511D1*
Y1264758D1*
X1055105Y1259949D1*
X1050351Y1252820D1*
X1026420Y1228888D1*
X1059913D1*
X977487Y781293D2*
Y745423D1*
X979864Y738238D1*
X984672Y733485D1*
X991857Y731053D1*
X996610D1*
X1003795Y733485D1*
X1008604Y738238D1*
X1010980Y745423D1*
Y781293D1*
X1031228Y781238D2*
X1057481D1*
X1043166Y762115D1*
X1050351D1*
X1055105Y759738D1*
X1057481Y757361D1*
X1059913Y750176D1*
Y745423D1*
X1057481Y738238D1*
X1052728Y733430D1*
X1045543Y731053D1*
X1038358D1*
X1031228Y733430D1*
X1028851Y735862D1*
X1026420Y740615D1*
X535487Y1139259D2*
D33*
X495295Y1123960D1*
X535487Y1108662D1*
Y1096310D2*
X495295Y1096311D1*
X535487Y1083959D2*
X495295D1*
Y1066715D1*
X497241Y1060967D1*
X499142Y1059066D1*
X502945Y1057164D1*
X508693D1*
X512539Y1059066D1*
X514441Y1060967D1*
X516342Y1066715D1*
X518287Y1060967D1*
X520189Y1059066D1*
X523991Y1057164D1*
X527838D1*
X531641Y1059066D1*
X533586Y1060967D1*
X535487Y1066715D1*
Y1083959D1*
X516342D2*
Y1066715D1*
Y1044813D2*
Y1027613D1*
X518287Y1021865D1*
X520189Y1019920D1*
X523991Y1018018D1*
X527838D1*
X531641Y1019920D1*
X533586Y1021865D1*
X535487Y1027613D1*
Y1044813D1*
X495295D1*
X516342Y1031416D2*
X495295Y1018018D1*
Y975026D2*
X535487Y990368D1*
X495295Y1005667D1*
X508693Y999919D2*
Y980774D1*
X535487Y949277D2*
X495295D1*
X535487Y962674D2*
Y935879D1*
Y923528D2*
X495295D1*
X535487Y899681D2*
X533586Y903527D1*
X529739Y907330D1*
X525937Y909275D1*
X520189Y911177D1*
X510594D1*
X504890Y909275D1*
X501043Y907330D1*
X497241Y903527D1*
X495295Y899681D1*
Y892031D1*
X497241Y888229D1*
X501043Y884382D1*
X504890Y882481D1*
X510594Y880579D1*
X520189D1*
X525937Y882481D1*
X529739Y884382D1*
X533586Y888229D1*
X535487Y892031D1*
Y899681D1*
Y841433D2*
X495295D1*
X535487Y868228D1*
X495295D1*
M02*
