%TF.GenerationSoftware,Novarm,DipTrace,3.3.0.1*%
%TF.CreationDate,2018-11-14T10:16:28-08:00*%
%FSLAX26Y26*%
%MOIN*%
%TF.FileFunction,Legend,Bot*%
%TF.Part,Single*%
%ADD12C,0.003*%
%ADD46C,0.015439*%
G75*
G01*
%LPD*%
X2657700Y1340700D2*
D12*
X2726700D1*
X2648826Y1337700D2*
X2736495D1*
X2640339Y1334700D2*
X2745111D1*
X2632663Y1331700D2*
X2752540D1*
X2626045Y1328700D2*
X2759115D1*
X2620379Y1325700D2*
X2765010D1*
X2615331Y1322700D2*
X2770300D1*
X2610606Y1319700D2*
X2775179D1*
X2606110Y1316700D2*
X2779835D1*
X2601861Y1313700D2*
X2663712D1*
X2723586D2*
X2784293D1*
X2597793Y1310700D2*
X2654829D1*
X2732190D2*
X2788438D1*
X2593731Y1307700D2*
X2646328D1*
X2740342D2*
X2792226D1*
X2589810Y1304700D2*
X2638558D1*
X2747967D2*
X2795951D1*
X2586226Y1301700D2*
X2631651D1*
X2754832D2*
X2799821D1*
X2582924Y1298700D2*
X2625555D1*
X2760743D2*
X2803651D1*
X2579788Y1295700D2*
X2620180D1*
X2765942D2*
X2807198D1*
X2576733Y1292700D2*
X2615352D1*
X2770741D2*
X2810473D1*
X2573712Y1289700D2*
X2610957D1*
X2775258D2*
X2813497D1*
X2570716Y1286700D2*
X2606829D1*
X2779426D2*
X2816169D1*
X2567819Y1283700D2*
X2602744D1*
X2783222D2*
X2818471D1*
X2565200Y1280700D2*
X2598815D1*
X2786949D2*
X2820709D1*
X2562918Y1277700D2*
X2595227D1*
X2750700D2*
X2780700D1*
X2790820D2*
X2823188D1*
X2560687Y1274700D2*
X2591925D1*
X2732493D2*
X2777584D1*
X2794651D2*
X2825899D1*
X2558222Y1271700D2*
X2588789D1*
X2651700D2*
X2666700D1*
X2716098D2*
X2773692D1*
X2798198D2*
X2828667D1*
X2555606Y1268700D2*
X2585733D1*
X2633513D2*
X2672700D1*
X2701493D2*
X2769271D1*
X2801484D2*
X2831232D1*
X2553115Y1265700D2*
X2582712D1*
X2615700D2*
X2678700D1*
X2687700D2*
X2764322D1*
X2804603D2*
X2833493D1*
X2550887Y1262700D2*
X2579704D1*
X2616187D2*
X2758607D1*
X2807551D2*
X2835705D1*
X2548688Y1259700D2*
X2576701D1*
X2617142D2*
X2752121D1*
X2810189D2*
X2838074D1*
X2546324Y1256700D2*
X2573712D1*
X2618683D2*
X2745106D1*
X2812478D2*
X2840412D1*
X2543987Y1253700D2*
X2570817D1*
X2620657D2*
X2737807D1*
X2814711D2*
X2842555D1*
X2541845Y1250700D2*
X2568200D1*
X2622580D2*
X2730283D1*
X2817177D2*
X2844627D1*
X2539773Y1247700D2*
X2565918D1*
X2624113D2*
X2722423D1*
X2819794D2*
X2846690D1*
X2537710Y1244700D2*
X2563699D1*
X2625206D2*
X2714143D1*
X2822285D2*
X2848580D1*
X2535820Y1241700D2*
X2561328D1*
X2625831D2*
X2705826D1*
X2824513D2*
X2850299D1*
X2534101Y1238700D2*
X2558988D1*
X2624183D2*
X2698359D1*
X2826712D2*
X2851992D1*
X2532408Y1235700D2*
X2556846D1*
X2620463D2*
X2692587D1*
X2829076D2*
X2853818D1*
X2530582Y1232700D2*
X2554773D1*
X2616305D2*
X2688471D1*
X2831413D2*
X2855766D1*
X2528634Y1229700D2*
X2552699D1*
X2612026D2*
X2685487D1*
X2833555D2*
X2857609D1*
X2526791Y1226700D2*
X2550714D1*
X2607950D2*
X2627236D1*
X2634412D2*
X2683224D1*
X2835627D2*
X2859309D1*
X2525103Y1223700D2*
X2548719D1*
X2604285D2*
X2623493D1*
X2632657D2*
X2680790D1*
X2837701D2*
X2860995D1*
X2523510Y1220700D2*
X2546690D1*
X2600947D2*
X2619704D1*
X2632518D2*
X2677124D1*
X2839686D2*
X2862808D1*
X2521974Y1217700D2*
X2544812D1*
X2597797D2*
X2616073D1*
X2632275D2*
X2672061D1*
X2841681D2*
X2864661D1*
X2520457Y1214700D2*
X2543099D1*
X2594736D2*
X2612412D1*
X2631813D2*
X2666050D1*
X2843710D2*
X2866215D1*
X2518954Y1211700D2*
X2541407D1*
X2591713D2*
X2608578D1*
X2631717D2*
X2659444D1*
X2845588D2*
X2867473D1*
X2517450Y1208700D2*
X2539581D1*
X2588704D2*
X2604862D1*
X2632177D2*
X2652697D1*
X2847290D2*
X2868727D1*
X2515952Y1205700D2*
X2537634D1*
X2585701D2*
X2601700D1*
X2632927D2*
X2646135D1*
X2848887D2*
X2870078D1*
X2514461Y1202700D2*
X2535791D1*
X2582712D2*
X2599133D1*
X2633700D2*
X2639700D1*
X2850425D2*
X2871501D1*
X2513057Y1199700D2*
X2534103D1*
X2579817D2*
X2596773D1*
X2851943D2*
X2872971D1*
X2511843Y1196700D2*
X2532510D1*
X2577200D2*
X2594242D1*
X2853446D2*
X2874456D1*
X2510775Y1193700D2*
X2530974D1*
X2574930D2*
X2591512D1*
X2854950D2*
X2875942D1*
X2509612Y1190700D2*
X2529457D1*
X2572804D2*
X2588737D1*
X2856448D2*
X2877344D1*
X2508298Y1187700D2*
X2527954D1*
X2570710D2*
X2586169D1*
X2857951D2*
X2878557D1*
X2506890Y1184700D2*
X2526450D1*
X2568718D2*
X2583919D1*
X2859449D2*
X2879625D1*
X2505437Y1181700D2*
X2524952D1*
X2566720D2*
X2581801D1*
X2860951D2*
X2880788D1*
X2504048Y1178700D2*
X2523461D1*
X2564690D2*
X2579709D1*
X2862449D2*
X2882090D1*
X2502840Y1175700D2*
X2522057D1*
X2562813D2*
X2577718D1*
X2863939D2*
X2883404D1*
X2501786Y1172700D2*
X2520843D1*
X2561110D2*
X2575720D1*
X2865343D2*
X2884580D1*
X2500717Y1169700D2*
X2519787D1*
X2559513D2*
X2573690D1*
X2866557D2*
X2885621D1*
X2499692Y1166700D2*
X2518717D1*
X2557975D2*
X2571813D1*
X2867613D2*
X2886685D1*
X2498726Y1163700D2*
X2517692D1*
X2556457D2*
X2570110D1*
X2868683D2*
X2887709D1*
X2497694Y1160700D2*
X2516714D1*
X2554954D2*
X2568513D1*
X2609700D2*
X2615700D1*
X2684700D2*
X2756700D1*
X2869708D2*
X2888674D1*
X2496684Y1157700D2*
X2515589D1*
X2553450D2*
X2566975D1*
X2609700D2*
X2624803D1*
X2683199D2*
X2756700D1*
X2870686D2*
X2889706D1*
X2495723Y1154700D2*
X2514302D1*
X2551952D2*
X2565469D1*
X2609700D2*
X2634082D1*
X2681457D2*
X2756700D1*
X2871811D2*
X2890716D1*
X2494693Y1151700D2*
X2512993D1*
X2550461D2*
X2564060D1*
X2609700D2*
X2643417D1*
X2679727D2*
X2756700D1*
X2873098D2*
X2891677D1*
X2493684Y1148700D2*
X2511819D1*
X2549057D2*
X2562844D1*
X2609700D2*
X2652450D1*
X2678161D2*
X2756700D1*
X2874407D2*
X2892707D1*
X2492723Y1145700D2*
X2510778D1*
X2547843D2*
X2561776D1*
X2609700D2*
X2661126D1*
X2676836D2*
X2756700D1*
X2875581D2*
X2893716D1*
X2491693Y1142700D2*
X2509714D1*
X2546775D2*
X2560612D1*
X2609712D2*
X2669700D1*
X2675700D2*
X2756700D1*
X2876622D2*
X2894677D1*
X2490684Y1139700D2*
X2508691D1*
X2545612D2*
X2559310D1*
X2609852D2*
X2756700D1*
X2877686D2*
X2895707D1*
X2489723Y1136700D2*
X2507726D1*
X2544310D2*
X2557996D1*
X2610204D2*
X2700164D1*
X2732700D2*
X2756700D1*
X2878709D2*
X2896716D1*
X2488705Y1133700D2*
X2506694D1*
X2543007D2*
X2556820D1*
X2612085D2*
X2697919D1*
X2732700D2*
X2756700D1*
X2879674D2*
X2897677D1*
X2487789Y1130700D2*
X2505684D1*
X2541925D2*
X2555779D1*
X2617047D2*
X2695801D1*
X2732700D2*
X2756700D1*
X2880706D2*
X2898695D1*
X2487105Y1127700D2*
X2504723D1*
X2541161D2*
X2554715D1*
X2623666D2*
X2693721D1*
X2732700D2*
X2756700D1*
X2881716D2*
X2899611D1*
X2486424Y1124700D2*
X2503705D1*
X2540445D2*
X2553691D1*
X2631474D2*
X2691824D1*
X2732700D2*
X2756700D1*
X2882677D2*
X2900295D1*
X2485570Y1121700D2*
X2502789D1*
X2539566D2*
X2552726D1*
X2639633D2*
X2690103D1*
X2732700D2*
X2756700D1*
X2883695D2*
X2900976D1*
X2484734Y1118700D2*
X2502105D1*
X2538631D2*
X2551706D1*
X2647044D2*
X2688409D1*
X2732700D2*
X2756700D1*
X2884611D2*
X2901830D1*
X2484084Y1115700D2*
X2501424D1*
X2537703D2*
X2550790D1*
X2652892D2*
X2686593D1*
X2732700D2*
X2756700D1*
X2885295D2*
X2902666D1*
X2483416Y1112700D2*
X2500570D1*
X2536686D2*
X2550105D1*
X2657700D2*
X2684750D1*
X2732700D2*
X2756700D1*
X2885976D2*
X2903316D1*
X2482567Y1109700D2*
X2499734D1*
X2535681D2*
X2549424D1*
X2656304D2*
X2683292D1*
X2732700D2*
X2756700D1*
X2886830D2*
X2903984D1*
X2481733Y1106700D2*
X2499084D1*
X2534722D2*
X2548570D1*
X2655377D2*
X2682364D1*
X2732700D2*
X2756700D1*
X2887654D2*
X2904833D1*
X2481084Y1103700D2*
X2498416D1*
X2533705D2*
X2547734D1*
X2609700D2*
X2756700D1*
X2888210D2*
X2905655D1*
X2480416Y1100700D2*
X2497567D1*
X2532801D2*
X2547084D1*
X2609700D2*
X2756700D1*
X2888602D2*
X2906211D1*
X2479567Y1097700D2*
X2496745D1*
X2532211D2*
X2546416D1*
X2609700D2*
X2756700D1*
X2889114D2*
X2906602D1*
X2478745Y1094700D2*
X2496189D1*
X2531806D2*
X2545567D1*
X2609700D2*
X2756700D1*
X2889886D2*
X2907114D1*
X2478201Y1091700D2*
X2495798D1*
X2531289D2*
X2544733D1*
X2609700D2*
X2756700D1*
X2890688D2*
X2907886D1*
X2477904Y1088700D2*
X2495286D1*
X2530515D2*
X2544084D1*
X2609700D2*
X2756700D1*
X2891324D2*
X2908676D1*
X2477668Y1085700D2*
X2494514D1*
X2529724D2*
X2543416D1*
X2609700D2*
X2756700D1*
X2891987D2*
X2909207D1*
X2477232Y1082700D2*
X2493724D1*
X2529182D2*
X2542567D1*
X2609700D2*
X2756700D1*
X2892833D2*
X2909499D1*
X2476493Y1079700D2*
X2493182D1*
X2528796D2*
X2541745D1*
X2609700D2*
X2756700D1*
X2893656D2*
X2909733D1*
X2475717Y1076700D2*
X2492796D1*
X2528285D2*
X2541201D1*
X2894199D2*
X2910168D1*
X2475191Y1073700D2*
X2492285D1*
X2527514D2*
X2540915D1*
X2894496D2*
X2910907D1*
X2474912Y1070700D2*
X2491514D1*
X2526724D2*
X2540785D1*
X2609700D2*
X2756700D1*
X2894732D2*
X2911683D1*
X2474773Y1067700D2*
X2490724D1*
X2526193D2*
X2540720D1*
X2609700D2*
X2756700D1*
X2895168D2*
X2912209D1*
X2474614Y1064700D2*
X2490193D1*
X2525901D2*
X2540594D1*
X2609700D2*
X2756700D1*
X2895907D2*
X2912488D1*
X2474212Y1061700D2*
X2489913D1*
X2525667D2*
X2540204D1*
X2609700D2*
X2756700D1*
X2896683D2*
X2912616D1*
X2473486Y1058700D2*
X2489773D1*
X2525232D2*
X2539483D1*
X2609700D2*
X2756700D1*
X2897209D2*
X2912668D1*
X2472714Y1055700D2*
X2489614D1*
X2524493D2*
X2538713D1*
X2609700D2*
X2756700D1*
X2897488D2*
X2912689D1*
X2472190Y1052700D2*
X2489212D1*
X2523717D2*
X2538190D1*
X2609700D2*
X2756700D1*
X2897616D2*
X2912696D1*
X2471912Y1049700D2*
X2488486D1*
X2523191D2*
X2537911D1*
X2609700D2*
X2756700D1*
X2897680D2*
X2912699D1*
X2471784Y1046700D2*
X2487714D1*
X2522912D2*
X2537784D1*
X2681700D2*
X2705700D1*
X2732700D2*
X2756700D1*
X2897806D2*
X2912700D1*
X2471732Y1043700D2*
X2487190D1*
X2522784D2*
X2537732D1*
X2681700D2*
X2705700D1*
X2732700D2*
X2756700D1*
X2898196D2*
X2912700D1*
X2471711Y1040700D2*
X2486912D1*
X2522732D2*
X2537700D1*
X2681700D2*
X2705700D1*
X2732700D2*
X2756700D1*
X2898917D2*
X2912700D1*
X2471704Y1037700D2*
X2486784D1*
X2522711D2*
X2537587D1*
X2681700D2*
X2705700D1*
X2732700D2*
X2756700D1*
X2899687D2*
X2912700D1*
X2471701Y1034700D2*
X2486732D1*
X2522692D2*
X2537202D1*
X2681700D2*
X2705700D1*
X2732700D2*
X2756700D1*
X2900210D2*
X2912700D1*
X2471700Y1031700D2*
X2486711D1*
X2522584D2*
X2536482D1*
X2681700D2*
X2705700D1*
X2732700D2*
X2756700D1*
X2900489D2*
X2912700D1*
X2471700Y1028700D2*
X2486692D1*
X2522201D2*
X2535713D1*
X2681700D2*
X2705700D1*
X2732700D2*
X2756700D1*
X2900616D2*
X2912700D1*
X2471700Y1025700D2*
X2486584D1*
X2521482D2*
X2535190D1*
X2681700D2*
X2705700D1*
X2732700D2*
X2756700D1*
X2900668D2*
X2912700D1*
X2471700Y1022700D2*
X2486201D1*
X2520713D2*
X2534911D1*
X2681700D2*
X2705700D1*
X2732700D2*
X2756700D1*
X2900689D2*
X2912700D1*
X2471700Y1019700D2*
X2485482D1*
X2520190D2*
X2534784D1*
X2681700D2*
X2705700D1*
X2732700D2*
X2756700D1*
X2900696D2*
X2912700D1*
X2471700Y1016700D2*
X2484713D1*
X2519911D2*
X2534732D1*
X2681700D2*
X2705700D1*
X2732700D2*
X2756700D1*
X2900699D2*
X2912700D1*
X2471700Y1013700D2*
X2484190D1*
X2519784D2*
X2534711D1*
X2609700D2*
X2756700D1*
X2900700D2*
X2912700D1*
X2471700Y1010700D2*
X2483911D1*
X2519732D2*
X2534704D1*
X2609700D2*
X2756700D1*
X2900712D2*
X2912700D1*
X2471700Y1007700D2*
X2483784D1*
X2519711D2*
X2534701D1*
X2609700D2*
X2756700D1*
X2900817D2*
X2912700D1*
X2471700Y1004700D2*
X2483732D1*
X2519704D2*
X2534700D1*
X2609700D2*
X2756700D1*
X2901199D2*
X2912700D1*
X2471700Y1001700D2*
X2483711D1*
X2519701D2*
X2534700D1*
X2609700D2*
X2756700D1*
X2901918D2*
X2912700D1*
X2471700Y998700D2*
X2483704D1*
X2519700D2*
X2534700D1*
X2609700D2*
X2756700D1*
X2902687D2*
X2912700D1*
X2471700Y995700D2*
X2483701D1*
X2519700D2*
X2534700D1*
X2609700D2*
X2756700D1*
X2903210D2*
X2912700D1*
X2471700Y992700D2*
X2483700D1*
X2519700D2*
X2534700D1*
X2609700D2*
X2756700D1*
X2903489D2*
X2912700D1*
X2471700Y989700D2*
X2483700D1*
X2519700D2*
X2534688D1*
X2609700D2*
X2756700D1*
X2903616D2*
X2912700D1*
X2471700Y986700D2*
X2483700D1*
X2519700D2*
X2534583D1*
X2903668D2*
X2912700D1*
X2471700Y983700D2*
X2483700D1*
X2519700D2*
X2534200D1*
X2903689D2*
X2912700D1*
X2471700Y980700D2*
X2483700D1*
X2519700D2*
X2533482D1*
X2732700D2*
X2756700D1*
X2903696D2*
X2912700D1*
X2471700Y977700D2*
X2483700D1*
X2519700D2*
X2532713D1*
X2732700D2*
X2756700D1*
X2903699D2*
X2912700D1*
X2471700Y974700D2*
X2483700D1*
X2519700D2*
X2532201D1*
X2732700D2*
X2756700D1*
X2903700D2*
X2912700D1*
X2471700Y971700D2*
X2483700D1*
X2519700D2*
X2532029D1*
X2732700D2*
X2756700D1*
X2903688D2*
X2912700D1*
X2471700Y968700D2*
X2483700D1*
X2519700D2*
X2532284D1*
X2732700D2*
X2756700D1*
X2903583D2*
X2912700D1*
X2471700Y965700D2*
X2483700D1*
X2519700D2*
X2532950D1*
X2732700D2*
X2756700D1*
X2903200D2*
X2912700D1*
X2471700Y962700D2*
X2483700D1*
X2519700D2*
X2533698D1*
X2732700D2*
X2756700D1*
X2902482D2*
X2912700D1*
X2471700Y959700D2*
X2483700D1*
X2519700D2*
X2534214D1*
X2732700D2*
X2756700D1*
X2901713D2*
X2912700D1*
X2471700Y956700D2*
X2483700D1*
X2519700D2*
X2534490D1*
X2732700D2*
X2756700D1*
X2901190D2*
X2912700D1*
X2471700Y953700D2*
X2483712D1*
X2519700D2*
X2534616D1*
X2609700D2*
X2756700D1*
X2900911D2*
X2912700D1*
X2471700Y950700D2*
X2483817D1*
X2519700D2*
X2534669D1*
X2609700D2*
X2756700D1*
X2900784D2*
X2912700D1*
X2471700Y947700D2*
X2484200D1*
X2519700D2*
X2534689D1*
X2609700D2*
X2756700D1*
X2900732D2*
X2912700D1*
X2471700Y944700D2*
X2484918D1*
X2519700D2*
X2534696D1*
X2609700D2*
X2756700D1*
X2900711D2*
X2912700D1*
X2471700Y941700D2*
X2485687D1*
X2519700D2*
X2534699D1*
X2609700D2*
X2756700D1*
X2900704D2*
X2912700D1*
X2471700Y938700D2*
X2486210D1*
X2519700D2*
X2534700D1*
X2609700D2*
X2756700D1*
X2900701D2*
X2912700D1*
X2471700Y935700D2*
X2486489D1*
X2519700D2*
X2534700D1*
X2609700D2*
X2756700D1*
X2900700D2*
X2912700D1*
X2471700Y932700D2*
X2486616D1*
X2519700D2*
X2534700D1*
X2609700D2*
X2756700D1*
X2900688D2*
X2912700D1*
X2471700Y929700D2*
X2486668D1*
X2519700D2*
X2534700D1*
X2609700D2*
X2756700D1*
X2900583D2*
X2912700D1*
X2471700Y926700D2*
X2486700D1*
X2519700D2*
X2534700D1*
X2732700D2*
X2756700D1*
X2900201D2*
X2912700D1*
X2471700Y923700D2*
X2486813D1*
X2519712D2*
X2534712D1*
X2732700D2*
X2756700D1*
X2899482D2*
X2912700D1*
X2471700Y920700D2*
X2487198D1*
X2519817D2*
X2534817D1*
X2732700D2*
X2756700D1*
X2898713D2*
X2912700D1*
X2471700Y917700D2*
X2487918D1*
X2520200D2*
X2535200D1*
X2732700D2*
X2756700D1*
X2898190D2*
X2912700D1*
X2471712Y914700D2*
X2488687D1*
X2520918D2*
X2535918D1*
X2732700D2*
X2756700D1*
X2897911D2*
X2912700D1*
X2471817Y911700D2*
X2489210D1*
X2521687D2*
X2536687D1*
X2732700D2*
X2756700D1*
X2897784D2*
X2912700D1*
X2472200Y908700D2*
X2489489D1*
X2522210D2*
X2537210D1*
X2732700D2*
X2756700D1*
X2897720D2*
X2912700D1*
X2472918Y905700D2*
X2489616D1*
X2522489D2*
X2537489D1*
X2732700D2*
X2756700D1*
X2897594D2*
X2912700D1*
X2473687Y902700D2*
X2489680D1*
X2522616D2*
X2537616D1*
X2732700D2*
X2756700D1*
X2897204D2*
X2912700D1*
X2474210Y899700D2*
X2489806D1*
X2522680D2*
X2537680D1*
X2732700D2*
X2756700D1*
X2896483D2*
X2912688D1*
X2474500Y896700D2*
X2490196D1*
X2522806D2*
X2537806D1*
X2895713D2*
X2912583D1*
X2474733Y893700D2*
X2490917D1*
X2523196D2*
X2538196D1*
X2895178D2*
X2912200D1*
X2475168Y890700D2*
X2491687D1*
X2523917D2*
X2538917D1*
X2609700D2*
X2693700D1*
X2720700D2*
X2756700D1*
X2894794D2*
X2911482D1*
X2475907Y887700D2*
X2492222D1*
X2524687D2*
X2539687D1*
X2609700D2*
X2694737D1*
X2720700D2*
X2756700D1*
X2894285D2*
X2910713D1*
X2476683Y884700D2*
X2492606D1*
X2525210D2*
X2540210D1*
X2609700D2*
X2695736D1*
X2720700D2*
X2756700D1*
X2893513D2*
X2910190D1*
X2477209Y881700D2*
X2493115D1*
X2525500D2*
X2540500D1*
X2609700D2*
X2696687D1*
X2720700D2*
X2756700D1*
X2892724D2*
X2909900D1*
X2477500Y878700D2*
X2493887D1*
X2525733D2*
X2540733D1*
X2609700D2*
X2697711D1*
X2720700D2*
X2756700D1*
X2892182D2*
X2909667D1*
X2477733Y875700D2*
X2494688D1*
X2526168D2*
X2541168D1*
X2609700D2*
X2698718D1*
X2720700D2*
X2756700D1*
X2891795D2*
X2909232D1*
X2478168Y872700D2*
X2495324D1*
X2526907D2*
X2541907D1*
X2609700D2*
X2699678D1*
X2720700D2*
X2756700D1*
X2891285D2*
X2908493D1*
X2478907Y869700D2*
X2495987D1*
X2527683D2*
X2542683D1*
X2609700D2*
X2700707D1*
X2720700D2*
X2756700D1*
X2890514D2*
X2907717D1*
X2479683Y866700D2*
X2496833D1*
X2528221D2*
X2543221D1*
X2609700D2*
X2633700D1*
X2676164D2*
X2701716D1*
X2732700D2*
X2756700D1*
X2889724D2*
X2907179D1*
X2480221Y863700D2*
X2497656D1*
X2528605D2*
X2543605D1*
X2609700D2*
X2633700D1*
X2676919D2*
X2702689D1*
X2732700D2*
X2756700D1*
X2889182D2*
X2906795D1*
X2480605Y860700D2*
X2498211D1*
X2529115D2*
X2544115D1*
X2609700D2*
X2633700D1*
X2677801D2*
X2703812D1*
X2732700D2*
X2756700D1*
X2888795D2*
X2906285D1*
X2481115Y857700D2*
X2498602D1*
X2529886D2*
X2544886D1*
X2609700D2*
X2633700D1*
X2678721D2*
X2705099D1*
X2732700D2*
X2756700D1*
X2888285D2*
X2905514D1*
X2481886Y854700D2*
X2499114D1*
X2530688D2*
X2545688D1*
X2609700D2*
X2633700D1*
X2679824D2*
X2706407D1*
X2732700D2*
X2756700D1*
X2887502D2*
X2904712D1*
X2482688Y851700D2*
X2499886D1*
X2531324D2*
X2546324D1*
X2609700D2*
X2633700D1*
X2681103D2*
X2707581D1*
X2732700D2*
X2756700D1*
X2886607D2*
X2904076D1*
X2483324Y848700D2*
X2500688D1*
X2531987D2*
X2546987D1*
X2609700D2*
X2633700D1*
X2682409D2*
X2708622D1*
X2732700D2*
X2756700D1*
X2885694D2*
X2903413D1*
X2483987Y845700D2*
X2501324D1*
X2532833D2*
X2547833D1*
X2609700D2*
X2633700D1*
X2683582D2*
X2709674D1*
X2732700D2*
X2756700D1*
X2884695D2*
X2902555D1*
X2484833Y842700D2*
X2501987D1*
X2533667D2*
X2548667D1*
X2609700D2*
X2633700D1*
X2684622D2*
X2710600D1*
X2732700D2*
X2756700D1*
X2883786D2*
X2901627D1*
X2485667Y839700D2*
X2502845D1*
X2534316D2*
X2549316D1*
X2609700D2*
X2633700D1*
X2685686D2*
X2711230D1*
X2732700D2*
X2756700D1*
X2883104D2*
X2900701D1*
X2486316Y836700D2*
X2503773D1*
X2534984D2*
X2549984D1*
X2609700D2*
X2633700D1*
X2686709D2*
X2711700D1*
X2732700D2*
X2756700D1*
X2882411D2*
X2899697D1*
X2486984Y833700D2*
X2504699D1*
X2535844D2*
X2550844D1*
X2609700D2*
X2648700D1*
X2687674D2*
X2756700D1*
X2881453D2*
X2898787D1*
X2487844Y830700D2*
X2505714D1*
X2536772D2*
X2551772D1*
X2609700D2*
X2648700D1*
X2688706D2*
X2756700D1*
X2880246D2*
X2898104D1*
X2488772Y827700D2*
X2506719D1*
X2537699D2*
X2552699D1*
X2609700D2*
X2648700D1*
X2689716D2*
X2756700D1*
X2878983D2*
X2897423D1*
X2489699Y824700D2*
X2507678D1*
X2538703D2*
X2553714D1*
X2609700D2*
X2648700D1*
X2690689D2*
X2756700D1*
X2877916D2*
X2896558D1*
X2490714Y821700D2*
X2508707D1*
X2539613D2*
X2554719D1*
X2609700D2*
X2648700D1*
X2691812D2*
X2756700D1*
X2877158D2*
X2895628D1*
X2491719Y818700D2*
X2509716D1*
X2540296D2*
X2555678D1*
X2609700D2*
X2648700D1*
X2693101D2*
X2756700D1*
X2876432D2*
X2894702D1*
X2492678Y815700D2*
X2510689D1*
X2540977D2*
X2556707D1*
X2609700D2*
X2648700D1*
X2694425D2*
X2756700D1*
X2875460D2*
X2893686D1*
X2493707Y812700D2*
X2511812D1*
X2541842D2*
X2557716D1*
X2609700D2*
X2648700D1*
X2695634D2*
X2756700D1*
X2874249D2*
X2892681D1*
X2494716Y809700D2*
X2513099D1*
X2542772D2*
X2558677D1*
X2609700D2*
X2648700D1*
X2696700D2*
X2756700D1*
X2872972D2*
X2891722D1*
X2495677Y806700D2*
X2514407D1*
X2543698D2*
X2559707D1*
X2871811D2*
X2890693D1*
X2496707Y803700D2*
X2515581D1*
X2544714D2*
X2560716D1*
X2870776D2*
X2889684D1*
X2497716Y800700D2*
X2516634D1*
X2545719D2*
X2561689D1*
X2869714D2*
X2888723D1*
X2498677Y797700D2*
X2517791D1*
X2546690D2*
X2562812D1*
X2868691D2*
X2887693D1*
X2499707Y794700D2*
X2519091D1*
X2547812D2*
X2564110D1*
X2867714D2*
X2886684D1*
X2500716Y791700D2*
X2520405D1*
X2549099D2*
X2565513D1*
X2741700D2*
D3*
X2866589D2*
X2885711D1*
X2501689Y788700D2*
X2521580D1*
X2550407D2*
X2566975D1*
X2742164D2*
X2744700D1*
X2865290D2*
X2884588D1*
X2502812Y785700D2*
X2522633D1*
X2551581D2*
X2568457D1*
X2742907D2*
X2745840D1*
X2863887D2*
X2883301D1*
X2504110Y782700D2*
X2523803D1*
X2552634D2*
X2569942D1*
X2743684D2*
X2747117D1*
X2862425D2*
X2881993D1*
X2505513Y779700D2*
X2525208D1*
X2553791D2*
X2571344D1*
X2744221D2*
X2748417D1*
X2860943D2*
X2880819D1*
X2506964Y776700D2*
X2526892D1*
X2555103D2*
X2572557D1*
X2744606D2*
X2749585D1*
X2859446D2*
X2879766D1*
X2508352Y773700D2*
X2528693D1*
X2556510D2*
X2573625D1*
X2745115D2*
X2750635D1*
X2857950D2*
X2878609D1*
X2509560Y770700D2*
X2530238D1*
X2557963D2*
X2574800D1*
X2745886D2*
X2751792D1*
X2807700D2*
D3*
X2856448D2*
X2877297D1*
X2510626Y767700D2*
X2531583D1*
X2559352D2*
X2576207D1*
X2746676D2*
X2753093D1*
X2768700D2*
X2771700D1*
X2800327D2*
X2807700D1*
X2854951D2*
X2875890D1*
X2511788Y764700D2*
X2533122D1*
X2560560D2*
X2577904D1*
X2747207D2*
X2754423D1*
X2767096D2*
X2770315D1*
X2793580D2*
X2804236D1*
X2853449D2*
X2874426D1*
X2513102Y761700D2*
X2534903D1*
X2561626D2*
X2579798D1*
X2747488D2*
X2755633D1*
X2765023D2*
X2769450D1*
X2787606D2*
X2800493D1*
X2851951D2*
X2872943D1*
X2514510Y758700D2*
X2536665D1*
X2562800D2*
X2581620D1*
X2747621D2*
X2756700D1*
X2762700D2*
X2768992D1*
X2782431D2*
X2796716D1*
X2850449D2*
X2871446D1*
X2515974Y755700D2*
X2538319D1*
X2564207D2*
X2583301D1*
X2732700D2*
X2738700D1*
X2747700D2*
X2768700D1*
X2777700D2*
X2793190D1*
X2848939D2*
X2869950D1*
X2517457Y752700D2*
X2539898D1*
X2565904D2*
X2584891D1*
X2735700D2*
X2789912D1*
X2847343D2*
X2868448D1*
X2518954Y749700D2*
X2541440D1*
X2567798D2*
X2586438D1*
X2738700D2*
X2786784D1*
X2845557D2*
X2866951D1*
X2520461Y746700D2*
X2543061D1*
X2569620D2*
X2588048D1*
X2741700D2*
X2783730D1*
X2843613D2*
X2865449D1*
X2522057Y743700D2*
X2544946D1*
X2571313D2*
X2589840D1*
X2726935D2*
X2780700D1*
X2841683D2*
X2863951D1*
X2523843Y740700D2*
X2547168D1*
X2572997D2*
X2591786D1*
X2712868D2*
X2786700D1*
X2839708D2*
X2862449D1*
X2525775Y737700D2*
X2549436D1*
X2574820D2*
X2593717D1*
X2699700D2*
X2792700D1*
X2837674D2*
X2860939D1*
X2527612Y734700D2*
X2551462D1*
X2576779D2*
X2595692D1*
X2720888D2*
X2785106D1*
X2835694D2*
X2859343D1*
X2529310Y731700D2*
X2553249D1*
X2578726D2*
X2597726D1*
X2741700D2*
X2777700D1*
X2833610D2*
X2857557D1*
X2530996Y728700D2*
X2554984D1*
X2580797D2*
X2599706D1*
X2740085D2*
X2782085D1*
X2831295D2*
X2855613D1*
X2532820Y725700D2*
X2556929D1*
X2583108D2*
X2601801D1*
X2737946D2*
X2785946D1*
X2828976D2*
X2853683D1*
X2534767Y722700D2*
X2559263D1*
X2585424D2*
X2604223D1*
X2735371D2*
X2789382D1*
X2826830D2*
X2851708D1*
X2536609Y719700D2*
X2561826D1*
X2587570D2*
X2606923D1*
X2732459D2*
X2738110D1*
X2747688D2*
X2768814D1*
X2777688D2*
X2792576D1*
X2824654D2*
X2849686D1*
X2538309Y716700D2*
X2564296D1*
X2589746D2*
X2609788D1*
X2729143D2*
X2736865D1*
X2747583D2*
X2756225D1*
X2762577D2*
X2769201D1*
X2783583D2*
X2795654D1*
X2822210D2*
X2847811D1*
X2540007Y713700D2*
X2566517D1*
X2592201D2*
X2612733D1*
X2725349D2*
X2734870D1*
X2747200D2*
X2755375D1*
X2765111D2*
X2769945D1*
X2789200D2*
X2798684D1*
X2819602D2*
X2846098D1*
X2541925Y710700D2*
X2568725D1*
X2594915D2*
X2615723D1*
X2721196D2*
X2732357D1*
X2746482D2*
X2754205D1*
X2767085D2*
X2770838D1*
X2794481D2*
X2801694D1*
X2817114D2*
X2844395D1*
X2544161Y707700D2*
X2571194D1*
X2597785D2*
X2618833D1*
X2716829D2*
X2729568D1*
X2745713D2*
X2752855D1*
X2768700D2*
X2771700D1*
X2799705D2*
X2804698D1*
X2814886D2*
X2842476D1*
X2546445Y704700D2*
X2573913D1*
X2600744D2*
X2622330D1*
X2712178D2*
X2726652D1*
X2745178D2*
X2751413D1*
X2805136D2*
X2807700D1*
X2812676D2*
X2840239D1*
X2548578Y701700D2*
X2576785D1*
X2603829D2*
X2626582D1*
X2706881D2*
X2723671D1*
X2744794D2*
X2749939D1*
X2810207D2*
X2837955D1*
X2550748Y698700D2*
X2579732D1*
X2607215D2*
X2631912D1*
X2700387D2*
X2720577D1*
X2744285D2*
X2748444D1*
X2807688D2*
X2835822D1*
X2553190Y695700D2*
X2582711D1*
X2611048D2*
X2638812D1*
X2692098D2*
X2717187D1*
X2743513D2*
X2746950D1*
X2804583D2*
X2833652D1*
X2555799Y692700D2*
X2585716D1*
X2615316D2*
X2647670D1*
X2681585D2*
X2713352D1*
X2742724D2*
X2745458D1*
X2801200D2*
X2831198D1*
X2558286Y689700D2*
X2588818D1*
X2620057D2*
X2657700D1*
X2669700D2*
X2709072D1*
X2742191D2*
X2744038D1*
X2797482D2*
X2828484D1*
X2560514Y686700D2*
X2592200D1*
X2625357D2*
X2704191D1*
X2741895D2*
X2742789D1*
X2793713D2*
X2825626D1*
X2562724Y683700D2*
X2595918D1*
X2631338D2*
X2698198D1*
X2741700D2*
D3*
X2790178D2*
X2822785D1*
X2565193Y680700D2*
X2599699D1*
X2638570D2*
X2690427D1*
X2786794D2*
X2820188D1*
X2567913Y677700D2*
X2603339D1*
X2647581D2*
X2680622D1*
X2783273D2*
X2817902D1*
X2570785Y674700D2*
X2607105D1*
X2657700D2*
X2669700D1*
X2779385D2*
X2815569D1*
X2573732Y671700D2*
X2611345D1*
X2775096D2*
X2812710D1*
X2576723Y668700D2*
X2616014D1*
X2770347D2*
X2809270D1*
X2579821Y665700D2*
X2620932D1*
X2765079D2*
X2805629D1*
X2583201Y662700D2*
X2626353D1*
X2759429D2*
X2802158D1*
X2586930Y659700D2*
X2632595D1*
X2753458D2*
X2798888D1*
X2590805Y656700D2*
X2639673D1*
X2746905D2*
X2795663D1*
X2594722Y653700D2*
X2647774D1*
X2739213D2*
X2792219D1*
X2598824Y650700D2*
X2657188D1*
X2730030D2*
X2788376D1*
X2603114Y647700D2*
X2667704D1*
X2719627D2*
X2784205D1*
X2607526Y644700D2*
X2779844D1*
X2612093Y641700D2*
X2775296D1*
X2616969Y638700D2*
X2770416D1*
X2622301Y635700D2*
X2764992D1*
X2628074Y632700D2*
X2758950D1*
X2634387Y629700D2*
X2752357D1*
X2641349Y626700D2*
X2745528D1*
X2648700Y623700D2*
X2738700D1*
X2657700Y1340700D2*
X2648826Y1337700D1*
X2640339Y1334700D1*
X2632663Y1331700D1*
X2626045Y1328700D1*
X2620379Y1325700D1*
X2615331Y1322700D1*
X2610606Y1319700D1*
X2606110Y1316700D1*
X2601861Y1313700D1*
X2597793Y1310700D1*
X2593731Y1307700D1*
X2589810Y1304700D1*
X2586226Y1301700D1*
X2582924Y1298700D1*
X2579788Y1295700D1*
X2576733Y1292700D1*
X2573712Y1289700D1*
X2570716Y1286700D1*
X2567819Y1283700D1*
X2565200Y1280700D1*
X2562918Y1277700D1*
X2560687Y1274700D1*
X2558222Y1271700D1*
X2555606Y1268700D1*
X2553115Y1265700D1*
X2550887Y1262700D1*
X2548688Y1259700D1*
X2546324Y1256700D1*
X2543987Y1253700D1*
X2541845Y1250700D1*
X2539773Y1247700D1*
X2537710Y1244700D1*
X2535820Y1241700D1*
X2534101Y1238700D1*
X2532408Y1235700D1*
X2530582Y1232700D1*
X2528634Y1229700D1*
X2526791Y1226700D1*
X2525103Y1223700D1*
X2523510Y1220700D1*
X2521974Y1217700D1*
X2520457Y1214700D1*
X2518954Y1211700D1*
X2517450Y1208700D1*
X2515952Y1205700D1*
X2514461Y1202700D1*
X2513057Y1199700D1*
X2511843Y1196700D1*
X2510775Y1193700D1*
X2509612Y1190700D1*
X2508298Y1187700D1*
X2506890Y1184700D1*
X2505437Y1181700D1*
X2504048Y1178700D1*
X2502840Y1175700D1*
X2501786Y1172700D1*
X2500717Y1169700D1*
X2499692Y1166700D1*
X2498726Y1163700D1*
X2497694Y1160700D1*
X2496684Y1157700D1*
X2495723Y1154700D1*
X2494693Y1151700D1*
X2493684Y1148700D1*
X2492723Y1145700D1*
X2491693Y1142700D1*
X2490684Y1139700D1*
X2489723Y1136700D1*
X2488705Y1133700D1*
X2487789Y1130700D1*
X2487105Y1127700D1*
X2486424Y1124700D1*
X2485570Y1121700D1*
X2484734Y1118700D1*
X2484084Y1115700D1*
X2483416Y1112700D1*
X2482567Y1109700D1*
X2481733Y1106700D1*
X2481084Y1103700D1*
X2480416Y1100700D1*
X2479567Y1097700D1*
X2478745Y1094700D1*
X2478201Y1091700D1*
X2477904Y1088700D1*
X2477668Y1085700D1*
X2477232Y1082700D1*
X2476493Y1079700D1*
X2475717Y1076700D1*
X2475191Y1073700D1*
X2474912Y1070700D1*
X2474773Y1067700D1*
X2474614Y1064700D1*
X2474212Y1061700D1*
X2473486Y1058700D1*
X2472714Y1055700D1*
X2472190Y1052700D1*
X2471912Y1049700D1*
X2471784Y1046700D1*
X2471732Y1043700D1*
X2471711Y1040700D1*
X2471704Y1037700D1*
X2471701Y1034700D1*
X2471700Y1031700D1*
Y1028700D1*
Y1025700D1*
Y1022700D1*
Y1019700D1*
Y1016700D1*
Y1013700D1*
Y1010700D1*
Y1007700D1*
Y1004700D1*
Y1001700D1*
Y998700D1*
Y995700D1*
Y992700D1*
Y989700D1*
Y986700D1*
Y983700D1*
Y980700D1*
Y977700D1*
Y974700D1*
Y971700D1*
Y968700D1*
Y965700D1*
Y962700D1*
Y959700D1*
Y956700D1*
Y953700D1*
Y950700D1*
Y947700D1*
Y944700D1*
Y941700D1*
Y938700D1*
Y935700D1*
Y932700D1*
Y929700D1*
Y926700D1*
Y923700D1*
Y920700D1*
Y917700D1*
X2471712Y914700D1*
X2471817Y911700D1*
X2472200Y908700D1*
X2472918Y905700D1*
X2473687Y902700D1*
X2474210Y899700D1*
X2474500Y896700D1*
X2474733Y893700D1*
X2475168Y890700D1*
X2475907Y887700D1*
X2476683Y884700D1*
X2477209Y881700D1*
X2477500Y878700D1*
X2477733Y875700D1*
X2478168Y872700D1*
X2478907Y869700D1*
X2479683Y866700D1*
X2480221Y863700D1*
X2480605Y860700D1*
X2481115Y857700D1*
X2481886Y854700D1*
X2482688Y851700D1*
X2483324Y848700D1*
X2483987Y845700D1*
X2484833Y842700D1*
X2485667Y839700D1*
X2486316Y836700D1*
X2486984Y833700D1*
X2487844Y830700D1*
X2488772Y827700D1*
X2489699Y824700D1*
X2490714Y821700D1*
X2491719Y818700D1*
X2492678Y815700D1*
X2493707Y812700D1*
X2494716Y809700D1*
X2495677Y806700D1*
X2496707Y803700D1*
X2497716Y800700D1*
X2498677Y797700D1*
X2499707Y794700D1*
X2500716Y791700D1*
X2501689Y788700D1*
X2502812Y785700D1*
X2504110Y782700D1*
X2505513Y779700D1*
X2506964Y776700D1*
X2508352Y773700D1*
X2509560Y770700D1*
X2510626Y767700D1*
X2511788Y764700D1*
X2513102Y761700D1*
X2514510Y758700D1*
X2515974Y755700D1*
X2517457Y752700D1*
X2518954Y749700D1*
X2520461Y746700D1*
X2522057Y743700D1*
X2523843Y740700D1*
X2525775Y737700D1*
X2527612Y734700D1*
X2529310Y731700D1*
X2530996Y728700D1*
X2532820Y725700D1*
X2534767Y722700D1*
X2536609Y719700D1*
X2538309Y716700D1*
X2540007Y713700D1*
X2541925Y710700D1*
X2544161Y707700D1*
X2546445Y704700D1*
X2548578Y701700D1*
X2550748Y698700D1*
X2553190Y695700D1*
X2555799Y692700D1*
X2558286Y689700D1*
X2560514Y686700D1*
X2562724Y683700D1*
X2565193Y680700D1*
X2567913Y677700D1*
X2570785Y674700D1*
X2573732Y671700D1*
X2576723Y668700D1*
X2579821Y665700D1*
X2583201Y662700D1*
X2586930Y659700D1*
X2590805Y656700D1*
X2594722Y653700D1*
X2598824Y650700D1*
X2603114Y647700D1*
X2607526Y644700D1*
X2612093Y641700D1*
X2616969Y638700D1*
X2622301Y635700D1*
X2628074Y632700D1*
X2634387Y629700D1*
X2641349Y626700D1*
X2648700Y623700D1*
X2726700Y1340700D2*
X2736495Y1337700D1*
X2745111Y1334700D1*
X2752540Y1331700D1*
X2759115Y1328700D1*
X2765010Y1325700D1*
X2770300Y1322700D1*
X2775179Y1319700D1*
X2779835Y1316700D1*
X2784293Y1313700D1*
X2788438Y1310700D1*
X2792226Y1307700D1*
X2795951Y1304700D1*
X2799821Y1301700D1*
X2803651Y1298700D1*
X2807198Y1295700D1*
X2810473Y1292700D1*
X2813497Y1289700D1*
X2816169Y1286700D1*
X2818471Y1283700D1*
X2820709Y1280700D1*
X2823188Y1277700D1*
X2825899Y1274700D1*
X2828667Y1271700D1*
X2831232Y1268700D1*
X2833493Y1265700D1*
X2835705Y1262700D1*
X2838074Y1259700D1*
X2840412Y1256700D1*
X2842555Y1253700D1*
X2844627Y1250700D1*
X2846690Y1247700D1*
X2848580Y1244700D1*
X2850299Y1241700D1*
X2851992Y1238700D1*
X2853818Y1235700D1*
X2855766Y1232700D1*
X2857609Y1229700D1*
X2859309Y1226700D1*
X2860995Y1223700D1*
X2862808Y1220700D1*
X2864661Y1217700D1*
X2866215Y1214700D1*
X2867473Y1211700D1*
X2868727Y1208700D1*
X2870078Y1205700D1*
X2871501Y1202700D1*
X2872971Y1199700D1*
X2874456Y1196700D1*
X2875942Y1193700D1*
X2877344Y1190700D1*
X2878557Y1187700D1*
X2879625Y1184700D1*
X2880788Y1181700D1*
X2882090Y1178700D1*
X2883404Y1175700D1*
X2884580Y1172700D1*
X2885621Y1169700D1*
X2886685Y1166700D1*
X2887709Y1163700D1*
X2888674Y1160700D1*
X2889706Y1157700D1*
X2890716Y1154700D1*
X2891677Y1151700D1*
X2892707Y1148700D1*
X2893716Y1145700D1*
X2894677Y1142700D1*
X2895707Y1139700D1*
X2896716Y1136700D1*
X2897677Y1133700D1*
X2898695Y1130700D1*
X2899611Y1127700D1*
X2900295Y1124700D1*
X2900976Y1121700D1*
X2901830Y1118700D1*
X2902666Y1115700D1*
X2903316Y1112700D1*
X2903984Y1109700D1*
X2904833Y1106700D1*
X2905655Y1103700D1*
X2906211Y1100700D1*
X2906602Y1097700D1*
X2907114Y1094700D1*
X2907886Y1091700D1*
X2908676Y1088700D1*
X2909207Y1085700D1*
X2909499Y1082700D1*
X2909733Y1079700D1*
X2910168Y1076700D1*
X2910907Y1073700D1*
X2911683Y1070700D1*
X2912209Y1067700D1*
X2912488Y1064700D1*
X2912616Y1061700D1*
X2912668Y1058700D1*
X2912689Y1055700D1*
X2912696Y1052700D1*
X2912699Y1049700D1*
X2912700Y1046700D1*
Y1043700D1*
Y1040700D1*
Y1037700D1*
Y1034700D1*
Y1031700D1*
Y1028700D1*
Y1025700D1*
Y1022700D1*
Y1019700D1*
Y1016700D1*
Y1013700D1*
Y1010700D1*
Y1007700D1*
Y1004700D1*
Y1001700D1*
Y998700D1*
Y995700D1*
Y992700D1*
Y989700D1*
Y986700D1*
Y983700D1*
Y980700D1*
Y977700D1*
Y974700D1*
Y971700D1*
Y968700D1*
Y965700D1*
Y962700D1*
Y959700D1*
Y956700D1*
Y953700D1*
Y950700D1*
Y947700D1*
Y944700D1*
Y941700D1*
Y938700D1*
Y935700D1*
Y932700D1*
Y929700D1*
Y926700D1*
Y923700D1*
Y920700D1*
Y917700D1*
Y914700D1*
Y911700D1*
Y908700D1*
Y905700D1*
Y902700D1*
X2912688Y899700D1*
X2912583Y896700D1*
X2912200Y893700D1*
X2911482Y890700D1*
X2910713Y887700D1*
X2910190Y884700D1*
X2909900Y881700D1*
X2909667Y878700D1*
X2909232Y875700D1*
X2908493Y872700D1*
X2907717Y869700D1*
X2907179Y866700D1*
X2906795Y863700D1*
X2906285Y860700D1*
X2905514Y857700D1*
X2904712Y854700D1*
X2904076Y851700D1*
X2903413Y848700D1*
X2902555Y845700D1*
X2901627Y842700D1*
X2900701Y839700D1*
X2899697Y836700D1*
X2898787Y833700D1*
X2898104Y830700D1*
X2897423Y827700D1*
X2896558Y824700D1*
X2895628Y821700D1*
X2894702Y818700D1*
X2893686Y815700D1*
X2892681Y812700D1*
X2891722Y809700D1*
X2890693Y806700D1*
X2889684Y803700D1*
X2888723Y800700D1*
X2887693Y797700D1*
X2886684Y794700D1*
X2885711Y791700D1*
X2884588Y788700D1*
X2883301Y785700D1*
X2881993Y782700D1*
X2880819Y779700D1*
X2879766Y776700D1*
X2878609Y773700D1*
X2877297Y770700D1*
X2875890Y767700D1*
X2874426Y764700D1*
X2872943Y761700D1*
X2871446Y758700D1*
X2869950Y755700D1*
X2868448Y752700D1*
X2866951Y749700D1*
X2865449Y746700D1*
X2863951Y743700D1*
X2862449Y740700D1*
X2860939Y737700D1*
X2859343Y734700D1*
X2857557Y731700D1*
X2855613Y728700D1*
X2853683Y725700D1*
X2851708Y722700D1*
X2849686Y719700D1*
X2847811Y716700D1*
X2846098Y713700D1*
X2844395Y710700D1*
X2842476Y707700D1*
X2840239Y704700D1*
X2837955Y701700D1*
X2835822Y698700D1*
X2833652Y695700D1*
X2831198Y692700D1*
X2828484Y689700D1*
X2825626Y686700D1*
X2822785Y683700D1*
X2820188Y680700D1*
X2817902Y677700D1*
X2815569Y674700D1*
X2812710Y671700D1*
X2809270Y668700D1*
X2805629Y665700D1*
X2802158Y662700D1*
X2798888Y659700D1*
X2795663Y656700D1*
X2792219Y653700D1*
X2788376Y650700D1*
X2784205Y647700D1*
X2779844Y644700D1*
X2775296Y641700D1*
X2770416Y638700D1*
X2764992Y635700D1*
X2758950Y632700D1*
X2752357Y629700D1*
X2745528Y626700D1*
X2738700Y623700D1*
X2672700Y1316700D2*
X2663712Y1313700D1*
X2654829Y1310700D1*
X2646328Y1307700D1*
X2638558Y1304700D1*
X2631651Y1301700D1*
X2625555Y1298700D1*
X2620180Y1295700D1*
X2615352Y1292700D1*
X2610957Y1289700D1*
X2606829Y1286700D1*
X2602744Y1283700D1*
X2598815Y1280700D1*
X2595227Y1277700D1*
X2591925Y1274700D1*
X2588789Y1271700D1*
X2585733Y1268700D1*
X2582712Y1265700D1*
X2579704Y1262700D1*
X2576701Y1259700D1*
X2573712Y1256700D1*
X2570817Y1253700D1*
X2568200Y1250700D1*
X2565918Y1247700D1*
X2563699Y1244700D1*
X2561328Y1241700D1*
X2558988Y1238700D1*
X2556846Y1235700D1*
X2554773Y1232700D1*
X2552699Y1229700D1*
X2550714Y1226700D1*
X2548719Y1223700D1*
X2546690Y1220700D1*
X2544812Y1217700D1*
X2543099Y1214700D1*
X2541407Y1211700D1*
X2539581Y1208700D1*
X2537634Y1205700D1*
X2535791Y1202700D1*
X2534103Y1199700D1*
X2532510Y1196700D1*
X2530974Y1193700D1*
X2529457Y1190700D1*
X2527954Y1187700D1*
X2526450Y1184700D1*
X2524952Y1181700D1*
X2523461Y1178700D1*
X2522057Y1175700D1*
X2520843Y1172700D1*
X2519787Y1169700D1*
X2518717Y1166700D1*
X2517692Y1163700D1*
X2516714Y1160700D1*
X2515589Y1157700D1*
X2514302Y1154700D1*
X2512993Y1151700D1*
X2511819Y1148700D1*
X2510778Y1145700D1*
X2509714Y1142700D1*
X2508691Y1139700D1*
X2507726Y1136700D1*
X2506694Y1133700D1*
X2505684Y1130700D1*
X2504723Y1127700D1*
X2503705Y1124700D1*
X2502789Y1121700D1*
X2502105Y1118700D1*
X2501424Y1115700D1*
X2500570Y1112700D1*
X2499734Y1109700D1*
X2499084Y1106700D1*
X2498416Y1103700D1*
X2497567Y1100700D1*
X2496745Y1097700D1*
X2496189Y1094700D1*
X2495798Y1091700D1*
X2495286Y1088700D1*
X2494514Y1085700D1*
X2493724Y1082700D1*
X2493182Y1079700D1*
X2492796Y1076700D1*
X2492285Y1073700D1*
X2491514Y1070700D1*
X2490724Y1067700D1*
X2490193Y1064700D1*
X2489913Y1061700D1*
X2489773Y1058700D1*
X2489614Y1055700D1*
X2489212Y1052700D1*
X2488486Y1049700D1*
X2487714Y1046700D1*
X2487190Y1043700D1*
X2486912Y1040700D1*
X2486784Y1037700D1*
X2486732Y1034700D1*
X2486711Y1031700D1*
X2486692Y1028700D1*
X2486584Y1025700D1*
X2486201Y1022700D1*
X2485482Y1019700D1*
X2484713Y1016700D1*
X2484190Y1013700D1*
X2483911Y1010700D1*
X2483784Y1007700D1*
X2483732Y1004700D1*
X2483711Y1001700D1*
X2483704Y998700D1*
X2483701Y995700D1*
X2483700Y992700D1*
Y989700D1*
Y986700D1*
Y983700D1*
Y980700D1*
Y977700D1*
Y974700D1*
Y971700D1*
Y968700D1*
Y965700D1*
Y962700D1*
Y959700D1*
Y956700D1*
X2483712Y953700D1*
X2483817Y950700D1*
X2484200Y947700D1*
X2484918Y944700D1*
X2485687Y941700D1*
X2486210Y938700D1*
X2486489Y935700D1*
X2486616Y932700D1*
X2486668Y929700D1*
X2486700Y926700D1*
X2486813Y923700D1*
X2487198Y920700D1*
X2487918Y917700D1*
X2488687Y914700D1*
X2489210Y911700D1*
X2489489Y908700D1*
X2489616Y905700D1*
X2489680Y902700D1*
X2489806Y899700D1*
X2490196Y896700D1*
X2490917Y893700D1*
X2491687Y890700D1*
X2492222Y887700D1*
X2492606Y884700D1*
X2493115Y881700D1*
X2493887Y878700D1*
X2494688Y875700D1*
X2495324Y872700D1*
X2495987Y869700D1*
X2496833Y866700D1*
X2497656Y863700D1*
X2498211Y860700D1*
X2498602Y857700D1*
X2499114Y854700D1*
X2499886Y851700D1*
X2500688Y848700D1*
X2501324Y845700D1*
X2501987Y842700D1*
X2502845Y839700D1*
X2503773Y836700D1*
X2504699Y833700D1*
X2505714Y830700D1*
X2506719Y827700D1*
X2507678Y824700D1*
X2508707Y821700D1*
X2509716Y818700D1*
X2510689Y815700D1*
X2511812Y812700D1*
X2513099Y809700D1*
X2514407Y806700D1*
X2515581Y803700D1*
X2516634Y800700D1*
X2517791Y797700D1*
X2519091Y794700D1*
X2520405Y791700D1*
X2521580Y788700D1*
X2522633Y785700D1*
X2523803Y782700D1*
X2525208Y779700D1*
X2526892Y776700D1*
X2528693Y773700D1*
X2530238Y770700D1*
X2531583Y767700D1*
X2533122Y764700D1*
X2534903Y761700D1*
X2536665Y758700D1*
X2538319Y755700D1*
X2539898Y752700D1*
X2541440Y749700D1*
X2543061Y746700D1*
X2544946Y743700D1*
X2547168Y740700D1*
X2549436Y737700D1*
X2551462Y734700D1*
X2553249Y731700D1*
X2554984Y728700D1*
X2556929Y725700D1*
X2559263Y722700D1*
X2561826Y719700D1*
X2564296Y716700D1*
X2566517Y713700D1*
X2568725Y710700D1*
X2571194Y707700D1*
X2573913Y704700D1*
X2576785Y701700D1*
X2579732Y698700D1*
X2582711Y695700D1*
X2585716Y692700D1*
X2588818Y689700D1*
X2592200Y686700D1*
X2595918Y683700D1*
X2599699Y680700D1*
X2603339Y677700D1*
X2607105Y674700D1*
X2611345Y671700D1*
X2616014Y668700D1*
X2620932Y665700D1*
X2626353Y662700D1*
X2632595Y659700D1*
X2639673Y656700D1*
X2647774Y653700D1*
X2657188Y650700D1*
X2667704Y647700D1*
X2678700Y644700D1*
X2714700Y1316700D2*
X2723586Y1313700D1*
X2732190Y1310700D1*
X2740342Y1307700D1*
X2747967Y1304700D1*
X2754832Y1301700D1*
X2760743Y1298700D1*
X2765942Y1295700D1*
X2770741Y1292700D1*
X2775258Y1289700D1*
X2779426Y1286700D1*
X2783222Y1283700D1*
X2786949Y1280700D1*
X2790820Y1277700D1*
X2794651Y1274700D1*
X2798198Y1271700D1*
X2801484Y1268700D1*
X2804603Y1265700D1*
X2807551Y1262700D1*
X2810189Y1259700D1*
X2812478Y1256700D1*
X2814711Y1253700D1*
X2817177Y1250700D1*
X2819794Y1247700D1*
X2822285Y1244700D1*
X2824513Y1241700D1*
X2826712Y1238700D1*
X2829076Y1235700D1*
X2831413Y1232700D1*
X2833555Y1229700D1*
X2835627Y1226700D1*
X2837701Y1223700D1*
X2839686Y1220700D1*
X2841681Y1217700D1*
X2843710Y1214700D1*
X2845588Y1211700D1*
X2847290Y1208700D1*
X2848887Y1205700D1*
X2850425Y1202700D1*
X2851943Y1199700D1*
X2853446Y1196700D1*
X2854950Y1193700D1*
X2856448Y1190700D1*
X2857951Y1187700D1*
X2859449Y1184700D1*
X2860951Y1181700D1*
X2862449Y1178700D1*
X2863939Y1175700D1*
X2865343Y1172700D1*
X2866557Y1169700D1*
X2867613Y1166700D1*
X2868683Y1163700D1*
X2869708Y1160700D1*
X2870686Y1157700D1*
X2871811Y1154700D1*
X2873098Y1151700D1*
X2874407Y1148700D1*
X2875581Y1145700D1*
X2876622Y1142700D1*
X2877686Y1139700D1*
X2878709Y1136700D1*
X2879674Y1133700D1*
X2880706Y1130700D1*
X2881716Y1127700D1*
X2882677Y1124700D1*
X2883695Y1121700D1*
X2884611Y1118700D1*
X2885295Y1115700D1*
X2885976Y1112700D1*
X2886830Y1109700D1*
X2887654Y1106700D1*
X2888210Y1103700D1*
X2888602Y1100700D1*
X2889114Y1097700D1*
X2889886Y1094700D1*
X2890688Y1091700D1*
X2891324Y1088700D1*
X2891987Y1085700D1*
X2892833Y1082700D1*
X2893656Y1079700D1*
X2894199Y1076700D1*
X2894496Y1073700D1*
X2894732Y1070700D1*
X2895168Y1067700D1*
X2895907Y1064700D1*
X2896683Y1061700D1*
X2897209Y1058700D1*
X2897488Y1055700D1*
X2897616Y1052700D1*
X2897680Y1049700D1*
X2897806Y1046700D1*
X2898196Y1043700D1*
X2898917Y1040700D1*
X2899687Y1037700D1*
X2900210Y1034700D1*
X2900489Y1031700D1*
X2900616Y1028700D1*
X2900668Y1025700D1*
X2900689Y1022700D1*
X2900696Y1019700D1*
X2900699Y1016700D1*
X2900700Y1013700D1*
X2900712Y1010700D1*
X2900817Y1007700D1*
X2901199Y1004700D1*
X2901918Y1001700D1*
X2902687Y998700D1*
X2903210Y995700D1*
X2903489Y992700D1*
X2903616Y989700D1*
X2903668Y986700D1*
X2903689Y983700D1*
X2903696Y980700D1*
X2903699Y977700D1*
X2903700Y974700D1*
X2903688Y971700D1*
X2903583Y968700D1*
X2903200Y965700D1*
X2902482Y962700D1*
X2901713Y959700D1*
X2901190Y956700D1*
X2900911Y953700D1*
X2900784Y950700D1*
X2900732Y947700D1*
X2900711Y944700D1*
X2900704Y941700D1*
X2900701Y938700D1*
X2900700Y935700D1*
X2900688Y932700D1*
X2900583Y929700D1*
X2900201Y926700D1*
X2899482Y923700D1*
X2898713Y920700D1*
X2898190Y917700D1*
X2897911Y914700D1*
X2897784Y911700D1*
X2897720Y908700D1*
X2897594Y905700D1*
X2897204Y902700D1*
X2896483Y899700D1*
X2895713Y896700D1*
X2895178Y893700D1*
X2894794Y890700D1*
X2894285Y887700D1*
X2893513Y884700D1*
X2892724Y881700D1*
X2892182Y878700D1*
X2891795Y875700D1*
X2891285Y872700D1*
X2890514Y869700D1*
X2889724Y866700D1*
X2889182Y863700D1*
X2888795Y860700D1*
X2888285Y857700D1*
X2887502Y854700D1*
X2886607Y851700D1*
X2885694Y848700D1*
X2884695Y845700D1*
X2883786Y842700D1*
X2883104Y839700D1*
X2882411Y836700D1*
X2881453Y833700D1*
X2880246Y830700D1*
X2878983Y827700D1*
X2877916Y824700D1*
X2877158Y821700D1*
X2876432Y818700D1*
X2875460Y815700D1*
X2874249Y812700D1*
X2872972Y809700D1*
X2871811Y806700D1*
X2870776Y803700D1*
X2869714Y800700D1*
X2868691Y797700D1*
X2867714Y794700D1*
X2866589Y791700D1*
X2865290Y788700D1*
X2863887Y785700D1*
X2862425Y782700D1*
X2860943Y779700D1*
X2859446Y776700D1*
X2857950Y773700D1*
X2856448Y770700D1*
X2854951Y767700D1*
X2853449Y764700D1*
X2851951Y761700D1*
X2850449Y758700D1*
X2848939Y755700D1*
X2847343Y752700D1*
X2845557Y749700D1*
X2843613Y746700D1*
X2841683Y743700D1*
X2839708Y740700D1*
X2837674Y737700D1*
X2835694Y734700D1*
X2833610Y731700D1*
X2831295Y728700D1*
X2828976Y725700D1*
X2826830Y722700D1*
X2824654Y719700D1*
X2822210Y716700D1*
X2819602Y713700D1*
X2817114Y710700D1*
X2814886Y707700D1*
X2812676Y704700D1*
X2810207Y701700D1*
X2807476Y698700D1*
X2804498Y695700D1*
X2801169Y692700D1*
X2797471Y689700D1*
X2793709Y686700D1*
X2790177Y683700D1*
X2786794Y680700D1*
X2783273Y677700D1*
X2779385Y674700D1*
X2775096Y671700D1*
X2770347Y668700D1*
X2765079Y665700D1*
X2759429Y662700D1*
X2753458Y659700D1*
X2746905Y656700D1*
X2739213Y653700D1*
X2730030Y650700D1*
X2719627Y647700D1*
X2708700Y644700D1*
X2750700Y1277700D2*
X2732493Y1274700D1*
X2716098Y1271700D1*
X2701493Y1268700D1*
X2687700Y1265700D1*
X2780700Y1277700D2*
X2777584Y1274700D1*
X2773692Y1271700D1*
X2769271Y1268700D1*
X2764322Y1265700D1*
X2758607Y1262700D1*
X2752121Y1259700D1*
X2745106Y1256700D1*
X2737807Y1253700D1*
X2730283Y1250700D1*
X2722423Y1247700D1*
X2714143Y1244700D1*
X2705826Y1241700D1*
X2698359Y1238700D1*
X2692587Y1235700D1*
X2688471Y1232700D1*
X2685487Y1229700D1*
X2683224Y1226700D1*
X2680790Y1223700D1*
X2677124Y1220700D1*
X2672061Y1217700D1*
X2666050Y1214700D1*
X2659444Y1211700D1*
X2652697Y1208700D1*
X2646135Y1205700D1*
X2639700Y1202700D1*
X2651700Y1271700D2*
X2633513Y1268700D1*
X2615700Y1265700D1*
X2616187Y1262700D1*
X2617142Y1259700D1*
X2618683Y1256700D1*
X2620657Y1253700D1*
X2622580Y1250700D1*
X2624113Y1247700D1*
X2625206Y1244700D1*
X2625831Y1241700D1*
X2624183Y1238700D1*
X2620463Y1235700D1*
X2616305Y1232700D1*
X2612026Y1229700D1*
X2607950Y1226700D1*
X2604285Y1223700D1*
X2600947Y1220700D1*
X2597797Y1217700D1*
X2594736Y1214700D1*
X2591713Y1211700D1*
X2588704Y1208700D1*
X2585701Y1205700D1*
X2582712Y1202700D1*
X2579817Y1199700D1*
X2577200Y1196700D1*
X2574930Y1193700D1*
X2572804Y1190700D1*
X2570710Y1187700D1*
X2568718Y1184700D1*
X2566720Y1181700D1*
X2564690Y1178700D1*
X2562813Y1175700D1*
X2561110Y1172700D1*
X2559513Y1169700D1*
X2557975Y1166700D1*
X2556457Y1163700D1*
X2554954Y1160700D1*
X2553450Y1157700D1*
X2551952Y1154700D1*
X2550461Y1151700D1*
X2549057Y1148700D1*
X2547843Y1145700D1*
X2546775Y1142700D1*
X2545612Y1139700D1*
X2544310Y1136700D1*
X2543007Y1133700D1*
X2541925Y1130700D1*
X2541161Y1127700D1*
X2540445Y1124700D1*
X2539566Y1121700D1*
X2538631Y1118700D1*
X2537703Y1115700D1*
X2536686Y1112700D1*
X2535681Y1109700D1*
X2534722Y1106700D1*
X2533705Y1103700D1*
X2532801Y1100700D1*
X2532211Y1097700D1*
X2531806Y1094700D1*
X2531289Y1091700D1*
X2530515Y1088700D1*
X2529724Y1085700D1*
X2529182Y1082700D1*
X2528796Y1079700D1*
X2528285Y1076700D1*
X2527514Y1073700D1*
X2526724Y1070700D1*
X2526193Y1067700D1*
X2525901Y1064700D1*
X2525667Y1061700D1*
X2525232Y1058700D1*
X2524493Y1055700D1*
X2523717Y1052700D1*
X2523191Y1049700D1*
X2522912Y1046700D1*
X2522784Y1043700D1*
X2522732Y1040700D1*
X2522711Y1037700D1*
X2522692Y1034700D1*
X2522584Y1031700D1*
X2522201Y1028700D1*
X2521482Y1025700D1*
X2520713Y1022700D1*
X2520190Y1019700D1*
X2519911Y1016700D1*
X2519784Y1013700D1*
X2519732Y1010700D1*
X2519711Y1007700D1*
X2519704Y1004700D1*
X2519701Y1001700D1*
X2519700Y998700D1*
Y995700D1*
Y992700D1*
Y989700D1*
Y986700D1*
Y983700D1*
Y980700D1*
Y977700D1*
Y974700D1*
Y971700D1*
Y968700D1*
Y965700D1*
Y962700D1*
Y959700D1*
Y956700D1*
Y953700D1*
Y950700D1*
Y947700D1*
Y944700D1*
Y941700D1*
Y938700D1*
Y935700D1*
Y932700D1*
Y929700D1*
Y926700D1*
X2519712Y923700D1*
X2519817Y920700D1*
X2520200Y917700D1*
X2520918Y914700D1*
X2521687Y911700D1*
X2522210Y908700D1*
X2522489Y905700D1*
X2522616Y902700D1*
X2522680Y899700D1*
X2522806Y896700D1*
X2523196Y893700D1*
X2523917Y890700D1*
X2524687Y887700D1*
X2525210Y884700D1*
X2525500Y881700D1*
X2525733Y878700D1*
X2526168Y875700D1*
X2526907Y872700D1*
X2527683Y869700D1*
X2528221Y866700D1*
X2528605Y863700D1*
X2529115Y860700D1*
X2529886Y857700D1*
X2530688Y854700D1*
X2531324Y851700D1*
X2531987Y848700D1*
X2532833Y845700D1*
X2533667Y842700D1*
X2534316Y839700D1*
X2534984Y836700D1*
X2535844Y833700D1*
X2536772Y830700D1*
X2537699Y827700D1*
X2538703Y824700D1*
X2539613Y821700D1*
X2540296Y818700D1*
X2540977Y815700D1*
X2541842Y812700D1*
X2542772Y809700D1*
X2543698Y806700D1*
X2544714Y803700D1*
X2545719Y800700D1*
X2546690Y797700D1*
X2547812Y794700D1*
X2549099Y791700D1*
X2550407Y788700D1*
X2551581Y785700D1*
X2552634Y782700D1*
X2553791Y779700D1*
X2555103Y776700D1*
X2556510Y773700D1*
X2557963Y770700D1*
X2559352Y767700D1*
X2560560Y764700D1*
X2561626Y761700D1*
X2562800Y758700D1*
X2564207Y755700D1*
X2565904Y752700D1*
X2567798Y749700D1*
X2569620Y746700D1*
X2571313Y743700D1*
X2572997Y740700D1*
X2574820Y737700D1*
X2576779Y734700D1*
X2578726Y731700D1*
X2580797Y728700D1*
X2583108Y725700D1*
X2585424Y722700D1*
X2587570Y719700D1*
X2589746Y716700D1*
X2592201Y713700D1*
X2594915Y710700D1*
X2597785Y707700D1*
X2600744Y704700D1*
X2603829Y701700D1*
X2607215Y698700D1*
X2611048Y695700D1*
X2615316Y692700D1*
X2620057Y689700D1*
X2625357Y686700D1*
X2631338Y683700D1*
X2638570Y680700D1*
X2647581Y677700D1*
X2657700Y674700D1*
X2666700Y1271700D2*
X2672700Y1268700D1*
X2678700Y1265700D1*
X2630700Y1229700D2*
X2627236Y1226700D1*
X2623493Y1223700D1*
X2619704Y1220700D1*
X2616073Y1217700D1*
X2612412Y1214700D1*
X2608578Y1211700D1*
X2604862Y1208700D1*
X2601700Y1205700D1*
X2599133Y1202700D1*
X2596773Y1199700D1*
X2594242Y1196700D1*
X2591512Y1193700D1*
X2588737Y1190700D1*
X2586169Y1187700D1*
X2583919Y1184700D1*
X2581801Y1181700D1*
X2579709Y1178700D1*
X2577718Y1175700D1*
X2575720Y1172700D1*
X2573690Y1169700D1*
X2571813Y1166700D1*
X2570110Y1163700D1*
X2568513Y1160700D1*
X2566975Y1157700D1*
X2565469Y1154700D1*
X2564060Y1151700D1*
X2562844Y1148700D1*
X2561776Y1145700D1*
X2560612Y1142700D1*
X2559310Y1139700D1*
X2557996Y1136700D1*
X2556820Y1133700D1*
X2555779Y1130700D1*
X2554715Y1127700D1*
X2553691Y1124700D1*
X2552726Y1121700D1*
X2551706Y1118700D1*
X2550790Y1115700D1*
X2550105Y1112700D1*
X2549424Y1109700D1*
X2548570Y1106700D1*
X2547734Y1103700D1*
X2547084Y1100700D1*
X2546416Y1097700D1*
X2545567Y1094700D1*
X2544733Y1091700D1*
X2544084Y1088700D1*
X2543416Y1085700D1*
X2542567Y1082700D1*
X2541745Y1079700D1*
X2541201Y1076700D1*
X2540915Y1073700D1*
X2540785Y1070700D1*
X2540720Y1067700D1*
X2540594Y1064700D1*
X2540204Y1061700D1*
X2539483Y1058700D1*
X2538713Y1055700D1*
X2538190Y1052700D1*
X2537911Y1049700D1*
X2537784Y1046700D1*
X2537732Y1043700D1*
X2537700Y1040700D1*
X2537587Y1037700D1*
X2537202Y1034700D1*
X2536482Y1031700D1*
X2535713Y1028700D1*
X2535190Y1025700D1*
X2534911Y1022700D1*
X2534784Y1019700D1*
X2534732Y1016700D1*
X2534711Y1013700D1*
X2534704Y1010700D1*
X2534701Y1007700D1*
X2534700Y1004700D1*
Y1001700D1*
Y998700D1*
Y995700D1*
Y992700D1*
X2534688Y989700D1*
X2534583Y986700D1*
X2534200Y983700D1*
X2533482Y980700D1*
X2532713Y977700D1*
X2532201Y974700D1*
X2532029Y971700D1*
X2532284Y968700D1*
X2532950Y965700D1*
X2533698Y962700D1*
X2534214Y959700D1*
X2534490Y956700D1*
X2534616Y953700D1*
X2534669Y950700D1*
X2534689Y947700D1*
X2534696Y944700D1*
X2534699Y941700D1*
X2534700Y938700D1*
Y935700D1*
Y932700D1*
Y929700D1*
Y926700D1*
X2534712Y923700D1*
X2534817Y920700D1*
X2535200Y917700D1*
X2535918Y914700D1*
X2536687Y911700D1*
X2537210Y908700D1*
X2537489Y905700D1*
X2537616Y902700D1*
X2537680Y899700D1*
X2537806Y896700D1*
X2538196Y893700D1*
X2538917Y890700D1*
X2539687Y887700D1*
X2540210Y884700D1*
X2540500Y881700D1*
X2540733Y878700D1*
X2541168Y875700D1*
X2541907Y872700D1*
X2542683Y869700D1*
X2543221Y866700D1*
X2543605Y863700D1*
X2544115Y860700D1*
X2544886Y857700D1*
X2545688Y854700D1*
X2546324Y851700D1*
X2546987Y848700D1*
X2547833Y845700D1*
X2548667Y842700D1*
X2549316Y839700D1*
X2549984Y836700D1*
X2550844Y833700D1*
X2551772Y830700D1*
X2552699Y827700D1*
X2553714Y824700D1*
X2554719Y821700D1*
X2555678Y818700D1*
X2556707Y815700D1*
X2557716Y812700D1*
X2558677Y809700D1*
X2559707Y806700D1*
X2560716Y803700D1*
X2561689Y800700D1*
X2562812Y797700D1*
X2564110Y794700D1*
X2565513Y791700D1*
X2566975Y788700D1*
X2568457Y785700D1*
X2569942Y782700D1*
X2571344Y779700D1*
X2572557Y776700D1*
X2573625Y773700D1*
X2574800Y770700D1*
X2576207Y767700D1*
X2577904Y764700D1*
X2579798Y761700D1*
X2581620Y758700D1*
X2583301Y755700D1*
X2584891Y752700D1*
X2586438Y749700D1*
X2588048Y746700D1*
X2589840Y743700D1*
X2591786Y740700D1*
X2593717Y737700D1*
X2595692Y734700D1*
X2597726Y731700D1*
X2599706Y728700D1*
X2601801Y725700D1*
X2604223Y722700D1*
X2606923Y719700D1*
X2609788Y716700D1*
X2612733Y713700D1*
X2615723Y710700D1*
X2618833Y707700D1*
X2622330Y704700D1*
X2626582Y701700D1*
X2631912Y698700D1*
X2638812Y695700D1*
X2647670Y692700D1*
X2657700Y689700D1*
X2636700Y1229700D2*
X2634412Y1226700D1*
X2632657Y1223700D1*
X2632518Y1220700D1*
X2632275Y1217700D1*
X2631813Y1214700D1*
X2631717Y1211700D1*
X2632177Y1208700D1*
X2632927Y1205700D1*
X2633700Y1202700D1*
X2609700Y1160700D2*
Y1157700D1*
Y1154700D1*
Y1151700D1*
Y1148700D1*
Y1145700D1*
X2609712Y1142700D1*
X2609852Y1139700D1*
X2610204Y1136700D1*
X2612085Y1133700D1*
X2617047Y1130700D1*
X2623666Y1127700D1*
X2631474Y1124700D1*
X2639633Y1121700D1*
X2647044Y1118700D1*
X2652892Y1115700D1*
X2657700Y1112700D1*
X2656304Y1109700D1*
X2655377Y1106700D1*
X2654700Y1103700D1*
X2615700Y1160700D2*
X2624803Y1157700D1*
X2634082Y1154700D1*
X2643417Y1151700D1*
X2652450Y1148700D1*
X2661126Y1145700D1*
X2669700Y1142700D1*
X2684700Y1160700D2*
X2683199Y1157700D1*
X2681457Y1154700D1*
X2679727Y1151700D1*
X2678161Y1148700D1*
X2676836Y1145700D1*
X2675700Y1142700D1*
X2756700Y1160700D2*
Y1157700D1*
Y1154700D1*
Y1151700D1*
Y1148700D1*
Y1145700D1*
Y1142700D1*
Y1139700D1*
Y1136700D1*
Y1133700D1*
Y1130700D1*
Y1127700D1*
Y1124700D1*
Y1121700D1*
Y1118700D1*
Y1115700D1*
Y1112700D1*
Y1109700D1*
Y1106700D1*
Y1103700D1*
Y1100700D1*
Y1097700D1*
Y1094700D1*
Y1091700D1*
Y1088700D1*
Y1085700D1*
Y1082700D1*
Y1079700D1*
X2702700Y1139700D2*
X2700164Y1136700D1*
X2697919Y1133700D1*
X2695801Y1130700D1*
X2693721Y1127700D1*
X2691824Y1124700D1*
X2690103Y1121700D1*
X2688409Y1118700D1*
X2686593Y1115700D1*
X2684750Y1112700D1*
X2683292Y1109700D1*
X2682364Y1106700D1*
X2681700Y1103700D1*
X2732700Y1139700D2*
Y1136700D1*
Y1133700D1*
Y1130700D1*
Y1127700D1*
Y1124700D1*
Y1121700D1*
Y1118700D1*
Y1115700D1*
Y1112700D1*
Y1109700D1*
Y1106700D1*
Y1103700D1*
X2609700D2*
Y1100700D1*
Y1097700D1*
Y1094700D1*
Y1091700D1*
Y1088700D1*
Y1085700D1*
Y1082700D1*
Y1079700D1*
Y1070700D2*
Y1067700D1*
Y1064700D1*
Y1061700D1*
Y1058700D1*
Y1055700D1*
Y1052700D1*
Y1049700D1*
X2756700Y1070700D2*
Y1067700D1*
Y1064700D1*
Y1061700D1*
Y1058700D1*
Y1055700D1*
Y1052700D1*
Y1049700D1*
Y1046700D1*
Y1043700D1*
Y1040700D1*
Y1037700D1*
Y1034700D1*
Y1031700D1*
Y1028700D1*
Y1025700D1*
Y1022700D1*
Y1019700D1*
Y1016700D1*
Y1013700D1*
Y1010700D1*
Y1007700D1*
Y1004700D1*
Y1001700D1*
Y998700D1*
Y995700D1*
Y992700D1*
Y989700D1*
X2681700Y1049700D2*
Y1046700D1*
Y1043700D1*
Y1040700D1*
Y1037700D1*
Y1034700D1*
Y1031700D1*
Y1028700D1*
Y1025700D1*
Y1022700D1*
Y1019700D1*
Y1016700D1*
Y1013700D1*
X2705700Y1049700D2*
Y1046700D1*
Y1043700D1*
Y1040700D1*
Y1037700D1*
Y1034700D1*
Y1031700D1*
Y1028700D1*
Y1025700D1*
Y1022700D1*
Y1019700D1*
Y1016700D1*
X2732700Y1049700D2*
Y1046700D1*
Y1043700D1*
Y1040700D1*
Y1037700D1*
Y1034700D1*
Y1031700D1*
Y1028700D1*
Y1025700D1*
Y1022700D1*
Y1019700D1*
Y1016700D1*
X2609700Y1013700D2*
Y1010700D1*
Y1007700D1*
Y1004700D1*
Y1001700D1*
Y998700D1*
Y995700D1*
Y992700D1*
Y989700D1*
X2732700Y980700D2*
Y977700D1*
Y974700D1*
Y971700D1*
Y968700D1*
Y965700D1*
Y962700D1*
Y959700D1*
Y956700D1*
Y953700D1*
X2756700Y980700D2*
Y977700D1*
Y974700D1*
Y971700D1*
Y968700D1*
Y965700D1*
Y962700D1*
Y959700D1*
Y956700D1*
Y953700D1*
Y950700D1*
Y947700D1*
Y944700D1*
Y941700D1*
Y938700D1*
Y935700D1*
Y932700D1*
Y929700D1*
Y926700D1*
Y923700D1*
Y920700D1*
Y917700D1*
Y914700D1*
Y911700D1*
Y908700D1*
Y905700D1*
Y902700D1*
Y899700D1*
X2609700Y953700D2*
Y950700D1*
Y947700D1*
Y944700D1*
Y941700D1*
Y938700D1*
Y935700D1*
Y932700D1*
Y929700D1*
X2732700D2*
Y926700D1*
Y923700D1*
Y920700D1*
Y917700D1*
Y914700D1*
Y911700D1*
Y908700D1*
Y905700D1*
Y902700D1*
Y899700D1*
X2609700Y890700D2*
Y887700D1*
Y884700D1*
Y881700D1*
Y878700D1*
Y875700D1*
Y872700D1*
Y869700D1*
Y866700D1*
Y863700D1*
Y860700D1*
Y857700D1*
Y854700D1*
Y851700D1*
Y848700D1*
Y845700D1*
Y842700D1*
Y839700D1*
Y836700D1*
Y833700D1*
Y830700D1*
Y827700D1*
Y824700D1*
Y821700D1*
Y818700D1*
Y815700D1*
Y812700D1*
Y809700D1*
X2693700Y890700D2*
X2694737Y887700D1*
X2695736Y884700D1*
X2696687Y881700D1*
X2697711Y878700D1*
X2698718Y875700D1*
X2699678Y872700D1*
X2700707Y869700D1*
X2701716Y866700D1*
X2702689Y863700D1*
X2703812Y860700D1*
X2705099Y857700D1*
X2706407Y854700D1*
X2707581Y851700D1*
X2708622Y848700D1*
X2709674Y845700D1*
X2710600Y842700D1*
X2711230Y839700D1*
X2711700Y836700D1*
X2720700Y890700D2*
Y887700D1*
Y884700D1*
Y881700D1*
Y878700D1*
Y875700D1*
Y872700D1*
Y869700D1*
Y866700D1*
X2732700D1*
Y863700D1*
Y860700D1*
Y857700D1*
Y854700D1*
Y851700D1*
Y848700D1*
Y845700D1*
Y842700D1*
Y839700D1*
Y836700D1*
X2756700Y890700D2*
Y887700D1*
Y884700D1*
Y881700D1*
Y878700D1*
Y875700D1*
Y872700D1*
Y869700D1*
Y866700D1*
Y863700D1*
Y860700D1*
Y857700D1*
Y854700D1*
Y851700D1*
Y848700D1*
Y845700D1*
Y842700D1*
Y839700D1*
Y836700D1*
Y833700D1*
Y830700D1*
Y827700D1*
Y824700D1*
Y821700D1*
Y818700D1*
Y815700D1*
Y812700D1*
Y809700D1*
X2633700Y869700D2*
Y866700D1*
Y863700D1*
Y860700D1*
Y857700D1*
Y854700D1*
Y851700D1*
Y848700D1*
Y845700D1*
Y842700D1*
Y839700D1*
Y836700D1*
Y833700D1*
X2648700D1*
Y830700D1*
Y827700D1*
Y824700D1*
Y821700D1*
Y818700D1*
Y815700D1*
Y812700D1*
Y809700D1*
X2675700Y869700D2*
X2676164Y866700D1*
X2676919Y863700D1*
X2677801Y860700D1*
X2678721Y857700D1*
X2679824Y854700D1*
X2681103Y851700D1*
X2682409Y848700D1*
X2683582Y845700D1*
X2684622Y842700D1*
X2685686Y839700D1*
X2686709Y836700D1*
X2687674Y833700D1*
X2688706Y830700D1*
X2689716Y827700D1*
X2690689Y824700D1*
X2691812Y821700D1*
X2693101Y818700D1*
X2694425Y815700D1*
X2695634Y812700D1*
X2696700Y809700D1*
X2741700Y791700D2*
X2742164Y788700D1*
X2742907Y785700D1*
X2743684Y782700D1*
X2744221Y779700D1*
X2744606Y776700D1*
X2745115Y773700D1*
X2745886Y770700D1*
X2746676Y767700D1*
X2747207Y764700D1*
X2747488Y761700D1*
X2747621Y758700D1*
X2747700Y755700D1*
X2744700Y788700D2*
X2745840Y785700D1*
X2747117Y782700D1*
X2748417Y779700D1*
X2749585Y776700D1*
X2750635Y773700D1*
X2751792Y770700D1*
X2753093Y767700D1*
X2754423Y764700D1*
X2755633Y761700D1*
X2756700Y758700D1*
X2807700Y770700D2*
X2800327Y767700D1*
X2793580Y764700D1*
X2787606Y761700D1*
X2782431Y758700D1*
X2777700Y755700D1*
X2768700Y767700D2*
X2767096Y764700D1*
X2765023Y761700D1*
X2762700Y758700D1*
X2771700Y767700D2*
X2770315Y764700D1*
X2769450Y761700D1*
X2768992Y758700D1*
X2768700Y755700D1*
X2807700Y767700D2*
X2804236Y764700D1*
X2800493Y761700D1*
X2796716Y758700D1*
X2793190Y755700D1*
X2789912Y752700D1*
X2786784Y749700D1*
X2783730Y746700D1*
X2780700Y743700D1*
X2786700Y740700D1*
X2792700Y737700D1*
X2785106Y734700D1*
X2777700Y731700D1*
X2782085Y728700D1*
X2785946Y725700D1*
X2789382Y722700D1*
X2792576Y719700D1*
X2795654Y716700D1*
X2798684Y713700D1*
X2801694Y710700D1*
X2804698Y707700D1*
X2807700Y704700D1*
X2732700Y755700D2*
X2735700Y752700D1*
X2738700Y749700D1*
X2741700Y746700D1*
X2726935Y743700D1*
X2712868Y740700D1*
X2699700Y737700D1*
X2720888Y734700D1*
X2741700Y731700D1*
X2740085Y728700D1*
X2737946Y725700D1*
X2735371Y722700D1*
X2732459Y719700D1*
X2729143Y716700D1*
X2725349Y713700D1*
X2721196Y710700D1*
X2716829Y707700D1*
X2712178Y704700D1*
X2706881Y701700D1*
X2700387Y698700D1*
X2692098Y695700D1*
X2681585Y692700D1*
X2669700Y689700D1*
X2738700Y755700D2*
Y722700D2*
X2738110Y719700D1*
X2736865Y716700D1*
X2734870Y713700D1*
X2732357Y710700D1*
X2729568Y707700D1*
X2726652Y704700D1*
X2723671Y701700D1*
X2720577Y698700D1*
X2717187Y695700D1*
X2713352Y692700D1*
X2709072Y689700D1*
X2704191Y686700D1*
X2698198Y683700D1*
X2690427Y680700D1*
X2680622Y677700D1*
X2669700Y674700D1*
X2747700Y722700D2*
X2747688Y719700D1*
X2747583Y716700D1*
X2747200Y713700D1*
X2746482Y710700D1*
X2745713Y707700D1*
X2745178Y704700D1*
X2744794Y701700D1*
X2744285Y698700D1*
X2743513Y695700D1*
X2742724Y692700D1*
X2742191Y689700D1*
X2741895Y686700D1*
X2741700Y683700D1*
X2768700Y722700D2*
X2768814Y719700D1*
X2769201Y716700D1*
X2769945Y713700D1*
X2770838Y710700D1*
X2771700Y707700D1*
Y722700D2*
X2777688Y719700D1*
X2783583Y716700D1*
X2789200Y713700D1*
X2794481Y710700D1*
X2799705Y707700D1*
X2805136Y704700D1*
X2810700Y701700D1*
X2807688Y698700D1*
X2804583Y695700D1*
X2801200Y692700D1*
X2797482Y689700D1*
X2793713Y686700D1*
X2790178Y683700D1*
X2786794Y680700D1*
X2783273Y677700D1*
X2779385Y674700D1*
X2775096Y671700D1*
X2770347Y668700D1*
X2765079Y665700D1*
X2759429Y662700D1*
X2753458Y659700D1*
X2746905Y656700D1*
X2739213Y653700D1*
X2730030Y650700D1*
X2719627Y647700D1*
X2708700Y644700D1*
X2756700Y719700D2*
X2756225Y716700D1*
X2755375Y713700D1*
X2754205Y710700D1*
X2752855Y707700D1*
X2751413Y704700D1*
X2749939Y701700D1*
X2748444Y698700D1*
X2746950Y695700D1*
X2745458Y692700D1*
X2744038Y689700D1*
X2742789Y686700D1*
X2741700Y683700D1*
X2759700Y719700D2*
X2762577Y716700D1*
X2765111Y713700D1*
X2767085Y710700D1*
X2768700Y707700D1*
X1922060Y1462006D2*
D46*
X1931566Y1457253D1*
X1941183Y1447636D1*
X1945936Y1438129D1*
Y1419006D1*
X1941183Y1409389D1*
X1931566Y1399883D1*
X1922060Y1395019D1*
X1907690Y1390266D1*
X1883703D1*
X1869443Y1395019D1*
X1859826Y1399883D1*
X1850320Y1409389D1*
X1845456Y1419006D1*
Y1438129D1*
X1850320Y1447636D1*
X1859826Y1457253D1*
X1869443Y1462006D1*
X1912443Y1550254D2*
X1845456D1*
X1898073D2*
X1907690Y1540748D1*
X1912443Y1531131D1*
Y1516871D1*
X1907690Y1507254D1*
X1898073Y1497748D1*
X1883703Y1492884D1*
X1874196D1*
X1859826Y1497748D1*
X1850320Y1507254D1*
X1845456Y1516871D1*
Y1531131D1*
X1850320Y1540748D1*
X1859826Y1550254D1*
X1945936Y1581132D2*
X1845456D1*
X1931566Y1678998D2*
X1941183Y1669491D1*
X1945936Y1655121D1*
Y1635998D1*
X1941183Y1621628D1*
X1931566Y1612011D1*
X1922060D1*
X1912443Y1616875D1*
X1907690Y1621628D1*
X1902936Y1631134D1*
X1893320Y1659874D1*
X1888566Y1669491D1*
X1883703Y1674244D1*
X1874196Y1678998D1*
X1859826D1*
X1850320Y1669491D1*
X1845456Y1655121D1*
Y1635998D1*
X1850320Y1621628D1*
X1859826Y1612011D1*
X1945936Y1743369D2*
X1845456D1*
X1945936Y1709876D2*
Y1776863D1*
X1845456Y1884345D2*
X1945936Y1845988D1*
X1845456Y1807741D1*
X1878949Y1822111D2*
Y1869975D1*
X1898073Y1915223D2*
Y1958223D1*
X1902936Y1972593D1*
X1907690Y1977457D1*
X1917196Y1982210D1*
X1926813D1*
X1936319Y1977457D1*
X1941183Y1972593D1*
X1945936Y1958223D1*
Y1915223D1*
X1845456D1*
X1898073Y1948717D2*
X1845456Y1982210D1*
X1763885Y1470179D2*
X1773392Y1465426D1*
X1783008Y1455809D1*
X1787762Y1446303D1*
Y1427180D1*
X1783008Y1417563D1*
X1773392Y1408056D1*
X1763885Y1403193D1*
X1749515Y1398440D1*
X1725528D1*
X1711269Y1403193D1*
X1701652Y1408056D1*
X1692145Y1417563D1*
X1687282Y1427180D1*
Y1446303D1*
X1692145Y1455809D1*
X1701652Y1465426D1*
X1711269Y1470179D1*
X1725528D1*
Y1446303D1*
X1754268Y1501058D2*
X1687282D1*
X1725528D2*
X1739898Y1505922D1*
X1749515Y1515428D1*
X1754268Y1525045D1*
Y1539415D1*
Y1594170D2*
X1749515Y1584663D1*
X1739898Y1575047D1*
X1725528Y1570293D1*
X1716022D1*
X1701652Y1575047D1*
X1692145Y1584663D1*
X1687282Y1594170D1*
Y1608540D1*
X1692145Y1618157D1*
X1701652Y1627663D1*
X1716022Y1632527D1*
X1725528D1*
X1739898Y1627663D1*
X1749515Y1618157D1*
X1754268Y1608540D1*
Y1594170D1*
Y1663405D2*
X1706405D1*
X1692145Y1668159D1*
X1687282Y1677775D1*
Y1692146D1*
X1692145Y1701652D1*
X1706405Y1716022D1*
X1754268D2*
X1687282D1*
X1754268Y1746900D2*
X1687282D1*
X1735145D2*
X1749515Y1761271D1*
X1754268Y1770887D1*
Y1785147D1*
X1749515Y1794764D1*
X1735145Y1799517D1*
X1687282D1*
X1787762Y1887765D2*
X1687282D1*
X1739898D2*
X1749515Y1878259D1*
X1754268Y1868642D1*
Y1854272D1*
X1749515Y1844766D1*
X1739898Y1835149D1*
X1725528Y1830396D1*
X1716022D1*
X1701652Y1835149D1*
X1692145Y1844766D1*
X1687282Y1854272D1*
Y1868642D1*
X1692145Y1878259D1*
X1701652Y1887765D1*
X1735145Y2015846D2*
Y2058956D1*
X1739898Y2073216D1*
X1744762Y2078079D1*
X1754268Y2082832D1*
X1768638D1*
X1778145Y2078079D1*
X1783008Y2073216D1*
X1787762Y2058956D1*
Y2015846D1*
X1687282D1*
X1754268Y2113711D2*
X1687282D1*
X1725528D2*
X1739898Y2118575D1*
X1749515Y2128081D1*
X1754268Y2137698D1*
Y2152068D1*
Y2206823D2*
X1749515Y2197317D1*
X1739898Y2187700D1*
X1725528Y2182946D1*
X1716022D1*
X1701652Y2187700D1*
X1692145Y2197317D1*
X1687282Y2206823D1*
Y2221193D1*
X1692145Y2230810D1*
X1701652Y2240316D1*
X1716022Y2245180D1*
X1725528D1*
X1739898Y2240316D1*
X1749515Y2230810D1*
X1754268Y2221193D1*
Y2206823D1*
Y2276058D2*
X1653788D1*
X1739898D2*
X1749404Y2285675D1*
X1754268Y2295182D1*
Y2309552D1*
X1749405Y2319169D1*
X1739898Y2328675D1*
X1725528Y2333539D1*
X1715911D1*
X1701652Y2328675D1*
X1692035Y2319169D1*
X1687282Y2309552D1*
Y2295182D1*
X1692035Y2285675D1*
X1701652Y2276058D1*
X1696898Y2369170D2*
X1692035Y2364417D1*
X1687282Y2369170D1*
X1692035Y2374034D1*
X1696898Y2369170D1*
X1635661Y1400541D2*
X1535181D1*
Y1434034D1*
X1540044Y1448404D1*
X1549551Y1458021D1*
X1559168Y1462774D1*
X1573427Y1467527D1*
X1597414D1*
X1611784Y1462774D1*
X1621290Y1458021D1*
X1630907Y1448404D1*
X1635661Y1434034D1*
Y1400541D1*
X1535181Y1575009D2*
X1635661Y1536652D1*
X1535181Y1498406D1*
X1568674Y1512776D2*
Y1560639D1*
X1635661Y1634628D2*
X1631018Y1625122D1*
X1621401Y1615505D1*
X1611784Y1610752D1*
X1597414Y1605888D1*
X1573538D1*
X1559168Y1610752D1*
X1549661Y1615505D1*
X1540044Y1625122D1*
X1535291Y1634628D1*
Y1653751D1*
X1540044Y1663368D1*
X1549661Y1672875D1*
X1559168Y1677628D1*
X1573538Y1682491D1*
X1597414D1*
X1611784Y1677628D1*
X1621401Y1672875D1*
X1631018Y1663368D1*
X1635661Y1653751D1*
Y1634628D1*
X1554414Y1648998D2*
X1525674Y1677628D1*
X1535181Y1713370D2*
X1635550Y1780357D1*
X1611784Y1882975D2*
X1621290Y1878222D1*
X1630907Y1868605D1*
X1635661Y1859099D1*
Y1839975D1*
X1630907Y1830358D1*
X1621290Y1820852D1*
X1611784Y1815988D1*
X1597414Y1811235D1*
X1573427D1*
X1559168Y1815988D1*
X1549551Y1820852D1*
X1540044Y1830358D1*
X1535181Y1839975D1*
Y1859099D1*
X1540044Y1868605D1*
X1549551Y1878222D1*
X1559168Y1882975D1*
X1602167Y1937730D2*
X1597414Y1928224D1*
X1587797Y1918607D1*
X1573427Y1913854D1*
X1563921D1*
X1549551Y1918607D1*
X1540044Y1928224D1*
X1535181Y1937730D1*
Y1952100D1*
X1540044Y1961717D1*
X1549551Y1971223D1*
X1563921Y1976087D1*
X1573427D1*
X1587797Y1971223D1*
X1597414Y1961717D1*
X1602167Y1952100D1*
Y1937730D1*
Y2006965D2*
X1535181D1*
X1583044D2*
X1597414Y2021336D1*
X1602167Y2030952D1*
Y2045212D1*
X1597414Y2054829D1*
X1583044Y2059582D1*
X1535181D1*
X1635661Y2104831D2*
X1554304D1*
X1540044Y2109584D1*
X1535181Y2119201D1*
Y2128707D1*
X1602167Y2090461D2*
Y2123954D1*
Y2159586D2*
X1535181D1*
X1573427D2*
X1587797Y2164449D1*
X1597414Y2173956D1*
X1602167Y2183573D1*
Y2197943D1*
Y2252697D2*
X1597414Y2243191D1*
X1587797Y2233574D1*
X1573427Y2228821D1*
X1563921D1*
X1549551Y2233574D1*
X1540044Y2243191D1*
X1535181Y2252698D1*
X1535180Y2267068D1*
X1540044Y2276684D1*
X1549551Y2286191D1*
X1563921Y2291055D1*
X1573427D1*
X1587797Y2286191D1*
X1597414Y2276684D1*
X1602167Y2267068D1*
Y2252697D1*
X1635661Y2321933D2*
X1535181D1*
X1472588Y1405119D2*
X1405602Y1433859D1*
X1472588Y1462489D1*
X1486848Y1493367D2*
X1491712Y1502984D1*
X1505971Y1517354D1*
X1405602D1*
M02*
