%TF.GenerationSoftware,Novarm,DipTrace,3.3.0.1*%
%TF.CreationDate,2018-11-14T10:16:27-08:00*%
%FSLAX26Y26*%
%MOIN*%
%TF.FileFunction,Copper,L2,Bot*%
%TF.Part,Single*%
%TA.AperFunction,Conductor*%
%ADD13C,0.013*%
%TA.AperFunction,CopperBalancing*%
%ADD15C,0.025*%
%TA.AperFunction,ComponentPad*%
%ADD16O,0.11811X0.255906*%
%ADD17C,0.059055*%
%ADD18R,0.059055X0.059055*%
%ADD19C,0.07*%
%TA.AperFunction,ViaPad*%
%ADD22C,0.04*%
%TA.AperFunction,CopperBalancing*%
%ADD47C,0.013*%
G75*
G01*
%LPD*%
X2193700Y2018700D2*
D13*
X2293700D1*
X2468700Y2193700D1*
X2043700Y718700D2*
X2118700D1*
X2268700Y568700D1*
X2043700Y1618700D2*
X2218700D1*
X2043700Y1543700D2*
X2218700D1*
D22*
X2043700Y1618700D3*
X2218700D3*
X2043700Y1543700D3*
X2218700D3*
X434718Y2580331D2*
D15*
X3427699D1*
X434718Y2555462D2*
X3427699D1*
X434718Y2530594D2*
X3427699D1*
X434718Y2505725D2*
X1149161D1*
X1352241D2*
X1464151D1*
X2453239D2*
X2524134D1*
X3313239D2*
X3427699D1*
X434718Y2480856D2*
X1136493D1*
X1352241D2*
X1451520D1*
X2465906D2*
X2511503D1*
X3325907D2*
X3427699D1*
X434718Y2455987D2*
X1136637D1*
X1352241D2*
X1451628D1*
X2465763D2*
X2511646D1*
X3325763D2*
X3427699D1*
X434718Y2431119D2*
X567406D1*
X970002D2*
X1149662D1*
X1352241D2*
X1464654D1*
X2452737D2*
X2524637D1*
X3312737D2*
X3427699D1*
X434718Y2406250D2*
X555994D1*
X981414D2*
X3427699D1*
X434718Y2381381D2*
X555959D1*
X981449D2*
X3427699D1*
X434718Y2356512D2*
X567226D1*
X970182D2*
X3117695D1*
X3219690D2*
X3427699D1*
X434718Y2331644D2*
X3106069D1*
X3231315D2*
X3427699D1*
X434718Y2306775D2*
X3105854D1*
X3231532D2*
X3427699D1*
X434718Y2281906D2*
X3116905D1*
X3220480D2*
X3427699D1*
X434718Y2257037D2*
X3118125D1*
X3219294D2*
X3427699D1*
X434718Y2232169D2*
X2425453D1*
X2511945D2*
X2525462D1*
X2611919D2*
X2625472D1*
X2711928D2*
X2725481D1*
X2811938D2*
X3106176D1*
X3231208D2*
X3427699D1*
X434718Y2207300D2*
X643336D1*
X744075D2*
X2411852D1*
X2825537D2*
X3105781D1*
X3231640D2*
X3427699D1*
X434718Y2182431D2*
X631243D1*
X756133D2*
X2408264D1*
X2826077D2*
X3116546D1*
X3220873D2*
X3427699D1*
X434718Y2157562D2*
X630705D1*
X756671D2*
X1050838D1*
X1136541D2*
X2150831D1*
X2236570D2*
X2383397D1*
X2814019D2*
X3118520D1*
X3218864D2*
X3427699D1*
X434718Y2132693D2*
X641327D1*
X746049D2*
X1036951D1*
X1150464D2*
X2136944D1*
X2250457D2*
X2358529D1*
X2456864D2*
X3106319D1*
X3231100D2*
X3427699D1*
X434718Y2107825D2*
X643767D1*
X743645D2*
X1036233D1*
X1151146D2*
X2136226D1*
X2251175D2*
X2333661D1*
X2431995D2*
X3105674D1*
X3231747D2*
X3427699D1*
X434718Y2082956D2*
X631388D1*
X756025D2*
X1048039D1*
X1139340D2*
X2148067D1*
X2239334D2*
X2308793D1*
X2407128D2*
X3116151D1*
X3221233D2*
X3427699D1*
X434718Y2058087D2*
X630633D1*
X756779D2*
X1051339D1*
X1136039D2*
X2151369D1*
X2236032D2*
X2283926D1*
X2382260D2*
X3155804D1*
X3181616D2*
X3427699D1*
X434718Y2033218D2*
X640968D1*
X746444D2*
X1037094D1*
X1150321D2*
X2137087D1*
X2357393D2*
X3427699D1*
X434718Y2008350D2*
X644197D1*
X743214D2*
X1036125D1*
X1151254D2*
X2136154D1*
X2332525D2*
X3119201D1*
X3218218D2*
X3427699D1*
X434718Y1983481D2*
X631495D1*
X755881D2*
X1047644D1*
X1139771D2*
X2147637D1*
X2239764D2*
X3106499D1*
X3230885D2*
X3427699D1*
X434718Y1958612D2*
X630525D1*
X756851D2*
X1051878D1*
X1135536D2*
X2151872D1*
X2235529D2*
X3105529D1*
X3231855D2*
X3427699D1*
X434718Y1933743D2*
X640609D1*
X746802D2*
X1037237D1*
X1150176D2*
X2137231D1*
X2250171D2*
X3115613D1*
X3221806D2*
X3427699D1*
X434718Y1908875D2*
X644628D1*
X742747D2*
X1036053D1*
X1151361D2*
X2136046D1*
X2251355D2*
X3119633D1*
X3217752D2*
X3427699D1*
X434718Y1884006D2*
X631638D1*
X755773D2*
X1047213D1*
X1140201D2*
X2147207D1*
X2240195D2*
X3106642D1*
X3230777D2*
X3427699D1*
X434718Y1859137D2*
X630455D1*
X756959D2*
X1052417D1*
X1134998D2*
X2152410D1*
X2234991D2*
X3105459D1*
X3231962D2*
X3427699D1*
X434718Y1834268D2*
X640250D1*
X747162D2*
X1037381D1*
X1150033D2*
X2137375D1*
X2250027D2*
X3115255D1*
X3222166D2*
X3427699D1*
X434718Y1809399D2*
X674915D1*
X712498D2*
X1035945D1*
X1151432D2*
X2135939D1*
X2251462D2*
X3120099D1*
X3217321D2*
X3427699D1*
X434718Y1784531D2*
X1046783D1*
X1140596D2*
X2146812D1*
X2240590D2*
X3106785D1*
X3230634D2*
X3427699D1*
X434718Y1759662D2*
X1052990D1*
X1134423D2*
X2152985D1*
X2234418D2*
X3105351D1*
X3232033D2*
X3427699D1*
X434718Y1734793D2*
X1037524D1*
X1149854D2*
X2137518D1*
X2249884D2*
X3114896D1*
X3222524D2*
X3427699D1*
X434718Y1709924D2*
X645561D1*
X741851D2*
X1035873D1*
X1151540D2*
X2135868D1*
X2251535D2*
X3148088D1*
X3189296D2*
X3427699D1*
X434718Y1685056D2*
X631926D1*
X755486D2*
X1046388D1*
X1140990D2*
X2146381D1*
X2240985D2*
X3427699D1*
X434718Y1660187D2*
X630275D1*
X757102D2*
X2020213D1*
X2067197D2*
X2195184D1*
X2242204D2*
X2506444D1*
X2593151D2*
X2644239D1*
X2730947D2*
X3120817D1*
X3216604D2*
X3427699D1*
X434718Y1635318D2*
X639533D1*
X747843D2*
X1997785D1*
X2264632D2*
X2492915D1*
X2606680D2*
X2630710D1*
X2744476D2*
X3107002D1*
X3230419D2*
X3427699D1*
X434718Y1610449D2*
X646028D1*
X741348D2*
X1995453D1*
X2266965D2*
X2492448D1*
X2607146D2*
X2630243D1*
X2744941D2*
X3105243D1*
X3232141D2*
X3427699D1*
X434718Y1585581D2*
X632069D1*
X755343D2*
X2008550D1*
X2253831D2*
X2504613D1*
X2595018D2*
X2642409D1*
X2732813D2*
X3114393D1*
X3223027D2*
X3427699D1*
X434718Y1560712D2*
X630239D1*
X757174D2*
X1997928D1*
X2264489D2*
X3121283D1*
X3216102D2*
X3427699D1*
X434718Y1535843D2*
X639209D1*
X748203D2*
X1995381D1*
X2267036D2*
X3107145D1*
X3230276D2*
X3427699D1*
X434718Y1510974D2*
X669998D1*
X717414D2*
X2008155D1*
X2254226D2*
X3105171D1*
X3232213D2*
X3427699D1*
X434718Y1486106D2*
X3114035D1*
X3223350D2*
X3427699D1*
X434718Y1461237D2*
X3121785D1*
X3215634D2*
X3427699D1*
X434718Y1436368D2*
X2660171D1*
X2857511D2*
X3107288D1*
X3230096D2*
X3427699D1*
X434718Y1411499D2*
X647032D1*
X740380D2*
X2660171D1*
X2874340D2*
X3105136D1*
X3232285D2*
X3427699D1*
X434718Y1386630D2*
X632356D1*
X755020D2*
X2660171D1*
X2876780D2*
X3113712D1*
X3223672D2*
X3427699D1*
X434718Y1361762D2*
X630095D1*
X757317D2*
X2660171D1*
X2867235D2*
X3142957D1*
X3194427D2*
X3427699D1*
X434718Y1336893D2*
X638564D1*
X748848D2*
X1090813D1*
X1158789D2*
X1228608D1*
X1296585D2*
X1790805D1*
X1858781D2*
X1928600D1*
X1996577D2*
X3427699D1*
X434718Y1312024D2*
X647535D1*
X739842D2*
X1070537D1*
X1179064D2*
X1208333D1*
X1316859D2*
X1770566D1*
X1879057D2*
X1908361D1*
X2016852D2*
X3427699D1*
X434718Y1287155D2*
X632536D1*
X754877D2*
X1066375D1*
X1183226D2*
X1204170D1*
X1321022D2*
X1766368D1*
X1883218D2*
X1904163D1*
X2021014D2*
X3427699D1*
X434718Y1262287D2*
X630023D1*
X757352D2*
X1073911D1*
X1175691D2*
X1211707D1*
X1313486D2*
X1773940D1*
X1875683D2*
X1911735D1*
X2013478D2*
X3427699D1*
X434718Y1237418D2*
X638241D1*
X749136D2*
X1104520D1*
X1145082D2*
X1242315D1*
X1282877D2*
X1804512D1*
X1845074D2*
X1942308D1*
X1982869D2*
X3427699D1*
X434718Y1212549D2*
X666123D1*
X721289D2*
X3427699D1*
X434718Y1187680D2*
X3427699D1*
X434718Y1162812D2*
X3427699D1*
X434718Y1137943D2*
X3427699D1*
X434718Y1113074D2*
X648612D1*
X738764D2*
X3427699D1*
X434718Y1088205D2*
X632859D1*
X754518D2*
X3427699D1*
X434718Y1063336D2*
X629952D1*
X757460D2*
X3427699D1*
X434718Y1038468D2*
X637630D1*
X749745D2*
X3427699D1*
X434718Y1013599D2*
X649186D1*
X738226D2*
X3427699D1*
X434718Y988730D2*
X633037D1*
X754338D2*
X3427699D1*
X434718Y963861D2*
X629880D1*
X757497D2*
X3427699D1*
X434718Y938993D2*
X637344D1*
X750032D2*
X2307680D1*
X2429699D2*
X3427699D1*
X434718Y914124D2*
X662857D1*
X724554D2*
X2289308D1*
X2448071D2*
X3427699D1*
X434718Y889255D2*
X2281594D1*
X2455823D2*
X3427699D1*
X434718Y864386D2*
X2280661D1*
X2456756D2*
X3427699D1*
X434718Y839518D2*
X2280661D1*
X2456756D2*
X3427699D1*
X434718Y814649D2*
X2280661D1*
X2456756D2*
X3427699D1*
X434718Y789780D2*
X2280661D1*
X2456756D2*
X3427699D1*
X434718Y764911D2*
X1009535D1*
X1077871D2*
X1109508D1*
X1177880D2*
X1209518D1*
X1277889D2*
X1309527D1*
X1377861D2*
X1709528D1*
X1777863D2*
X1809537D1*
X1877872D2*
X1909510D1*
X1977881D2*
X2009519D1*
X2077890D2*
X2280661D1*
X2456756D2*
X3427699D1*
X434718Y740043D2*
X650764D1*
X736648D2*
X989403D1*
X1397993D2*
X1689397D1*
X2146537D2*
X2280661D1*
X2456756D2*
X3427699D1*
X434718Y715174D2*
X633577D1*
X753836D2*
X985277D1*
X1402120D2*
X1685270D1*
X2171405D2*
X2283961D1*
X2453419D2*
X3427699D1*
X434718Y690305D2*
X629808D1*
X757604D2*
X992884D1*
X1394512D2*
X1692913D1*
X2196272D2*
X2295696D1*
X2441684D2*
X3427699D1*
X434718Y665436D2*
X636590D1*
X750822D2*
X1023817D1*
X1063588D2*
X1123826D1*
X1163598D2*
X1223835D1*
X1263571D2*
X1323809D1*
X1363581D2*
X1723809D1*
X1763581D2*
X1823818D1*
X1863590D2*
X1923827D1*
X1963564D2*
X2023836D1*
X2063573D2*
X2122805D1*
X2221141D2*
X2322142D1*
X2415238D2*
X3427699D1*
X434718Y640567D2*
X651375D1*
X736037D2*
X2147674D1*
X2246008D2*
X3427699D1*
X434718Y615699D2*
X633755D1*
X753621D2*
X1835696D1*
X1901700D2*
X1935705D1*
X2001709D2*
X2035714D1*
X2101682D2*
X2135688D1*
X2301700D2*
X2335707D1*
X2401709D2*
X2435716D1*
X2501683D2*
X2535690D1*
X2601692D2*
X2735708D1*
X2801710D2*
X2835717D1*
X2901684D2*
X2935690D1*
X3001693D2*
X3035699D1*
X3101703D2*
X3135709D1*
X3201712D2*
X3235718D1*
X3301686D2*
X3427699D1*
X434718Y590830D2*
X629772D1*
X757640D2*
X1814739D1*
X2622684D2*
X2714716D1*
X3322678D2*
X3427699D1*
X434718Y565961D2*
X636304D1*
X751073D2*
X1810254D1*
X2627170D2*
X2710230D1*
X3327163D2*
X3427699D1*
X434718Y541092D2*
X659340D1*
X728071D2*
X1817431D1*
X2619957D2*
X2717443D1*
X3319951D2*
X3427699D1*
X434718Y516224D2*
X1846569D1*
X1890826D2*
X1946578D1*
X1990835D2*
X2046587D1*
X2090844D2*
X2146561D1*
X2190818D2*
X2246570D1*
X2290827D2*
X2346579D1*
X2390836D2*
X2446553D1*
X2490846D2*
X2546562D1*
X2590819D2*
X2746581D1*
X2790838D2*
X2846554D1*
X2890847D2*
X2946564D1*
X2990821D2*
X3046573D1*
X3090830D2*
X3146582D1*
X3190839D2*
X3246554D1*
X3290812D2*
X3427699D1*
X434718Y491355D2*
X3427699D1*
X434718Y466486D2*
X3427699D1*
X434718Y441617D2*
X3427699D1*
X2283146Y876548D2*
X2283409Y883287D1*
X2284199Y889957D1*
X2285508Y896546D1*
X2287333Y903012D1*
X2289658Y909314D1*
X2292470Y915415D1*
X2295752Y921276D1*
X2299485Y926861D1*
X2303644Y932137D1*
X2308204Y937070D1*
X2313137Y941630D1*
X2318413Y945789D1*
X2323998Y949522D1*
X2329859Y952804D1*
X2335960Y955616D1*
X2342262Y957941D1*
X2348728Y959766D1*
X2355317Y961075D1*
X2361987Y961865D1*
X2368700Y962129D1*
X2375413Y961865D1*
X2382083Y961075D1*
X2388672Y959766D1*
X2395138Y957941D1*
X2401440Y955616D1*
X2407541Y952804D1*
X2413402Y949522D1*
X2418987Y945789D1*
X2424263Y941630D1*
X2429196Y937070D1*
X2433756Y932137D1*
X2437915Y926861D1*
X2441648Y921276D1*
X2444930Y915415D1*
X2447742Y909314D1*
X2450067Y903012D1*
X2451892Y896546D1*
X2453201Y889957D1*
X2453991Y883287D1*
X2454255Y867388D1*
X2454220Y738779D1*
X2453991Y732066D1*
X2453201Y725396D1*
X2451892Y718806D1*
X2450067Y712340D1*
X2447742Y706039D1*
X2444930Y699938D1*
X2441648Y694077D1*
X2437915Y688491D1*
X2433756Y683216D1*
X2429196Y678283D1*
X2424263Y673722D1*
X2418987Y669564D1*
X2413402Y665831D1*
X2407541Y662549D1*
X2401440Y659737D1*
X2395138Y657411D1*
X2388672Y655587D1*
X2382083Y654277D1*
X2375413Y653487D1*
X2368700Y653224D1*
X2361987Y653487D1*
X2355317Y654277D1*
X2348728Y655587D1*
X2342262Y657411D1*
X2335960Y659737D1*
X2329859Y662549D1*
X2323998Y665831D1*
X2318413Y669564D1*
X2313137Y673722D1*
X2308204Y678283D1*
X2303644Y683216D1*
X2299485Y688491D1*
X2295752Y694077D1*
X2292470Y699938D1*
X2289658Y706039D1*
X2287333Y712340D1*
X2285508Y718806D1*
X2284199Y725396D1*
X2283409Y732066D1*
X2283145Y747965D1*
Y876539D1*
X2874554Y1389304D2*
X2873179Y1380621D1*
X2870462Y1372259D1*
X2866472Y1364426D1*
X2861304Y1357313D1*
X2855087Y1351096D1*
X2847974Y1345928D1*
X2840141Y1341938D1*
X2831779Y1339221D1*
X2823096Y1337846D1*
X2814304D1*
X2805621Y1339221D1*
X2797259Y1341938D1*
X2789426Y1345928D1*
X2782313Y1351096D1*
X2776096Y1357313D1*
X2774724Y1359054D1*
X2774728Y1337672D1*
X2662672D1*
Y1449728D1*
X2774728D1*
Y1428419D1*
X2779082Y1433318D1*
X2785768Y1439027D1*
X2793264Y1443621D1*
X2801386Y1446985D1*
X2809935Y1449037D1*
X2818700Y1449728D1*
X2827465Y1449037D1*
X2836014Y1446985D1*
X2844136Y1443621D1*
X2851632Y1439027D1*
X2858318Y1433318D1*
X2864027Y1426632D1*
X2868621Y1419136D1*
X2871985Y1411014D1*
X2874037Y1402465D1*
X2874728Y1393700D1*
X2874554Y1389304D1*
X1237676Y2434054D2*
X1233318Y2429082D1*
X1226632Y2423373D1*
X1219136Y2418779D1*
X1211014Y2415415D1*
X1202465Y2413363D1*
X1193700Y2412672D1*
X1184935Y2413363D1*
X1176386Y2415415D1*
X1168264Y2418779D1*
X1160768Y2423373D1*
X1154082Y2429082D1*
X1148373Y2435768D1*
X1143779Y2443264D1*
X1140415Y2451386D1*
X1138363Y2459935D1*
X1137672Y2468700D1*
X1138363Y2477465D1*
X1140415Y2486014D1*
X1143779Y2494136D1*
X1148373Y2501632D1*
X1154082Y2508318D1*
X1160768Y2514027D1*
X1168264Y2518621D1*
X1176386Y2521985D1*
X1184935Y2524037D1*
X1193700Y2524728D1*
X1202465Y2524037D1*
X1211014Y2521985D1*
X1219136Y2518621D1*
X1226632Y2514027D1*
X1233318Y2508318D1*
X1237676Y2503346D1*
X1237672Y2524728D1*
X1349728D1*
Y2412672D1*
X1237672D1*
Y2433981D1*
X868696Y2357911D2*
X865465Y2353759D1*
X858641Y2346935D1*
X850834Y2341263D1*
X842235Y2336881D1*
X833057Y2333899D1*
X823525Y2332389D1*
X813875D1*
X804343Y2333899D1*
X795165Y2336881D1*
X786566Y2341263D1*
X778759Y2346935D1*
X771935Y2353759D1*
X768704Y2357911D1*
X765465Y2353759D1*
X758641Y2346935D1*
X750834Y2341263D1*
X742235Y2336881D1*
X733057Y2333899D1*
X723525Y2332389D1*
X713875D1*
X704343Y2333899D1*
X695165Y2336881D1*
X686566Y2341263D1*
X678759Y2346935D1*
X671935Y2353759D1*
X668704Y2357911D1*
X663830Y2351920D1*
X658528Y2346839D1*
X652658Y2342424D1*
X646302Y2338742D1*
X639554Y2335843D1*
X632508Y2333770D1*
X625266Y2332552D1*
X617928Y2332205D1*
X610603Y2332735D1*
X603393Y2334136D1*
X596401Y2336385D1*
X589728Y2339452D1*
X583468Y2343293D1*
X577709Y2347852D1*
X572536Y2353066D1*
X568022Y2358859D1*
X564229Y2365149D1*
X561213Y2371847D1*
X559019Y2378855D1*
X557674Y2386077D1*
X557201Y2393406D1*
X557604Y2400739D1*
X558878Y2407972D1*
X561007Y2415002D1*
X563959Y2421728D1*
X567690Y2428054D1*
X572149Y2433890D1*
X577272Y2439153D1*
X582986Y2443767D1*
X589209Y2447669D1*
X595854Y2450798D1*
X602823Y2453115D1*
X610019Y2454585D1*
X617339Y2455186D1*
X624679Y2454909D1*
X631934Y2453759D1*
X638999Y2451754D1*
X645775Y2448919D1*
X652165Y2445298D1*
X658077Y2440940D1*
X663428Y2435910D1*
X668697Y2429501D1*
X675213Y2437187D1*
X682552Y2443455D1*
X690780Y2448497D1*
X699696Y2452190D1*
X709079Y2454443D1*
X718700Y2455200D1*
X728321Y2454443D1*
X737704Y2452190D1*
X746620Y2448497D1*
X754848Y2443455D1*
X762187Y2437187D1*
X768455Y2429848D1*
X768696Y2429489D1*
X771935Y2433641D1*
X778759Y2440465D1*
X786566Y2446137D1*
X795165Y2450519D1*
X804343Y2453501D1*
X813875Y2455011D1*
X823525D1*
X833057Y2453501D1*
X842235Y2450519D1*
X850834Y2446137D1*
X858641Y2440465D1*
X865465Y2433641D1*
X868696Y2429489D1*
X871935Y2433641D1*
X878759Y2440465D1*
X886566Y2446137D1*
X895165Y2450519D1*
X904343Y2453501D1*
X913875Y2455011D1*
X923525D1*
X933057Y2453501D1*
X942235Y2450519D1*
X950834Y2446137D1*
X958641Y2440465D1*
X965465Y2433641D1*
X971137Y2425834D1*
X975519Y2417235D1*
X978501Y2408057D1*
X980011Y2398525D1*
Y2388875D1*
X978501Y2379343D1*
X975519Y2370165D1*
X971137Y2361566D1*
X965465Y2353759D1*
X958641Y2346935D1*
X950834Y2341263D1*
X942235Y2336881D1*
X933057Y2333899D1*
X923525Y2332389D1*
X913875D1*
X904343Y2333899D1*
X895165Y2336881D1*
X886566Y2341263D1*
X878759Y2346935D1*
X871935Y2353759D1*
X868704Y2357911D1*
X3324554Y2464304D2*
X3323179Y2455621D1*
X3320462Y2447259D1*
X3316472Y2439426D1*
X3311304Y2432313D1*
X3305087Y2426096D1*
X3297974Y2420928D1*
X3290141Y2416938D1*
X3281779Y2414221D1*
X3273096Y2412846D1*
X3264304D1*
X3255621Y2414221D1*
X3247259Y2416938D1*
X3239426Y2420928D1*
X3232313Y2426096D1*
X3226096Y2432313D1*
X3220928Y2439426D1*
X3218621Y2443264D1*
X3214027Y2435768D1*
X3208318Y2429082D1*
X3201632Y2423373D1*
X3194136Y2418779D1*
X3186014Y2415415D1*
X3177465Y2413363D1*
X3168700Y2412672D1*
X3159935Y2413363D1*
X3151386Y2415415D1*
X3143264Y2418779D1*
X3135768Y2423373D1*
X3129082Y2429082D1*
X3123373Y2435768D1*
X3118700Y2443436D1*
X3114027Y2435768D1*
X3108318Y2429082D1*
X3101632Y2423373D1*
X3094136Y2418779D1*
X3086014Y2415415D1*
X3077465Y2413363D1*
X3068700Y2412672D1*
X3059935Y2413363D1*
X3051386Y2415415D1*
X3043264Y2418779D1*
X3035768Y2423373D1*
X3029082Y2429082D1*
X3023373Y2435768D1*
X3018700Y2443436D1*
X3014027Y2435768D1*
X3008318Y2429082D1*
X3001632Y2423373D1*
X2994136Y2418779D1*
X2986014Y2415415D1*
X2977465Y2413363D1*
X2968700Y2412672D1*
X2959935Y2413363D1*
X2951386Y2415415D1*
X2943264Y2418779D1*
X2935768Y2423373D1*
X2929082Y2429082D1*
X2923373Y2435768D1*
X2918700Y2443436D1*
X2914027Y2435768D1*
X2908318Y2429082D1*
X2901632Y2423373D1*
X2894136Y2418779D1*
X2886014Y2415415D1*
X2877465Y2413363D1*
X2868700Y2412672D1*
X2859935Y2413363D1*
X2851386Y2415415D1*
X2843264Y2418779D1*
X2835768Y2423373D1*
X2829082Y2429082D1*
X2823373Y2435768D1*
X2818700Y2443436D1*
X2814027Y2435768D1*
X2808318Y2429082D1*
X2801632Y2423373D1*
X2794136Y2418779D1*
X2786014Y2415415D1*
X2777465Y2413363D1*
X2768700Y2412672D1*
X2759935Y2413363D1*
X2751386Y2415415D1*
X2743264Y2418779D1*
X2735768Y2423373D1*
X2729082Y2429082D1*
X2723373Y2435768D1*
X2718700Y2443436D1*
X2714027Y2435768D1*
X2708318Y2429082D1*
X2701632Y2423373D1*
X2694136Y2418779D1*
X2686014Y2415415D1*
X2677465Y2413363D1*
X2668700Y2412672D1*
X2659935Y2413363D1*
X2651386Y2415415D1*
X2643264Y2418779D1*
X2635768Y2423373D1*
X2629082Y2429082D1*
X2623373Y2435768D1*
X2618700Y2443436D1*
X2614027Y2435768D1*
X2608318Y2429082D1*
X2601632Y2423373D1*
X2594136Y2418779D1*
X2586014Y2415415D1*
X2577465Y2413363D1*
X2568700Y2412672D1*
X2559935Y2413363D1*
X2551386Y2415415D1*
X2543264Y2418779D1*
X2535768Y2423373D1*
X2529082Y2429082D1*
X2523373Y2435768D1*
X2518779Y2443264D1*
X2515415Y2451386D1*
X2513363Y2459935D1*
X2512672Y2468700D1*
X2513363Y2477465D1*
X2515415Y2486014D1*
X2518779Y2494136D1*
X2523373Y2501632D1*
X2529082Y2508318D1*
X2535768Y2514027D1*
X2543264Y2518621D1*
X2551386Y2521985D1*
X2559935Y2524037D1*
X2568700Y2524728D1*
X2577465Y2524037D1*
X2586014Y2521985D1*
X2594136Y2518621D1*
X2601632Y2514027D1*
X2608318Y2508318D1*
X2614027Y2501632D1*
X2618700Y2493964D1*
X2623373Y2501632D1*
X2629082Y2508318D1*
X2635768Y2514027D1*
X2643264Y2518621D1*
X2651386Y2521985D1*
X2659935Y2524037D1*
X2668700Y2524728D1*
X2677465Y2524037D1*
X2686014Y2521985D1*
X2694136Y2518621D1*
X2701632Y2514027D1*
X2708318Y2508318D1*
X2714027Y2501632D1*
X2718700Y2493964D1*
X2723373Y2501632D1*
X2729082Y2508318D1*
X2735768Y2514027D1*
X2743264Y2518621D1*
X2751386Y2521985D1*
X2759935Y2524037D1*
X2768700Y2524728D1*
X2777465Y2524037D1*
X2786014Y2521985D1*
X2794136Y2518621D1*
X2801632Y2514027D1*
X2808318Y2508318D1*
X2814027Y2501632D1*
X2818700Y2493964D1*
X2823373Y2501632D1*
X2829082Y2508318D1*
X2835768Y2514027D1*
X2843264Y2518621D1*
X2851386Y2521985D1*
X2859935Y2524037D1*
X2868700Y2524728D1*
X2877465Y2524037D1*
X2886014Y2521985D1*
X2894136Y2518621D1*
X2901632Y2514027D1*
X2908318Y2508318D1*
X2914027Y2501632D1*
X2918700Y2493964D1*
X2923373Y2501632D1*
X2929082Y2508318D1*
X2935768Y2514027D1*
X2943264Y2518621D1*
X2951386Y2521985D1*
X2959935Y2524037D1*
X2968700Y2524728D1*
X2977465Y2524037D1*
X2986014Y2521985D1*
X2994136Y2518621D1*
X3001632Y2514027D1*
X3008318Y2508318D1*
X3014027Y2501632D1*
X3018700Y2493964D1*
X3023373Y2501632D1*
X3029082Y2508318D1*
X3035768Y2514027D1*
X3043264Y2518621D1*
X3051386Y2521985D1*
X3059935Y2524037D1*
X3068700Y2524728D1*
X3077465Y2524037D1*
X3086014Y2521985D1*
X3094136Y2518621D1*
X3101632Y2514027D1*
X3108318Y2508318D1*
X3114027Y2501632D1*
X3118700Y2493964D1*
X3123373Y2501632D1*
X3129082Y2508318D1*
X3135768Y2514027D1*
X3143264Y2518621D1*
X3151386Y2521985D1*
X3159935Y2524037D1*
X3168700Y2524728D1*
X3177465Y2524037D1*
X3186014Y2521985D1*
X3194136Y2518621D1*
X3201632Y2514027D1*
X3208318Y2508318D1*
X3214027Y2501632D1*
X3218700Y2493964D1*
X3223373Y2501632D1*
X3229082Y2508318D1*
X3235768Y2514027D1*
X3243264Y2518621D1*
X3251386Y2521985D1*
X3259935Y2524037D1*
X3268700Y2524728D1*
X3277465Y2524037D1*
X3286014Y2521985D1*
X3294136Y2518621D1*
X3301632Y2514027D1*
X3308318Y2508318D1*
X3314027Y2501632D1*
X3318621Y2494136D1*
X3321985Y2486014D1*
X3324037Y2477465D1*
X3324728Y2468700D1*
X3324554Y2464304D1*
X2464554D2*
X2463179Y2455621D1*
X2460462Y2447259D1*
X2456472Y2439426D1*
X2451304Y2432313D1*
X2445087Y2426096D1*
X2437974Y2420928D1*
X2430141Y2416938D1*
X2421779Y2414221D1*
X2413096Y2412846D1*
X2404304D1*
X2395621Y2414221D1*
X2387259Y2416938D1*
X2379426Y2420928D1*
X2372313Y2426096D1*
X2366096Y2432313D1*
X2360928Y2439426D1*
X2358621Y2443264D1*
X2354027Y2435768D1*
X2348318Y2429082D1*
X2341632Y2423373D1*
X2334136Y2418779D1*
X2326014Y2415415D1*
X2317465Y2413363D1*
X2308700Y2412672D1*
X2299935Y2413363D1*
X2291386Y2415415D1*
X2283264Y2418779D1*
X2275768Y2423373D1*
X2269082Y2429082D1*
X2263373Y2435768D1*
X2258700Y2443436D1*
X2254027Y2435768D1*
X2248318Y2429082D1*
X2241632Y2423373D1*
X2234136Y2418779D1*
X2226014Y2415415D1*
X2217465Y2413363D1*
X2208700Y2412672D1*
X2199935Y2413363D1*
X2191386Y2415415D1*
X2183264Y2418779D1*
X2175768Y2423373D1*
X2169082Y2429082D1*
X2163373Y2435768D1*
X2158700Y2443436D1*
X2154027Y2435768D1*
X2148318Y2429082D1*
X2141632Y2423373D1*
X2134136Y2418779D1*
X2126014Y2415415D1*
X2117465Y2413363D1*
X2108700Y2412672D1*
X2099935Y2413363D1*
X2091386Y2415415D1*
X2083264Y2418779D1*
X2075768Y2423373D1*
X2069082Y2429082D1*
X2063373Y2435768D1*
X2058700Y2443436D1*
X2054027Y2435768D1*
X2048318Y2429082D1*
X2041632Y2423373D1*
X2034136Y2418779D1*
X2026014Y2415415D1*
X2017465Y2413363D1*
X2008700Y2412672D1*
X1999935Y2413363D1*
X1991386Y2415415D1*
X1983264Y2418779D1*
X1975768Y2423373D1*
X1969082Y2429082D1*
X1963373Y2435768D1*
X1958700Y2443436D1*
X1954027Y2435768D1*
X1948318Y2429082D1*
X1941632Y2423373D1*
X1934136Y2418779D1*
X1926014Y2415415D1*
X1917465Y2413363D1*
X1908700Y2412672D1*
X1899935Y2413363D1*
X1891386Y2415415D1*
X1883264Y2418779D1*
X1875768Y2423373D1*
X1869082Y2429082D1*
X1863373Y2435768D1*
X1858700Y2443436D1*
X1855247Y2437516D1*
X1850770Y2431696D1*
X1845567Y2426511D1*
X1839733Y2422052D1*
X1833365Y2418394D1*
X1826574Y2415600D1*
X1819476Y2413718D1*
X1812191Y2412781D1*
X1804847Y2412805D1*
X1797570Y2413789D1*
X1790483Y2415717D1*
X1783710Y2418554D1*
X1777367Y2422254D1*
X1771561Y2426751D1*
X1766393Y2431969D1*
X1761952Y2437818D1*
X1758707Y2443423D1*
X1754027Y2435768D1*
X1748318Y2429082D1*
X1741632Y2423373D1*
X1734136Y2418779D1*
X1726014Y2415415D1*
X1717465Y2413363D1*
X1708700Y2412672D1*
X1699935Y2413363D1*
X1691386Y2415415D1*
X1683264Y2418779D1*
X1675768Y2423373D1*
X1669082Y2429082D1*
X1663373Y2435768D1*
X1658700Y2443436D1*
X1654027Y2435768D1*
X1648318Y2429082D1*
X1641632Y2423373D1*
X1634136Y2418779D1*
X1626014Y2415415D1*
X1617465Y2413363D1*
X1608700Y2412672D1*
X1599935Y2413363D1*
X1591386Y2415415D1*
X1583264Y2418779D1*
X1575768Y2423373D1*
X1569082Y2429082D1*
X1563373Y2435768D1*
X1558700Y2443436D1*
X1554027Y2435768D1*
X1548318Y2429082D1*
X1541632Y2423373D1*
X1534136Y2418779D1*
X1526014Y2415415D1*
X1517465Y2413363D1*
X1508700Y2412672D1*
X1499935Y2413363D1*
X1491386Y2415415D1*
X1483264Y2418779D1*
X1475768Y2423373D1*
X1469082Y2429082D1*
X1463373Y2435768D1*
X1458779Y2443264D1*
X1455415Y2451386D1*
X1453363Y2459935D1*
X1452672Y2468700D1*
X1453363Y2477465D1*
X1455415Y2486014D1*
X1458779Y2494136D1*
X1463373Y2501632D1*
X1469082Y2508318D1*
X1475768Y2514027D1*
X1483264Y2518621D1*
X1491386Y2521985D1*
X1499935Y2524037D1*
X1508700Y2524728D1*
X1517465Y2524037D1*
X1526014Y2521985D1*
X1534136Y2518621D1*
X1541632Y2514027D1*
X1548318Y2508318D1*
X1554027Y2501632D1*
X1558700Y2493964D1*
X1563373Y2501632D1*
X1569082Y2508318D1*
X1575768Y2514027D1*
X1583264Y2518621D1*
X1591386Y2521985D1*
X1599935Y2524037D1*
X1608700Y2524728D1*
X1617465Y2524037D1*
X1626014Y2521985D1*
X1634136Y2518621D1*
X1641632Y2514027D1*
X1648318Y2508318D1*
X1654027Y2501632D1*
X1658700Y2493964D1*
X1663373Y2501632D1*
X1669082Y2508318D1*
X1675768Y2514027D1*
X1683264Y2518621D1*
X1691386Y2521985D1*
X1699935Y2524037D1*
X1708700Y2524728D1*
X1717465Y2524037D1*
X1726014Y2521985D1*
X1734136Y2518621D1*
X1741632Y2514027D1*
X1748318Y2508318D1*
X1754027Y2501632D1*
X1758700Y2493964D1*
X1762355Y2500184D1*
X1766871Y2505976D1*
X1772106Y2511125D1*
X1777969Y2515548D1*
X1784360Y2519165D1*
X1791170Y2521914D1*
X1798280Y2523750D1*
X1805570Y2524640D1*
X1812914Y2524569D1*
X1820184Y2523537D1*
X1827259Y2521565D1*
X1834014Y2518683D1*
X1840334Y2514943D1*
X1846109Y2510409D1*
X1851243Y2505157D1*
X1855646Y2499279D1*
X1858695Y2493974D1*
X1863373Y2501632D1*
X1869082Y2508318D1*
X1875768Y2514027D1*
X1883264Y2518621D1*
X1891386Y2521985D1*
X1899935Y2524037D1*
X1908700Y2524728D1*
X1917465Y2524037D1*
X1926014Y2521985D1*
X1934136Y2518621D1*
X1941632Y2514027D1*
X1948318Y2508318D1*
X1954027Y2501632D1*
X1958700Y2493964D1*
X1963373Y2501632D1*
X1969082Y2508318D1*
X1975768Y2514027D1*
X1983264Y2518621D1*
X1991386Y2521985D1*
X1999935Y2524037D1*
X2008700Y2524728D1*
X2017465Y2524037D1*
X2026014Y2521985D1*
X2034136Y2518621D1*
X2041632Y2514027D1*
X2048318Y2508318D1*
X2054027Y2501632D1*
X2058700Y2493964D1*
X2063373Y2501632D1*
X2069082Y2508318D1*
X2075768Y2514027D1*
X2083264Y2518621D1*
X2091386Y2521985D1*
X2099935Y2524037D1*
X2108700Y2524728D1*
X2117465Y2524037D1*
X2126014Y2521985D1*
X2134136Y2518621D1*
X2141632Y2514027D1*
X2148318Y2508318D1*
X2154027Y2501632D1*
X2158700Y2493964D1*
X2163373Y2501632D1*
X2169082Y2508318D1*
X2175768Y2514027D1*
X2183264Y2518621D1*
X2191386Y2521985D1*
X2199935Y2524037D1*
X2208700Y2524728D1*
X2217465Y2524037D1*
X2226014Y2521985D1*
X2234136Y2518621D1*
X2241632Y2514027D1*
X2248318Y2508318D1*
X2254027Y2501632D1*
X2258700Y2493964D1*
X2263373Y2501632D1*
X2269082Y2508318D1*
X2275768Y2514027D1*
X2283264Y2518621D1*
X2291386Y2521985D1*
X2299935Y2524037D1*
X2308700Y2524728D1*
X2317465Y2524037D1*
X2326014Y2521985D1*
X2334136Y2518621D1*
X2341632Y2514027D1*
X2348318Y2508318D1*
X2354027Y2501632D1*
X2358700Y2493964D1*
X2363373Y2501632D1*
X2369082Y2508318D1*
X2375768Y2514027D1*
X2383264Y2518621D1*
X2391386Y2521985D1*
X2399935Y2524037D1*
X2408700Y2524728D1*
X2417465Y2524037D1*
X2426014Y2521985D1*
X2434136Y2518621D1*
X2441632Y2514027D1*
X2448318Y2508318D1*
X2454027Y2501632D1*
X2458621Y2494136D1*
X2461985Y2486014D1*
X2464037Y2477465D1*
X2464728Y2468700D1*
X2464554Y2464304D1*
X3324554Y564304D2*
X3323179Y555621D1*
X3320462Y547259D1*
X3316472Y539426D1*
X3311304Y532313D1*
X3305087Y526096D1*
X3297974Y520928D1*
X3290141Y516938D1*
X3281779Y514221D1*
X3273096Y512846D1*
X3264304D1*
X3255621Y514221D1*
X3247259Y516938D1*
X3239426Y520928D1*
X3232313Y526096D1*
X3226096Y532313D1*
X3220928Y539426D1*
X3218621Y543264D1*
X3214027Y535768D1*
X3208318Y529082D1*
X3201632Y523373D1*
X3194136Y518779D1*
X3186014Y515415D1*
X3177465Y513363D1*
X3168700Y512672D1*
X3159935Y513363D1*
X3151386Y515415D1*
X3143264Y518779D1*
X3135768Y523373D1*
X3129082Y529082D1*
X3123373Y535768D1*
X3118700Y543436D1*
X3114027Y535768D1*
X3108318Y529082D1*
X3101632Y523373D1*
X3094136Y518779D1*
X3086014Y515415D1*
X3077465Y513363D1*
X3068700Y512672D1*
X3059935Y513363D1*
X3051386Y515415D1*
X3043264Y518779D1*
X3035768Y523373D1*
X3029082Y529082D1*
X3023373Y535768D1*
X3018700Y543436D1*
X3014027Y535768D1*
X3008318Y529082D1*
X3001632Y523373D1*
X2994136Y518779D1*
X2986014Y515415D1*
X2977465Y513363D1*
X2968700Y512672D1*
X2959935Y513363D1*
X2951386Y515415D1*
X2943264Y518779D1*
X2935768Y523373D1*
X2929082Y529082D1*
X2923373Y535768D1*
X2918700Y543436D1*
X2914027Y535768D1*
X2908318Y529082D1*
X2901632Y523373D1*
X2894136Y518779D1*
X2886014Y515415D1*
X2877465Y513363D1*
X2868700Y512672D1*
X2859935Y513363D1*
X2851386Y515415D1*
X2843264Y518779D1*
X2835768Y523373D1*
X2829082Y529082D1*
X2823373Y535768D1*
X2818700Y543436D1*
X2814027Y535768D1*
X2808318Y529082D1*
X2801632Y523373D1*
X2794136Y518779D1*
X2786014Y515415D1*
X2777465Y513363D1*
X2768700Y512672D1*
X2759935Y513363D1*
X2751386Y515415D1*
X2743264Y518779D1*
X2735768Y523373D1*
X2729082Y529082D1*
X2723373Y535768D1*
X2718779Y543264D1*
X2715415Y551386D1*
X2713363Y559935D1*
X2712672Y568700D1*
X2713363Y577465D1*
X2715415Y586014D1*
X2718779Y594136D1*
X2723373Y601632D1*
X2729082Y608318D1*
X2735768Y614027D1*
X2743264Y618621D1*
X2751386Y621985D1*
X2759935Y624037D1*
X2768700Y624728D1*
X2777465Y624037D1*
X2786014Y621985D1*
X2794136Y618621D1*
X2801632Y614027D1*
X2808318Y608318D1*
X2814027Y601632D1*
X2818700Y593964D1*
X2823373Y601632D1*
X2829082Y608318D1*
X2835768Y614027D1*
X2843264Y618621D1*
X2851386Y621985D1*
X2859935Y624037D1*
X2868700Y624728D1*
X2877465Y624037D1*
X2886014Y621985D1*
X2894136Y618621D1*
X2901632Y614027D1*
X2908318Y608318D1*
X2914027Y601632D1*
X2918700Y593964D1*
X2923373Y601632D1*
X2929082Y608318D1*
X2935768Y614027D1*
X2943264Y618621D1*
X2951386Y621985D1*
X2959935Y624037D1*
X2968700Y624728D1*
X2977465Y624037D1*
X2986014Y621985D1*
X2994136Y618621D1*
X3001632Y614027D1*
X3008318Y608318D1*
X3014027Y601632D1*
X3018700Y593964D1*
X3023373Y601632D1*
X3029082Y608318D1*
X3035768Y614027D1*
X3043264Y618621D1*
X3051386Y621985D1*
X3059935Y624037D1*
X3068700Y624728D1*
X3077465Y624037D1*
X3086014Y621985D1*
X3094136Y618621D1*
X3101632Y614027D1*
X3108318Y608318D1*
X3114027Y601632D1*
X3118700Y593964D1*
X3123373Y601632D1*
X3129082Y608318D1*
X3135768Y614027D1*
X3143264Y618621D1*
X3151386Y621985D1*
X3159935Y624037D1*
X3168700Y624728D1*
X3177465Y624037D1*
X3186014Y621985D1*
X3194136Y618621D1*
X3201632Y614027D1*
X3208318Y608318D1*
X3214027Y601632D1*
X3218700Y593964D1*
X3223373Y601632D1*
X3229082Y608318D1*
X3235768Y614027D1*
X3243264Y618621D1*
X3251386Y621985D1*
X3259935Y624037D1*
X3268700Y624728D1*
X3277465Y624037D1*
X3286014Y621985D1*
X3294136Y618621D1*
X3301632Y614027D1*
X3308318Y608318D1*
X3314027Y601632D1*
X3318621Y594136D1*
X3321985Y586014D1*
X3324037Y577465D1*
X3324728Y568700D1*
X3324554Y564304D1*
X2624554D2*
X2623179Y555621D1*
X2620462Y547259D1*
X2616472Y539426D1*
X2611304Y532313D1*
X2605087Y526096D1*
X2597974Y520928D1*
X2590141Y516938D1*
X2581779Y514221D1*
X2573096Y512846D1*
X2564304D1*
X2555621Y514221D1*
X2547259Y516938D1*
X2539426Y520928D1*
X2532313Y526096D1*
X2526096Y532313D1*
X2520928Y539426D1*
X2518700Y543436D1*
X2515247Y537516D1*
X2510770Y531696D1*
X2505567Y526511D1*
X2499733Y522052D1*
X2493365Y518394D1*
X2486574Y515600D1*
X2479476Y513718D1*
X2472191Y512781D1*
X2464847Y512805D1*
X2457570Y513789D1*
X2450483Y515717D1*
X2443710Y518554D1*
X2437367Y522254D1*
X2431561Y526751D1*
X2426393Y531969D1*
X2421952Y537818D1*
X2418707Y543423D1*
X2415247Y537516D1*
X2410770Y531696D1*
X2405567Y526511D1*
X2399733Y522052D1*
X2393365Y518394D1*
X2386574Y515600D1*
X2379476Y513718D1*
X2372191Y512781D1*
X2364847Y512805D1*
X2357570Y513789D1*
X2350483Y515717D1*
X2343710Y518554D1*
X2337367Y522254D1*
X2331561Y526751D1*
X2326393Y531969D1*
X2321952Y537818D1*
X2318707Y543423D1*
X2314027Y535768D1*
X2308318Y529082D1*
X2301632Y523373D1*
X2294136Y518779D1*
X2286014Y515415D1*
X2277465Y513363D1*
X2268700Y512672D1*
X2259935Y513363D1*
X2251386Y515415D1*
X2243264Y518779D1*
X2235768Y523373D1*
X2229082Y529082D1*
X2223373Y535768D1*
X2218700Y543436D1*
X2214027Y535768D1*
X2208318Y529082D1*
X2201632Y523373D1*
X2194136Y518779D1*
X2186014Y515415D1*
X2177465Y513363D1*
X2168700Y512672D1*
X2159935Y513363D1*
X2151386Y515415D1*
X2143264Y518779D1*
X2135768Y523373D1*
X2129082Y529082D1*
X2123373Y535768D1*
X2118700Y543436D1*
X2114027Y535768D1*
X2108318Y529082D1*
X2101632Y523373D1*
X2094136Y518779D1*
X2086014Y515415D1*
X2077465Y513363D1*
X2068700Y512672D1*
X2059935Y513363D1*
X2051386Y515415D1*
X2043264Y518779D1*
X2035768Y523373D1*
X2029082Y529082D1*
X2023373Y535768D1*
X2018700Y543436D1*
X2014027Y535768D1*
X2008318Y529082D1*
X2001632Y523373D1*
X1994136Y518779D1*
X1986014Y515415D1*
X1977465Y513363D1*
X1968700Y512672D1*
X1959935Y513363D1*
X1951386Y515415D1*
X1943264Y518779D1*
X1935768Y523373D1*
X1929082Y529082D1*
X1923373Y535768D1*
X1918700Y543436D1*
X1914027Y535768D1*
X1908318Y529082D1*
X1901632Y523373D1*
X1894136Y518779D1*
X1886014Y515415D1*
X1877465Y513363D1*
X1868700Y512672D1*
X1859935Y513363D1*
X1851386Y515415D1*
X1843264Y518779D1*
X1835768Y523373D1*
X1829082Y529082D1*
X1823373Y535768D1*
X1818779Y543264D1*
X1815415Y551386D1*
X1813363Y559935D1*
X1812672Y568700D1*
X1813363Y577465D1*
X1815415Y586014D1*
X1818779Y594136D1*
X1823373Y601632D1*
X1829082Y608318D1*
X1835768Y614027D1*
X1843264Y618621D1*
X1851386Y621985D1*
X1859935Y624037D1*
X1868700Y624728D1*
X1877465Y624037D1*
X1886014Y621985D1*
X1894136Y618621D1*
X1901632Y614027D1*
X1908318Y608318D1*
X1914027Y601632D1*
X1918700Y593964D1*
X1923373Y601632D1*
X1929082Y608318D1*
X1935768Y614027D1*
X1943264Y618621D1*
X1951386Y621985D1*
X1959935Y624037D1*
X1968700Y624728D1*
X1977465Y624037D1*
X1986014Y621985D1*
X1994136Y618621D1*
X2001632Y614027D1*
X2008318Y608318D1*
X2014027Y601632D1*
X2018700Y593964D1*
X2023373Y601632D1*
X2029082Y608318D1*
X2035768Y614027D1*
X2043264Y618621D1*
X2051386Y621985D1*
X2059935Y624037D1*
X2068700Y624728D1*
X2077465Y624037D1*
X2086014Y621985D1*
X2094136Y618621D1*
X2101632Y614027D1*
X2108318Y608318D1*
X2114027Y601632D1*
X2118700Y593964D1*
X2123373Y601632D1*
X2129082Y608318D1*
X2135768Y614027D1*
X2143264Y618621D1*
X2151386Y621985D1*
X2159935Y624037D1*
X2166107Y624625D1*
X2105022Y685709D1*
X2088952Y685700D1*
X2083318Y679082D1*
X2076632Y673373D1*
X2069136Y668779D1*
X2061014Y665415D1*
X2052465Y663363D1*
X2043700Y662672D1*
X2034935Y663363D1*
X2026386Y665415D1*
X2018264Y668779D1*
X2010768Y673373D1*
X2004082Y679082D1*
X1998373Y685768D1*
X1993700Y693436D1*
X1990247Y687516D1*
X1985770Y681696D1*
X1980567Y676511D1*
X1974733Y672052D1*
X1968365Y668394D1*
X1961574Y665600D1*
X1954476Y663718D1*
X1947191Y662781D1*
X1939847Y662805D1*
X1932570Y663789D1*
X1925483Y665717D1*
X1918710Y668554D1*
X1912367Y672254D1*
X1906561Y676751D1*
X1901393Y681969D1*
X1896952Y687818D1*
X1893707Y693423D1*
X1889027Y685768D1*
X1883318Y679082D1*
X1876632Y673373D1*
X1869136Y668779D1*
X1861014Y665415D1*
X1852465Y663363D1*
X1843700Y662672D1*
X1834935Y663363D1*
X1826386Y665415D1*
X1818264Y668779D1*
X1810768Y673373D1*
X1804082Y679082D1*
X1798373Y685768D1*
X1793700Y693436D1*
X1790247Y687516D1*
X1785770Y681696D1*
X1780567Y676511D1*
X1774733Y672052D1*
X1768365Y668394D1*
X1761574Y665600D1*
X1754476Y663718D1*
X1747191Y662781D1*
X1739847Y662805D1*
X1732570Y663789D1*
X1725483Y665717D1*
X1718710Y668554D1*
X1712367Y672254D1*
X1706561Y676751D1*
X1701393Y681969D1*
X1696952Y687818D1*
X1693314Y694197D1*
X1690543Y700998D1*
X1688684Y708103D1*
X1687771Y715389D1*
X1687818Y722733D1*
X1688826Y730007D1*
X1690776Y737087D1*
X1693636Y743852D1*
X1697355Y750184D1*
X1701871Y755976D1*
X1707106Y761125D1*
X1712969Y765548D1*
X1719360Y769165D1*
X1726170Y771914D1*
X1733280Y773750D1*
X1740570Y774640D1*
X1747914Y774569D1*
X1755184Y773537D1*
X1762259Y771565D1*
X1769014Y768683D1*
X1775334Y764943D1*
X1781109Y760409D1*
X1786243Y755157D1*
X1790646Y749279D1*
X1793695Y743974D1*
X1798373Y751632D1*
X1804082Y758318D1*
X1810768Y764027D1*
X1818264Y768621D1*
X1826386Y771985D1*
X1834935Y774037D1*
X1843700Y774728D1*
X1852465Y774037D1*
X1861014Y771985D1*
X1869136Y768621D1*
X1876632Y764027D1*
X1883318Y758318D1*
X1889027Y751632D1*
X1893700Y743964D1*
X1897355Y750184D1*
X1901871Y755976D1*
X1907106Y761125D1*
X1912969Y765548D1*
X1919360Y769165D1*
X1926170Y771914D1*
X1933280Y773750D1*
X1940570Y774640D1*
X1947914Y774569D1*
X1955184Y773537D1*
X1962259Y771565D1*
X1969014Y768683D1*
X1975334Y764943D1*
X1981109Y760409D1*
X1986243Y755157D1*
X1990646Y749279D1*
X1993695Y743974D1*
X1998373Y751632D1*
X2004082Y758318D1*
X2010768Y764027D1*
X2018264Y768621D1*
X2026386Y771985D1*
X2034935Y774037D1*
X2043700Y774728D1*
X2052465Y774037D1*
X2061014Y771985D1*
X2069136Y768621D1*
X2076632Y764027D1*
X2083318Y758318D1*
X2088974Y751700D1*
X2121289Y751599D1*
X2126403Y750788D1*
X2131329Y749188D1*
X2135943Y746838D1*
X2140132Y743793D1*
X2187504Y696565D1*
X2259998Y624071D1*
X2268700Y624728D1*
X2277465Y624037D1*
X2286014Y621985D1*
X2294136Y618621D1*
X2301632Y614027D1*
X2308318Y608318D1*
X2314027Y601632D1*
X2318700Y593964D1*
X2322355Y600184D1*
X2326871Y605976D1*
X2332106Y611125D1*
X2337969Y615548D1*
X2344360Y619165D1*
X2351170Y621914D1*
X2358280Y623750D1*
X2365570Y624640D1*
X2372914Y624569D1*
X2380184Y623537D1*
X2387259Y621565D1*
X2394014Y618683D1*
X2400334Y614943D1*
X2406109Y610409D1*
X2411243Y605157D1*
X2415646Y599279D1*
X2418695Y593974D1*
X2422355Y600184D1*
X2426871Y605976D1*
X2432106Y611125D1*
X2437969Y615548D1*
X2444360Y619165D1*
X2451170Y621914D1*
X2458280Y623750D1*
X2465570Y624640D1*
X2472914Y624569D1*
X2480184Y623537D1*
X2487259Y621565D1*
X2494014Y618683D1*
X2500334Y614943D1*
X2506109Y610409D1*
X2511243Y605157D1*
X2515646Y599279D1*
X2518695Y593974D1*
X2523373Y601632D1*
X2529082Y608318D1*
X2535768Y614027D1*
X2543264Y618621D1*
X2551386Y621985D1*
X2559935Y624037D1*
X2568700Y624728D1*
X2577465Y624037D1*
X2586014Y621985D1*
X2594136Y618621D1*
X2601632Y614027D1*
X2608318Y608318D1*
X2614027Y601632D1*
X2618621Y594136D1*
X2621985Y586014D1*
X2624037Y577465D1*
X2624728Y568700D1*
X2624554Y564304D1*
X3230011Y2313875D2*
X3228501Y2304343D1*
X3225519Y2295165D1*
X3221137Y2286566D1*
X3215465Y2278759D1*
X3208641Y2271935D1*
X3204489Y2268704D1*
X3208641Y2265465D1*
X3215465Y2258641D1*
X3221137Y2250834D1*
X3225519Y2242235D1*
X3228501Y2233057D1*
X3230011Y2223525D1*
Y2213875D1*
X3228501Y2204343D1*
X3225519Y2195165D1*
X3221137Y2186566D1*
X3215465Y2178759D1*
X3208641Y2171935D1*
X3204489Y2168704D1*
X3210827Y2163504D1*
X3215869Y2158163D1*
X3220237Y2152259D1*
X3223871Y2145876D1*
X3226716Y2139106D1*
X3228735Y2132043D1*
X3229898Y2124791D1*
X3230172Y2116863D1*
X3229515Y2109548D1*
X3227990Y2102363D1*
X3225620Y2095411D1*
X3222438Y2088792D1*
X3218489Y2082599D1*
X3213830Y2076920D1*
X3208528Y2071839D1*
X3202658Y2067424D1*
X3196302Y2063742D1*
X3189554Y2060843D1*
X3182508Y2058770D1*
X3175266Y2057552D1*
X3167928Y2057205D1*
X3160603Y2057735D1*
X3153393Y2059136D1*
X3146401Y2061385D1*
X3139728Y2064452D1*
X3133468Y2068293D1*
X3127709Y2072852D1*
X3122536Y2078066D1*
X3118022Y2083859D1*
X3114229Y2090149D1*
X3111213Y2096847D1*
X3109019Y2103855D1*
X3107674Y2111077D1*
X3107201Y2118406D1*
X3107604Y2125739D1*
X3108878Y2132972D1*
X3111007Y2140002D1*
X3113959Y2146728D1*
X3117690Y2153054D1*
X3122149Y2158890D1*
X3127272Y2164153D1*
X3132888Y2168695D1*
X3125213Y2175213D1*
X3118945Y2182552D1*
X3113903Y2190780D1*
X3110210Y2199696D1*
X3107957Y2209079D1*
X3107200Y2218700D1*
X3107957Y2228321D1*
X3110210Y2237704D1*
X3113903Y2246620D1*
X3118945Y2254848D1*
X3125213Y2262187D1*
X3132552Y2268455D1*
X3132911Y2268696D1*
X3128759Y2271935D1*
X3121935Y2278759D1*
X3116263Y2286566D1*
X3111881Y2295165D1*
X3108899Y2304343D1*
X3107389Y2313875D1*
Y2323525D1*
X3108899Y2333057D1*
X3111881Y2342235D1*
X3116263Y2350834D1*
X3121935Y2358641D1*
X3128759Y2365465D1*
X3136566Y2371137D1*
X3145165Y2375519D1*
X3154343Y2378501D1*
X3163875Y2380011D1*
X3173525D1*
X3183057Y2378501D1*
X3192235Y2375519D1*
X3200834Y2371137D1*
X3208641Y2365465D1*
X3215465Y2358641D1*
X3221137Y2350834D1*
X3225519Y2342235D1*
X3228501Y2333057D1*
X3230011Y2323525D1*
Y2313875D1*
Y1963875D2*
X3228501Y1954343D1*
X3225519Y1945165D1*
X3221137Y1936566D1*
X3215465Y1928759D1*
X3208641Y1921935D1*
X3204489Y1918704D1*
X3208641Y1915465D1*
X3215465Y1908641D1*
X3221137Y1900834D1*
X3225519Y1892235D1*
X3228501Y1883057D1*
X3230011Y1873525D1*
Y1863875D1*
X3228501Y1854343D1*
X3225519Y1845165D1*
X3221137Y1836566D1*
X3215465Y1828759D1*
X3208641Y1821935D1*
X3204489Y1818704D1*
X3210827Y1813504D1*
X3215869Y1808163D1*
X3220237Y1802259D1*
X3223871Y1795876D1*
X3226716Y1789106D1*
X3228735Y1782043D1*
X3229898Y1774791D1*
X3230172Y1766863D1*
X3229515Y1759548D1*
X3227990Y1752363D1*
X3225620Y1745411D1*
X3222438Y1738792D1*
X3218489Y1732599D1*
X3213830Y1726920D1*
X3208528Y1721839D1*
X3202658Y1717424D1*
X3196302Y1713742D1*
X3189554Y1710843D1*
X3182508Y1708770D1*
X3175266Y1707552D1*
X3167928Y1707205D1*
X3160603Y1707735D1*
X3153393Y1709136D1*
X3146401Y1711385D1*
X3139728Y1714452D1*
X3133468Y1718293D1*
X3127709Y1722852D1*
X3122536Y1728066D1*
X3118022Y1733859D1*
X3114229Y1740149D1*
X3111213Y1746847D1*
X3109019Y1753855D1*
X3107674Y1761077D1*
X3107201Y1768406D1*
X3107604Y1775739D1*
X3108878Y1782972D1*
X3111007Y1790002D1*
X3113959Y1796728D1*
X3117690Y1803054D1*
X3122149Y1808890D1*
X3127272Y1814153D1*
X3132888Y1818695D1*
X3125213Y1825213D1*
X3118945Y1832552D1*
X3113903Y1840780D1*
X3110210Y1849696D1*
X3107957Y1859079D1*
X3107200Y1868700D1*
X3107957Y1878321D1*
X3110210Y1887704D1*
X3113903Y1896620D1*
X3118945Y1904848D1*
X3125213Y1912187D1*
X3132552Y1918455D1*
X3132911Y1918696D1*
X3128759Y1921935D1*
X3121935Y1928759D1*
X3116263Y1936566D1*
X3111881Y1945165D1*
X3108899Y1954343D1*
X3107389Y1963875D1*
Y1973525D1*
X3108899Y1983057D1*
X3111881Y1992235D1*
X3116263Y2000834D1*
X3121935Y2008641D1*
X3128759Y2015465D1*
X3136566Y2021137D1*
X3145165Y2025519D1*
X3154343Y2028501D1*
X3163875Y2030011D1*
X3173525D1*
X3183057Y2028501D1*
X3192235Y2025519D1*
X3200834Y2021137D1*
X3208641Y2015465D1*
X3215465Y2008641D1*
X3221137Y2000834D1*
X3225519Y1992235D1*
X3228501Y1983057D1*
X3230011Y1973525D1*
Y1963875D1*
Y1613875D2*
X3228501Y1604343D1*
X3225519Y1595165D1*
X3221137Y1586566D1*
X3215465Y1578759D1*
X3208641Y1571935D1*
X3204489Y1568704D1*
X3208641Y1565465D1*
X3215465Y1558641D1*
X3221137Y1550834D1*
X3225519Y1542235D1*
X3228501Y1533057D1*
X3230011Y1523525D1*
Y1513875D1*
X3228501Y1504343D1*
X3225519Y1495165D1*
X3221137Y1486566D1*
X3215465Y1478759D1*
X3208641Y1471935D1*
X3204489Y1468704D1*
X3210827Y1463504D1*
X3215869Y1458163D1*
X3220237Y1452259D1*
X3223871Y1445876D1*
X3226716Y1439106D1*
X3228735Y1432043D1*
X3229898Y1424791D1*
X3230172Y1416863D1*
X3229515Y1409548D1*
X3227990Y1402363D1*
X3225620Y1395411D1*
X3222438Y1388792D1*
X3218489Y1382599D1*
X3213830Y1376920D1*
X3208528Y1371839D1*
X3202658Y1367424D1*
X3196302Y1363742D1*
X3189554Y1360843D1*
X3182508Y1358770D1*
X3175266Y1357552D1*
X3167928Y1357205D1*
X3160603Y1357735D1*
X3153393Y1359136D1*
X3146401Y1361385D1*
X3139728Y1364452D1*
X3133468Y1368293D1*
X3127709Y1372852D1*
X3122536Y1378066D1*
X3118022Y1383859D1*
X3114229Y1390149D1*
X3111213Y1396847D1*
X3109019Y1403855D1*
X3107674Y1411077D1*
X3107201Y1418406D1*
X3107604Y1425739D1*
X3108878Y1432972D1*
X3111007Y1440002D1*
X3113959Y1446728D1*
X3117690Y1453054D1*
X3122149Y1458890D1*
X3127272Y1464153D1*
X3132888Y1468695D1*
X3125213Y1475213D1*
X3118945Y1482552D1*
X3113903Y1490780D1*
X3110210Y1499696D1*
X3107957Y1509079D1*
X3107200Y1518700D1*
X3107957Y1528321D1*
X3110210Y1537704D1*
X3113903Y1546620D1*
X3118945Y1554848D1*
X3125213Y1562187D1*
X3132552Y1568455D1*
X3132911Y1568696D1*
X3128759Y1571935D1*
X3121935Y1578759D1*
X3116263Y1586566D1*
X3111881Y1595165D1*
X3108899Y1604343D1*
X3107389Y1613875D1*
Y1623525D1*
X3108899Y1633057D1*
X3111881Y1642235D1*
X3116263Y1650834D1*
X3121935Y1658641D1*
X3128759Y1665465D1*
X3136566Y1671137D1*
X3145165Y1675519D1*
X3154343Y1678501D1*
X3163875Y1680011D1*
X3173525D1*
X3183057Y1678501D1*
X3192235Y1675519D1*
X3200834Y1671137D1*
X3208641Y1665465D1*
X3215465Y1658641D1*
X3221137Y1650834D1*
X3225519Y1642235D1*
X3228501Y1633057D1*
X3230011Y1623525D1*
Y1613875D1*
X755011Y2063875D2*
X753501Y2054343D1*
X750519Y2045165D1*
X746137Y2036566D1*
X740465Y2028759D1*
X733641Y2021935D1*
X729489Y2018704D1*
X733641Y2015465D1*
X740465Y2008641D1*
X746137Y2000834D1*
X750519Y1992235D1*
X753501Y1983057D1*
X755011Y1973525D1*
Y1963875D1*
X753501Y1954343D1*
X750519Y1945165D1*
X746137Y1936566D1*
X740465Y1928759D1*
X733641Y1921935D1*
X729489Y1918704D1*
X733641Y1915465D1*
X740465Y1908641D1*
X746137Y1900834D1*
X750519Y1892235D1*
X753501Y1883057D1*
X755011Y1873525D1*
Y1863875D1*
X753501Y1854343D1*
X750519Y1845165D1*
X746137Y1836566D1*
X740465Y1828759D1*
X733641Y1821935D1*
X725834Y1816263D1*
X717235Y1811881D1*
X708057Y1808899D1*
X698525Y1807389D1*
X688875D1*
X679343Y1808899D1*
X670165Y1811881D1*
X661566Y1816263D1*
X653759Y1821935D1*
X646935Y1828759D1*
X641263Y1836566D1*
X636881Y1845165D1*
X633899Y1854343D1*
X632389Y1863875D1*
Y1873525D1*
X633899Y1883057D1*
X636881Y1892235D1*
X641263Y1900834D1*
X646935Y1908641D1*
X653759Y1915465D1*
X657911Y1918696D1*
X653759Y1921935D1*
X646935Y1928759D1*
X641263Y1936566D1*
X636881Y1945165D1*
X633899Y1954343D1*
X632389Y1963875D1*
Y1973525D1*
X633899Y1983057D1*
X636881Y1992235D1*
X641263Y2000834D1*
X646935Y2008641D1*
X653759Y2015465D1*
X657911Y2018696D1*
X653759Y2021935D1*
X646935Y2028759D1*
X641263Y2036566D1*
X636881Y2045165D1*
X633899Y2054343D1*
X632389Y2063875D1*
Y2073525D1*
X633899Y2083057D1*
X636881Y2092235D1*
X641263Y2100834D1*
X646935Y2108641D1*
X653759Y2115465D1*
X657911Y2118696D1*
X653759Y2121935D1*
X646935Y2128759D1*
X641263Y2136566D1*
X636881Y2145165D1*
X633899Y2154343D1*
X632389Y2163875D1*
Y2173525D1*
X633899Y2183057D1*
X636881Y2192235D1*
X641263Y2200834D1*
X646935Y2208641D1*
X653759Y2215465D1*
X661566Y2221137D1*
X670165Y2225519D1*
X679343Y2228501D1*
X688875Y2230011D1*
X698525D1*
X708057Y2228501D1*
X717235Y2225519D1*
X725834Y2221137D1*
X733641Y2215465D1*
X740465Y2208641D1*
X746137Y2200834D1*
X750519Y2192235D1*
X753501Y2183057D1*
X755011Y2173525D1*
Y2163875D1*
X753501Y2154343D1*
X750519Y2145165D1*
X746137Y2136566D1*
X740465Y2128759D1*
X733641Y2121935D1*
X729489Y2118704D1*
X733641Y2115465D1*
X740465Y2108641D1*
X746137Y2100834D1*
X750519Y2092235D1*
X753501Y2083057D1*
X755011Y2073525D1*
Y2063875D1*
Y1663875D2*
X753501Y1654343D1*
X750519Y1645165D1*
X746137Y1636566D1*
X740465Y1628759D1*
X733641Y1621935D1*
X729489Y1618704D1*
X733641Y1615465D1*
X740465Y1608641D1*
X746137Y1600834D1*
X750519Y1592235D1*
X753501Y1583057D1*
X755011Y1573525D1*
Y1563875D1*
X753501Y1554343D1*
X750519Y1545165D1*
X746137Y1536566D1*
X740465Y1528759D1*
X733641Y1521935D1*
X725834Y1516263D1*
X717235Y1511881D1*
X708057Y1508899D1*
X698525Y1507389D1*
X688875D1*
X679343Y1508899D1*
X670165Y1511881D1*
X661566Y1516263D1*
X653759Y1521935D1*
X646935Y1528759D1*
X641263Y1536566D1*
X636881Y1545165D1*
X633899Y1554343D1*
X632389Y1563875D1*
Y1573525D1*
X633899Y1583057D1*
X636881Y1592235D1*
X641263Y1600834D1*
X646935Y1608641D1*
X653759Y1615465D1*
X657911Y1618696D1*
X653759Y1621935D1*
X646935Y1628759D1*
X641263Y1636566D1*
X636881Y1645165D1*
X633899Y1654343D1*
X632389Y1663875D1*
Y1673525D1*
X633899Y1683057D1*
X636881Y1692235D1*
X641263Y1700834D1*
X646935Y1708641D1*
X653759Y1715465D1*
X661566Y1721137D1*
X670165Y1725519D1*
X679343Y1728501D1*
X688875Y1730011D1*
X698525D1*
X708057Y1728501D1*
X717235Y1725519D1*
X725834Y1721137D1*
X733641Y1715465D1*
X740465Y1708641D1*
X746137Y1700834D1*
X750519Y1692235D1*
X753501Y1683057D1*
X755011Y1673525D1*
Y1663875D1*
Y1363875D2*
X753501Y1354343D1*
X750519Y1345165D1*
X746137Y1336566D1*
X740465Y1328759D1*
X733641Y1321935D1*
X729489Y1318704D1*
X733641Y1315465D1*
X740465Y1308641D1*
X746137Y1300834D1*
X750519Y1292235D1*
X753501Y1283057D1*
X755011Y1273525D1*
Y1263875D1*
X753501Y1254343D1*
X750519Y1245165D1*
X746137Y1236566D1*
X740465Y1228759D1*
X733641Y1221935D1*
X725834Y1216263D1*
X717235Y1211881D1*
X708057Y1208899D1*
X698525Y1207389D1*
X688875D1*
X679343Y1208899D1*
X670165Y1211881D1*
X661566Y1216263D1*
X653759Y1221935D1*
X646935Y1228759D1*
X641263Y1236566D1*
X636881Y1245165D1*
X633899Y1254343D1*
X632389Y1263875D1*
Y1273525D1*
X633899Y1283057D1*
X636881Y1292235D1*
X641263Y1300834D1*
X646935Y1308641D1*
X653759Y1315465D1*
X657911Y1318696D1*
X653759Y1321935D1*
X646935Y1328759D1*
X641263Y1336566D1*
X636881Y1345165D1*
X633899Y1354343D1*
X632389Y1363875D1*
Y1373525D1*
X633899Y1383057D1*
X636881Y1392235D1*
X641263Y1400834D1*
X646935Y1408641D1*
X653759Y1415465D1*
X661566Y1421137D1*
X670165Y1425519D1*
X679343Y1428501D1*
X688875Y1430011D1*
X698525D1*
X708057Y1428501D1*
X717235Y1425519D1*
X725834Y1421137D1*
X733641Y1415465D1*
X740465Y1408641D1*
X746137Y1400834D1*
X750519Y1392235D1*
X753501Y1383057D1*
X755011Y1373525D1*
Y1363875D1*
Y1063875D2*
X753501Y1054343D1*
X750519Y1045165D1*
X746137Y1036566D1*
X740465Y1028759D1*
X733641Y1021935D1*
X729489Y1018704D1*
X733641Y1015465D1*
X740465Y1008641D1*
X746137Y1000834D1*
X750519Y992235D1*
X753501Y983057D1*
X755011Y973525D1*
Y963875D1*
X753501Y954343D1*
X750519Y945165D1*
X746137Y936566D1*
X740465Y928759D1*
X733641Y921935D1*
X725834Y916263D1*
X717235Y911881D1*
X708057Y908899D1*
X698525Y907389D1*
X688875D1*
X679343Y908899D1*
X670165Y911881D1*
X661566Y916263D1*
X653759Y921935D1*
X646935Y928759D1*
X641263Y936566D1*
X636881Y945165D1*
X633899Y954343D1*
X632389Y963875D1*
Y973525D1*
X633899Y983057D1*
X636881Y992235D1*
X641263Y1000834D1*
X646935Y1008641D1*
X653759Y1015465D1*
X657911Y1018696D1*
X653759Y1021935D1*
X646935Y1028759D1*
X641263Y1036566D1*
X636881Y1045165D1*
X633899Y1054343D1*
X632389Y1063875D1*
Y1073525D1*
X633899Y1083057D1*
X636881Y1092235D1*
X641263Y1100834D1*
X646935Y1108641D1*
X653759Y1115465D1*
X661566Y1121137D1*
X670165Y1125519D1*
X679343Y1128501D1*
X688875Y1130011D1*
X698525D1*
X708057Y1128501D1*
X717235Y1125519D1*
X725834Y1121137D1*
X733641Y1115465D1*
X740465Y1108641D1*
X746137Y1100834D1*
X750519Y1092235D1*
X753501Y1083057D1*
X755011Y1073525D1*
Y1063875D1*
Y688875D2*
X753501Y679343D1*
X750519Y670165D1*
X746137Y661566D1*
X740465Y653759D1*
X733641Y646935D1*
X729489Y643704D1*
X735827Y638504D1*
X740869Y633163D1*
X745237Y627259D1*
X748871Y620876D1*
X751716Y614106D1*
X753735Y607043D1*
X754898Y599791D1*
X755172Y591863D1*
X754515Y584548D1*
X752990Y577363D1*
X750620Y570411D1*
X747438Y563792D1*
X743489Y557599D1*
X738830Y551920D1*
X733528Y546839D1*
X727658Y542424D1*
X721302Y538742D1*
X714554Y535843D1*
X707508Y533770D1*
X700266Y532552D1*
X692928Y532205D1*
X685603Y532735D1*
X678393Y534136D1*
X671401Y536385D1*
X664728Y539452D1*
X658468Y543293D1*
X652709Y547852D1*
X647536Y553066D1*
X643022Y558859D1*
X639229Y565149D1*
X636213Y571847D1*
X634019Y578855D1*
X632674Y586077D1*
X632201Y593406D1*
X632604Y600739D1*
X633878Y607972D1*
X636007Y615002D1*
X638959Y621728D1*
X642690Y628054D1*
X647149Y633890D1*
X652272Y639153D1*
X657888Y643695D1*
X650213Y650213D1*
X643945Y657552D1*
X638903Y665780D1*
X635210Y674696D1*
X632957Y684079D1*
X632200Y693700D1*
X632957Y703321D1*
X635210Y712704D1*
X638903Y721620D1*
X643945Y729848D1*
X650213Y737187D1*
X657552Y743455D1*
X665780Y748497D1*
X674696Y752190D1*
X684079Y754443D1*
X693700Y755200D1*
X703321Y754443D1*
X712704Y752190D1*
X721620Y748497D1*
X729848Y743455D1*
X737187Y737187D1*
X743455Y729848D1*
X748497Y721620D1*
X752190Y712704D1*
X754443Y703321D1*
X755200Y693700D1*
X755011Y688875D1*
X1149554Y2114304D2*
X1148179Y2105621D1*
X1145462Y2097259D1*
X1141472Y2089426D1*
X1136304Y2082313D1*
X1130087Y2076096D1*
X1122974Y2070928D1*
X1119136Y2068621D1*
X1126632Y2064027D1*
X1133318Y2058318D1*
X1139027Y2051632D1*
X1143621Y2044136D1*
X1146985Y2036014D1*
X1149037Y2027465D1*
X1149728Y2018700D1*
X1149037Y2009935D1*
X1146985Y2001386D1*
X1143621Y1993264D1*
X1139027Y1985768D1*
X1133318Y1979082D1*
X1126632Y1973373D1*
X1118964Y1968700D1*
X1126632Y1964027D1*
X1133318Y1958318D1*
X1139027Y1951632D1*
X1143621Y1944136D1*
X1146985Y1936014D1*
X1149037Y1927465D1*
X1149728Y1918700D1*
X1149037Y1909935D1*
X1146985Y1901386D1*
X1143621Y1893264D1*
X1139027Y1885768D1*
X1133318Y1879082D1*
X1126632Y1873373D1*
X1118964Y1868700D1*
X1126632Y1864027D1*
X1133318Y1858318D1*
X1139027Y1851632D1*
X1143621Y1844136D1*
X1146985Y1836014D1*
X1149037Y1827465D1*
X1149728Y1818700D1*
X1149037Y1809935D1*
X1146985Y1801386D1*
X1143621Y1793264D1*
X1139027Y1785768D1*
X1133318Y1779082D1*
X1126632Y1773373D1*
X1118964Y1768700D1*
X1126632Y1764027D1*
X1133318Y1758318D1*
X1139027Y1751632D1*
X1143621Y1744136D1*
X1146985Y1736014D1*
X1149037Y1727465D1*
X1149728Y1718700D1*
X1149037Y1709935D1*
X1146985Y1701386D1*
X1143621Y1693264D1*
X1139027Y1685768D1*
X1133318Y1679082D1*
X1126632Y1673373D1*
X1119136Y1668779D1*
X1111014Y1665415D1*
X1102465Y1663363D1*
X1093700Y1662672D1*
X1084935Y1663363D1*
X1076386Y1665415D1*
X1068264Y1668779D1*
X1060768Y1673373D1*
X1054082Y1679082D1*
X1048373Y1685768D1*
X1043779Y1693264D1*
X1040415Y1701386D1*
X1038363Y1709935D1*
X1037672Y1718700D1*
X1038363Y1727465D1*
X1040415Y1736014D1*
X1043779Y1744136D1*
X1048373Y1751632D1*
X1054082Y1758318D1*
X1060768Y1764027D1*
X1068436Y1768700D1*
X1060768Y1773373D1*
X1054082Y1779082D1*
X1048373Y1785768D1*
X1043779Y1793264D1*
X1040415Y1801386D1*
X1038363Y1809935D1*
X1037672Y1818700D1*
X1038363Y1827465D1*
X1040415Y1836014D1*
X1043779Y1844136D1*
X1048373Y1851632D1*
X1054082Y1858318D1*
X1060768Y1864027D1*
X1068436Y1868700D1*
X1060768Y1873373D1*
X1054082Y1879082D1*
X1048373Y1885768D1*
X1043779Y1893264D1*
X1040415Y1901386D1*
X1038363Y1909935D1*
X1037672Y1918700D1*
X1038363Y1927465D1*
X1040415Y1936014D1*
X1043779Y1944136D1*
X1048373Y1951632D1*
X1054082Y1958318D1*
X1060768Y1964027D1*
X1068436Y1968700D1*
X1060768Y1973373D1*
X1054082Y1979082D1*
X1048373Y1985768D1*
X1043779Y1993264D1*
X1040415Y2001386D1*
X1038363Y2009935D1*
X1037672Y2018700D1*
X1038363Y2027465D1*
X1040415Y2036014D1*
X1043779Y2044136D1*
X1048373Y2051632D1*
X1054082Y2058318D1*
X1060768Y2064027D1*
X1068436Y2068700D1*
X1060768Y2073373D1*
X1054082Y2079082D1*
X1048373Y2085768D1*
X1043779Y2093264D1*
X1040415Y2101386D1*
X1038363Y2109935D1*
X1037672Y2118700D1*
X1038363Y2127465D1*
X1040415Y2136014D1*
X1043779Y2144136D1*
X1048373Y2151632D1*
X1054082Y2158318D1*
X1060768Y2164027D1*
X1068264Y2168621D1*
X1076386Y2171985D1*
X1084935Y2174037D1*
X1093700Y2174728D1*
X1102465Y2174037D1*
X1111014Y2171985D1*
X1119136Y2168621D1*
X1126632Y2164027D1*
X1133318Y2158318D1*
X1139027Y2151632D1*
X1143621Y2144136D1*
X1146985Y2136014D1*
X1149037Y2127465D1*
X1149728Y2118700D1*
X1149554Y2114304D1*
X2249697Y1716863D2*
X2248976Y1709554D1*
X2247305Y1702403D1*
X2244713Y1695532D1*
X2241245Y1689060D1*
X2236960Y1683095D1*
X2231931Y1677743D1*
X2226246Y1673095D1*
X2220002Y1669230D1*
X2213305Y1666214D1*
X2206272Y1664102D1*
X2199023Y1662926D1*
X2191682Y1662709D1*
X2184376Y1663453D1*
X2177230Y1665148D1*
X2170368Y1667762D1*
X2163906Y1671251D1*
X2157956Y1675556D1*
X2152620Y1680602D1*
X2147990Y1686302D1*
X2144145Y1692558D1*
X2141151Y1699264D1*
X2139061Y1706305D1*
X2137909Y1713558D1*
X2137716Y1720899D1*
X2138485Y1728203D1*
X2140201Y1735343D1*
X2142838Y1742197D1*
X2146348Y1748648D1*
X2150671Y1754583D1*
X2155734Y1759903D1*
X2161449Y1764515D1*
X2167718Y1768339D1*
X2168264Y1768779D1*
X2160768Y1773373D1*
X2154082Y1779082D1*
X2148373Y1785768D1*
X2143779Y1793264D1*
X2140415Y1801386D1*
X2138363Y1809935D1*
X2137672Y1818700D1*
X2138363Y1827465D1*
X2140415Y1836014D1*
X2143779Y1844136D1*
X2148373Y1851632D1*
X2154082Y1858318D1*
X2160768Y1864027D1*
X2168436Y1868700D1*
X2160768Y1873373D1*
X2154082Y1879082D1*
X2148373Y1885768D1*
X2143779Y1893264D1*
X2140415Y1901386D1*
X2138363Y1909935D1*
X2137672Y1918700D1*
X2138363Y1927465D1*
X2140415Y1936014D1*
X2143779Y1944136D1*
X2148373Y1951632D1*
X2154082Y1958318D1*
X2160768Y1964027D1*
X2168436Y1968700D1*
X2160768Y1973373D1*
X2154082Y1979082D1*
X2148373Y1985768D1*
X2143779Y1993264D1*
X2140415Y2001386D1*
X2138363Y2009935D1*
X2137672Y2018700D1*
X2138363Y2027465D1*
X2140415Y2036014D1*
X2143779Y2044136D1*
X2148373Y2051632D1*
X2154082Y2058318D1*
X2160768Y2064027D1*
X2168436Y2068700D1*
X2160768Y2073373D1*
X2154082Y2079082D1*
X2148373Y2085768D1*
X2143779Y2093264D1*
X2140415Y2101386D1*
X2138363Y2109935D1*
X2137672Y2118700D1*
X2138363Y2127465D1*
X2140415Y2136014D1*
X2143779Y2144136D1*
X2148373Y2151632D1*
X2154082Y2158318D1*
X2160768Y2164027D1*
X2168264Y2168621D1*
X2176386Y2171985D1*
X2184935Y2174037D1*
X2193700Y2174728D1*
X2202465Y2174037D1*
X2211014Y2171985D1*
X2219136Y2168621D1*
X2226632Y2164027D1*
X2233318Y2158318D1*
X2239027Y2151632D1*
X2243621Y2144136D1*
X2246985Y2136014D1*
X2249037Y2127465D1*
X2249728Y2118700D1*
X2249037Y2109935D1*
X2246985Y2101386D1*
X2243621Y2093264D1*
X2239027Y2085768D1*
X2233318Y2079082D1*
X2226632Y2073373D1*
X2218964Y2068700D1*
X2226632Y2064027D1*
X2233318Y2058318D1*
X2238974Y2051700D1*
X2280002D1*
X2413348Y2185016D1*
X2412672Y2193700D1*
X2413363Y2202465D1*
X2415415Y2211014D1*
X2418779Y2219136D1*
X2423373Y2226632D1*
X2429082Y2233318D1*
X2435768Y2239027D1*
X2443264Y2243621D1*
X2451386Y2246985D1*
X2459935Y2249037D1*
X2468700Y2249728D1*
X2477465Y2249037D1*
X2486014Y2246985D1*
X2494136Y2243621D1*
X2501632Y2239027D1*
X2508318Y2233318D1*
X2514027Y2226632D1*
X2518700Y2218964D1*
X2522355Y2225184D1*
X2526871Y2230976D1*
X2532106Y2236125D1*
X2537969Y2240548D1*
X2544360Y2244165D1*
X2551170Y2246914D1*
X2558280Y2248750D1*
X2565570Y2249640D1*
X2572914Y2249569D1*
X2580184Y2248537D1*
X2587259Y2246565D1*
X2594014Y2243683D1*
X2600334Y2239943D1*
X2606109Y2235409D1*
X2611243Y2230157D1*
X2615646Y2224279D1*
X2618695Y2218974D1*
X2623373Y2226632D1*
X2629082Y2233318D1*
X2635768Y2239027D1*
X2643264Y2243621D1*
X2651386Y2246985D1*
X2659935Y2249037D1*
X2668700Y2249728D1*
X2677465Y2249037D1*
X2686014Y2246985D1*
X2694136Y2243621D1*
X2701632Y2239027D1*
X2708318Y2233318D1*
X2714027Y2226632D1*
X2718700Y2218964D1*
X2722355Y2225184D1*
X2726871Y2230976D1*
X2732106Y2236125D1*
X2737969Y2240548D1*
X2744360Y2244165D1*
X2751170Y2246914D1*
X2758280Y2248750D1*
X2765570Y2249640D1*
X2772914Y2249569D1*
X2780184Y2248537D1*
X2787259Y2246565D1*
X2794014Y2243683D1*
X2800334Y2239943D1*
X2806109Y2235409D1*
X2811243Y2230157D1*
X2815646Y2224279D1*
X2819243Y2217876D1*
X2821970Y2211058D1*
X2823784Y2203941D1*
X2824650Y2196649D1*
X2824607Y2190028D1*
X2823646Y2182747D1*
X2821742Y2175655D1*
X2818926Y2168872D1*
X2815247Y2162516D1*
X2810770Y2156696D1*
X2805567Y2151511D1*
X2799733Y2147052D1*
X2793365Y2143394D1*
X2786574Y2140600D1*
X2779476Y2138718D1*
X2772191Y2137781D1*
X2764847Y2137805D1*
X2757570Y2138789D1*
X2750483Y2140717D1*
X2743710Y2143554D1*
X2737367Y2147254D1*
X2731561Y2151751D1*
X2726393Y2156969D1*
X2721952Y2162818D1*
X2718707Y2168423D1*
X2714027Y2160768D1*
X2708318Y2154082D1*
X2701632Y2148373D1*
X2694136Y2143779D1*
X2686014Y2140415D1*
X2677465Y2138363D1*
X2668700Y2137672D1*
X2659935Y2138363D1*
X2651386Y2140415D1*
X2643264Y2143779D1*
X2635768Y2148373D1*
X2629082Y2154082D1*
X2623373Y2160768D1*
X2618700Y2168436D1*
X2615247Y2162516D1*
X2610770Y2156696D1*
X2605567Y2151511D1*
X2599733Y2147052D1*
X2593365Y2143394D1*
X2586574Y2140600D1*
X2579476Y2138718D1*
X2572191Y2137781D1*
X2564847Y2137805D1*
X2557570Y2138789D1*
X2550483Y2140717D1*
X2543710Y2143554D1*
X2537367Y2147254D1*
X2531561Y2151751D1*
X2526393Y2156969D1*
X2521952Y2162818D1*
X2518707Y2168423D1*
X2514027Y2160768D1*
X2508318Y2154082D1*
X2501632Y2148373D1*
X2494136Y2143779D1*
X2486014Y2140415D1*
X2477465Y2138363D1*
X2468700Y2137672D1*
X2460020Y2138352D1*
X2315132Y1993607D1*
X2310943Y1990562D1*
X2306329Y1988212D1*
X2301403Y1986612D1*
X2296289Y1985801D1*
X2238977Y1985700D1*
X2233318Y1979082D1*
X2226632Y1973373D1*
X2218964Y1968700D1*
X2226632Y1964027D1*
X2233318Y1958318D1*
X2239027Y1951632D1*
X2243621Y1944136D1*
X2246985Y1936014D1*
X2249037Y1927465D1*
X2249728Y1918700D1*
X2249037Y1909935D1*
X2246985Y1901386D1*
X2243621Y1893264D1*
X2239027Y1885768D1*
X2233318Y1879082D1*
X2226632Y1873373D1*
X2218964Y1868700D1*
X2226632Y1864027D1*
X2233318Y1858318D1*
X2239027Y1851632D1*
X2243621Y1844136D1*
X2246985Y1836014D1*
X2249037Y1827465D1*
X2249728Y1818700D1*
X2249037Y1809935D1*
X2246985Y1801386D1*
X2243621Y1793264D1*
X2239027Y1785768D1*
X2233318Y1779082D1*
X2226632Y1773373D1*
X2218964Y1768700D1*
X2225334Y1764943D1*
X2231109Y1760409D1*
X2236243Y1755157D1*
X2240646Y1749279D1*
X2244243Y1742876D1*
X2246970Y1736058D1*
X2248784Y1728941D1*
X2249650Y1721649D1*
X2249697Y1716863D1*
X2743452Y1617453D2*
X2742077Y1608771D1*
X2739360Y1600409D1*
X2735369Y1592575D1*
X2730201Y1585462D1*
X2723985Y1579246D1*
X2716872Y1574078D1*
X2709039Y1570087D1*
X2700676Y1567371D1*
X2691994Y1565995D1*
X2683201D1*
X2674519Y1567371D1*
X2666157Y1570087D1*
X2658323Y1574078D1*
X2651210Y1579246D1*
X2644994Y1585462D1*
X2639826Y1592575D1*
X2635835Y1600409D1*
X2633119Y1608771D1*
X2631743Y1617453D1*
Y1626246D1*
X2633119Y1634928D1*
X2635835Y1643291D1*
X2639826Y1651124D1*
X2644994Y1658237D1*
X2651210Y1664453D1*
X2658323Y1669621D1*
X2666157Y1673612D1*
X2674519Y1676329D1*
X2683201Y1677704D1*
X2691994D1*
X2700676Y1676329D1*
X2709039Y1673612D1*
X2716872Y1669621D1*
X2723985Y1664453D1*
X2730201Y1658237D1*
X2735369Y1651124D1*
X2739360Y1643291D1*
X2742077Y1634928D1*
X2743452Y1626246D1*
Y1617453D1*
X2605657D2*
X2604281Y1608771D1*
X2601565Y1600409D1*
X2597574Y1592575D1*
X2592406Y1585462D1*
X2586190Y1579246D1*
X2579077Y1574078D1*
X2571243Y1570087D1*
X2562881Y1567371D1*
X2554199Y1565995D1*
X2545406D1*
X2536724Y1567371D1*
X2528361Y1570087D1*
X2520528Y1574078D1*
X2513415Y1579246D1*
X2507199Y1585462D1*
X2502031Y1592575D1*
X2498040Y1600409D1*
X2495323Y1608771D1*
X2493948Y1617453D1*
Y1626246D1*
X2495323Y1634928D1*
X2498040Y1643291D1*
X2502031Y1651124D1*
X2507199Y1658237D1*
X2513415Y1664453D1*
X2520528Y1669621D1*
X2528361Y1673612D1*
X2536724Y1676329D1*
X2545406Y1677704D1*
X2554199D1*
X2562881Y1676329D1*
X2571243Y1673612D1*
X2579077Y1669621D1*
X2586190Y1664453D1*
X2592406Y1658237D1*
X2597574Y1651124D1*
X2601565Y1643291D1*
X2604281Y1634928D1*
X2605657Y1626246D1*
Y1617453D1*
X1399554Y714304D2*
X1398179Y705621D1*
X1395462Y697259D1*
X1391472Y689426D1*
X1386304Y682313D1*
X1380087Y676096D1*
X1372974Y670928D1*
X1365141Y666938D1*
X1356779Y664221D1*
X1348096Y662846D1*
X1339304D1*
X1330621Y664221D1*
X1322259Y666938D1*
X1314426Y670928D1*
X1307313Y676096D1*
X1301096Y682313D1*
X1295928Y689426D1*
X1293700Y693436D1*
X1290247Y687516D1*
X1285770Y681696D1*
X1280567Y676511D1*
X1274733Y672052D1*
X1268365Y668394D1*
X1261574Y665600D1*
X1254476Y663718D1*
X1247191Y662781D1*
X1239847Y662805D1*
X1232570Y663789D1*
X1225483Y665717D1*
X1218710Y668554D1*
X1212367Y672254D1*
X1206561Y676751D1*
X1201393Y681969D1*
X1196952Y687818D1*
X1193707Y693423D1*
X1189027Y685768D1*
X1183318Y679082D1*
X1176632Y673373D1*
X1169136Y668779D1*
X1161014Y665415D1*
X1152465Y663363D1*
X1143700Y662672D1*
X1134935Y663363D1*
X1126386Y665415D1*
X1118264Y668779D1*
X1110768Y673373D1*
X1104082Y679082D1*
X1098373Y685768D1*
X1093700Y693436D1*
X1090247Y687516D1*
X1085770Y681696D1*
X1080567Y676511D1*
X1074733Y672052D1*
X1068365Y668394D1*
X1061574Y665600D1*
X1054476Y663718D1*
X1047191Y662781D1*
X1039847Y662805D1*
X1032570Y663789D1*
X1025483Y665717D1*
X1018710Y668554D1*
X1012367Y672254D1*
X1006561Y676751D1*
X1001393Y681969D1*
X996952Y687818D1*
X993314Y694197D1*
X990543Y700998D1*
X988684Y708103D1*
X987771Y715389D1*
X987818Y722733D1*
X988826Y730007D1*
X990776Y737087D1*
X993636Y743852D1*
X997355Y750184D1*
X1001871Y755976D1*
X1007106Y761125D1*
X1012969Y765548D1*
X1019360Y769165D1*
X1026170Y771914D1*
X1033280Y773750D1*
X1040570Y774640D1*
X1047914Y774569D1*
X1055184Y773537D1*
X1062259Y771565D1*
X1069014Y768683D1*
X1075334Y764943D1*
X1081109Y760409D1*
X1086243Y755157D1*
X1090646Y749279D1*
X1093695Y743974D1*
X1098373Y751632D1*
X1104082Y758318D1*
X1110768Y764027D1*
X1118264Y768621D1*
X1126386Y771985D1*
X1134935Y774037D1*
X1143700Y774728D1*
X1152465Y774037D1*
X1161014Y771985D1*
X1169136Y768621D1*
X1176632Y764027D1*
X1183318Y758318D1*
X1189027Y751632D1*
X1193700Y743964D1*
X1197355Y750184D1*
X1201871Y755976D1*
X1207106Y761125D1*
X1212969Y765548D1*
X1219360Y769165D1*
X1226170Y771914D1*
X1233280Y773750D1*
X1240570Y774640D1*
X1247914Y774569D1*
X1255184Y773537D1*
X1262259Y771565D1*
X1269014Y768683D1*
X1275334Y764943D1*
X1281109Y760409D1*
X1286243Y755157D1*
X1290646Y749279D1*
X1293695Y743974D1*
X1298373Y751632D1*
X1304082Y758318D1*
X1310768Y764027D1*
X1318264Y768621D1*
X1326386Y771985D1*
X1334935Y774037D1*
X1343700Y774728D1*
X1352465Y774037D1*
X1361014Y771985D1*
X1369136Y768621D1*
X1376632Y764027D1*
X1383318Y758318D1*
X1389027Y751632D1*
X1393621Y744136D1*
X1396985Y736014D1*
X1399037Y727465D1*
X1399728Y718700D1*
X1399554Y714304D1*
X1180657Y1286154D2*
X1179281Y1277472D1*
X1176565Y1269109D1*
X1172574Y1261276D1*
X1167406Y1254163D1*
X1161190Y1247947D1*
X1154077Y1242779D1*
X1146243Y1238788D1*
X1137881Y1236071D1*
X1129199Y1234696D1*
X1120406D1*
X1111724Y1236071D1*
X1103361Y1238788D1*
X1095528Y1242779D1*
X1088415Y1247947D1*
X1082199Y1254163D1*
X1077031Y1261276D1*
X1073040Y1269109D1*
X1070323Y1277472D1*
X1068948Y1286154D1*
Y1294947D1*
X1070323Y1303629D1*
X1073040Y1311991D1*
X1077031Y1319825D1*
X1082199Y1326938D1*
X1088415Y1333154D1*
X1095528Y1338322D1*
X1103361Y1342313D1*
X1111724Y1345029D1*
X1120406Y1346405D1*
X1129199D1*
X1137881Y1345029D1*
X1146243Y1342313D1*
X1154077Y1338322D1*
X1161190Y1333154D1*
X1167406Y1326938D1*
X1172574Y1319825D1*
X1176565Y1311991D1*
X1179281Y1303629D1*
X1180657Y1294947D1*
Y1286154D1*
X1318452D2*
X1317077Y1277472D1*
X1314360Y1269109D1*
X1310369Y1261276D1*
X1305201Y1254163D1*
X1298985Y1247947D1*
X1291872Y1242779D1*
X1284039Y1238788D1*
X1275676Y1236071D1*
X1266994Y1234696D1*
X1258201D1*
X1249519Y1236071D1*
X1241157Y1238788D1*
X1233323Y1242779D1*
X1226210Y1247947D1*
X1219994Y1254163D1*
X1214826Y1261276D1*
X1210835Y1269109D1*
X1208119Y1277472D1*
X1206743Y1286154D1*
Y1294947D1*
X1208119Y1303629D1*
X1210835Y1311991D1*
X1214826Y1319825D1*
X1219994Y1326938D1*
X1226210Y1333154D1*
X1233323Y1338322D1*
X1241157Y1342313D1*
X1249519Y1345029D1*
X1258201Y1346405D1*
X1266994D1*
X1275676Y1345029D1*
X1284039Y1342313D1*
X1291872Y1338322D1*
X1298985Y1333154D1*
X1305201Y1326938D1*
X1310369Y1319825D1*
X1314360Y1311991D1*
X1317077Y1303629D1*
X1318452Y1294947D1*
Y1286154D1*
X1880657D2*
X1879281Y1277472D1*
X1876565Y1269109D1*
X1872574Y1261276D1*
X1867406Y1254163D1*
X1861190Y1247947D1*
X1854077Y1242779D1*
X1846243Y1238788D1*
X1837881Y1236071D1*
X1829199Y1234696D1*
X1820406D1*
X1811724Y1236071D1*
X1803361Y1238788D1*
X1795528Y1242779D1*
X1788415Y1247947D1*
X1782199Y1254163D1*
X1777031Y1261276D1*
X1773040Y1269109D1*
X1770323Y1277472D1*
X1768948Y1286154D1*
Y1294947D1*
X1770323Y1303629D1*
X1773040Y1311991D1*
X1777031Y1319825D1*
X1782199Y1326938D1*
X1788415Y1333154D1*
X1795528Y1338322D1*
X1803361Y1342313D1*
X1811724Y1345029D1*
X1820406Y1346405D1*
X1829199D1*
X1837881Y1345029D1*
X1846243Y1342313D1*
X1854077Y1338322D1*
X1861190Y1333154D1*
X1867406Y1326938D1*
X1872574Y1319825D1*
X1876565Y1311991D1*
X1879281Y1303629D1*
X1880657Y1294947D1*
Y1286154D1*
X2018452D2*
X2017077Y1277472D1*
X2014360Y1269109D1*
X2010369Y1261276D1*
X2005201Y1254163D1*
X1998985Y1247947D1*
X1991872Y1242779D1*
X1984039Y1238788D1*
X1975676Y1236071D1*
X1966994Y1234696D1*
X1958201D1*
X1949519Y1236071D1*
X1941157Y1238788D1*
X1933323Y1242779D1*
X1926210Y1247947D1*
X1919994Y1254163D1*
X1914826Y1261276D1*
X1910835Y1269109D1*
X1908119Y1277472D1*
X1906743Y1286154D1*
Y1294947D1*
X1908119Y1303629D1*
X1910835Y1311991D1*
X1914826Y1319825D1*
X1919994Y1326938D1*
X1926210Y1333154D1*
X1933323Y1338322D1*
X1941157Y1342313D1*
X1949519Y1345029D1*
X1958201Y1346405D1*
X1966994D1*
X1975676Y1345029D1*
X1984039Y1342313D1*
X1991872Y1338322D1*
X1998985Y1333154D1*
X2005201Y1326938D1*
X2010369Y1319825D1*
X2014360Y1311991D1*
X2017077Y1303629D1*
X2018452Y1294947D1*
Y1286154D1*
X2076462Y1651700D2*
X2185909D1*
X2191368Y1656319D1*
X2197590Y1660132D1*
X2204331Y1662924D1*
X2211426Y1664628D1*
X2218700Y1665200D1*
X2225974Y1664628D1*
X2233069Y1662924D1*
X2239810Y1660132D1*
X2246032Y1656319D1*
X2251581Y1651581D1*
X2256319Y1646032D1*
X2260132Y1639810D1*
X2262924Y1633069D1*
X2264628Y1625974D1*
X2265200Y1618700D1*
X2264628Y1611426D1*
X2262924Y1604331D1*
X2260132Y1597590D1*
X2256319Y1591368D1*
X2251581Y1585819D1*
X2246200Y1581213D1*
X2251581Y1576581D1*
X2256319Y1571032D1*
X2260132Y1564810D1*
X2262924Y1558069D1*
X2264628Y1550974D1*
X2265200Y1543700D1*
X2264628Y1536426D1*
X2262924Y1529331D1*
X2260132Y1522590D1*
X2256319Y1516368D1*
X2251581Y1510819D1*
X2246032Y1506081D1*
X2239810Y1502268D1*
X2233069Y1499476D1*
X2225974Y1497772D1*
X2218700Y1497200D1*
X2211426Y1497772D1*
X2204331Y1499476D1*
X2197590Y1502268D1*
X2191368Y1506081D1*
X2185956Y1510693D1*
X2076491Y1510700D1*
X2071032Y1506081D1*
X2064810Y1502268D1*
X2058069Y1499476D1*
X2050974Y1497772D1*
X2043700Y1497200D1*
X2036426Y1497772D1*
X2029331Y1499476D1*
X2022590Y1502268D1*
X2016368Y1506081D1*
X2010819Y1510819D1*
X2006081Y1516368D1*
X2002268Y1522590D1*
X1999476Y1529331D1*
X1997772Y1536426D1*
X1997200Y1543700D1*
X1997772Y1550974D1*
X1999476Y1558069D1*
X2002268Y1564810D1*
X2006081Y1571032D1*
X2010819Y1576581D1*
X2016200Y1581187D1*
X2010819Y1585819D1*
X2006081Y1591368D1*
X2002268Y1597590D1*
X1999476Y1604331D1*
X1997772Y1611426D1*
X1997200Y1618700D1*
X1997772Y1625974D1*
X1999476Y1633069D1*
X2002268Y1639810D1*
X2006081Y1646032D1*
X2010819Y1651581D1*
X2016368Y1656319D1*
X2022590Y1660132D1*
X2029331Y1662924D1*
X2036426Y1664628D1*
X2043700Y1665200D1*
X2050974Y1664628D1*
X2058069Y1662924D1*
X2064810Y1660132D1*
X2071032Y1656319D1*
X2076444Y1651707D1*
X3430176Y2605200D2*
X432196D1*
X432200Y432174D1*
X3430204Y432200D1*
X3430200Y2605226D1*
X2718700Y1449692D2*
D47*
Y1337708D1*
X2662708Y1393700D2*
X2718700D1*
X1293700Y2524692D2*
Y2412708D1*
Y2468700D2*
X1349692D1*
X618700Y2455165D2*
Y2332235D1*
X557235Y2393700D2*
X618700D1*
X1808700Y2524692D2*
Y2412708D1*
X2468700Y624692D2*
Y512708D1*
X2368700Y624692D2*
Y512708D1*
X3168700Y2118700D2*
Y2057235D1*
X3107235Y2118700D2*
X3230165D1*
X3168700Y1768700D2*
Y1707235D1*
X3107235Y1768700D2*
X3230165D1*
X3168700Y1418700D2*
Y1357235D1*
X3107235Y1418700D2*
X3230165D1*
X693700Y593700D2*
Y532235D1*
X632235Y593700D2*
X755165D1*
X2193700Y1718700D2*
Y1662708D1*
X2137708Y1718700D2*
X2249692D1*
X2568700Y2249692D2*
Y2137708D1*
X2768700Y2249692D2*
Y2137708D1*
Y2193700D2*
X2824692D1*
X1243700Y774692D2*
Y662708D1*
X1043700Y774692D2*
Y662708D1*
X987708Y718700D2*
X1043700D1*
X1943700Y774692D2*
Y662708D1*
X1743700Y774692D2*
Y662708D1*
X1687708Y718700D2*
X1743700D1*
D16*
X2368700Y1118700D3*
Y807676D3*
D17*
X1193700Y2468700D3*
D18*
X1293700D3*
D17*
X2818700Y1393700D3*
D18*
X2718700D3*
D19*
X818700Y2393700D3*
X718700D3*
X618700D3*
X918700D3*
D17*
X3268700Y2468700D3*
X3168700D3*
X3068700D3*
X2968700D3*
X2868700D3*
X2768700D3*
X2668700D3*
X2568700D3*
X2408700D3*
X2308700D3*
X2208700D3*
X2108700D3*
X2008700D3*
X1908700D3*
X1808700D3*
X1708700D3*
X1608700D3*
X1508700D3*
X3268700Y568700D3*
X3168700D3*
X3068700D3*
X2968700D3*
X2868700D3*
X2768700D3*
X2568700D3*
X2468700D3*
X2368700D3*
X2268700D3*
X2168700D3*
X2068700D3*
X1968700D3*
X1868700D3*
D19*
X3168700Y2318700D3*
Y2218700D3*
Y2118700D3*
X693700Y2068700D3*
Y1968700D3*
Y1868700D3*
Y2168700D3*
X3168700Y1968700D3*
Y1868700D3*
Y1768700D3*
X693700Y1668700D3*
Y1568700D3*
X3168700Y1618700D3*
Y1518700D3*
Y1418700D3*
X693700Y1368700D3*
Y1268700D3*
Y1068700D3*
Y968700D3*
Y693700D3*
Y593700D3*
D17*
X1093700Y2118700D3*
Y2018700D3*
Y1918700D3*
Y1818700D3*
Y1718700D3*
X2193700D3*
Y1818700D3*
Y1918700D3*
Y2018700D3*
Y2118700D3*
X2468700Y2193700D3*
X2568700D3*
X2668700D3*
X2768700D3*
X2687598Y1621850D3*
X2549802D3*
X1343700Y718700D3*
X1243700D3*
X1143700D3*
X1043700D3*
X1124802Y1290550D3*
X1262598D3*
X2043700Y718700D3*
X1943700D3*
X1843700D3*
X1743700D3*
X1824802Y1290550D3*
X1962598D3*
M02*
