%TF.GenerationSoftware,Novarm,DipTrace,3.3.0.1*%
%TF.CreationDate,2018-11-14T10:16:32-08:00*%
%FSLAX26Y26*%
%MOIN*%
%TF.FileFunction,Plated,1,2,PTH,Drill*%
%TF.Part,Single*%
%TA.AperFunction,ViaDrill*%
%ADD23C,0.02*%
%TA.AperFunction,ComponentDrill*%
%ADD24C,0.059055*%
%ADD25C,0.035*%
%ADD26C,0.043307*%
%ADD27C,0.035433*%
G75*
G01*
X2368700Y1039960D2*
D24*
Y1197440D1*
Y728936D2*
Y886417D1*
D25*
X1193700Y2468700D3*
X1293700D3*
X2818700Y1393700D3*
X2718700D3*
D26*
X818700Y2393700D3*
X718700D3*
X618700D3*
X918700D3*
D27*
X3268700Y2468700D3*
X3168700D3*
X3068700D3*
X2968700D3*
X2868700D3*
X2768700D3*
X2668700D3*
X2568700D3*
X2408700D3*
X2308700D3*
X2208700D3*
X2108700D3*
X2008700D3*
X1908700D3*
X1808700D3*
X1708700D3*
X1608700D3*
X1508700D3*
X3268700Y568700D3*
X3168700D3*
X3068700D3*
X2968700D3*
X2868700D3*
X2768700D3*
X2568700D3*
X2468700D3*
X2368700D3*
X2268700D3*
X2168700D3*
X2068700D3*
X1968700D3*
X1868700D3*
D26*
X3168700Y2318700D3*
Y2218700D3*
Y2118700D3*
X693700Y2068700D3*
Y1968700D3*
Y1868700D3*
Y2168700D3*
X3168700Y1968700D3*
Y1868700D3*
Y1768700D3*
X693700Y1668700D3*
Y1568700D3*
X3168700Y1618700D3*
Y1518700D3*
Y1418700D3*
X693700Y1368700D3*
Y1268700D3*
Y1068700D3*
Y968700D3*
Y693700D3*
Y593700D3*
D27*
X1093700Y2118700D3*
Y2018700D3*
Y1918700D3*
Y1818700D3*
Y1718700D3*
X2193700D3*
Y1818700D3*
Y1918700D3*
Y2018700D3*
Y2118700D3*
X2468700Y2193700D3*
X2568700D3*
X2668700D3*
X2768700D3*
X2687598Y1621850D3*
X2549802D3*
X1343700Y718700D3*
X1243700D3*
X1143700D3*
X1043700D3*
X1124802Y1290550D3*
X1262598D3*
X2043700Y718700D3*
X1943700D3*
X1843700D3*
X1743700D3*
X1824802Y1290550D3*
X1962598D3*
D23*
X2043700Y1618700D3*
X2218700D3*
X2043700Y1543700D3*
X2218700D3*
M02*
