%TF.GenerationSoftware,Novarm,DipTrace,3.3.0.1*%
%TF.CreationDate,2018-11-14T10:16:26-08:00*%
%FSLAX26Y26*%
%MOIN*%
%TF.FileFunction,Copper,L1,Top*%
%TF.Part,Single*%
%TA.AperFunction,Conductor*%
%ADD13C,0.013*%
%ADD14C,0.05*%
%TA.AperFunction,ComponentPad*%
%ADD16O,0.11811X0.255906*%
%ADD17C,0.059055*%
%ADD18R,0.059055X0.059055*%
%ADD19C,0.07*%
%ADD20R,0.043307X0.03937*%
%ADD21R,0.03937X0.043307*%
%TA.AperFunction,ViaPad*%
%ADD22C,0.04*%
G75*
G01*
%LPD*%
X2168700Y568700D2*
D13*
X2193700D1*
X2118700Y643700D1*
Y2043700D1*
X2193700Y2118700D1*
X2268700Y568700D2*
X2143700Y693700D1*
Y1968700D1*
X2193700Y2018700D1*
X2243700Y2068700D1*
Y2143700D1*
X2193700Y2193700D1*
X1326771D1*
X1051771Y2468700D1*
X993700D1*
X918700Y2393700D1*
X1343700Y718700D2*
X1393700Y768700D1*
X1993700D1*
X2043700Y718700D1*
X1343700D2*
X1293700Y768700D1*
X1018700D1*
X993700Y743700D1*
Y560629D1*
X3168700Y2318700D2*
D14*
X3268700Y2218700D1*
Y2068700D1*
X3168700Y1968700D1*
X3268700Y1868700D1*
Y1718700D1*
X3168700Y1618700D1*
X3268700Y1518700D1*
Y1393700D1*
X3068700Y1193700D1*
X2985629D1*
X2768700D1*
X2393700Y818700D1*
X2357676D1*
X2368700Y807676D1*
X2318700Y768700D2*
Y807676D1*
X2368700D1*
X2985629Y1368700D2*
D13*
Y1193700D1*
X2193700Y1818700D2*
X2368700Y1993700D1*
Y2143700D1*
X2268700Y2243700D1*
X2233700D1*
X2008700Y2468700D1*
X2193700Y1918700D2*
X2318700Y2043700D1*
Y2143700D1*
X2243700Y2218700D1*
X2158700D1*
X1908700Y2468700D1*
X993700Y493700D2*
X893700D1*
X693700Y693700D1*
X993700Y493700D2*
X1218700D1*
X1268700Y443700D1*
X3043700D1*
X3168700Y568700D1*
X693700Y2068700D2*
X1043700D1*
X1093700Y2018700D1*
X693700Y1868700D2*
X1043700D1*
X1093700Y1818700D1*
Y2118700D2*
X1043700Y2168700D1*
X693700D1*
Y1968700D2*
X1043700D1*
X1093700Y1918700D1*
X1118700Y2468700D2*
X1193700D1*
X2918700Y1368700D2*
X2843700D1*
X2818700Y1393700D1*
X3168700Y2218700D2*
X2993700Y2393700D1*
X2743700D1*
X2668700Y2468700D1*
X3168700Y1868700D2*
X3068700Y1968700D1*
Y2243700D1*
X2968700Y2343700D1*
X2433700D1*
X2308700Y2468700D1*
X3168700Y1518700D2*
X3018700Y1668700D1*
Y2193700D1*
X2918700Y2293700D1*
X2283700D1*
X2108700Y2468700D1*
X718700Y2393700D2*
X893700Y2568700D1*
X3168700D1*
X3268700Y2468700D1*
X2768700Y568700D2*
X2718700Y618700D1*
X2293700D1*
X2243700Y668700D1*
Y1318700D1*
X2393700Y1468700D1*
X2743700D1*
X2843700Y1568700D1*
Y2018700D1*
X2668700Y2193700D1*
X1143700Y718700D2*
X1381200Y481200D1*
X2831200D1*
X2868700Y518700D1*
Y568700D1*
X1843700Y718700D2*
Y643700D1*
X1818700Y618700D1*
Y543700D1*
X1843700Y518700D1*
X2793700D1*
X2818700Y543700D1*
Y593700D1*
X2843700Y618700D1*
X2918700D1*
X2968700Y568700D1*
X693700Y1668700D2*
X743700Y1618700D1*
X2043700D1*
X2218700D2*
X2546653D1*
X2549802Y1621850D1*
X693700Y1568700D2*
X718700Y1543700D1*
X2043700D1*
X2218700D2*
X2609448D1*
X2687598Y1621850D1*
X693700Y1368700D2*
X1184448D1*
X1262598Y1290550D1*
X693700Y1268700D2*
X1102952D1*
X1124802Y1290550D1*
X693700Y1068700D2*
X1443700D1*
X1743700Y1368700D1*
X1884448D1*
X1962598Y1290550D1*
X693700Y968700D2*
X1502952D1*
X1824802Y1290550D1*
X818700Y2393700D2*
X943700Y2518700D1*
X3118700D1*
X3168700Y2468700D1*
D22*
X2043700Y1618700D3*
X2218700D3*
X2043700Y1543700D3*
X2218700D3*
D16*
X2368700Y1118700D3*
Y807676D3*
D17*
X1193700Y2468700D3*
D18*
X1293700D3*
D17*
X2818700Y1393700D3*
D18*
X2718700D3*
D19*
X818700Y2393700D3*
X718700D3*
X618700D3*
X918700D3*
D17*
X3268700Y2468700D3*
X3168700D3*
X3068700D3*
X2968700D3*
X2868700D3*
X2768700D3*
X2668700D3*
X2568700D3*
X2408700D3*
X2308700D3*
X2208700D3*
X2108700D3*
X2008700D3*
X1908700D3*
X1808700D3*
X1708700D3*
X1608700D3*
X1508700D3*
X3268700Y568700D3*
X3168700D3*
X3068700D3*
X2968700D3*
X2868700D3*
X2768700D3*
X2568700D3*
X2468700D3*
X2368700D3*
X2268700D3*
X2168700D3*
X2068700D3*
X1968700D3*
X1868700D3*
D19*
X3168700Y2318700D3*
Y2218700D3*
Y2118700D3*
X693700Y2068700D3*
Y1968700D3*
Y1868700D3*
Y2168700D3*
X3168700Y1968700D3*
Y1868700D3*
Y1768700D3*
X693700Y1668700D3*
Y1568700D3*
X3168700Y1618700D3*
Y1518700D3*
Y1418700D3*
X693700Y1368700D3*
Y1268700D3*
Y1068700D3*
Y968700D3*
Y693700D3*
Y593700D3*
D20*
X1118700Y2468700D3*
X1051771D3*
X2918700Y1368700D3*
X2985629D3*
D21*
X993700Y493700D3*
Y560629D3*
D17*
X1093700Y2118700D3*
Y2018700D3*
Y1918700D3*
Y1818700D3*
Y1718700D3*
X2193700D3*
Y1818700D3*
Y1918700D3*
Y2018700D3*
Y2118700D3*
X2468700Y2193700D3*
X2568700D3*
X2668700D3*
X2768700D3*
X2687598Y1621850D3*
X2549802D3*
X1343700Y718700D3*
X1243700D3*
X1143700D3*
X1043700D3*
X1124802Y1290550D3*
X1262598D3*
X2043700Y718700D3*
X1943700D3*
X1843700D3*
X1743700D3*
X1824802Y1290550D3*
X1962598D3*
M02*
