%TF.GenerationSoftware,Novarm,DipTrace,3.3.0.1*%
%TF.CreationDate,2018-11-14T10:16:25-08:00*%
%FSLAX26Y26*%
%MOIN*%
%TF.FileFunction,Soldermask,Top*%
%TF.Part,Single*%
%ADD31R,0.04725X0.051187*%
%ADD33R,0.051187X0.04725*%
%ADD35C,0.07788*%
%ADD37R,0.066935X0.066935*%
%ADD39C,0.066935*%
%ADD41O,0.12599X0.263786*%
G75*
G01*
%LPD*%
D41*
X2368700Y1118700D3*
Y807676D3*
D39*
X1193700Y2468700D3*
D37*
X1293700D3*
D39*
X2818700Y1393700D3*
D37*
X2718700D3*
D35*
X818700Y2393700D3*
X718700D3*
X618700D3*
X918700D3*
D39*
X3268700Y2468700D3*
X3168700D3*
X3068700D3*
X2968700D3*
X2868700D3*
X2768700D3*
X2668700D3*
X2568700D3*
X2408700D3*
X2308700D3*
X2208700D3*
X2108700D3*
X2008700D3*
X1908700D3*
X1808700D3*
X1708700D3*
X1608700D3*
X1508700D3*
X3268700Y568700D3*
X3168700D3*
X3068700D3*
X2968700D3*
X2868700D3*
X2768700D3*
X2568700D3*
X2468700D3*
X2368700D3*
X2268700D3*
X2168700D3*
X2068700D3*
X1968700D3*
X1868700D3*
D35*
X3168700Y2318700D3*
Y2218700D3*
Y2118700D3*
X693700Y2068700D3*
Y1968700D3*
Y1868700D3*
Y2168700D3*
X3168700Y1968700D3*
Y1868700D3*
Y1768700D3*
X693700Y1668700D3*
Y1568700D3*
X3168700Y1618700D3*
Y1518700D3*
Y1418700D3*
X693700Y1368700D3*
Y1268700D3*
Y1068700D3*
Y968700D3*
Y693700D3*
Y593700D3*
D33*
X1118700Y2468700D3*
X1051771D3*
X2918700Y1368700D3*
X2985629D3*
D31*
X993700Y493700D3*
Y560629D3*
D39*
X1093700Y2118700D3*
Y2018700D3*
Y1918700D3*
Y1818700D3*
Y1718700D3*
X2193700D3*
Y1818700D3*
Y1918700D3*
Y2018700D3*
Y2118700D3*
X2468700Y2193700D3*
X2568700D3*
X2668700D3*
X2768700D3*
X2687598Y1621850D3*
X2549802D3*
X1343700Y718700D3*
X1243700D3*
X1143700D3*
X1043700D3*
X1124802Y1290550D3*
X1262598D3*
X2043700Y718700D3*
X1943700D3*
X1843700D3*
X1743700D3*
X1824802Y1290550D3*
X1962598D3*
M02*
