%TF.GenerationSoftware,Novarm,DipTrace,3.3.0.1*%
%TF.CreationDate,2018-11-14T10:16:25-08:00*%
%FSLAX26Y26*%
%MOIN*%
%TF.FileFunction,Legend,Top*%
%TF.Part,Single*%
%ADD10C,0.009843*%
%ADD43C,0.00772*%
%ADD44C,0.012351*%
%ADD45C,0.009264*%
%ADD46C,0.015439*%
G75*
G01*
%LPD*%
X3435629Y632480D2*
D10*
X2299645D1*
Y1294188D1*
X3435629D1*
Y632480D1*
Y963202D2*
X2309642D1*
X2467203Y1293924D2*
Y632480D1*
X1284259Y2420700D2*
G02X1202028Y2421834I-40474J47136D01*
G01*
X1284259Y2516700D2*
G03X1202028Y2515566I-40474J-47136D01*
G01*
X2728141Y1441700D2*
G02X2810372Y1440566I40474J-47136D01*
G01*
X2728141Y1345700D2*
G03X2810372Y1346834I40474J47136D01*
G01*
X974700Y2521700D2*
X559700D1*
Y2265700D1*
X974700D1*
Y2521700D1*
X3040747Y2377755D2*
X3296653D1*
Y2059645D1*
X3040747D1*
Y2377755D1*
X565700Y2224700D2*
X821700D1*
Y1809700D1*
X565700D1*
Y2224700D1*
X3040747Y2027755D2*
X3296653D1*
Y1709645D1*
X3040747D1*
Y2027755D1*
X565747Y1727755D2*
X821653D1*
Y1509645D1*
X565747D1*
Y1727755D1*
X3040747Y1677755D2*
X3296653D1*
Y1359645D1*
X3040747D1*
Y1677755D1*
X565747Y1427755D2*
X821653D1*
Y1209645D1*
X565747D1*
Y1427755D1*
Y1127755D2*
X821653D1*
Y909645D1*
X565747D1*
Y1127755D1*
Y752755D2*
X821653D1*
Y534645D1*
X565747D1*
Y752755D1*
X1043700Y2368700D2*
X2243700D1*
Y1468700D1*
X1043700D1*
Y2368700D1*
X2293700Y1493700D2*
X2943700D1*
Y2293700D1*
X2293700D1*
Y1493700D1*
X1518700Y1418700D2*
X868700D1*
Y618700D1*
X1518700D1*
Y1418700D1*
X2218700D2*
X1568700D1*
Y618700D1*
X2218700D1*
Y1418700D1*
X1113237Y2429915D2*
D43*
Y2379675D1*
X1129984D1*
X1137169Y2382107D1*
X1141977Y2386860D1*
X1144354Y2391669D1*
X1146730Y2398799D1*
Y2410792D1*
X1144354Y2417977D1*
X1141977Y2422730D1*
X1137169Y2427539D1*
X1129984Y2429915D1*
X1113237D1*
X1162170Y2420298D2*
X1166978Y2422730D1*
X1174163Y2429860D1*
Y2379675D1*
X2577487Y1479915D2*
Y1429675D1*
X2594234D1*
X2601419Y1432107D1*
X2606227Y1436860D1*
X2608604Y1441669D1*
X2610980Y1448799D1*
Y1460792D1*
X2608604Y1467977D1*
X2606227Y1472730D1*
X2601419Y1477539D1*
X2594234Y1479915D1*
X2577487D1*
X2628851Y1467922D2*
Y1470298D1*
X2631228Y1475107D1*
X2633605Y1477483D1*
X2638413Y1479860D1*
X2647975D1*
X2652728Y1477483D1*
X2655105Y1475107D1*
X2657536Y1470298D1*
Y1465545D1*
X2655105Y1460737D1*
X2650351Y1453607D1*
X2626420Y1429675D1*
X2659913D1*
X490449Y2494923D2*
Y2456677D1*
X488073Y2449492D1*
X485641Y2447115D1*
X480888Y2444683D1*
X476079D1*
X471326Y2447115D1*
X468950Y2449492D1*
X466518Y2456677D1*
Y2461430D1*
X505889Y2485306D2*
X510697Y2487738D1*
X517882Y2494868D1*
Y2444683D1*
X2981200Y2375978D2*
Y2337732D1*
X2978823Y2330547D1*
X2976391Y2328170D1*
X2971638Y2325738D1*
X2966829D1*
X2962076Y2328170D1*
X2959700Y2330547D1*
X2957268Y2337732D1*
Y2342485D1*
X3001447Y2375923D2*
X3027700D1*
X3013385Y2356800D1*
X3020571D1*
X3025324Y2354423D1*
X3027700Y2352046D1*
X3030132Y2344861D1*
Y2340108D1*
X3027700Y2332923D1*
X3022947Y2328115D1*
X3015762Y2325738D1*
X3008577D1*
X3001447Y2328115D1*
X2999071Y2330547D1*
X2996639Y2335300D1*
X880011Y2197923D2*
Y2159677D1*
X877635Y2152492D1*
X875203Y2150115D1*
X870450Y2147683D1*
X865641D1*
X860888Y2150115D1*
X858511Y2152492D1*
X856080Y2159677D1*
Y2164430D1*
X919382Y2147683D2*
Y2197868D1*
X895451Y2164430D1*
X931320D1*
X2981200Y2025978D2*
Y1987732D1*
X2978823Y1980547D1*
X2976391Y1978170D1*
X2971638Y1975738D1*
X2966829D1*
X2962076Y1978170D1*
X2959700Y1980547D1*
X2957268Y1987732D1*
Y1992485D1*
X3025324Y2025923D2*
X3001447D1*
X2999071Y2004423D1*
X3001447Y2006800D1*
X3008632Y2009232D1*
X3015762D1*
X3022947Y2006800D1*
X3027756Y2002046D1*
X3030132Y1994861D1*
Y1990108D1*
X3027756Y1982923D1*
X3022947Y1978115D1*
X3015762Y1975738D1*
X3008632D1*
X3001447Y1978115D1*
X2999071Y1980547D1*
X2996639Y1985300D1*
X882415Y1725978D2*
Y1687732D1*
X880039Y1680547D1*
X877607Y1678170D1*
X872854Y1675738D1*
X868045D1*
X863292Y1678170D1*
X860916Y1680547D1*
X858484Y1687732D1*
Y1692485D1*
X926540Y1718793D2*
X924163Y1723546D1*
X916978Y1725923D1*
X912225D1*
X905040Y1723546D1*
X900231Y1716361D1*
X897855Y1704423D1*
Y1692485D1*
X900231Y1682923D1*
X905040Y1678115D1*
X912225Y1675738D1*
X914601D1*
X921731Y1678115D1*
X926540Y1682923D1*
X928916Y1690108D1*
Y1692485D1*
X926540Y1699670D1*
X921731Y1704423D1*
X914601Y1706800D1*
X912225D1*
X905040Y1704423D1*
X900231Y1699670D1*
X897855Y1692485D1*
X2981200Y1675978D2*
Y1637732D1*
X2978823Y1630547D1*
X2976391Y1628170D1*
X2971638Y1625738D1*
X2966829D1*
X2962076Y1628170D1*
X2959700Y1630547D1*
X2957268Y1637732D1*
Y1642485D1*
X3006200Y1625738D2*
X3030132Y1675923D1*
X2996639D1*
X856227Y1500978D2*
Y1462732D1*
X853851Y1455547D1*
X851419Y1453170D1*
X846666Y1450738D1*
X841857D1*
X837104Y1453170D1*
X834727Y1455547D1*
X832295Y1462732D1*
Y1467485D1*
X883605Y1500923D2*
X876475Y1498546D1*
X874043Y1493793D1*
Y1488985D1*
X876475Y1484232D1*
X881228Y1481800D1*
X890790Y1479423D1*
X897975Y1477046D1*
X902728Y1472238D1*
X905105Y1467485D1*
Y1460300D1*
X902728Y1455547D1*
X900351Y1453115D1*
X893166Y1450738D1*
X883605D1*
X876475Y1453115D1*
X874043Y1455547D1*
X871666Y1460300D1*
Y1467485D1*
X874043Y1472238D1*
X878851Y1477046D1*
X885981Y1479423D1*
X895543Y1481800D1*
X900351Y1484232D1*
X902728Y1488985D1*
Y1493793D1*
X900351Y1498546D1*
X893166Y1500923D1*
X883605D1*
X807388Y900978D2*
Y862732D1*
X805011Y855547D1*
X802579Y853170D1*
X797826Y850738D1*
X793018D1*
X788265Y853170D1*
X785888Y855547D1*
X783456Y862732D1*
Y867485D1*
X853944Y884232D2*
X851512Y877046D1*
X846759Y872238D1*
X839574Y869861D1*
X837197D1*
X830012Y872238D1*
X825259Y877046D1*
X822827Y884232D1*
Y886608D1*
X825259Y893793D1*
X830012Y898546D1*
X837197Y900923D1*
X839574D1*
X846759Y898546D1*
X851512Y893793D1*
X853944Y884232D1*
Y872238D1*
X851512Y860300D1*
X846759Y853115D1*
X839574Y850738D1*
X834821D1*
X827636Y853115D1*
X825259Y857923D1*
X667483Y850978D2*
Y812732D1*
X665107Y805547D1*
X662675Y803170D1*
X657922Y800738D1*
X653113D1*
X648360Y803170D1*
X645983Y805547D1*
X643551Y812732D1*
Y817485D1*
X682922Y841361D2*
X687731Y843793D1*
X694916Y850923D1*
Y800738D1*
X724725Y850923D2*
X717540Y848546D1*
X712732Y841361D1*
X710355Y829423D1*
Y822238D1*
X712732Y810300D1*
X717540Y803115D1*
X724725Y800738D1*
X729478D1*
X736663Y803115D1*
X741417Y810300D1*
X743849Y822238D1*
Y829423D1*
X741417Y841361D1*
X736663Y848546D1*
X729478Y850923D1*
X724725D1*
X741417Y841361D2*
X712732Y810300D1*
X1054772Y2537676D2*
X1076272D1*
X1083457Y2540108D1*
X1085889Y2542485D1*
X1088266Y2547238D1*
Y2552046D1*
X1085889Y2556800D1*
X1083457Y2559232D1*
X1076272Y2561608D1*
X1054772D1*
Y2511368D1*
X1071519Y2537676D2*
X1088266Y2511368D1*
X1103705Y2551991D2*
X1108513Y2554423D1*
X1115698Y2561553D1*
Y2511368D1*
X2910952Y1437676D2*
X2932451D1*
X2939636Y1440108D1*
X2942068Y1442485D1*
X2944445Y1447238D1*
Y1452046D1*
X2942068Y1456800D1*
X2939636Y1459232D1*
X2932451Y1461608D1*
X2910952D1*
Y1411368D1*
X2927698Y1437676D2*
X2944445Y1411368D1*
X2962316Y1449615D2*
Y1451991D1*
X2964693Y1456800D1*
X2967069Y1459176D1*
X2971878Y1461553D1*
X2981439D1*
X2986192Y1459176D1*
X2988569Y1456800D1*
X2991001Y1451991D1*
Y1447238D1*
X2988569Y1442430D1*
X2983816Y1435300D1*
X2959884Y1411368D1*
X2993378D1*
X924724Y485952D2*
Y507452D1*
X922292Y514637D1*
X919915Y517068D1*
X915162Y519445D1*
X910354D1*
X905600Y517068D1*
X903169Y514637D1*
X900792Y507452D1*
Y485952D1*
X951032D1*
X924724Y502698D2*
X951032Y519445D1*
X900847Y539693D2*
Y565946D1*
X919970Y551631D1*
Y558816D1*
X922347Y563569D1*
X924724Y565946D1*
X931909Y568378D1*
X936662D1*
X943847Y565946D1*
X948655Y561192D1*
X951032Y554007D1*
Y546822D1*
X948655Y539693D1*
X946223Y537316D1*
X941470Y534884D1*
X3384451Y2096132D2*
D44*
Y2140347D1*
X3359602Y2165050D2*
X3355711Y2172744D1*
X3344303Y2184240D1*
X3424599D1*
X3350007Y2243342D2*
X3418895D1*
X3384495Y2208942D2*
Y2277830D1*
X3384451Y1771132D2*
Y1815347D1*
X3363404Y1843941D2*
X3359602D1*
X3351908Y1847744D1*
X3348106Y1851546D1*
X3344303Y1859240D1*
Y1874538D1*
X3348106Y1882143D1*
X3351908Y1885946D1*
X3359602Y1889837D1*
X3367207D1*
X3374900Y1885946D1*
X3386308Y1878341D1*
X3424599Y1840050D1*
Y1893639D1*
X3350007Y1952742D2*
X3418895D1*
X3384495Y1918342D2*
Y1987230D1*
X3384451Y1421132D2*
Y1465347D1*
X3344303Y1497744D2*
Y1539748D1*
X3374900Y1516845D1*
Y1528341D1*
X3378703Y1535946D1*
X3382505Y1539748D1*
X3394001Y1543639D1*
X3401606D1*
X3413102Y1539748D1*
X3420796Y1532143D1*
X3424599Y1520647D1*
Y1509151D1*
X3420796Y1497744D1*
X3416905Y1493941D1*
X3409300Y1490050D1*
X3350007Y1602742D2*
X3418895D1*
X3384495Y1568342D2*
Y1637230D1*
X2344113Y1402569D2*
D45*
Y1342281D1*
X2369979D1*
X2378601Y1345199D1*
X2381453Y1348051D1*
X2384305Y1353755D1*
Y1362377D1*
X2381453Y1368147D1*
X2378601Y1370999D1*
X2369979Y1373851D1*
X2378601Y1376769D1*
X2381453Y1379621D1*
X2384305Y1385325D1*
Y1391095D1*
X2381453Y1396799D1*
X2378601Y1399717D1*
X2369979Y1402569D1*
X2344113D1*
Y1373851D2*
X2369979D1*
X2437254Y1382473D2*
Y1342281D1*
Y1373851D2*
X2431550Y1379621D1*
X2425780Y1382473D1*
X2417224D1*
X2411454Y1379621D1*
X2405750Y1373851D1*
X2402832Y1365229D1*
Y1359525D1*
X2405750Y1350903D1*
X2411454Y1345199D1*
X2417224Y1342281D1*
X2425780D1*
X2431550Y1345199D1*
X2437254Y1350903D1*
X2464403Y1402569D2*
Y1353755D1*
X2467255Y1345199D1*
X2473025Y1342281D1*
X2478729D1*
X2455781Y1382473D2*
X2475877D1*
X2505878Y1402569D2*
Y1353755D1*
X2508730Y1345199D1*
X2514500Y1342281D1*
X2520204D1*
X2497256Y1382473D2*
X2517352D1*
X2538731Y1365229D2*
X2573153D1*
Y1370999D1*
X2570301Y1376769D1*
X2567449Y1379621D1*
X2561679Y1382473D1*
X2553057D1*
X2547353Y1379621D1*
X2541583Y1373851D1*
X2538731Y1365229D1*
Y1359525D1*
X2541583Y1350903D1*
X2547353Y1345199D1*
X2553057Y1342281D1*
X2561679D1*
X2567449Y1345199D1*
X2573153Y1350903D1*
X2591680Y1382473D2*
Y1342281D1*
Y1365229D2*
X2594598Y1373851D1*
X2600302Y1379621D1*
X2606072Y1382473D1*
X2614694D1*
X2636139D2*
X2653317Y1342281D1*
X2647613Y1330807D1*
X2641843Y1325037D1*
X2636139Y1322185D1*
X2633221D1*
X2670561Y1382473D2*
X2653317Y1342281D1*
X1378534Y2502502D2*
X1349883D1*
X1347031Y2476703D1*
X1349883Y2479554D1*
X1358505Y2482473D1*
X1367061D1*
X1375683Y2479554D1*
X1381453Y2473851D1*
X1384305Y2465229D1*
Y2459525D1*
X1381453Y2450903D1*
X1375683Y2445133D1*
X1367061Y2442281D1*
X1358505D1*
X1349883Y2445133D1*
X1347031Y2448051D1*
X1344113Y2453755D1*
X1402832Y2502569D2*
X1425780Y2442281D1*
X1448728Y2502569D1*
X3233238Y815675D2*
D46*
X3319348D1*
X3276349Y772676D2*
Y858786D1*
X3276293Y1084068D2*
Y1139337D1*
X3323256Y2296132D2*
D44*
Y2322926D1*
X3445645D1*
Y2296132D1*
X3323256Y1397926D2*
Y1371132D1*
X3445645D1*
Y1397926D1*
X3366224Y2377309D2*
D43*
X3361416Y2372556D1*
X3359039Y2365371D1*
Y2355809D1*
X3361416Y2348624D1*
X3366224Y2343816D1*
X3370977D1*
X3375786Y2346248D1*
X3378163Y2348624D1*
X3380539Y2353377D1*
X3385348Y2367748D1*
X3387724Y2372556D1*
X3390156Y2374933D1*
X3394909Y2377309D1*
X3402094D1*
X3406847Y2372556D1*
X3409279Y2365371D1*
Y2355809D1*
X3406847Y2348624D1*
X3402094Y2343816D1*
X3390156Y2392748D2*
Y2421433D1*
X3385348D1*
X3380539Y2419057D1*
X3378163Y2416680D1*
X3375786Y2411872D1*
Y2404687D1*
X3378163Y2399933D1*
X3382971Y2395125D1*
X3390156Y2392748D1*
X3394909D1*
X3402094Y2395125D1*
X3406847Y2399933D1*
X3409279Y2404687D1*
Y2411872D1*
X3406847Y2416680D1*
X3402094Y2421433D1*
X3375786Y2436872D2*
X3409279D1*
X3390156D2*
X3382971Y2439304D1*
X3378163Y2444058D1*
X3375786Y2448866D1*
Y2456051D1*
Y2471490D2*
X3409279Y2485860D1*
X3375786Y2500175D1*
Y2527553D2*
X3378163Y2522799D1*
X3382971Y2517991D1*
X3390156Y2515614D1*
X3394909D1*
X3402094Y2517991D1*
X3406847Y2522799D1*
X3409279Y2527553D1*
Y2534738D1*
X3406847Y2539546D1*
X3402094Y2544299D1*
X3394909Y2546731D1*
X3390156D1*
X3382971Y2544299D1*
X3378163Y2539546D1*
X3375786Y2534738D1*
Y2527553D1*
X3382971Y2588479D2*
X3378163Y2586102D1*
X3375786Y2578917D1*
Y2571732D1*
X3378163Y2564547D1*
X3382971Y2562170D1*
X3387724Y2564547D1*
X3390156Y2569355D1*
X3392533Y2581294D1*
X3394909Y2586102D1*
X3399718Y2588479D1*
X3402094D1*
X3406847Y2586102D1*
X3409279Y2578917D1*
Y2571732D1*
X3406847Y2564547D1*
X3402094Y2562170D1*
X487728Y2169611D2*
D44*
Y2135211D1*
X491619Y2123715D1*
X495422Y2119824D1*
X503027Y2116021D1*
X510720D1*
X518325Y2119824D1*
X522216Y2123715D1*
X526019Y2135211D1*
Y2169611D1*
X445635D1*
X487728Y2142816D2*
X445635Y2116022D1*
X526019Y2091319D2*
X445635D1*
Y2056831D1*
X449526Y2045335D1*
X453328Y2041532D1*
X460933Y2037729D1*
X472429D1*
X480123Y2041532D1*
X483926Y2045334D1*
X487728Y2056831D1*
X491619Y2045334D1*
X495422Y2041532D1*
X503027Y2037729D1*
X510720D1*
X518325Y2041532D1*
X522216Y2045334D1*
X526019Y2056831D1*
Y2091319D1*
X487728D2*
Y2056831D1*
X526019Y2013027D2*
X445635Y1993837D1*
X526019Y1974736D1*
X445635Y1955635D1*
X526019Y1936445D1*
X506918Y1854350D2*
X514523Y1858153D1*
X522216Y1865847D1*
X526019Y1873452D1*
Y1888750D1*
X522216Y1896444D1*
X514523Y1904049D1*
X506918Y1907940D1*
X495422Y1911742D1*
X476232D1*
X464824Y1907940D1*
X457131Y1904049D1*
X449526Y1896444D1*
X445635Y1888750D1*
Y1873452D1*
X449526Y1865847D1*
X457131Y1858153D1*
X464824Y1854350D1*
X476232D1*
Y1873452D1*
X526019Y1692816D2*
X445635D1*
X526019Y1719611D2*
Y1666021D1*
X506918Y1583927D2*
X514523Y1587729D1*
X522216Y1595423D1*
X526019Y1603028D1*
Y1618327D1*
X522216Y1626020D1*
X514523Y1633625D1*
X506918Y1637516D1*
X495422Y1641319D1*
X476232D1*
X464824Y1637516D1*
X457131Y1633625D1*
X449526Y1626020D1*
X445635Y1618327D1*
Y1603028D1*
X449526Y1595423D1*
X457131Y1587729D1*
X464824Y1583927D1*
X510632Y1559224D2*
X514523Y1551531D1*
X525930Y1540034D1*
X445635Y1540035D1*
X526019Y1392816D2*
X445635D1*
X526019Y1419611D2*
Y1366021D1*
X506918Y1283927D2*
X514523Y1287729D1*
X522216Y1295423D1*
X526019Y1303028D1*
Y1318327D1*
X522216Y1326020D1*
X514523Y1333625D1*
X506918Y1337516D1*
X495422Y1341319D1*
X476232D1*
X464824Y1337516D1*
X457131Y1333625D1*
X449526Y1326020D1*
X445635Y1318327D1*
Y1303028D1*
X449526Y1295423D1*
X457131Y1287729D1*
X464824Y1283927D1*
X506829Y1255333D2*
X510632D1*
X518325Y1251531D1*
X522128Y1247728D1*
X525930Y1240034D1*
Y1224736D1*
X522128Y1217131D1*
X518325Y1213328D1*
X510632Y1209437D1*
X503027D1*
X495333Y1213328D1*
X483926Y1220933D1*
X445635Y1259224D1*
Y1205635D1*
X526019Y1092816D2*
X445635D1*
X526019Y1119611D2*
Y1066021D1*
X506918Y983927D2*
X514523Y987729D1*
X522216Y995423D1*
X526019Y1003028D1*
Y1018327D1*
X522216Y1026020D1*
X514523Y1033625D1*
X506918Y1037516D1*
X495422Y1041319D1*
X476232D1*
X464824Y1037516D1*
X457131Y1033625D1*
X449526Y1026020D1*
X445635Y1018327D1*
Y1003028D1*
X449526Y995423D1*
X457131Y987729D1*
X464824Y983927D1*
X525930Y951531D2*
Y909526D1*
X495333Y932429D1*
Y920933D1*
X491531Y913328D1*
X487728Y909526D1*
X476232Y905635D1*
X468627D1*
X457131Y909526D1*
X449437Y917131D1*
X445635Y928627D1*
Y940123D1*
X449437Y951531D1*
X453328Y955333D1*
X460933Y959224D1*
X526019Y657324D2*
Y707111D1*
X445635D1*
X487728D2*
Y676514D1*
X514523Y579032D2*
X522216Y586637D1*
X526019Y598133D1*
Y613432D1*
X522216Y624928D1*
X514523Y632621D1*
X506918D1*
X499224Y628730D1*
X495422Y624928D1*
X491619Y617323D1*
X483926Y594331D1*
X480123Y586637D1*
X476232Y582835D1*
X468627Y579032D1*
X457131D1*
X449526Y586637D1*
X445635Y598133D1*
Y613432D1*
X449526Y624928D1*
X457131Y632621D1*
X633561Y2567020D2*
D43*
X661196D1*
X676635Y2568236D2*
X698135D1*
X705320Y2570668D1*
X707752Y2573045D1*
X710128Y2577798D1*
Y2582606D1*
X707752Y2587359D1*
X705320Y2589791D1*
X698135Y2592168D1*
X676635D1*
Y2541928D1*
X693382Y2568236D2*
X710128Y2541928D1*
X725568Y2575421D2*
X751876Y2541928D1*
Y2575421D2*
X725568Y2541928D1*
X784062Y2592168D2*
Y2541928D1*
X767315Y2592168D2*
X800809D1*
X816248Y2575421D2*
X842556Y2541928D1*
Y2575421D2*
X816248Y2541928D1*
X879495Y2588548D2*
Y2545493D1*
X857995Y2566993D2*
X901050D1*
X1293700Y1967502D2*
D46*
Y1867022D1*
X1351070D1*
X1405825Y1934008D2*
X1396319Y1929255D1*
X1386702Y1919638D1*
X1381949Y1905268D1*
Y1895762D1*
X1386702Y1881392D1*
X1396319Y1871885D1*
X1405825Y1867022D1*
X1420195D1*
X1429812Y1871885D1*
X1439319Y1881392D1*
X1444182Y1895762D1*
Y1905268D1*
X1439319Y1919638D1*
X1429812Y1929255D1*
X1420195Y1934008D1*
X1405825D1*
X1532430D2*
Y1867022D1*
Y1919638D2*
X1522924Y1929255D1*
X1513307Y1934008D1*
X1499048D1*
X1489431Y1929255D1*
X1479924Y1919638D1*
X1475061Y1905268D1*
Y1895762D1*
X1479924Y1881392D1*
X1489431Y1871885D1*
X1499048Y1867022D1*
X1513307D1*
X1522924Y1871885D1*
X1532430Y1881392D1*
X1620679Y1967502D2*
Y1867022D1*
Y1919638D2*
X1611172Y1929255D1*
X1601556Y1934008D1*
X1587185D1*
X1577679Y1929255D1*
X1568062Y1919638D1*
X1563309Y1905268D1*
Y1895762D1*
X1568062Y1881392D1*
X1577679Y1871885D1*
X1587185Y1867022D1*
X1601556D1*
X1611172Y1871885D1*
X1620679Y1881392D1*
X1820499Y1943625D2*
X1815746Y1953132D1*
X1806129Y1962749D1*
X1796623Y1967502D1*
X1777499D1*
X1767882Y1962749D1*
X1758376Y1953132D1*
X1753512Y1943625D1*
X1748759Y1929255D1*
Y1905268D1*
X1753512Y1891009D1*
X1758376Y1881392D1*
X1767882Y1871885D1*
X1777499Y1867022D1*
X1796623D1*
X1806129Y1871885D1*
X1815746Y1881392D1*
X1820499Y1891009D1*
X1851378Y1905268D2*
X1908747D1*
Y1914885D1*
X1903994Y1924502D1*
X1899241Y1929255D1*
X1889624Y1934008D1*
X1875254D1*
X1865748Y1929255D1*
X1856131Y1919638D1*
X1851378Y1905268D1*
Y1895762D1*
X1856131Y1881392D1*
X1865748Y1871885D1*
X1875254Y1867022D1*
X1889624D1*
X1899241Y1871885D1*
X1908747Y1881392D1*
X1939626Y1967502D2*
Y1867022D1*
X1970504Y1967502D2*
Y1867022D1*
X910709Y1081069D2*
D45*
Y1020781D1*
X890613Y1081069D2*
X930805D1*
X949332D2*
Y1020781D1*
Y1049499D2*
X957954Y1058121D1*
X963724Y1060973D1*
X972346D1*
X978050Y1058121D1*
X980902Y1049499D1*
Y1020781D1*
X999429Y1043729D2*
X1033851D1*
Y1049499D1*
X1030999Y1055269D1*
X1028147Y1058121D1*
X1022377Y1060973D1*
X1013755D1*
X1008051Y1058121D1*
X1002281Y1052351D1*
X999429Y1043729D1*
Y1038025D1*
X1002281Y1029403D1*
X1008051Y1023699D1*
X1013755Y1020781D1*
X1022377D1*
X1028147Y1023699D1*
X1033851Y1029403D1*
X1052378Y1060973D2*
Y1020781D1*
Y1043729D2*
X1055296Y1052351D1*
X1061000Y1058121D1*
X1066770Y1060973D1*
X1075392D1*
X1093919D2*
Y1020781D1*
Y1049499D2*
X1102541Y1058121D1*
X1108311Y1060973D1*
X1116867D1*
X1122637Y1058121D1*
X1125489Y1049499D1*
Y1020781D1*
Y1049499D2*
X1134111Y1058121D1*
X1139881Y1060973D1*
X1148437D1*
X1154207Y1058121D1*
X1157125Y1049499D1*
Y1020781D1*
X1189978Y1060973D2*
X1184274Y1058121D1*
X1178504Y1052351D1*
X1175652Y1043729D1*
Y1038025D1*
X1178504Y1029403D1*
X1184274Y1023699D1*
X1189978Y1020781D1*
X1198600D1*
X1204370Y1023699D1*
X1210074Y1029403D1*
X1212992Y1038025D1*
Y1043729D1*
X1210074Y1052351D1*
X1204370Y1058121D1*
X1198600Y1060973D1*
X1189978D1*
X1266008Y1052351D2*
X1260238Y1058121D1*
X1254467Y1060973D1*
X1245912D1*
X1240142Y1058121D1*
X1234438Y1052351D1*
X1231520Y1043729D1*
Y1038025D1*
X1234438Y1029403D1*
X1240142Y1023699D1*
X1245912Y1020781D1*
X1254467D1*
X1260238Y1023699D1*
X1266008Y1029403D1*
X1298861Y1060973D2*
X1293157Y1058121D1*
X1287387Y1052351D1*
X1284535Y1043729D1*
Y1038025D1*
X1287387Y1029403D1*
X1293157Y1023699D1*
X1298861Y1020781D1*
X1307483D1*
X1313253Y1023699D1*
X1318957Y1029403D1*
X1321875Y1038025D1*
Y1043729D1*
X1318957Y1052351D1*
X1313253Y1058121D1*
X1307483Y1060973D1*
X1298861D1*
X1340402D2*
Y1032255D1*
X1343254Y1023699D1*
X1349024Y1020781D1*
X1357646D1*
X1363350Y1023699D1*
X1371972Y1032255D1*
Y1060973D2*
Y1020781D1*
X1390499Y1060973D2*
Y1000685D1*
Y1052351D2*
X1396269Y1058054D1*
X1401973Y1060973D1*
X1410595D1*
X1416365Y1058054D1*
X1422069Y1052351D1*
X1424987Y1043729D1*
Y1037958D1*
X1422069Y1029403D1*
X1416365Y1023633D1*
X1410595Y1020781D1*
X1401973D1*
X1396269Y1023633D1*
X1390499Y1029403D1*
X1443514Y1081069D2*
Y1020781D1*
X1462041Y1043729D2*
X1496463D1*
Y1049499D1*
X1493611Y1055269D1*
X1490760Y1058121D1*
X1484989Y1060973D1*
X1476367D1*
X1470664Y1058121D1*
X1464893Y1052351D1*
X1462041Y1043729D1*
Y1038025D1*
X1464893Y1029403D1*
X1470664Y1023699D1*
X1476367Y1020781D1*
X1484989D1*
X1490760Y1023699D1*
X1496463Y1029403D1*
X1610709Y1081069D2*
Y1020781D1*
X1590613Y1081069D2*
X1630805D1*
X1649332D2*
Y1020781D1*
Y1049499D2*
X1657954Y1058121D1*
X1663724Y1060973D1*
X1672346D1*
X1678050Y1058121D1*
X1680902Y1049499D1*
Y1020781D1*
X1699429Y1043729D2*
X1733851D1*
Y1049499D1*
X1730999Y1055269D1*
X1728147Y1058121D1*
X1722377Y1060973D1*
X1713755D1*
X1708051Y1058121D1*
X1702281Y1052351D1*
X1699429Y1043729D1*
Y1038025D1*
X1702281Y1029403D1*
X1708051Y1023699D1*
X1713755Y1020781D1*
X1722377D1*
X1728147Y1023699D1*
X1733851Y1029403D1*
X1752378Y1060973D2*
Y1020781D1*
Y1043729D2*
X1755296Y1052351D1*
X1761000Y1058121D1*
X1766770Y1060973D1*
X1775392D1*
X1793919D2*
Y1020781D1*
Y1049499D2*
X1802541Y1058121D1*
X1808311Y1060973D1*
X1816867D1*
X1822637Y1058121D1*
X1825489Y1049499D1*
Y1020781D1*
Y1049499D2*
X1834111Y1058121D1*
X1839881Y1060973D1*
X1848437D1*
X1854207Y1058121D1*
X1857125Y1049499D1*
Y1020781D1*
X1889978Y1060973D2*
X1884274Y1058121D1*
X1878504Y1052351D1*
X1875652Y1043729D1*
Y1038025D1*
X1878504Y1029403D1*
X1884274Y1023699D1*
X1889978Y1020781D1*
X1898600D1*
X1904370Y1023699D1*
X1910074Y1029403D1*
X1912992Y1038025D1*
Y1043729D1*
X1910074Y1052351D1*
X1904370Y1058121D1*
X1898600Y1060973D1*
X1889978D1*
X1966008Y1052351D2*
X1960238Y1058121D1*
X1954467Y1060973D1*
X1945912D1*
X1940142Y1058121D1*
X1934438Y1052351D1*
X1931520Y1043729D1*
Y1038025D1*
X1934438Y1029403D1*
X1940142Y1023699D1*
X1945912Y1020781D1*
X1954467D1*
X1960238Y1023699D1*
X1966008Y1029403D1*
X1998861Y1060973D2*
X1993157Y1058121D1*
X1987387Y1052351D1*
X1984535Y1043729D1*
Y1038025D1*
X1987387Y1029403D1*
X1993157Y1023699D1*
X1998861Y1020781D1*
X2007483D1*
X2013253Y1023699D1*
X2018957Y1029403D1*
X2021875Y1038025D1*
Y1043729D1*
X2018957Y1052351D1*
X2013253Y1058121D1*
X2007483Y1060973D1*
X1998861D1*
X2040402D2*
Y1032255D1*
X2043254Y1023699D1*
X2049024Y1020781D1*
X2057646D1*
X2063350Y1023699D1*
X2071972Y1032255D1*
Y1060973D2*
Y1020781D1*
X2090499Y1060973D2*
Y1000685D1*
Y1052351D2*
X2096269Y1058054D1*
X2101973Y1060973D1*
X2110595D1*
X2116365Y1058054D1*
X2122069Y1052351D1*
X2124987Y1043729D1*
Y1037958D1*
X2122069Y1029403D1*
X2116365Y1023633D1*
X2110595Y1020781D1*
X2101973D1*
X2096269Y1023633D1*
X2090499Y1029403D1*
X2143514Y1081069D2*
Y1020781D1*
X2162041Y1043729D2*
X2196463D1*
Y1049499D1*
X2193611Y1055269D1*
X2190760Y1058121D1*
X2184989Y1060973D1*
X2176367D1*
X2170664Y1058121D1*
X2164893Y1052351D1*
X2162041Y1043729D1*
Y1038025D1*
X2164893Y1029403D1*
X2170664Y1023699D1*
X2176367Y1020781D1*
X2184989D1*
X2190760Y1023699D1*
X2196463Y1029403D1*
X2335709Y1981069D2*
Y1920781D1*
X2315613Y1981069D2*
X2355805D1*
X2374332D2*
Y1920781D1*
Y1949499D2*
X2382954Y1958121D1*
X2388724Y1960973D1*
X2397346D1*
X2403050Y1958121D1*
X2405902Y1949499D1*
Y1920781D1*
X2424429Y1943729D2*
X2458851D1*
Y1949499D1*
X2455999Y1955269D1*
X2453147Y1958121D1*
X2447377Y1960973D1*
X2438755D1*
X2433051Y1958121D1*
X2427281Y1952351D1*
X2424429Y1943729D1*
Y1938025D1*
X2427281Y1929403D1*
X2433051Y1923699D1*
X2438755Y1920781D1*
X2447377D1*
X2453147Y1923699D1*
X2458851Y1929403D1*
X2477378Y1960973D2*
Y1920781D1*
Y1943729D2*
X2480296Y1952351D1*
X2486000Y1958121D1*
X2491770Y1960973D1*
X2500392D1*
X2518919D2*
Y1920781D1*
Y1949499D2*
X2527541Y1958121D1*
X2533311Y1960973D1*
X2541867D1*
X2547637Y1958121D1*
X2550489Y1949499D1*
Y1920781D1*
Y1949499D2*
X2559111Y1958121D1*
X2564881Y1960973D1*
X2573437D1*
X2579207Y1958121D1*
X2582125Y1949499D1*
Y1920781D1*
X2614978Y1960973D2*
X2609274Y1958121D1*
X2603504Y1952351D1*
X2600652Y1943729D1*
Y1938025D1*
X2603504Y1929403D1*
X2609274Y1923699D1*
X2614978Y1920781D1*
X2623600D1*
X2629370Y1923699D1*
X2635074Y1929403D1*
X2637992Y1938025D1*
Y1943729D1*
X2635074Y1952351D1*
X2629370Y1958121D1*
X2623600Y1960973D1*
X2614978D1*
X2691008Y1952351D2*
X2685238Y1958121D1*
X2679467Y1960973D1*
X2670912D1*
X2665142Y1958121D1*
X2659438Y1952351D1*
X2656520Y1943729D1*
Y1938025D1*
X2659438Y1929403D1*
X2665142Y1923699D1*
X2670912Y1920781D1*
X2679467D1*
X2685238Y1923699D1*
X2691008Y1929403D1*
X2723861Y1960973D2*
X2718157Y1958121D1*
X2712387Y1952351D1*
X2709535Y1943729D1*
Y1938025D1*
X2712387Y1929403D1*
X2718157Y1923699D1*
X2723861Y1920781D1*
X2732483D1*
X2738253Y1923699D1*
X2743957Y1929403D1*
X2746875Y1938025D1*
Y1943729D1*
X2743957Y1952351D1*
X2738253Y1958121D1*
X2732483Y1960973D1*
X2723861D1*
X2765402D2*
Y1932255D1*
X2768254Y1923699D1*
X2774024Y1920781D1*
X2782646D1*
X2788350Y1923699D1*
X2796972Y1932255D1*
Y1960973D2*
Y1920781D1*
X2815499Y1960973D2*
Y1900685D1*
Y1952351D2*
X2821269Y1958054D1*
X2826973Y1960973D1*
X2835595D1*
X2841365Y1958054D1*
X2847069Y1952351D1*
X2849987Y1943729D1*
Y1937958D1*
X2847069Y1929403D1*
X2841365Y1923633D1*
X2835595Y1920781D1*
X2826973D1*
X2821269Y1923633D1*
X2815499Y1929403D1*
X2868514Y1981069D2*
Y1920781D1*
X2887041Y1943729D2*
X2921463D1*
Y1949499D1*
X2918611Y1955269D1*
X2915760Y1958121D1*
X2909989Y1960973D1*
X2901367D1*
X2895664Y1958121D1*
X2889893Y1952351D1*
X2887041Y1943729D1*
Y1938025D1*
X2889893Y1929403D1*
X2895664Y1923699D1*
X2901367Y1920781D1*
X2909989D1*
X2915760Y1923699D1*
X2921463Y1929403D1*
X2615613Y1869528D2*
X2621383Y1872447D1*
X2630005Y1881002D1*
Y1820781D1*
X1168531Y966677D2*
Y969528D1*
X1171383Y975299D1*
X1174235Y978150D1*
X1180005Y981002D1*
X1191479D1*
X1197183Y978150D1*
X1200034Y975299D1*
X1202953Y969528D1*
Y963825D1*
X1200034Y958054D1*
X1194331Y949499D1*
X1165613Y920781D1*
X1205805D1*
X1871383Y981002D2*
X1902886D1*
X1885709Y958054D1*
X1894331D1*
X1900034Y955203D1*
X1902886Y952351D1*
X1905805Y943729D1*
Y938025D1*
X1902886Y929403D1*
X1897183Y923633D1*
X1888561Y920781D1*
X1879938D1*
X1871383Y923633D1*
X1868531Y926551D1*
X1865613Y932255D1*
X2485709Y2081069D2*
Y2020781D1*
X2465613Y2081069D2*
X2505805D1*
X2527250Y2060973D2*
X2544428Y2020781D1*
X2538724Y2009307D1*
X2532954Y2003537D1*
X2527250Y2000685D1*
X2524332D1*
X2561672Y2060973D2*
X2544428Y2020781D1*
X2580199Y2060973D2*
Y2000685D1*
Y2052351D2*
X2585969Y2058054D1*
X2591673Y2060973D1*
X2600295D1*
X2606065Y2058054D1*
X2611769Y2052351D1*
X2614687Y2043729D1*
Y2037958D1*
X2611769Y2029403D1*
X2606065Y2023633D1*
X2600295Y2020781D1*
X2591673D1*
X2585969Y2023633D1*
X2580199Y2029403D1*
X2633214Y2043729D2*
X2667636D1*
Y2049499D1*
X2664784Y2055269D1*
X2661932Y2058121D1*
X2656162Y2060973D1*
X2647540D1*
X2641836Y2058121D1*
X2636066Y2052351D1*
X2633214Y2043729D1*
Y2038025D1*
X2636066Y2029403D1*
X2641836Y2023699D1*
X2647540Y2020781D1*
X2656162D1*
X2661932Y2023699D1*
X2667636Y2029403D1*
X2744484Y2081069D2*
Y2020781D1*
X2784676Y2081069D2*
X2744484Y2040877D1*
X2758810Y2055269D2*
X2784676Y2020781D1*
X1760709Y1181069D2*
Y1120781D1*
X1740613Y1181069D2*
X1780805D1*
X1802250Y1160973D2*
X1819428Y1120781D1*
X1813724Y1109307D1*
X1807954Y1103537D1*
X1802250Y1100685D1*
X1799332D1*
X1836672Y1160973D2*
X1819428Y1120781D1*
X1855199Y1160973D2*
Y1100685D1*
Y1152351D2*
X1860969Y1158054D1*
X1866673Y1160973D1*
X1875295D1*
X1881065Y1158054D1*
X1886769Y1152351D1*
X1889687Y1143729D1*
Y1137958D1*
X1886769Y1129403D1*
X1881065Y1123633D1*
X1875295Y1120781D1*
X1866673D1*
X1860969Y1123633D1*
X1855199Y1129403D1*
X1908214Y1143729D2*
X1942636D1*
Y1149499D1*
X1939784Y1155269D1*
X1936932Y1158121D1*
X1931162Y1160973D1*
X1922540D1*
X1916836Y1158121D1*
X1911066Y1152351D1*
X1908214Y1143729D1*
Y1138025D1*
X1911066Y1129403D1*
X1916836Y1123699D1*
X1922540Y1120781D1*
X1931162D1*
X1936932Y1123699D1*
X1942636Y1129403D1*
X2019484Y1181069D2*
Y1120781D1*
X2059676Y1181069D2*
X2019484Y1140877D1*
X2033810Y1155269D2*
X2059676Y1120781D1*
X1060709Y1181069D2*
Y1120781D1*
X1040613Y1181069D2*
X1080805D1*
X1102250Y1160973D2*
X1119428Y1120781D1*
X1113724Y1109307D1*
X1107954Y1103537D1*
X1102250Y1100685D1*
X1099332D1*
X1136672Y1160973D2*
X1119428Y1120781D1*
X1155199Y1160973D2*
Y1100685D1*
Y1152351D2*
X1160969Y1158054D1*
X1166673Y1160973D1*
X1175295D1*
X1181065Y1158054D1*
X1186769Y1152351D1*
X1189687Y1143729D1*
Y1137958D1*
X1186769Y1129403D1*
X1181065Y1123633D1*
X1175295Y1120781D1*
X1166673D1*
X1160969Y1123633D1*
X1155199Y1129403D1*
X1208214Y1143729D2*
X1242636D1*
Y1149499D1*
X1239784Y1155269D1*
X1236932Y1158121D1*
X1231162Y1160973D1*
X1222540D1*
X1216836Y1158121D1*
X1211066Y1152351D1*
X1208214Y1143729D1*
Y1138025D1*
X1211066Y1129403D1*
X1216836Y1123699D1*
X1222540Y1120781D1*
X1231162D1*
X1236932Y1123699D1*
X1242636Y1129403D1*
X1319484Y1181069D2*
Y1120781D1*
X1359676Y1181069D2*
X1319484Y1140877D1*
X1333810Y1155269D2*
X1359676Y1120781D1*
M02*
