%TF.GenerationSoftware,Novarm,DipTrace,3.3.0.1*%
%TF.CreationDate,2018-11-14T10:20:17-08:00*%
%FSLAX26Y26*%
%MOIN*%
%TF.FileFunction,Soldermask,Bot*%
%TF.Part,Single*%
%ADD64C,0.125*%
%ADD65C,0.09*%
%ADD73C,0.06788*%
%ADD75C,0.086896*%
%ADD103C,0.074809*%
%ADD105R,0.074809X0.074809*%
%ADD113O,0.12599X0.263786*%
%ADD115C,0.066935*%
%ADD117R,0.066935X0.066935*%
%ADD121C,0.118116*%
%ADD123R,0.118116X0.118116*%
%ADD135C,0.106305*%
%ADD137C,0.110242*%
G75*
G01*
%LPD*%
D137*
X1584951Y3131200D3*
X1787707D3*
Y3333956D3*
X1584951D3*
D135*
X1686329Y3232578D3*
D123*
X2197449Y1843700D3*
D121*
Y1101968D3*
D117*
X597443Y1568556D3*
D115*
Y1668556D3*
Y1768556D3*
D73*
X3434645Y3337120D3*
Y2549718D3*
D64*
X573700Y3538700D3*
X2741200Y2049949D3*
X573700Y548700D3*
X4848700D3*
Y3538700D3*
D113*
X3916111Y2544020D3*
Y2232997D3*
X3916200Y1193913D3*
Y882889D3*
Y3218700D3*
Y2907676D3*
Y1868842D3*
Y1557818D3*
D117*
X1359949Y637449D3*
D115*
X1459949D3*
D105*
X1616200Y756200D3*
D103*
Y933365D3*
X1360294D3*
Y756200D3*
D75*
X2916200Y574949D3*
X3016200D3*
X3116200D3*
X3216200D3*
X3316200D3*
X3416200D3*
X3516200D3*
X3616200D3*
X3716200D3*
D65*
X2916200Y1734949D3*
X3716200D3*
D117*
X766200Y493700D3*
D115*
X866200D3*
X966200D3*
X1066200D3*
X1166200D3*
M02*
