%TF.GenerationSoftware,Novarm,DipTrace,3.3.0.1*%
%TF.CreationDate,2018-11-14T10:14:46-08:00*%
%FSLAX26Y26*%
%MOIN*%
%TF.FileFunction,Soldermask,Bot*%
%TF.Part,Single*%
%ADD70C,0.124803*%
%ADD109C,0.074809*%
%ADD111R,0.074809X0.074809*%
%ADD113O,0.12599X0.263786*%
%ADD115C,0.06788*%
%ADD117R,0.06788X0.06788*%
%ADD121C,0.12599*%
%ADD123R,0.12599X0.12599*%
%ADD127C,0.066935*%
%ADD129R,0.066935X0.066935*%
%ADD131C,0.118116*%
%ADD133R,0.118116X0.118116*%
G75*
G01*
%LPD*%
D133*
X3566928Y2417322D3*
D131*
X4308661D3*
D129*
X1961859Y2018490D3*
D127*
Y1918490D3*
Y1818490D3*
D123*
X2881889Y2889743D3*
D121*
X3256889D3*
D123*
X3718523D3*
D121*
X4093523D3*
D123*
X4347932Y1342991D3*
D121*
Y967991D3*
D123*
X3764251Y730806D3*
D121*
X3389251D3*
D123*
X2921731D3*
D121*
X2546731D3*
D123*
X2083149D3*
D121*
X1708149D3*
D123*
X1244566D3*
D121*
X869566D3*
D117*
X2224409Y2509842D3*
D115*
X2624409D3*
D117*
X2624015Y2657480D3*
D115*
X2224015D3*
D129*
X656751Y2415460D3*
D127*
X756751D3*
X856751D3*
X956751D3*
X1056751D3*
D113*
X3590550Y2090550D3*
Y1779527D3*
D129*
X1161860Y1631031D3*
D127*
X1061860D3*
D111*
X1543109D3*
D109*
Y1808196D3*
X1287204D3*
Y1631031D3*
D70*
X4456692Y3082676D3*
X519684D3*
X4468503Y618109D3*
X519684D3*
M02*
