%TF.GenerationSoftware,Novarm,DipTrace,3.3.0.1*%
%TF.CreationDate,2018-11-14T10:14:50-08:00*%
%FSLAX26Y26*%
%MOIN*%
%TF.FileFunction,Plated,1,2,PTH,Drill*%
%TF.Part,Single*%
%TA.AperFunction,ComponentDrill*%
%ADD21C,0.03937*%
%TA.AperFunction,ViaDrill*%
%ADD68C,0.019121*%
%TA.AperFunction,ComponentDrill*%
%ADD70C,0.066929*%
%ADD71C,0.035433*%
%ADD72C,0.073*%
%ADD73C,0.034003*%
%ADD74C,0.059055*%
G75*
G01*
D70*
X3566928Y2417322D3*
X4308661D3*
D71*
X1961859Y2018490D3*
Y1918490D3*
Y1818490D3*
D72*
X2881889Y2889743D3*
X3256889D3*
X3718523D3*
X4093523D3*
X4347932Y1342991D3*
Y967991D3*
X3764251Y730806D3*
X3389251D3*
X2921731D3*
X2546731D3*
X2083149D3*
X1708149D3*
X1244566D3*
X869566D3*
D73*
X2224409Y2509842D3*
X2624409D3*
X2624015Y2657480D3*
X2224015D3*
D71*
X656751Y2415460D3*
X756751D3*
X856751D3*
X956751D3*
X1056751D3*
X3590550Y2011810D2*
D74*
Y2169291D1*
Y1700787D2*
Y1858267D1*
D71*
X1161860Y1631031D3*
X1061860D3*
D21*
X1543109D3*
Y1808196D3*
X1287204D3*
Y1631031D3*
D68*
X3208661Y1348424D3*
X3625983D3*
X2791338D3*
X2374015D3*
X1539369D3*
X1956692D3*
X1122046D3*
X3318897Y1299212D3*
X3208661Y1417322D3*
X2901574Y1299212D3*
X2051180Y1295275D3*
X2326771Y1409448D3*
X2775590Y1407480D3*
X2476377Y1295275D3*
X1948818Y1425196D3*
X1545275Y1446850D3*
X1629920Y1295275D3*
X1224409D3*
X1102361Y1476377D3*
X799212Y1299212D3*
X1917322Y2437007D3*
X1543306Y2547243D3*
X1106298Y2492125D3*
X1039369Y519684D3*
X960629Y3122046D3*
X1173228Y2803149D3*
X1200787Y1858267D3*
X1188976Y2051180D3*
X1527558Y1885826D3*
X1905511Y535432D3*
X2744094Y539369D3*
X994094Y1820865D3*
Y2116141D3*
X3330708Y1850393D3*
X4392125Y2342519D3*
X4442125D3*
X4492125D3*
X799212Y1637794D3*
X767716Y1102361D3*
X1188976D3*
X1610235D3*
X2023621D3*
X2452755D3*
X2877952D3*
X3299212D3*
X1377952Y2299212D3*
X1594487D3*
Y2090550D3*
X1377952D3*
X4542125Y2342519D3*
X4592125D3*
Y2392519D3*
Y2442519D3*
Y2542519D3*
X4542125D3*
X4492125D3*
X4442125D3*
X4392125D3*
Y2592519D3*
Y2642519D3*
X4492125Y2592519D3*
Y2642519D3*
X4592125Y2592519D3*
Y2642519D3*
X4392125Y2742519D3*
X4442125D3*
X4492125D3*
X4542125D3*
X4592125Y2792519D3*
X4542125Y2842519D3*
X4492125D3*
X4442125D3*
X4392125D3*
Y2792519D3*
X4592125Y2742519D3*
Y2842519D3*
X3582676Y535432D3*
X4535432Y1157480D3*
X4145669Y1629920D3*
X4153543Y1964566D3*
X3885826Y3133857D3*
X3066928Y3137794D3*
X2507873Y2893700D3*
X964566Y2972440D3*
X1901574Y2618109D3*
X2452755Y2503936D3*
X2787401Y2417322D3*
X3342519Y2118109D3*
X3039369Y1830708D3*
X3460629Y1539369D3*
X1854330Y1669291D3*
X543306Y1803149D3*
X468503Y2228346D3*
X551180Y1185039D3*
X822834Y2220472D3*
M02*
