%TF.GenerationSoftware,Novarm,DipTrace,3.3.0.1*%
%TF.CreationDate,2018-11-14T10:14:45-08:00*%
%FSLAX26Y26*%
%MOIN*%
%TF.FileFunction,Copper,L1,Top*%
%TF.Part,Single*%
%AMOUTLINE0*
4,1,4,
0.019685,-0.021654,
-0.019685,-0.021654,
-0.019685,0.021654,
0.019685,0.021654,
0.019685,-0.021654,
0*%
%AMOUTLINE3*
4,1,4,
-0.019685,0.021654,
0.019685,0.021654,
0.019685,-0.021654,
-0.019685,-0.021654,
-0.019685,0.021654,
0*%
%AMOUTLINE6*
4,1,4,
-0.021654,-0.019685,
-0.021654,0.019685,
0.021654,0.019685,
0.021654,-0.019685,
-0.021654,-0.019685,
0*%
%AMOUTLINE9*
4,1,4,
0.21063,-0.169291,
-0.21063,-0.169291,
-0.21063,0.169291,
0.21063,0.169291,
0.21063,-0.169291,
0*%
%AMOUTLINE12*
4,1,4,
0.019685,-0.066929,
-0.019685,-0.066929,
-0.019685,0.066929,
0.019685,0.066929,
0.019685,-0.066929,
0*%
%TA.AperFunction,Conductor*%
%ADD10C,0.009843*%
%ADD15C,0.012992*%
%ADD16C,0.011811*%
%ADD17C,0.008661*%
%ADD18C,0.006299*%
%ADD19C,0.009449*%
%ADD20C,0.02*%
%ADD21C,0.03937*%
%ADD22C,0.03*%
%ADD23C,0.011801*%
%ADD24C,0.05*%
%ADD25C,0.019685*%
%TA.AperFunction,CopperBalancing*%
%ADD26C,0.025*%
%ADD27C,0.013*%
%ADD28C,0.005118*%
%ADD29R,0.043307X0.03937*%
%ADD30R,0.03937X0.043307*%
%ADD31R,0.122047X0.043307*%
%ADD32R,0.074803X0.165354*%
%TA.AperFunction,ComponentPad*%
%ADD33R,0.110236X0.110236*%
%ADD34C,0.110236*%
%ADD35R,0.059055X0.059055*%
%ADD36C,0.059055*%
%ADD37R,0.023622X0.086614*%
%TA.AperFunction,ComponentPad*%
%ADD38R,0.11811X0.11811*%
%ADD39C,0.11811*%
%ADD40R,0.037402X0.03937*%
%TA.AperFunction,ComponentPad*%
%ADD41R,0.06X0.06*%
%ADD42C,0.06*%
%ADD43O,0.11811X0.255906*%
%ADD44R,0.066929X0.066929*%
%ADD45C,0.066929*%
%ADD46R,0.033465X0.051181*%
%ADD47R,0.055118X0.088583*%
%ADD48R,0.086614X0.023622*%
%ADD53R,0.011811X0.057087*%
%ADD54R,0.057087X0.011811*%
%ADD55R,0.030551X0.009449*%
%ADD56R,0.009449X0.030551*%
%ADD58R,0.022441X0.051969*%
%ADD59R,0.035433X0.031496*%
%ADD60R,0.037402X0.021654*%
%ADD61R,0.051181X0.033465*%
%ADD62R,0.088583X0.055118*%
%ADD64R,0.041339X0.025591*%
%ADD66R,0.027559X0.009843*%
%ADD67R,0.066929X0.098425*%
%TA.AperFunction,ViaPad*%
%ADD68C,0.04*%
%ADD151OUTLINE0*%
%ADD154OUTLINE3*%
%ADD157OUTLINE6*%
%ADD160OUTLINE9*%
%ADD163OUTLINE12*%
G75*
G01*
%LPD*%
X1611859Y2618427D2*
D15*
Y2657480D1*
X1536931D1*
X1541582Y2652829D1*
X992444Y2610098D2*
X988188D1*
Y2527558D1*
X992444Y2610098D2*
Y2614172D1*
X929133D1*
X901574Y2641731D1*
Y2795275D1*
X972440Y2866141D1*
X1370843D1*
X1480314D1*
X1541582Y2804873D1*
Y2652829D1*
X1800294Y2059579D2*
X1850294D1*
X1336859Y1962246D2*
D16*
Y1949734D1*
D15*
X1318123Y1930998D1*
Y1899746D1*
X1136860Y1980994D2*
X1193109D1*
X1710875Y2080356D2*
D16*
X1745914D1*
D15*
X1779518D1*
X1800294Y2059579D1*
X1258119Y2040986D2*
D16*
X1249380D1*
D15*
Y2037264D1*
X1193109Y1980994D1*
X1228346Y2480314D2*
Y2527558D1*
X801045Y1735075D2*
D17*
Y1681025D1*
D15*
X799360D1*
X1336859Y2415002D2*
Y2432825D1*
X1289369Y2480314D1*
X1228346D1*
X1193109Y1980994D2*
X1199359Y1974745D1*
X1280609D1*
X1318123Y1937231D1*
Y1899746D1*
X906478Y1809012D2*
D17*
X946892D1*
X974409Y1781495D1*
D15*
X1013779D1*
X1043306Y1811023D1*
Y1850393D1*
X1082676Y1889763D1*
Y1926810D1*
X1136860Y1980994D1*
X879785Y1867201D2*
D17*
Y1879061D1*
X893109Y1892385D1*
D15*
Y1945844D1*
Y2055985D1*
X900327Y2063203D1*
X905609Y2068485D1*
X986859D1*
X999357Y2080983D1*
X1068111D1*
X1080609Y2068485D1*
X774352Y1824760D2*
D17*
X752581D1*
X740082Y1837259D1*
D15*
X710235D1*
X1710875Y2336262D2*
D16*
X1745914D1*
D15*
X1783464Y2373812D1*
Y2385826D1*
X1838582D1*
X1710875Y2080356D2*
D16*
X1675835D1*
D15*
X1661859Y2066380D1*
Y2030989D1*
X1649360Y2018490D1*
X1355609D1*
D16*
X1336859Y1999739D1*
Y1962246D1*
X1710875Y2336262D2*
X1675835D1*
D15*
X1661859Y2322285D1*
Y2066380D1*
X1082676Y1889763D2*
X1241419Y1731020D1*
X1593109D1*
X1336859Y2415002D2*
D16*
Y2379962D1*
D15*
X1360867Y2355955D1*
X1649360D1*
X1669053Y2336262D1*
X1675835D1*
X830609Y1945844D2*
X893109D1*
X1011810Y2185039D2*
X980314D1*
X933070Y2137794D1*
X830609Y2093482D2*
X874922Y2137794D1*
X933070D1*
X900327Y2063203D2*
X879709D1*
X849430Y2093482D1*
X830609D1*
X1546062Y1154684D2*
X1601771D1*
X1603149Y1156062D1*
X1967322Y1154684D2*
X2023031D1*
X2024409Y1156062D1*
X2392519Y1154684D2*
X2448228D1*
X2449606Y1156062D1*
X2874802Y1158634D2*
X2819094D1*
X2817716Y1157256D1*
X3296062Y1156041D2*
X3294690Y1154669D1*
X3238976D1*
X1185472Y1156062D2*
X1130766D1*
X764714Y1156044D2*
X707775D1*
X799360Y1681025D2*
Y1637943D1*
X799212Y1637794D1*
X767716Y1102361D2*
Y1153043D1*
X764714Y1156044D1*
X1188976Y1102361D2*
Y1152558D1*
X1185472Y1156062D1*
X1610235Y1102361D2*
Y1148976D1*
X1603149Y1156062D1*
X2023621Y1102361D2*
Y1155275D1*
X2024409Y1156062D1*
X3299212Y1102361D2*
Y1152892D1*
X3296062Y1156041D1*
X2877952Y1102361D2*
Y1155485D1*
X2874802Y1158634D1*
X2452755Y1102361D2*
Y1152913D1*
X2449606Y1156062D1*
X1024360Y1968495D2*
Y1943499D1*
X973246Y1892385D1*
D17*
X893109D1*
X2165354Y2885826D2*
D15*
Y2866141D1*
X2013869D1*
X1972145Y2907865D1*
X1611859Y2618427D2*
Y2666977D1*
X1665354Y2720472D1*
X1784751D1*
X1972145Y2907865D1*
X801045Y1735075D2*
D17*
Y1757738D1*
X852319Y1809012D1*
X879785D1*
X906478D1*
X879785Y1867201D2*
Y1824760D1*
Y1809012D1*
X774352Y1824760D2*
X879785D1*
X1374350Y2830880D2*
D15*
X1370843D1*
Y2866141D1*
X1056751Y2415460D2*
X1011369Y2370078D1*
X925196D1*
X905511Y2389763D1*
Y2433070D1*
X999999Y2527558D1*
X988188D1*
X1056751Y2415460D2*
X1163491D1*
X1228346Y2480314D1*
X830609Y2093482D2*
X703620Y2220472D1*
X570865D1*
X1937007Y2700787D2*
X2048432D1*
X2165354D1*
X2188976D1*
X2224015Y2665747D1*
Y2657480D1*
X2043306Y2700787D2*
D18*
X2048432D1*
X2165354Y2787401D2*
D15*
Y2700787D1*
X2240157Y2787401D2*
Y2744703D1*
X2196241Y2700787D1*
X2188976D1*
X830609Y2044270D2*
X786075D1*
X774359Y2055986D1*
X1573079Y1962246D2*
D16*
Y1926002D1*
D15*
X1661835Y1837246D1*
Y1780997D2*
Y1837246D1*
X1656102Y1731020D2*
Y1744011D1*
X1661835Y1749745D1*
Y1780997D1*
X3238976Y1221598D2*
X3264566Y1247188D1*
Y1259600D1*
X1592764Y2415002D2*
D16*
Y2462843D1*
D15*
X1614172Y2484251D1*
X1669291D1*
X1720472Y2535432D1*
X2001968D1*
X2401574Y2135826D1*
Y1527558D1*
X2433070Y1496062D1*
X2814960D1*
X2854330Y1456692D1*
X3248031D1*
X3264566Y1440157D1*
Y1259600D1*
X3449606Y1247188D2*
D10*
X3413885D1*
D15*
X3393041Y1268032D1*
Y1349773D1*
X3384944Y1341676D1*
X3368897D1*
X1573079Y2415002D2*
D16*
Y2450041D1*
D15*
Y2470717D1*
X1606298Y2503936D1*
X1661417D1*
X1712598Y2555117D1*
X2011810D1*
X2421259Y2145669D1*
Y1539369D1*
X2444881Y1515747D1*
X2824802D1*
X2864172Y1476377D1*
X3257873D1*
X3326771Y1407480D1*
Y1383802D1*
X3368897Y1341676D1*
X2817716Y1224186D2*
Y1236587D1*
X2843306Y1262178D1*
X1632134Y2415002D2*
D16*
X1633857D1*
Y2444881D1*
D15*
X1692913D1*
X1740157Y2492125D1*
X1986220D1*
X2362204Y2116141D1*
Y1503936D1*
X2409448Y1456692D1*
X2795275D1*
X2843306Y1408661D1*
Y1262178D1*
X3028346Y1249776D2*
D10*
X3008070D1*
D15*
X2990944D1*
X2979133Y1261587D1*
Y1312768D1*
X2947637Y1344264D1*
X1612449Y2415002D2*
D16*
Y2454969D1*
D15*
X1622046Y2464566D1*
X1681102D1*
X1732283Y2515747D1*
X1992125D1*
X2381889Y2125983D1*
Y1515747D1*
X2421259Y1476377D1*
X2803149D1*
X2935262Y1344264D1*
X2947637D1*
X2392519Y1221613D2*
Y1234015D1*
X2418109Y1259606D1*
X1710875Y2257522D2*
D16*
X1745914D1*
D15*
X2161768D1*
X2322834Y2096456D1*
Y1480314D1*
X2421259Y1381889D1*
Y1259606D1*
X2418109D1*
X2522440Y1341692D2*
X2534251D1*
X2546062Y1329881D1*
Y1266889D1*
X2565747Y1247204D1*
X2582873D1*
D10*
X2603149D1*
X1710875Y2277207D2*
D16*
X1745914D1*
D15*
X2171611D1*
X2342519Y2106298D1*
Y1492125D1*
X2492952Y1341692D1*
X2522440D1*
X1967322Y1221613D2*
Y1234015D1*
X1992913Y1259606D1*
X1710875Y2218151D2*
D16*
X1745914D1*
D15*
X2142083D1*
X2283464Y2076771D1*
Y1527558D1*
X2224409Y1468503D1*
X2049212D1*
X2007873Y1427165D1*
Y1259606D1*
X1992913D1*
X2097243Y1341692D2*
Y1337755D1*
X2124802Y1310196D1*
Y1259015D1*
X2136613Y1247204D1*
X2157676D1*
D10*
X2177952D1*
X1710875Y2237836D2*
D16*
X1745914D1*
D15*
X2151926D1*
X2303149Y2086613D1*
Y1511810D1*
X2240157Y1448818D1*
X2068897D1*
X2059054Y1438976D1*
Y1379881D1*
X2097243Y1341692D1*
X1546062Y1221613D2*
Y1234015D1*
X1571653Y1259606D1*
X1710875Y2178781D2*
X2122398D1*
X2244094Y2057086D1*
Y1555117D1*
X2196850Y1507873D1*
X1685039D1*
X1574802Y1397637D1*
Y1259606D1*
X1571653D1*
X1756692Y1247204D2*
D10*
X1736417D1*
D15*
X1711417D1*
X1703543Y1255078D1*
Y1314133D1*
X1675983Y1341692D1*
X1710875Y2198466D2*
D16*
X1745914D1*
D15*
X2132241D1*
X2263779Y2066928D1*
Y1543306D1*
X2208661Y1488188D1*
X1694881D1*
X1633857Y1427165D1*
Y1377952D1*
X1670117Y1341692D1*
X1675983D1*
X1167746Y1259606D2*
Y1254360D1*
X1136377Y1222991D1*
X1130766D1*
X1710875Y2139411D2*
D16*
X1745914D1*
D15*
X2102713D1*
X2204724Y2037401D1*
Y1578739D1*
X2173228Y1547243D1*
X1665354D1*
X1633857Y1515747D1*
X1259842D1*
X1167746Y1423651D1*
Y1259606D1*
X1374369Y1254172D2*
D10*
X1372637Y1255905D1*
D15*
X1322834D1*
X1316766Y1261973D1*
Y1297406D1*
X1274178Y1339994D1*
Y1341692D1*
X1710875Y2159096D2*
D16*
X1745914D1*
D15*
X2112556D1*
X2224409Y2047243D1*
Y1566928D1*
X2185039Y1527558D1*
X1675196D1*
X1643700Y1496062D1*
X1282480D1*
X1236220Y1449802D1*
Y1341692D1*
X1274178D1*
X742913Y1259606D2*
X707775Y1224468D1*
Y1222973D1*
X742913Y1259606D2*
X751676D1*
Y1405220D1*
X901574Y1555117D1*
X1614172D1*
X1645669Y1586613D1*
X2149606D1*
X2165354Y1602361D1*
Y2017716D1*
X2083028Y2100041D1*
X1710875D1*
X933464Y1254159D2*
D10*
X931718Y1255905D1*
D15*
X885826D1*
X874015Y1267716D1*
Y1326771D1*
X859094Y1341692D1*
X850393D1*
X1710875Y2119726D2*
X2092871D1*
X2185039Y2027558D1*
Y1590550D1*
X2161417Y1566928D1*
X1655511D1*
X1624015Y1535432D1*
X909448D1*
X814960Y1440944D1*
Y1360235D1*
X833503Y1341692D1*
X850393D1*
X1710875Y2040986D2*
D16*
Y2028585D1*
D15*
X1711860Y2027599D1*
Y1987245D1*
X1780604Y1918501D1*
X1793108D1*
X1632134Y1962246D2*
D16*
X1656911Y1937469D1*
D15*
X1707127Y1887254D1*
X1755615D1*
X1793108Y1849760D1*
Y1818511D1*
X1961859Y1918490D2*
X1961848Y1918501D1*
X1860037D1*
X1961859Y1818490D2*
X1961838Y1818511D1*
X1860037D1*
X1661070Y2994707D2*
Y2911749D1*
X1666291Y2906528D1*
X1668109D1*
Y2823151D1*
X1661859D1*
X1611857Y2994707D2*
Y2906528D1*
X1599361D1*
X1611859Y2823151D2*
Y2906528D1*
X1533709Y2415002D2*
Y2486465D1*
X1596928Y2549684D1*
X1643111D1*
X1661859Y2568432D1*
Y2618427D1*
X1710283Y2994707D2*
Y2823151D1*
X1711859D1*
X1759495Y2994707D2*
X1761859D1*
Y2823151D1*
X1553394Y2415002D2*
D16*
Y2478591D1*
D15*
X1599490Y2524687D1*
X1649360D1*
X1711859Y2587186D1*
Y2618427D1*
X3449606Y1286558D2*
D10*
X3442070D1*
X3460629Y1305117D1*
D15*
Y1375928D1*
X3427952Y1408606D1*
X2901574Y1299212D2*
X2933490D1*
X2933857Y1299579D1*
X2083464Y1297007D2*
X2052913D1*
X2051180Y1295275D1*
X2508661Y1297007D2*
X2478109D1*
X2476377Y1295275D1*
X2603149Y1286574D2*
Y1303936D1*
X2618109Y1318897D1*
Y1372007D1*
X2581495Y1408621D1*
X3028346Y1289146D2*
D10*
X3030314Y1291115D1*
D15*
X3041338Y1317716D1*
Y1376548D1*
X3006692Y1411193D1*
X2156298Y1408621D2*
Y1406692D1*
X2194881Y1368109D1*
Y1318897D1*
D10*
X2175196Y1299212D1*
Y1286574D1*
X2177952D1*
X2097243Y1408621D2*
D15*
X2156298D1*
X2719291D2*
X2660235D1*
X2581495D2*
X2522440D1*
X3006692Y1411193D2*
X2947637D1*
X3144487D2*
X3085432D1*
X1337474Y1408621D2*
X1274178D1*
X1486708D2*
X1419133D1*
X909448D2*
X850393D1*
X988188D2*
X1047243D1*
X3427952Y1408606D2*
X3368897D1*
X3565747D2*
X3506692D1*
X1735039Y1408621D2*
X1675983D1*
X1813779D2*
X1872834D1*
X1756692Y1286574D2*
D10*
X1761810Y1291692D1*
D15*
Y1299212D1*
X1771653Y1309054D1*
Y1387794D1*
X1750826Y1408621D1*
X1735039D1*
X1662204Y1297007D2*
X1631653D1*
X1629920Y1295275D1*
X1337474Y1408621D2*
Y1418430D1*
X1374369Y1381535D1*
Y1304960D1*
D10*
Y1293543D1*
X1258297Y1297007D2*
D15*
X1226141D1*
X1224409Y1295275D1*
X909448Y1408621D2*
Y1423228D1*
X944881Y1387794D1*
Y1316364D1*
X933464Y1304947D1*
D10*
Y1293529D1*
X1850294Y1992650D2*
D15*
X1800294D1*
X1710875Y2060671D2*
D16*
X1748382D1*
D15*
X1761810Y2047243D1*
Y2031134D1*
X1800294Y1992650D1*
X1838582Y2452755D2*
X1783464D1*
X1710875Y2316577D2*
D16*
X1745914D1*
D15*
X1753585D1*
X1783464Y2346456D1*
X1838582D1*
X1862204Y2322834D1*
Y2326771D1*
X1877952Y2311023D1*
X1356544Y2415002D2*
D16*
Y2450041D1*
D15*
Y2472195D1*
X1261810Y2566928D1*
X1169291D1*
X1161417Y2559054D1*
Y2527558D1*
X1543306Y2547243D2*
Y2584175D1*
X1541582Y2585899D1*
X1136860Y1914065D2*
X1193109D1*
X1236875D1*
X1251193Y1899746D1*
Y1894474D1*
X1287401Y1858267D1*
X1350393D1*
X1391872Y1899746D1*
X1376180D1*
X1728764Y1780997D2*
Y1837246D1*
X1258119Y2060671D2*
D16*
X1223079D1*
D15*
X1198466D1*
X1188976Y2051180D1*
X1553394Y1962246D2*
D16*
Y1927207D1*
D15*
Y1911662D1*
X1527558Y1885826D1*
X830609Y1995057D2*
X780359D1*
X774359Y1989057D1*
X3006692Y1411193D2*
X3085432D1*
X2660235Y1408621D2*
X2581495D1*
X2235039D2*
X2156298D1*
X1735039D2*
X1813779D1*
X3506692Y1408606D2*
X3427952D1*
X2235039Y1408621D2*
X2294094D1*
X2326771Y1409448D2*
X2294920D1*
X2294094Y1408621D1*
X774352Y1777516D2*
D18*
X749957D1*
X740157Y1767716D1*
Y1744007D1*
X710235Y1714086D1*
X2202755Y2787401D2*
D15*
Y2834645D1*
X2110235D1*
X2043306Y2767716D1*
X933070Y2204724D2*
Y2212598D1*
X952755Y2232283D1*
X1027558D1*
X1035432Y2240157D1*
X1161417Y2527558D2*
Y2480314D1*
X879785Y1735075D2*
D19*
X891006D1*
D15*
X947674D1*
X964566Y1751968D1*
X939018Y1777516D1*
D17*
X906478D1*
X1035432Y2240157D2*
D15*
X1078739Y2196850D1*
Y2185039D1*
X1258119Y2159096D2*
D16*
X1155159D1*
D15*
X1131477Y2135414D1*
X1080609D1*
X1044920D1*
X1043107Y2137228D1*
X1005608D1*
X994094Y2125713D1*
X989308Y2120927D1*
X961863Y2093482D1*
X930609D1*
X906478Y1824760D2*
D17*
X990199D1*
D15*
X994094Y1820865D1*
Y2116141D2*
X989308Y2120927D1*
X994094Y2116141D2*
Y2125713D1*
X1258119Y2139411D2*
D16*
X1218151D1*
D15*
X1079544Y2000804D1*
X1044923Y2035424D1*
X1024360D1*
X1019924Y2030989D1*
X930609D1*
Y2044270D1*
X906478Y1840508D2*
D17*
X958869D1*
X1079544Y1961183D1*
D15*
Y2000804D1*
X774352Y1793264D2*
D17*
X718461D1*
D15*
X710235Y1785039D1*
Y1781015D1*
X1454969Y1962246D2*
D16*
Y1952207D1*
D15*
Y1911606D1*
X1443109Y1899746D1*
X1287204Y1808196D2*
X1543109D1*
X1443109Y1899746D2*
Y1881010D1*
X1370296Y1808196D1*
X1287204D1*
X1710875Y2296892D2*
D16*
X1811023D1*
D15*
Y2311023D1*
X3563779Y1227503D2*
D20*
Y1207818D1*
Y1227503D2*
Y1247188D1*
Y1266873D1*
Y1286558D1*
Y1207818D2*
X3568040Y1203557D1*
D15*
Y1193539D1*
D20*
X3530543Y1156041D1*
X3488976D1*
D21*
Y1153543D1*
X3712598D1*
X3791338Y1232283D1*
Y2425196D1*
X3499999Y2716535D1*
X3051180D1*
X2889763Y2877952D1*
Y2881869D1*
X2881889Y2889743D1*
X2043897Y2993138D2*
D15*
Y2912688D1*
X2039074Y2907865D1*
X1474654Y2415002D2*
Y2493145D1*
X1380616Y2587183D1*
Y2645235D1*
X1494339Y2415002D2*
Y2504709D1*
X1443109Y2555939D1*
Y2613991D1*
X1514024Y2415002D2*
D16*
Y2522524D1*
D15*
X1480609Y2555939D1*
Y2707731D1*
X1499360D1*
X3362991Y1156041D2*
X3355117Y1163915D1*
D22*
Y1222199D1*
X3362991Y1156041D2*
D21*
Y1125196D1*
X3389763Y1098424D1*
X3740157D1*
X3850393Y1208661D1*
Y2543306D1*
X3503956Y2889743D1*
X3256889D1*
X1499360Y2774661D2*
D15*
X1511852Y2787153D1*
Y2793418D1*
X1474390Y2830880D1*
X1445216D1*
X1443109Y2680920D2*
X1445216Y2683027D1*
Y2783636D1*
X1380616Y2712165D2*
X1374350Y2718431D1*
Y2783636D1*
X3142519Y1289146D2*
D20*
Y1269461D1*
Y1249776D1*
Y1230091D1*
Y1210406D2*
Y1230091D1*
Y1210406D2*
Y1198989D1*
D15*
Y1188752D1*
D20*
X3112361Y1158595D1*
X3067716D1*
D21*
X3144553D1*
X3255905Y1047243D1*
X3775590D1*
X3913385Y1185039D1*
Y2694881D1*
X3718523Y2889743D1*
X2933857Y1224776D2*
D22*
Y1166508D1*
D15*
X2941731Y1158634D1*
D21*
Y1121259D1*
X2960629Y1102361D1*
X3125983D1*
X3232283Y996062D1*
X3818897D1*
X3968503Y1145669D1*
Y2764724D1*
X4093523Y2889743D1*
X2508661Y1222204D2*
D22*
Y1163936D1*
D15*
X2516535Y1156062D1*
D21*
Y1125196D1*
X2641731Y999999D1*
X3078739D1*
X3185039Y893700D1*
X3921259D1*
X4043306Y1015747D1*
X4300176D1*
X4347932Y967991D1*
X2717322Y1286574D2*
D20*
Y1266889D1*
Y1247204D1*
Y1227519D2*
Y1247204D1*
Y1207834D2*
Y1227519D1*
X2642519Y1156023D2*
X2687165D1*
X2717322Y1186180D1*
Y1207834D1*
X2642519Y1156023D2*
D21*
X2747361Y1051180D1*
X3102361D1*
X3208661Y944881D1*
X3870078D1*
X4268188Y1342991D1*
X4347932D1*
X1258119Y2178781D2*
D23*
X1187359D1*
X1125983Y2240157D1*
X1102361D1*
D15*
X1059054Y2283464D1*
X570865D1*
Y2269684D1*
X2083464Y1222204D2*
D22*
Y1163936D1*
D15*
X2091338Y1156062D1*
X3389251Y730806D2*
D21*
X3198326D1*
X3031495Y897637D1*
X2311023D1*
X2091338Y1117322D1*
Y1156062D1*
X2292125Y1286574D2*
D20*
Y1266889D1*
Y1247204D1*
Y1227519D1*
Y1207834D1*
Y1190117D1*
X2258031Y1156023D1*
X2217322D1*
D21*
Y1125196D1*
X2393700Y948818D1*
X3055117D1*
X3161417Y842519D1*
X3652539D1*
X3764251Y730806D1*
X1662204Y1222204D2*
D22*
Y1163936D1*
D15*
X1670078Y1156062D1*
D21*
Y1085826D1*
X1759842Y996062D1*
X2047243D1*
X2312499Y730806D1*
X2546731D1*
X1870865Y1286574D2*
D20*
Y1266889D1*
Y1247204D1*
Y1227519D1*
Y1207834D1*
Y1182243D1*
X1844645Y1156023D1*
X1796062D1*
D21*
Y1144881D1*
X1889763Y1051180D1*
X2078739D1*
X2283464Y846456D1*
X2806082D1*
X2921731Y730806D1*
X1488543Y1293543D2*
D20*
Y1273857D1*
Y1254172D1*
Y1234487D1*
Y1214802D1*
Y1197204D1*
X1447401Y1156062D1*
X1378842D1*
D21*
X1700259Y834645D1*
X1771653D1*
X1875491Y730806D1*
X2083149D1*
X1258297Y1222204D2*
D15*
X1252401Y1216308D1*
D22*
Y1156062D1*
D21*
Y1046810D1*
X1568405Y730806D1*
X1708149D1*
X831644Y1156044D2*
D15*
X833464Y1157864D1*
D22*
Y1222204D1*
X831644Y1156044D2*
D21*
Y768729D1*
X869566Y730806D1*
X1047637Y1234474D2*
D20*
Y1254159D1*
Y1273844D1*
Y1293529D1*
Y1234474D2*
Y1214789D1*
X1045550Y1212703D1*
X1052355Y1205898D1*
X1002501Y1156044D1*
X958464D1*
D21*
Y1016909D1*
X1244566Y730806D1*
X756751Y2415460D2*
D15*
Y2414231D1*
X759842Y2417322D1*
Y2389763D1*
X826771Y2322834D1*
X1003936D1*
X1023621Y2303149D1*
X1112204D1*
X1216886Y2198466D1*
D16*
X1258119D1*
X856751Y2415460D2*
D15*
X852255D1*
X921259Y2346456D1*
X1011810D1*
X1022004Y2336262D1*
X1223081D1*
D16*
X1258119D1*
X1376229Y2415002D2*
D15*
Y2482037D1*
X1271653Y2586613D1*
X1129920D1*
X956751Y2413444D1*
Y2415460D1*
X1543109Y1631031D2*
X1287204D1*
X1543109D2*
X1161860D1*
X621456Y2660235D2*
X696457D1*
Y2665453D1*
X701813Y2660098D1*
X787720D1*
X621456Y2611023D2*
X696457D1*
Y2598524D1*
X708031Y2610098D1*
X787720D1*
X1435284Y2415002D2*
Y2458415D1*
X1232283Y2661417D1*
X1042380D1*
X1041061Y2660098D1*
X992444D1*
X621456Y2709448D2*
X622106Y2710098D1*
X787720D1*
X621456Y2758661D2*
X622893Y2760098D1*
X787720D1*
X1454969Y2415002D2*
D16*
Y2466289D1*
D15*
X1211161Y2710098D1*
X992444D1*
X2624409Y2509842D2*
D24*
Y2657480D1*
X2624015D1*
X3090550Y2362204D2*
X2942913Y2509842D1*
X2624409D1*
X2620078Y2505511D1*
Y2188981D1*
X3506692Y1247188D2*
D21*
X3495127D1*
Y1341676D1*
X3506692D1*
X3565747D1*
X2719291Y1341692D2*
X2660235D1*
Y1247204D1*
X2294094Y1341692D2*
X2235039D1*
Y1247204D1*
X1813779Y1341692D2*
Y1247204D1*
X988188Y1341692D2*
Y1256522D1*
X990550Y1254159D1*
X1872834Y1341692D2*
X1813779D1*
X1047243D2*
X988188D1*
X3144487Y1344264D2*
X3085432D1*
Y1249776D1*
X3208661Y1348424D2*
X3148648D1*
X3144487Y1344264D1*
X1122046Y1348424D2*
X1053976D1*
X1047243Y1341692D1*
X1539369Y1348424D2*
X1493440D1*
X1486708Y1341692D1*
X1956692Y1348424D2*
X1879566D1*
X1872834Y1341692D1*
X2374015Y1348424D2*
X2300826D1*
X2294094Y1341692D1*
X2791338Y1348424D2*
X2726023D1*
X2719291Y1341692D1*
X3625983Y1348424D2*
X3572495D1*
X3565747Y1341676D1*
X2820865Y2188981D2*
X2992120D1*
X3330708Y1850393D1*
X3208661Y1972440D1*
X3165354D1*
X1486708Y1341692D2*
X1419133D1*
Y1266495D1*
X1431456Y1254172D1*
X2753936Y2188981D2*
Y2330708D1*
X2909448D1*
X2964566Y2275590D1*
X3425196D1*
X3566928Y2417322D1*
X2753936Y2188981D2*
Y2027558D1*
X2509842D1*
X2480314Y2057086D1*
Y2253936D1*
X2224409Y2509842D1*
X3028346Y1269461D2*
D10*
X3008070D1*
D15*
X2998818Y1278713D1*
Y1336390D1*
X3006692Y1344264D1*
X3000787Y1158595D2*
Y1228123D1*
X3002755Y1230091D1*
X3008070D1*
D10*
X3028346D1*
X2603149Y1266889D2*
X2582873D1*
D15*
X2581495D1*
X2573621Y1274763D1*
Y1333818D1*
X2581495Y1341692D1*
X2603149Y1227519D2*
D10*
X2582873D1*
D15*
X2575944D1*
X2575590Y1227165D1*
Y1156023D1*
X3449606Y1266873D2*
X3431697D1*
X3420127Y1278444D1*
Y1341676D1*
X3427952D1*
X3449606Y1227503D2*
D10*
X3427007D1*
D15*
X3422046Y1222543D1*
Y1156041D1*
X2177952Y1266889D2*
D10*
X2157676D1*
D15*
X2148424Y1276141D1*
Y1333818D1*
X2156298Y1341692D1*
X2177952Y1227519D2*
D10*
X2157676D1*
D15*
X2152361D1*
X2150393Y1225550D1*
Y1156023D1*
X1756692Y1266889D2*
D10*
X1728543D1*
D15*
Y1335196D1*
X1735039Y1341692D1*
X1729133Y1156023D2*
D25*
X1724409D1*
Y1220472D1*
D10*
X1731456Y1227519D1*
X1756692D1*
X1374369Y1273857D2*
X1352125D1*
X1338989Y1286994D1*
D15*
Y1341692D1*
X1337474D1*
X1374369Y1234487D2*
D10*
X1332913D1*
D15*
X1314960Y1216535D1*
D25*
Y1156062D1*
D15*
X1311913D1*
X933464Y1273844D2*
D10*
X915650D1*
X901574Y1287920D1*
D15*
Y1341692D1*
X909448D1*
X933464Y1234474D2*
D10*
X911902D1*
D15*
X891535Y1214107D1*
Y1156044D1*
D68*
X3208661Y1348424D3*
X3625983D3*
X2791338D3*
X2374015D3*
X1539369D3*
X1956692D3*
X1122046D3*
X3318897Y1299212D3*
X3208661Y1417322D3*
X2901574Y1299212D3*
X2051180Y1295275D3*
X2326771Y1409448D3*
X2775590Y1407480D3*
X2476377Y1295275D3*
X1948818Y1425196D3*
X1545275Y1446850D3*
X1629920Y1295275D3*
X1224409D3*
X1102361Y1476377D3*
X799212Y1299212D3*
X1917322Y2437007D3*
X1543306Y2547243D3*
X1106298Y2492125D3*
X1039369Y519684D3*
X960629Y3122046D3*
X1173228Y2803149D3*
X1200787Y1858267D3*
X1188976Y2051180D3*
X1527558Y1885826D3*
X1905511Y535432D3*
X2744094Y539369D3*
X994094Y1820865D3*
Y2116141D3*
X3330708Y1850393D3*
X4392125Y2342519D3*
X4442125D3*
X4492125D3*
X799212Y1637794D3*
X767716Y1102361D3*
X1188976D3*
X1610235D3*
X2023621D3*
X2452755D3*
X2877952D3*
X3299212D3*
X1377952Y2299212D3*
X1594487D3*
Y2090550D3*
X1377952D3*
X4542125Y2342519D3*
X4592125D3*
Y2392519D3*
Y2442519D3*
Y2542519D3*
X4542125D3*
X4492125D3*
X4442125D3*
X4392125D3*
Y2592519D3*
Y2642519D3*
X4492125Y2592519D3*
Y2642519D3*
X4592125Y2592519D3*
Y2642519D3*
X4392125Y2742519D3*
X4442125D3*
X4492125D3*
X4542125D3*
X4592125Y2792519D3*
X4542125Y2842519D3*
X4492125D3*
X4442125D3*
X4392125D3*
Y2792519D3*
X4592125Y2742519D3*
Y2842519D3*
X3582676Y535432D3*
X4535432Y1157480D3*
X4145669Y1629920D3*
X4153543Y1964566D3*
X3885826Y3133857D3*
X3066928Y3137794D3*
X2507873Y2893700D3*
X964566Y2972440D3*
X1901574Y2618109D3*
X2452755Y2503936D3*
X2787401Y2417322D3*
X3342519Y2118109D3*
X3039369Y1830708D3*
X3460629Y1539369D3*
X1854330Y1669291D3*
X543306Y1803149D3*
X468503Y2228346D3*
X551180Y1185039D3*
X822834Y2220472D3*
X632260Y3164977D2*
D26*
X4344108D1*
X4569258D2*
X4644028D1*
X647045Y3140108D2*
X1478541D1*
X1591661D2*
X1828914D1*
X2023670D2*
X2113333D1*
X2226451D2*
X4329325D1*
X4584043D2*
X4644028D1*
X655692Y3115239D2*
X1478541D1*
X1591661D2*
X1828914D1*
X2023670D2*
X2113333D1*
X2226451D2*
X4320676D1*
X4592726D2*
X4644028D1*
X659389Y3090371D2*
X1478541D1*
X1591661D2*
X1828914D1*
X2023670D2*
X2113333D1*
X2226451D2*
X4316980D1*
X4596422D2*
X4644028D1*
X658528Y3065502D2*
X1478541D1*
X1591661D2*
X1828914D1*
X2023670D2*
X2113333D1*
X2226451D2*
X4317842D1*
X4595561D2*
X4644028D1*
X653037Y3040633D2*
X1478541D1*
X2226451D2*
X4323331D1*
X4590035D2*
X4644028D1*
X642237Y3015764D2*
X1478541D1*
X2226451D2*
X4334133D1*
X4579234D2*
X4644028D1*
X624473Y2990896D2*
X1566134D1*
X1854440D2*
X1998180D1*
X2138857D2*
X4351896D1*
X4561472D2*
X4644028D1*
X594869Y2966027D2*
X1566134D1*
X1854440D2*
X1998180D1*
X2138857D2*
X2793840D1*
X2969936D2*
X3215658D1*
X3298133D2*
X3630480D1*
X3806575D2*
X4052298D1*
X4134772D2*
X4381536D1*
X4531867D2*
X4644028D1*
X434718Y2941158D2*
X1553323D1*
X1797348D2*
X1921495D1*
X2138857D2*
X2793840D1*
X2969936D2*
X3186018D1*
X3327772D2*
X3630480D1*
X3806575D2*
X4022623D1*
X4164413D2*
X4644028D1*
X434718Y2916289D2*
X461763D1*
X608326D2*
X1548695D1*
X1797348D2*
X1921495D1*
X2089733D2*
X2125138D1*
X2280385D2*
X2793840D1*
X2969936D2*
X3173064D1*
X3545231D2*
X3630480D1*
X3806575D2*
X4009704D1*
X4177367D2*
X4644028D1*
X434718Y2891420D2*
X461763D1*
X608326D2*
X948747D1*
X1504031D2*
X1548695D1*
X1802659D2*
X1906532D1*
X2280385D2*
X2793840D1*
X2969936D2*
X3168865D1*
X3570099D2*
X3630480D1*
X3806575D2*
X4005469D1*
X4181565D2*
X4644028D1*
X434718Y2866552D2*
X461763D1*
X608326D2*
X923700D1*
X1529078D2*
X1558169D1*
X1802659D2*
X1881663D1*
X2280385D2*
X2793840D1*
X2969936D2*
X3172023D1*
X3594966D2*
X3630480D1*
X3809518D2*
X4002527D1*
X4178372D2*
X4644028D1*
X434718Y2841683D2*
X461763D1*
X676039D2*
X898833D1*
X1553945D2*
X1571050D1*
X1802659D2*
X1856796D1*
X1955130D2*
X1989209D1*
X2280385D2*
X2793840D1*
X2993835D2*
X3183613D1*
X3330178D2*
X3484216D1*
X3834386D2*
X3977659D1*
X4166817D2*
X4644028D1*
X434718Y2816814D2*
X566867D1*
X676039D2*
X874071D1*
X972263D2*
X1327648D1*
X1802659D2*
X1831928D1*
X1930263D2*
X2125138D1*
X2280385D2*
X2793840D1*
X3018703D2*
X3209666D1*
X3304125D2*
X3509083D1*
X3859254D2*
X3952792D1*
X4140764D2*
X4644028D1*
X434718Y2791945D2*
X566867D1*
X1064737D2*
X1327648D1*
X2091993D2*
X2125138D1*
X2280385D2*
X2907952D1*
X3043570D2*
X3533951D1*
X3884121D2*
X3928678D1*
X4063543D2*
X4644028D1*
X434718Y2767077D2*
X566867D1*
X1064737D2*
X1327648D1*
X2091993D2*
X2125138D1*
X2280385D2*
X2932819D1*
X3068438D2*
X3558819D1*
X4038675D2*
X4644028D1*
X434718Y2742208D2*
X566867D1*
X1221263D2*
X1327648D1*
X1855659D2*
X1888338D1*
X2091993D2*
X2125138D1*
X2280385D2*
X2957687D1*
X3542145D2*
X3583687D1*
X4017180D2*
X4644028D1*
X434718Y2717339D2*
X566867D1*
X1253092D2*
X1331918D1*
X1830792D2*
X1888338D1*
X2261940D2*
X2982554D1*
X3567012D2*
X3608554D1*
X4017180D2*
X4644028D1*
X434718Y2692470D2*
X566867D1*
X1277960D2*
X1331918D1*
X1804704D2*
X1888338D1*
X2270876D2*
X2565007D1*
X2683006D2*
X3007423D1*
X3591880D2*
X3633422D1*
X4017180D2*
X4644028D1*
X434718Y2667602D2*
X566867D1*
X1302829D2*
X1331918D1*
X1802659D2*
X1888338D1*
X2091993D2*
X2165939D1*
X2282108D2*
X2565007D1*
X2683006D2*
X3481129D1*
X3616749D2*
X3658291D1*
X4017180D2*
X4644028D1*
X434718Y2642733D2*
X566867D1*
X1802659D2*
X2166980D1*
X2281067D2*
X2565007D1*
X2683006D2*
X3505998D1*
X3641616D2*
X3683158D1*
X4017180D2*
X4644028D1*
X434718Y2617864D2*
X566867D1*
X860018D2*
X876260D1*
X1802659D2*
X2181225D1*
X2266785D2*
X2565007D1*
X2683006D2*
X3530865D1*
X3666483D2*
X3708025D1*
X4017180D2*
X4644028D1*
X434718Y2592995D2*
X566867D1*
X860018D2*
X901165D1*
X1802659D2*
X2570424D1*
X2678413D2*
X3555733D1*
X3691351D2*
X3732893D1*
X4017180D2*
X4644028D1*
X434718Y2568127D2*
X461763D1*
X745151D2*
X870591D1*
X2047964D2*
X2570424D1*
X2678413D2*
X3580600D1*
X3716220D2*
X3757760D1*
X4017180D2*
X4644028D1*
X434718Y2543258D2*
X461763D1*
X608326D2*
X870591D1*
X2072831D2*
X2165401D1*
X2283399D2*
X2570424D1*
X2984827D2*
X3605469D1*
X3741087D2*
X3782629D1*
X4017180D2*
X4644028D1*
X434718Y2518389D2*
X461763D1*
X608326D2*
X870591D1*
X2097699D2*
X2165401D1*
X2283687D2*
X2566046D1*
X3009695D2*
X3630336D1*
X3765955D2*
X3801720D1*
X4017180D2*
X4644028D1*
X434718Y2493520D2*
X461763D1*
X608326D2*
X870591D1*
X1085980D2*
X1110764D1*
X2122566D2*
X2165401D1*
X2308554D2*
X2566083D1*
X3034564D2*
X3482817D1*
X4017180D2*
X4276897D1*
X4340424D2*
X4644028D1*
X434718Y2468651D2*
X598230D1*
X715296D2*
X736636D1*
X776838D2*
X836645D1*
X876847D2*
X891943D1*
X1076865D2*
X1110764D1*
X2147435D2*
X2165401D1*
X2333422D2*
X2566083D1*
X3059431D2*
X3482817D1*
X3651053D2*
X3680071D1*
X4017180D2*
X4242700D1*
X4374623D2*
X4644028D1*
X434718Y2443783D2*
X598230D1*
X1887273D2*
X1985405D1*
X2172302D2*
X2222636D1*
X2358289D2*
X2566083D1*
X2674070D2*
X2933645D1*
X3084298D2*
X3482817D1*
X3651053D2*
X3704939D1*
X4017180D2*
X4228956D1*
X4388365D2*
X4644028D1*
X434718Y2418914D2*
X598230D1*
X1216096D2*
X1301344D1*
X1715784D2*
X1734791D1*
X1887273D2*
X2010272D1*
X2197170D2*
X2247503D1*
X2383158D2*
X2566083D1*
X2674070D2*
X2958512D1*
X3109166D2*
X3482817D1*
X3651053D2*
X3729808D1*
X4017180D2*
X4224543D1*
X4392780D2*
X4644028D1*
X557729Y2394045D2*
X598230D1*
X1191229D2*
X1301955D1*
X1667053D2*
X1734791D1*
X1887273D2*
X2035141D1*
X2222037D2*
X2272407D1*
X2408025D2*
X2566083D1*
X2674070D2*
X2983380D1*
X3180575D2*
X3236759D1*
X3416801D2*
X3475819D1*
X3651053D2*
X3742654D1*
X4017180D2*
X4227915D1*
X4389406D2*
X4644028D1*
X557729Y2369176D2*
X598230D1*
X1227902D2*
X1301955D1*
X1685318D2*
X1729658D1*
X1887273D2*
X2060008D1*
X2246905D2*
X2297275D1*
X2432893D2*
X2566083D1*
X2674070D2*
X2725876D1*
X2937497D2*
X3000533D1*
X3180575D2*
X3236759D1*
X3416801D2*
X3450951D1*
X3651053D2*
X3742654D1*
X4017180D2*
X4240259D1*
X4377062D2*
X4644028D1*
X557729Y2344308D2*
X756120D1*
X1928612D2*
X2084876D1*
X2271773D2*
X2322142D1*
X2457760D2*
X2566083D1*
X2674070D2*
X2707287D1*
X2963655D2*
X3000533D1*
X3180575D2*
X3236759D1*
X3651053D2*
X3742654D1*
X4017180D2*
X4269684D1*
X4347637D2*
X4644028D1*
X557729Y2319439D2*
X780989D1*
X1315675D2*
X1626348D1*
X1928612D2*
X2109743D1*
X2296641D2*
X2347010D1*
X2482628D2*
X2566083D1*
X2674070D2*
X2705242D1*
X3536871D2*
X3742654D1*
X4017180D2*
X4644028D1*
X1315675Y2294570D2*
X1626348D1*
X2321508D2*
X2371877D1*
X2507497D2*
X2566083D1*
X2674070D2*
X2705242D1*
X3512002D2*
X3742654D1*
X4017180D2*
X4644028D1*
X434718Y2269701D2*
X516271D1*
X1315675D2*
X1626348D1*
X2346376D2*
X2396746D1*
X3487134D2*
X3742654D1*
X4017180D2*
X4644028D1*
X434718Y2244833D2*
X516271D1*
X728359D2*
X884371D1*
X1315675D2*
X1626348D1*
X2371243D2*
X2421613D1*
X3462267D2*
X3582646D1*
X3598469D2*
X3742654D1*
X4017180D2*
X4644028D1*
X434718Y2219964D2*
X516271D1*
X753297D2*
X884371D1*
X1315675D2*
X1626348D1*
X2396112D2*
X2431625D1*
X3028965D2*
X3527564D1*
X3653529D2*
X3742654D1*
X4017180D2*
X4644028D1*
X778166Y2195095D2*
X884371D1*
X1315675D2*
X1626348D1*
X3053833D2*
X3510268D1*
X3670826D2*
X3742654D1*
X4017180D2*
X4644028D1*
X557729Y2170226D2*
X704699D1*
X803033D2*
X866356D1*
X1315675D2*
X1626348D1*
X3078701D2*
X3503163D1*
X3677931D2*
X3742654D1*
X4017180D2*
X4644028D1*
X557729Y2145357D2*
X729566D1*
X1315675D2*
X1626348D1*
X3103569D2*
X3502481D1*
X3678612D2*
X3742654D1*
X4017180D2*
X4644028D1*
X557729Y2120489D2*
X754434D1*
X1315675D2*
X1626348D1*
X2869495D2*
X2992781D1*
X3128436D2*
X3502481D1*
X3678612D2*
X3742654D1*
X4017180D2*
X4644028D1*
X557729Y2095620D2*
X725691D1*
X1315675D2*
X1626348D1*
X2577220D2*
X2595974D1*
X2644179D2*
X2662935D1*
X2844951D2*
X3017650D1*
X3153304D2*
X3502481D1*
X3678612D2*
X3742654D1*
X4017180D2*
X4644028D1*
X434718Y2070751D2*
X725691D1*
X1315675D2*
X1626348D1*
X2802608D2*
X3042518D1*
X3231747D2*
X3502481D1*
X3678612D2*
X3742654D1*
X4017180D2*
X4644028D1*
X434718Y2045882D2*
X725691D1*
X1173789D2*
X1200582D1*
X1315675D2*
X1334717D1*
X2020405D2*
X2088033D1*
X2802608D2*
X3067385D1*
X3231747D2*
X3502481D1*
X3678612D2*
X3742654D1*
X4017180D2*
X4644028D1*
X434718Y2021014D2*
X725691D1*
X2020405D2*
X2112902D1*
X2802141D2*
X3092289D1*
X3231747D2*
X3502481D1*
X3678612D2*
X3742654D1*
X4017180D2*
X4644028D1*
X434718Y1996145D2*
X725691D1*
X2020405D2*
X2129875D1*
X2456756D2*
X2473430D1*
X2790300D2*
X3098964D1*
X3252775D2*
X3506392D1*
X3674701D2*
X3742654D1*
X4017180D2*
X4644028D1*
X434718Y1971276D2*
X725691D1*
X2020405D2*
X2129875D1*
X2456756D2*
X3098964D1*
X3277642D2*
X3518915D1*
X3662213D2*
X3742654D1*
X4017180D2*
X4644028D1*
X434718Y1946407D2*
X661566D1*
X2012940D2*
X2129875D1*
X2926086D2*
X3098964D1*
X3302510D2*
X3547336D1*
X3633758D2*
X3742654D1*
X4017180D2*
X4644028D1*
X434718Y1921539D2*
X661566D1*
X758931D2*
X782926D1*
X2020297D2*
X2129875D1*
X2926624D2*
X3098964D1*
X3327378D2*
X3543604D1*
X3637489D2*
X3742654D1*
X4017180D2*
X4644028D1*
X434718Y1896670D2*
X661566D1*
X1493768D2*
X1553251D1*
X2015955D2*
X2129875D1*
X2926624D2*
X3098964D1*
X3352246D2*
X3517409D1*
X3663721D2*
X3742654D1*
X4017180D2*
X4644028D1*
X434718Y1871801D2*
X661566D1*
X1493768D2*
X1578120D1*
X1995321D2*
X2129875D1*
X2926624D2*
X3098964D1*
X3374494D2*
X3505746D1*
X3675347D2*
X3742654D1*
X4017180D2*
X4644028D1*
X434718Y1846932D2*
X661566D1*
X1174686D2*
X1238943D1*
X1335482D2*
X1359872D1*
X1458207D2*
X1494833D1*
X2012617D2*
X2129875D1*
X2926624D2*
X3266363D1*
X3379590D2*
X3502481D1*
X3678612D2*
X3742654D1*
X4017180D2*
X4644028D1*
X434718Y1822064D2*
X661566D1*
X1078804D2*
X1101218D1*
X1199553D2*
X1226382D1*
X2020260D2*
X2129875D1*
X2926624D2*
X3291230D1*
X3370081D2*
X3502481D1*
X3678612D2*
X3742654D1*
X4017180D2*
X4644028D1*
X434718Y1797195D2*
X661566D1*
X1075752D2*
X1126086D1*
X2016170D2*
X2129875D1*
X2926624D2*
X3098964D1*
X3231747D2*
X3502481D1*
X3678612D2*
X3742654D1*
X4017180D2*
X4644028D1*
X434718Y1772326D2*
X661566D1*
X1053756D2*
X1150955D1*
X1910707D2*
X1927595D1*
X1996111D2*
X2129875D1*
X2926624D2*
X3098964D1*
X3231747D2*
X3502481D1*
X3678612D2*
X3742654D1*
X4017180D2*
X4644028D1*
X434718Y1747457D2*
X661566D1*
X950768D2*
X1175822D1*
X1779406D2*
X2129875D1*
X2926624D2*
X3098964D1*
X3231747D2*
X3502481D1*
X3678612D2*
X3742654D1*
X4017180D2*
X4644028D1*
X434718Y1722588D2*
X661566D1*
X916930D2*
X1200690D1*
X1703798D2*
X2129875D1*
X2926624D2*
X3098964D1*
X3231747D2*
X3502481D1*
X3678612D2*
X3742654D1*
X4017180D2*
X4644028D1*
X434718Y1697720D2*
X661566D1*
X916930D2*
X1545393D1*
X1703798D2*
X2129875D1*
X2926624D2*
X3098964D1*
X3231747D2*
X3503486D1*
X3677644D2*
X3742654D1*
X4017180D2*
X4644028D1*
X434718Y1672851D2*
X661566D1*
X916930D2*
X1022058D1*
X1220402D2*
X1241741D1*
X1332684D2*
X1480658D1*
X1605583D2*
X2129875D1*
X2926624D2*
X3098964D1*
X3231747D2*
X3511272D1*
X3669821D2*
X3742654D1*
X4017180D2*
X4644028D1*
X434718Y1647982D2*
X748692D1*
X916930D2*
X1005947D1*
X1605583D2*
X2129875D1*
X2926624D2*
X3098964D1*
X3231747D2*
X3529789D1*
X3651305D2*
X3742654D1*
X4017180D2*
X4644028D1*
X434718Y1623113D2*
X752604D1*
X845843D2*
X1003901D1*
X1605583D2*
X2129875D1*
X2926624D2*
X3098964D1*
X3231747D2*
X3742654D1*
X4017180D2*
X4644028D1*
X434718Y1598245D2*
X772268D1*
X826179D2*
X1013913D1*
X2926301D2*
X3098964D1*
X3231747D2*
X3742654D1*
X4017180D2*
X4644028D1*
X434718Y1573376D2*
X870663D1*
X2456756D2*
X3742654D1*
X4017180D2*
X4644028D1*
X434718Y1548507D2*
X845794D1*
X2831243D2*
X3742654D1*
X4017180D2*
X4644028D1*
X434718Y1523638D2*
X820927D1*
X2866087D2*
X3742654D1*
X4017180D2*
X4644028D1*
X434718Y1498770D2*
X796060D1*
X921953D2*
X1193692D1*
X3284640D2*
X3742654D1*
X4017180D2*
X4644028D1*
X434718Y1473901D2*
X771192D1*
X897086D2*
X1168825D1*
X3309508D2*
X3742654D1*
X4017180D2*
X4644028D1*
X434718Y1449032D2*
X746325D1*
X1095920D2*
X1143957D1*
X1535394D2*
X1577043D1*
X1921507D2*
X1980669D1*
X3614415D2*
X3742654D1*
X4017180D2*
X4644028D1*
X434718Y1424163D2*
X722174D1*
X1095920D2*
X1132259D1*
X1535394D2*
X1552175D1*
X1921507D2*
X1972378D1*
X3614415D2*
X3742654D1*
X4017180D2*
X4259889D1*
X4435985D2*
X4644028D1*
X434718Y1399294D2*
X716182D1*
X1095920D2*
X1132259D1*
X1921507D2*
X1972378D1*
X2767980D2*
X2803493D1*
X3193171D2*
X3229079D1*
X3614415D2*
X3742654D1*
X4017180D2*
X4259889D1*
X4435985D2*
X4644028D1*
X434718Y1374426D2*
X716182D1*
X3667022D2*
X3742654D1*
X4017180D2*
X4231791D1*
X4435985D2*
X4644028D1*
X434718Y1349557D2*
X716182D1*
X3674952D2*
X3742654D1*
X4017180D2*
X4206923D1*
X4435985D2*
X4644028D1*
X434718Y1324688D2*
X716182D1*
X3668457D2*
X3742654D1*
X4017180D2*
X4182056D1*
X4435985D2*
X4644028D1*
X434718Y1299819D2*
X716182D1*
X3614415D2*
X3742654D1*
X4017180D2*
X4157188D1*
X4435985D2*
X4644028D1*
X434718Y1274951D2*
X693251D1*
X3606557D2*
X3742654D1*
X4017180D2*
X4132319D1*
X4435985D2*
X4644028D1*
X434718Y1250082D2*
X659090D1*
X3606557D2*
X3741326D1*
X4017180D2*
X4107452D1*
X4243107D2*
X4644028D1*
X434718Y1225213D2*
X659090D1*
X3606557D2*
X3716459D1*
X4017180D2*
X4082585D1*
X4218239D2*
X4644028D1*
X434718Y1200344D2*
X659090D1*
X3606917D2*
X3691591D1*
X4017180D2*
X4057717D1*
X4193371D2*
X4644028D1*
X434718Y1175476D2*
X659090D1*
X4017180D2*
X4032850D1*
X4168503D2*
X4644028D1*
X434718Y1150607D2*
X659090D1*
X1051172D2*
X1082092D1*
X4143636D2*
X4644028D1*
X434718Y1125738D2*
X659090D1*
X1025335D2*
X1082092D1*
X1476974D2*
X1497380D1*
X4118768D2*
X4644028D1*
X434718Y1100869D2*
X718729D1*
X880327D2*
X909776D1*
X1007142D2*
X1140010D1*
X1501842D2*
X1561254D1*
X4093864D2*
X4644028D1*
X434718Y1076001D2*
X726911D1*
X880327D2*
X909776D1*
X1007142D2*
X1148155D1*
X1526709D2*
X1569436D1*
X4068997D2*
X4644028D1*
X434718Y1051132D2*
X782962D1*
X880327D2*
X909776D1*
X1007142D2*
X1203704D1*
X1551578D2*
X1636969D1*
X4370603D2*
X4644028D1*
X434718Y1026263D2*
X782962D1*
X880327D2*
X909776D1*
X1016939D2*
X1208548D1*
X1576445D2*
X1661838D1*
X4413090D2*
X4644028D1*
X434718Y1001394D2*
X782962D1*
X880327D2*
X912468D1*
X1041806D2*
X1230007D1*
X1601313D2*
X1686705D1*
X4429203D2*
X4644028D1*
X434718Y976525D2*
X782962D1*
X880327D2*
X931020D1*
X1066674D2*
X1254875D1*
X1626180D2*
X1711573D1*
X4435553D2*
X4644028D1*
X434718Y951657D2*
X782962D1*
X880327D2*
X955888D1*
X1091543D2*
X1279742D1*
X1651048D2*
X1744658D1*
X4047036D2*
X4261468D1*
X4434405D2*
X4644028D1*
X434718Y926788D2*
X782962D1*
X880327D2*
X980755D1*
X1116410D2*
X1304611D1*
X1675917D2*
X2048705D1*
X4022167D2*
X4270439D1*
X4425398D2*
X4644028D1*
X434718Y901919D2*
X782962D1*
X880327D2*
X1005624D1*
X1141277D2*
X1329478D1*
X1700784D2*
X2073573D1*
X3997300D2*
X4291071D1*
X4404801D2*
X4644028D1*
X434718Y877050D2*
X782962D1*
X880327D2*
X1030491D1*
X1166145D2*
X1354346D1*
X1792468D2*
X2098440D1*
X3972432D2*
X4644028D1*
X434718Y852182D2*
X782962D1*
X880327D2*
X1055359D1*
X1191014D2*
X1379213D1*
X1821928D2*
X2123308D1*
X3943976D2*
X4644028D1*
X434718Y827313D2*
X782962D1*
X880327D2*
X1080226D1*
X1215881D2*
X1404082D1*
X1846797D2*
X2148176D1*
X2893036D2*
X3034012D1*
X3735561D2*
X4644028D1*
X434718Y802444D2*
X782962D1*
X918831D2*
X1105130D1*
X1332612D2*
X1428949D1*
X1871665D2*
X1995094D1*
X3009804D2*
X3058881D1*
X3852292D2*
X4644028D1*
X434718Y777575D2*
X782962D1*
X943699D2*
X1129998D1*
X1332612D2*
X1453817D1*
X1896532D2*
X1995094D1*
X2171190D2*
X2197911D1*
X2620855D2*
X2807153D1*
X3009804D2*
X3083749D1*
X3463380D2*
X3649678D1*
X3852292D2*
X4644028D1*
X434718Y752707D2*
X489393D1*
X549978D2*
X784361D1*
X954788D2*
X1154865D1*
X1332612D2*
X1478684D1*
X2171190D2*
X2222779D1*
X2631943D2*
X2832020D1*
X3009804D2*
X3108616D1*
X3474468D2*
X3674545D1*
X3852292D2*
X4438233D1*
X4498781D2*
X4644028D1*
X604952Y727838D2*
X781562D1*
X957586D2*
X1156516D1*
X1332612D2*
X1503552D1*
X1796165D2*
X1810649D1*
X2171190D2*
X2247646D1*
X2634742D2*
X2833671D1*
X3009804D2*
X3133483D1*
X3477267D2*
X3676196D1*
X3852292D2*
X4383258D1*
X4553756D2*
X4644028D1*
X630287Y702969D2*
X786155D1*
X952957D2*
X1156516D1*
X1332612D2*
X1528420D1*
X1791535D2*
X1835516D1*
X2171190D2*
X2272515D1*
X2630149D2*
X2833671D1*
X3009804D2*
X3158351D1*
X3472637D2*
X3676196D1*
X3852292D2*
X4357888D1*
X4579127D2*
X4644028D1*
X645825Y678100D2*
X799684D1*
X939465D2*
X1156516D1*
X1332612D2*
X1638262D1*
X1778043D2*
X1995094D1*
X2171190D2*
X2476839D1*
X2616620D2*
X2833671D1*
X3009804D2*
X3319364D1*
X3459145D2*
X3676196D1*
X3852292D2*
X4342350D1*
X4594665D2*
X4644028D1*
X655046Y653231D2*
X830974D1*
X908138D2*
X1156516D1*
X1332612D2*
X1669553D1*
X1746716D2*
X1995094D1*
X2171190D2*
X2508166D1*
X2585329D2*
X2833671D1*
X3009804D2*
X3350655D1*
X3427818D2*
X3676196D1*
X3852292D2*
X4333128D1*
X4603886D2*
X4644028D1*
X659246Y628363D2*
X4328965D1*
X4608049D2*
X4644028D1*
X658851Y603494D2*
X4329360D1*
X4607654D2*
X4644028D1*
X653827Y578625D2*
X4334348D1*
X4602630D2*
X4644028D1*
X643636Y553756D2*
X4344575D1*
X4592439D2*
X4644028D1*
X626734Y528888D2*
X4361477D1*
X4575537D2*
X4644028D1*
X598817Y504019D2*
X4389394D1*
X4547620D2*
X4644028D1*
X434718Y479150D2*
X4644028D1*
X434718Y454281D2*
X4644028D1*
X874943Y2573743D2*
X922633D1*
X922637Y2581798D1*
X916506Y2583688D1*
X911893Y2586039D1*
X907704Y2589082D1*
X878242Y2618399D1*
X874880Y2622336D1*
X872174Y2626751D1*
X870193Y2631535D1*
X868985Y2636570D1*
X868578Y2641731D1*
X868679Y2797864D1*
X869490Y2802978D1*
X871090Y2807902D1*
X873440Y2812515D1*
X876483Y2816704D1*
X923712Y2864077D1*
X951011Y2891231D1*
X955200Y2894275D1*
X959813Y2896625D1*
X964737Y2898225D1*
X969851Y2899036D1*
X1036745Y2899137D1*
X1482903Y2899036D1*
X1488018Y2898225D1*
X1492941Y2896625D1*
X1497554Y2894275D1*
X1501743Y2891231D1*
X1549116Y2844003D1*
X1566672Y2826302D1*
X1569716Y2822113D1*
X1572066Y2817501D1*
X1572966Y2815060D1*
X1573548Y2817649D1*
Y2860674D1*
X1569519Y2861640D1*
X1565678Y2863231D1*
X1562132Y2865403D1*
X1558969Y2868104D1*
X1556268Y2871267D1*
X1554096Y2874813D1*
X1552504Y2878654D1*
X1551533Y2882697D1*
X1551208Y2886843D1*
X1551289Y2928292D1*
X1551940Y2932399D1*
X1553225Y2936355D1*
X1555113Y2940060D1*
X1557557Y2943423D1*
X1560498Y2946364D1*
X1563861Y2948808D1*
X1567574Y2950699D1*
X1568625Y2951802D1*
Y3010329D1*
X1481027Y3010333D1*
Y3151915D1*
X1589145D1*
Y3046810D1*
X1802728Y3046762D1*
X1831423Y3046797D1*
X1831420Y3151915D1*
X1939539D1*
Y3150372D1*
X2021184Y3150347D1*
Y3045242D1*
X2115826Y3045229D1*
X2115822Y3150347D1*
X2223940D1*
Y3008764D1*
X2136347D1*
X2136342Y2941048D1*
X2087231D1*
X2087360Y2899137D1*
X2127658D1*
X2127633Y2938310D1*
X2277877D1*
Y2734917D1*
X2271670D1*
X2269557Y2729722D1*
X2266851Y2725308D1*
X2263489Y2721371D1*
X2249863Y2707745D1*
X2257225Y2703190D1*
X2263966Y2697431D1*
X2269725Y2690690D1*
X2274357Y2683130D1*
X2277750Y2674939D1*
X2279819Y2666318D1*
X2280515Y2657480D1*
X2279819Y2648641D1*
X2277750Y2640020D1*
X2274357Y2631829D1*
X2269725Y2624270D1*
X2263966Y2617528D1*
X2257225Y2611770D1*
X2249666Y2607137D1*
X2241474Y2603745D1*
X2232854Y2601675D1*
X2224015Y2600980D1*
X2215176Y2601675D1*
X2206556Y2603745D1*
X2198364Y2607137D1*
X2190805Y2611770D1*
X2184064Y2617528D1*
X2178305Y2624270D1*
X2173672Y2631829D1*
X2170280Y2640020D1*
X2168210Y2648641D1*
X2167515Y2657480D1*
X2168210Y2666318D1*
X2168504Y2667797D1*
X2089459Y2667791D1*
X2089491Y2652633D1*
X1997121D1*
Y2667812D1*
X1983159Y2667791D1*
X1983192Y2652633D1*
X1890822D1*
Y2779884D1*
X1806180Y2695381D1*
X1801991Y2692338D1*
X1797378Y2689987D1*
X1792444Y2688385D1*
X1800170Y2688234D1*
Y2588109D1*
X2014399Y2588012D1*
X2019514Y2587201D1*
X2024438Y2585602D1*
X2029050Y2583251D1*
X2033239Y2580208D1*
X2080612Y2532980D1*
X2434148Y2179444D1*
X2434129Y2234821D1*
X2215612Y2453323D1*
X2167909Y2453342D1*
Y2566342D1*
X2280909D1*
Y2518651D1*
X2515434Y2283931D1*
X2517687Y2281071D1*
X2520596Y2279077D1*
X2525657Y2281234D1*
X2531054Y2282300D1*
X2551836Y2282410D1*
X2568581D1*
X2568578Y2501137D1*
X2567909Y2509842D1*
X2568604Y2518680D1*
X2570674Y2527301D1*
X2572913Y2532990D1*
X2572909Y2600952D1*
X2567515Y2600980D1*
Y2713980D1*
X2680515D1*
Y2600980D1*
X2675886D1*
X2675909Y2561346D1*
X2946953Y2561183D1*
X2954935Y2559919D1*
X2962621Y2557422D1*
X2969821Y2553752D1*
X2976359Y2549003D1*
X2998815Y2526771D1*
X3115207Y2410380D1*
X3178074Y2410357D1*
Y2321759D1*
X3239259Y2321775D1*
X3239247Y2410357D1*
X3414294D1*
Y2329998D1*
X3485331Y2401040D1*
X3485310Y2498940D1*
X3648546D1*
Y2335704D1*
X3550619D1*
X3455191Y2240470D1*
X3449327Y2236210D1*
X3442871Y2232920D1*
X3435978Y2230680D1*
X3428819Y2229546D1*
X3397637Y2229405D1*
X3014430D1*
X3019267Y2226346D1*
X3024777Y2221638D1*
X3164817Y2081600D1*
X3229255Y2081617D1*
Y2017133D1*
X3360907Y1885751D1*
X3366066Y1880592D1*
X3370356Y1874690D1*
X3373669Y1868188D1*
X3375923Y1861249D1*
X3377065Y1854041D1*
Y1846745D1*
X3375923Y1839537D1*
X3373669Y1832598D1*
X3370356Y1826096D1*
X3366066Y1820193D1*
X3360907Y1815035D1*
X3355004Y1810745D1*
X3348503Y1807432D1*
X3341564Y1805178D1*
X3334356Y1804036D1*
X3327060D1*
X3319852Y1805178D1*
X3312913Y1807432D1*
X3306411Y1810745D1*
X3300508Y1815035D1*
X3295350Y1820193D1*
X3291554Y1824231D1*
X3229262Y1886524D1*
X3229255Y1863263D1*
X3101452D1*
Y2014300D1*
X2972985Y2142801D1*
X2867064Y2142796D1*
X2866969Y2119973D1*
X2866318Y2115865D1*
X2865033Y2111910D1*
X2863145Y2108205D1*
X2860701Y2104842D1*
X2857760Y2101901D1*
X2854397Y2099457D1*
X2850692Y2097569D1*
X2846737Y2096284D1*
X2842629Y2095633D1*
X2801172Y2095552D1*
X2800121Y2087931D1*
X2799980Y2023935D1*
X2798846Y2016776D1*
X2796606Y2009884D1*
X2793315Y2003427D1*
X2789056Y1997564D1*
X2783931Y1992439D1*
X2778067Y1988179D1*
X2771611Y1984889D1*
X2764718Y1982649D1*
X2757560Y1981515D1*
X2726377Y1981373D1*
X2506218Y1981515D1*
X2499060Y1982649D1*
X2492167Y1984889D1*
X2485710Y1988179D1*
X2479847Y1992439D1*
X2454271Y2017813D1*
X2454255Y1955518D1*
X2457658Y1959708D1*
X2461935Y1963169D1*
X2466835Y1965671D1*
X2472145Y1967109D1*
X2478214Y1967449D1*
X2900102Y1967335D1*
X2905497Y1966256D1*
X2910553Y1964088D1*
X2915053Y1960923D1*
X2918802Y1956896D1*
X2921638Y1952182D1*
X2923441Y1946983D1*
X2924130Y1941524D1*
X2924074Y1600531D1*
X2923125Y1595112D1*
X2921077Y1590004D1*
X2918019Y1585431D1*
X2914083Y1581587D1*
X2909438Y1578638D1*
X2904284Y1576713D1*
X2898835Y1575894D1*
X2475746Y1575875D1*
X2470289Y1576575D1*
X2465095Y1578388D1*
X2460386Y1581235D1*
X2456368Y1584993D1*
X2455208Y1586426D1*
X2454255Y1585301D1*
Y1553041D1*
X2458571Y1548720D1*
X2827392Y1548642D1*
X2832506Y1547831D1*
X2837430Y1546231D1*
X2842043Y1543881D1*
X2846231Y1540838D1*
X2877847Y1509367D1*
X3260462Y1509272D1*
X3265577Y1508461D1*
X3270501Y1506861D1*
X3275113Y1504511D1*
X3279302Y1501468D1*
X3324163Y1456751D1*
X3611932Y1456759D1*
Y1394615D1*
X3625983Y1394924D1*
X3633258Y1394352D1*
X3640352Y1392649D1*
X3647094Y1389856D1*
X3653315Y1386044D1*
X3658864Y1381305D1*
X3663603Y1375756D1*
X3667415Y1369535D1*
X3670208Y1362793D1*
X3671911Y1355699D1*
X3672483Y1348424D1*
X3671911Y1341150D1*
X3670208Y1334056D1*
X3667415Y1327314D1*
X3663603Y1321092D1*
X3658864Y1315544D1*
X3653315Y1310805D1*
X3647094Y1306993D1*
X3640352Y1304200D1*
X3633258Y1302497D1*
X3625983Y1301924D1*
X3616797Y1302239D1*
X3611953D1*
X3611932Y1293523D1*
X3604074D1*
X3604091Y1209267D1*
X3604540Y1203557D1*
X3604313Y1199726D1*
X3693480Y1199728D1*
X3745176Y1251436D1*
X3745153Y2406090D1*
X3480860Y2670357D1*
X3047557Y2670491D1*
X3040398Y2671625D1*
X3033506Y2673865D1*
X3027049Y2677155D1*
X3021186Y2681415D1*
X2999036Y2703364D1*
X2898225Y2804175D1*
X2796334Y2804188D1*
Y2975298D1*
X2967444D1*
Y2865600D1*
X3070326Y2762705D1*
X3503623Y2762578D1*
X3510781Y2761444D1*
X3517674Y2759204D1*
X3524130Y2755914D1*
X3529994Y2751654D1*
X3552144Y2729705D1*
X3804184Y2477666D1*
X3804208Y2524210D1*
X3484804Y2843581D1*
X3328877Y2843558D1*
X3321945Y2834180D1*
X3317385Y2829247D1*
X3312452Y2824687D1*
X3307176Y2820528D1*
X3301591Y2816796D1*
X3295730Y2813514D1*
X3289629Y2810701D1*
X3283327Y2808376D1*
X3276861Y2806552D1*
X3270272Y2805242D1*
X3263602Y2804452D1*
X3256889Y2804188D1*
X3250176Y2804452D1*
X3243506Y2805242D1*
X3236917Y2806552D1*
X3230451Y2808376D1*
X3224149Y2810701D1*
X3218048Y2813514D1*
X3212187Y2816796D1*
X3206602Y2820528D1*
X3201326Y2824687D1*
X3196393Y2829247D1*
X3191833Y2834180D1*
X3187674Y2839456D1*
X3183941Y2845041D1*
X3180659Y2850902D1*
X3177847Y2857003D1*
X3175522Y2863305D1*
X3173697Y2869771D1*
X3172388Y2876360D1*
X3171598Y2883031D1*
X3171334Y2889743D1*
X3171598Y2896456D1*
X3172388Y2903127D1*
X3173697Y2909716D1*
X3175522Y2916182D1*
X3177847Y2922483D1*
X3180659Y2928585D1*
X3183941Y2934445D1*
X3187674Y2940031D1*
X3191833Y2945306D1*
X3196393Y2950239D1*
X3201326Y2954800D1*
X3206602Y2958959D1*
X3212187Y2962691D1*
X3218048Y2965973D1*
X3224149Y2968785D1*
X3230451Y2971111D1*
X3236917Y2972935D1*
X3243506Y2974245D1*
X3250176Y2975035D1*
X3256889Y2975298D1*
X3263602Y2975035D1*
X3270272Y2974245D1*
X3276861Y2972935D1*
X3283327Y2971111D1*
X3289629Y2968785D1*
X3295730Y2965973D1*
X3301591Y2962691D1*
X3307176Y2958959D1*
X3312452Y2954800D1*
X3317385Y2950239D1*
X3321945Y2945306D1*
X3328860Y2935907D1*
X3507579Y2935787D1*
X3514738Y2934653D1*
X3521630Y2932413D1*
X3528087Y2929123D1*
X3533951Y2924863D1*
X3556102Y2902914D1*
X3632959Y2826056D1*
X3632968Y2975298D1*
X3804078D1*
Y2869476D1*
X3922327Y2751254D1*
X3922460Y2768347D1*
X3923594Y2775506D1*
X3925834Y2782398D1*
X3929124Y2788855D1*
X3933384Y2794718D1*
X3955333Y2816869D1*
X4009962Y2871499D1*
X4008231Y2883031D1*
X4007968Y2889743D1*
X4008231Y2896456D1*
X4009022Y2903127D1*
X4010331Y2909716D1*
X4012155Y2916182D1*
X4014481Y2922483D1*
X4017293Y2928585D1*
X4020575Y2934445D1*
X4024308Y2940031D1*
X4028466Y2945306D1*
X4033027Y2950239D1*
X4037960Y2954800D1*
X4043235Y2958959D1*
X4048821Y2962691D1*
X4054682Y2965973D1*
X4060783Y2968785D1*
X4067085Y2971111D1*
X4073550Y2972935D1*
X4080140Y2974245D1*
X4086810Y2975035D1*
X4093523Y2975298D1*
X4100235Y2975035D1*
X4106906Y2974245D1*
X4113495Y2972935D1*
X4119961Y2971111D1*
X4126263Y2968785D1*
X4132364Y2965973D1*
X4138225Y2962691D1*
X4143810Y2958959D1*
X4149086Y2954800D1*
X4154019Y2950239D1*
X4158579Y2945306D1*
X4162738Y2940031D1*
X4166470Y2934445D1*
X4169752Y2928585D1*
X4172565Y2922483D1*
X4174890Y2916182D1*
X4176714Y2909716D1*
X4178024Y2903127D1*
X4178814Y2896456D1*
X4179078Y2889743D1*
X4178814Y2883031D1*
X4178024Y2876360D1*
X4176714Y2869771D1*
X4174890Y2863305D1*
X4172565Y2857003D1*
X4169752Y2850902D1*
X4166470Y2845041D1*
X4162738Y2839456D1*
X4158579Y2834180D1*
X4154019Y2829247D1*
X4149086Y2824687D1*
X4143810Y2820528D1*
X4138225Y2816796D1*
X4132364Y2813514D1*
X4126263Y2810701D1*
X4119961Y2808376D1*
X4113495Y2806552D1*
X4106906Y2805242D1*
X4100235Y2804452D1*
X4093523Y2804188D1*
X4086810Y2804452D1*
X4075275Y2806209D1*
X4014713Y2745617D1*
X4014688Y1154780D1*
X4238193Y1378111D1*
X4244057Y1382371D1*
X4250514Y1385661D1*
X4257406Y1387901D1*
X4260977Y1388609D1*
X4262377Y1395231D1*
Y1428546D1*
X4433487D1*
Y1257436D1*
X4262377D1*
Y1271897D1*
X4052493Y1061932D1*
X4303800Y1061791D1*
X4310959Y1060657D1*
X4317851Y1058417D1*
X4324308Y1055127D1*
X4327334Y1053103D1*
X4334549Y1052493D1*
X4341220Y1053283D1*
X4347932Y1053546D1*
X4354645Y1053283D1*
X4361315Y1052493D1*
X4367905Y1051183D1*
X4374371Y1049359D1*
X4380672Y1047033D1*
X4386773Y1044221D1*
X4392634Y1040939D1*
X4398220Y1037207D1*
X4403495Y1033048D1*
X4408428Y1028487D1*
X4412989Y1023554D1*
X4417148Y1018279D1*
X4420880Y1012693D1*
X4424162Y1006833D1*
X4426974Y1000731D1*
X4429300Y994430D1*
X4431124Y987964D1*
X4432434Y981375D1*
X4433224Y974704D1*
X4433487Y967991D1*
X4433224Y961279D1*
X4432434Y954608D1*
X4431124Y948019D1*
X4429300Y941553D1*
X4426974Y935251D1*
X4424162Y929150D1*
X4420880Y923289D1*
X4417148Y917704D1*
X4412989Y912428D1*
X4408428Y907495D1*
X4403495Y902935D1*
X4398220Y898776D1*
X4392634Y895044D1*
X4386773Y891762D1*
X4380672Y888949D1*
X4374371Y886624D1*
X4367905Y884800D1*
X4361315Y883490D1*
X4354645Y882700D1*
X4347932Y882436D1*
X4341220Y882700D1*
X4334549Y883490D1*
X4327960Y884800D1*
X4321494Y886624D1*
X4315192Y888949D1*
X4309091Y891762D1*
X4303230Y895044D1*
X4297645Y898776D1*
X4292369Y902935D1*
X4287436Y907495D1*
X4282876Y912428D1*
X4278717Y917704D1*
X4274985Y923289D1*
X4271703Y929150D1*
X4268890Y935251D1*
X4266565Y941553D1*
X4264741Y948019D1*
X4263431Y954608D1*
X4262641Y961279D1*
X4262438Y969539D1*
X4062444Y969562D1*
X3951254Y858581D1*
X3945390Y854321D1*
X3938934Y851031D1*
X3932041Y848791D1*
X3924882Y847657D1*
X3893700Y847515D1*
X3712880D1*
X3743987Y816385D1*
X3849806Y816361D1*
Y645251D1*
X3678696D1*
Y751073D1*
X3633422Y796321D1*
X3444231Y796334D1*
X3449747Y791302D1*
X3454308Y786369D1*
X3458466Y781094D1*
X3462199Y775508D1*
X3465481Y769648D1*
X3468293Y763546D1*
X3470619Y757245D1*
X3472443Y750779D1*
X3473752Y744190D1*
X3474543Y737519D1*
X3474806Y730806D1*
X3474543Y724094D1*
X3473752Y717423D1*
X3472443Y710834D1*
X3470619Y704368D1*
X3468293Y698066D1*
X3465481Y691965D1*
X3462199Y686104D1*
X3458466Y680519D1*
X3454308Y675243D1*
X3449747Y670310D1*
X3444814Y665750D1*
X3439539Y661591D1*
X3433953Y657859D1*
X3428092Y654577D1*
X3421991Y651764D1*
X3415690Y649439D1*
X3409224Y647615D1*
X3402634Y646305D1*
X3395964Y645515D1*
X3389251Y645251D1*
X3382539Y645515D1*
X3375868Y646305D1*
X3369279Y647615D1*
X3362813Y649439D1*
X3356511Y651764D1*
X3350410Y654577D1*
X3344549Y657859D1*
X3338964Y661591D1*
X3333688Y665750D1*
X3328755Y670310D1*
X3324195Y675243D1*
X3317280Y684642D1*
X3194703Y684763D1*
X3187544Y685897D1*
X3180651Y688137D1*
X3174195Y691427D1*
X3168331Y695687D1*
X3146182Y717636D1*
X3012384Y851432D1*
X2866392Y851452D1*
X2901490Y816364D1*
X3007287Y816361D1*
Y645251D1*
X2836176D1*
Y751074D1*
X2786944Y800279D1*
X2596697Y800271D1*
X2602294Y795863D1*
X2607228Y791302D1*
X2611788Y786369D1*
X2615947Y781094D1*
X2619679Y775508D1*
X2622961Y769648D1*
X2625773Y763546D1*
X2628099Y757245D1*
X2629923Y750779D1*
X2631233Y744190D1*
X2632023Y737519D1*
X2632287Y730806D1*
X2632023Y724094D1*
X2631233Y717423D1*
X2629923Y710834D1*
X2628099Y704368D1*
X2625773Y698066D1*
X2622961Y691965D1*
X2619679Y686104D1*
X2615947Y680519D1*
X2611788Y675243D1*
X2607228Y670310D1*
X2602294Y665750D1*
X2597019Y661591D1*
X2591434Y657859D1*
X2585573Y654577D1*
X2579472Y651764D1*
X2573170Y649439D1*
X2566704Y647615D1*
X2560115Y646305D1*
X2553444Y645515D1*
X2546731Y645251D1*
X2540019Y645515D1*
X2533348Y646305D1*
X2526759Y647615D1*
X2520293Y649439D1*
X2513991Y651764D1*
X2507890Y654577D1*
X2502029Y657859D1*
X2496444Y661591D1*
X2491169Y665750D1*
X2486235Y670310D1*
X2481675Y675243D1*
X2474760Y684642D1*
X2308876Y684763D1*
X2301717Y685897D1*
X2294825Y688137D1*
X2288368Y691427D1*
X2282504Y695687D1*
X2260355Y717636D1*
X2168729Y809262D1*
X2168704Y645251D1*
X1997594D1*
Y684616D1*
X1871868Y684763D1*
X1864709Y685897D1*
X1857817Y688137D1*
X1851360Y691427D1*
X1845497Y695687D1*
X1823347Y717636D1*
X1791705Y749277D1*
X1793440Y737519D1*
X1793704Y730806D1*
X1793440Y724094D1*
X1792650Y717423D1*
X1791340Y710834D1*
X1789516Y704368D1*
X1787191Y698066D1*
X1784378Y691965D1*
X1781096Y686104D1*
X1777364Y680519D1*
X1773205Y675243D1*
X1768645Y670310D1*
X1763712Y665750D1*
X1758436Y661591D1*
X1752851Y657859D1*
X1746990Y654577D1*
X1740889Y651764D1*
X1734587Y649439D1*
X1728121Y647615D1*
X1721532Y646305D1*
X1714861Y645515D1*
X1708149Y645251D1*
X1701436Y645515D1*
X1694766Y646305D1*
X1688176Y647615D1*
X1681710Y649439D1*
X1675409Y651764D1*
X1669308Y654577D1*
X1663447Y657859D1*
X1657861Y661591D1*
X1652586Y665750D1*
X1647653Y670310D1*
X1643092Y675243D1*
X1636178Y684642D1*
X1564781Y684763D1*
X1557623Y685897D1*
X1550730Y688137D1*
X1544273Y691427D1*
X1538410Y695687D1*
X1516259Y717636D1*
X1217281Y1016815D1*
X1213022Y1022679D1*
X1209731Y1029136D1*
X1207491Y1036028D1*
X1206357Y1043187D1*
X1206216Y1059191D1*
X1199831Y1057146D1*
X1192624Y1056004D1*
X1185327D1*
X1178120Y1057146D1*
X1171180Y1059401D1*
X1164679Y1062713D1*
X1158776Y1067003D1*
X1153617Y1072162D1*
X1149327Y1078065D1*
X1146015Y1084566D1*
X1143760Y1091506D1*
X1142619Y1098713D1*
Y1106010D1*
X1142846Y1107922D1*
X1084581Y1107909D1*
Y1183373D1*
X1080109Y1182193D1*
X1045686Y1147609D1*
X1026205Y1128289D1*
X1021571Y1124922D1*
X1016469Y1122322D1*
X1011022Y1120552D1*
X1006617Y1119552D1*
Y1109859D1*
X1004644D1*
X1004649Y1036011D1*
X1224334Y816355D1*
X1330121Y816361D1*
Y645251D1*
X1159011D1*
Y751074D1*
X923344Y986914D1*
X919085Y992777D1*
X915794Y999234D1*
X913554Y1006127D1*
X912420Y1013285D1*
X912279Y1044468D1*
Y1109885D1*
X877823Y1109859D1*
X877829Y815969D1*
X889539Y813998D1*
X896004Y812174D1*
X902306Y809848D1*
X908407Y807036D1*
X914268Y803754D1*
X919854Y800022D1*
X925129Y795863D1*
X930062Y791302D1*
X934623Y786369D1*
X938781Y781094D1*
X942514Y775508D1*
X945796Y769648D1*
X948608Y763546D1*
X950934Y757245D1*
X952758Y750779D1*
X954067Y744190D1*
X954857Y737519D1*
X955121Y730806D1*
X954857Y724094D1*
X954067Y717423D1*
X952758Y710834D1*
X950934Y704368D1*
X948608Y698066D1*
X945796Y691965D1*
X942514Y686104D1*
X938781Y680519D1*
X934623Y675243D1*
X930062Y670310D1*
X925129Y665750D1*
X919854Y661591D1*
X914268Y657859D1*
X908407Y654577D1*
X902306Y651764D1*
X896004Y649439D1*
X889539Y647615D1*
X882949Y646305D1*
X876279Y645515D1*
X869566Y645251D1*
X862854Y645515D1*
X856183Y646305D1*
X849594Y647615D1*
X843128Y649439D1*
X836826Y651764D1*
X830725Y654577D1*
X824864Y657859D1*
X819279Y661591D1*
X814003Y665750D1*
X809070Y670310D1*
X804510Y675243D1*
X800351Y680519D1*
X796619Y686104D1*
X793336Y691965D1*
X790524Y698066D1*
X788199Y704368D1*
X786375Y710834D1*
X785065Y717423D1*
X784275Y724094D1*
X784011Y730806D1*
X784275Y737519D1*
X785065Y744190D1*
X787550Y754945D1*
X786027Y761504D1*
X785459Y768743D1*
Y1059355D1*
X778571Y1057146D1*
X771364Y1056004D1*
X764067D1*
X756860Y1057146D1*
X749920Y1059401D1*
X743419Y1062713D1*
X737516Y1067003D1*
X732357Y1072162D1*
X728067Y1078065D1*
X724755Y1084566D1*
X722501Y1091506D1*
X721359Y1098713D1*
Y1106010D1*
X721582Y1107893D1*
X661590Y1107890D1*
Y1271127D1*
X695716D1*
X695743Y1298901D1*
X718674D1*
X718781Y1407809D1*
X719592Y1412923D1*
X721192Y1417847D1*
X723543Y1422460D1*
X726586Y1426649D1*
X773814Y1474022D1*
X880145Y1580208D1*
X884334Y1583251D1*
X888947Y1585602D1*
X893871Y1587201D1*
X898985Y1588012D1*
X965878Y1588113D1*
X1025840D1*
X1020780Y1592932D1*
X1016150Y1598633D1*
X1012305Y1604889D1*
X1009312Y1611595D1*
X1007221Y1618636D1*
X1006069Y1625889D1*
X1005876Y1633230D1*
X1006645Y1640533D1*
X1008361Y1647674D1*
X1010998Y1654528D1*
X1014508Y1660978D1*
X1018831Y1666914D1*
X1023894Y1672234D1*
X1029609Y1676846D1*
X1035878Y1680670D1*
X1042595Y1683642D1*
X1049641Y1685709D1*
X1056898Y1686838D1*
X1064239Y1687007D1*
X1071541Y1686216D1*
X1078675Y1684476D1*
X1085522Y1681817D1*
X1091961Y1678285D1*
X1097882Y1673943D1*
X1103186Y1668863D1*
X1105835Y1665738D1*
X1105833Y1687058D1*
X1217888D1*
Y1664056D1*
X1237109Y1664027D1*
X1241607Y1669974D1*
X1248260Y1676628D1*
X1255872Y1682159D1*
X1264256Y1686431D1*
X1273205Y1689338D1*
X1282499Y1690810D1*
X1291909D1*
X1301203Y1689338D1*
X1310151Y1686431D1*
X1318536Y1682159D1*
X1326148Y1676628D1*
X1332801Y1669974D1*
X1337218Y1664029D1*
X1483132Y1664027D1*
X1483145Y1690995D1*
X1547917D1*
X1547909Y1698004D1*
X1238830Y1698125D1*
X1233716Y1698936D1*
X1228792Y1700536D1*
X1224179Y1702886D1*
X1219990Y1705930D1*
X1172617Y1753158D1*
X1082667Y1843109D1*
X1076296Y1836718D1*
X1076201Y1808434D1*
X1075390Y1803319D1*
X1073791Y1798396D1*
X1071440Y1793783D1*
X1068397Y1789594D1*
X1037111Y1758163D1*
X1033174Y1754801D1*
X1028759Y1752095D1*
X1023976Y1750115D1*
X1018940Y1748905D1*
X1013768Y1748499D1*
X971819Y1748600D1*
X966705Y1749411D1*
X961781Y1751011D1*
X957169Y1753361D1*
X952980Y1756405D1*
X949318Y1760066D1*
X948259Y1761409D1*
X948254Y1730544D1*
X911043D1*
X911010Y1727208D1*
X914443Y1727210D1*
Y1634840D1*
X845624D1*
X844427Y1626939D1*
X842172Y1619999D1*
X838860Y1613498D1*
X834570Y1607595D1*
X829411Y1602436D1*
X823508Y1598146D1*
X817007Y1594834D1*
X810067Y1592579D1*
X802860Y1591438D1*
X795564D1*
X788356Y1592579D1*
X781417Y1594834D1*
X774915Y1598146D1*
X769012Y1602436D1*
X763854Y1607595D1*
X759564Y1613498D1*
X756251Y1619999D1*
X753997Y1626939D1*
X752827Y1634844D1*
X751207Y1634840D1*
Y1665952D1*
X664050Y1665932D1*
Y1952342D1*
X728175D1*
X728174Y2104140D1*
X773280D1*
X689974Y2187455D1*
X622989Y2187476D1*
X622956Y2177239D1*
X555242D1*
X555239Y2089641D1*
X432192D1*
X432200Y724077D1*
X438157Y728750D1*
X445729Y733949D1*
X453630Y738629D1*
X461829Y742772D1*
X470284Y746359D1*
X478960Y749372D1*
X487818Y751798D1*
X496818Y753628D1*
X505922Y754854D1*
X515086Y755466D1*
X524270Y755468D1*
X533435Y754855D1*
X542537Y753630D1*
X551537Y751801D1*
X560396Y749376D1*
X569073Y746363D1*
X577529Y742777D1*
X585726Y738636D1*
X593629Y733956D1*
X601201Y728758D1*
X608410Y723066D1*
X615222Y716906D1*
X621608Y710304D1*
X627537Y703291D1*
X632986Y695897D1*
X637928Y688155D1*
X642343Y680100D1*
X646210Y671770D1*
X649511Y663199D1*
X652233Y654427D1*
X654363Y645493D1*
X655892Y636436D1*
X656812Y627297D1*
X657119Y618109D1*
X656812Y608930D1*
X655893Y599792D1*
X654365Y590734D1*
X652235Y581800D1*
X649515Y573028D1*
X646213Y564457D1*
X642347Y556125D1*
X637934Y548071D1*
X632991Y540330D1*
X627544Y532935D1*
X621613Y525922D1*
X615229Y519319D1*
X608417Y513158D1*
X601209Y507466D1*
X593637Y502268D1*
X585734Y497587D1*
X577536Y493444D1*
X569081Y489859D1*
X560405Y486846D1*
X551546Y484419D1*
X542545Y482590D1*
X533443Y481365D1*
X524279Y480752D1*
X515094Y480751D1*
X505930Y481365D1*
X496827Y482588D1*
X487826Y484418D1*
X478968Y486844D1*
X470292Y489857D1*
X461836Y493443D1*
X453638Y497585D1*
X445735Y502266D1*
X438163Y507464D1*
X432222Y512155D1*
X432200Y432195D1*
X4646535Y432200D1*
X4646539Y3189851D1*
X4542738Y3189846D1*
X4552230Y3181473D1*
X4558616Y3174871D1*
X4564545Y3167857D1*
X4569994Y3160464D1*
X4574936Y3152722D1*
X4579351Y3144667D1*
X4583218Y3136336D1*
X4586519Y3127766D1*
X4589241Y3118994D1*
X4591371Y3110060D1*
X4592899Y3101003D1*
X4593819Y3091864D1*
X4594127Y3082676D1*
X4593819Y3073497D1*
X4592901Y3064359D1*
X4591373Y3055301D1*
X4589243Y3046367D1*
X4586523Y3037595D1*
X4583221Y3029024D1*
X4579355Y3020692D1*
X4574941Y3012638D1*
X4569999Y3004897D1*
X4564552Y2997502D1*
X4558621Y2990489D1*
X4552237Y2983886D1*
X4545424Y2977725D1*
X4538217Y2972033D1*
X4530645Y2966835D1*
X4522742Y2962154D1*
X4514544Y2958011D1*
X4506088Y2954426D1*
X4497413Y2951413D1*
X4488554Y2948986D1*
X4479553Y2947157D1*
X4470451Y2945932D1*
X4461287Y2945319D1*
X4452102Y2945318D1*
X4442938Y2945932D1*
X4433835Y2947155D1*
X4424834Y2948985D1*
X4415976Y2951411D1*
X4407300Y2954424D1*
X4398844Y2958010D1*
X4390646Y2962151D1*
X4382743Y2966833D1*
X4375171Y2972031D1*
X4367962Y2977722D1*
X4361151Y2983882D1*
X4354766Y2990485D1*
X4348835Y2997499D1*
X4343388Y3004893D1*
X4338445Y3012634D1*
X4334031Y3020688D1*
X4330165Y3029020D1*
X4326863Y3037591D1*
X4324142Y3046363D1*
X4322012Y3055297D1*
X4320485Y3064354D1*
X4319565Y3073493D1*
X4319258Y3082672D1*
X4319565Y3091852D1*
X4320483Y3100990D1*
X4322011Y3110046D1*
X4324140Y3118981D1*
X4326860Y3127754D1*
X4330161Y3136325D1*
X4334027Y3144657D1*
X4338440Y3152710D1*
X4343382Y3160453D1*
X4348830Y3167847D1*
X4354760Y3174861D1*
X4361145Y3181464D1*
X4370743Y3189826D1*
X605741Y3189846D1*
X615222Y3181473D1*
X621608Y3174871D1*
X627537Y3167857D1*
X632986Y3160464D1*
X637928Y3152722D1*
X642343Y3144667D1*
X646210Y3136336D1*
X649511Y3127766D1*
X652233Y3118994D1*
X654363Y3110060D1*
X655892Y3101003D1*
X656812Y3091864D1*
X657119Y3082676D1*
X656812Y3073497D1*
X655893Y3064359D1*
X654365Y3055301D1*
X652235Y3046367D1*
X649515Y3037595D1*
X646213Y3029024D1*
X642347Y3020692D1*
X637934Y3012638D1*
X632991Y3004897D1*
X627544Y2997502D1*
X621613Y2990489D1*
X615229Y2983886D1*
X608417Y2977725D1*
X601209Y2972033D1*
X593637Y2966835D1*
X585734Y2962154D1*
X577536Y2958011D1*
X569081Y2954426D1*
X560405Y2951413D1*
X551546Y2948986D1*
X542545Y2947157D1*
X533443Y2945932D1*
X524279Y2945319D1*
X515094Y2945318D1*
X505930Y2945932D1*
X496827Y2947155D1*
X487826Y2948985D1*
X478968Y2951411D1*
X470292Y2954424D1*
X461836Y2958010D1*
X453638Y2962151D1*
X445735Y2966833D1*
X438163Y2972031D1*
X432222Y2976722D1*
X432200Y2400514D1*
X555239Y2400515D1*
Y2312922D1*
X555987Y2312917D1*
X560669Y2314844D1*
X565704Y2316054D1*
X570876Y2316460D1*
X786494D1*
X741350Y2361592D1*
X735310Y2363697D1*
X727477Y2367688D1*
X720364Y2372856D1*
X714148Y2379073D1*
X712775Y2380814D1*
X712779Y2359432D1*
X600724D1*
Y2471487D1*
X712779D1*
Y2450179D1*
X717133Y2455078D1*
X723819Y2460787D1*
X731315Y2465381D1*
X739438Y2468745D1*
X747986Y2470797D1*
X756751Y2471487D1*
X765516Y2470797D1*
X774065Y2468745D1*
X782187Y2465381D1*
X789683Y2460787D1*
X796369Y2455078D1*
X802078Y2448392D1*
X806751Y2440724D1*
X811424Y2448392D1*
X817133Y2455078D1*
X823819Y2460787D1*
X831315Y2465381D1*
X839438Y2468745D1*
X847986Y2470797D1*
X856751Y2471487D1*
X865516Y2470797D1*
X874065Y2468745D1*
X882187Y2465381D1*
X887812Y2462037D1*
X906945Y2481373D1*
X873106D1*
Y2573743D1*
X874943D1*
X1247982Y1853561D2*
X1203040D1*
Y1865913D1*
X1153193Y1865911D1*
X1230569Y1788535D1*
X1228897Y1794197D1*
X1227424Y1803491D1*
Y1812901D1*
X1228897Y1822195D1*
X1231804Y1831144D1*
X1236075Y1839528D1*
X1241607Y1847140D1*
X1248003Y1853556D1*
X1884766Y2357208D2*
X1926106D1*
Y2310207D1*
X2121514Y2310203D1*
X1972548Y2459133D1*
X1884775Y2459129D1*
X1884767Y2357224D1*
X756420Y1940909D2*
Y1871738D1*
X769789Y1871733D1*
X769821Y1908977D1*
X785431D1*
X785409Y1940920D1*
X756419Y1940903D1*
X886885Y2170775D2*
Y2250464D1*
X717401Y2250468D1*
X723015Y2247166D1*
X726959Y2243796D1*
X830604Y2140151D1*
X853493Y2162885D1*
X857682Y2165928D1*
X862294Y2168279D1*
X867218Y2169878D1*
X872333Y2170690D1*
X886871Y2170791D1*
X1613682Y1827196D2*
Y1838751D1*
X1547989Y1904573D1*
X1545986Y1907205D1*
X1491276Y1907203D1*
X1491263Y1853561D1*
X1462305D1*
X1449973Y1841210D1*
X1493071Y1841192D1*
X1497512Y1847140D1*
X1504166Y1853793D1*
X1511777Y1859325D1*
X1520162Y1863596D1*
X1529111Y1866503D1*
X1538405Y1867976D1*
X1547814D1*
X1557108Y1866503D1*
X1566057Y1863596D1*
X1574441Y1859325D1*
X1582053Y1853793D1*
X1588707Y1847140D1*
X1594238Y1839528D1*
X1598510Y1831144D1*
X1601417Y1822195D1*
X1602889Y1812901D1*
Y1803491D1*
X1601417Y1794197D1*
X1598510Y1785249D1*
X1594426Y1777201D1*
X1613684Y1777205D1*
X1613717Y1827182D1*
X1154585Y2029148D2*
X1194615D1*
X1203094Y2037642D1*
X1203075Y2077648D1*
X1154527Y2029123D1*
X3003027Y2321766D2*
Y2376884D1*
X2921556Y2458367D1*
X2671592Y2458342D1*
X2671578Y2282419D1*
X2707330Y2282402D1*
X2707751Y2290031D1*
X2707893Y2334331D1*
X2709027Y2341490D1*
X2711267Y2348382D1*
X2714557Y2354839D1*
X2718817Y2360703D1*
X2723941Y2365827D1*
X2729805Y2370087D1*
X2736262Y2373377D1*
X2743154Y2375617D1*
X2750313Y2376751D1*
X2781495Y2376893D1*
X2913071Y2376751D1*
X2920230Y2375617D1*
X2927123Y2373377D1*
X2933579Y2370087D1*
X2939443Y2365827D1*
X2961594Y2343878D1*
X2983693Y2321777D1*
X3002998Y2321775D1*
X1776918Y1772329D2*
Y1734812D1*
X1701296D1*
X1701302Y1684835D1*
X1603108D1*
X1603074Y1590699D1*
X1624239Y1611704D1*
X1628428Y1614747D1*
X1633041Y1617098D1*
X1637965Y1618697D1*
X1643079Y1619508D1*
X1709973Y1619609D1*
X2132365D1*
X2132357Y2004014D1*
X2069376Y2067029D1*
X2017898Y2067045D1*
X2017886Y1962462D1*
X1996578D1*
X2001477Y1958108D1*
X2007186Y1951422D1*
X2011780Y1943926D1*
X2015144Y1935804D1*
X2017196Y1927255D1*
X2017886Y1918490D1*
X2017196Y1909725D1*
X2015144Y1901176D1*
X2011780Y1893054D1*
X2007186Y1885558D1*
X2001477Y1878872D1*
X1994791Y1873163D1*
X1987123Y1868490D1*
X1994791Y1863817D1*
X2001477Y1858108D1*
X2007186Y1851422D1*
X2011780Y1843926D1*
X2015144Y1835804D1*
X2017196Y1827255D1*
X2017886Y1818490D1*
X2017196Y1809725D1*
X2015144Y1801176D1*
X2011780Y1793054D1*
X2007186Y1785558D1*
X2001477Y1778872D1*
X1994791Y1773163D1*
X1987294Y1768569D1*
X1979172Y1765205D1*
X1970624Y1763153D1*
X1961859Y1762462D1*
X1953094Y1763153D1*
X1944545Y1765205D1*
X1936423Y1768569D1*
X1928927Y1773163D1*
X1922241Y1778872D1*
X1916564Y1785518D1*
X1908191Y1785515D1*
Y1772326D1*
X1776922D1*
X1896480Y2067075D2*
Y1964679D1*
X1905848Y1964686D1*
X1905831Y2067050D1*
X1896466Y2067045D1*
X1737279Y2374310D2*
Y2442588D1*
X1714342Y2419791D1*
X1710153Y2416747D1*
X1705540Y2414397D1*
X1700616Y2412797D1*
X1695502Y2411986D1*
X1666107Y2411885D1*
X1665368Y2407438D1*
X1664674Y2404978D1*
X1664540Y2385250D1*
X1668755Y2382649D1*
X1672692Y2379287D1*
X1683323Y2368654D1*
X1731651Y2368667D1*
X1737273Y2374285D1*
X1276499Y2446514D2*
Y2434129D1*
X1228809D1*
X1184920Y2390369D1*
X1180731Y2387326D1*
X1176119Y2384976D1*
X1171195Y2383376D1*
X1166081Y2382565D1*
X1102022Y2382464D1*
X1096369Y2375842D1*
X1089683Y2370133D1*
X1088384Y2369264D1*
X1225670Y2369157D1*
X1229166Y2368669D1*
X1304443Y2368667D1*
X1304270Y2374801D1*
X1303863Y2379962D1*
X1304452Y2386048D1*
X1304270Y2409840D1*
X1303863Y2415002D1*
Y2419165D1*
X1276507Y2446514D1*
X1113263Y2448461D2*
Y2523287D1*
X1061272Y2471301D1*
X1069830Y2469939D1*
X1078192Y2467222D1*
X1086025Y2463231D1*
X1093138Y2458064D1*
X1099355Y2451847D1*
X1102025Y2448460D1*
X1113268Y2448456D1*
X1926814Y2815869D2*
X1983192D1*
Y2733788D1*
X1997113Y2733783D1*
X1997121Y2815869D1*
X2089491D1*
Y2733762D1*
X2132365Y2733783D1*
X2129583Y2734917D1*
X2127633D1*
Y2833132D1*
X2011280Y2833246D1*
X2006166Y2834057D1*
X2001242Y2835657D1*
X1996629Y2838007D1*
X1992440Y2841050D1*
X1972141Y2861205D1*
X1926789Y2815846D1*
X1368994Y1853561D2*
X1328027Y1853567D1*
X1329606Y1850598D1*
X1335716Y1843443D1*
X1337218Y1841195D1*
X1356640Y1841192D1*
X1369014Y1853578D1*
X3103289Y1806027D2*
X3229255D1*
Y1587672D1*
X3101452D1*
Y1806027D1*
X3103289D1*
X4390258Y2415485D2*
X4389536Y2406333D1*
X4387789Y2397318D1*
X4385043Y2388557D1*
X4381327Y2380161D1*
X4376695Y2372234D1*
X4371200Y2364878D1*
X4364914Y2358186D1*
X4357915Y2352242D1*
X4350294Y2347121D1*
X4342146Y2342889D1*
X4333575Y2339599D1*
X4324688Y2337293D1*
X4315598Y2335999D1*
X4306420Y2335734D1*
X4297271Y2336503D1*
X4288266Y2338293D1*
X4279519Y2341085D1*
X4271140Y2344839D1*
X4263237Y2349512D1*
X4255907Y2355043D1*
X4249247Y2361361D1*
X4243338Y2368389D1*
X4238255Y2376036D1*
X4234064Y2384204D1*
X4230815Y2392792D1*
X4228553Y2401691D1*
X4227305Y2410787D1*
X4227086Y2419966D1*
X4227898Y2429111D1*
X4229734Y2438108D1*
X4232567Y2446840D1*
X4236364Y2455200D1*
X4241077Y2463081D1*
X4246644Y2470382D1*
X4252995Y2477012D1*
X4260052Y2482886D1*
X4267722Y2487931D1*
X4275913Y2492082D1*
X4284516Y2495287D1*
X4293426Y2497506D1*
X4302528Y2498709D1*
X4311708Y2498884D1*
X4320850Y2498025D1*
X4329836Y2496145D1*
X4338556Y2493268D1*
X4346896Y2489430D1*
X4354752Y2484679D1*
X4362027Y2479077D1*
X4368625Y2472692D1*
X4374464Y2465607D1*
X4379470Y2457910D1*
X4383582Y2449700D1*
X4386745Y2441081D1*
X4388919Y2432161D1*
X4390078Y2423053D1*
X4390258Y2415485D1*
X1927136Y1962462D2*
X1908188D1*
X1908191Y1951516D1*
X1916554Y1951497D1*
X1922241Y1958108D1*
X1927213Y1962466D1*
X1794850Y2892959D2*
X1800170D1*
X1800394Y2782777D1*
X1923990Y2906375D1*
X1923991Y2954050D1*
X2000645D1*
X2000665Y3008760D1*
X1913066Y3008764D1*
Y3010308D1*
X1851945Y3010333D1*
X1851940Y2942616D1*
X1794848D1*
X1794855Y2892974D1*
X2006780Y816361D2*
X2161620D1*
X2028107Y949884D1*
X1756218Y950019D1*
X1749060Y951153D1*
X1742167Y953393D1*
X1735710Y956683D1*
X1729847Y960943D1*
X1707697Y982892D1*
X1634959Y1055831D1*
X1632705Y1058691D1*
X1628031Y1059401D1*
X1621091Y1057146D1*
X1613884Y1056004D1*
X1606587D1*
X1599380Y1057146D1*
X1592440Y1059401D1*
X1585939Y1062713D1*
X1580036Y1067003D1*
X1574877Y1072162D1*
X1570587Y1078065D1*
X1567275Y1084566D1*
X1565020Y1091506D1*
X1563878Y1098713D1*
X1563940Y1106533D1*
X1499877Y1106531D1*
Y1156948D1*
X1473203Y1130245D1*
X1476457Y1123763D1*
X1719413Y880808D1*
X1775276Y880688D1*
X1782435Y879554D1*
X1789327Y877314D1*
X1795784Y874024D1*
X1801648Y869764D1*
X1823797Y847815D1*
X1894616Y776997D1*
X1997606Y776991D1*
X1997594Y816361D1*
X2006780D1*
X3504999Y2159448D2*
X3505432Y2168082D1*
X3506847Y2177154D1*
X3509228Y2186023D1*
X3512544Y2194585D1*
X3516758Y2202742D1*
X3521822Y2210401D1*
X3527679Y2217473D1*
X3534259Y2223876D1*
X3541489Y2229537D1*
X3549281Y2234392D1*
X3557552Y2238382D1*
X3566200Y2241465D1*
X3575130Y2243602D1*
X3584238Y2244770D1*
X3593418Y2244955D1*
X3602565Y2244155D1*
X3611573Y2242380D1*
X3620340Y2239649D1*
X3628763Y2235995D1*
X3636746Y2231459D1*
X3644197Y2226094D1*
X3651031Y2219961D1*
X3657167Y2213130D1*
X3662537Y2205682D1*
X3667077Y2197701D1*
X3670735Y2189280D1*
X3673472Y2180515D1*
X3675251Y2171507D1*
X3676056Y2162360D1*
X3676086Y2019815D1*
X3675397Y2010659D1*
X3673730Y2001630D1*
X3671104Y1992831D1*
X3667552Y1984364D1*
X3663112Y1976327D1*
X3657838Y1968812D1*
X3651787Y1961905D1*
X3645032Y1955687D1*
X3637649Y1950228D1*
X3629722Y1945592D1*
X3621346Y1941833D1*
X3612615Y1938991D1*
X3603629Y1937103D1*
X3594493Y1936188D1*
X3585310Y1936258D1*
X3576190Y1937312D1*
X3567234Y1939336D1*
X3558546Y1942309D1*
X3550228Y1946196D1*
X3542373Y1950952D1*
X3535074Y1956522D1*
X3528414Y1962842D1*
X3522469Y1969840D1*
X3517308Y1977435D1*
X3512991Y1985539D1*
X3509567Y1994058D1*
X3507077Y2002896D1*
X3505548Y2011949D1*
X3504997Y2021115D1*
X3504995Y2159297D1*
X3504997Y1848398D2*
X3505259Y1855137D1*
X3506049Y1861808D1*
X3507359Y1868397D1*
X3509183Y1874863D1*
X3511508Y1881165D1*
X3514321Y1887266D1*
X3517603Y1893127D1*
X3521335Y1898712D1*
X3525494Y1903987D1*
X3530054Y1908920D1*
X3534987Y1913481D1*
X3540263Y1917640D1*
X3545848Y1921372D1*
X3551709Y1924654D1*
X3557810Y1927466D1*
X3564112Y1929792D1*
X3570578Y1931616D1*
X3577167Y1932926D1*
X3583838Y1933716D1*
X3590550Y1933980D1*
X3597263Y1933716D1*
X3603934Y1932926D1*
X3610523Y1931616D1*
X3616989Y1929792D1*
X3623291Y1927466D1*
X3629392Y1924654D1*
X3635252Y1921372D1*
X3640838Y1917640D1*
X3646113Y1913481D1*
X3651046Y1908920D1*
X3655607Y1903987D1*
X3659766Y1898712D1*
X3663498Y1893127D1*
X3666780Y1887266D1*
X3669592Y1881165D1*
X3671918Y1874863D1*
X3673742Y1868397D1*
X3675052Y1861808D1*
X3675842Y1855137D1*
X3676106Y1839238D1*
X3676070Y1710629D1*
X3675842Y1703917D1*
X3675052Y1697246D1*
X3673742Y1690657D1*
X3671918Y1684191D1*
X3669592Y1677889D1*
X3666780Y1671788D1*
X3663498Y1665927D1*
X3659766Y1660342D1*
X3655607Y1655066D1*
X3651046Y1650133D1*
X3646113Y1645573D1*
X3640838Y1641414D1*
X3635252Y1637682D1*
X3629392Y1634399D1*
X3623291Y1631587D1*
X3616989Y1629262D1*
X3610523Y1627438D1*
X3603934Y1626128D1*
X3597263Y1625338D1*
X3590550Y1625074D1*
X3583838Y1625338D1*
X3577167Y1626128D1*
X3570578Y1627438D1*
X3564112Y1629262D1*
X3557810Y1631587D1*
X3551709Y1634399D1*
X3545848Y1637682D1*
X3540263Y1641414D1*
X3534987Y1645573D1*
X3530054Y1650133D1*
X3525494Y1655066D1*
X3521335Y1660342D1*
X3517603Y1665927D1*
X3514321Y1671788D1*
X3511508Y1677889D1*
X3509183Y1684191D1*
X3507359Y1690657D1*
X3506049Y1697246D1*
X3505259Y1703917D1*
X3504995Y1719815D1*
Y1848245D1*
X1334434Y2664011D2*
X1334431Y2741413D1*
X1330133Y2741388D1*
Y2833163D1*
X986129Y2833145D1*
X951393Y2798430D1*
X1062251Y2798409D1*
Y2743096D1*
X1213750Y2742993D1*
X1218864Y2742182D1*
X1223788Y2740582D1*
X1228401Y2738231D1*
X1232590Y2735188D1*
X1279962Y2687960D1*
X1334440Y2633481D1*
X1334431Y2664006D1*
X742642Y2571787D2*
Y2550371D1*
X650272D1*
Y2567775D1*
X605833Y2567791D1*
X605830Y2480192D1*
X464247D1*
Y2588310D1*
X569352D1*
X569401Y2752680D1*
X569365Y2830588D1*
X464247Y2830586D1*
Y2938704D1*
X605830D1*
Y2851111D1*
X673546Y2851106D1*
Y2793095D1*
X717878Y2793094D1*
X717913Y2798409D1*
X857527D1*
Y2571787D1*
X742662D1*
X1304453Y1999892D2*
Y2008570D1*
X1267338Y2008581D1*
X1272850Y2007741D1*
X1283199Y2007640D1*
X1288313Y2006829D1*
X1293237Y2005229D1*
X1297850Y2002878D1*
X1302039Y1999835D1*
X1304474Y1997544D1*
X1304453Y1999750D1*
X1313162Y2357004D2*
Y2021826D1*
X1328915Y2037885D1*
X1332277Y2041822D1*
X1336214Y2045184D1*
X1340629Y2047890D1*
X1345413Y2049872D1*
X1350448Y2051081D1*
X1355609Y2051486D1*
X1628868D1*
X1628863Y2322296D1*
X1621801Y2322959D1*
X1358277Y2323060D1*
X1353163Y2323871D1*
X1348239Y2325470D1*
X1343627Y2327821D1*
X1339438Y2330864D1*
X1313163Y2357024D1*
X2706657Y2095552D2*
X2664857Y2095666D1*
X2659462Y2096745D1*
X2654399Y2098917D1*
X2651793Y2098440D1*
X2647952Y2096848D1*
X2643909Y2095878D1*
X2639755Y2095552D1*
X2598314Y2095633D1*
X2594207Y2096284D1*
X2590251Y2097569D1*
X2586250Y2099199D1*
X2581241Y2096920D1*
X2575871Y2095726D1*
X2563648Y2095552D1*
X2530999Y2095667D1*
X2527369Y2096263D1*
X2526499Y2088582D1*
Y2076201D1*
X2537401Y2073743D1*
X2707743D1*
X2707751Y2095558D1*
X518775Y2197729D2*
Y2292371D1*
X432192Y2292397D1*
X432200Y2197768D1*
X518762Y2197759D1*
X3190672Y1423700D2*
Y1394604D1*
X3205012Y1394781D1*
X3212309D1*
X3219516Y1393640D1*
X3226456Y1391385D1*
X3231575Y1388846D1*
X3231570Y1423699D1*
X3190651Y1423696D1*
X2888525Y1338875D2*
X2893987D1*
X2876280Y1356583D1*
X2876302Y1301474D1*
X2886672Y1301473D1*
X2886688Y1338875D1*
X2888525D1*
X2765476Y1423696D2*
Y1394616D1*
X2787690Y1394781D1*
X2794986D1*
X2802193Y1393640D1*
X2809133Y1391385D1*
X2810312Y1390842D1*
X2806983Y1398321D1*
X2781583Y1423720D1*
X2765455Y1423696D1*
X2461491Y1298899D2*
Y1326487D1*
X2454270Y1333712D1*
X2454255Y1298889D1*
X3309785Y1336297D2*
X3322710D1*
X3322712Y1341213D1*
X3301680Y1362373D1*
X3298632Y1366570D1*
X3297562Y1366666D1*
Y1298881D1*
X3307932Y1298896D1*
X3307948Y1336297D1*
X3309785D1*
X2340279Y1416204D2*
Y1394616D1*
X2361865Y1394609D1*
X2340302Y1416182D1*
X1919019Y1455188D2*
Y1394616D1*
X1953044Y1394781D1*
X1960340D1*
X1967548Y1393640D1*
X1974889Y1391200D1*
X1974978Y1429754D1*
X1975789Y1434868D1*
X1977389Y1439792D1*
X1979739Y1444405D1*
X1982783Y1448594D1*
X1988188Y1455192D1*
X1919040D1*
X1616872Y1336302D2*
X1628850D1*
X1608760Y1356531D1*
X1607798Y1351705D1*
Y1298919D1*
X1615035Y1299969D1*
Y1336302D1*
X1616872D1*
X1442360Y1456775D2*
X1532893D1*
Y1394616D1*
X1541806Y1394829D1*
X1542212Y1402798D1*
X1543420Y1407834D1*
X1545402Y1412617D1*
X1548108Y1417032D1*
X1551470Y1420969D1*
X1593566Y1463065D1*
X1296162Y1463066D1*
X1289851Y1456771D1*
X1442360Y1456775D1*
X1211128Y1298899D2*
Y1320258D1*
X1208086Y1324452D1*
X1205735Y1329065D1*
X1204136Y1333989D1*
X1203325Y1339103D1*
X1203224Y1405997D1*
Y1412491D1*
X1200742Y1405279D1*
Y1298882D1*
X1211112Y1298901D1*
X943840Y1456775D2*
X1093428D1*
Y1394616D1*
X1118398Y1394781D1*
X1125695D1*
X1132902Y1393640D1*
X1134755Y1393117D1*
X1134851Y1426241D1*
X1135662Y1431355D1*
X1137262Y1436279D1*
X1139612Y1440892D1*
X1142655Y1445081D1*
X1189884Y1492453D1*
X1199856Y1502426D1*
X923090Y1502436D1*
X877699Y1456775D1*
X943840D1*
X788132Y1336302D2*
X792230D1*
X788266Y1340840D1*
X785556Y1345264D1*
X784672Y1340915D1*
Y1298894D1*
X786294Y1299969D1*
Y1336302D1*
X788132D1*
X4605630Y608930D2*
X4604712Y599792D1*
X4603184Y590734D1*
X4601054Y581800D1*
X4598334Y573028D1*
X4595032Y564457D1*
X4591166Y556125D1*
X4586752Y548071D1*
X4581810Y540330D1*
X4576363Y532935D1*
X4570432Y525922D1*
X4564048Y519319D1*
X4557235Y513158D1*
X4550028Y507466D1*
X4542456Y502268D1*
X4534553Y497587D1*
X4526355Y493444D1*
X4517899Y489859D1*
X4509224Y486846D1*
X4500365Y484419D1*
X4491364Y482590D1*
X4482262Y481365D1*
X4473098Y480752D1*
X4463913Y480751D1*
X4454749Y481365D1*
X4445646Y482588D1*
X4436645Y484418D1*
X4427787Y486844D1*
X4419111Y489857D1*
X4410655Y493443D1*
X4402457Y497585D1*
X4394554Y502266D1*
X4386982Y507464D1*
X4379773Y513155D1*
X4372962Y519315D1*
X4366577Y525918D1*
X4360646Y532932D1*
X4355199Y540326D1*
X4350256Y548067D1*
X4345842Y556121D1*
X4341976Y564453D1*
X4338674Y573024D1*
X4335953Y581796D1*
X4333823Y590730D1*
X4332296Y599787D1*
X4331376Y608926D1*
X4331069Y618106D1*
X4331376Y627285D1*
X4332294Y636423D1*
X4333822Y645480D1*
X4335951Y654414D1*
X4338671Y663187D1*
X4341972Y671758D1*
X4345838Y680090D1*
X4350251Y688144D1*
X4355193Y695886D1*
X4360641Y703280D1*
X4366571Y710294D1*
X4372956Y716897D1*
X4379767Y723058D1*
X4386976Y728750D1*
X4394548Y733949D1*
X4402449Y738629D1*
X4410648Y742772D1*
X4419103Y746359D1*
X4427779Y749372D1*
X4436637Y751798D1*
X4445637Y753628D1*
X4454741Y754854D1*
X4463905Y755466D1*
X4473088Y755468D1*
X4482254Y754855D1*
X4491356Y753630D1*
X4500356Y751801D1*
X4509214Y749376D1*
X4517892Y746363D1*
X4526348Y742777D1*
X4534545Y738636D1*
X4542448Y733956D1*
X4550020Y728758D1*
X4557229Y723066D1*
X4564041Y716906D1*
X4570427Y710304D1*
X4576356Y703291D1*
X4581805Y695897D1*
X4586747Y688155D1*
X4591162Y680100D1*
X4595029Y671770D1*
X4598330Y663199D1*
X4601052Y654427D1*
X4603182Y645493D1*
X4604710Y636436D1*
X4605630Y627297D1*
X4605938Y618109D1*
X4605630Y608930D1*
X921259Y2573708D2*
D27*
Y2527558D1*
X873141D2*
X921259D1*
X1251193Y1899746D2*
Y1853596D1*
X1877952Y2357172D2*
Y2311023D1*
X1926070D1*
X866289Y1681025D2*
Y1634876D1*
Y1681025D2*
X914407D1*
X710235Y1952306D2*
Y1904188D1*
X664086D2*
X756385D1*
X710235Y1714086D2*
Y1665968D1*
X664086Y1714086D2*
X710235D1*
X886922Y2204724D2*
X933070D1*
X774359Y1989057D2*
Y1940939D1*
X728210Y1989057D2*
X774359D1*
X3326771Y2410322D2*
Y2362204D1*
X3239283D2*
X3414259D1*
X1193109Y1914065D2*
Y1865947D1*
X1728764Y1780997D2*
Y1734847D1*
Y1780997D2*
X1776882D1*
X1850294Y1992650D2*
X1896444D1*
X1838582Y2452755D2*
X1884731D1*
X1737315D2*
X1783464D1*
X1113300Y2480314D2*
X1161417D1*
X1937007Y2815834D2*
Y2767716D1*
X1890857D2*
X1983157D1*
X1376180Y1899746D2*
Y1853596D1*
X3165354Y1805991D2*
Y1587708D1*
X3101487Y1696850D2*
X3229220D1*
X4308661Y2498905D2*
Y2335739D1*
X4227078Y2417322D2*
X4390243D1*
X1905867Y2018490D2*
X2017851D1*
X1761859Y2618427D2*
X1800134D1*
X656751Y2471452D2*
Y2359468D1*
X600759Y2415460D2*
X656751D1*
X3590550Y2244968D2*
Y1936133D1*
X3505031Y2090550D2*
X3676070D1*
X2043306Y2815834D2*
Y2767716D1*
X1997157D2*
X2089456D1*
X1061860Y1687023D2*
Y1631031D1*
X1005868D2*
X1061860D1*
X2093109Y3045192D2*
Y2941083D1*
Y2993138D2*
X2136306D1*
X992444Y2798373D2*
Y2760098D1*
X1062216D1*
X879785Y1735075D2*
D28*
X910974D1*
X621456Y2851070D2*
D27*
Y2807873D1*
X569401D2*
X673511D1*
X2687007Y1967431D2*
Y1575885D1*
Y1771658D2*
X2924119D1*
X2687007Y2282392D2*
Y2095570D1*
X2553149Y2282392D2*
Y2095570D1*
X1808708Y3046762D2*
Y2942651D1*
Y2994707D2*
X1851905D1*
X3144487Y1411193D2*
X3190637D1*
X2886725Y1299579D2*
X2933857D1*
X2719291Y1408621D2*
X2765440D1*
X2461527Y1297007D2*
X2508661D1*
X3506692Y1456724D2*
Y1408606D1*
X3565747Y1456724D2*
Y1408606D1*
X3611897D1*
X3427952Y1456724D2*
Y1408606D1*
X3307983Y1297002D2*
X3355117D1*
X3368897Y1456722D2*
Y1408606D1*
X2294094Y1408621D2*
X2340243D1*
X1872834D2*
X1918983D1*
X1615070Y1297007D2*
X1662204D1*
X1486708Y1456739D2*
Y1408621D1*
X1532857D1*
X1419133Y1456739D2*
Y1408621D1*
X1337474Y1456739D2*
Y1408621D1*
X1211163Y1297007D2*
X1258297D1*
X988188Y1456739D2*
Y1408621D1*
X1047243Y1456739D2*
Y1408621D1*
X1093393D1*
X909448Y1456739D2*
Y1408621D1*
X786331Y1297007D2*
X833464D1*
X1344670Y2293339D2*
D26*
X1615763D1*
X1343987Y2268470D2*
X1616481D1*
X1343306Y2243602D2*
X1617162D1*
X1342588Y2218733D2*
X1617880D1*
X1341907Y2193864D2*
X1618598D1*
X1341225Y2168995D2*
X1619315D1*
X1340543Y2144127D2*
X1620033D1*
X1339826Y2119258D2*
X1620714D1*
X1339144Y2094389D2*
X1621432D1*
X1338462Y2069520D2*
X1622150D1*
X1624931Y2059763D2*
X1617764Y2310636D1*
X1342868Y2317884D1*
X1335686Y2059718D1*
X1624943Y2059743D1*
D29*
X988188Y2527558D3*
X921259D3*
X1318123Y1899746D3*
X1251193D3*
X1811023Y2311023D3*
X1877952D3*
X799360Y1681025D3*
X866289D3*
D30*
X710235Y1837259D3*
Y1904188D3*
Y1781015D3*
Y1714086D3*
D29*
X1011810Y2185039D3*
X1078739D3*
D30*
X933070Y2137794D3*
Y2204724D3*
X774359Y2055986D3*
Y1989057D3*
D29*
X1661835Y1837246D3*
X1728764D3*
D30*
X1800294Y2059579D3*
Y1992650D3*
X1136860Y1980994D3*
Y1914065D3*
D31*
X3090550Y2362204D3*
X3326771D3*
D30*
X1193109Y1980994D3*
Y1914065D3*
D29*
X1661835Y1780997D3*
X1728764D3*
D30*
X1850294Y2059579D3*
Y1992650D3*
X1838582Y2385826D3*
Y2452755D3*
X1783464Y2385826D3*
Y2452755D3*
D29*
X1228346Y2480314D3*
X1161417D3*
X1228346Y2527558D3*
X1161417D3*
D30*
X1541582Y2652829D3*
Y2585899D3*
X1937007Y2700787D3*
Y2767716D3*
D29*
X1443109Y1899746D3*
X1376180D3*
D32*
X3165354Y1972440D3*
Y1696850D3*
D33*
X3566928Y2417322D3*
D34*
X4308661D3*
D35*
X1961859Y2018490D3*
D36*
Y1918490D3*
Y1818490D3*
D37*
X1611859Y2618427D3*
X1661859D3*
X1711859D3*
X1761859D3*
X1611859Y2823151D3*
X1661859D3*
X1711859D3*
X1761859D3*
D38*
X2881889Y2889743D3*
D39*
X3256889D3*
D38*
X3718523D3*
D39*
X4093523D3*
D38*
X4347932Y1342991D3*
D39*
Y967991D3*
D38*
X3764251Y730806D3*
D39*
X3389251D3*
D38*
X2921731D3*
D39*
X2546731D3*
D38*
X2083149D3*
D39*
X1708149D3*
D38*
X1244566D3*
D39*
X869566D3*
D40*
X1593109Y1731020D3*
X1656102D3*
D41*
X2224409Y2509842D3*
D42*
X2624409D3*
D41*
X2624015Y2657480D3*
D42*
X2224015D3*
D35*
X656751Y2415460D3*
D36*
X756751D3*
X856751D3*
X956751D3*
X1056751D3*
D43*
X3590550Y2090550D3*
Y1779527D3*
D151*
X1080609Y2068485D3*
Y2135414D3*
D154*
X1024360Y1968495D3*
Y2035424D3*
D29*
X2039074Y2907865D3*
X1972145D3*
D30*
X2043306Y2767716D3*
Y2700787D3*
X1443109Y2680920D3*
Y2613991D3*
X1380616Y2712165D3*
Y2645235D3*
X1499360Y2774661D3*
Y2707731D3*
D29*
X1102361Y2240157D3*
X1035432D3*
X1793108Y1818511D3*
X1860037D3*
X1793108Y1918501D3*
X1860037D3*
D30*
X696457Y2598524D3*
Y2665453D3*
D157*
X1599361Y2906528D3*
X1666291D3*
D35*
X1161860Y1631031D3*
D36*
X1061860D3*
D44*
X1543109D3*
D45*
Y1808196D3*
X1287204D3*
Y1631031D3*
D46*
X2043897Y2993138D3*
X2093109D3*
D47*
X2169881Y3079556D3*
X1967125D3*
D48*
X992444Y2610098D3*
Y2660098D3*
Y2710098D3*
Y2760098D3*
X787720Y2610098D3*
Y2660098D3*
Y2710098D3*
Y2760098D3*
D53*
X1336859Y1962246D3*
X1356544D3*
X1376229D3*
X1395914D3*
X1415599D3*
X1435284D3*
X1454969D3*
X1474654D3*
X1494339D3*
X1514024D3*
X1533709D3*
X1553394D3*
X1573079D3*
X1592764D3*
X1612449D3*
X1632134D3*
D54*
X1710875Y2040986D3*
Y2060671D3*
Y2080356D3*
Y2100041D3*
Y2119726D3*
Y2139411D3*
Y2159096D3*
Y2178781D3*
Y2198466D3*
Y2218151D3*
Y2237836D3*
Y2257522D3*
Y2277207D3*
Y2296892D3*
Y2316577D3*
Y2336262D3*
D53*
X1632134Y2415002D3*
X1612449D3*
X1592764D3*
X1573079D3*
X1553394D3*
X1533709D3*
X1514024D3*
X1494339D3*
X1474654D3*
X1454969D3*
X1435284D3*
X1415599D3*
X1395914D3*
X1376229D3*
X1356544D3*
X1336859D3*
D54*
X1258119Y2336262D3*
Y2316577D3*
Y2296892D3*
Y2277207D3*
Y2257522D3*
Y2237836D3*
Y2218151D3*
Y2198466D3*
Y2178781D3*
Y2159096D3*
Y2139411D3*
Y2119726D3*
Y2100041D3*
Y2080356D3*
Y2060671D3*
Y2040986D3*
D55*
X774352Y1824760D3*
Y1809012D3*
Y1793264D3*
Y1840508D3*
Y1777516D3*
Y1761768D3*
D56*
X801045Y1735075D3*
X816793D3*
X832541D3*
X848289D3*
X864037D3*
X879785D3*
D55*
X906478Y1761768D3*
Y1777516D3*
Y1793264D3*
Y1809012D3*
Y1824760D3*
Y1840508D3*
D56*
X801045Y1867201D3*
X816793D3*
X832541D3*
X848289D3*
X864037D3*
X879785D3*
D58*
X2165354Y2787401D3*
X2202755D3*
X2240157D3*
Y2885826D3*
X2165354D3*
D59*
X1374350Y2830880D3*
Y2783636D3*
X1445216D3*
Y2830880D3*
D60*
X830609Y2093482D3*
Y1995057D3*
Y2044270D3*
Y1945844D3*
X930609Y2093482D3*
Y2044270D3*
Y1995057D3*
Y1945844D3*
D61*
X621456Y2611023D3*
Y2660235D3*
Y2709448D3*
Y2758661D3*
Y2807873D3*
D62*
X535039Y2884645D3*
Y2534251D3*
D160*
X2687007Y1771658D3*
D163*
X2820865Y2188981D3*
X2753936D3*
X2687007D3*
X2620078D3*
X2553149D3*
D46*
X1611857Y2994707D3*
X1661070D3*
X1710283D3*
X1759495D3*
X1808708D3*
D47*
X1885480Y3081124D3*
X1535086D3*
D61*
X570865Y2220472D3*
Y2269684D3*
D62*
X484448Y2346456D3*
Y2143700D3*
D30*
X3085432Y1344264D3*
Y1411193D3*
X3144487Y1344264D3*
Y1411193D3*
X3006692Y1344264D3*
Y1411193D3*
D64*
X2933857Y1224776D3*
Y1299579D3*
X2843306Y1262178D3*
D29*
X2874802Y1158634D3*
X2941731D3*
D30*
X2817716Y1157256D3*
Y1224186D3*
D29*
X3000787Y1158595D3*
X3067716D3*
D30*
X2947637Y1344264D3*
Y1411193D3*
D66*
X3028346Y1289146D3*
Y1269461D3*
Y1249776D3*
Y1230091D3*
Y1210406D3*
X3142519Y1289146D3*
Y1269461D3*
Y1249776D3*
Y1230091D3*
Y1210406D3*
D67*
X3085432Y1249776D3*
D30*
X2660235Y1341692D3*
Y1408621D3*
X2719291Y1341692D3*
Y1408621D3*
X2581495Y1341692D3*
Y1408621D3*
D64*
X2508661Y1222204D3*
Y1297007D3*
X2418109Y1259606D3*
D29*
X2449606Y1156062D3*
X2516535D3*
D30*
X2392519Y1154684D3*
Y1221613D3*
D29*
X2575590Y1156023D3*
X2642519D3*
D30*
X2522440Y1341692D3*
Y1408621D3*
D66*
X2603149Y1286574D3*
Y1266889D3*
Y1247204D3*
Y1227519D3*
Y1207834D3*
X2717322Y1286574D3*
Y1266889D3*
Y1247204D3*
Y1227519D3*
Y1207834D3*
D67*
X2660235Y1247204D3*
D30*
X3506692Y1341676D3*
Y1408606D3*
X3565747Y1341676D3*
Y1408606D3*
X3427952Y1341676D3*
Y1408606D3*
D64*
X3355117Y1222199D3*
Y1297002D3*
X3264566Y1259600D3*
D29*
X3296062Y1156041D3*
X3362991D3*
D30*
X3238976Y1154669D3*
Y1221598D3*
D29*
X3422046Y1156041D3*
X3488976D3*
D30*
X3368897Y1341676D3*
Y1408606D3*
D66*
X3449606Y1286558D3*
Y1266873D3*
Y1247188D3*
Y1227503D3*
Y1207818D3*
X3563779Y1286558D3*
Y1266873D3*
Y1247188D3*
Y1227503D3*
Y1207818D3*
D67*
X3506692Y1247188D3*
D30*
X2235039Y1341692D3*
Y1408621D3*
X2294094Y1341692D3*
Y1408621D3*
X2156298Y1341692D3*
Y1408621D3*
D64*
X2083464Y1222204D3*
Y1297007D3*
X1992913Y1259606D3*
D29*
X2024409Y1156062D3*
X2091338D3*
D30*
X1967322Y1154684D3*
Y1221613D3*
D29*
X2150393Y1156023D3*
X2217322D3*
D30*
X2097243Y1341692D3*
Y1408621D3*
D66*
X2177952Y1286574D3*
Y1266889D3*
Y1247204D3*
Y1227519D3*
Y1207834D3*
X2292125Y1286574D3*
Y1266889D3*
Y1247204D3*
Y1227519D3*
Y1207834D3*
D67*
X2235039Y1247204D3*
D30*
X1813779Y1341692D3*
Y1408621D3*
X1872834Y1341692D3*
Y1408621D3*
X1735039Y1341692D3*
Y1408621D3*
D64*
X1662204Y1222204D3*
Y1297007D3*
X1571653Y1259606D3*
D29*
X1603149Y1156062D3*
X1670078D3*
D30*
X1546062Y1154684D3*
Y1221613D3*
D29*
X1729133Y1156023D3*
X1796062D3*
D30*
X1675983Y1341692D3*
Y1408621D3*
D66*
X1756692Y1286574D3*
Y1266889D3*
Y1247204D3*
Y1227519D3*
Y1207834D3*
X1870865Y1286574D3*
Y1266889D3*
Y1247204D3*
Y1227519D3*
Y1207834D3*
D67*
X1813779Y1247204D3*
D30*
X1486708Y1341692D3*
Y1408621D3*
X1419133Y1341692D3*
Y1408621D3*
X1337474Y1341692D3*
Y1408621D3*
D64*
X1258297Y1222204D3*
Y1297007D3*
X1167746Y1259606D3*
D29*
X1185472Y1156062D3*
X1252401D3*
D30*
X1130766D3*
Y1222991D3*
D29*
X1311913Y1156062D3*
X1378842D3*
D30*
X1274178Y1341692D3*
Y1408621D3*
D66*
X1374369Y1293543D3*
Y1273857D3*
Y1254172D3*
Y1234487D3*
Y1214802D3*
X1488543Y1293543D3*
Y1273857D3*
Y1254172D3*
Y1234487D3*
Y1214802D3*
D67*
X1431456Y1254172D3*
D30*
X988188Y1341692D3*
Y1408621D3*
X1047243Y1341692D3*
Y1408621D3*
X909448Y1341692D3*
Y1408621D3*
D64*
X833464Y1222204D3*
Y1297007D3*
X742913Y1259606D3*
D29*
X764714Y1156044D3*
X831644D3*
D30*
X707775D3*
Y1222973D3*
D29*
X891535Y1156044D3*
X958464D3*
D30*
X850393Y1341692D3*
Y1408621D3*
D66*
X933464Y1293529D3*
Y1273844D3*
Y1254159D3*
Y1234474D3*
Y1214789D3*
X1047637Y1293529D3*
Y1273844D3*
Y1254159D3*
Y1234474D3*
Y1214789D3*
D67*
X990550Y1254159D3*
M02*
