%TF.GenerationSoftware,Novarm,DipTrace,3.3.0.1*%
%TF.CreationDate,2018-11-14T10:14:43-08:00*%
%FSLAX26Y26*%
%MOIN*%
%TF.FileFunction,Soldermask,Top*%
%TF.Part,Single*%
%AMOUTLINE1*
4,1,4,
0.023625,-0.025594,
-0.023625,-0.025594,
-0.023625,0.025594,
0.023625,0.025594,
0.023625,-0.025594,
0*%
%AMOUTLINE4*
4,1,4,
-0.023625,0.025594,
0.023625,0.025594,
0.023625,-0.025594,
-0.023625,-0.025594,
-0.023625,0.025594,
0*%
%AMOUTLINE7*
4,1,4,
-0.025594,-0.023625,
-0.025594,0.023625,
0.025594,0.023625,
0.025594,-0.023625,
-0.025594,-0.023625,
0*%
%AMOUTLINE10*
4,1,4,
0.21457,-0.173231,
-0.21457,-0.173231,
-0.21457,0.173231,
0.21457,0.173231,
0.21457,-0.173231,
0*%
%AMOUTLINE13*
4,1,4,
0.023625,-0.070869,
-0.023625,-0.070869,
-0.023625,0.070869,
0.023625,0.070869,
0.023625,-0.070869,
0*%
%ADD70C,0.124803*%
%ADD79R,0.074809X0.106305*%
%ADD81R,0.035439X0.017723*%
%ADD83R,0.049219X0.033471*%
%ADD85R,0.096463X0.062998*%
%ADD87R,0.059061X0.041345*%
%ADD89R,0.045282X0.029534*%
%ADD91R,0.043313X0.039376*%
%ADD93R,0.030321X0.059849*%
%ADD95R,0.017329X0.038431*%
%ADD97R,0.038431X0.017329*%
%ADD99R,0.064967X0.019691*%
%ADD101R,0.019691X0.064967*%
%ADD103R,0.094494X0.031502*%
%ADD105R,0.062998X0.096463*%
%ADD107R,0.041345X0.059061*%
%ADD109C,0.074809*%
%ADD111R,0.074809X0.074809*%
%ADD113O,0.12599X0.263786*%
%ADD115C,0.06788*%
%ADD117R,0.06788X0.06788*%
%ADD119R,0.045282X0.04725*%
%ADD121C,0.12599*%
%ADD123R,0.12599X0.12599*%
%ADD125R,0.031502X0.094494*%
%ADD127C,0.066935*%
%ADD129R,0.066935X0.066935*%
%ADD131C,0.118116*%
%ADD133R,0.118116X0.118116*%
%ADD135R,0.082683X0.173234*%
%ADD137R,0.129927X0.051187*%
%ADD139R,0.04725X0.051187*%
%ADD141R,0.051187X0.04725*%
%ADD152OUTLINE1*%
%ADD155OUTLINE4*%
%ADD158OUTLINE7*%
%ADD161OUTLINE10*%
%ADD164OUTLINE13*%
G75*
G01*
%LPD*%
D141*
X988188Y2527558D3*
X921259D3*
X1318123Y1899746D3*
X1251193D3*
X1811023Y2311023D3*
X1877952D3*
X799360Y1681025D3*
X866289D3*
D139*
X710235Y1837259D3*
Y1904188D3*
Y1781015D3*
Y1714086D3*
D141*
X1011810Y2185039D3*
X1078739D3*
D139*
X933070Y2137794D3*
Y2204724D3*
X774359Y2055986D3*
Y1989057D3*
D141*
X1661835Y1837246D3*
X1728764D3*
D139*
X1800294Y2059579D3*
Y1992650D3*
X1136860Y1980994D3*
Y1914065D3*
D137*
X3090550Y2362204D3*
X3326771D3*
D139*
X1193109Y1980994D3*
Y1914065D3*
D141*
X1661835Y1780997D3*
X1728764D3*
D139*
X1850294Y2059579D3*
Y1992650D3*
X1838582Y2385826D3*
Y2452755D3*
X1783464Y2385826D3*
Y2452755D3*
D141*
X1228346Y2480314D3*
X1161417D3*
X1228346Y2527558D3*
X1161417D3*
D139*
X1541582Y2652829D3*
Y2585899D3*
X1937007Y2700787D3*
Y2767716D3*
D141*
X1443109Y1899746D3*
X1376180D3*
D135*
X3165354Y1972440D3*
Y1696850D3*
D133*
X3566928Y2417322D3*
D131*
X4308661D3*
D129*
X1961859Y2018490D3*
D127*
Y1918490D3*
Y1818490D3*
D125*
X1611859Y2618427D3*
X1661859D3*
X1711859D3*
X1761859D3*
X1611859Y2823151D3*
X1661859D3*
X1711859D3*
X1761859D3*
D123*
X2881889Y2889743D3*
D121*
X3256889D3*
D123*
X3718523D3*
D121*
X4093523D3*
D123*
X4347932Y1342991D3*
D121*
Y967991D3*
D123*
X3764251Y730806D3*
D121*
X3389251D3*
D123*
X2921731D3*
D121*
X2546731D3*
D123*
X2083149D3*
D121*
X1708149D3*
D123*
X1244566D3*
D121*
X869566D3*
D119*
X1593109Y1731020D3*
X1656102D3*
D117*
X2224409Y2509842D3*
D115*
X2624409D3*
D117*
X2624015Y2657480D3*
D115*
X2224015D3*
D129*
X656751Y2415460D3*
D127*
X756751D3*
X856751D3*
X956751D3*
X1056751D3*
D113*
X3590550Y2090550D3*
Y1779527D3*
D152*
X1080609Y2068485D3*
Y2135414D3*
D155*
X1024360Y1968495D3*
Y2035424D3*
D141*
X2039074Y2907865D3*
X1972145D3*
D139*
X2043306Y2767716D3*
Y2700787D3*
X1443109Y2680920D3*
Y2613991D3*
X1380616Y2712165D3*
Y2645235D3*
X1499360Y2774661D3*
Y2707731D3*
D141*
X1102361Y2240157D3*
X1035432D3*
X1793108Y1818511D3*
X1860037D3*
X1793108Y1918501D3*
X1860037D3*
D139*
X696457Y2598524D3*
Y2665453D3*
D158*
X1599361Y2906528D3*
X1666291D3*
D129*
X1161860Y1631031D3*
D127*
X1061860D3*
D111*
X1543109D3*
D109*
Y1808196D3*
X1287204D3*
Y1631031D3*
D107*
X2043897Y2993138D3*
X2093109D3*
D105*
X2169881Y3079556D3*
X1967125D3*
D103*
X992444Y2610098D3*
Y2660098D3*
Y2710098D3*
Y2760098D3*
X787720Y2610098D3*
Y2660098D3*
Y2710098D3*
Y2760098D3*
D101*
X1336859Y1962246D3*
X1356544D3*
X1376229D3*
X1395914D3*
X1415599D3*
X1435284D3*
X1454969D3*
X1474654D3*
X1494339D3*
X1514024D3*
X1533709D3*
X1553394D3*
X1573079D3*
X1592764D3*
X1612449D3*
X1632134D3*
D99*
X1710875Y2040986D3*
Y2060671D3*
Y2080356D3*
Y2100041D3*
Y2119726D3*
Y2139411D3*
Y2159096D3*
Y2178781D3*
Y2198466D3*
Y2218151D3*
Y2237836D3*
Y2257522D3*
Y2277207D3*
Y2296892D3*
Y2316577D3*
Y2336262D3*
D101*
X1632134Y2415002D3*
X1612449D3*
X1592764D3*
X1573079D3*
X1553394D3*
X1533709D3*
X1514024D3*
X1494339D3*
X1474654D3*
X1454969D3*
X1435284D3*
X1415599D3*
X1395914D3*
X1376229D3*
X1356544D3*
X1336859D3*
D99*
X1258119Y2336262D3*
Y2316577D3*
Y2296892D3*
Y2277207D3*
Y2257522D3*
Y2237836D3*
Y2218151D3*
Y2198466D3*
Y2178781D3*
Y2159096D3*
Y2139411D3*
Y2119726D3*
Y2100041D3*
Y2080356D3*
Y2060671D3*
Y2040986D3*
D97*
X774352Y1824760D3*
Y1809012D3*
Y1793264D3*
Y1840508D3*
Y1777516D3*
Y1761768D3*
D95*
X801045Y1735075D3*
X816793D3*
X832541D3*
X848289D3*
X864037D3*
X879785D3*
D97*
X906478Y1761768D3*
Y1777516D3*
Y1793264D3*
Y1809012D3*
Y1824760D3*
Y1840508D3*
D95*
X801045Y1867201D3*
X816793D3*
X832541D3*
X848289D3*
X864037D3*
X879785D3*
D93*
X2165354Y2787401D3*
X2202755D3*
X2240157D3*
Y2885826D3*
X2165354D3*
D91*
X1374350Y2830880D3*
Y2783636D3*
X1445216D3*
Y2830880D3*
D89*
X830609Y2093482D3*
Y1995057D3*
Y2044270D3*
Y1945844D3*
X930609Y2093482D3*
Y2044270D3*
Y1995057D3*
Y1945844D3*
D87*
X621456Y2611023D3*
Y2660235D3*
Y2709448D3*
Y2758661D3*
Y2807873D3*
D85*
X535039Y2884645D3*
Y2534251D3*
D161*
X2687007Y1771658D3*
D164*
X2820865Y2188981D3*
X2753936D3*
X2687007D3*
X2620078D3*
X2553149D3*
D107*
X1611857Y2994707D3*
X1661070D3*
X1710283D3*
X1759495D3*
X1808708D3*
D105*
X1885480Y3081124D3*
X1535086D3*
D87*
X570865Y2220472D3*
Y2269684D3*
D85*
X484448Y2346456D3*
Y2143700D3*
D139*
X3085432Y1344264D3*
Y1411193D3*
X3144487Y1344264D3*
Y1411193D3*
X3006692Y1344264D3*
Y1411193D3*
D83*
X2933857Y1224776D3*
Y1299579D3*
X2843306Y1262178D3*
D141*
X2874802Y1158634D3*
X2941731D3*
D139*
X2817716Y1157256D3*
Y1224186D3*
D141*
X3000787Y1158595D3*
X3067716D3*
D139*
X2947637Y1344264D3*
Y1411193D3*
D81*
X3028346Y1289146D3*
Y1269461D3*
Y1249776D3*
Y1230091D3*
Y1210406D3*
X3142519Y1289146D3*
Y1269461D3*
Y1249776D3*
Y1230091D3*
Y1210406D3*
D79*
X3085432Y1249776D3*
D139*
X2660235Y1341692D3*
Y1408621D3*
X2719291Y1341692D3*
Y1408621D3*
X2581495Y1341692D3*
Y1408621D3*
D83*
X2508661Y1222204D3*
Y1297007D3*
X2418109Y1259606D3*
D141*
X2449606Y1156062D3*
X2516535D3*
D139*
X2392519Y1154684D3*
Y1221613D3*
D141*
X2575590Y1156023D3*
X2642519D3*
D139*
X2522440Y1341692D3*
Y1408621D3*
D81*
X2603149Y1286574D3*
Y1266889D3*
Y1247204D3*
Y1227519D3*
Y1207834D3*
X2717322Y1286574D3*
Y1266889D3*
Y1247204D3*
Y1227519D3*
Y1207834D3*
D79*
X2660235Y1247204D3*
D139*
X3506692Y1341676D3*
Y1408606D3*
X3565747Y1341676D3*
Y1408606D3*
X3427952Y1341676D3*
Y1408606D3*
D83*
X3355117Y1222199D3*
Y1297002D3*
X3264566Y1259600D3*
D141*
X3296062Y1156041D3*
X3362991D3*
D139*
X3238976Y1154669D3*
Y1221598D3*
D141*
X3422046Y1156041D3*
X3488976D3*
D139*
X3368897Y1341676D3*
Y1408606D3*
D81*
X3449606Y1286558D3*
Y1266873D3*
Y1247188D3*
Y1227503D3*
Y1207818D3*
X3563779Y1286558D3*
Y1266873D3*
Y1247188D3*
Y1227503D3*
Y1207818D3*
D79*
X3506692Y1247188D3*
D139*
X2235039Y1341692D3*
Y1408621D3*
X2294094Y1341692D3*
Y1408621D3*
X2156298Y1341692D3*
Y1408621D3*
D83*
X2083464Y1222204D3*
Y1297007D3*
X1992913Y1259606D3*
D141*
X2024409Y1156062D3*
X2091338D3*
D139*
X1967322Y1154684D3*
Y1221613D3*
D141*
X2150393Y1156023D3*
X2217322D3*
D139*
X2097243Y1341692D3*
Y1408621D3*
D81*
X2177952Y1286574D3*
Y1266889D3*
Y1247204D3*
Y1227519D3*
Y1207834D3*
X2292125Y1286574D3*
Y1266889D3*
Y1247204D3*
Y1227519D3*
Y1207834D3*
D79*
X2235039Y1247204D3*
D139*
X1813779Y1341692D3*
Y1408621D3*
X1872834Y1341692D3*
Y1408621D3*
X1735039Y1341692D3*
Y1408621D3*
D83*
X1662204Y1222204D3*
Y1297007D3*
X1571653Y1259606D3*
D141*
X1603149Y1156062D3*
X1670078D3*
D139*
X1546062Y1154684D3*
Y1221613D3*
D141*
X1729133Y1156023D3*
X1796062D3*
D139*
X1675983Y1341692D3*
Y1408621D3*
D81*
X1756692Y1286574D3*
Y1266889D3*
Y1247204D3*
Y1227519D3*
Y1207834D3*
X1870865Y1286574D3*
Y1266889D3*
Y1247204D3*
Y1227519D3*
Y1207834D3*
D79*
X1813779Y1247204D3*
D139*
X1486708Y1341692D3*
Y1408621D3*
X1419133Y1341692D3*
Y1408621D3*
X1337474Y1341692D3*
Y1408621D3*
D83*
X1258297Y1222204D3*
Y1297007D3*
X1167746Y1259606D3*
D141*
X1185472Y1156062D3*
X1252401D3*
D139*
X1130766D3*
Y1222991D3*
D141*
X1311913Y1156062D3*
X1378842D3*
D139*
X1274178Y1341692D3*
Y1408621D3*
D81*
X1374369Y1293543D3*
Y1273857D3*
Y1254172D3*
Y1234487D3*
Y1214802D3*
X1488543Y1293543D3*
Y1273857D3*
Y1254172D3*
Y1234487D3*
Y1214802D3*
D79*
X1431456Y1254172D3*
D139*
X988188Y1341692D3*
Y1408621D3*
X1047243Y1341692D3*
Y1408621D3*
X909448Y1341692D3*
Y1408621D3*
D83*
X833464Y1222204D3*
Y1297007D3*
X742913Y1259606D3*
D141*
X764714Y1156044D3*
X831644D3*
D139*
X707775D3*
Y1222973D3*
D141*
X891535Y1156044D3*
X958464D3*
D139*
X850393Y1341692D3*
Y1408621D3*
D81*
X933464Y1293529D3*
Y1273844D3*
Y1254159D3*
Y1234474D3*
Y1214789D3*
X1047637Y1293529D3*
Y1273844D3*
Y1254159D3*
Y1234474D3*
Y1214789D3*
D79*
X990550Y1254159D3*
D70*
X4456692Y3082676D3*
X519684D3*
X4468503Y618109D3*
X519684D3*
M02*
