%TF.GenerationSoftware,Novarm,DipTrace,3.3.0.1*%
%TF.CreationDate,2018-11-14T10:14:44-08:00*%
%FSLAX26Y26*%
%MOIN*%
%TF.FileFunction,Paste,Top*%
%TF.Part,Single*%
%AMOUTLINE2*
4,1,4,
0.015745,-0.017714,
-0.015745,-0.017714,
-0.015745,0.017714,
0.015745,0.017714,
0.015745,-0.017714,
0*%
%AMOUTLINE5*
4,1,4,
-0.015745,0.017714,
0.015745,0.017714,
0.015745,-0.017714,
-0.015745,-0.017714,
-0.015745,0.017714,
0*%
%AMOUTLINE8*
4,1,4,
-0.017714,-0.015745,
-0.017714,0.015745,
0.017714,0.015745,
0.017714,-0.015745,
-0.017714,-0.015745,
0*%
%AMOUTLINE11*
4,1,4,
0.20669,-0.165351,
-0.20669,-0.165351,
-0.20669,0.165351,
0.20669,0.165351,
0.20669,-0.165351,
0*%
%AMOUTLINE14*
4,1,4,
0.015745,-0.062989,
-0.015745,-0.062989,
-0.015745,0.062989,
0.015745,0.062989,
0.015745,-0.062989,
0*%
%ADD80R,0.059049X0.090545*%
%ADD82R,0.019679X0.001963*%
%ADD84R,0.033459X0.017711*%
%ADD86R,0.080703X0.047238*%
%ADD88R,0.043301X0.025585*%
%ADD90R,0.029522X0.013774*%
%ADD92R,0.027553X0.023616*%
%ADD94R,0.014561X0.044089*%
%ADD96R,0.001569X0.022671*%
%ADD98R,0.022671X0.001569*%
%ADD100R,0.049207X0.003931*%
%ADD102R,0.003931X0.049207*%
%ADD104R,0.078734X0.015742*%
%ADD106R,0.047238X0.080703*%
%ADD108R,0.025585X0.043301*%
%ADD120R,0.029522X0.03149*%
%ADD126R,0.015742X0.078734*%
%ADD136R,0.066923X0.157474*%
%ADD138R,0.114167X0.035427*%
%ADD140R,0.03149X0.035427*%
%ADD142R,0.035427X0.03149*%
%ADD153OUTLINE2*%
%ADD156OUTLINE5*%
%ADD159OUTLINE8*%
%ADD162OUTLINE11*%
%ADD165OUTLINE14*%
G75*
G01*
%LPD*%
D142*
X988188Y2527558D3*
X921259D3*
X1318123Y1899746D3*
X1251193D3*
X1811023Y2311023D3*
X1877952D3*
X799360Y1681025D3*
X866289D3*
D140*
X710235Y1837259D3*
Y1904188D3*
Y1781015D3*
Y1714086D3*
D142*
X1011810Y2185039D3*
X1078739D3*
D140*
X933070Y2137794D3*
Y2204724D3*
X774359Y2055986D3*
Y1989057D3*
D142*
X1661835Y1837246D3*
X1728764D3*
D140*
X1800294Y2059579D3*
Y1992650D3*
X1136860Y1980994D3*
Y1914065D3*
D138*
X3090550Y2362204D3*
X3326771D3*
D140*
X1193109Y1980994D3*
Y1914065D3*
D142*
X1661835Y1780997D3*
X1728764D3*
D140*
X1850294Y2059579D3*
Y1992650D3*
X1838582Y2385826D3*
Y2452755D3*
X1783464Y2385826D3*
Y2452755D3*
D142*
X1228346Y2480314D3*
X1161417D3*
X1228346Y2527558D3*
X1161417D3*
D140*
X1541582Y2652829D3*
Y2585899D3*
X1937007Y2700787D3*
Y2767716D3*
D142*
X1443109Y1899746D3*
X1376180D3*
D136*
X3165354Y1972440D3*
Y1696850D3*
D126*
X1611859Y2618427D3*
X1661859D3*
X1711859D3*
X1761859D3*
X1611859Y2823151D3*
X1661859D3*
X1711859D3*
X1761859D3*
D120*
X1593109Y1731020D3*
X1656102D3*
D153*
X1080609Y2068485D3*
Y2135414D3*
D156*
X1024360Y1968495D3*
Y2035424D3*
D142*
X2039074Y2907865D3*
X1972145D3*
D140*
X2043306Y2767716D3*
Y2700787D3*
X1443109Y2680920D3*
Y2613991D3*
X1380616Y2712165D3*
Y2645235D3*
X1499360Y2774661D3*
Y2707731D3*
D142*
X1102361Y2240157D3*
X1035432D3*
X1793108Y1818511D3*
X1860037D3*
X1793108Y1918501D3*
X1860037D3*
D140*
X696457Y2598524D3*
Y2665453D3*
D159*
X1599361Y2906528D3*
X1666291D3*
D108*
X2043897Y2993138D3*
X2093109D3*
D106*
X2169881Y3079556D3*
X1967125D3*
D104*
X992444Y2610098D3*
Y2660098D3*
Y2710098D3*
Y2760098D3*
X787720Y2610098D3*
Y2660098D3*
Y2710098D3*
Y2760098D3*
D102*
X1336859Y1962246D3*
X1356544D3*
X1376229D3*
X1395914D3*
X1415599D3*
X1435284D3*
X1454969D3*
X1474654D3*
X1494339D3*
X1514024D3*
X1533709D3*
X1553394D3*
X1573079D3*
X1592764D3*
X1612449D3*
X1632134D3*
D100*
X1710875Y2040986D3*
Y2060671D3*
Y2080356D3*
Y2100041D3*
Y2119726D3*
Y2139411D3*
Y2159096D3*
Y2178781D3*
Y2198466D3*
Y2218151D3*
Y2237836D3*
Y2257522D3*
Y2277207D3*
Y2296892D3*
Y2316577D3*
Y2336262D3*
D102*
X1632134Y2415002D3*
X1612449D3*
X1592764D3*
X1573079D3*
X1553394D3*
X1533709D3*
X1514024D3*
X1494339D3*
X1474654D3*
X1454969D3*
X1435284D3*
X1415599D3*
X1395914D3*
X1376229D3*
X1356544D3*
X1336859D3*
D100*
X1258119Y2336262D3*
Y2316577D3*
Y2296892D3*
Y2277207D3*
Y2257522D3*
Y2237836D3*
Y2218151D3*
Y2198466D3*
Y2178781D3*
Y2159096D3*
Y2139411D3*
Y2119726D3*
Y2100041D3*
Y2080356D3*
Y2060671D3*
Y2040986D3*
D98*
X774352Y1824760D3*
Y1809012D3*
Y1793264D3*
Y1840508D3*
Y1777516D3*
Y1761768D3*
D96*
X801045Y1735075D3*
X816793D3*
X832541D3*
X848289D3*
X864037D3*
X879785D3*
D98*
X906478Y1761768D3*
Y1777516D3*
Y1793264D3*
Y1809012D3*
Y1824760D3*
Y1840508D3*
D96*
X801045Y1867201D3*
X816793D3*
X832541D3*
X848289D3*
X864037D3*
X879785D3*
D94*
X2165354Y2787401D3*
X2202755D3*
X2240157D3*
Y2885826D3*
X2165354D3*
D92*
X1374350Y2830880D3*
Y2783636D3*
X1445216D3*
Y2830880D3*
D90*
X830609Y2093482D3*
Y1995057D3*
Y2044270D3*
Y1945844D3*
X930609Y2093482D3*
Y2044270D3*
Y1995057D3*
Y1945844D3*
D88*
X621456Y2611023D3*
Y2660235D3*
Y2709448D3*
Y2758661D3*
Y2807873D3*
D86*
X535039Y2884645D3*
Y2534251D3*
D162*
X2687007Y1771658D3*
D165*
X2820865Y2188981D3*
X2753936D3*
X2687007D3*
X2620078D3*
X2553149D3*
D108*
X1611857Y2994707D3*
X1661070D3*
X1710283D3*
X1759495D3*
X1808708D3*
D106*
X1885480Y3081124D3*
X1535086D3*
D88*
X570865Y2220472D3*
Y2269684D3*
D86*
X484448Y2346456D3*
Y2143700D3*
D140*
X3085432Y1344264D3*
Y1411193D3*
X3144487Y1344264D3*
Y1411193D3*
X3006692Y1344264D3*
Y1411193D3*
D84*
X2933857Y1224776D3*
Y1299579D3*
X2843306Y1262178D3*
D142*
X2874802Y1158634D3*
X2941731D3*
D140*
X2817716Y1157256D3*
Y1224186D3*
D142*
X3000787Y1158595D3*
X3067716D3*
D140*
X2947637Y1344264D3*
Y1411193D3*
D82*
X3028346Y1289146D3*
Y1269461D3*
Y1249776D3*
Y1230091D3*
Y1210406D3*
X3142519Y1289146D3*
Y1269461D3*
Y1249776D3*
Y1230091D3*
Y1210406D3*
D80*
X3085432Y1249776D3*
D140*
X2660235Y1341692D3*
Y1408621D3*
X2719291Y1341692D3*
Y1408621D3*
X2581495Y1341692D3*
Y1408621D3*
D84*
X2508661Y1222204D3*
Y1297007D3*
X2418109Y1259606D3*
D142*
X2449606Y1156062D3*
X2516535D3*
D140*
X2392519Y1154684D3*
Y1221613D3*
D142*
X2575590Y1156023D3*
X2642519D3*
D140*
X2522440Y1341692D3*
Y1408621D3*
D82*
X2603149Y1286574D3*
Y1266889D3*
Y1247204D3*
Y1227519D3*
Y1207834D3*
X2717322Y1286574D3*
Y1266889D3*
Y1247204D3*
Y1227519D3*
Y1207834D3*
D80*
X2660235Y1247204D3*
D140*
X3506692Y1341676D3*
Y1408606D3*
X3565747Y1341676D3*
Y1408606D3*
X3427952Y1341676D3*
Y1408606D3*
D84*
X3355117Y1222199D3*
Y1297002D3*
X3264566Y1259600D3*
D142*
X3296062Y1156041D3*
X3362991D3*
D140*
X3238976Y1154669D3*
Y1221598D3*
D142*
X3422046Y1156041D3*
X3488976D3*
D140*
X3368897Y1341676D3*
Y1408606D3*
D82*
X3449606Y1286558D3*
Y1266873D3*
Y1247188D3*
Y1227503D3*
Y1207818D3*
X3563779Y1286558D3*
Y1266873D3*
Y1247188D3*
Y1227503D3*
Y1207818D3*
D80*
X3506692Y1247188D3*
D140*
X2235039Y1341692D3*
Y1408621D3*
X2294094Y1341692D3*
Y1408621D3*
X2156298Y1341692D3*
Y1408621D3*
D84*
X2083464Y1222204D3*
Y1297007D3*
X1992913Y1259606D3*
D142*
X2024409Y1156062D3*
X2091338D3*
D140*
X1967322Y1154684D3*
Y1221613D3*
D142*
X2150393Y1156023D3*
X2217322D3*
D140*
X2097243Y1341692D3*
Y1408621D3*
D82*
X2177952Y1286574D3*
Y1266889D3*
Y1247204D3*
Y1227519D3*
Y1207834D3*
X2292125Y1286574D3*
Y1266889D3*
Y1247204D3*
Y1227519D3*
Y1207834D3*
D80*
X2235039Y1247204D3*
D140*
X1813779Y1341692D3*
Y1408621D3*
X1872834Y1341692D3*
Y1408621D3*
X1735039Y1341692D3*
Y1408621D3*
D84*
X1662204Y1222204D3*
Y1297007D3*
X1571653Y1259606D3*
D142*
X1603149Y1156062D3*
X1670078D3*
D140*
X1546062Y1154684D3*
Y1221613D3*
D142*
X1729133Y1156023D3*
X1796062D3*
D140*
X1675983Y1341692D3*
Y1408621D3*
D82*
X1756692Y1286574D3*
Y1266889D3*
Y1247204D3*
Y1227519D3*
Y1207834D3*
X1870865Y1286574D3*
Y1266889D3*
Y1247204D3*
Y1227519D3*
Y1207834D3*
D80*
X1813779Y1247204D3*
D140*
X1486708Y1341692D3*
Y1408621D3*
X1419133Y1341692D3*
Y1408621D3*
X1337474Y1341692D3*
Y1408621D3*
D84*
X1258297Y1222204D3*
Y1297007D3*
X1167746Y1259606D3*
D142*
X1185472Y1156062D3*
X1252401D3*
D140*
X1130766D3*
Y1222991D3*
D142*
X1311913Y1156062D3*
X1378842D3*
D140*
X1274178Y1341692D3*
Y1408621D3*
D82*
X1374369Y1293543D3*
Y1273857D3*
Y1254172D3*
Y1234487D3*
Y1214802D3*
X1488543Y1293543D3*
Y1273857D3*
Y1254172D3*
Y1234487D3*
Y1214802D3*
D80*
X1431456Y1254172D3*
D140*
X988188Y1341692D3*
Y1408621D3*
X1047243Y1341692D3*
Y1408621D3*
X909448Y1341692D3*
Y1408621D3*
D84*
X833464Y1222204D3*
Y1297007D3*
X742913Y1259606D3*
D142*
X764714Y1156044D3*
X831644D3*
D140*
X707775D3*
Y1222973D3*
D142*
X891535Y1156044D3*
X958464D3*
D140*
X850393Y1341692D3*
Y1408621D3*
D82*
X933464Y1293529D3*
Y1273844D3*
Y1254159D3*
Y1234474D3*
Y1214789D3*
X1047637Y1293529D3*
Y1273844D3*
Y1254159D3*
Y1234474D3*
Y1214789D3*
D80*
X990550Y1254159D3*
M02*
