%TF.GenerationSoftware,Novarm,DipTrace,3.3.0.1*%
%TF.CreationDate,2018-11-14T10:20:14-08:00*%
%FSLAX26Y26*%
%MOIN*%
%TF.FileFunction,Legend,Top*%
%TF.Part,Single*%
%ADD10C,0.009843*%
%ADD30C,0.023625*%
%ADD46C,0.007874*%
%ADD53C,0.015389*%
%ADD139C,0.00772*%
%ADD140C,0.003088*%
%ADD141C,0.009264*%
%ADD143C,0.012351*%
G75*
G01*
%LPD*%
X1650904Y3358500D2*
D10*
X1721753D1*
X1812251Y3268002D2*
Y3197154D1*
X1721753Y3106656D2*
X1650904D1*
X1560406Y3197154D2*
Y3268002D1*
X1712528Y2539901D2*
G02X1712528Y2539901I236229J0D01*
G01*
X2706545Y1551373D2*
X2371918D1*
Y1216728D1*
X2706545D1*
Y1551373D1*
X2229685Y962449D2*
G02X2229685Y962449I236229J0D01*
G01*
D30*
X3193832Y2442250D3*
X3290302Y2493431D2*
D10*
X3384776D1*
X3290302Y2391069D2*
X3384776D1*
X2087213Y1661886D2*
Y1283782D1*
X2307686Y1661886D2*
Y1283782D1*
X2087213Y1661886D2*
X2307686D1*
X2087213Y1311641D2*
Y1280374D1*
X2307686D1*
Y1311641D1*
Y1622695D2*
X2087213D1*
X3388543Y1430509D2*
X3268857D1*
Y1485631D1*
X3388543D1*
Y1430509D1*
X2124501Y3221632D2*
Y3190136D1*
X3312238Y1201583D2*
X3431923D1*
Y1146460D1*
X3312238D1*
Y1201583D1*
X647443Y1518556D2*
X547443D1*
Y1818556D1*
X647443D2*
X547443D1*
X647443Y1518556D2*
Y1818556D1*
X3489763Y3083410D2*
X3379527D1*
Y2803428D1*
X3489763D1*
Y3083410D1*
X4983040Y2057800D2*
X3847056D1*
Y2719508D1*
X4983040D1*
Y2057800D1*
Y2388522D2*
X3857052D1*
X4014613Y2719244D2*
Y2057800D1*
X4983129Y707692D2*
X3847145D1*
Y1369401D1*
X4983129D1*
Y707692D1*
Y1038414D2*
X3857142D1*
X4014703Y1369136D2*
Y707692D1*
X4983129Y2732480D2*
X3847145D1*
Y3394188D1*
X4983129D1*
Y2732480D1*
Y3063202D2*
X3857142D1*
X4014703Y3393924D2*
Y2732480D1*
X4983129Y1382621D2*
X3847145D1*
Y2044330D1*
X4983129D1*
Y1382621D1*
Y1713343D2*
X3857142D1*
X4014703Y2044065D2*
Y1382621D1*
X1509949Y587449D2*
Y687449D1*
X1309949Y587449D2*
X1509949D1*
X1309949D2*
Y687449D1*
X1509949D1*
X2434128Y1884249D2*
X2682159D1*
Y1636217D1*
X2434128D1*
Y1884249D1*
X2784162Y1164369D2*
X2685737D1*
Y1065944D1*
X2784162D1*
Y1164369D1*
X1417385Y844783D2*
G02X1417385Y844783I70862J0D01*
G01*
X1578802Y962900D2*
X1397692D1*
X1370122Y884180D2*
Y805410D1*
X1397692Y726665D2*
X1563048D1*
X1606372Y805410D2*
Y884180D1*
X1429201Y844795D2*
G02X1429201Y844795I59046J0D01*
G01*
X1381773Y1305386D2*
D46*
X1013645D1*
Y1673513D1*
X1381773D1*
Y1305386D1*
X1437850Y1312269D2*
D10*
G02X1437850Y1312269I4925J0D01*
G01*
X1494251Y2587481D2*
X864330D1*
Y3217339D1*
X1494251D1*
Y2587481D1*
X864330Y2469339D2*
X1494251D1*
Y3335481D1*
X864330D1*
Y2469339D1*
X1964965Y3617962D2*
X2191327D1*
Y3464420D1*
X1964965D1*
Y3617962D1*
D53*
X2580516Y498036D3*
X2526441Y503298D2*
D10*
Y621406D1*
X2494960Y503298D2*
Y621406D1*
X2526441D2*
X2494960D1*
X2526441Y503298D2*
X2494960D1*
X3558548Y3586716D2*
X3784910D1*
Y3433173D1*
X3558548D1*
Y3586716D1*
X3657438Y1017125D2*
X3499962D1*
Y820275D1*
X3657438D1*
Y1017125D1*
X973787Y826456D2*
X816290D1*
Y1023306D1*
X973787D1*
Y826456D1*
X504081Y761284D2*
X657623D1*
Y1135328D1*
X504081D1*
Y761284D1*
X2225060Y2757001D2*
X2645140D1*
Y2310937D1*
X2225060D1*
Y2757001D1*
X2816200Y1834949D2*
X3816200D1*
Y494949D1*
X2816200D1*
Y1834949D1*
X3732024Y1636822D2*
X3574547D1*
Y1439972D1*
X3732024D1*
Y1636822D1*
D53*
X1683135Y608114D3*
X1737210Y602851D2*
D10*
Y484743D1*
X1768691Y602851D2*
Y484743D1*
X1737210D2*
X1768691D1*
X1737210Y602851D2*
X1768691D1*
X986286Y1976335D2*
X828788D1*
Y2173186D1*
X986286D1*
Y1976335D1*
X516579Y1917413D2*
X670122D1*
Y2291457D1*
X516579D1*
Y1917413D1*
X1216200Y443700D2*
Y543700D1*
X716200Y443700D2*
X1216200D1*
X716200Y543700D2*
X1216200D1*
X716200Y443700D2*
Y543700D1*
X1681034Y3414350D2*
D139*
X1661856Y3464590D1*
X1642732Y3414350D1*
X1649917Y3431096D2*
X1673849D1*
X1698905Y3452596D2*
Y3454973D1*
X1701282Y3459781D1*
X1703658Y3462158D1*
X1708467Y3464534D1*
X1718029D1*
X1722782Y3462158D1*
X1725158Y3459781D1*
X1727590Y3454973D1*
Y3450220D1*
X1725158Y3445411D1*
X1720405Y3438281D1*
X1696473Y3414350D1*
X1729967D1*
X1132413Y3530597D2*
X1127659Y3528221D1*
X1122851Y3523412D1*
X1120474Y3518659D1*
Y3509097D1*
X1122851Y3504289D1*
X1127659Y3499536D1*
X1132413Y3497104D1*
X1139598Y3494727D1*
X1151591D1*
X1158721Y3497104D1*
X1163529Y3499536D1*
X1168282Y3504289D1*
X1170714Y3509097D1*
Y3518659D1*
X1168283Y3523412D1*
X1163529Y3528221D1*
X1158721Y3530597D1*
X1130091Y3546036D2*
X1127659Y3550845D1*
X1120530Y3558030D1*
X1170714D1*
X1047730Y3526884D2*
X1042977Y3524507D1*
X1038169Y3519699D1*
X1035792Y3514946D1*
Y3505384D1*
X1038168Y3500576D1*
X1042977Y3495823D1*
X1047730Y3493391D1*
X1054915Y3491014D1*
X1066909D1*
X1074038Y3493391D1*
X1078847Y3495823D1*
X1083600Y3500576D1*
X1086032Y3505384D1*
Y3514946D1*
X1083600Y3519699D1*
X1078847Y3524507D1*
X1074038Y3526884D1*
X1047785Y3544755D2*
X1045409D1*
X1040600Y3547132D1*
X1038224Y3549508D1*
X1035847Y3554317D1*
Y3563878D1*
X1038224Y3568631D1*
X1040600Y3571008D1*
X1045409Y3573440D1*
X1050162D1*
X1054970Y3571008D1*
X1062100Y3566255D1*
X1086032Y3542323D1*
Y3575816D1*
X1018073Y1968236D2*
X1015696Y1972989D1*
X1010888Y1977797D1*
X1006135Y1980174D1*
X996573D1*
X991765Y1977797D1*
X987011Y1972989D1*
X984580Y1968236D1*
X982203Y1961050D1*
Y1949057D1*
X984580Y1941927D1*
X987011Y1937119D1*
X991765Y1932366D1*
X996573Y1929934D1*
X1006135D1*
X1010888Y1932366D1*
X1015696Y1937119D1*
X1018073Y1941927D1*
X1038321Y1980118D2*
X1064574D1*
X1050259Y1960995D1*
X1057444D1*
X1062197Y1958619D1*
X1064574Y1956242D1*
X1067005Y1949057D1*
Y1944304D1*
X1064574Y1937119D1*
X1059820Y1932310D1*
X1052635Y1929934D1*
X1045450D1*
X1038321Y1932310D1*
X1035944Y1934742D1*
X1033512Y1939495D1*
X880138Y1239185D2*
X875385Y1236809D1*
X870577Y1232000D1*
X868200Y1227247D1*
Y1217685D1*
X870577Y1212877D1*
X875385Y1208124D1*
X880138Y1205692D1*
X887323Y1203315D1*
X899317D1*
X906447Y1205692D1*
X911255Y1208124D1*
X916008Y1212877D1*
X918440Y1217685D1*
Y1227247D1*
X916008Y1232000D1*
X911255Y1236809D1*
X906447Y1239185D1*
X918440Y1278556D2*
X868255D1*
X901693Y1254624D1*
Y1290494D1*
X1372635Y1141081D2*
X1370258Y1145834D1*
X1365450Y1150642D1*
X1360696Y1153019D1*
X1351135D1*
X1346326Y1150642D1*
X1341573Y1145834D1*
X1339141Y1141081D1*
X1336765Y1133896D1*
Y1121902D1*
X1339141Y1114772D1*
X1341573Y1109964D1*
X1346326Y1105211D1*
X1351135Y1102779D1*
X1360696D1*
X1365450Y1105211D1*
X1370258Y1109964D1*
X1372635Y1114772D1*
X1416759Y1152964D2*
X1392882D1*
X1390506Y1131464D1*
X1392882Y1133840D1*
X1400067Y1136272D1*
X1407197D1*
X1414382Y1133840D1*
X1419191Y1129087D1*
X1421567Y1121902D1*
Y1117149D1*
X1419191Y1109964D1*
X1414382Y1105155D1*
X1407197Y1102779D1*
X1400067D1*
X1392882Y1105155D1*
X1390506Y1107587D1*
X1388074Y1112341D1*
X1410129Y1286053D2*
X1405376Y1283676D1*
X1400567Y1278868D1*
X1398191Y1274114D1*
Y1264553D1*
X1400567Y1259744D1*
X1405376Y1254991D1*
X1410129Y1252559D1*
X1417314Y1250183D1*
X1429308D1*
X1436437Y1252559D1*
X1441246Y1254991D1*
X1445999Y1259744D1*
X1448431Y1264553D1*
Y1274114D1*
X1445999Y1278868D1*
X1441246Y1283676D1*
X1436437Y1286053D1*
X1405376Y1330177D2*
X1400623Y1327800D1*
X1398246Y1320615D1*
Y1315862D1*
X1400623Y1308677D1*
X1407808Y1303868D1*
X1419746Y1301492D1*
X1431684D1*
X1441246Y1303868D1*
X1446054Y1308677D1*
X1448431Y1315862D1*
Y1318239D1*
X1446054Y1325368D1*
X1441246Y1330177D1*
X1434061Y1332553D1*
X1431684D1*
X1424499Y1330177D1*
X1419746Y1325368D1*
X1417369Y1318239D1*
Y1315862D1*
X1419746Y1308677D1*
X1424499Y1303868D1*
X1431684Y1301492D1*
X1464554Y1869050D2*
X1462178Y1873804D1*
X1457369Y1878612D1*
X1452616Y1880989D1*
X1443055D1*
X1438246Y1878612D1*
X1433493Y1873804D1*
X1431061Y1869050D1*
X1428685Y1861865D1*
Y1849872D1*
X1431061Y1842742D1*
X1433493Y1837934D1*
X1438246Y1833181D1*
X1443055Y1830749D1*
X1452616D1*
X1457369Y1833181D1*
X1462178Y1837934D1*
X1464554Y1842742D1*
X1489555Y1830749D2*
X1513487Y1880933D1*
X1479994D1*
X1507481Y1524670D2*
X1505104Y1529423D1*
X1500296Y1534232D1*
X1495543Y1536608D1*
X1485981D1*
X1481173Y1534232D1*
X1476420Y1529423D1*
X1473988Y1524670D1*
X1471611Y1517485D1*
Y1505491D1*
X1473988Y1498362D1*
X1476420Y1493553D1*
X1481173Y1488800D1*
X1485981Y1486368D1*
X1495543D1*
X1500296Y1488800D1*
X1505104Y1493553D1*
X1507481Y1498362D1*
X1534859Y1536553D2*
X1527729Y1534176D1*
X1525297Y1529423D1*
Y1524615D1*
X1527729Y1519861D1*
X1532482Y1517430D1*
X1542044Y1515053D1*
X1549229Y1512676D1*
X1553982Y1507868D1*
X1556358Y1503115D1*
Y1495930D1*
X1553982Y1491177D1*
X1551605Y1488745D1*
X1544420Y1486368D1*
X1534859D1*
X1527729Y1488745D1*
X1525297Y1491177D1*
X1522920Y1495930D1*
Y1503115D1*
X1525297Y1507868D1*
X1530105Y1512676D1*
X1537235Y1515053D1*
X1546797Y1517430D1*
X1551605Y1519861D1*
X1553982Y1524615D1*
Y1529423D1*
X1551605Y1534176D1*
X1544420Y1536553D1*
X1534859D1*
X1546142Y1699670D2*
X1543765Y1704423D1*
X1538957Y1709232D1*
X1534204Y1711608D1*
X1524642D1*
X1519833Y1709232D1*
X1515080Y1704423D1*
X1512648Y1699670D1*
X1510272Y1692485D1*
Y1680491D1*
X1512648Y1673362D1*
X1515080Y1668553D1*
X1519833Y1663800D1*
X1524642Y1661368D1*
X1534204D1*
X1538957Y1663800D1*
X1543765Y1668553D1*
X1546142Y1673362D1*
X1592698Y1694861D2*
X1590266Y1687676D1*
X1585513Y1682868D1*
X1578328Y1680491D1*
X1575951D1*
X1568766Y1682868D1*
X1564013Y1687676D1*
X1561581Y1694861D1*
Y1697238D1*
X1564013Y1704423D1*
X1568766Y1709176D1*
X1575951Y1711553D1*
X1578328D1*
X1585513Y1709176D1*
X1590266Y1704423D1*
X1592698Y1694861D1*
Y1682868D1*
X1590266Y1670930D1*
X1585513Y1663745D1*
X1578328Y1661368D1*
X1573574D1*
X1566389Y1663745D1*
X1564013Y1668553D1*
X1469864Y1805085D2*
X1467488Y1809838D1*
X1462679Y1814646D1*
X1457926Y1817023D1*
X1448365D1*
X1443556Y1814646D1*
X1438803Y1809838D1*
X1436371Y1805085D1*
X1433994Y1797900D1*
Y1785906D1*
X1436371Y1778776D1*
X1438803Y1773968D1*
X1443556Y1769215D1*
X1448365Y1766783D1*
X1457926D1*
X1462679Y1769215D1*
X1467488Y1773968D1*
X1469864Y1778776D1*
X1485304Y1807406D2*
X1490112Y1809838D1*
X1497297Y1816968D1*
Y1766783D1*
X1527106Y1816968D2*
X1519921Y1814591D1*
X1515113Y1807406D1*
X1512736Y1795468D1*
Y1788283D1*
X1515113Y1776344D1*
X1519921Y1769159D1*
X1527106Y1766783D1*
X1531860D1*
X1539045Y1769159D1*
X1543798Y1776344D1*
X1546230Y1788283D1*
Y1795468D1*
X1543798Y1807406D1*
X1539045Y1814591D1*
X1531860Y1816968D1*
X1527106D1*
X1543798Y1807406D2*
X1515113Y1776344D1*
X971501Y1785060D2*
X969125Y1789813D1*
X964316Y1794621D1*
X959563Y1796998D1*
X950002D1*
X945193Y1794621D1*
X940440Y1789813D1*
X938008Y1785060D1*
X935632Y1777875D1*
Y1765881D1*
X938008Y1758751D1*
X940440Y1753943D1*
X945193Y1749190D1*
X950002Y1746758D1*
X959563D1*
X964316Y1749190D1*
X969125Y1753943D1*
X971501Y1758751D1*
X986941Y1787381D2*
X991749Y1789813D1*
X998934Y1796943D1*
Y1746758D1*
X1014373Y1787381D2*
X1019182Y1789813D1*
X1026367Y1796943D1*
Y1746758D1*
X810474Y1213874D2*
X805721Y1211497D1*
X800913Y1206689D1*
X798536Y1201935D1*
Y1192374D1*
X800913Y1187565D1*
X805721Y1182812D1*
X810474Y1180380D1*
X817659Y1178004D1*
X829653D1*
X836783Y1180380D1*
X841591Y1182812D1*
X846344Y1187565D1*
X848776Y1192374D1*
Y1201935D1*
X846344Y1206689D1*
X841591Y1211497D1*
X836783Y1213874D1*
X808153Y1229313D2*
X805721Y1234121D1*
X798591Y1241306D1*
X848776D1*
X810530Y1259177D2*
X808153D1*
X803344Y1261554D1*
X800968Y1263931D1*
X798591Y1268739D1*
Y1278301D1*
X800968Y1283054D1*
X803344Y1285430D1*
X808153Y1287862D1*
X812906D1*
X817715Y1285430D1*
X824844Y1280677D1*
X848776Y1256746D1*
Y1290239D1*
X1128923Y796169D2*
X1124170Y793792D1*
X1119361Y788984D1*
X1116985Y784231D1*
Y774669D1*
X1119361Y769861D1*
X1124170Y765107D1*
X1128923Y762676D1*
X1136108Y760299D1*
X1148102D1*
X1155231Y762676D1*
X1160040Y765107D1*
X1164793Y769861D1*
X1167225Y774669D1*
Y784231D1*
X1164793Y788984D1*
X1160040Y793792D1*
X1155231Y796169D1*
X1126602Y811608D2*
X1124170Y816417D1*
X1117040Y823602D1*
X1167225D1*
X1117040Y843849D2*
Y870102D1*
X1136163Y855788D1*
Y862973D1*
X1138540Y867726D1*
X1140917Y870102D1*
X1148102Y872534D1*
X1152855D1*
X1160040Y870102D1*
X1164848Y865349D1*
X1167225Y858164D1*
Y850979D1*
X1164848Y843849D1*
X1162416Y841473D1*
X1157663Y839041D1*
X1745477Y866562D2*
X1740724Y864185D1*
X1735915Y859377D1*
X1733539Y854624D1*
Y845062D1*
X1735915Y840254D1*
X1740724Y835501D1*
X1745477Y833069D1*
X1752662Y830692D1*
X1764655D1*
X1771785Y833069D1*
X1776594Y835501D1*
X1781347Y840254D1*
X1783779Y845062D1*
Y854624D1*
X1781347Y859377D1*
X1776594Y864185D1*
X1771785Y866562D1*
X1743156Y882001D2*
X1740724Y886810D1*
X1733594Y893995D1*
X1783779D1*
Y933366D2*
X1733594D1*
X1767032Y909434D1*
Y945304D1*
X1216466Y1794417D2*
X1211713Y1792040D1*
X1206905Y1787232D1*
X1204528Y1782479D1*
Y1772917D1*
X1206905Y1768109D1*
X1211713Y1763356D1*
X1216466Y1760924D1*
X1223651Y1758547D1*
X1235645D1*
X1242775Y1760924D1*
X1247583Y1763356D1*
X1252336Y1768109D1*
X1254768Y1772917D1*
Y1782479D1*
X1252336Y1787232D1*
X1247583Y1792040D1*
X1242775Y1794417D1*
X1214145Y1809856D2*
X1211713Y1814665D1*
X1204583Y1821850D1*
X1254768D1*
X1204583Y1865974D2*
Y1842097D1*
X1226083Y1839721D1*
X1223707Y1842097D1*
X1221275Y1849282D1*
Y1856412D1*
X1223707Y1863597D1*
X1228460Y1868406D1*
X1235645Y1870782D1*
X1240398D1*
X1247583Y1868406D1*
X1252392Y1863597D1*
X1254768Y1856412D1*
Y1849282D1*
X1252392Y1842097D1*
X1249960Y1839721D1*
X1245207Y1837289D1*
X1879095Y2837406D2*
X1876718Y2842159D1*
X1871910Y2846968D1*
X1867157Y2849344D1*
X1857595D1*
X1852786Y2846968D1*
X1848033Y2842159D1*
X1845601Y2837406D1*
X1843225Y2830221D1*
Y2818228D1*
X1845601Y2811098D1*
X1848033Y2806289D1*
X1852786Y2801536D1*
X1857595Y2799104D1*
X1867157D1*
X1871910Y2801536D1*
X1876718Y2806289D1*
X1879095Y2811098D1*
X1894534Y2839727D2*
X1899342Y2842159D1*
X1906527Y2849289D1*
Y2799104D1*
X1950652Y2842159D2*
X1948275Y2846912D1*
X1941090Y2849289D1*
X1936337D1*
X1929152Y2846912D1*
X1924343Y2839727D1*
X1921967Y2827789D1*
Y2815851D1*
X1924343Y2806289D1*
X1929152Y2801481D1*
X1936337Y2799104D1*
X1938713D1*
X1945843Y2801481D1*
X1950652Y2806289D1*
X1953028Y2813474D1*
Y2815851D1*
X1950652Y2823036D1*
X1945843Y2827789D1*
X1938713Y2830166D1*
X1936337D1*
X1929152Y2827789D1*
X1924343Y2823036D1*
X1921967Y2815851D1*
X2579402Y1612658D2*
X2577026Y1617411D1*
X2572217Y1622220D1*
X2567464Y1624596D1*
X2557903D1*
X2553094Y1622220D1*
X2548341Y1617411D1*
X2545909Y1612658D1*
X2543533Y1605473D1*
Y1593480D1*
X2545909Y1586350D1*
X2548341Y1581541D1*
X2553094Y1576788D1*
X2557903Y1574356D1*
X2567464D1*
X2572217Y1576788D1*
X2577026Y1581541D1*
X2579402Y1586350D1*
X2594842Y1614979D2*
X2599650Y1617411D1*
X2606835Y1624541D1*
Y1574356D1*
X2631836D2*
X2655768Y1624541D1*
X2622274D1*
X3610230Y740015D2*
X3605477Y737639D1*
X3600669Y732830D1*
X3598292Y728077D1*
Y718516D1*
X3600668Y713707D1*
X3605477Y708954D1*
X3610230Y706522D1*
X3617415Y704146D1*
X3629409D1*
X3636538Y706522D1*
X3641347Y708954D1*
X3646100Y713707D1*
X3648532Y718516D1*
Y728077D1*
X3646100Y732830D1*
X3641347Y737639D1*
X3636538Y740015D1*
X3607909Y755455D2*
X3605477Y760263D1*
X3598347Y767448D1*
X3648532D1*
X3598347Y794826D2*
X3600724Y787696D1*
X3605477Y785264D1*
X3610285D1*
X3615039Y787696D1*
X3617470Y792449D1*
X3619847Y802011D1*
X3622224Y809196D1*
X3627032Y813949D1*
X3631785Y816325D1*
X3638970D1*
X3643723Y813949D1*
X3646155Y811572D1*
X3648532Y804387D1*
Y794826D1*
X3646155Y787696D1*
X3643723Y785264D1*
X3638970Y782887D1*
X3631785D1*
X3627032Y785264D1*
X3622224Y790072D1*
X3619847Y797202D1*
X3617470Y806764D1*
X3615039Y811572D1*
X3610285Y813949D1*
X3605477D1*
X3600724Y811572D1*
X3598347Y804387D1*
Y794826D1*
X3816480Y1309925D2*
X3811726Y1307549D1*
X3806918Y1302740D1*
X3804541Y1297987D1*
Y1288426D1*
X3806918Y1283617D1*
X3811726Y1278864D1*
X3816479Y1276432D1*
X3823664Y1274056D1*
X3835658D1*
X3842788Y1276432D1*
X3847596Y1278864D1*
X3852349Y1283617D1*
X3854781Y1288426D1*
Y1297987D1*
X3852349Y1302740D1*
X3847596Y1307549D1*
X3842788Y1309925D1*
X3814158Y1325365D2*
X3811726Y1330173D1*
X3804597Y1337358D1*
X3854781D1*
X3821288Y1383914D2*
X3828473Y1381482D1*
X3833281Y1376729D1*
X3835658Y1369544D1*
Y1367167D1*
X3833281Y1359982D1*
X3828473Y1355229D1*
X3821288Y1352797D1*
X3818911D1*
X3811726Y1355229D1*
X3806973Y1359982D1*
X3804597Y1367167D1*
Y1369544D1*
X3806973Y1376729D1*
X3811726Y1381482D1*
X3821288Y1383914D1*
X3833281D1*
X3845220Y1381482D1*
X3852405Y1376729D1*
X3854781Y1369544D1*
Y1364791D1*
X3852405Y1357606D1*
X3847596Y1355229D1*
X2385548Y1253704D2*
X2383171Y1258457D1*
X2378362Y1263266D1*
X2373609Y1265642D1*
X2364048D1*
X2359239Y1263266D1*
X2354486Y1258457D1*
X2352054Y1253704D1*
X2349678Y1246519D1*
Y1234525D1*
X2352054Y1227396D1*
X2354486Y1222587D1*
X2359239Y1217834D1*
X2364048Y1215402D1*
X2373609D1*
X2378362Y1217834D1*
X2383171Y1222587D1*
X2385548Y1227396D1*
X2403419Y1253649D2*
Y1256025D1*
X2405795Y1260834D1*
X2408172Y1263210D1*
X2412980Y1265587D1*
X2422542D1*
X2427295Y1263210D1*
X2429672Y1260834D1*
X2432104Y1256025D1*
Y1251272D1*
X2429672Y1246464D1*
X2424918Y1239334D1*
X2400987Y1215402D1*
X2434480D1*
X2464289Y1265587D2*
X2457104Y1263210D1*
X2452296Y1256025D1*
X2449919Y1244087D1*
Y1236902D1*
X2452296Y1224964D1*
X2457104Y1217779D1*
X2464289Y1215402D1*
X2469043D1*
X2476228Y1217779D1*
X2480981Y1224964D1*
X2483413Y1236902D1*
Y1244087D1*
X2480981Y1256025D1*
X2476228Y1263210D1*
X2469043Y1265587D1*
X2464289D1*
X2480981Y1256025D2*
X2452296Y1224964D1*
X3505868Y1150611D2*
X3503492Y1155364D1*
X3498683Y1160172D1*
X3493930Y1162549D1*
X3484368D1*
X3479560Y1160172D1*
X3474807Y1155364D1*
X3472375Y1150611D1*
X3469998Y1143426D1*
Y1131432D1*
X3472375Y1124303D1*
X3474807Y1119494D1*
X3479560Y1114741D1*
X3484368Y1112309D1*
X3493930D1*
X3498683Y1114741D1*
X3503492Y1119494D1*
X3505868Y1124303D1*
X3523739Y1150556D2*
Y1152932D1*
X3526116Y1157741D1*
X3528493Y1160117D1*
X3533301Y1162494D1*
X3542863D1*
X3547616Y1160117D1*
X3549992Y1157741D1*
X3552424Y1152932D1*
Y1148179D1*
X3549992Y1143371D1*
X3545239Y1136241D1*
X3521308Y1112309D1*
X3554801D1*
X3570240Y1152932D2*
X3575049Y1155364D1*
X3582234Y1162494D1*
Y1112309D1*
X3533898Y1408141D2*
X3531521Y1412894D1*
X3526713Y1417703D1*
X3521960Y1420079D1*
X3512398D1*
X3507590Y1417703D1*
X3502836Y1412894D1*
X3500405Y1408141D1*
X3498028Y1400956D1*
Y1388962D1*
X3500405Y1381833D1*
X3502836Y1377024D1*
X3507590Y1372271D1*
X3512398Y1369839D1*
X3521960D1*
X3526713Y1372271D1*
X3531521Y1377024D1*
X3533898Y1381833D1*
X3551769Y1408086D2*
Y1410462D1*
X3554146Y1415271D1*
X3556522Y1417647D1*
X3561331Y1420024D1*
X3570892D1*
X3575645Y1417647D1*
X3578022Y1415271D1*
X3580454Y1410462D1*
Y1405709D1*
X3578022Y1400901D1*
X3573269Y1393771D1*
X3549337Y1369839D1*
X3582831D1*
X3600702Y1408086D2*
Y1410462D1*
X3603078Y1415271D1*
X3605455Y1417647D1*
X3610263Y1420024D1*
X3619825D1*
X3624578Y1417647D1*
X3626955Y1415271D1*
X3629386Y1410462D1*
Y1405709D1*
X3626955Y1400901D1*
X3622201Y1393771D1*
X3598270Y1369839D1*
X3631763D1*
X835189Y1829059D2*
X830436Y1826683D1*
X825628Y1821874D1*
X823251Y1817121D1*
Y1807560D1*
X825628Y1802751D1*
X830436Y1797998D1*
X835189Y1795566D1*
X842374Y1793190D1*
X854368D1*
X861498Y1795566D1*
X866306Y1797998D1*
X871059Y1802751D1*
X873491Y1807560D1*
Y1817121D1*
X871059Y1821874D1*
X866306Y1826683D1*
X861498Y1829059D1*
X835245Y1846931D2*
X832868D1*
X828060Y1849307D1*
X825683Y1851684D1*
X823307Y1856492D1*
Y1866054D1*
X825683Y1870807D1*
X828060Y1873184D1*
X832868Y1875615D1*
X837621D1*
X842430Y1873184D1*
X849560Y1868430D1*
X873491Y1844499D1*
Y1877992D1*
X823307Y1898240D2*
Y1924493D1*
X842430Y1910178D1*
Y1917363D1*
X844806Y1922116D1*
X847183Y1924493D1*
X854368Y1926925D1*
X859121D1*
X866306Y1924493D1*
X871115Y1919739D1*
X873491Y1912554D1*
Y1905369D1*
X871115Y1898240D1*
X868683Y1895863D1*
X863930Y1893431D1*
X3286404Y2566654D2*
Y2516414D1*
X3303150D1*
X3310335Y2518846D1*
X3315144Y2523599D1*
X3317520Y2528408D1*
X3319897Y2535537D1*
Y2547531D1*
X3317520Y2554716D1*
X3315144Y2559469D1*
X3310335Y2564277D1*
X3303150Y2566654D1*
X3286404D1*
X3335336Y2557037D2*
X3340145Y2559469D1*
X3347330Y2566599D1*
Y2516414D1*
X2156236Y1972041D2*
Y1921801D1*
X2172983D1*
X2180168Y1924233D1*
X2184977Y1928986D1*
X2187353Y1933795D1*
X2189730Y1940924D1*
Y1952918D1*
X2187353Y1960103D1*
X2184977Y1964856D1*
X2180168Y1969665D1*
X2172983Y1972041D1*
X2156236D1*
X2207601Y1960048D2*
Y1962424D1*
X2209977Y1967233D1*
X2212354Y1969609D1*
X2217162Y1971986D1*
X2226724D1*
X2231477Y1969609D1*
X2233854Y1967233D1*
X2236286Y1962424D1*
Y1957671D1*
X2233854Y1952863D1*
X2229101Y1945733D1*
X2205169Y1921801D1*
X2238662D1*
X3287487Y1588380D2*
Y1538140D1*
X3304234D1*
X3311419Y1540572D1*
X3316227Y1545325D1*
X3318604Y1550133D1*
X3320980Y1557263D1*
Y1569257D1*
X3318604Y1576442D1*
X3316227Y1581195D1*
X3311419Y1586003D1*
X3304234Y1588380D1*
X3287487D1*
X3341228Y1588324D2*
X3367481D1*
X3353166Y1569201D1*
X3360351D1*
X3365105Y1566825D1*
X3367481Y1564448D1*
X3369913Y1557263D1*
Y1552510D1*
X3367481Y1545325D1*
X3362728Y1540516D1*
X3355543Y1538140D1*
X3348358D1*
X3341228Y1540516D1*
X3338851Y1542948D1*
X3336420Y1547701D1*
X2014826Y3173805D2*
Y3123565D1*
X2031573D1*
X2038758Y3125997D1*
X2043566Y3130750D1*
X2045943Y3135558D1*
X2048320Y3142688D1*
Y3154682D1*
X2045943Y3161867D1*
X2043566Y3166620D1*
X2038758Y3171428D1*
X2031573Y3173805D1*
X2014826D1*
X2087691Y3123565D2*
Y3173750D1*
X2063759Y3140312D1*
X2099629D1*
X3330868Y1304331D2*
Y1254091D1*
X3347614D1*
X3354799Y1256523D1*
X3359608Y1261276D1*
X3361984Y1266085D1*
X3364361Y1273214D1*
Y1285208D1*
X3361984Y1292393D1*
X3359608Y1297146D1*
X3354799Y1301955D1*
X3347614Y1304331D1*
X3330868D1*
X3408485Y1304276D2*
X3384609D1*
X3382232Y1282776D1*
X3384609Y1285153D1*
X3391794Y1287585D1*
X3398923D1*
X3406108Y1285153D1*
X3410917Y1280400D1*
X3413294Y1273214D1*
Y1268461D1*
X3410917Y1261276D1*
X3406108Y1256468D1*
X3398923Y1254091D1*
X3391794D1*
X3384609Y1256468D1*
X3382232Y1258900D1*
X3379800Y1263653D1*
X456268Y1498028D2*
Y1447788D1*
X473015D1*
X480200Y1450220D1*
X485008Y1454973D1*
X487385Y1459782D1*
X489762Y1466911D1*
Y1478905D1*
X487385Y1486090D1*
X485008Y1490843D1*
X480200Y1495651D1*
X473015Y1498028D1*
X456268D1*
X505201Y1466911D2*
X533886D1*
Y1471720D1*
X531509Y1476528D1*
X529133Y1478905D1*
X524324Y1481281D1*
X517139D1*
X512386Y1478905D1*
X507577Y1474096D1*
X505201Y1466911D1*
Y1462158D1*
X507577Y1454973D1*
X512386Y1450220D1*
X517139Y1447788D1*
X524324D1*
X529133Y1450220D1*
X533886Y1454973D1*
X549325Y1498028D2*
Y1447788D1*
Y1474096D2*
X554133Y1478905D1*
X558887Y1481281D1*
X566072D1*
X570825Y1478905D1*
X575633Y1474096D1*
X578010Y1466911D1*
Y1462158D1*
X575633Y1454973D1*
X570825Y1450220D1*
X566072Y1447788D1*
X558887D1*
X554133Y1450220D1*
X549325Y1454973D1*
X593449Y1481281D2*
Y1457350D1*
X595826Y1450220D1*
X600634Y1447788D1*
X607819D1*
X612572Y1450220D1*
X619757Y1457350D1*
Y1481281D2*
Y1447788D1*
X663882Y1478905D2*
Y1440603D1*
X661505Y1433473D1*
X659128Y1431041D1*
X654320Y1428665D1*
X647135D1*
X642382Y1431041D1*
X663882Y1471720D2*
X659128Y1476473D1*
X654320Y1478905D1*
X647135D1*
X642382Y1476473D1*
X637573Y1471720D1*
X635197Y1464535D1*
Y1459726D1*
X637573Y1452597D1*
X642382Y1447788D1*
X647135Y1445411D1*
X654320D1*
X659128Y1447788D1*
X663882Y1452597D1*
X679321Y1498028D2*
Y1462158D1*
X681697Y1454973D1*
X686506Y1450220D1*
X693691Y1447788D1*
X698444D1*
X705629Y1450220D1*
X710438Y1454973D1*
X712814Y1462158D1*
Y1498028D1*
X756938Y1481281D2*
Y1447788D1*
Y1474096D2*
X752185Y1478905D1*
X747377Y1481281D1*
X740247D1*
X735438Y1478905D1*
X730685Y1474096D1*
X728253Y1466911D1*
Y1462158D1*
X730685Y1454973D1*
X735438Y1450220D1*
X740247Y1447788D1*
X747377D1*
X752185Y1450220D1*
X756938Y1454973D1*
X772378Y1481281D2*
Y1447788D1*
Y1466911D2*
X774809Y1474096D1*
X779563Y1478905D1*
X784371Y1481281D1*
X791556D1*
X814180Y1498028D2*
Y1457350D1*
X816557Y1450220D1*
X821365Y1447788D1*
X826119D1*
X806995Y1481281D2*
X823742D1*
X3436487Y3440343D2*
X3405370D1*
Y3390103D1*
Y3416411D2*
X3424493D1*
X3451926Y3430726D2*
X3456735Y3433158D1*
X3463920Y3440288D1*
Y3390103D1*
X4413297Y2792731D2*
Y2754485D1*
X4410921Y2747300D1*
X4408489Y2744923D1*
X4403736Y2742491D1*
X4398927D1*
X4394174Y2744923D1*
X4391797Y2747300D1*
X4389366Y2754485D1*
Y2759238D1*
X4428737Y2783115D2*
X4433545Y2785546D1*
X4440730Y2792676D1*
Y2742491D1*
X4402637Y1442624D2*
Y1404377D1*
X4400260Y1397192D1*
X4397828Y1394816D1*
X4393075Y1392384D1*
X4388266D1*
X4383513Y1394816D1*
X4381137Y1397192D1*
X4378705Y1404377D1*
Y1409131D1*
X4420508Y1430630D2*
Y1433007D1*
X4422884Y1437815D1*
X4425261Y1440192D1*
X4430069Y1442569D1*
X4439631D1*
X4444384Y1440192D1*
X4446761Y1437815D1*
X4449193Y1433007D1*
Y1428254D1*
X4446761Y1423445D1*
X4442008Y1416316D1*
X4418076Y1392384D1*
X4451569D1*
X4402637Y3467411D2*
Y3429165D1*
X4400260Y3421980D1*
X4397828Y3419603D1*
X4393075Y3417171D1*
X4388266D1*
X4383513Y3419603D1*
X4381137Y3421980D1*
X4378705Y3429165D1*
Y3433918D1*
X4422884Y3467356D2*
X4449137D1*
X4434822Y3448233D1*
X4442008D1*
X4446761Y3445856D1*
X4449137Y3443480D1*
X4451569Y3436295D1*
Y3431541D1*
X4449137Y3424356D1*
X4444384Y3419548D1*
X4437199Y3417171D1*
X4430014D1*
X4422884Y3419548D1*
X4420508Y3421980D1*
X4418076Y3426733D1*
X4401448Y2117553D2*
Y2079306D1*
X4399072Y2072121D1*
X4396640Y2069745D1*
X4391887Y2067313D1*
X4387078D1*
X4382325Y2069745D1*
X4379948Y2072121D1*
X4377517Y2079306D1*
Y2084060D1*
X4440819Y2067313D2*
Y2117498D1*
X4416888Y2084060D1*
X4452757D1*
X1566198Y660672D2*
Y622426D1*
X1563822Y615241D1*
X1561390Y612864D1*
X1556637Y610432D1*
X1551828D1*
X1547075Y612864D1*
X1544698Y615241D1*
X1542267Y622426D1*
Y627179D1*
X1610322Y660617D2*
X1586446D1*
X1584069Y639117D1*
X1586446Y641494D1*
X1593631Y643926D1*
X1600761D1*
X1607946Y641494D1*
X1612754Y636741D1*
X1615131Y629556D1*
Y624802D1*
X1612754Y617617D1*
X1607946Y612809D1*
X1600761Y610432D1*
X1593631D1*
X1586446Y612809D1*
X1584069Y615241D1*
X1581637Y619994D1*
X1719145Y1817857D2*
Y1767617D1*
X1747830D1*
X1763269Y1808241D2*
X1768078Y1810672D1*
X1775263Y1817802D1*
Y1767617D1*
X2519335Y1957472D2*
Y1907232D1*
X2548020D1*
X2565891Y1945478D2*
Y1947855D1*
X2568267Y1952663D1*
X2570644Y1955040D1*
X2575452Y1957416D1*
X2585014D1*
X2589767Y1955040D1*
X2592144Y1952663D1*
X2594576Y1947855D1*
Y1943102D1*
X2592144Y1938293D1*
X2587391Y1931163D1*
X2563459Y1907232D1*
X2596952D1*
X2813702Y1150092D2*
Y1099852D1*
X2842387D1*
X2881757D2*
Y1150037D1*
X2857826Y1116599D1*
X2893696D1*
X3339314Y3141761D2*
Y3163261D1*
X3336882Y3170446D1*
X3334506Y3172877D1*
X3329753Y3175254D1*
X3324944D1*
X3320191Y3172877D1*
X3317759Y3170446D1*
X3315382Y3163261D1*
Y3141761D1*
X3365622D1*
X3339314Y3158507D2*
X3365622Y3175254D1*
X3324999Y3190693D2*
X3322568Y3195502D1*
X3315438Y3202687D1*
X3365622D1*
X1847626Y3406083D2*
X1869126D1*
X1876311Y3408515D1*
X1878743Y3410892D1*
X1881119Y3415645D1*
Y3420453D1*
X1878743Y3425206D1*
X1876311Y3427638D1*
X1869126Y3430015D1*
X1847626D1*
Y3379775D1*
X1864373Y3406083D2*
X1881119Y3379775D1*
X1898991Y3418021D2*
Y3420398D1*
X1901367Y3425206D1*
X1903744Y3427583D1*
X1908552Y3429960D1*
X1918114D1*
X1922867Y3427583D1*
X1925244Y3425206D1*
X1927675Y3420398D1*
Y3415645D1*
X1925244Y3410836D1*
X1920490Y3403707D1*
X1896559Y3379775D1*
X1930052D1*
X3208452Y2887676D2*
X3229951D1*
X3237136Y2890108D1*
X3239568Y2892485D1*
X3241945Y2897238D1*
Y2902046D1*
X3239568Y2906800D1*
X3237136Y2909232D1*
X3229951Y2911608D1*
X3208452D1*
Y2861368D1*
X3225198Y2887676D2*
X3241945Y2861368D1*
X3262193Y2911553D2*
X3288446D1*
X3274131Y2892430D1*
X3281316D1*
X3286069Y2890053D1*
X3288446Y2887676D1*
X3290878Y2880491D1*
Y2875738D1*
X3288446Y2868553D1*
X3283692Y2863745D1*
X3276507Y2861368D1*
X3269322D1*
X3262193Y2863745D1*
X3259816Y2866177D1*
X3257384Y2870930D1*
X3522224Y2922263D2*
Y2943763D1*
X3519792Y2950948D1*
X3517415Y2953380D1*
X3512662Y2955757D1*
X3507854D1*
X3503100Y2953380D1*
X3500669Y2950948D1*
X3498292Y2943763D1*
Y2922263D1*
X3548532D1*
X3522224Y2939010D2*
X3548532Y2955757D1*
Y2995128D2*
X3498347D1*
X3531785Y2971196D1*
Y3007066D1*
X3559405Y3323135D2*
Y3344635D1*
X3556973Y3351820D1*
X3554596Y3354252D1*
X3549843Y3356629D1*
X3545035D1*
X3540281Y3354252D1*
X3537850Y3351820D1*
X3535473Y3344635D1*
Y3323135D1*
X3585713D1*
X3559405Y3339882D2*
X3585713Y3356629D1*
X3535528Y3400753D2*
Y3376876D1*
X3557028Y3374500D1*
X3554652Y3376876D1*
X3552220Y3384061D1*
Y3391191D1*
X3554652Y3398376D1*
X3559405Y3403185D1*
X3566590Y3405561D1*
X3571343D1*
X3578528Y3403185D1*
X3583336Y3398376D1*
X3585713Y3391191D1*
Y3384061D1*
X3583336Y3376876D1*
X3580905Y3374500D1*
X3576151Y3372068D1*
X1990822Y3236828D2*
Y3258328D1*
X1988390Y3265513D1*
X1986014Y3267944D1*
X1981260Y3270321D1*
X1976452D1*
X1971699Y3267944D1*
X1969267Y3265513D1*
X1966890Y3258328D1*
Y3236828D1*
X2017130D1*
X1990822Y3253574D2*
X2017130Y3270321D1*
X1974075Y3314445D2*
X1969322Y3312069D1*
X1966946Y3304884D1*
Y3300130D1*
X1969322Y3292945D1*
X1976507Y3288137D1*
X1988445Y3285760D1*
X2000384D1*
X2009945Y3288137D1*
X2014754Y3292945D1*
X2017130Y3300130D1*
Y3302507D1*
X2014754Y3309637D1*
X2009945Y3314445D1*
X2002760Y3316822D1*
X2000384D1*
X1993199Y3314445D1*
X1988445Y3309637D1*
X1986069Y3302507D1*
Y3300130D1*
X1988445Y3292945D1*
X1993199Y3288137D1*
X2000384Y3285760D1*
X740957Y723395D2*
Y744895D1*
X738525Y752080D1*
X736149Y754512D1*
X731396Y756889D1*
X726587D1*
X721834Y754512D1*
X719402Y752080D1*
X717026Y744895D1*
X717025Y723395D1*
X767265D1*
X740957Y740142D2*
X767266Y756889D1*
Y781889D2*
X717081Y805821D1*
Y772328D1*
X3265520Y738617D2*
X3287020D1*
X3294205Y741049D1*
X3296637Y743426D1*
X3299014Y748179D1*
Y752987D1*
X3296637Y757741D1*
X3294205Y760172D1*
X3287020Y762549D1*
X3265520D1*
Y712309D1*
X3282267Y738617D2*
X3299014Y712309D1*
X3345570Y745802D2*
X3343138Y738617D1*
X3338385Y733809D1*
X3331200Y731432D1*
X3328823D1*
X3321638Y733809D1*
X3316885Y738617D1*
X3314453Y745802D1*
Y748179D1*
X3316885Y755364D1*
X3321638Y760117D1*
X3328823Y762494D1*
X3331200D1*
X3338385Y760117D1*
X3343138Y755364D1*
X3345570Y745802D1*
Y733809D1*
X3343138Y721871D1*
X3338385Y714686D1*
X3331200Y712309D1*
X3326447D1*
X3319262Y714686D1*
X3316885Y719494D1*
X740944Y1847060D2*
Y1868559D1*
X738512Y1875744D1*
X736136Y1878176D1*
X731382Y1880553D1*
X726574D1*
X721821Y1878176D1*
X719389Y1875744D1*
X717012Y1868559D1*
Y1847060D1*
X767252D1*
X740944Y1863806D2*
X767252Y1880553D1*
X726629Y1895992D2*
X724197Y1900800D1*
X717068Y1907986D1*
X767252Y1907985D1*
X717068Y1937795D2*
X719444Y1930610D1*
X726629Y1925801D1*
X738568Y1923425D1*
X745753D1*
X757691Y1925801D1*
X764876Y1930610D1*
X767252Y1937795D1*
Y1942548D1*
X764876Y1949733D1*
X757691Y1954486D1*
X745753Y1956918D1*
X738568D1*
X726629Y1954486D1*
X719444Y1949733D1*
X717068Y1942548D1*
Y1937795D1*
X726629Y1954486D2*
X757691Y1925801D1*
X3415604Y1748248D2*
Y1769748D1*
X3413172Y1776933D1*
X3410796Y1779364D1*
X3406043Y1781741D1*
X3401234D1*
X3396481Y1779364D1*
X3394049Y1776933D1*
X3391672Y1769748D1*
Y1748248D1*
X3441912D1*
X3415604Y1764994D2*
X3441913Y1781741D1*
X3401289Y1797180D2*
X3398858Y1801989D1*
X3391728Y1809174D1*
X3441913D1*
X3401289Y1824613D2*
X3398858Y1829421D1*
X3391728Y1836606D1*
X3441912D1*
X3134055Y1793927D2*
X3155555D1*
X3162740Y1796359D1*
X3165172Y1798736D1*
X3167549Y1803489D1*
Y1808297D1*
X3165172Y1813050D1*
X3162740Y1815482D1*
X3155555Y1817859D1*
X3134055D1*
Y1767619D1*
X3150802Y1793927D2*
X3167549Y1767619D1*
X3182988Y1808242D2*
X3187796Y1810674D1*
X3194982Y1817804D1*
Y1767619D1*
X3215229Y1817804D2*
X3241482D1*
X3227167Y1798680D1*
X3234352D1*
X3239106Y1796304D1*
X3241482Y1793927D1*
X3243914Y1786742D1*
Y1781989D1*
X3241482Y1774804D1*
X3236729Y1769995D1*
X3229544Y1767619D1*
X3222359D1*
X3215229Y1769995D1*
X3212853Y1772427D1*
X3210421Y1777180D1*
X2462298Y743926D2*
X2483797D1*
X2490982Y746358D1*
X2493414Y748734D1*
X2495791Y753487D1*
Y758296D1*
X2493414Y763049D1*
X2490982Y765481D1*
X2483797Y767857D1*
X2462298D1*
Y717617D1*
X2479044Y743926D2*
X2495791Y717617D1*
X2511230Y758241D2*
X2516039Y760672D1*
X2523224Y767802D1*
Y717617D1*
X2562595D2*
Y767802D1*
X2538663Y734364D1*
X2574533D1*
X1653460Y442805D2*
Y464305D1*
X1651028Y471490D1*
X1648651Y473922D1*
X1643898Y476298D1*
X1639090D1*
X1634337Y473922D1*
X1631905Y471490D1*
X1629528Y464305D1*
Y442805D1*
X1679768D1*
X1653460Y459552D2*
X1679768Y476298D1*
X1639145Y491737D2*
X1636713Y496546D1*
X1629583Y503731D1*
X1679768D1*
X1629583Y547855D2*
Y523979D1*
X1651083Y521602D1*
X1648707Y523979D1*
X1646275Y531164D1*
Y538293D1*
X1648707Y545478D1*
X1653460Y550287D1*
X1660645Y552663D1*
X1665398D1*
X1672583Y550287D1*
X1677392Y545478D1*
X1679768Y538293D1*
Y531164D1*
X1677392Y523979D1*
X1674960Y521602D1*
X1670207Y519170D1*
X797224Y1698451D2*
Y1719951D1*
X794792Y1727136D1*
X792415Y1729568D1*
X787662Y1731945D1*
X782854D1*
X778100Y1729568D1*
X775669Y1727136D1*
X773292Y1719951D1*
Y1698451D1*
X823532D1*
X797224Y1715198D2*
X823532Y1731945D1*
X782909Y1747384D2*
X780477Y1752192D1*
X773347Y1759377D1*
X823532D1*
X780477Y1803501D2*
X775724Y1801125D1*
X773347Y1793940D1*
Y1789187D1*
X775724Y1782002D1*
X782909Y1777193D1*
X794847Y1774817D1*
X806785D1*
X816347Y1777193D1*
X821155Y1782002D1*
X823532Y1789187D1*
Y1791563D1*
X821155Y1798693D1*
X816347Y1803501D1*
X809162Y1805878D1*
X806785D1*
X799600Y1803501D1*
X794847Y1798693D1*
X792470Y1791563D1*
Y1789187D1*
X794847Y1782002D1*
X799600Y1777193D1*
X806785Y1774817D1*
X3253103Y898178D2*
Y919677D1*
X3250671Y926862D1*
X3248294Y929294D1*
X3243541Y931671D1*
X3238733D1*
X3233980Y929294D1*
X3231548Y926862D1*
X3229171Y919677D1*
Y898178D1*
X3279411D1*
X3253103Y914924D2*
X3279411Y931671D1*
X3238788Y947110D2*
X3236356Y951919D1*
X3229226Y959104D1*
X3279411D1*
Y984104D2*
X3229226Y1008036D1*
Y974543D1*
X1491278Y1032868D2*
X1486524Y1037676D1*
X1479339Y1040053D1*
X1469778D1*
X1462593Y1037676D1*
X1457784Y1032868D1*
Y1028115D1*
X1460216Y1023306D1*
X1462593Y1020930D1*
X1467346Y1018553D1*
X1481716Y1013745D1*
X1486524Y1011368D1*
X1488901Y1008936D1*
X1491278Y1004183D1*
Y996998D1*
X1486524Y992245D1*
X1479339Y989813D1*
X1469778D1*
X1462593Y992245D1*
X1457784Y996998D1*
X1506717Y1030436D2*
X1511525Y1032868D1*
X1518710Y1039998D1*
Y989813D1*
X1373497Y1733687D2*
Y1697817D1*
X1375873Y1690632D1*
X1380682Y1685879D1*
X1387867Y1683447D1*
X1392620D1*
X1399805Y1685879D1*
X1404614Y1690632D1*
X1406990Y1697817D1*
Y1733687D1*
X1422429Y1724070D2*
X1427238Y1726502D1*
X1434423Y1733632D1*
Y1683447D1*
X1100578Y3027455D2*
Y2991585D1*
X1102954Y2984400D1*
X1107763Y2979646D1*
X1114948Y2977215D1*
X1119701D1*
X1126886Y2979646D1*
X1131694Y2984400D1*
X1134071Y2991585D1*
Y3027455D1*
X1151942Y3015461D2*
Y3017838D1*
X1154319Y3022646D1*
X1156695Y3025023D1*
X1161504Y3027399D1*
X1171065D1*
X1175818Y3025023D1*
X1178195Y3022646D1*
X1180627Y3017838D1*
Y3013084D1*
X1178195Y3008276D1*
X1173442Y3001146D1*
X1149510Y2977215D1*
X1183004D1*
X1830687Y3584931D2*
Y3549061D1*
X1833063Y3541876D1*
X1837872Y3537123D1*
X1845057Y3534691D1*
X1849810D1*
X1856995Y3537123D1*
X1861803Y3541876D1*
X1864180Y3549061D1*
Y3584931D1*
X1884428Y3584876D2*
X1910681D1*
X1896366Y3565752D1*
X1903551D1*
X1908304Y3563376D1*
X1910681Y3560999D1*
X1913112Y3553814D1*
Y3549061D1*
X1910681Y3541876D1*
X1905927Y3537068D1*
X1898742Y3534691D1*
X1891557D1*
X1884428Y3537068D1*
X1882051Y3539499D1*
X1879619Y3544253D1*
X2469475Y469629D2*
Y433759D1*
X2471851Y426574D1*
X2476660Y421821D1*
X2483845Y419389D1*
X2488598D1*
X2495783Y421821D1*
X2500591Y426574D1*
X2502968Y433759D1*
Y469629D1*
X2542339Y419389D2*
Y469574D1*
X2518407Y436136D1*
X2554277D1*
X3643016Y3353689D2*
Y3317820D1*
X3645393Y3310635D1*
X3650201Y3305881D1*
X3657386Y3303449D1*
X3662139D1*
X3669324Y3305881D1*
X3674133Y3310635D1*
X3676509Y3317820D1*
Y3353689D1*
X3720633Y3353634D2*
X3696757D1*
X3694380Y3332134D1*
X3696757Y3334511D1*
X3703942Y3336943D1*
X3711072D1*
X3718257Y3334511D1*
X3723065Y3329758D1*
X3725442Y3322573D1*
Y3317820D1*
X3723065Y3310635D1*
X3718257Y3305826D1*
X3711072Y3303449D1*
X3703942D1*
X3696757Y3305826D1*
X3694380Y3308258D1*
X3691948Y3313011D1*
X3538703Y1090348D2*
Y1054478D1*
X3541080Y1047293D1*
X3545888Y1042540D1*
X3553073Y1040108D1*
X3557826D1*
X3565011Y1042540D1*
X3569820Y1047293D1*
X3572196Y1054478D1*
Y1090348D1*
X3616320Y1083163D2*
X3613944Y1087916D1*
X3606759Y1090293D1*
X3602006D1*
X3594821Y1087916D1*
X3590012Y1080731D1*
X3587636Y1068793D1*
Y1056855D1*
X3590012Y1047293D1*
X3594821Y1042485D1*
X3602006Y1040108D1*
X3604382D1*
X3611512Y1042485D1*
X3616320Y1047293D1*
X3618697Y1054478D1*
Y1056855D1*
X3616320Y1064040D1*
X3611512Y1068793D1*
X3604382Y1071170D1*
X3602006D1*
X3594821Y1068793D1*
X3590012Y1064040D1*
X3587636Y1056855D1*
X872575Y1059029D2*
Y1023159D1*
X874952Y1015974D1*
X879760Y1011221D1*
X886945Y1008789D1*
X891698D1*
X898883Y1011221D1*
X903692Y1015974D1*
X906068Y1023159D1*
Y1059029D1*
X931069Y1008789D2*
X955001Y1058974D1*
X921508D1*
X525404Y1234010D2*
Y1198140D1*
X527781Y1190955D1*
X532589Y1186202D1*
X539775Y1183770D1*
X544528D1*
X551713Y1186202D1*
X556521Y1190955D1*
X558898Y1198140D1*
Y1234010D1*
X586275Y1233954D2*
X579145Y1231578D1*
X576714Y1226825D1*
Y1222016D1*
X579145Y1217263D1*
X583899Y1214831D1*
X593460Y1212455D1*
X600645Y1210078D1*
X605398Y1205270D1*
X607775Y1200516D1*
Y1193331D1*
X605398Y1188578D1*
X603022Y1186146D1*
X595837Y1183770D1*
X586275D1*
X579145Y1186146D1*
X576714Y1188578D1*
X574337Y1193331D1*
Y1200516D1*
X576714Y1205270D1*
X581522Y1210078D1*
X588652Y1212455D1*
X598213Y1214831D1*
X603022Y1217263D1*
X605398Y1222016D1*
Y1226825D1*
X603022Y1231578D1*
X595837Y1233954D1*
X586275D1*
X2395076Y2830224D2*
Y2794354D1*
X2397452Y2787169D1*
X2402261Y2782415D1*
X2409446Y2779984D1*
X2414199D1*
X2421384Y2782415D1*
X2426192Y2787169D1*
X2428569Y2794354D1*
Y2830224D1*
X2475125Y2813477D2*
X2472693Y2806292D1*
X2467940Y2801483D1*
X2460755Y2799107D1*
X2458378D1*
X2451193Y2801483D1*
X2446440Y2806292D1*
X2444008Y2813477D1*
Y2815854D1*
X2446440Y2823039D1*
X2451193Y2827792D1*
X2458378Y2830168D1*
X2460755D1*
X2467940Y2827792D1*
X2472693Y2823039D1*
X2475125Y2813477D1*
Y2801483D1*
X2472693Y2789545D1*
X2467940Y2782360D1*
X2460755Y2779984D1*
X2456002D1*
X2448817Y2782360D1*
X2446440Y2787169D1*
X2961271Y1945672D2*
Y1909802D1*
X2963647Y1902617D1*
X2968456Y1897864D1*
X2975641Y1895432D1*
X2980394D1*
X2987579Y1897864D1*
X2992387Y1902617D1*
X2994764Y1909802D1*
Y1945672D1*
X3010203Y1936056D2*
X3015012Y1938487D1*
X3022197Y1945617D1*
Y1895432D1*
X3052006Y1945617D2*
X3044821Y1943241D1*
X3040013Y1936056D1*
X3037636Y1924117D1*
Y1916932D1*
X3040013Y1904994D1*
X3044821Y1897809D1*
X3052006Y1895432D1*
X3056759D1*
X3063944Y1897809D1*
X3068697Y1904994D1*
X3071129Y1916932D1*
Y1924117D1*
X3068697Y1936056D1*
X3063944Y1943241D1*
X3056759Y1945617D1*
X3052006D1*
X3068697Y1936056D2*
X3040013Y1904994D1*
X3609106Y1710045D2*
Y1674175D1*
X3611482Y1666990D1*
X3616291Y1662237D1*
X3623476Y1659805D1*
X3628229D1*
X3635414Y1662237D1*
X3640223Y1666990D1*
X3642599Y1674175D1*
Y1710045D1*
X3658038Y1700428D2*
X3662847Y1702860D1*
X3670032Y1709990D1*
Y1659805D1*
X3685471Y1700428D2*
X3690280Y1702860D1*
X3697465Y1709990D1*
Y1659805D1*
X1696845Y689037D2*
Y653167D1*
X1699222Y645982D1*
X1704031Y641229D1*
X1711216Y638797D1*
X1715969D1*
X1723154Y641229D1*
X1727962Y645982D1*
X1730339Y653167D1*
Y689037D1*
X1745778Y679420D2*
X1750587Y681852D1*
X1757772Y688982D1*
Y638797D1*
X1775643Y677044D2*
Y679420D1*
X1778019Y684229D1*
X1780396Y686605D1*
X1785204Y688982D1*
X1794766D1*
X1799519Y686605D1*
X1801896Y684229D1*
X1804328Y679420D1*
Y674667D1*
X1801896Y669859D1*
X1797143Y662729D1*
X1773211Y638797D1*
X1806704D1*
X852608Y2246409D2*
Y2210539D1*
X854985Y2203354D1*
X859793Y2198600D1*
X866978Y2196169D1*
X871731D1*
X878916Y2198600D1*
X883725Y2203354D1*
X886101Y2210539D1*
Y2246409D1*
X901541Y2236792D2*
X906349Y2239224D1*
X913534Y2246353D1*
Y2196169D1*
X933782Y2246353D2*
X960035D1*
X945720Y2227230D1*
X952905D1*
X957658Y2224854D1*
X960035Y2222477D1*
X962467Y2215292D1*
Y2210539D1*
X960035Y2203354D1*
X955282Y2198545D1*
X948097Y2196169D1*
X940911D1*
X933782Y2198545D1*
X931405Y2200977D1*
X928973Y2205730D1*
X522971Y2377638D2*
Y2341768D1*
X525347Y2334583D1*
X530156Y2329830D1*
X537341Y2327398D1*
X542094D1*
X549279Y2329830D1*
X554088Y2334583D1*
X556464Y2341768D1*
Y2377638D1*
X571903Y2368021D2*
X576712Y2370453D1*
X583897Y2377583D1*
Y2327398D1*
X623268D2*
Y2377583D1*
X599336Y2344145D1*
X635206D1*
X1242520Y529423D2*
Y493553D1*
X1244897Y486368D1*
X1249705Y481615D1*
X1256890Y479183D1*
X1261643D1*
X1268828Y481615D1*
X1273637Y486368D1*
X1276013Y493553D1*
Y529423D1*
X1291453Y519806D2*
X1296261Y522238D1*
X1303446Y529368D1*
Y479183D1*
X1347570Y529368D2*
X1323694D1*
X1321317Y507868D1*
X1323694Y510245D1*
X1330879Y512676D1*
X1338009D1*
X1345194Y510245D1*
X1350002Y505491D1*
X1352379Y498306D1*
Y493553D1*
X1350002Y486368D1*
X1345194Y481560D1*
X1338009Y479183D1*
X1330879D1*
X1323694Y481560D1*
X1321317Y483992D1*
X1318885Y488745D1*
X749373Y577362D2*
D140*
X748422Y579263D1*
X746499Y581186D1*
X744597Y582137D1*
X740773D1*
X738849Y581186D1*
X736948Y579263D1*
X735975Y577362D1*
X735025Y574488D1*
Y569690D1*
X735975Y566838D1*
X736948Y564915D1*
X738849Y563014D1*
X740773Y562041D1*
X744597D1*
X746499Y563014D1*
X748422Y564915D1*
X749373Y566838D1*
Y569690D1*
X744597D1*
X768946Y582137D2*
Y562041D1*
X755548Y582137D1*
Y562041D1*
X775121Y582137D2*
Y562041D1*
X781820D1*
X784694Y563014D1*
X786618Y564915D1*
X787568Y566838D1*
X788519Y569690D1*
Y574488D1*
X787568Y577362D1*
X786618Y579263D1*
X784694Y581186D1*
X781820Y582137D1*
X775121D1*
X935922Y579263D2*
X934021Y581186D1*
X931147Y582137D1*
X927322D1*
X924448Y581186D1*
X922525Y579263D1*
Y577362D1*
X923498Y575438D1*
X924448Y574488D1*
X926349Y573537D1*
X932097Y571614D1*
X934021Y570663D1*
X934971Y569690D1*
X935922Y567789D1*
Y564915D1*
X934021Y563014D1*
X931147Y562041D1*
X927322D1*
X924448Y563014D1*
X922525Y564915D1*
X942098Y582137D2*
X946895Y562041D1*
X951670Y582137D1*
X956446Y562041D1*
X961243Y582137D1*
X981767Y577362D2*
X980816Y579263D1*
X978893Y581186D1*
X976992Y582137D1*
X973167D1*
X971244Y581186D1*
X969342Y579263D1*
X968369Y577362D1*
X967419Y574488D1*
Y569690D1*
X968369Y566838D1*
X969342Y564915D1*
X971244Y563014D1*
X973167Y562041D1*
X976992D1*
X978893Y563014D1*
X980816Y564915D1*
X981767Y566838D1*
X987943Y582137D2*
Y562041D1*
X999416D1*
X1005592Y582137D2*
Y562041D1*
X1018990Y582137D2*
X1005592Y568740D1*
X1010367Y573537D2*
X1018990Y562041D1*
X835921Y582137D2*
Y562041D1*
X822523Y582137D1*
Y562041D1*
X851669Y582137D2*
Y566838D1*
X850719Y563964D1*
X849746Y563014D1*
X847845Y562041D1*
X845921D1*
X844020Y563014D1*
X843069Y563964D1*
X842096Y566838D1*
Y568740D1*
X857845Y572564D2*
X866445D1*
X869319Y573537D1*
X870292Y574488D1*
X871242Y576389D1*
Y578312D1*
X870292Y580214D1*
X869319Y581186D1*
X866445Y582137D1*
X857845D1*
Y562041D1*
X864544Y572564D2*
X871242Y562041D1*
X890815Y579263D2*
X888914Y581186D1*
X886040Y582137D1*
X882215D1*
X879341Y581186D1*
X877418Y579263D1*
Y577362D1*
X878391Y575438D1*
X879341Y574488D1*
X881243Y573537D1*
X886991Y571614D1*
X888914Y570663D1*
X889865Y569690D1*
X890815Y567789D1*
Y564915D1*
X888914Y563014D1*
X886040Y562041D1*
X882215D1*
X879341Y563014D1*
X877418Y564915D1*
X903690Y582137D2*
Y562041D1*
X896991Y582137D2*
X910388D1*
X1048421Y579263D2*
X1046520Y581186D1*
X1043645Y582137D1*
X1039821D1*
X1036947Y581186D1*
X1035023Y579263D1*
Y577362D1*
X1035996Y575438D1*
X1036947Y574488D1*
X1038848Y573537D1*
X1044596Y571614D1*
X1046520Y570663D1*
X1047470Y569690D1*
X1048421Y567789D1*
Y564915D1*
X1046520Y563014D1*
X1043645Y562041D1*
X1039821D1*
X1036947Y563014D1*
X1035023Y564915D1*
X1054596Y582137D2*
X1059394Y562041D1*
X1064169Y582137D1*
X1068944Y562041D1*
X1073742Y582137D1*
X1079918D2*
Y562041D1*
X1086616D1*
X1089490Y563014D1*
X1091414Y564915D1*
X1092364Y566838D1*
X1093315Y569690D1*
Y574488D1*
X1092364Y577362D1*
X1091414Y579263D1*
X1089490Y581186D1*
X1086616Y582137D1*
X1079918D1*
X1099491D2*
Y562041D1*
X1111414Y582137D2*
X1109491Y581186D1*
X1107590Y579263D1*
X1106617Y577362D1*
X1105666Y574488D1*
Y569690D1*
X1106617Y566838D1*
X1107590Y564915D1*
X1109491Y563014D1*
X1111414Y562041D1*
X1115239D1*
X1117140Y563014D1*
X1119064Y564915D1*
X1120014Y566838D1*
X1120965Y569690D1*
Y574488D1*
X1120014Y577362D1*
X1119064Y579263D1*
X1117140Y581186D1*
X1115239Y582137D1*
X1111414D1*
X3304222Y525886D2*
Y505790D1*
X3297523Y525886D2*
X3310921D1*
X3317096D2*
X3330494Y505790D1*
Y525886D2*
X3317096Y505790D1*
X3403774Y516314D2*
X3412374D1*
X3415248Y517286D1*
X3416221Y518237D1*
X3417171Y520138D1*
Y522062D1*
X3416221Y523963D1*
X3415248Y524936D1*
X3412374Y525886D1*
X3403774D1*
Y505790D1*
X3410473Y516314D2*
X3417171Y505790D1*
X3423347Y525886D2*
X3436744Y505790D1*
Y525886D2*
X3423347Y505790D1*
X3586948Y525864D2*
X3597449D1*
X3591723Y518215D1*
X3594597D1*
X3596499Y517264D1*
X3597449Y516314D1*
X3598422Y513440D1*
Y511538D1*
X3597449Y508664D1*
X3595548Y506741D1*
X3592674Y505790D1*
X3589800D1*
X3586948Y506741D1*
X3585998Y507714D1*
X3585025Y509615D1*
X3605548Y507714D2*
X3604598Y506741D1*
X3605548Y505790D1*
X3606521Y506741D1*
X3605548Y507714D1*
X3614620Y525864D2*
X3625121D1*
X3619396Y518215D1*
X3622270D1*
X3624171Y517264D1*
X3625121Y516314D1*
X3626094Y513440D1*
Y511538D1*
X3625121Y508664D1*
X3623220Y506741D1*
X3620346Y505790D1*
X3617472D1*
X3614620Y506741D1*
X3613670Y507714D1*
X3612697Y509615D1*
X3632270Y525886D2*
X3639919Y505790D1*
X3647569Y525886D1*
X3499371Y521111D2*
X3498421Y523012D1*
X3496497Y524936D1*
X3494596Y525886D1*
X3490771D1*
X3488848Y524936D1*
X3486947Y523012D1*
X3485974Y521111D1*
X3485023Y518237D1*
Y513440D1*
X3485974Y510588D1*
X3486947Y508664D1*
X3488848Y506763D1*
X3490771Y505790D1*
X3494596D1*
X3496497Y506763D1*
X3498421Y508664D1*
X3499371Y510588D1*
Y513440D1*
X3494596D1*
X3518944Y525886D2*
Y505790D1*
X3505547Y525886D1*
Y505790D1*
X3525120Y525886D2*
Y505790D1*
X3531819D1*
X3534693Y506763D1*
X3536616Y508664D1*
X3537567Y510588D1*
X3538517Y513440D1*
Y518237D1*
X3537567Y521111D1*
X3536616Y523012D1*
X3534693Y524936D1*
X3531819Y525886D1*
X3525120D1*
X4131437Y2543945D2*
D141*
X4128585Y2549649D1*
X4122815Y2555419D1*
X4117112Y2558271D1*
X4105638D1*
X4099867Y2555419D1*
X4094164Y2549649D1*
X4091245Y2543945D1*
X4088393Y2535323D1*
Y2520931D1*
X4091245Y2512375D1*
X4094164Y2506605D1*
X4099867Y2500901D1*
X4105638Y2497983D1*
X4117112D1*
X4122815Y2500901D1*
X4128585Y2506605D1*
X4131437Y2512375D1*
Y2520931D1*
X4117112D1*
X4190156Y2558271D2*
Y2497983D1*
X4149964Y2558271D1*
Y2497983D1*
X4208684Y2558271D2*
Y2497983D1*
X4228780D1*
X4237402Y2500901D1*
X4243172Y2506605D1*
X4246024Y2512375D1*
X4248876Y2520931D1*
Y2535323D1*
X4246024Y2543945D1*
X4243172Y2549649D1*
X4237402Y2555419D1*
X4228780Y2558271D1*
X4208684D1*
X4088393Y2207950D2*
X4114260D1*
X4122815Y2210802D1*
X4125734Y2213720D1*
X4128585Y2219424D1*
Y2228046D1*
X4125734Y2233750D1*
X4122815Y2236668D1*
X4114260Y2239520D1*
X4088393D1*
Y2179232D1*
X4164357Y2239520D2*
X4158587Y2236668D1*
X4152883Y2230898D1*
X4149964Y2225194D1*
X4147113Y2216572D1*
Y2202180D1*
X4149964Y2193624D1*
X4152883Y2187854D1*
X4158587Y2182150D1*
X4164357Y2179232D1*
X4175831D1*
X4181534Y2182150D1*
X4187305Y2187854D1*
X4190156Y2193624D1*
X4193008Y2202180D1*
Y2216572D1*
X4190156Y2225194D1*
X4187305Y2230898D1*
X4181534Y2236668D1*
X4175831Y2239520D1*
X4164357D1*
X4251727Y2230898D2*
X4246024Y2236668D1*
X4237402Y2239520D1*
X4225928D1*
X4217306Y2236668D1*
X4211535Y2230898D1*
Y2225194D1*
X4214454Y2219424D1*
X4217306Y2216572D1*
X4223009Y2213720D1*
X4240254Y2207950D1*
X4246024Y2205098D1*
X4248876Y2202180D1*
X4251727Y2196476D1*
Y2187854D1*
X4246024Y2182150D1*
X4237402Y2179232D1*
X4225928D1*
X4217306Y2182150D1*
X4211535Y2187854D1*
X447525Y2008613D2*
D140*
X456125D1*
X458999Y2009586D1*
X459971Y2010536D1*
X460922Y2012438D1*
Y2014361D1*
X459971Y2016262D1*
X458999Y2017235D1*
X456125Y2018186D1*
X447525D1*
Y1998090D1*
X454223Y2008613D2*
X460922Y1998090D1*
X467098Y2018186D2*
X480495Y1998090D1*
Y2018186D2*
X467098Y1998090D1*
X495271Y2016737D2*
Y1999516D1*
X486671Y2008115D2*
X503893D1*
X447523Y2058602D2*
X456123D1*
X458997Y2059575D1*
X459970Y2060526D1*
X460921Y2062427D1*
Y2064350D1*
X459970Y2066252D1*
X458997Y2067224D1*
X456123Y2068175D1*
X447523D1*
Y2048079D1*
X454222Y2058602D2*
X460921Y2048079D1*
X467096Y2068175D2*
X480494Y2048079D1*
Y2068175D2*
X467096Y2048079D1*
X486670Y2058116D2*
X497723D1*
X454222Y2118165D2*
Y2098069D1*
X447523Y2118165D2*
X460921D1*
X467096D2*
X480494Y2098069D1*
Y2118165D2*
X467096Y2098069D1*
X486670Y2108105D2*
X497723D1*
X435034Y852362D2*
X443634D1*
X446508Y853335D1*
X447481Y854286D1*
X448431Y856187D1*
Y858110D1*
X447481Y860012D1*
X446508Y860984D1*
X443634Y861935D1*
X435034D1*
Y841839D1*
X441733Y852362D2*
X448431Y841839D1*
X454607Y861935D2*
X468004Y841839D1*
Y861935D2*
X454607Y841839D1*
X482780Y860487D2*
Y843265D1*
X474180Y851865D2*
X491402D1*
X435033Y908601D2*
X443633D1*
X446507Y909574D1*
X447479Y910524D1*
X448430Y912426D1*
Y914349D1*
X447479Y916250D1*
X446507Y917223D1*
X443633Y918174D1*
X435033D1*
Y898078D1*
X441731Y908601D2*
X448430Y898078D1*
X454606Y918174D2*
X468003Y898078D1*
Y918174D2*
X454606Y898078D1*
X474179Y908115D2*
X485233D1*
X441731Y968163D2*
Y948067D1*
X435033Y968163D2*
X448430D1*
X454606D2*
X468003Y948067D1*
Y968163D2*
X454606Y948067D1*
X474179Y958104D2*
X485233D1*
X441731Y1011903D2*
Y991807D1*
X435033Y1011903D2*
X448430D1*
X454606D2*
X468003Y991807D1*
Y1011903D2*
X454606Y991807D1*
X482779Y1010455D2*
Y993233D1*
X474179Y1001833D2*
X491401D1*
X449382Y1057118D2*
X448431Y1059019D1*
X446508Y1060942D1*
X444607Y1061893D1*
X440782D1*
X438859Y1060942D1*
X436957Y1059019D1*
X435985Y1057118D1*
X435034Y1054244D1*
Y1049446D1*
X435985Y1046594D1*
X436957Y1044671D1*
X438859Y1042770D1*
X440782Y1041797D1*
X444607D1*
X446508Y1042770D1*
X448431Y1044671D1*
X449382Y1046594D1*
Y1049446D1*
X444607D1*
X468955Y1061893D2*
Y1041797D1*
X455558Y1061893D1*
Y1041797D1*
X475131Y1061893D2*
Y1041797D1*
X481829D1*
X484703Y1042770D1*
X486627Y1044671D1*
X487577Y1046594D1*
X488528Y1049446D1*
Y1054244D1*
X487577Y1057118D1*
X486627Y1059019D1*
X484703Y1060942D1*
X481829Y1061893D1*
X475131D1*
X2272525Y2193166D2*
X2280174Y2173070D1*
X2287823Y2193166D1*
X2293999D2*
Y2173070D1*
X2313572Y2193166D2*
Y2173070D1*
X2300175Y2193166D1*
Y2173070D1*
X2347023Y2193166D2*
X2345100Y2192215D1*
X2343199Y2190292D1*
X2342226Y2188391D1*
X2341275Y2185517D1*
Y2180719D1*
X2342226Y2177867D1*
X2343199Y2175944D1*
X2345100Y2174043D1*
X2347023Y2173070D1*
X2350848D1*
X2352749Y2174043D1*
X2354673Y2175944D1*
X2355623Y2177867D1*
X2356574Y2180719D1*
Y2185517D1*
X2355623Y2188391D1*
X2354673Y2190292D1*
X2352749Y2192215D1*
X2350848Y2193166D1*
X2347023D1*
X2362750D2*
Y2178818D1*
X2363700Y2175944D1*
X2365624Y2174043D1*
X2368498Y2173070D1*
X2370399D1*
X2373273Y2174043D1*
X2375196Y2175944D1*
X2376147Y2178818D1*
Y2193166D1*
X2389021D2*
Y2173070D1*
X2382323Y2193166D2*
X2395720D1*
X2503722Y2199415D2*
X2491275D1*
Y2179319D1*
Y2189843D2*
X2498925D1*
X2509898Y2199415D2*
Y2179319D1*
X2518520D1*
X2521394Y2180292D1*
X2522345Y2181243D1*
X2523295Y2183144D1*
Y2186018D1*
X2522345Y2187941D1*
X2521394Y2188892D1*
X2518520Y2189843D1*
X2521394Y2190815D1*
X2522345Y2191766D1*
X2523295Y2193667D1*
Y2195591D1*
X2522345Y2197492D1*
X2521394Y2198465D1*
X2518520Y2199415D1*
X2509898D1*
Y2189843D2*
X2518520D1*
X3439661Y1026944D2*
Y1006848D1*
X3446360D1*
X3449234Y1007821D1*
X3451157Y1009722D1*
X3452108Y1011645D1*
X3453059Y1014497D1*
Y1019295D1*
X3452108Y1022169D1*
X3451157Y1024070D1*
X3449234Y1025993D1*
X3446360Y1026944D1*
X3439661D1*
X3471659D2*
X3459234D1*
Y1006848D1*
X3471659D1*
X3459234Y1017371D2*
X3466884D1*
X3491232Y1026944D2*
Y1006848D1*
X3477835Y1026944D1*
Y1006848D1*
X3676659Y1045693D2*
X3674735Y1044743D1*
X3672834Y1042819D1*
X3671861Y1040918D1*
X3670911Y1038044D1*
Y1033247D1*
X3671861Y1030395D1*
X3672834Y1028471D1*
X3674735Y1026570D1*
X3676659Y1025597D1*
X3680483D1*
X3682385Y1026570D1*
X3684308Y1028471D1*
X3685259Y1030395D1*
X3686209Y1033247D1*
Y1038044D1*
X3685259Y1040918D1*
X3684308Y1042819D1*
X3682385Y1044743D1*
X3680483Y1045693D1*
X3676659D1*
X3692385D2*
Y1031345D1*
X3693336Y1028471D1*
X3695259Y1026570D1*
X3698133Y1025597D1*
X3700034D1*
X3702908Y1026570D1*
X3704832Y1028471D1*
X3705782Y1031345D1*
Y1045693D1*
X3718657D2*
Y1025597D1*
X3711958Y1045693D2*
X3725355D1*
X2004727Y3644874D2*
X2013349D1*
X2016201Y3645824D1*
X2017174Y3646797D1*
X2018124Y3648698D1*
Y3651572D1*
X2017174Y3653473D1*
X2016201Y3654446D1*
X2013349Y3655397D1*
X2004727D1*
Y3635301D1*
X2030048Y3655397D2*
X2028125Y3654446D1*
X2026223Y3652523D1*
X2025251Y3650622D1*
X2024300Y3647748D1*
Y3642950D1*
X2025251Y3640098D1*
X2026223Y3638175D1*
X2028125Y3636274D1*
X2030048Y3635301D1*
X2033873D1*
X2035774Y3636274D1*
X2037697Y3638175D1*
X2038648Y3640098D1*
X2039599Y3642950D1*
Y3647748D1*
X2038648Y3650622D1*
X2037697Y3652523D1*
X2035774Y3654446D1*
X2033873Y3655397D1*
X2030048D1*
X2059172Y3652523D2*
X2057270Y3654446D1*
X2054396Y3655397D1*
X2050572D1*
X2047698Y3654446D1*
X2045774Y3652523D1*
Y3650622D1*
X2046747Y3648698D1*
X2047698Y3647748D1*
X2049599Y3646797D1*
X2055347Y3644874D1*
X2057270Y3643923D1*
X2058221Y3642950D1*
X2059172Y3641049D1*
Y3638175D1*
X2057270Y3636274D1*
X2054396Y3635301D1*
X2050572D1*
X2047698Y3636274D1*
X2045774Y3638175D1*
X479223Y1780666D2*
Y1760570D1*
X472525Y1780666D2*
X485922D1*
X492098D2*
X505495Y1760570D1*
Y1780666D2*
X492098Y1760570D1*
X3592216Y3636638D2*
Y3616542D1*
X3605614Y3636638D2*
X3592216Y3623241D1*
X3596992Y3628038D2*
X3605614Y3616542D1*
X3611789Y3624192D2*
X3623263D1*
Y3626115D1*
X3622313Y3628038D1*
X3621362Y3628989D1*
X3619439Y3629940D1*
X3616565D1*
X3614663Y3628989D1*
X3612740Y3627066D1*
X3611789Y3624192D1*
Y3622290D1*
X3612740Y3619416D1*
X3614663Y3617515D1*
X3616565Y3616542D1*
X3619439D1*
X3621362Y3617515D1*
X3623263Y3619416D1*
X3630412Y3629940D2*
X3636138Y3616542D1*
X3634236Y3612718D1*
X3632313Y3610794D1*
X3630412Y3609844D1*
X3629439D1*
X3641886Y3629940D2*
X3636138Y3616542D1*
X3658585Y3627066D2*
X3657634Y3628989D1*
X3654760Y3629940D1*
X3651886D1*
X3649012Y3628989D1*
X3648061Y3627066D1*
X3649012Y3625164D1*
X3650935Y3624192D1*
X3655711Y3623241D1*
X3657634Y3622290D1*
X3658585Y3620367D1*
Y3619416D1*
X3657634Y3617515D1*
X3654760Y3616542D1*
X3651886D1*
X3649012Y3617515D1*
X3648061Y3619416D1*
X3664760Y3629940D2*
X3668585Y3616542D1*
X3672410Y3629940D1*
X3676234Y3616542D1*
X3680059Y3629940D1*
X3686235Y3636638D2*
X3687185Y3635688D1*
X3688158Y3636638D1*
X3687185Y3637611D1*
X3686235Y3636638D1*
X3687185Y3629940D2*
Y3616542D1*
X3697208Y3636638D2*
Y3620367D1*
X3698159Y3617515D1*
X3700082Y3616542D1*
X3701983D1*
X3694334Y3629940D2*
X3701033D1*
X3719655Y3627066D2*
X3717732Y3628989D1*
X3715808Y3629940D1*
X3712956D1*
X3711033Y3628989D1*
X3709132Y3627066D1*
X3708159Y3624192D1*
Y3622290D1*
X3709132Y3619416D1*
X3711033Y3617515D1*
X3712956Y3616542D1*
X3715808D1*
X3717732Y3617515D1*
X3719655Y3619416D1*
X3725831Y3636638D2*
Y3616542D1*
Y3626115D2*
X3728705Y3628989D1*
X3730628Y3629940D1*
X3733502D1*
X3735403Y3628989D1*
X3736354Y3626115D1*
Y3616542D1*
X447973Y2168154D2*
Y2148058D1*
X441274Y2168154D2*
X454671D1*
X460847D2*
X474244Y2148058D1*
Y2168154D2*
X460847Y2148058D1*
X489020Y2166706D2*
Y2149484D1*
X480420Y2158084D2*
X497642D1*
X455623Y2213368D2*
X454673Y2215270D1*
X452749Y2217193D1*
X450848Y2218144D1*
X447023D1*
X445100Y2217193D1*
X443199Y2215270D1*
X442226Y2213368D1*
X441275Y2210494D1*
Y2205697D1*
X442226Y2202845D1*
X443199Y2200922D1*
X445100Y2199020D1*
X447023Y2198048D1*
X450848D1*
X452749Y2199020D1*
X454673Y2200922D1*
X455623Y2202845D1*
Y2205697D1*
X450848D1*
X475196Y2218144D2*
Y2198048D1*
X461799Y2218144D1*
Y2198048D1*
X481372Y2218144D2*
Y2198048D1*
X488071D1*
X490945Y2199020D1*
X492868Y2200922D1*
X493819Y2202845D1*
X494769Y2205697D1*
Y2210494D1*
X493819Y2213368D1*
X492868Y2215270D1*
X490945Y2217193D1*
X488071Y2218144D1*
X481372D1*
X1143186Y582115D2*
X1153687D1*
X1147961Y574466D1*
X1150835D1*
X1152736Y573515D1*
X1153687Y572564D1*
X1154660Y569690D1*
Y567789D1*
X1153687Y564915D1*
X1151786Y562992D1*
X1148912Y562041D1*
X1146038D1*
X1143186Y562992D1*
X1142235Y563964D1*
X1141262Y565866D1*
X1160835Y582137D2*
X1168485Y562041D1*
X1176134Y582137D1*
X1184233Y582115D2*
X1194734D1*
X1189008Y574466D1*
X1191882D1*
X1193784Y573515D1*
X1194734Y572564D1*
X1195707Y569690D1*
Y567789D1*
X1194734Y564915D1*
X1192833Y562992D1*
X1189959Y562041D1*
X1187085D1*
X1184233Y562992D1*
X1183282Y563964D1*
X1182310Y565866D1*
X3770492Y1707103D2*
X3768569Y1706152D1*
X3766667Y1704229D1*
X3765695Y1702328D1*
X3764744Y1699454D1*
Y1694656D1*
X3765695Y1691804D1*
X3766667Y1689881D1*
X3768569Y1687980D1*
X3770492Y1687007D1*
X3774317D1*
X3776218Y1687980D1*
X3778141Y1689881D1*
X3779092Y1691804D1*
X3780043Y1694656D1*
Y1699454D1*
X3779092Y1702328D1*
X3778141Y1704229D1*
X3776218Y1706152D1*
X3774317Y1707103D1*
X3770492D1*
X3786218D2*
Y1692755D1*
X3787169Y1689881D1*
X3789092Y1687980D1*
X3791966Y1687007D1*
X3793868D1*
X3796742Y1687980D1*
X3798665Y1689881D1*
X3799616Y1692755D1*
Y1707103D1*
X3812490D2*
Y1687007D1*
X3805791Y1707103D2*
X3819189D1*
X3514661Y1651944D2*
Y1631848D1*
X3521360D1*
X3524234Y1632821D1*
X3526157Y1634722D1*
X3527108Y1636645D1*
X3528059Y1639497D1*
Y1644295D1*
X3527108Y1647169D1*
X3526157Y1649070D1*
X3524234Y1650993D1*
X3521360Y1651944D1*
X3514661D1*
X3546659D2*
X3534234D1*
Y1631848D1*
X3546659D1*
X3534234Y1642371D2*
X3541884D1*
X3566232Y1651944D2*
Y1631848D1*
X3552835Y1651944D1*
Y1631848D1*
X4131437Y1843945D2*
D141*
X4128585Y1849649D1*
X4122815Y1855419D1*
X4117112Y1858271D1*
X4105638D1*
X4099867Y1855419D1*
X4094164Y1849649D1*
X4091245Y1843945D1*
X4088393Y1835323D1*
Y1820931D1*
X4091245Y1812375D1*
X4094164Y1806605D1*
X4099867Y1800901D1*
X4105638Y1797983D1*
X4117112D1*
X4122815Y1800901D1*
X4128585Y1806605D1*
X4131437Y1812375D1*
Y1820931D1*
X4117112D1*
X4190156Y1858271D2*
Y1797983D1*
X4149964Y1858271D1*
Y1797983D1*
X4208684Y1858271D2*
Y1797983D1*
X4228780D1*
X4237402Y1800901D1*
X4243172Y1806605D1*
X4246024Y1812375D1*
X4248876Y1820931D1*
Y1835323D1*
X4246024Y1843945D1*
X4243172Y1849649D1*
X4237402Y1855419D1*
X4228780Y1858271D1*
X4208684D1*
X4088393Y1507950D2*
X4114260D1*
X4122815Y1510802D1*
X4125734Y1513720D1*
X4128585Y1519424D1*
Y1528046D1*
X4125734Y1533750D1*
X4122815Y1536668D1*
X4114260Y1539520D1*
X4088393D1*
Y1479232D1*
X4164357Y1539520D2*
X4158587Y1536668D1*
X4152883Y1530898D1*
X4149964Y1525194D1*
X4147113Y1516572D1*
Y1502180D1*
X4149964Y1493624D1*
X4152883Y1487854D1*
X4158587Y1482150D1*
X4164357Y1479232D1*
X4175831D1*
X4181534Y1482150D1*
X4187305Y1487854D1*
X4190156Y1493624D1*
X4193008Y1502180D1*
Y1516572D1*
X4190156Y1525194D1*
X4187305Y1530898D1*
X4181534Y1536668D1*
X4175831Y1539520D1*
X4164357D1*
X4251727Y1530898D2*
X4246024Y1536668D1*
X4237402Y1539520D1*
X4225928D1*
X4217306Y1536668D1*
X4211535Y1530898D1*
Y1525194D1*
X4214454Y1519424D1*
X4217306Y1516572D1*
X4223009Y1513720D1*
X4240254Y1507950D1*
X4246024Y1505098D1*
X4248876Y1502180D1*
X4251727Y1496476D1*
Y1487854D1*
X4246024Y1482150D1*
X4237402Y1479232D1*
X4225928D1*
X4217306Y1482150D1*
X4211535Y1487854D1*
X4088393Y2907950D2*
X4114260D1*
X4122815Y2910802D1*
X4125734Y2913720D1*
X4128585Y2919424D1*
Y2928046D1*
X4125734Y2933750D1*
X4122815Y2936668D1*
X4114260Y2939520D1*
X4088393D1*
Y2879232D1*
X4164357Y2939520D2*
X4158587Y2936668D1*
X4152883Y2930898D1*
X4149964Y2925194D1*
X4147113Y2916572D1*
Y2902180D1*
X4149964Y2893624D1*
X4152883Y2887854D1*
X4158587Y2882150D1*
X4164357Y2879232D1*
X4175831D1*
X4181534Y2882150D1*
X4187305Y2887854D1*
X4190156Y2893624D1*
X4193008Y2902180D1*
Y2916572D1*
X4190156Y2925194D1*
X4187305Y2930898D1*
X4181534Y2936668D1*
X4175831Y2939520D1*
X4164357D1*
X4251727Y2930898D2*
X4246024Y2936668D1*
X4237402Y2939520D1*
X4225928D1*
X4217306Y2936668D1*
X4211535Y2930898D1*
Y2925194D1*
X4214454Y2919424D1*
X4217306Y2916572D1*
X4223009Y2913720D1*
X4240254Y2907950D1*
X4246024Y2905098D1*
X4248876Y2902180D1*
X4251727Y2896476D1*
Y2887854D1*
X4246024Y2882150D1*
X4237402Y2879232D1*
X4225928D1*
X4217306Y2882150D1*
X4211535Y2887854D1*
X4131437Y3243945D2*
X4128585Y3249649D1*
X4122815Y3255419D1*
X4117112Y3258271D1*
X4105638D1*
X4099867Y3255419D1*
X4094164Y3249649D1*
X4091245Y3243945D1*
X4088393Y3235323D1*
Y3220931D1*
X4091245Y3212375D1*
X4094164Y3206605D1*
X4099867Y3200901D1*
X4105638Y3197983D1*
X4117112D1*
X4122815Y3200901D1*
X4128585Y3206605D1*
X4131437Y3212375D1*
Y3220931D1*
X4117112D1*
X4190156Y3258271D2*
Y3197983D1*
X4149964Y3258271D1*
Y3197983D1*
X4208684Y3258271D2*
Y3197983D1*
X4228780D1*
X4237402Y3200901D1*
X4243172Y3206605D1*
X4246024Y3212375D1*
X4248876Y3220931D1*
Y3235323D1*
X4246024Y3243945D1*
X4243172Y3249649D1*
X4237402Y3255419D1*
X4228780Y3258271D1*
X4208684D1*
X4131437Y1243945D2*
X4128585Y1249649D1*
X4122815Y1255419D1*
X4117112Y1258271D1*
X4105638D1*
X4099867Y1255419D1*
X4094164Y1249649D1*
X4091245Y1243945D1*
X4088393Y1235323D1*
Y1220931D1*
X4091245Y1212375D1*
X4094164Y1206605D1*
X4099867Y1200901D1*
X4105638Y1197983D1*
X4117112D1*
X4122815Y1200901D1*
X4128585Y1206605D1*
X4131437Y1212375D1*
Y1220931D1*
X4117112D1*
X4190156Y1258271D2*
Y1197983D1*
X4149964Y1258271D1*
Y1197983D1*
X4208684Y1258271D2*
Y1197983D1*
X4228780D1*
X4237402Y1200901D1*
X4243172Y1206605D1*
X4246024Y1212375D1*
X4248876Y1220931D1*
Y1235323D1*
X4246024Y1243945D1*
X4243172Y1249649D1*
X4237402Y1255419D1*
X4228780Y1258271D1*
X4208684D1*
X4088393Y882950D2*
X4114260D1*
X4122815Y885802D1*
X4125734Y888720D1*
X4128585Y894424D1*
Y903046D1*
X4125734Y908750D1*
X4122815Y911668D1*
X4114260Y914520D1*
X4088393D1*
Y854232D1*
X4164357Y914520D2*
X4158587Y911668D1*
X4152883Y905898D1*
X4149964Y900194D1*
X4147113Y891572D1*
Y877180D1*
X4149964Y868624D1*
X4152883Y862854D1*
X4158587Y857150D1*
X4164357Y854232D1*
X4175831D1*
X4181534Y857150D1*
X4187305Y862854D1*
X4190156Y868624D1*
X4193008Y877180D1*
Y891572D1*
X4190156Y900194D1*
X4187305Y905898D1*
X4181534Y911668D1*
X4175831Y914520D1*
X4164357D1*
X4251727Y905898D2*
X4246024Y911668D1*
X4237402Y914520D1*
X4225928D1*
X4217306Y911668D1*
X4211535Y905898D1*
Y900194D1*
X4214454Y894424D1*
X4217306Y891572D1*
X4223009Y888720D1*
X4240254Y882950D1*
X4246024Y880098D1*
X4248876Y877180D1*
X4251727Y871476D1*
Y862854D1*
X4246024Y857150D1*
X4237402Y854232D1*
X4225928D1*
X4217306Y857150D1*
X4211535Y862854D1*
X480623Y1569641D2*
D140*
X479673Y1571543D1*
X477749Y1573466D1*
X475848Y1574417D1*
X472023D1*
X470100Y1573466D1*
X468199Y1571543D1*
X467226Y1569641D1*
X466275Y1566767D1*
Y1561970D1*
X467226Y1559118D1*
X468199Y1557195D1*
X470100Y1555293D1*
X472023Y1554321D1*
X475848D1*
X477749Y1555293D1*
X479673Y1557195D1*
X480623Y1559118D1*
Y1561970D1*
X475848D1*
X500196Y1574417D2*
Y1554321D1*
X486799Y1574417D1*
Y1554321D1*
X506372Y1574417D2*
Y1554321D1*
X513071D1*
X515945Y1555293D1*
X517868Y1557195D1*
X518819Y1559118D1*
X519769Y1561970D1*
Y1566767D1*
X518819Y1569641D1*
X517868Y1571543D1*
X515945Y1573466D1*
X513071Y1574417D1*
X506372D1*
X3634520Y2768951D2*
D141*
X3694808D1*
Y2794817D1*
X3691890Y2803439D1*
X3689038Y2806291D1*
X3683334Y2809143D1*
X3674712D1*
X3668942Y2806291D1*
X3666090Y2803439D1*
X3663238Y2794817D1*
X3660320Y2803439D1*
X3657468Y2806291D1*
X3651764Y2809143D1*
X3645994D1*
X3640290Y2806291D1*
X3637372Y2803439D1*
X3634520Y2794817D1*
Y2768951D1*
X3663238D2*
Y2794817D1*
X3654616Y2862092D2*
X3694808D1*
X3663238D2*
X3657468Y2856388D1*
X3654616Y2850618D1*
Y2842063D1*
X3657468Y2836292D1*
X3663238Y2830589D1*
X3671860Y2827670D1*
X3677564D1*
X3686186Y2830589D1*
X3691890Y2836292D1*
X3694808Y2842062D1*
Y2850618D1*
X3691890Y2856388D1*
X3686186Y2862092D1*
X3634520Y2889241D2*
X3683334D1*
X3691890Y2892093D1*
X3694808Y2897863D1*
Y2903567D1*
X3654616Y2880619D2*
Y2900715D1*
X3648846Y3023459D2*
X3643142Y3020607D1*
X3637372Y3014837D1*
X3634520Y3009133D1*
Y2997660D1*
X3637372Y2991889D1*
X3643142Y2986186D1*
X3648846Y2983267D1*
X3657468Y2980415D1*
X3671860D1*
X3680416Y2983267D1*
X3686186Y2986186D1*
X3691890Y2991889D1*
X3694808Y2997660D1*
Y3009133D1*
X3691890Y3014837D1*
X3686186Y3020607D1*
X3680416Y3023459D1*
X3634520Y3041986D2*
X3694808D1*
X3666090D2*
X3657468Y3050608D1*
X3654616Y3056379D1*
Y3065001D1*
X3657468Y3070704D1*
X3666090Y3073556D1*
X3694808D1*
X3654616Y3126505D2*
X3694808D1*
X3663238D2*
X3657468Y3120802D1*
X3654616Y3115031D1*
Y3106476D1*
X3657468Y3100706D1*
X3663238Y3095002D1*
X3671860Y3092083D1*
X3677564D1*
X3686186Y3095002D1*
X3691890Y3100706D1*
X3694808Y3106476D1*
Y3115031D1*
X3691890Y3120802D1*
X3686186Y3126505D1*
X3654616Y3145032D2*
X3694808D1*
X3671860D2*
X3663238Y3147951D1*
X3657468Y3153654D1*
X3654616Y3159425D1*
Y3168047D1*
X3657468Y3220996D2*
X3703430D1*
X3711986Y3218144D1*
X3714904Y3215292D1*
X3717756Y3209522D1*
Y3200900D1*
X3714904Y3195196D1*
X3666090Y3220996D2*
X3660386Y3215292D1*
X3657468Y3209522D1*
Y3200900D1*
X3660386Y3195196D1*
X3666090Y3189426D1*
X3674712Y3186574D1*
X3680482D1*
X3689038Y3189426D1*
X3694808Y3195196D1*
X3697660Y3200900D1*
Y3209522D1*
X3694808Y3215292D1*
X3689038Y3220996D1*
X3671860Y3239523D2*
Y3273945D1*
X3666090D1*
X3660320Y3271093D1*
X3657468Y3268241D1*
X3654616Y3262471D1*
Y3253849D1*
X3657468Y3248145D1*
X3663238Y3242375D1*
X3671860Y3239523D1*
X3677564D1*
X3686186Y3242375D1*
X3691890Y3248145D1*
X3694808Y3253849D1*
Y3262471D1*
X3691890Y3268241D1*
X3686186Y3273945D1*
X3634520Y2368951D2*
X3694808D1*
Y2394817D1*
X3691890Y2403439D1*
X3689038Y2406291D1*
X3683334Y2409143D1*
X3674712D1*
X3668942Y2406291D1*
X3666090Y2403439D1*
X3663238Y2394817D1*
X3660320Y2403439D1*
X3657468Y2406291D1*
X3651764Y2409143D1*
X3645994D1*
X3640290Y2406291D1*
X3637372Y2403439D1*
X3634520Y2394817D1*
Y2368951D1*
X3663238D2*
Y2394817D1*
X3654616Y2462092D2*
X3694808D1*
X3663238D2*
X3657468Y2456388D1*
X3654616Y2450618D1*
Y2442063D1*
X3657468Y2436292D1*
X3663238Y2430589D1*
X3671860Y2427670D1*
X3677564D1*
X3686186Y2430589D1*
X3691890Y2436292D1*
X3694808Y2442062D1*
Y2450618D1*
X3691890Y2456388D1*
X3686186Y2462092D1*
X3634520Y2489241D2*
X3683334D1*
X3691890Y2492093D1*
X3694808Y2497863D1*
Y2503567D1*
X3654616Y2480619D2*
Y2500715D1*
X3433969Y1955542D2*
X3396695D1*
Y1895254D1*
X3433969D1*
X3396695Y1926824D2*
X3419643D1*
X3495540Y1941217D2*
X3492688Y1946920D1*
X3486918Y1952691D1*
X3481214Y1955542D1*
X3469740D1*
X3463970Y1952691D1*
X3458266Y1946920D1*
X3455348Y1941217D1*
X3452496Y1932595D1*
Y1918202D1*
X3455348Y1909647D1*
X3458266Y1903877D1*
X3463970Y1898173D1*
X3469740Y1895254D1*
X3481214D1*
X3486918Y1898173D1*
X3492688Y1903877D1*
X3495540Y1909647D1*
X3572388Y1923973D2*
X3598254D1*
X3606810Y1926824D1*
X3609728Y1929743D1*
X3612580Y1935446D1*
Y1944069D1*
X3609728Y1949772D1*
X3606810Y1952691D1*
X3598254Y1955542D1*
X3572388D1*
Y1895254D1*
X3645433Y1935446D2*
X3639729Y1932595D1*
X3633959Y1926824D1*
X3631107Y1918202D1*
Y1912499D1*
X3633959Y1903877D1*
X3639729Y1898173D1*
X3645433Y1895254D1*
X3654055D1*
X3659825Y1898173D1*
X3665529Y1903877D1*
X3668448Y1912499D1*
Y1918202D1*
X3665529Y1926824D1*
X3659825Y1932595D1*
X3654055Y1935446D1*
X3645433D1*
X3686975D2*
X3698449Y1895254D1*
X3709923Y1935446D1*
X3721396Y1895254D1*
X3732870Y1935446D1*
X3751398Y1918202D2*
X3785819D1*
Y1923973D1*
X3782967Y1929743D1*
X3780116Y1932595D1*
X3774345Y1935446D1*
X3765723D1*
X3760020Y1932595D1*
X3754249Y1926824D1*
X3751398Y1918202D1*
Y1912499D1*
X3754249Y1903877D1*
X3760020Y1898173D1*
X3765723Y1895254D1*
X3774345D1*
X3780116Y1898173D1*
X3785819Y1903877D1*
X3804347Y1935446D2*
Y1895254D1*
Y1918202D2*
X3807265Y1926824D1*
X3812969Y1932595D1*
X3818739Y1935446D1*
X3827361D1*
X4165253Y668075D2*
X4127913D1*
Y607787D1*
Y639357D2*
X4150861D1*
X4226824Y653749D2*
X4223972Y659453D1*
X4218202Y665223D1*
X4212498Y668075D1*
X4201024D1*
X4195254Y665223D1*
X4189550Y659453D1*
X4186632Y653749D1*
X4183780Y645127D1*
Y630735D1*
X4186632Y622179D1*
X4189550Y616409D1*
X4195254Y610706D1*
X4201024Y607787D1*
X4212498D1*
X4218202Y610706D1*
X4223972Y616409D1*
X4226824Y622179D1*
X4303673Y636505D2*
X4329539D1*
X4338094Y639357D1*
X4341013Y642275D1*
X4343865Y647979D1*
Y656601D1*
X4341013Y662305D1*
X4338094Y665223D1*
X4329539Y668075D1*
X4303673D1*
Y607787D1*
X4376717Y647979D2*
X4371014Y645127D1*
X4365244Y639357D1*
X4362392Y630735D1*
Y625031D1*
X4365244Y616409D1*
X4371014Y610706D1*
X4376717Y607787D1*
X4385340D1*
X4391110Y610706D1*
X4396813Y616409D1*
X4399732Y625031D1*
Y630735D1*
X4396813Y639357D1*
X4391110Y645127D1*
X4385340Y647979D1*
X4376717D1*
X4418259D2*
X4429733Y607787D1*
X4441207Y647979D1*
X4452681Y607787D1*
X4464155Y647979D1*
X4482682Y630735D2*
X4517104D1*
Y636505D1*
X4514252Y642275D1*
X4511400Y645127D1*
X4505630Y647979D1*
X4497008D1*
X4491304Y645127D1*
X4485534Y639357D1*
X4482682Y630735D1*
Y625031D1*
X4485534Y616409D1*
X4491304Y610706D1*
X4497008Y607787D1*
X4505630D1*
X4511400Y610706D1*
X4517104Y616409D1*
X4535631Y647979D2*
Y607787D1*
Y630735D2*
X4538549Y639357D1*
X4544253Y645127D1*
X4550023Y647979D1*
X4558645D1*
X526195Y1326676D2*
D139*
X495078D1*
Y1276436D1*
Y1302744D2*
X514201D1*
X577504Y1314737D2*
X575128Y1319491D1*
X570319Y1324299D1*
X565566Y1326676D1*
X556004D1*
X551196Y1324299D1*
X546443Y1319491D1*
X544011Y1314737D1*
X541634Y1307552D1*
Y1295559D1*
X544011Y1288429D1*
X546443Y1283621D1*
X551196Y1278868D1*
X556004Y1276436D1*
X565566D1*
X570319Y1278868D1*
X575128Y1283621D1*
X577504Y1288429D1*
X479673Y1674417D2*
D140*
Y1654321D1*
X466275Y1674417D1*
Y1654321D1*
X500196Y1669641D2*
X499246Y1671543D1*
X497322Y1673466D1*
X495421Y1674417D1*
X491596D1*
X489673Y1673466D1*
X487772Y1671543D1*
X486799Y1669641D1*
X485848Y1666767D1*
Y1661970D1*
X486799Y1659118D1*
X487772Y1657195D1*
X489673Y1655293D1*
X491596Y1654321D1*
X495421D1*
X497322Y1655293D1*
X499246Y1657195D1*
X500196Y1659118D1*
X557379Y2464232D2*
D139*
X526317D1*
Y2413992D1*
X557379D1*
X526317Y2440300D2*
X545440D1*
X608688Y2452294D2*
X606311Y2457047D1*
X601503Y2461856D1*
X596749Y2464232D1*
X587188D1*
X582379Y2461856D1*
X577626Y2457047D1*
X575194Y2452294D1*
X572818Y2445109D1*
Y2433115D1*
X575194Y2425986D1*
X577626Y2421177D1*
X582379Y2416424D1*
X587188Y2413992D1*
X596749D1*
X601503Y2416424D1*
X606311Y2421177D1*
X608688Y2425986D1*
X2106566Y3650622D2*
D140*
X2105615Y3652523D1*
X2103692Y3654446D1*
X2101790Y3655397D1*
X2097966D1*
X2096042Y3654446D1*
X2094141Y3652523D1*
X2093168Y3650622D1*
X2092218Y3647748D1*
Y3642950D1*
X2093168Y3640098D1*
X2094141Y3638175D1*
X2096042Y3636274D1*
X2097966Y3635301D1*
X2101790D1*
X2103692Y3636274D1*
X2105615Y3638175D1*
X2106566Y3640098D1*
Y3642950D1*
X2101790D1*
X2126139Y3655397D2*
Y3635301D1*
X2112741Y3655397D1*
Y3635301D1*
X2132314Y3655397D2*
Y3635301D1*
X2139013D1*
X2141887Y3636274D1*
X2143810Y3638175D1*
X2144761Y3640098D1*
X2145712Y3642950D1*
Y3647748D1*
X2144761Y3650622D1*
X2143810Y3652523D1*
X2141887Y3654446D1*
X2139013Y3655397D1*
X2132314D1*
X2267199Y3563632D2*
X2275821D1*
X2278673Y3564583D1*
X2279646Y3565555D1*
X2280597Y3567457D1*
Y3570331D1*
X2279646Y3572232D1*
X2278673Y3573205D1*
X2275821Y3574155D1*
X2267199D1*
Y3554059D1*
X2291548Y3567457D2*
X2289646Y3566506D1*
X2287723Y3564583D1*
X2286772Y3561709D1*
Y3559807D1*
X2287723Y3556933D1*
X2289646Y3555032D1*
X2291548Y3554059D1*
X2294422D1*
X2296345Y3555032D1*
X2298246Y3556933D1*
X2299219Y3559807D1*
Y3561709D1*
X2298246Y3564583D1*
X2296345Y3566506D1*
X2294422Y3567457D1*
X2291548D1*
X2305395D2*
X2309219Y3554059D1*
X2313044Y3567457D1*
X2316869Y3554059D1*
X2320693Y3567457D1*
X2326869Y3561709D2*
X2338343D1*
Y3563632D1*
X2337392Y3565555D1*
X2336442Y3566506D1*
X2334518Y3567457D1*
X2331644D1*
X2329743Y3566506D1*
X2327820Y3564583D1*
X2326869Y3561709D1*
Y3559807D1*
X2327820Y3556933D1*
X2329743Y3555032D1*
X2331644Y3554059D1*
X2334518D1*
X2336442Y3555032D1*
X2338343Y3556933D1*
X2344519Y3567457D2*
Y3554059D1*
Y3561709D2*
X2345491Y3564583D1*
X2347393Y3566506D1*
X2349316Y3567457D1*
X2352190D1*
X2377806Y3574155D2*
Y3554059D1*
X2389280D1*
X2407880Y3574155D2*
X2395456D1*
Y3554059D1*
X2407880D1*
X2395456Y3564583D2*
X2403105D1*
X2414056Y3574155D2*
Y3554059D1*
X2420755D1*
X2423629Y3555032D1*
X2425552Y3556933D1*
X2426503Y3558857D1*
X2427453Y3561709D1*
Y3566506D1*
X2426503Y3569380D1*
X2425552Y3571281D1*
X2423629Y3573205D1*
X2420755Y3574155D1*
X2414056D1*
X1651842Y2581998D2*
D143*
Y2513110D1*
X1617442Y2547510D2*
X1686330D1*
X2806291Y1380989D2*
X2737403D1*
X2771803Y1415388D2*
Y1346500D1*
X2762830Y920352D2*
Y989240D1*
X2797230Y954840D2*
X2728342D1*
M02*
