%TF.GenerationSoftware,Novarm,DipTrace,3.3.1.1*%
%TF.CreationDate,2019-02-09T17:58:52-08:00*%
%FSLAX26Y26*%
%MOIN*%
%TF.FileFunction,Soldermask,Bot*%
%TF.Part,Single*%
%ADD65C,0.09*%
%ADD66C,0.125*%
%ADD76C,0.066935*%
%ADD78C,0.086896*%
%ADD112C,0.074809*%
%ADD114R,0.074809X0.074809*%
%ADD116O,0.12599X0.263786*%
%ADD118C,0.06788*%
%ADD120C,0.066935*%
%ADD122R,0.066935X0.066935*%
%ADD126C,0.118116*%
%ADD128R,0.118116X0.118116*%
%ADD140C,0.106305*%
%ADD142C,0.110242*%
G75*
G01*
%LPD*%
D142*
X1566501Y3137749D3*
X1769257D3*
Y3340505D3*
X1566501D3*
D140*
X1667879Y3239127D3*
D128*
X2178999Y1850249D3*
D126*
Y1108517D3*
D122*
X578992Y1575106D3*
D120*
Y1675106D3*
Y1775106D3*
D118*
X3416194Y3343671D3*
Y2556269D3*
D116*
X3897661Y2550570D3*
Y2239546D3*
X3897749Y1200463D3*
Y889440D3*
Y3225249D3*
Y2914226D3*
Y1875392D3*
Y1564369D3*
D122*
X1341500Y643999D3*
D120*
X1441500D3*
D114*
X744000Y500249D3*
D112*
X844000D3*
X944000D3*
X1044000D3*
X1144000D3*
X1244000D3*
D114*
X1597751Y762749D3*
D112*
Y939915D3*
X1341845D3*
Y762749D3*
D78*
X2897749Y581499D3*
X2997749D3*
X3097749D3*
X3197749D3*
X3297749D3*
X3397749D3*
X3497749D3*
X3597749D3*
X3697749D3*
D65*
X2897749Y1741499D3*
X3697749D3*
D66*
X549000Y3539000D3*
X2722751Y2056500D3*
X549000Y549000D3*
X4874000D3*
Y3539000D3*
D76*
X1962749Y1862749D3*
X700249Y1019000D3*
X731500Y956500D3*
X1000249Y2450249D3*
X1175249Y2312749D3*
X1150249Y2425249D3*
X1262749Y2419000D3*
X1337749Y2431500D3*
X3356500Y819000D3*
M02*
