%TF.GenerationSoftware,Novarm,DipTrace,3.3.1.1*%
%TF.CreationDate,2019-02-09T17:58:50-08:00*%
%FSLAX26Y26*%
%MOIN*%
%TF.FileFunction,Copper,L2,Bot*%
%TF.Part,Single*%
%TA.AperFunction,Conductor*%
%ADD17C,0.008*%
%TA.AperFunction,CopperBalancing*%
%ADD22C,0.025*%
%TA.AperFunction,ComponentPad*%
%ADD24C,0.102362*%
%ADD25C,0.098425*%
%ADD32R,0.110236X0.110236*%
%ADD33C,0.110236*%
%ADD35R,0.059055X0.059055*%
%ADD36C,0.059055*%
%ADD37C,0.06*%
%ADD38O,0.11811X0.255906*%
%ADD39R,0.066929X0.066929*%
%ADD40C,0.066929*%
%ADD61C,0.079016*%
%ADD62C,0.059055*%
%TA.AperFunction,ViaPad*%
%ADD63C,0.034*%
G75*
G01*
%LPD*%
X1191499Y2068999D2*
D17*
Y2134001D1*
X1056500Y2269000D1*
Y2393999D1*
X1000249Y2450249D1*
X1050249Y819000D2*
X1069000D1*
X1081500Y831500D1*
Y1147751D1*
X935251Y1294000D1*
Y1746244D1*
X966652Y1777646D1*
X1560251Y1275251D2*
X1735247D1*
X1791499Y1218999D1*
X1797751Y1850251D2*
X1910251Y1962751D1*
Y2206501D1*
X2279000Y2575251D1*
Y3049764D1*
X2053837Y3274927D1*
X1213681Y3380711D2*
X1415711D1*
X1510251Y3475251D1*
X1853513D1*
X2053837Y3274927D1*
X966652Y1777646D2*
Y1768848D1*
X1097749Y1637751D1*
X1560251Y1275251D2*
X1522530D1*
X1253923Y1543858D1*
X1191642D1*
X1097749Y1637751D1*
X1337749Y2431500D2*
X1343999D1*
X1762749Y2012749D1*
Y1950249D1*
X1691500Y1879000D1*
Y1669000D1*
X1622749Y1443999D2*
X1604003D1*
X1510251Y1537751D1*
Y1956500D1*
X1472751Y1994000D1*
X1372749D1*
X1085189Y2281560D1*
Y3024953D1*
X1047693Y3062449D1*
Y3068699D1*
X1322664Y1556358D2*
Y1540335D1*
X1537749Y1325249D1*
X2181500D1*
X2412749Y1094000D1*
X3081500D1*
X3356500Y819000D1*
X844000Y500249D2*
X850249D1*
X912749Y437749D1*
X1337749D1*
X1519000Y619000D1*
Y762760D1*
X1341845Y939915D1*
X1044000Y500249D2*
Y744000D1*
X1150249Y850249D1*
Y1150251D1*
X1019000Y1281500D1*
Y1359000D1*
X1054000Y1394000D1*
X3397749Y581499D2*
X3397751D1*
Y600247D1*
X3341499Y656499D1*
X2810251D1*
X2747751Y593999D1*
X2522751D1*
X2485251Y631499D1*
X2116500D1*
X1254000Y1493999D1*
X1103999D1*
X3297749Y581499D2*
Y543997D1*
X3266501Y512749D1*
X2560248D1*
X2466499Y606499D1*
X2097751D1*
X1254000Y1450249D1*
X1166499D1*
X1647749Y1562751D2*
X1685249Y1525251D1*
X2541500D1*
X2997749Y1981500D1*
Y2707735D1*
X3470235Y3180220D1*
X722728Y2350024D2*
X847975D1*
X1435249Y1762749D1*
Y1694000D1*
X1428999D1*
X1241499Y1637751D2*
Y1656501D1*
X972749Y1925251D1*
Y1962517D1*
X878962Y2056304D1*
X1550249Y1806500D2*
X1545032D1*
X1541391Y1810140D1*
Y1550109D1*
X1591387Y1500113D1*
X2703769D1*
X2785011Y1581354D1*
X3354147D1*
X3360251Y1575251D1*
D63*
X2122751Y2300249D3*
X3470235Y3180220D3*
X3360251Y1575251D3*
X1647749Y1562751D3*
X1622749Y1443999D3*
X1191499Y2068999D3*
X1550249Y1806500D3*
X966652Y1777646D3*
X935251Y1294000D3*
X1050249Y819000D3*
X1103999Y1493999D3*
X1166499Y1450249D3*
X1054000Y1394000D3*
X616488Y1225142D3*
X1791499Y1218999D3*
X1560251Y1275251D3*
X1322664Y1556358D3*
X741476Y2237535D3*
X1097749Y1637751D3*
X1469000Y2119000D3*
X1331501Y1087749D3*
X793730Y1368167D3*
X1341412Y2881218D3*
X2685249Y662751D3*
X960203Y1093906D3*
X1213681Y3380711D3*
X3281500Y819000D3*
X3260249Y1656500D3*
X3472751Y1075249D3*
X878962Y2056304D3*
X1241499Y1637751D3*
X722728Y2350024D3*
X1428999Y1694000D3*
X1047693Y3068699D3*
X1785251Y1837751D3*
X2053837Y3274927D3*
X1619000Y1756500D3*
X1691500Y1669000D3*
X1485126Y525226D3*
X685232Y3074949D3*
X535247Y2631244D3*
X847751Y3581500D3*
X2485251Y3106499D3*
X2135251Y2743999D3*
X1654000Y3525251D3*
X3010249Y3175251D3*
X2597749Y3312749D3*
X2997749Y3550249D3*
X2641276Y2287532D3*
X4010251Y3600249D3*
X4310605Y3475570D3*
X4510249Y3600249D3*
X657624Y3626631D2*
D22*
X4765383D1*
X673988Y3601762D2*
X4749020D1*
X683820Y3576894D2*
X4739187D1*
X688521Y3552025D2*
X4734486D1*
X688628Y3527156D2*
X4734379D1*
X684143Y3502287D2*
X1493642D1*
X1870115D2*
X4738864D1*
X674598Y3477419D2*
X1466801D1*
X1896992D2*
X4748410D1*
X658593Y3452550D2*
X1441933D1*
X1921860D2*
X4764414D1*
X439018Y3427681D2*
X465560D1*
X632434D2*
X1417065D1*
X1508331D2*
X1855462D1*
X1946728D2*
X4790573D1*
X4957447D2*
X4983989D1*
X439018Y3402812D2*
X526635D1*
X571395D2*
X1173699D1*
X1483463D2*
X1517613D1*
X1615409D2*
X1720358D1*
X1818155D2*
X1880330D1*
X1971596D2*
X4851612D1*
X4896372D2*
X4983989D1*
X439018Y3377944D2*
X1167778D1*
X1458559D2*
X1495939D1*
X1637083D2*
X1698684D1*
X1839829D2*
X1905198D1*
X1996463D2*
X3368770D1*
X3463624D2*
X3878003D1*
X3917523D2*
X4983989D1*
X439018Y3353075D2*
X1177574D1*
X1431108D2*
X1487326D1*
X1645660D2*
X1690108D1*
X1848405D2*
X1930066D1*
X2021331D2*
X3357969D1*
X3474390D2*
X3833219D1*
X3962271D2*
X4983989D1*
X439018Y3328206D2*
X1487291D1*
X1645695D2*
X1690072D1*
X1848441D2*
X1954933D1*
X2046199D2*
X3359369D1*
X3473026D2*
X3816748D1*
X3978742D2*
X4983989D1*
X439018Y3303337D2*
X1495795D1*
X1839972D2*
X1979801D1*
X2089260D2*
X3374117D1*
X3458278D2*
X3810182D1*
X3985309D2*
X4983989D1*
X439018Y3278469D2*
X1517254D1*
X1818514D2*
X2004669D1*
X2099702D2*
X3809679D1*
X3985811D2*
X4983989D1*
X439018Y3253600D2*
X1591068D1*
X1744700D2*
X2013425D1*
X2120802D2*
X3809679D1*
X3985811D2*
X4983989D1*
X439018Y3228731D2*
X1590386D1*
X1745382D2*
X2054404D1*
X2145670D2*
X3809679D1*
X3985811D2*
X4983989D1*
X439018Y3203862D2*
X1523211D1*
X1812557D2*
X2079272D1*
X2170538D2*
X3431209D1*
X3509233D2*
X3809679D1*
X3985811D2*
X4983989D1*
X439018Y3178993D2*
X1498163D1*
X1837568D2*
X2104140D1*
X2195405D2*
X3423386D1*
X3516230D2*
X3809679D1*
X3985811D2*
X4983989D1*
X439018Y3154125D2*
X1488080D1*
X1644942D2*
X1690826D1*
X1847688D2*
X2129007D1*
X2220273D2*
X3398518D1*
X3507546D2*
X3809715D1*
X3985775D2*
X4983989D1*
X439018Y3129256D2*
X1486788D1*
X1646234D2*
X1689534D1*
X1848979D2*
X2153875D1*
X2245141D2*
X3373650D1*
X3464916D2*
X3814093D1*
X3981397D2*
X4983989D1*
X439018Y3104387D2*
X1020330D1*
X1075065D2*
X1493857D1*
X1639165D2*
X1696603D1*
X1841910D2*
X2178743D1*
X2270009D2*
X3348783D1*
X3440048D2*
X3827298D1*
X3968228D2*
X4983989D1*
X439018Y3079518D2*
X1003069D1*
X1092325D2*
X1512589D1*
X1620433D2*
X1715335D1*
X1823179D2*
X2203611D1*
X2294876D2*
X3323915D1*
X3415181D2*
X3857621D1*
X3937870D2*
X4983989D1*
X439018Y3054650D2*
X1004038D1*
X1101117D2*
X2228478D1*
X2311598D2*
X3299047D1*
X3390313D2*
X3848291D1*
X3947200D2*
X4983989D1*
X439018Y3029781D2*
X1025748D1*
X1117803D2*
X2245990D1*
X2311993D2*
X3274144D1*
X3365445D2*
X3823531D1*
X3971960D2*
X4983989D1*
X439018Y3004912D2*
X1052195D1*
X1118198D2*
X2245990D1*
X2311993D2*
X3249276D1*
X3340577D2*
X3812514D1*
X3982976D2*
X4983989D1*
X439018Y2980043D2*
X1052195D1*
X1118198D2*
X2245990D1*
X2311993D2*
X3224408D1*
X3315674D2*
X3809679D1*
X3985811D2*
X4983989D1*
X439018Y2955175D2*
X1052195D1*
X1118198D2*
X2245990D1*
X2311993D2*
X3199540D1*
X3290806D2*
X3809679D1*
X3985811D2*
X4983989D1*
X439018Y2930306D2*
X1052195D1*
X1118198D2*
X2245990D1*
X2311993D2*
X3174673D1*
X3265938D2*
X3809679D1*
X3985811D2*
X4983989D1*
X439018Y2905437D2*
X1052195D1*
X1118198D2*
X2245990D1*
X2311993D2*
X3149805D1*
X3241071D2*
X3809679D1*
X3985811D2*
X4983989D1*
X439018Y2880568D2*
X1052195D1*
X1118198D2*
X2245990D1*
X2311993D2*
X3124937D1*
X3216203D2*
X3809679D1*
X3985811D2*
X4983989D1*
X439018Y2855699D2*
X1052195D1*
X1118198D2*
X2245990D1*
X2311993D2*
X3100069D1*
X3191335D2*
X3809679D1*
X3985811D2*
X4983989D1*
X439018Y2830831D2*
X1052195D1*
X1118198D2*
X2245990D1*
X2311993D2*
X3075202D1*
X3166467D2*
X3810935D1*
X3984555D2*
X4983989D1*
X439018Y2805962D2*
X1052195D1*
X1118198D2*
X2245990D1*
X2311993D2*
X3050334D1*
X3141600D2*
X3819296D1*
X3976194D2*
X4983989D1*
X439018Y2781093D2*
X1052195D1*
X1118198D2*
X2245990D1*
X2311993D2*
X3025466D1*
X3116732D2*
X3838745D1*
X3956745D2*
X4983989D1*
X439018Y2756224D2*
X1052195D1*
X1118198D2*
X2245990D1*
X2311993D2*
X3000598D1*
X3091864D2*
X4983989D1*
X439018Y2731356D2*
X1052195D1*
X1118198D2*
X2245990D1*
X2311993D2*
X2975731D1*
X3066996D2*
X4983989D1*
X439018Y2706487D2*
X1052195D1*
X1118198D2*
X2245990D1*
X2311993D2*
X2964750D1*
X3042129D2*
X4983989D1*
X439018Y2681618D2*
X1052195D1*
X1118198D2*
X2245990D1*
X2311993D2*
X2964750D1*
X3030753D2*
X3836377D1*
X3958970D2*
X4983989D1*
X439018Y2656749D2*
X1052195D1*
X1118198D2*
X2245990D1*
X2311993D2*
X2964750D1*
X3030753D2*
X3818148D1*
X3977163D2*
X4983989D1*
X439018Y2631881D2*
X1052195D1*
X1118198D2*
X2245990D1*
X2311993D2*
X2964750D1*
X3030753D2*
X3810505D1*
X3984806D2*
X4983989D1*
X439018Y2607012D2*
X1052195D1*
X1118198D2*
X2245990D1*
X2311993D2*
X2964750D1*
X3030753D2*
X3388830D1*
X3443529D2*
X3809607D1*
X3985703D2*
X4983989D1*
X439018Y2582143D2*
X1052195D1*
X1118198D2*
X2240248D1*
X2311993D2*
X2964750D1*
X3030753D2*
X3363459D1*
X3468935D2*
X3809607D1*
X3985703D2*
X4983989D1*
X439018Y2557274D2*
X1052195D1*
X1118198D2*
X2215381D1*
X2306144D2*
X2964750D1*
X3030753D2*
X3357216D1*
X3475179D2*
X3809607D1*
X3985703D2*
X4983989D1*
X439018Y2532406D2*
X1052195D1*
X1118198D2*
X2190513D1*
X2281779D2*
X2964750D1*
X3030753D2*
X3362491D1*
X3469904D2*
X3809607D1*
X3985703D2*
X4983989D1*
X439018Y2507537D2*
X1052195D1*
X1118198D2*
X2165645D1*
X2256911D2*
X2964750D1*
X3030753D2*
X3385098D1*
X3447297D2*
X3809607D1*
X3985703D2*
X4983989D1*
X439018Y2482668D2*
X952042D1*
X1118198D2*
X1312427D1*
X1363072D2*
X2140778D1*
X2232043D2*
X2964750D1*
X3030753D2*
X3809607D1*
X3985703D2*
X4983989D1*
X439018Y2457799D2*
X942246D1*
X1198363D2*
X1219846D1*
X1389734D2*
X2115910D1*
X2207175D2*
X2964750D1*
X3030753D2*
X3813016D1*
X3982330D2*
X4983989D1*
X439018Y2432930D2*
X944471D1*
X1396265D2*
X2091042D1*
X2182308D2*
X2964750D1*
X3030753D2*
X3824858D1*
X3970488D2*
X4983989D1*
X439018Y2408062D2*
X960870D1*
X1413058D2*
X2066174D1*
X2157440D2*
X2964750D1*
X3030753D2*
X3851556D1*
X3943755D2*
X4983989D1*
X439018Y2383193D2*
X692097D1*
X753363D2*
X1021657D1*
X1189751D2*
X1217154D1*
X1437926D2*
X2041307D1*
X2132572D2*
X2964750D1*
X3030753D2*
X3853530D1*
X3941781D2*
X4983989D1*
X439018Y2358324D2*
X677528D1*
X885310D2*
X1023487D1*
X1118198D2*
X1140147D1*
X1210349D2*
X1371528D1*
X1462794D2*
X2016439D1*
X2107704D2*
X2964750D1*
X3030753D2*
X3825648D1*
X3969663D2*
X4983989D1*
X439018Y2333455D2*
X680004D1*
X910177D2*
X1023487D1*
X1229798D2*
X1396396D1*
X1487662D2*
X1991571D1*
X2082837D2*
X2964750D1*
X3030753D2*
X3813339D1*
X3981971D2*
X4983989D1*
X439018Y2308587D2*
X706989D1*
X738471D2*
X843779D1*
X935045D2*
X1023487D1*
X1233637D2*
X1421264D1*
X1512529D2*
X1966703D1*
X2057969D2*
X2964750D1*
X3030753D2*
X3809607D1*
X3985703D2*
X4983989D1*
X439018Y2283718D2*
X868647D1*
X959913D2*
X1023487D1*
X1225671D2*
X1446131D1*
X1537397D2*
X1941836D1*
X2033101D2*
X2964750D1*
X3030753D2*
X3809607D1*
X3985703D2*
X4983989D1*
X439018Y2258849D2*
X893515D1*
X984781D2*
X1025246D1*
X1193052D2*
X1470999D1*
X1562301D2*
X1916968D1*
X2008233D2*
X2964750D1*
X3030753D2*
X3809607D1*
X3985703D2*
X4983989D1*
X439018Y2233980D2*
X918383D1*
X1009648D2*
X1045879D1*
X1178412D2*
X1495867D1*
X1587168D2*
X1892100D1*
X1983366D2*
X2964750D1*
X3030753D2*
X3809607D1*
X3985703D2*
X4983989D1*
X439018Y2209112D2*
X943250D1*
X1034516D2*
X1070747D1*
X1203279D2*
X1520771D1*
X1612036D2*
X1877352D1*
X1958498D2*
X2964750D1*
X3030753D2*
X3809607D1*
X3985703D2*
X4983989D1*
X439018Y2184243D2*
X968118D1*
X1059384D2*
X1095615D1*
X1228147D2*
X1545638D1*
X1636904D2*
X1877244D1*
X1943247D2*
X2669029D1*
X2776478D2*
X2964750D1*
X3030753D2*
X3809607D1*
X3985703D2*
X4983989D1*
X439018Y2159374D2*
X992986D1*
X1084252D2*
X1120482D1*
X1253015D2*
X1570506D1*
X1661772D2*
X1877244D1*
X1943247D2*
X2628838D1*
X2816668D2*
X2964750D1*
X3030753D2*
X3810361D1*
X3984986D2*
X4983989D1*
X439018Y2134505D2*
X1017854D1*
X1109119D2*
X1145350D1*
X1277883D2*
X1595374D1*
X1686639D2*
X1877244D1*
X1943247D2*
X2606877D1*
X2838629D2*
X2964750D1*
X3030753D2*
X3817610D1*
X3977701D2*
X4983989D1*
X439018Y2109636D2*
X1042721D1*
X1133987D2*
X1158484D1*
X1302750D2*
X1620241D1*
X1711507D2*
X1877244D1*
X1943247D2*
X2593277D1*
X2852194D2*
X2964750D1*
X3030753D2*
X3835193D1*
X3960154D2*
X4983989D1*
X439018Y2084768D2*
X843564D1*
X914340D2*
X1067589D1*
X1327618D2*
X1645109D1*
X1736375D2*
X1877244D1*
X1943247D2*
X2585562D1*
X2859945D2*
X2964750D1*
X3030753D2*
X4983989D1*
X439018Y2059899D2*
X833122D1*
X924818D2*
X1092457D1*
X1236544D2*
X1261220D1*
X1352486D2*
X1669977D1*
X1761243D2*
X1877244D1*
X1943247D2*
X2582655D1*
X2862851D2*
X2964750D1*
X3030753D2*
X4983989D1*
X439018Y2035030D2*
X838504D1*
X945882D2*
X1117325D1*
X1221186D2*
X1286088D1*
X1377354D2*
X1694845D1*
X1786110D2*
X1877244D1*
X1943247D2*
X2584306D1*
X2861201D2*
X2964750D1*
X3030753D2*
X4983989D1*
X439018Y2010161D2*
X879484D1*
X970750D2*
X1142192D1*
X1233458D2*
X1310956D1*
X1502231D2*
X1719712D1*
X1795763D2*
X1877244D1*
X1943247D2*
X2590658D1*
X2854849D2*
X2964750D1*
X3030753D2*
X3840647D1*
X3954843D2*
X4983989D1*
X439018Y1985293D2*
X904352D1*
X995618D2*
X1167060D1*
X1258326D2*
X1335823D1*
X1527098D2*
X1729760D1*
X1795763D2*
X1877244D1*
X1943247D2*
X2602463D1*
X2843043D2*
X2955923D1*
X3030753D2*
X3820157D1*
X3975333D2*
X4983989D1*
X439018Y1960424D2*
X929220D1*
X1005737D2*
X1191928D1*
X1283193D2*
X1460700D1*
X1542995D2*
X1727284D1*
X1795763D2*
X1862280D1*
X1943175D2*
X2621697D1*
X2823809D2*
X2931055D1*
X3022285D2*
X3811222D1*
X3984268D2*
X4983989D1*
X439018Y1935555D2*
X939734D1*
X1008069D2*
X1216796D1*
X1308061D2*
X1477243D1*
X1543246D2*
X1702416D1*
X1791959D2*
X1837413D1*
X1928678D2*
X2654567D1*
X2790939D2*
X2906187D1*
X2997453D2*
X3809679D1*
X3985811D2*
X4983989D1*
X439018Y1910686D2*
X943466D1*
X1032937D2*
X1241663D1*
X1332929D2*
X1477243D1*
X1543246D2*
X1677549D1*
X1768814D2*
X1812545D1*
X1903810D2*
X1931250D1*
X1994239D2*
X2094882D1*
X2263119D2*
X2881319D1*
X2972585D2*
X3809679D1*
X3985811D2*
X4983989D1*
X439018Y1885818D2*
X966539D1*
X1057805D2*
X1266531D1*
X1357833D2*
X1477243D1*
X1543246D2*
X1659283D1*
X1743946D2*
X1787677D1*
X1878943D2*
X1909181D1*
X2016307D2*
X2094882D1*
X2263119D2*
X2856416D1*
X2947717D2*
X3809679D1*
X3985811D2*
X4983989D1*
X439018Y1860949D2*
X991407D1*
X1082673D2*
X1291399D1*
X1382700D2*
X1477243D1*
X1543246D2*
X1658494D1*
X1724497D2*
X1745944D1*
X1854075D2*
X1904265D1*
X2021259D2*
X2094882D1*
X2263119D2*
X2831548D1*
X2922850D2*
X3809679D1*
X3985811D2*
X4983989D1*
X439018Y1836080D2*
X1016275D1*
X1107540D2*
X1316302D1*
X1407568D2*
X1477243D1*
X1584656D2*
X1658494D1*
X1724497D2*
X1739269D1*
X1831217D2*
X1910975D1*
X2014513D2*
X2094882D1*
X2263119D2*
X2806680D1*
X2897946D2*
X3809679D1*
X3985811D2*
X4983989D1*
X439018Y1811211D2*
X533632D1*
X624324D2*
X936468D1*
X996838D2*
X1041142D1*
X1132408D2*
X1341170D1*
X1432436D2*
X1477243D1*
X1595996D2*
X1658494D1*
X1724497D2*
X1748276D1*
X1822210D2*
X1938283D1*
X1987241D2*
X2094882D1*
X2263119D2*
X2781813D1*
X2934404D2*
X3661083D1*
X3734406D2*
X3809679D1*
X3985811D2*
X4983989D1*
X439018Y1786343D2*
X521611D1*
X636381D2*
X921541D1*
X1011765D2*
X1066010D1*
X1157276D2*
X1366038D1*
X1457304D2*
X1477243D1*
X1591295D2*
X1658494D1*
X1724497D2*
X2094882D1*
X2263119D2*
X2756945D1*
X2963614D2*
X3631873D1*
X3763616D2*
X3812119D1*
X3983407D2*
X4983989D1*
X439018Y1761474D2*
X522150D1*
X635843D2*
X906326D1*
X1019660D2*
X1090878D1*
X1182144D2*
X1390906D1*
X1574394D2*
X1658494D1*
X1724497D2*
X2732077D1*
X2975276D2*
X3620247D1*
X3775278D2*
X3822490D1*
X3973000D2*
X4983989D1*
X439018Y1736605D2*
X535786D1*
X622207D2*
X902235D1*
X1044528D2*
X1115746D1*
X1207011D2*
X1402245D1*
X1574394D2*
X1658494D1*
X1724497D2*
X2707209D1*
X2798475D2*
X2817769D1*
X2977716D2*
X3617771D1*
X3777719D2*
X3845886D1*
X3949604D2*
X4983989D1*
X439018Y1711736D2*
X534099D1*
X623893D2*
X902235D1*
X1069395D2*
X1140613D1*
X1231915D2*
X1386779D1*
X1574394D2*
X1658494D1*
X1724497D2*
X2682342D1*
X2773607D2*
X2823546D1*
X2971939D2*
X3623548D1*
X3771941D2*
X3861173D1*
X3934353D2*
X4983989D1*
X439018Y1686867D2*
X521719D1*
X636273D2*
X902235D1*
X968238D2*
X1002998D1*
X1094263D2*
X1165481D1*
X1256783D2*
X1383585D1*
X1574394D2*
X1649344D1*
X1733648D2*
X2657474D1*
X2748739D2*
X2840089D1*
X2955397D2*
X3640091D1*
X3755399D2*
X3828554D1*
X3966936D2*
X4983989D1*
X439018Y1661999D2*
X522006D1*
X635950D2*
X902235D1*
X968238D2*
X1027865D1*
X1136355D2*
X1190385D1*
X1280107D2*
X1397042D1*
X1460964D2*
X1477243D1*
X1574394D2*
X1646078D1*
X1736949D2*
X2632606D1*
X2723872D2*
X3814667D1*
X3980823D2*
X4983989D1*
X439018Y1637130D2*
X535283D1*
X622673D2*
X902235D1*
X968238D2*
X1051764D1*
X1143999D2*
X1195516D1*
X1287500D2*
X1477243D1*
X1574394D2*
X1659391D1*
X1723600D2*
X2607738D1*
X2699004D2*
X3809787D1*
X3985703D2*
X4983989D1*
X439018Y1612261D2*
X520463D1*
X637529D2*
X902235D1*
X968238D2*
X1060018D1*
X1168866D2*
X1203734D1*
X1279246D2*
X1477243D1*
X1574394D2*
X2582871D1*
X2674136D2*
X3334896D1*
X3385612D2*
X3809679D1*
X3985811D2*
X4983989D1*
X439018Y1587392D2*
X520463D1*
X637529D2*
X902235D1*
X968238D2*
X1102469D1*
X1193734D2*
X1289676D1*
X1355644D2*
X1477243D1*
X1574394D2*
X1609404D1*
X1686101D2*
X2558003D1*
X2649269D2*
X2745426D1*
X3404523D2*
X3809679D1*
X3985811D2*
X4983989D1*
X439018Y1562524D2*
X520463D1*
X637529D2*
X902235D1*
X968238D2*
X1127336D1*
X1368239D2*
X1477243D1*
X1574609D2*
X1601761D1*
X1693744D2*
X2533135D1*
X2624401D2*
X2720558D1*
X3404344D2*
X3809679D1*
X3985811D2*
X4983989D1*
X439018Y1537655D2*
X520463D1*
X637529D2*
X902235D1*
X968238D2*
X1152204D1*
X1370966D2*
X1477243D1*
X2599533D2*
X2695691D1*
X2786956D2*
X3335864D1*
X3384643D2*
X3809679D1*
X3985811D2*
X4983989D1*
X439018Y1512786D2*
X902235D1*
X968238D2*
X1062278D1*
X1395834D2*
X1489587D1*
X2762088D2*
X3809679D1*
X3985811D2*
X4983989D1*
X439018Y1487917D2*
X902235D1*
X968238D2*
X1058439D1*
X1420702D2*
X1514455D1*
X2737221D2*
X3810038D1*
X3985488D2*
X4983989D1*
X439018Y1463049D2*
X902235D1*
X968238D2*
X1070926D1*
X1445569D2*
X1539323D1*
X1664355D2*
X3816067D1*
X3979424D2*
X4983989D1*
X439018Y1438180D2*
X902235D1*
X968238D2*
X1122205D1*
X1470437D2*
X1564190D1*
X1668374D2*
X3831712D1*
X3963778D2*
X4983989D1*
X439018Y1413311D2*
X902235D1*
X968238D2*
X1012507D1*
X1095483D2*
X1141008D1*
X1191976D2*
X1245288D1*
X1495305D2*
X1589417D1*
X1656066D2*
X3871400D1*
X3924126D2*
X4983989D1*
X439018Y1388442D2*
X902235D1*
X968238D2*
X1002818D1*
X1099646D2*
X1270191D1*
X1520173D2*
X4983989D1*
X439018Y1363573D2*
X902235D1*
X968238D2*
X986347D1*
X1087589D2*
X1295059D1*
X1545076D2*
X4983989D1*
X439018Y1338705D2*
X902235D1*
X968238D2*
X985989D1*
X1051992D2*
X1319927D1*
X2213670D2*
X3845133D1*
X3950357D2*
X4983989D1*
X439018Y1313836D2*
X894053D1*
X1051992D2*
X1344794D1*
X2238538D2*
X3822167D1*
X3973323D2*
X4983989D1*
X439018Y1288967D2*
X889532D1*
X1057159D2*
X1369662D1*
X1767163D2*
X2172140D1*
X2263406D2*
X3811976D1*
X3983514D2*
X4983989D1*
X439018Y1264098D2*
X901158D1*
X1082027D2*
X1394530D1*
X1792031D2*
X2197008D1*
X2288274D2*
X3809679D1*
X3985811D2*
X4983989D1*
X439018Y1239230D2*
X944399D1*
X1106894D2*
X1419398D1*
X1587132D2*
X1725633D1*
X1832509D2*
X2221876D1*
X2313141D2*
X3809679D1*
X3985811D2*
X4983989D1*
X439018Y1214361D2*
X969266D1*
X1131762D2*
X1444265D1*
X1579274D2*
X1745764D1*
X1837245D2*
X2246744D1*
X2338009D2*
X3809679D1*
X3985811D2*
X4983989D1*
X439018Y1189492D2*
X994134D1*
X1156630D2*
X1469133D1*
X1604142D2*
X1757032D1*
X1825978D2*
X2166291D1*
X2191709D2*
X2271611D1*
X2362877D2*
X3809679D1*
X3985811D2*
X4983989D1*
X439018Y1164623D2*
X1019002D1*
X1179668D2*
X1494001D1*
X1629009D2*
X2117237D1*
X2240763D2*
X2296479D1*
X2387745D2*
X3809679D1*
X3985811D2*
X4983989D1*
X439018Y1139755D2*
X1043870D1*
X1183256D2*
X1518869D1*
X1653877D2*
X2101090D1*
X2256911D2*
X2321347D1*
X2412612D2*
X3809679D1*
X3985811D2*
X4983989D1*
X439018Y1114886D2*
X1048499D1*
X1183256D2*
X1543736D1*
X1678745D2*
X2095133D1*
X2262868D2*
X2346214D1*
X3106254D2*
X3811330D1*
X3984160D2*
X4983989D1*
X439018Y1090017D2*
X1048499D1*
X1183256D2*
X1568604D1*
X1703613D2*
X2096999D1*
X2261002D2*
X2371082D1*
X3131121D2*
X3820444D1*
X3975046D2*
X4983989D1*
X439018Y1065148D2*
X665973D1*
X734524D2*
X1048499D1*
X1183256D2*
X1593472D1*
X1728480D2*
X2107369D1*
X2250631D2*
X2400364D1*
X3155989D2*
X3841329D1*
X3954197D2*
X4983989D1*
X439018Y1040280D2*
X645914D1*
X754583D2*
X1048499D1*
X1183256D2*
X1618340D1*
X1753348D2*
X2131735D1*
X2226266D2*
X3089591D1*
X3180857D2*
X3870646D1*
X3924844D2*
X4983989D1*
X439018Y1015411D2*
X641823D1*
X758674D2*
X1048499D1*
X1183256D2*
X1643207D1*
X1778216D2*
X3114459D1*
X3205725D2*
X3831497D1*
X3963993D2*
X4983989D1*
X439018Y990542D2*
X649502D1*
X778482D2*
X1048499D1*
X1183256D2*
X1307224D1*
X1376492D2*
X1563114D1*
X1632382D2*
X1668075D1*
X1803084D2*
X3139327D1*
X3230592D2*
X3815995D1*
X3979495D2*
X4983989D1*
X439018Y965673D2*
X673724D1*
X789283D2*
X1048499D1*
X1183256D2*
X1285191D1*
X1398489D2*
X1541117D1*
X1654415D2*
X1692943D1*
X1827951D2*
X3164194D1*
X3255460D2*
X3810002D1*
X3985488D2*
X4983989D1*
X439018Y940804D2*
X675231D1*
X787776D2*
X1048499D1*
X1183256D2*
X1279378D1*
X1404303D2*
X1535304D1*
X1660193D2*
X1717811D1*
X1852819D2*
X3189062D1*
X3280328D2*
X3809679D1*
X3985811D2*
X4983989D1*
X439018Y915936D2*
X690339D1*
X772633D2*
X1048499D1*
X1183256D2*
X1284401D1*
X1411444D2*
X1540292D1*
X1655205D2*
X1742678D1*
X1877687D2*
X3213930D1*
X3305196D2*
X3809679D1*
X3985811D2*
X4983989D1*
X439018Y891067D2*
X1048499D1*
X1183256D2*
X1304568D1*
X1436311D2*
X1560458D1*
X1635038D2*
X1767546D1*
X1902554D2*
X3238798D1*
X3330063D2*
X3809679D1*
X3985811D2*
X4983989D1*
X439018Y866198D2*
X1048499D1*
X1183256D2*
X1369913D1*
X1461179D2*
X1792414D1*
X1927422D2*
X3263665D1*
X3389200D2*
X3809679D1*
X3985811D2*
X4983989D1*
X439018Y841329D2*
X1010426D1*
X1181928D2*
X1394781D1*
X1486047D2*
X1817282D1*
X1952290D2*
X3288533D1*
X3410372D2*
X3809679D1*
X3985811D2*
X4983989D1*
X439018Y816461D2*
X1004325D1*
X1162084D2*
X1312678D1*
X1371002D2*
X1419649D1*
X1510950D2*
X1535304D1*
X1660229D2*
X1842149D1*
X1977158D2*
X3298043D1*
X3414965D2*
X3809787D1*
X3985703D2*
X4983989D1*
X439018Y791592D2*
X1013978D1*
X1137217D2*
X1286770D1*
X1396910D2*
X1444517D1*
X1660229D2*
X1867017D1*
X2002025D2*
X3305148D1*
X3407860D2*
X3814739D1*
X3980751D2*
X4983989D1*
X439018Y766723D2*
X1021083D1*
X1112349D2*
X1279521D1*
X1404195D2*
X1469420D1*
X1660229D2*
X1891885D1*
X2026893D2*
X3333855D1*
X3379153D2*
X3828734D1*
X3966756D2*
X4983989D1*
X439018Y741854D2*
X1011000D1*
X1087481D2*
X1283145D1*
X1400535D2*
X1485999D1*
X1660229D2*
X1916753D1*
X2051761D2*
X3861675D1*
X3933851D2*
X4983989D1*
X439018Y716986D2*
X1011000D1*
X1077003D2*
X1300585D1*
X1383095D2*
X1485999D1*
X1660229D2*
X1941620D1*
X2076665D2*
X4983989D1*
X439018Y692117D2*
X1011000D1*
X1077003D2*
X1282966D1*
X1472698D2*
X1485999D1*
X1552002D2*
X1966488D1*
X2101532D2*
X4983989D1*
X439018Y667248D2*
X476074D1*
X621920D2*
X1011000D1*
X1077003D2*
X1282966D1*
X1552002D2*
X1991356D1*
X2126400D2*
X2775353D1*
X3376390D2*
X4801088D1*
X4946933D2*
X4983989D1*
X652601Y642379D2*
X1011000D1*
X1077003D2*
X1282966D1*
X1552002D2*
X2016223D1*
X2520014D2*
X2750486D1*
X3425766D2*
X3469748D1*
X3525740D2*
X3569758D1*
X3625749D2*
X3669731D1*
X3725758D2*
X4770407D1*
X670866Y617511D2*
X1011000D1*
X1077003D2*
X1282966D1*
X1551966D2*
X2041091D1*
X3755578D2*
X4752142D1*
X682026Y592642D2*
X1011000D1*
X1077003D2*
X1282966D1*
X1400032D2*
X1416599D1*
X1538258D2*
X2065959D1*
X3765303D2*
X4740982D1*
X687839Y567773D2*
X1011000D1*
X1077003D2*
X1422125D1*
X1513390D2*
X2459609D1*
X3764800D2*
X4735168D1*
X1288648Y542904D2*
X1397257D1*
X1488523D2*
X2484476D1*
X3753784D2*
X4734020D1*
X1303755Y518035D2*
X1372389D1*
X1463655D2*
X2509344D1*
X3318401D2*
X3377095D1*
X3418410D2*
X3477105D1*
X3518384D2*
X3577114D1*
X3618393D2*
X3677087D1*
X3718402D2*
X4737393D1*
X1306052Y493167D2*
X1347522D1*
X1438787D2*
X2534212D1*
X3292564D2*
X4745718D1*
X662971Y468298D2*
X681547D1*
X1297260D2*
X1322654D1*
X1413920D2*
X4760000D1*
X639790Y443429D2*
X681547D1*
X806472D2*
X822321D1*
X1389052D2*
X4783181D1*
X1644161Y3135912D2*
X1643402Y3126763D1*
X1641568Y3117767D1*
X1638686Y3109050D1*
X1634796Y3100734D1*
X1629952Y3092935D1*
X1624221Y3085762D1*
X1617685Y3079315D1*
X1610433Y3073684D1*
X1602568Y3068948D1*
X1594199Y3065174D1*
X1585442Y3062413D1*
X1576422Y3060704D1*
X1567263Y3060072D1*
X1558093Y3060525D1*
X1549040Y3062056D1*
X1540232Y3064645D1*
X1531790Y3068255D1*
X1523834Y3072835D1*
X1516473Y3078323D1*
X1509811Y3084640D1*
X1503941Y3091699D1*
X1498945Y3099402D1*
X1494893Y3107640D1*
X1491840Y3116299D1*
X1489831Y3125258D1*
X1488893Y3134390D1*
X1489039Y3143570D1*
X1490266Y3152669D1*
X1492559Y3161559D1*
X1495885Y3170116D1*
X1500197Y3178222D1*
X1505435Y3185762D1*
X1511526Y3192631D1*
X1518385Y3198734D1*
X1525916Y3203985D1*
X1534014Y3208311D1*
X1542566Y3211651D1*
X1551452Y3213959D1*
X1560549Y3215202D1*
X1569728Y3215363D1*
X1578863Y3214441D1*
X1587825Y3212447D1*
X1596488Y3209409D1*
X1598651Y3208461D1*
X1595872Y3215731D1*
X1594259Y3221453D1*
X1593099Y3227283D1*
X1592400Y3233187D1*
X1592167Y3239127D1*
X1592400Y3245068D1*
X1593099Y3250971D1*
X1594259Y3256802D1*
X1595872Y3262524D1*
X1598717Y3269809D1*
X1590736Y3266701D1*
X1581859Y3264357D1*
X1572768Y3263077D1*
X1563589Y3262879D1*
X1554451Y3263765D1*
X1545481Y3265722D1*
X1536805Y3268725D1*
X1528543Y3272730D1*
X1520812Y3277681D1*
X1513719Y3283511D1*
X1507363Y3290136D1*
X1501834Y3297465D1*
X1497207Y3305395D1*
X1493549Y3313816D1*
X1490910Y3322609D1*
X1489326Y3331653D1*
X1488821Y3340820D1*
X1489401Y3349983D1*
X1491057Y3359013D1*
X1493768Y3367785D1*
X1497494Y3376175D1*
X1502184Y3384068D1*
X1507773Y3391352D1*
X1514182Y3397925D1*
X1521322Y3403697D1*
X1529093Y3408586D1*
X1537387Y3412524D1*
X1546087Y3415456D1*
X1555073Y3417341D1*
X1564218Y3418153D1*
X1573395Y3417880D1*
X1582475Y3416526D1*
X1591333Y3414111D1*
X1599843Y3410667D1*
X1607888Y3406243D1*
X1615355Y3400901D1*
X1622140Y3394715D1*
X1628147Y3387773D1*
X1633293Y3380169D1*
X1637506Y3372012D1*
X1640727Y3363415D1*
X1642912Y3354497D1*
X1644029Y3345385D1*
X1644096Y3336832D1*
X1643120Y3327703D1*
X1641075Y3318753D1*
X1637987Y3310106D1*
X1637215Y3308353D1*
X1644483Y3311134D1*
X1650205Y3312748D1*
X1656035Y3313908D1*
X1661939Y3314607D1*
X1667879Y3314840D1*
X1673820Y3314607D1*
X1679723Y3313908D1*
X1685554Y3312748D1*
X1691276Y3311134D1*
X1698561Y3308289D1*
X1695694Y3315549D1*
X1693264Y3324402D1*
X1691894Y3333480D1*
X1691606Y3342657D1*
X1692402Y3351803D1*
X1694272Y3360792D1*
X1697189Y3369497D1*
X1701113Y3377797D1*
X1705989Y3385577D1*
X1711748Y3392726D1*
X1718311Y3399147D1*
X1725585Y3404748D1*
X1733470Y3409452D1*
X1741854Y3413192D1*
X1750621Y3415918D1*
X1759649Y3417590D1*
X1768810Y3418185D1*
X1777978Y3417695D1*
X1787024Y3416127D1*
X1795822Y3413503D1*
X1804249Y3409859D1*
X1812187Y3405246D1*
X1819526Y3399729D1*
X1826162Y3393384D1*
X1832003Y3386301D1*
X1836968Y3378579D1*
X1840987Y3370324D1*
X1844004Y3361653D1*
X1845977Y3352687D1*
X1846879Y3343550D1*
X1846743Y3334998D1*
X1845552Y3325895D1*
X1843295Y3316995D1*
X1840004Y3308424D1*
X1835725Y3300302D1*
X1830518Y3292740D1*
X1824455Y3285846D1*
X1817620Y3279716D1*
X1810110Y3274434D1*
X1802030Y3270076D1*
X1793492Y3266701D1*
X1784615Y3264357D1*
X1775524Y3263077D1*
X1766345Y3262879D1*
X1757207Y3263765D1*
X1748237Y3265722D1*
X1739560Y3268725D1*
X1737107Y3269795D1*
X1739886Y3262524D1*
X1741500Y3256802D1*
X1742660Y3250971D1*
X1743358Y3245068D1*
X1743592Y3239127D1*
X1743358Y3233187D1*
X1742660Y3227283D1*
X1741500Y3221453D1*
X1739886Y3215731D1*
X1737041Y3208445D1*
X1745322Y3211651D1*
X1754208Y3213959D1*
X1763304Y3215202D1*
X1772484Y3215363D1*
X1781619Y3214441D1*
X1790580Y3212447D1*
X1799244Y3209409D1*
X1807490Y3205371D1*
X1815201Y3200388D1*
X1822270Y3194530D1*
X1828599Y3187879D1*
X1834099Y3180527D1*
X1838693Y3172578D1*
X1842317Y3164143D1*
X1844921Y3155339D1*
X1846467Y3146289D1*
X1846938Y3137749D1*
X1846396Y3128584D1*
X1844776Y3119547D1*
X1842101Y3110765D1*
X1838408Y3102359D1*
X1833750Y3094448D1*
X1828191Y3087141D1*
X1821808Y3080541D1*
X1814692Y3074741D1*
X1806941Y3069821D1*
X1798663Y3065849D1*
X1789975Y3062882D1*
X1780997Y3060960D1*
X1771855Y3060112D1*
X1762677Y3060347D1*
X1753591Y3061664D1*
X1744724Y3064044D1*
X1736200Y3067453D1*
X1728137Y3071844D1*
X1720648Y3077156D1*
X1713839Y3083314D1*
X1707804Y3090233D1*
X1702627Y3097815D1*
X1698381Y3105955D1*
X1695125Y3114539D1*
X1692904Y3123448D1*
X1691750Y3132556D1*
X1691679Y3141737D1*
X1692691Y3150862D1*
X1694773Y3159804D1*
X1697895Y3168437D1*
X1698544Y3169900D1*
X1691276Y3167120D1*
X1685554Y3165507D1*
X1679723Y3164347D1*
X1673820Y3163648D1*
X1667879Y3163415D1*
X1661939Y3163648D1*
X1656035Y3164347D1*
X1650205Y3165507D1*
X1644483Y3167120D1*
X1637197Y3169965D1*
X1640165Y3162408D1*
X1642560Y3153545D1*
X1643892Y3144461D1*
X1644161Y3135912D1*
X2106567Y1931867D2*
X2260617D1*
Y1768631D1*
X2097381D1*
Y1931867D1*
X2106567D1*
X2260596Y1106680D2*
X2259873Y1097527D1*
X2258127Y1088513D1*
X2255380Y1079752D1*
X2251666Y1071355D1*
X2247032Y1063429D1*
X2241538Y1056073D1*
X2235252Y1049381D1*
X2228254Y1043437D1*
X2220633Y1038316D1*
X2212485Y1034085D1*
X2203913Y1030794D1*
X2195026Y1028488D1*
X2185936Y1027194D1*
X2176758Y1026930D1*
X2167609Y1027698D1*
X2158604Y1029488D1*
X2149857Y1032279D1*
X2141478Y1036034D1*
X2133575Y1040707D1*
X2126246Y1046238D1*
X2119585Y1052557D1*
X2113676Y1059584D1*
X2108593Y1067231D1*
X2104402Y1075399D1*
X2101154Y1083987D1*
X2098891Y1092886D1*
X2097643Y1101982D1*
X2097423Y1111161D1*
X2098237Y1120306D1*
X2100072Y1129303D1*
X2102906Y1138036D1*
X2106702Y1146395D1*
X2111414Y1154276D1*
X2116981Y1161577D1*
X2123333Y1168207D1*
X2130389Y1174081D1*
X2138061Y1179126D1*
X2146250Y1183277D1*
X2154854Y1186482D1*
X2163764Y1188701D1*
X2172866Y1189904D1*
X2182046Y1190078D1*
X2191187Y1189220D1*
X2200174Y1187340D1*
X2208893Y1184463D1*
X2217234Y1180625D1*
X2225091Y1175875D1*
X2232365Y1170271D1*
X2238963Y1163887D1*
X2244802Y1156802D1*
X2249809Y1149105D1*
X2253920Y1140895D1*
X2257082Y1132276D1*
X2259257Y1123356D1*
X2260415Y1114247D1*
X2260596Y1106680D1*
X524802Y1631134D2*
X544273D1*
X539375Y1635489D1*
X533665Y1642174D1*
X529071Y1649670D1*
X525707Y1657793D1*
X523654Y1666342D1*
X522965Y1675106D1*
X523654Y1683871D1*
X525707Y1692420D1*
X529071Y1700542D1*
X533665Y1708038D1*
X539375Y1714724D1*
X546060Y1720434D1*
X553728Y1725106D1*
X546060Y1729779D1*
X539375Y1735489D1*
X533665Y1742174D1*
X529071Y1749670D1*
X525707Y1757793D1*
X523654Y1766342D1*
X522965Y1775106D1*
X523654Y1783871D1*
X525707Y1792420D1*
X529071Y1800542D1*
X533665Y1808038D1*
X539375Y1814724D1*
X546060Y1820434D1*
X553556Y1825027D1*
X561679Y1828392D1*
X570227Y1830444D1*
X578992Y1831134D1*
X587757Y1830444D1*
X596306Y1828392D1*
X604428Y1825027D1*
X611924Y1820434D1*
X618610Y1814724D1*
X624319Y1808038D1*
X628913Y1800542D1*
X632278Y1792420D1*
X634330Y1783871D1*
X635020Y1775106D1*
X634330Y1766342D1*
X632278Y1757793D1*
X628913Y1749670D1*
X624319Y1742174D1*
X618610Y1735489D1*
X611924Y1729779D1*
X604256Y1725106D1*
X611924Y1720434D1*
X618610Y1714724D1*
X624319Y1708038D1*
X628913Y1700542D1*
X632278Y1692420D1*
X634330Y1683871D1*
X635020Y1675106D1*
X634330Y1666342D1*
X632278Y1657793D1*
X628913Y1649670D1*
X624319Y1642174D1*
X618610Y1635489D1*
X613638Y1631130D1*
X635020Y1631134D1*
Y1519079D1*
X522965D1*
Y1631134D1*
X524802D1*
X3472520Y3339238D2*
X3471133Y3330481D1*
X3468393Y3322049D1*
X3464368Y3314149D1*
X3459157Y3306977D1*
X3452888Y3300708D1*
X3445715Y3295496D1*
X3437816Y3291471D1*
X3429384Y3288732D1*
X3420627Y3287345D1*
X3411761D1*
X3403005Y3288732D1*
X3394573Y3291471D1*
X3386673Y3295496D1*
X3379500Y3300708D1*
X3373231Y3306977D1*
X3368020Y3314149D1*
X3363995Y3322049D1*
X3361255Y3330481D1*
X3359868Y3339238D1*
Y3348104D1*
X3361255Y3356860D1*
X3363995Y3365292D1*
X3368020Y3373192D1*
X3373231Y3380364D1*
X3379500Y3386634D1*
X3386673Y3391845D1*
X3394573Y3395870D1*
X3403005Y3398610D1*
X3411761Y3399996D1*
X3420627D1*
X3429384Y3398610D1*
X3437816Y3395870D1*
X3445715Y3391845D1*
X3452888Y3386634D1*
X3459157Y3380364D1*
X3464368Y3373192D1*
X3468393Y3365292D1*
X3471133Y3356860D1*
X3472520Y3348104D1*
Y3339238D1*
Y2551836D2*
X3471133Y2543079D1*
X3468393Y2534647D1*
X3464368Y2526748D1*
X3459157Y2519575D1*
X3452888Y2513306D1*
X3445715Y2508095D1*
X3437816Y2504070D1*
X3429384Y2501330D1*
X3420627Y2499943D1*
X3411761D1*
X3403005Y2501330D1*
X3394573Y2504070D1*
X3386673Y2508095D1*
X3379500Y2513306D1*
X3373231Y2519575D1*
X3368020Y2526748D1*
X3363995Y2534647D1*
X3361255Y2543079D1*
X3359868Y2551836D1*
Y2560702D1*
X3361255Y2569459D1*
X3363995Y2577891D1*
X3368020Y2585790D1*
X3373231Y2592963D1*
X3379500Y2599232D1*
X3386673Y2604443D1*
X3394573Y2608468D1*
X3403005Y2611208D1*
X3411761Y2612595D1*
X3420627D1*
X3429384Y2611208D1*
X3437816Y2608468D1*
X3445715Y2604443D1*
X3452888Y2599232D1*
X3459157Y2592963D1*
X3464368Y2585790D1*
X3468393Y2577891D1*
X3471133Y2569459D1*
X3472520Y2560702D1*
Y2551836D1*
X3812110Y2619468D2*
X3812543Y2628101D1*
X3813959Y2637173D1*
X3816338Y2646041D1*
X3819654Y2654604D1*
X3823869Y2662761D1*
X3828934Y2670420D1*
X3834790Y2677492D1*
X3841370Y2683895D1*
X3848599Y2689557D1*
X3856393Y2694411D1*
X3864662Y2698402D1*
X3873311Y2701484D1*
X3882241Y2703621D1*
X3891349Y2704789D1*
X3900529Y2704974D1*
X3909676Y2704175D1*
X3918684Y2702399D1*
X3927451Y2699669D1*
X3935874Y2696014D1*
X3943858Y2691478D1*
X3951309Y2686113D1*
X3958142Y2679980D1*
X3964279Y2673150D1*
X3969648Y2665701D1*
X3974188Y2657721D1*
X3977847Y2649299D1*
X3980582Y2640534D1*
X3982362Y2631526D1*
X3983167Y2622380D1*
X3983197Y2479835D1*
X3982507Y2470679D1*
X3980841Y2461649D1*
X3978216Y2452851D1*
X3974663Y2444384D1*
X3970224Y2436346D1*
X3964948Y2428831D1*
X3958898Y2421925D1*
X3952142Y2415706D1*
X3944759Y2410247D1*
X3936834Y2405611D1*
X3928457Y2401851D1*
X3919725Y2399011D1*
X3910740Y2397122D1*
X3901603Y2396208D1*
X3892422Y2396277D1*
X3883300Y2397331D1*
X3874345Y2399355D1*
X3865657Y2402328D1*
X3857339Y2406215D1*
X3849484Y2410971D1*
X3842185Y2416541D1*
X3835524Y2422861D1*
X3829580Y2429859D1*
X3824419Y2437454D1*
X3820102Y2445558D1*
X3816679Y2454077D1*
X3814188Y2462915D1*
X3812658Y2471969D1*
X3812108Y2481134D1*
X3812106Y2619374D1*
X3812107Y2308417D2*
X3812370Y2315156D1*
X3813160Y2321827D1*
X3814470Y2328416D1*
X3816294Y2334882D1*
X3818619Y2341184D1*
X3821431Y2347285D1*
X3824714Y2353146D1*
X3828446Y2358732D1*
X3832605Y2364007D1*
X3837165Y2368940D1*
X3842098Y2373500D1*
X3847373Y2377659D1*
X3852959Y2381391D1*
X3858820Y2384674D1*
X3864921Y2387486D1*
X3871223Y2389811D1*
X3877689Y2391635D1*
X3884278Y2392945D1*
X3890949Y2393735D1*
X3897661Y2393999D1*
X3904374Y2393735D1*
X3911045Y2392945D1*
X3917634Y2391635D1*
X3924099Y2389811D1*
X3930402Y2387486D1*
X3936503Y2384674D1*
X3942364Y2381391D1*
X3947949Y2377659D1*
X3953225Y2373500D1*
X3958158Y2368940D1*
X3962718Y2364007D1*
X3966877Y2358732D1*
X3970609Y2353146D1*
X3973892Y2347285D1*
X3976704Y2341184D1*
X3979029Y2334882D1*
X3980853Y2328416D1*
X3982163Y2321827D1*
X3982953Y2315156D1*
X3983217Y2299257D1*
X3983181Y2170648D1*
X3982953Y2163936D1*
X3982163Y2157265D1*
X3980853Y2150676D1*
X3979029Y2144210D1*
X3976704Y2137908D1*
X3973892Y2131807D1*
X3970609Y2125946D1*
X3966877Y2120360D1*
X3962718Y2115085D1*
X3958158Y2110152D1*
X3953225Y2105592D1*
X3947949Y2101433D1*
X3942364Y2097701D1*
X3936503Y2094418D1*
X3930402Y2091606D1*
X3924099Y2089281D1*
X3917634Y2087457D1*
X3911045Y2086147D1*
X3904374Y2085357D1*
X3897661Y2085093D1*
X3890949Y2085357D1*
X3884278Y2086147D1*
X3877689Y2087457D1*
X3871223Y2089281D1*
X3864921Y2091606D1*
X3858820Y2094418D1*
X3852959Y2097701D1*
X3847373Y2101433D1*
X3842098Y2105592D1*
X3837165Y2110152D1*
X3832605Y2115085D1*
X3828446Y2120360D1*
X3824714Y2125946D1*
X3821431Y2131807D1*
X3818619Y2137908D1*
X3816294Y2144210D1*
X3814470Y2150676D1*
X3813160Y2157265D1*
X3812370Y2163936D1*
X3812106Y2179835D1*
Y2308336D1*
X3812198Y1269361D2*
X3812631Y1277995D1*
X3814046Y1287067D1*
X3816426Y1295935D1*
X3819742Y1304497D1*
X3823957Y1312655D1*
X3829022Y1320314D1*
X3834878Y1327385D1*
X3841458Y1333789D1*
X3848687Y1339451D1*
X3856481Y1344305D1*
X3864750Y1348296D1*
X3873399Y1351378D1*
X3882329Y1353515D1*
X3891436Y1354683D1*
X3900617Y1354868D1*
X3909764Y1354068D1*
X3918772Y1352293D1*
X3927539Y1349562D1*
X3935962Y1345908D1*
X3943945Y1341372D1*
X3951397Y1336007D1*
X3958230Y1329873D1*
X3964367Y1323043D1*
X3969736Y1315595D1*
X3974276Y1307614D1*
X3977935Y1299193D1*
X3980670Y1290428D1*
X3982450Y1281420D1*
X3983255Y1272273D1*
X3983285Y1129728D1*
X3982595Y1120572D1*
X3980929Y1111543D1*
X3978304Y1102744D1*
X3974751Y1094277D1*
X3970312Y1086240D1*
X3965036Y1078725D1*
X3958986Y1071818D1*
X3952230Y1065600D1*
X3944847Y1060141D1*
X3936922Y1055505D1*
X3928545Y1051745D1*
X3919813Y1048905D1*
X3910828Y1047016D1*
X3901691Y1046101D1*
X3892510Y1046171D1*
X3883388Y1047224D1*
X3874433Y1049249D1*
X3865745Y1052222D1*
X3857426Y1056109D1*
X3849572Y1060865D1*
X3842273Y1066435D1*
X3835612Y1072755D1*
X3829668Y1079753D1*
X3824507Y1087347D1*
X3820190Y1095451D1*
X3816767Y1103971D1*
X3814276Y1112809D1*
X3812746Y1121862D1*
X3812196Y1131028D1*
X3812194Y1269224D1*
X3812195Y958311D2*
X3812458Y965050D1*
X3813248Y971721D1*
X3814558Y978310D1*
X3816382Y984775D1*
X3818707Y991078D1*
X3821519Y997178D1*
X3824802Y1003040D1*
X3828534Y1008625D1*
X3832693Y1013901D1*
X3837253Y1018834D1*
X3842186Y1023394D1*
X3847461Y1027553D1*
X3853047Y1031285D1*
X3858908Y1034567D1*
X3865009Y1037380D1*
X3871311Y1039705D1*
X3877777Y1041529D1*
X3884366Y1042839D1*
X3891037Y1043629D1*
X3897749Y1043892D1*
X3904462Y1043629D1*
X3911133Y1042839D1*
X3917722Y1041529D1*
X3924187Y1039705D1*
X3930490Y1037380D1*
X3936591Y1034567D1*
X3942452Y1031285D1*
X3948037Y1027553D1*
X3953313Y1023394D1*
X3958246Y1018834D1*
X3962806Y1013901D1*
X3966965Y1008625D1*
X3970697Y1003040D1*
X3973980Y997178D1*
X3976792Y991078D1*
X3979117Y984775D1*
X3980941Y978310D1*
X3982251Y971721D1*
X3983041Y965050D1*
X3983305Y949151D1*
X3983269Y820542D1*
X3983041Y813829D1*
X3982251Y807158D1*
X3980941Y800570D1*
X3979117Y794104D1*
X3976792Y787801D1*
X3973980Y781701D1*
X3970697Y775840D1*
X3966965Y770254D1*
X3962806Y764978D1*
X3958246Y760045D1*
X3953313Y755485D1*
X3948037Y751326D1*
X3942452Y747594D1*
X3936591Y744312D1*
X3930490Y741499D1*
X3924187Y739174D1*
X3917722Y737351D1*
X3911133Y736040D1*
X3904462Y735251D1*
X3897749Y734987D1*
X3891037Y735251D1*
X3884366Y736040D1*
X3877777Y737351D1*
X3871311Y739174D1*
X3865009Y741499D1*
X3858908Y744312D1*
X3853047Y747594D1*
X3847461Y751326D1*
X3842186Y755485D1*
X3837253Y760045D1*
X3832693Y764978D1*
X3828534Y770254D1*
X3824802Y775840D1*
X3821519Y781701D1*
X3818707Y787801D1*
X3816382Y794104D1*
X3814558Y800570D1*
X3813248Y807158D1*
X3812458Y813829D1*
X3812194Y829728D1*
Y958158D1*
X3812198Y3294147D2*
X3812631Y3302781D1*
X3814046Y3311853D1*
X3816426Y3320721D1*
X3819742Y3329283D1*
X3823957Y3337441D1*
X3829022Y3345100D1*
X3834878Y3352172D1*
X3841458Y3358575D1*
X3848687Y3364237D1*
X3856481Y3369091D1*
X3864750Y3373082D1*
X3873399Y3376164D1*
X3882329Y3378301D1*
X3891436Y3379469D1*
X3900617Y3379654D1*
X3909764Y3378854D1*
X3918772Y3377079D1*
X3927539Y3374348D1*
X3935962Y3370694D1*
X3943945Y3366158D1*
X3951397Y3360793D1*
X3958230Y3354660D1*
X3964367Y3347830D1*
X3969736Y3340381D1*
X3974276Y3332400D1*
X3977935Y3323979D1*
X3980670Y3315214D1*
X3982450Y3306206D1*
X3983255Y3297059D1*
X3983285Y3154515D1*
X3982595Y3145359D1*
X3980929Y3136329D1*
X3978304Y3127530D1*
X3974751Y3119064D1*
X3970312Y3111026D1*
X3965036Y3103511D1*
X3958986Y3096604D1*
X3952230Y3090386D1*
X3944847Y3084927D1*
X3936922Y3080291D1*
X3928545Y3076531D1*
X3919813Y3073691D1*
X3910828Y3071802D1*
X3901691Y3070887D1*
X3892510Y3070957D1*
X3883388Y3072010D1*
X3874433Y3074035D1*
X3865745Y3077008D1*
X3857426Y3080895D1*
X3849572Y3085651D1*
X3842273Y3091221D1*
X3835612Y3097541D1*
X3829668Y3104539D1*
X3824507Y3112134D1*
X3820190Y3120237D1*
X3816767Y3128757D1*
X3814276Y3137595D1*
X3812746Y3146648D1*
X3812196Y3155814D1*
X3812194Y3293982D1*
X3812195Y2983097D2*
X3812458Y2989836D1*
X3813248Y2996507D1*
X3814558Y3003096D1*
X3816382Y3009561D1*
X3818707Y3015864D1*
X3821519Y3021965D1*
X3824802Y3027826D1*
X3828534Y3033411D1*
X3832693Y3038687D1*
X3837253Y3043620D1*
X3842186Y3048180D1*
X3847461Y3052339D1*
X3853047Y3056071D1*
X3858908Y3059354D1*
X3865009Y3062166D1*
X3871311Y3064491D1*
X3877777Y3066315D1*
X3884366Y3067625D1*
X3891037Y3068415D1*
X3897749Y3068678D1*
X3904462Y3068415D1*
X3911133Y3067625D1*
X3917722Y3066315D1*
X3924187Y3064491D1*
X3930490Y3062166D1*
X3936591Y3059354D1*
X3942452Y3056071D1*
X3948037Y3052339D1*
X3953313Y3048180D1*
X3958246Y3043620D1*
X3962806Y3038687D1*
X3966965Y3033411D1*
X3970697Y3027826D1*
X3973980Y3021965D1*
X3976792Y3015864D1*
X3979117Y3009561D1*
X3980941Y3003096D1*
X3982251Y2996507D1*
X3983041Y2989836D1*
X3983305Y2973937D1*
X3983269Y2845328D1*
X3983041Y2838616D1*
X3982251Y2831944D1*
X3980941Y2825356D1*
X3979117Y2818890D1*
X3976792Y2812588D1*
X3973980Y2806487D1*
X3970697Y2800626D1*
X3966965Y2795040D1*
X3962806Y2789764D1*
X3958246Y2784831D1*
X3953313Y2780271D1*
X3948037Y2776113D1*
X3942452Y2772380D1*
X3936591Y2769098D1*
X3930490Y2766285D1*
X3924187Y2763960D1*
X3917722Y2762137D1*
X3911133Y2760826D1*
X3904462Y2760037D1*
X3897749Y2759773D1*
X3891037Y2760037D1*
X3884366Y2760826D1*
X3877777Y2762137D1*
X3871311Y2763960D1*
X3865009Y2766285D1*
X3858908Y2769098D1*
X3853047Y2772380D1*
X3847461Y2776113D1*
X3842186Y2780271D1*
X3837253Y2784831D1*
X3832693Y2789764D1*
X3828534Y2795040D1*
X3824802Y2800626D1*
X3821519Y2806487D1*
X3818707Y2812588D1*
X3816382Y2818890D1*
X3814558Y2825356D1*
X3813248Y2831944D1*
X3812458Y2838616D1*
X3812194Y2854514D1*
Y2982944D1*
X3812198Y1944290D2*
X3812631Y1952924D1*
X3814046Y1961996D1*
X3816426Y1970864D1*
X3819742Y1979426D1*
X3823957Y1987584D1*
X3829022Y1995243D1*
X3834878Y2002315D1*
X3841458Y2008718D1*
X3848687Y2014380D1*
X3856481Y2019234D1*
X3864750Y2023225D1*
X3873399Y2026307D1*
X3882329Y2028444D1*
X3891436Y2029612D1*
X3900617Y2029797D1*
X3909764Y2028997D1*
X3918772Y2027222D1*
X3927539Y2024491D1*
X3935962Y2020837D1*
X3943945Y2016301D1*
X3951397Y2010936D1*
X3958230Y2004803D1*
X3964367Y1997973D1*
X3969736Y1990524D1*
X3974276Y1982543D1*
X3977935Y1974122D1*
X3980670Y1965357D1*
X3982450Y1956349D1*
X3983255Y1947202D1*
X3983285Y1804658D1*
X3982595Y1795502D1*
X3980929Y1786472D1*
X3978304Y1777673D1*
X3974751Y1769207D1*
X3970312Y1761169D1*
X3965036Y1753654D1*
X3958986Y1746747D1*
X3952230Y1740529D1*
X3944847Y1735070D1*
X3936922Y1730434D1*
X3928545Y1726674D1*
X3919813Y1723834D1*
X3910828Y1721945D1*
X3901691Y1721031D1*
X3892510Y1721100D1*
X3883388Y1722154D1*
X3874433Y1724178D1*
X3865745Y1727151D1*
X3857426Y1731038D1*
X3849572Y1735794D1*
X3842273Y1741364D1*
X3835612Y1747684D1*
X3829668Y1754682D1*
X3824507Y1762277D1*
X3820190Y1770380D1*
X3816767Y1778900D1*
X3814276Y1787738D1*
X3812746Y1796791D1*
X3812196Y1805957D1*
X3812194Y1944096D1*
X3812195Y1633240D2*
X3812458Y1639979D1*
X3813248Y1646650D1*
X3814558Y1653239D1*
X3816382Y1659704D1*
X3818707Y1666007D1*
X3821519Y1672108D1*
X3824802Y1677969D1*
X3828534Y1683554D1*
X3832693Y1688830D1*
X3837253Y1693763D1*
X3842186Y1698323D1*
X3847461Y1702482D1*
X3853047Y1706214D1*
X3858908Y1709497D1*
X3865009Y1712309D1*
X3871311Y1714634D1*
X3877777Y1716458D1*
X3884366Y1717768D1*
X3891037Y1718558D1*
X3897749Y1718822D1*
X3904462Y1718558D1*
X3911133Y1717768D1*
X3917722Y1716458D1*
X3924187Y1714634D1*
X3930490Y1712309D1*
X3936591Y1709497D1*
X3942452Y1706214D1*
X3948037Y1702482D1*
X3953313Y1698323D1*
X3958246Y1693763D1*
X3962806Y1688830D1*
X3966965Y1683554D1*
X3970697Y1677969D1*
X3973980Y1672108D1*
X3976792Y1666007D1*
X3979117Y1659704D1*
X3980941Y1653239D1*
X3982251Y1646650D1*
X3983041Y1639979D1*
X3983305Y1624080D1*
X3983269Y1495471D1*
X3983041Y1488759D1*
X3982251Y1482087D1*
X3980941Y1475499D1*
X3979117Y1469033D1*
X3976792Y1462731D1*
X3973980Y1456630D1*
X3970697Y1450769D1*
X3966965Y1445183D1*
X3962806Y1439908D1*
X3958246Y1434975D1*
X3953313Y1430415D1*
X3948037Y1426256D1*
X3942452Y1422523D1*
X3936591Y1419241D1*
X3930490Y1416429D1*
X3924187Y1414103D1*
X3917722Y1412280D1*
X3911133Y1410969D1*
X3904462Y1410180D1*
X3897749Y1409916D1*
X3891037Y1410180D1*
X3884366Y1410969D1*
X3877777Y1412280D1*
X3871311Y1414103D1*
X3865009Y1416429D1*
X3858908Y1419241D1*
X3853047Y1422523D1*
X3847461Y1426256D1*
X3842186Y1430415D1*
X3837253Y1434975D1*
X3832693Y1439908D1*
X3828534Y1445183D1*
X3824802Y1450769D1*
X3821519Y1456630D1*
X3818707Y1462731D1*
X3816382Y1469033D1*
X3814558Y1475499D1*
X3813248Y1482087D1*
X3812458Y1488759D1*
X3812194Y1504657D1*
Y1633087D1*
X1294659Y700026D2*
X1397528D1*
Y678747D1*
X1402204Y683935D1*
X1407765Y688732D1*
X1413905Y692760D1*
X1420520Y695950D1*
X1427495Y698248D1*
X1434711Y699613D1*
X1442043Y700024D1*
X1449366Y699471D1*
X1456554Y697966D1*
X1463483Y695533D1*
X1470035Y692215D1*
X1476096Y688069D1*
X1481563Y683165D1*
X1486342Y677589D1*
X1488496Y674499D1*
X1488500Y750157D1*
X1356785Y881841D1*
X1351226Y880688D1*
X1341845Y879950D1*
X1332465Y880688D1*
X1323315Y882885D1*
X1314622Y886486D1*
X1306599Y891402D1*
X1299444Y897513D1*
X1293333Y904668D1*
X1288416Y912691D1*
X1284815Y921385D1*
X1282619Y930534D1*
X1281881Y939915D1*
X1282619Y949295D1*
X1284815Y958445D1*
X1288416Y967138D1*
X1293333Y975161D1*
X1299444Y982316D1*
X1306599Y988427D1*
X1314622Y993344D1*
X1323315Y996944D1*
X1332465Y999141D1*
X1341845Y999879D1*
X1351226Y999141D1*
X1360375Y996944D1*
X1369068Y993344D1*
X1377091Y988427D1*
X1384247Y982316D1*
X1390358Y975161D1*
X1395274Y967138D1*
X1398875Y958445D1*
X1401071Y949295D1*
X1401810Y939915D1*
X1401071Y930534D1*
X1399898Y925013D1*
X1537807Y787086D1*
X1537786Y822714D1*
X1657715D1*
Y702785D1*
X1549524D1*
X1549406Y616607D1*
X1548657Y611880D1*
X1547178Y607328D1*
X1545006Y603064D1*
X1542192Y599192D1*
X1488601Y545467D1*
X1379620Y436486D1*
X4794747Y436500D1*
X4785486Y443607D1*
X4778654Y449746D1*
X4772246Y456326D1*
X4766292Y463319D1*
X4760817Y470693D1*
X4755846Y478417D1*
X4751401Y486454D1*
X4747503Y494771D1*
X4744168Y503328D1*
X4741411Y512089D1*
X4739244Y521015D1*
X4737678Y530065D1*
X4736718Y539199D1*
X4736370Y548377D1*
X4736635Y557558D1*
X4737512Y566701D1*
X4738996Y575765D1*
X4741082Y584709D1*
X4743760Y593495D1*
X4747017Y602083D1*
X4750841Y610434D1*
X4755212Y618511D1*
X4760113Y626279D1*
X4765521Y633703D1*
X4771412Y640750D1*
X4777759Y647388D1*
X4784536Y653587D1*
X4791711Y659321D1*
X4799252Y664564D1*
X4807126Y669292D1*
X4815298Y673485D1*
X4823732Y677123D1*
X4832389Y680190D1*
X4841231Y682673D1*
X4850220Y684561D1*
X4859314Y685845D1*
X4868474Y686520D1*
X4877659Y686583D1*
X4886827Y686032D1*
X4895938Y684872D1*
X4904951Y683106D1*
X4913827Y680743D1*
X4922525Y677793D1*
X4931007Y674270D1*
X4939235Y670189D1*
X4947173Y665568D1*
X4954784Y660428D1*
X4962036Y654792D1*
X4968896Y648685D1*
X4975334Y642134D1*
X4981320Y635168D1*
X4986505Y628249D1*
X4986500Y3459712D1*
X4982095Y3453807D1*
X4976172Y3446787D1*
X4969794Y3440178D1*
X4962990Y3434009D1*
X4955789Y3428307D1*
X4948224Y3423099D1*
X4940329Y3418406D1*
X4932138Y3414251D1*
X4923688Y3410651D1*
X4915017Y3407623D1*
X4906163Y3405180D1*
X4897166Y3403332D1*
X4888066Y3402089D1*
X4878904Y3401456D1*
X4869719Y3401435D1*
X4860553Y3402027D1*
X4851448Y3403229D1*
X4842442Y3405036D1*
X4833578Y3407439D1*
X4824893Y3410428D1*
X4816427Y3413989D1*
X4808217Y3418107D1*
X4800301Y3422764D1*
X4792712Y3427938D1*
X4785486Y3433607D1*
X4778654Y3439746D1*
X4772246Y3446326D1*
X4766292Y3453319D1*
X4760817Y3460693D1*
X4755846Y3468417D1*
X4751401Y3476454D1*
X4747503Y3484771D1*
X4744168Y3493328D1*
X4741411Y3502089D1*
X4739244Y3511015D1*
X4737678Y3520065D1*
X4736718Y3529199D1*
X4736370Y3538377D1*
X4736635Y3547558D1*
X4737512Y3556701D1*
X4738996Y3565765D1*
X4741082Y3574709D1*
X4743760Y3583495D1*
X4747017Y3592083D1*
X4750841Y3600434D1*
X4755212Y3608511D1*
X4760113Y3616279D1*
X4765521Y3623703D1*
X4771412Y3630750D1*
X4777759Y3637388D1*
X4784536Y3643587D1*
X4794863Y3651513D1*
X628254Y3651500D1*
X637036Y3644792D1*
X643896Y3638685D1*
X650334Y3632134D1*
X656320Y3625168D1*
X661828Y3617818D1*
X666833Y3610117D1*
X671314Y3602100D1*
X675250Y3593801D1*
X678624Y3585259D1*
X681421Y3576510D1*
X683628Y3567595D1*
X685235Y3558552D1*
X686236Y3549422D1*
X686631Y3539000D1*
X686325Y3529820D1*
X685407Y3520682D1*
X683881Y3511625D1*
X681755Y3502690D1*
X679038Y3493916D1*
X675741Y3485343D1*
X671880Y3477010D1*
X667472Y3468952D1*
X662536Y3461206D1*
X657095Y3453807D1*
X651172Y3446787D1*
X644794Y3440178D1*
X637990Y3434009D1*
X630789Y3428307D1*
X623224Y3423099D1*
X615329Y3418406D1*
X607138Y3414251D1*
X598688Y3410651D1*
X590017Y3407623D1*
X581163Y3405180D1*
X572166Y3403332D1*
X563066Y3402089D1*
X553904Y3401456D1*
X544719Y3401435D1*
X535553Y3402027D1*
X526448Y3403229D1*
X517442Y3405036D1*
X508578Y3407439D1*
X499893Y3410428D1*
X491427Y3413989D1*
X483217Y3418107D1*
X475301Y3422764D1*
X467712Y3427938D1*
X460486Y3433607D1*
X453654Y3439746D1*
X447246Y3446326D1*
X441292Y3453319D1*
X436523Y3459743D1*
X436500Y628287D1*
X446412Y640750D1*
X452759Y647388D1*
X459536Y653587D1*
X466711Y659321D1*
X474252Y664564D1*
X482126Y669292D1*
X490298Y673485D1*
X498732Y677123D1*
X507389Y680190D1*
X516231Y682673D1*
X525220Y684561D1*
X534314Y685845D1*
X543474Y686520D1*
X552659Y686583D1*
X561827Y686032D1*
X570938Y684872D1*
X579951Y683106D1*
X588827Y680743D1*
X597525Y677793D1*
X606007Y674270D1*
X614235Y670189D1*
X622173Y665568D1*
X629784Y660428D1*
X637036Y654792D1*
X643896Y648685D1*
X650334Y642134D1*
X656320Y635168D1*
X661828Y627818D1*
X666833Y620117D1*
X671314Y612100D1*
X675250Y603801D1*
X678624Y595259D1*
X681421Y586510D1*
X683628Y577595D1*
X685235Y568552D1*
X686146Y560242D1*
X803965Y560214D1*
Y544891D1*
X808754Y548762D1*
X816777Y553678D1*
X825470Y557279D1*
X834619Y559476D1*
X844000Y560214D1*
X853381Y559476D1*
X862530Y557279D1*
X871223Y553678D1*
X879246Y548762D1*
X886401Y542651D1*
X892512Y535496D1*
X893974Y533309D1*
X898403Y539193D1*
X905056Y545847D1*
X912669Y551378D1*
X921053Y555649D1*
X930002Y558557D1*
X939295Y560029D1*
X948705D1*
X957998Y558557D1*
X966947Y555649D1*
X975331Y551378D1*
X982944Y545847D1*
X989597Y539193D1*
X993974Y533309D1*
X998403Y539193D1*
X1005056Y545847D1*
X1012669Y551378D1*
X1013487Y551836D1*
X1013594Y746393D1*
X1014343Y751120D1*
X1015822Y755672D1*
X1017994Y759936D1*
X1020808Y763808D1*
X1035095Y778228D1*
X1030501Y780241D1*
X1024681Y783808D1*
X1019490Y788241D1*
X1015057Y793431D1*
X1011491Y799251D1*
X1008878Y805558D1*
X1007285Y812195D1*
X1006749Y819000D1*
X1007285Y825805D1*
X1008878Y832442D1*
X1011491Y838749D1*
X1015057Y844569D1*
X1019490Y849759D1*
X1024681Y854192D1*
X1030501Y857759D1*
X1036807Y860371D1*
X1043444Y861964D1*
X1051009Y862470D1*
X1051000Y1135116D1*
X935626Y1250491D1*
X928446Y1251036D1*
X921808Y1252629D1*
X915502Y1255241D1*
X909682Y1258808D1*
X904492Y1263241D1*
X900058Y1268431D1*
X896492Y1274251D1*
X893880Y1280558D1*
X892286Y1287195D1*
X891751Y1294000D1*
X892286Y1300805D1*
X893880Y1307442D1*
X896492Y1313749D1*
X900058Y1319569D1*
X904756Y1325004D1*
X904845Y1748637D1*
X905593Y1753364D1*
X907072Y1757916D1*
X909245Y1762180D1*
X912058Y1766052D1*
X923148Y1777275D1*
X923688Y1784451D1*
X925281Y1791088D1*
X927893Y1797394D1*
X931460Y1803214D1*
X935893Y1808405D1*
X941084Y1812838D1*
X946904Y1816404D1*
X953210Y1819017D1*
X959847Y1820610D1*
X966652Y1821146D1*
X973457Y1820610D1*
X980094Y1819017D1*
X986401Y1816404D1*
X992221Y1812838D1*
X997411Y1808405D1*
X1001844Y1803214D1*
X1005411Y1797394D1*
X1008023Y1791088D1*
X1009617Y1784451D1*
X1010152Y1777646D1*
X1009617Y1770841D1*
X1009312Y1769310D1*
X1097403Y1681230D1*
X1104554Y1680715D1*
X1111192Y1679122D1*
X1117498Y1676509D1*
X1123318Y1672943D1*
X1128508Y1668510D1*
X1132942Y1663319D1*
X1136508Y1657499D1*
X1139120Y1651193D1*
X1140714Y1644556D1*
X1141235Y1637391D1*
X1204294Y1574340D1*
X1256316Y1574264D1*
X1261043Y1573516D1*
X1265594Y1572037D1*
X1269859Y1569864D1*
X1273731Y1567051D1*
X1275496Y1565418D1*
X1279700Y1563163D1*
X1281293Y1569801D1*
X1283905Y1576107D1*
X1287472Y1581927D1*
X1291905Y1587117D1*
X1297095Y1591551D1*
X1302915Y1595117D1*
X1309222Y1597729D1*
X1315859Y1599323D1*
X1322664Y1599858D1*
X1329469Y1599323D1*
X1336106Y1597729D1*
X1342413Y1595117D1*
X1348233Y1591551D1*
X1353423Y1587117D1*
X1357856Y1581927D1*
X1361423Y1576107D1*
X1364035Y1569801D1*
X1365628Y1563163D1*
X1366164Y1556358D1*
X1365628Y1549553D1*
X1363818Y1542328D1*
X1550394Y1355739D1*
X2183893Y1355655D1*
X2188620Y1354907D1*
X2193172Y1353428D1*
X2197436Y1351255D1*
X2201308Y1348442D1*
X2255033Y1294850D1*
X2425368Y1124515D1*
X3083893Y1124406D1*
X3088620Y1123657D1*
X3093172Y1122178D1*
X3097436Y1120006D1*
X3101308Y1117192D1*
X3155033Y1063601D1*
X3344855Y873778D1*
X3352104Y874855D1*
X3360896D1*
X3369579Y873480D1*
X3377941Y870763D1*
X3385774Y866771D1*
X3392887Y861604D1*
X3399104Y855387D1*
X3404271Y848274D1*
X3408263Y840441D1*
X3410980Y832079D1*
X3412355Y823396D1*
Y814604D1*
X3410980Y805921D1*
X3408263Y797559D1*
X3404271Y789726D1*
X3399104Y782613D1*
X3392887Y776396D1*
X3385774Y771229D1*
X3377941Y767237D1*
X3369579Y764520D1*
X3360896Y763145D1*
X3352104D1*
X3343421Y764520D1*
X3335059Y767237D1*
X3327226Y771229D1*
X3320113Y776396D1*
X3313896Y782613D1*
X3308729Y789726D1*
X3304737Y797559D1*
X3302020Y805921D1*
X3300645Y814604D1*
Y823396D1*
X3301736Y830647D1*
X3068887Y1063479D1*
X2410356Y1063594D1*
X2405629Y1064343D1*
X2401077Y1065822D1*
X2396813Y1067994D1*
X2392941Y1070808D1*
X2339217Y1124399D1*
X2168881Y1294734D1*
X1758892Y1294749D1*
X1791145Y1262487D1*
X1798304Y1261963D1*
X1804941Y1260370D1*
X1811247Y1257757D1*
X1817067Y1254191D1*
X1822258Y1249758D1*
X1826691Y1244567D1*
X1830257Y1238747D1*
X1832870Y1232441D1*
X1834463Y1225804D1*
X1834999Y1218999D1*
X1834463Y1212194D1*
X1832870Y1205556D1*
X1830257Y1199250D1*
X1826691Y1193430D1*
X1822258Y1188240D1*
X1817067Y1183806D1*
X1811247Y1180240D1*
X1804941Y1177628D1*
X1798304Y1176034D1*
X1791499Y1175499D1*
X1784694Y1176034D1*
X1778056Y1177628D1*
X1771750Y1180240D1*
X1765930Y1183806D1*
X1760740Y1188240D1*
X1756306Y1193430D1*
X1752740Y1199250D1*
X1750128Y1205556D1*
X1748534Y1212194D1*
X1748013Y1219359D1*
X1722609Y1244754D1*
X1591243Y1244751D1*
X1585819Y1240058D1*
X1579999Y1236492D1*
X1573693Y1233880D1*
X1567056Y1232286D1*
X1559357Y1231786D1*
X2129121Y662011D1*
X2487644Y661905D1*
X2492371Y661156D1*
X2496923Y659677D1*
X2501187Y657504D1*
X2505059Y654691D1*
X2535363Y624520D1*
X2735149Y624499D1*
X2790442Y679691D1*
X2794314Y682504D1*
X2798579Y684677D1*
X2803131Y686156D1*
X2807858Y686905D1*
X2883741Y686999D1*
X3343892Y686905D1*
X3348619Y686156D1*
X3353171Y684677D1*
X3357435Y682504D1*
X3361307Y679691D1*
X3393743Y647388D1*
X3402928Y647303D1*
X3413159Y645683D1*
X3423009Y642482D1*
X3432238Y637780D1*
X3440618Y631691D1*
X3447736Y624590D1*
X3453627Y630593D1*
X3459355Y635191D1*
X3465558Y639125D1*
X3472160Y642345D1*
X3479079Y644811D1*
X3486229Y646493D1*
X3493522Y647371D1*
X3500867Y647433D1*
X3508173Y646678D1*
X3515350Y645117D1*
X3522310Y642767D1*
X3528965Y639659D1*
X3535234Y635831D1*
X3541038Y631329D1*
X3546307Y626211D1*
X3547750Y624585D1*
X3554881Y631691D1*
X3563260Y637780D1*
X3572489Y642482D1*
X3582340Y645683D1*
X3592570Y647303D1*
X3602928D1*
X3613159Y645683D1*
X3623009Y642482D1*
X3632238Y637780D1*
X3640618Y631691D1*
X3647736Y624590D1*
X3654881Y631691D1*
X3663260Y637780D1*
X3672489Y642482D1*
X3682340Y645683D1*
X3692570Y647303D1*
X3702928D1*
X3713159Y645683D1*
X3723009Y642482D1*
X3732238Y637780D1*
X3740618Y631691D1*
X3747942Y624367D1*
X3754030Y615988D1*
X3758733Y606759D1*
X3761933Y596908D1*
X3763554Y586678D1*
Y576320D1*
X3761933Y566089D1*
X3758733Y556239D1*
X3754030Y547010D1*
X3747942Y538630D1*
X3740618Y531306D1*
X3732238Y525218D1*
X3723009Y520515D1*
X3713159Y517315D1*
X3702928Y515694D1*
X3692570D1*
X3682340Y517315D1*
X3672489Y520515D1*
X3663260Y525218D1*
X3654881Y531306D1*
X3647763Y538407D1*
X3640618Y531306D1*
X3632238Y525218D1*
X3623009Y520515D1*
X3613159Y517315D1*
X3602928Y515694D1*
X3592570D1*
X3582340Y517315D1*
X3572489Y520515D1*
X3563260Y525218D1*
X3554881Y531306D1*
X3547763Y538407D1*
X3542051Y532566D1*
X3536340Y527947D1*
X3530151Y523991D1*
X3523561Y520747D1*
X3516651Y518255D1*
X3509508Y516547D1*
X3502218Y515642D1*
X3494874Y515553D1*
X3487564Y516281D1*
X3480381Y517817D1*
X3473413Y520141D1*
X3466747Y523225D1*
X3460464Y527030D1*
X3454643Y531510D1*
X3449356Y536609D1*
X3447757Y538404D1*
X3440618Y531306D1*
X3432238Y525218D1*
X3423009Y520515D1*
X3413159Y517315D1*
X3402928Y515694D1*
X3392570D1*
X3382340Y517315D1*
X3372489Y520515D1*
X3363260Y525218D1*
X3354881Y531306D1*
X3347763Y538407D1*
X3340618Y531306D1*
X3332238Y525218D1*
X3323009Y520515D1*
X3314620Y517727D1*
X3286310Y489557D1*
X3282438Y486744D1*
X3278173Y484571D1*
X3273621Y483092D1*
X3268894Y482343D1*
X3193011Y482249D1*
X2557855Y482343D1*
X2553128Y483092D1*
X2548576Y484571D1*
X2544312Y486744D1*
X2540440Y489557D1*
X2486715Y543148D1*
X2453856Y576008D1*
X2095358Y576093D1*
X2090631Y576841D1*
X2086079Y578320D1*
X2081814Y580493D1*
X2077942Y583306D1*
X2024218Y636898D1*
X1241355Y1419760D1*
X1197482Y1419749D1*
X1192067Y1415057D1*
X1186247Y1411491D1*
X1179941Y1408878D1*
X1173304Y1407285D1*
X1166499Y1406749D1*
X1159694Y1407285D1*
X1153056Y1408878D1*
X1146750Y1411491D1*
X1140930Y1415057D1*
X1135740Y1419490D1*
X1131306Y1424681D1*
X1127740Y1430501D1*
X1125128Y1436807D1*
X1123534Y1443444D1*
X1122999Y1450249D1*
X1123291Y1455001D1*
X1117441Y1452628D1*
X1110804Y1451034D1*
X1103999Y1450499D1*
X1097194Y1451034D1*
X1090556Y1452628D1*
X1084250Y1455240D1*
X1078430Y1458806D1*
X1073240Y1463240D1*
X1068806Y1468430D1*
X1065240Y1474250D1*
X1062628Y1480556D1*
X1061034Y1487194D1*
X1060499Y1493999D1*
X1061034Y1500804D1*
X1062628Y1507441D1*
X1065240Y1513747D1*
X1068806Y1519567D1*
X1073240Y1524758D1*
X1078430Y1529191D1*
X1084250Y1532757D1*
X1090556Y1535370D1*
X1097194Y1536963D1*
X1103999Y1537499D1*
X1110804Y1536963D1*
X1117441Y1535370D1*
X1123747Y1532757D1*
X1129567Y1529191D1*
X1135002Y1524493D1*
X1167837Y1524499D1*
X1098089Y1594277D1*
X1090944Y1594786D1*
X1084307Y1596380D1*
X1078001Y1598992D1*
X1072181Y1602558D1*
X1066990Y1606992D1*
X1062557Y1612182D1*
X1058991Y1618002D1*
X1056378Y1624308D1*
X1054785Y1630946D1*
X1054263Y1638111D1*
X965730Y1726637D1*
X965751Y1325000D1*
X970443Y1319569D1*
X974009Y1313749D1*
X976622Y1307442D1*
X978215Y1300805D1*
X978737Y1293640D1*
X988510Y1283875D1*
X988594Y1361393D1*
X989343Y1366120D1*
X990822Y1370672D1*
X992994Y1374936D1*
X995808Y1378808D1*
X1010501Y1393634D1*
X1011036Y1400805D1*
X1012629Y1407442D1*
X1015241Y1413749D1*
X1018808Y1419569D1*
X1023241Y1424759D1*
X1028431Y1429192D1*
X1034251Y1432759D1*
X1040558Y1435371D1*
X1047195Y1436964D1*
X1054000Y1437500D1*
X1060805Y1436964D1*
X1067442Y1435371D1*
X1073749Y1432759D1*
X1079569Y1429192D1*
X1084759Y1424759D1*
X1089192Y1419569D1*
X1092759Y1413749D1*
X1095371Y1407442D1*
X1096964Y1400805D1*
X1097500Y1394000D1*
X1096964Y1387195D1*
X1095371Y1380558D1*
X1092759Y1374251D1*
X1089192Y1368431D1*
X1084759Y1363241D1*
X1079569Y1358808D1*
X1073749Y1355241D1*
X1067442Y1352629D1*
X1060805Y1351036D1*
X1053640Y1350514D1*
X1049508Y1346374D1*
X1049500Y1294157D1*
X1173442Y1170059D1*
X1176255Y1166187D1*
X1178428Y1161923D1*
X1179907Y1157371D1*
X1180655Y1152644D1*
X1180749Y1076760D1*
X1180655Y847856D1*
X1179907Y843129D1*
X1178428Y838577D1*
X1176255Y834313D1*
X1173442Y830441D1*
X1119850Y776717D1*
X1074507Y731373D1*
X1074500Y551912D1*
X1082944Y545847D1*
X1089597Y539193D1*
X1093974Y533309D1*
X1098403Y539193D1*
X1105056Y545847D1*
X1112669Y551378D1*
X1121053Y555649D1*
X1130002Y558557D1*
X1139295Y560029D1*
X1148705D1*
X1157998Y558557D1*
X1166947Y555649D1*
X1175331Y551378D1*
X1182944Y545847D1*
X1189597Y539193D1*
X1193974Y533309D1*
X1198403Y539193D1*
X1205056Y545847D1*
X1212669Y551378D1*
X1221053Y555649D1*
X1230002Y558557D1*
X1239295Y560029D1*
X1248705D1*
X1257998Y558557D1*
X1266947Y555649D1*
X1275331Y551378D1*
X1282944Y545847D1*
X1289597Y539193D1*
X1295128Y531581D1*
X1299400Y523197D1*
X1302308Y514248D1*
X1303780Y504954D1*
Y495545D1*
X1302308Y486251D1*
X1299400Y477302D1*
X1295128Y468918D1*
X1294689Y468260D1*
X1325095Y468249D1*
X1444955Y588089D1*
X1437647Y588104D1*
X1430370Y589088D1*
X1423283Y591015D1*
X1416510Y593853D1*
X1410166Y597552D1*
X1404360Y602050D1*
X1399193Y607268D1*
X1397528Y609290D1*
Y587971D1*
X1285473D1*
Y700026D1*
X1294659D1*
X803965Y455611D2*
Y440284D1*
X684036D1*
X683881Y521625D1*
X681755Y512690D1*
X679038Y503916D1*
X675741Y495343D1*
X671880Y487010D1*
X667472Y478952D1*
X662536Y471206D1*
X657095Y463807D1*
X651172Y456787D1*
X644794Y450178D1*
X637990Y444009D1*
X628159Y436497D1*
X870883Y436500D1*
X863753Y443612D1*
X857998Y441942D1*
X848705Y440470D1*
X839295D1*
X830002Y441942D1*
X821053Y444849D1*
X812669Y449121D1*
X805056Y454652D1*
X803962Y455663D1*
X1657530Y935210D2*
X1656058Y925916D1*
X1653151Y916967D1*
X1648879Y908583D1*
X1643348Y900971D1*
X1636695Y894317D1*
X1629082Y888787D1*
X1620698Y884515D1*
X1611749Y881607D1*
X1602455Y880135D1*
X1593046D1*
X1583752Y881607D1*
X1574803Y884515D1*
X1566419Y888787D1*
X1558807Y894317D1*
X1552153Y900971D1*
X1546622Y908583D1*
X1542351Y916967D1*
X1539443Y925916D1*
X1537971Y935210D1*
Y944619D1*
X1539443Y953913D1*
X1542351Y962862D1*
X1546622Y971246D1*
X1552153Y978859D1*
X1558807Y985512D1*
X1566419Y991043D1*
X1574803Y995315D1*
X1583752Y998222D1*
X1593046Y999694D1*
X1602455D1*
X1611749Y998222D1*
X1620698Y995315D1*
X1629082Y991043D1*
X1636695Y985512D1*
X1643348Y978859D1*
X1648879Y971246D1*
X1653151Y962862D1*
X1656058Y953913D1*
X1657530Y944619D1*
Y935210D1*
X1401625Y758045D2*
X1400153Y748751D1*
X1397245Y739802D1*
X1392973Y731418D1*
X1387443Y723805D1*
X1380789Y717152D1*
X1373177Y711621D1*
X1364793Y707349D1*
X1355844Y704442D1*
X1346550Y702970D1*
X1337140D1*
X1327847Y704442D1*
X1318898Y707349D1*
X1310514Y711621D1*
X1302901Y717152D1*
X1296248Y723805D1*
X1290717Y731418D1*
X1286445Y739802D1*
X1283537Y748751D1*
X1282065Y758045D1*
Y767454D1*
X1283537Y776748D1*
X1286445Y785697D1*
X1290717Y794081D1*
X1296248Y801693D1*
X1302901Y808347D1*
X1310514Y813878D1*
X1318898Y818149D1*
X1327847Y821057D1*
X1337140Y822529D1*
X1346550D1*
X1355844Y821057D1*
X1364793Y818149D1*
X1373177Y813878D1*
X1380789Y808347D1*
X1387443Y801693D1*
X1392973Y794081D1*
X1397245Y785697D1*
X1400153Y776748D1*
X1401625Y767454D1*
Y758045D1*
X2975141Y1735408D2*
X2974425Y1729354D1*
X2973236Y1723376D1*
X2971581Y1717509D1*
X2969471Y1711791D1*
X2966919Y1706255D1*
X2963941Y1700936D1*
X2960554Y1695868D1*
X2956781Y1691081D1*
X2952643Y1686605D1*
X2948167Y1682467D1*
X2943380Y1678694D1*
X2938312Y1675307D1*
X2932993Y1672329D1*
X2927458Y1669777D1*
X2921739Y1667667D1*
X2915872Y1666012D1*
X2909894Y1664823D1*
X2903840Y1664107D1*
X2897749Y1663867D1*
X2891658Y1664107D1*
X2885605Y1664823D1*
X2879627Y1666012D1*
X2873760Y1667667D1*
X2868041Y1669777D1*
X2862506Y1672329D1*
X2857187Y1675307D1*
X2852119Y1678694D1*
X2847332Y1682467D1*
X2842856Y1686605D1*
X2838718Y1691081D1*
X2834944Y1695868D1*
X2831558Y1700936D1*
X2828579Y1706255D1*
X2826027Y1711791D1*
X2823918Y1717509D1*
X2822263Y1723376D1*
X2821074Y1729354D1*
X2820357Y1735408D1*
X2820118Y1741499D1*
X2820357Y1747590D1*
X2821074Y1753643D1*
X2823549Y1764182D1*
X2590014Y1530631D1*
X2691130Y1530613D1*
X2765202Y1604547D1*
X2769074Y1607360D1*
X2773339Y1609533D1*
X2777890Y1611012D1*
X2782617Y1611760D1*
X2858501Y1611854D1*
X3336730D1*
X3343604Y1615439D1*
X3350096Y1617549D1*
X3356838Y1618617D1*
X3363664D1*
X3370406Y1617549D1*
X3376897Y1615439D1*
X3382979Y1612341D1*
X3388502Y1608328D1*
X3393328Y1603502D1*
X3397341Y1597979D1*
X3400439Y1591897D1*
X3402549Y1585406D1*
X3403617Y1578664D1*
Y1571838D1*
X3402549Y1565096D1*
X3400439Y1558604D1*
X3397341Y1552522D1*
X3393328Y1547000D1*
X3388502Y1542173D1*
X3382979Y1538161D1*
X3376897Y1535062D1*
X3370406Y1532953D1*
X3363664Y1531885D1*
X3356838D1*
X3350096Y1532953D1*
X3343604Y1535062D1*
X3337522Y1538161D1*
X3332000Y1542173D1*
X3327173Y1547000D1*
X3324280Y1550847D1*
X2797619Y1550854D1*
X2723577Y1476920D1*
X2719705Y1474107D1*
X2715441Y1471934D1*
X2710889Y1470456D1*
X2706162Y1469707D1*
X2630278Y1469613D1*
X1657942Y1469567D1*
X1661508Y1463747D1*
X1664120Y1457441D1*
X1665714Y1450804D1*
X1666249Y1443999D1*
X1665714Y1437194D1*
X1664120Y1430556D1*
X1661508Y1424250D1*
X1657942Y1418430D1*
X1653508Y1413240D1*
X1648318Y1408806D1*
X1642498Y1405240D1*
X1636192Y1402628D1*
X1629554Y1401034D1*
X1622749Y1400499D1*
X1615944Y1401034D1*
X1609307Y1402628D1*
X1603001Y1405240D1*
X1597181Y1408806D1*
X1591990Y1413240D1*
X1587747Y1418189D1*
X1584194Y1420806D1*
X1530470Y1474398D1*
X1487058Y1517942D1*
X1484245Y1521814D1*
X1482072Y1526079D1*
X1480593Y1530631D1*
X1479845Y1535358D1*
X1479751Y1611241D1*
Y1943852D1*
X1460138Y1963479D1*
X1370356Y1963594D1*
X1365629Y1964343D1*
X1361077Y1965822D1*
X1356813Y1967994D1*
X1352941Y1970808D1*
X1299217Y2024399D1*
X1222004Y2101612D1*
X1222258Y2099758D1*
X1226691Y2094567D1*
X1230257Y2088747D1*
X1232870Y2082441D1*
X1234463Y2075804D1*
X1234999Y2068999D1*
X1234463Y2062194D1*
X1232870Y2055556D1*
X1230257Y2049250D1*
X1226691Y2043430D1*
X1222258Y2038240D1*
X1217067Y2033806D1*
X1210993Y2030123D1*
X1458442Y1782558D1*
X1461255Y1778686D1*
X1463428Y1774421D1*
X1464907Y1769869D1*
X1465655Y1765142D1*
X1465750Y1717284D1*
X1469187Y1710647D1*
X1471297Y1704155D1*
X1472365Y1697413D1*
Y1690587D1*
X1471297Y1683845D1*
X1469187Y1677353D1*
X1466089Y1671271D1*
X1462076Y1665749D1*
X1457250Y1660922D1*
X1451727Y1656910D1*
X1445645Y1653811D1*
X1439154Y1651702D1*
X1432412Y1650634D1*
X1425586D1*
X1418844Y1651702D1*
X1412352Y1653811D1*
X1406270Y1656910D1*
X1400748Y1660922D1*
X1395921Y1665749D1*
X1391909Y1671271D1*
X1388810Y1677353D1*
X1386701Y1683845D1*
X1385633Y1690587D1*
Y1697413D1*
X1386701Y1704155D1*
X1388810Y1710647D1*
X1391909Y1716729D1*
X1395921Y1722251D1*
X1400748Y1727078D1*
X1404750Y1730074D1*
X1404749Y1750087D1*
X835334Y2319531D1*
X753779Y2319523D1*
X748297Y2314831D1*
X742477Y2311265D1*
X736171Y2308653D1*
X729533Y2307059D1*
X722728Y2306524D1*
X715923Y2307059D1*
X709286Y2308653D1*
X702980Y2311265D1*
X697160Y2314831D1*
X691969Y2319264D1*
X687536Y2324455D1*
X683970Y2330275D1*
X681357Y2336581D1*
X679764Y2343219D1*
X679228Y2350024D1*
X679764Y2356829D1*
X681357Y2363466D1*
X683970Y2369772D1*
X687536Y2375592D1*
X691969Y2380783D1*
X697160Y2385216D1*
X702980Y2388782D1*
X709286Y2391395D1*
X715923Y2392988D1*
X722728Y2393524D1*
X729533Y2392988D1*
X736171Y2391395D1*
X742477Y2388782D1*
X748297Y2385216D1*
X753732Y2380518D1*
X850368Y2380430D1*
X855095Y2379681D1*
X859647Y2378202D1*
X863911Y2376029D1*
X867783Y2373216D1*
X921508Y2319625D1*
X1152639Y2088493D1*
X1156306Y2094567D1*
X1161004Y2100002D1*
X1160999Y2121354D1*
X1033308Y2249192D1*
X1030494Y2253064D1*
X1028322Y2257328D1*
X1026843Y2261880D1*
X1026094Y2266607D1*
X1026000Y2342491D1*
Y2381353D1*
X1011919Y2395446D1*
X1004645Y2394395D1*
X995853D1*
X987170Y2395770D1*
X978809Y2398487D1*
X970975Y2402478D1*
X963862Y2407646D1*
X957646Y2413862D1*
X952478Y2420975D1*
X948487Y2428809D1*
X945770Y2437170D1*
X944395Y2445853D1*
Y2454645D1*
X945770Y2463329D1*
X948487Y2471690D1*
X952478Y2479524D1*
X957646Y2486636D1*
X963862Y2492853D1*
X970975Y2498021D1*
X978809Y2502012D1*
X987170Y2504729D1*
X995853Y2506104D1*
X1004645D1*
X1013329Y2504729D1*
X1021690Y2502012D1*
X1029524Y2498021D1*
X1036636Y2492853D1*
X1042853Y2486636D1*
X1048021Y2479524D1*
X1052012Y2471690D1*
X1054687Y2463478D1*
X1054689Y3012342D1*
X1041318Y3025690D1*
X1034251Y3027329D1*
X1027944Y3029941D1*
X1022124Y3033507D1*
X1016934Y3037940D1*
X1012501Y3043131D1*
X1008934Y3048951D1*
X1006322Y3055257D1*
X1004728Y3061895D1*
X1004193Y3068699D1*
X1004728Y3075504D1*
X1006322Y3082142D1*
X1008934Y3088448D1*
X1012501Y3094268D1*
X1016934Y3099459D1*
X1022124Y3103892D1*
X1027944Y3107458D1*
X1034251Y3110070D1*
X1040888Y3111664D1*
X1047693Y3112199D1*
X1054498Y3111664D1*
X1061135Y3110070D1*
X1067442Y3107458D1*
X1073262Y3103892D1*
X1078452Y3099459D1*
X1082885Y3094268D1*
X1086452Y3088448D1*
X1089064Y3082142D1*
X1090657Y3075504D1*
X1091193Y3068699D1*
X1090734Y3062544D1*
X1108381Y3044761D1*
X1111195Y3040889D1*
X1113367Y3036625D1*
X1114846Y3032073D1*
X1115595Y3027346D1*
X1115689Y2951462D1*
Y2469358D1*
X1120975Y2473021D1*
X1128809Y2477012D1*
X1137170Y2479729D1*
X1145853Y2481104D1*
X1154645D1*
X1163329Y2479729D1*
X1171690Y2477012D1*
X1179524Y2473021D1*
X1186636Y2467853D1*
X1192853Y2461636D1*
X1198021Y2454524D1*
X1202012Y2446690D1*
X1204729Y2438329D1*
X1206104Y2429645D1*
Y2420853D1*
X1204729Y2412170D1*
X1202012Y2403809D1*
X1198021Y2395975D1*
X1192853Y2388862D1*
X1186636Y2382646D1*
X1179524Y2377478D1*
X1171690Y2373487D1*
X1163329Y2370770D1*
X1154645Y2369395D1*
X1145853D1*
X1137170Y2370770D1*
X1128809Y2373487D1*
X1120975Y2377478D1*
X1115684Y2381209D1*
X1115689Y2294171D1*
X1129567Y2280316D1*
X1125328Y2287313D1*
X1121964Y2295436D1*
X1119912Y2303985D1*
X1119222Y2312749D1*
X1119912Y2321514D1*
X1121964Y2330063D1*
X1125328Y2338185D1*
X1129922Y2345682D1*
X1135632Y2352367D1*
X1142317Y2358077D1*
X1149813Y2362670D1*
X1157936Y2366035D1*
X1166485Y2368087D1*
X1175249Y2368777D1*
X1184014Y2368087D1*
X1192563Y2366035D1*
X1200685Y2362670D1*
X1208182Y2358077D1*
X1214867Y2352367D1*
X1220577Y2345682D1*
X1225170Y2338185D1*
X1228535Y2330063D1*
X1230587Y2321514D1*
X1231277Y2312749D1*
X1230587Y2303985D1*
X1228535Y2295436D1*
X1225170Y2287313D1*
X1220577Y2279817D1*
X1214867Y2273132D1*
X1208182Y2267422D1*
X1200685Y2262828D1*
X1192563Y2259464D1*
X1184014Y2257412D1*
X1175249Y2256722D1*
X1166485Y2257412D1*
X1157936Y2259464D1*
X1149813Y2262828D1*
X1142760Y2267126D1*
X1385387Y2024496D1*
X1475144Y2024406D1*
X1479871Y2023657D1*
X1484423Y2022178D1*
X1488687Y2020006D1*
X1492559Y2017192D1*
X1531818Y1978067D1*
X1534926Y1974428D1*
X1537426Y1970347D1*
X1539258Y1965925D1*
X1540375Y1961271D1*
X1540750Y1956491D1*
X1540751Y1848955D1*
X1546836Y1849866D1*
X1553662D1*
X1560404Y1848798D1*
X1566896Y1846689D1*
X1572978Y1843590D1*
X1578500Y1839578D1*
X1583327Y1834751D1*
X1587339Y1829229D1*
X1590438Y1823147D1*
X1592547Y1816655D1*
X1593615Y1809913D1*
Y1803087D1*
X1592547Y1796345D1*
X1590438Y1789853D1*
X1587339Y1783771D1*
X1583327Y1778249D1*
X1578500Y1773422D1*
X1572978Y1769410D1*
X1571895Y1768804D1*
X1571891Y1562719D1*
X1604038Y1530595D1*
X1618408Y1530613D1*
X1614672Y1534500D1*
X1610660Y1540022D1*
X1607561Y1546104D1*
X1605451Y1552596D1*
X1604383Y1559338D1*
Y1566164D1*
X1605451Y1572906D1*
X1607561Y1579397D1*
X1610660Y1585479D1*
X1614672Y1591002D1*
X1619498Y1595828D1*
X1625021Y1599841D1*
X1631103Y1602939D1*
X1637594Y1605049D1*
X1644336Y1606117D1*
X1651162D1*
X1657904Y1605049D1*
X1664396Y1602939D1*
X1670478Y1599841D1*
X1676000Y1595828D1*
X1680827Y1591002D1*
X1684839Y1585479D1*
X1687938Y1579397D1*
X1690047Y1572906D1*
X1691115Y1566164D1*
X1691235Y1562391D1*
X1697862Y1555772D1*
X2528851Y1555751D1*
X2967251Y1994135D1*
X2967343Y2710128D1*
X2968092Y2714855D1*
X2969571Y2719407D1*
X2971744Y2723671D1*
X2974557Y2727543D1*
X3028148Y2781268D1*
X3426748Y3179867D1*
X3427270Y3187025D1*
X3428864Y3193663D1*
X3431476Y3199969D1*
X3435043Y3205789D1*
X3439476Y3210980D1*
X3444666Y3215413D1*
X3450486Y3218979D1*
X3456793Y3221591D1*
X3463430Y3223185D1*
X3470235Y3223720D1*
X3477040Y3223185D1*
X3483677Y3221591D1*
X3489984Y3218979D1*
X3495804Y3215413D1*
X3500994Y3210980D1*
X3505427Y3205789D1*
X3508994Y3199969D1*
X3511606Y3193663D1*
X3513199Y3187025D1*
X3513735Y3180220D1*
X3513199Y3173416D1*
X3511606Y3166778D1*
X3508994Y3160472D1*
X3505427Y3154652D1*
X3500994Y3149461D1*
X3495804Y3145028D1*
X3489984Y3141462D1*
X3483677Y3138850D1*
X3477040Y3137256D1*
X3469875Y3136735D1*
X3028245Y2695097D1*
X3028155Y1979107D1*
X3027407Y1974380D1*
X3025928Y1969828D1*
X3023755Y1965564D1*
X3020942Y1961692D1*
X2967350Y1907967D1*
X2875167Y1815784D1*
X2885605Y1818174D1*
X2891658Y1818891D1*
X2897749Y1819130D1*
X2903840Y1818891D1*
X2909894Y1818174D1*
X2915872Y1816985D1*
X2921739Y1815330D1*
X2927458Y1813221D1*
X2932993Y1810669D1*
X2938312Y1807690D1*
X2943380Y1804304D1*
X2948167Y1800530D1*
X2952643Y1796392D1*
X2956781Y1791916D1*
X2960554Y1787129D1*
X2963941Y1782061D1*
X2966919Y1776743D1*
X2969471Y1771207D1*
X2971581Y1765488D1*
X2973236Y1759621D1*
X2974425Y1753643D1*
X2975141Y1747590D1*
X2975381Y1741499D1*
X2975141Y1735408D1*
X3775141D2*
X3774425Y1729354D1*
X3773236Y1723376D1*
X3771581Y1717509D1*
X3769471Y1711791D1*
X3766919Y1706255D1*
X3763941Y1700936D1*
X3760554Y1695868D1*
X3756781Y1691081D1*
X3752643Y1686605D1*
X3748167Y1682467D1*
X3743380Y1678694D1*
X3738312Y1675307D1*
X3732993Y1672329D1*
X3727458Y1669777D1*
X3721739Y1667667D1*
X3715872Y1666012D1*
X3709894Y1664823D1*
X3703840Y1664107D1*
X3697749Y1663867D1*
X3691658Y1664107D1*
X3685605Y1664823D1*
X3679627Y1666012D1*
X3673760Y1667667D1*
X3668041Y1669777D1*
X3662506Y1672329D1*
X3657187Y1675307D1*
X3652119Y1678694D1*
X3647332Y1682467D1*
X3642856Y1686605D1*
X3638718Y1691081D1*
X3634944Y1695868D1*
X3631558Y1700936D1*
X3628579Y1706255D1*
X3626027Y1711791D1*
X3623918Y1717509D1*
X3622263Y1723376D1*
X3621074Y1729354D1*
X3620357Y1735408D1*
X3620118Y1741499D1*
X3620357Y1747590D1*
X3621074Y1753643D1*
X3622263Y1759621D1*
X3623918Y1765488D1*
X3626027Y1771207D1*
X3628579Y1776743D1*
X3631558Y1782061D1*
X3634944Y1787129D1*
X3638718Y1791916D1*
X3642856Y1796392D1*
X3647332Y1800530D1*
X3652119Y1804304D1*
X3657187Y1807690D1*
X3662506Y1810669D1*
X3668041Y1813221D1*
X3673760Y1815330D1*
X3679627Y1816985D1*
X3685605Y1818174D1*
X3691658Y1818891D1*
X3697749Y1819130D1*
X3703840Y1818891D1*
X3709894Y1818174D1*
X3715872Y1816985D1*
X3721739Y1815330D1*
X3727458Y1813221D1*
X3732993Y1810669D1*
X3738312Y1807690D1*
X3743380Y1804304D1*
X3748167Y1800530D1*
X3752643Y1796392D1*
X3756781Y1791916D1*
X3760554Y1787129D1*
X3763941Y1782061D1*
X3766919Y1776743D1*
X3769471Y1771207D1*
X3771581Y1765488D1*
X3773236Y1759621D1*
X3774425Y1753643D1*
X3775141Y1747590D1*
X3775381Y1741499D1*
X3775141Y1735408D1*
X2860075Y2047320D2*
X2859157Y2038182D1*
X2857632Y2029125D1*
X2855506Y2020190D1*
X2852788Y2011416D1*
X2849492Y2002843D1*
X2845631Y1994510D1*
X2841223Y1986452D1*
X2836287Y1978706D1*
X2830846Y1971307D1*
X2824923Y1964287D1*
X2818545Y1957678D1*
X2811741Y1951509D1*
X2804540Y1945807D1*
X2796975Y1940599D1*
X2789080Y1935906D1*
X2780889Y1931751D1*
X2772439Y1928151D1*
X2763768Y1925123D1*
X2754914Y1922680D1*
X2745917Y1920832D1*
X2736817Y1919589D1*
X2727654Y1918956D1*
X2718470Y1918935D1*
X2709304Y1919527D1*
X2700198Y1920729D1*
X2691193Y1922536D1*
X2682328Y1924939D1*
X2673644Y1927928D1*
X2665178Y1931489D1*
X2656968Y1935607D1*
X2649051Y1940264D1*
X2641463Y1945438D1*
X2634237Y1951107D1*
X2627404Y1957246D1*
X2620997Y1963826D1*
X2615042Y1970819D1*
X2609567Y1978193D1*
X2604597Y1985917D1*
X2600152Y1993954D1*
X2596254Y2002271D1*
X2592918Y2010828D1*
X2590161Y2019589D1*
X2587995Y2028515D1*
X2586428Y2037565D1*
X2585469Y2046699D1*
X2585121Y2055877D1*
X2585386Y2065058D1*
X2586262Y2074201D1*
X2587747Y2083265D1*
X2589833Y2092209D1*
X2592510Y2100995D1*
X2595768Y2109583D1*
X2599591Y2117934D1*
X2603963Y2126011D1*
X2608863Y2133779D1*
X2614271Y2141203D1*
X2620162Y2148250D1*
X2626510Y2154888D1*
X2633286Y2161087D1*
X2640461Y2166821D1*
X2648003Y2172064D1*
X2655877Y2176792D1*
X2664049Y2180985D1*
X2672482Y2184623D1*
X2681139Y2187690D1*
X2689982Y2190173D1*
X2698971Y2192061D1*
X2708065Y2193345D1*
X2717225Y2194020D1*
X2726409Y2194083D1*
X2735577Y2193532D1*
X2744688Y2192372D1*
X2753702Y2190606D1*
X2762577Y2188243D1*
X2771275Y2185293D1*
X2779757Y2181770D1*
X2787986Y2177689D1*
X2795923Y2173068D1*
X2803535Y2167928D1*
X2810787Y2162292D1*
X2817647Y2156185D1*
X2824084Y2149634D1*
X2830070Y2142668D1*
X2835578Y2135318D1*
X2840584Y2127617D1*
X2845065Y2119600D1*
X2849001Y2111301D1*
X2852375Y2102759D1*
X2855172Y2094010D1*
X2857379Y2085095D1*
X2858986Y2076052D1*
X2859987Y2066922D1*
X2860382Y2056500D1*
X2860075Y2047320D1*
X1244685Y3350217D2*
X1239250Y3345519D1*
X1233430Y3341953D1*
X1227123Y3339340D1*
X1220486Y3337747D1*
X1213681Y3337211D1*
X1206876Y3337747D1*
X1200239Y3339340D1*
X1193933Y3341953D1*
X1188112Y3345519D1*
X1182922Y3349952D1*
X1178489Y3355143D1*
X1174922Y3360963D1*
X1172310Y3367269D1*
X1170717Y3373906D1*
X1170181Y3380711D1*
X1170717Y3387516D1*
X1172310Y3394154D1*
X1174922Y3400460D1*
X1178489Y3406280D1*
X1182922Y3411470D1*
X1188112Y3415904D1*
X1193933Y3419470D1*
X1200239Y3422082D1*
X1206876Y3423676D1*
X1213681Y3424211D1*
X1220486Y3423676D1*
X1227123Y3422082D1*
X1233430Y3419470D1*
X1239250Y3415904D1*
X1244685Y3411206D1*
X1403042Y3411211D1*
X1490442Y3498443D1*
X1494314Y3501256D1*
X1498579Y3503429D1*
X1503131Y3504908D1*
X1507858Y3505657D1*
X1583741Y3505751D1*
X1855906Y3505657D1*
X1860633Y3504908D1*
X1865185Y3503429D1*
X1869449Y3501256D1*
X1873321Y3498443D1*
X1927046Y3444852D1*
X2053484Y3318413D1*
X2060642Y3317891D1*
X2067280Y3316297D1*
X2073586Y3313685D1*
X2079406Y3310119D1*
X2084596Y3305686D1*
X2089030Y3300495D1*
X2092596Y3294675D1*
X2095208Y3288369D1*
X2096802Y3281731D1*
X2097323Y3274567D1*
X2302192Y3069572D1*
X2305006Y3065700D1*
X2307178Y3061436D1*
X2308657Y3056884D1*
X2309406Y3052157D1*
X2309500Y2976273D1*
X2309406Y2572858D1*
X2308657Y2568131D1*
X2307178Y2563579D1*
X2305006Y2559314D1*
X2302192Y2555442D1*
X2248601Y2501718D1*
X1940739Y2193856D1*
X1940657Y1960358D1*
X1939908Y1955631D1*
X1938429Y1951079D1*
X1936256Y1946814D1*
X1933443Y1942942D1*
X1879852Y1889218D1*
X1828774Y1838140D1*
X1828215Y1830946D1*
X1826622Y1824308D1*
X1824009Y1818002D1*
X1820443Y1812182D1*
X1816010Y1806992D1*
X1810819Y1802558D1*
X1804999Y1798992D1*
X1798693Y1796380D1*
X1792056Y1794786D1*
X1785251Y1794251D1*
X1778446Y1794786D1*
X1771808Y1796380D1*
X1765502Y1798992D1*
X1759682Y1802558D1*
X1754492Y1806992D1*
X1750058Y1812182D1*
X1746492Y1818002D1*
X1743880Y1824308D1*
X1742286Y1830946D1*
X1741751Y1837751D1*
X1742286Y1844556D1*
X1743880Y1851193D1*
X1746492Y1857499D1*
X1750058Y1863319D1*
X1754492Y1868510D1*
X1759682Y1872943D1*
X1765502Y1876509D1*
X1771808Y1879122D1*
X1778446Y1880715D1*
X1785611Y1881237D1*
X1879735Y1975369D1*
X1879845Y2208894D1*
X1880593Y2213621D1*
X1882072Y2218173D1*
X1884245Y2222438D1*
X1887058Y2226310D1*
X1940650Y2280034D1*
X2248512Y2587896D1*
X2248500Y3037116D1*
X2054213Y3231417D1*
X2047032Y3231962D1*
X2040395Y3233556D1*
X2034089Y3236168D1*
X2028269Y3239734D1*
X2023078Y3244167D1*
X2018645Y3249358D1*
X2015078Y3255178D1*
X2012466Y3261484D1*
X2010873Y3268122D1*
X2010351Y3275286D1*
X1840875Y3444755D1*
X1522912Y3444751D1*
X1435520Y3357519D1*
X1431648Y3354706D1*
X1427383Y3352533D1*
X1422831Y3351054D1*
X1418104Y3350305D1*
X1342220Y3350211D1*
X1244723D1*
X879322Y2012819D2*
X872157Y2013340D1*
X865520Y2014934D1*
X859213Y2017546D1*
X853393Y2021112D1*
X848203Y2025545D1*
X843770Y2030736D1*
X840203Y2036556D1*
X837591Y2042862D1*
X835998Y2049500D1*
X835462Y2056304D1*
X835998Y2063109D1*
X837591Y2069747D1*
X840203Y2076053D1*
X843770Y2081873D1*
X848203Y2087064D1*
X853393Y2091497D1*
X859213Y2095063D1*
X865520Y2097675D1*
X872157Y2099269D1*
X878962Y2099804D1*
X885767Y2099269D1*
X892404Y2097675D1*
X898711Y2095063D1*
X904531Y2091497D1*
X909721Y2087064D1*
X914154Y2081873D1*
X917721Y2076053D1*
X920333Y2069747D1*
X921926Y2063109D1*
X922448Y2055945D1*
X995942Y1982325D1*
X998755Y1978453D1*
X1000928Y1974189D1*
X1002407Y1969637D1*
X1003155Y1964910D1*
X1003249Y1937865D1*
X1264691Y1676309D1*
X1269750Y1670828D1*
X1274576Y1666002D1*
X1278589Y1660479D1*
X1281687Y1654397D1*
X1283797Y1647906D1*
X1284865Y1641164D1*
Y1634338D1*
X1283797Y1627596D1*
X1281687Y1621104D1*
X1278589Y1615022D1*
X1274576Y1609500D1*
X1269750Y1604673D1*
X1264227Y1600661D1*
X1258145Y1597562D1*
X1251654Y1595453D1*
X1244912Y1594385D1*
X1238086D1*
X1231344Y1595453D1*
X1224852Y1597562D1*
X1218770Y1600661D1*
X1213248Y1604673D1*
X1208421Y1609500D1*
X1204409Y1615022D1*
X1201310Y1621104D1*
X1199201Y1627596D1*
X1198133Y1634338D1*
Y1641164D1*
X1199201Y1647906D1*
X1201084Y1653784D1*
X949557Y1905442D1*
X946744Y1909314D1*
X944571Y1913579D1*
X943092Y1918131D1*
X942343Y1922858D1*
X942249Y1949903D1*
X879349Y2012784D1*
X1734866Y1665587D2*
X1733798Y1658845D1*
X1731689Y1652353D1*
X1728590Y1646271D1*
X1724578Y1640749D1*
X1719751Y1635922D1*
X1714229Y1631910D1*
X1708147Y1628811D1*
X1701655Y1626702D1*
X1694913Y1625634D1*
X1688087D1*
X1681345Y1626702D1*
X1674853Y1628811D1*
X1668771Y1631910D1*
X1663249Y1635922D1*
X1658422Y1640749D1*
X1654410Y1646271D1*
X1651311Y1652353D1*
X1649202Y1658845D1*
X1648134Y1665587D1*
Y1672413D1*
X1649202Y1679155D1*
X1651311Y1685647D1*
X1654410Y1691729D1*
X1658422Y1697251D1*
X1661005Y1700004D1*
X1661094Y1881393D1*
X1661843Y1886120D1*
X1663322Y1890672D1*
X1665494Y1894936D1*
X1668308Y1898808D1*
X1721899Y1952533D1*
X1732226Y1962860D1*
X1732249Y2000092D1*
X1354357Y2378008D1*
X1346514Y2376162D1*
X1337749Y2375472D1*
X1328985Y2376162D1*
X1320436Y2378215D1*
X1312313Y2381579D1*
X1307032Y2384693D1*
X1302367Y2379383D1*
X1295682Y2373673D1*
X1288185Y2369079D1*
X1280063Y2365715D1*
X1271514Y2363662D1*
X1262749Y2362972D1*
X1253985Y2363662D1*
X1245436Y2365715D1*
X1237313Y2369079D1*
X1229817Y2373673D1*
X1223132Y2379383D1*
X1217422Y2386068D1*
X1212828Y2393564D1*
X1209464Y2401687D1*
X1207412Y2410235D1*
X1206722Y2419000D1*
X1207412Y2427765D1*
X1209464Y2436313D1*
X1212828Y2444436D1*
X1217422Y2451932D1*
X1223132Y2458617D1*
X1229817Y2464327D1*
X1237313Y2468921D1*
X1245436Y2472285D1*
X1253985Y2474338D1*
X1262749Y2475028D1*
X1271514Y2474338D1*
X1280063Y2472285D1*
X1288185Y2468921D1*
X1293467Y2465807D1*
X1298132Y2471117D1*
X1304817Y2476827D1*
X1312313Y2481421D1*
X1320436Y2484785D1*
X1328985Y2486838D1*
X1337749Y2487528D1*
X1346514Y2486838D1*
X1355063Y2484785D1*
X1363185Y2481421D1*
X1370682Y2476827D1*
X1377367Y2471117D1*
X1383077Y2464432D1*
X1387670Y2456936D1*
X1391035Y2448813D1*
X1393087Y2440265D1*
X1393777Y2431500D1*
X1393384Y2425244D1*
X1785942Y2032558D1*
X1788755Y2028686D1*
X1790928Y2024421D1*
X1792407Y2019869D1*
X1793155Y2015142D1*
X1793249Y1950249D1*
X1792874Y1945478D1*
X1791757Y1940824D1*
X1789925Y1936403D1*
X1787424Y1932322D1*
X1784316Y1928683D1*
X1722023Y1866389D1*
X1722000Y1700046D1*
X1726692Y1694569D1*
X1730259Y1688749D1*
X1732871Y1682442D1*
X1734464Y1675805D1*
X1735000Y1669000D1*
X1734866Y1665587D1*
X2018604Y1858353D2*
X2017229Y1849670D1*
X2014512Y1841309D1*
X2010521Y1833475D1*
X2005353Y1826362D1*
X1999136Y1820146D1*
X1992024Y1814978D1*
X1984190Y1810987D1*
X1975829Y1808270D1*
X1967145Y1806895D1*
X1958353D1*
X1949670Y1808270D1*
X1941309Y1810987D1*
X1933475Y1814978D1*
X1926362Y1820146D1*
X1920146Y1826362D1*
X1914978Y1833475D1*
X1910987Y1841309D1*
X1908270Y1849670D1*
X1906895Y1858353D1*
Y1867145D1*
X1908270Y1875829D1*
X1910987Y1884190D1*
X1914978Y1892024D1*
X1920146Y1899136D1*
X1926362Y1905353D1*
X1933475Y1910521D1*
X1941309Y1914512D1*
X1949670Y1917229D1*
X1958353Y1918604D1*
X1967145D1*
X1975829Y1917229D1*
X1984190Y1914512D1*
X1992024Y1910521D1*
X1999136Y1905353D1*
X2005353Y1899136D1*
X2010521Y1892024D1*
X2014512Y1884190D1*
X2017229Y1875829D1*
X2018604Y1867145D1*
Y1858353D1*
X756104Y1014604D2*
X755014Y1007353D1*
X760774Y1004271D1*
X767887Y999104D1*
X774104Y992887D1*
X779271Y985774D1*
X783263Y977941D1*
X785980Y969579D1*
X787355Y960896D1*
Y952104D1*
X785980Y943421D1*
X783263Y935059D1*
X779271Y927226D1*
X774104Y920113D1*
X767887Y913896D1*
X760774Y908729D1*
X752941Y904737D1*
X744579Y902020D1*
X735896Y900645D1*
X727104D1*
X718421Y902020D1*
X710059Y904737D1*
X702226Y908729D1*
X695113Y913896D1*
X688896Y920113D1*
X683729Y927226D1*
X679737Y935059D1*
X677020Y943421D1*
X675645Y952104D1*
Y960896D1*
X676736Y968147D1*
X670975Y971229D1*
X663862Y976396D1*
X657646Y982613D1*
X652478Y989726D1*
X648487Y997559D1*
X645770Y1005921D1*
X644395Y1014604D1*
Y1023396D1*
X645770Y1032079D1*
X648487Y1040441D1*
X652478Y1048274D1*
X657646Y1055387D1*
X663862Y1061604D1*
X670975Y1066771D1*
X678809Y1070763D1*
X687170Y1073480D1*
X695853Y1074855D1*
X704645D1*
X713329Y1073480D1*
X721690Y1070763D1*
X729524Y1066771D1*
X736636Y1061604D1*
X742853Y1055387D1*
X748021Y1048274D1*
X752012Y1040441D1*
X754729Y1032079D1*
X756104Y1023396D1*
Y1014604D1*
X1566501Y3215395D2*
Y3060104D1*
X1488856Y3137749D2*
X1644147D1*
X1769257Y3215395D2*
Y3060104D1*
X1691612Y3137749D2*
X1846902D1*
X1769257Y3418150D2*
Y3262860D1*
X1691612Y3340505D2*
X1846902D1*
X1566501Y3418150D2*
Y3262860D1*
X1488856Y3340505D2*
X1644147D1*
X2178999Y1190099D2*
Y1026935D1*
X2097416Y1108517D2*
X2260581D1*
X578992Y1575106D2*
Y1519115D1*
X523000Y1575106D2*
X634984D1*
X3897661Y2704986D2*
Y2396153D1*
X3812142Y2550570D2*
X3983181D1*
X3897749Y1354880D2*
Y1046046D1*
X3812230Y1200463D2*
X3983269D1*
X3897749Y3379666D2*
Y3070832D1*
X3812230Y3225249D2*
X3983269D1*
X3897749Y2029809D2*
Y1720976D1*
X3812230Y1875392D2*
X3983269D1*
X1441500Y699990D2*
Y588007D1*
X744000Y560178D2*
Y440320D1*
X684072Y500249D2*
X744000D1*
X3497749Y647471D2*
Y515527D1*
D24*
X1566501Y3137749D3*
X1769257D3*
Y3340505D3*
X1566501D3*
D25*
X1667879Y3239127D3*
D32*
X2178999Y1850249D3*
D33*
Y1108517D3*
D35*
X578992Y1575106D3*
D36*
Y1675106D3*
Y1775106D3*
D37*
X3416194Y3343671D3*
Y2556269D3*
D38*
X3897661Y2550570D3*
Y2239546D3*
X3897749Y1200463D3*
Y889440D3*
Y3225249D3*
Y2914226D3*
Y1875392D3*
Y1564369D3*
D35*
X1341500Y643999D3*
D36*
X1441500D3*
D39*
X744000Y500249D3*
D40*
X844000D3*
X944000D3*
X1044000D3*
X1144000D3*
X1244000D3*
D39*
X1597751Y762749D3*
D40*
Y939915D3*
X1341845D3*
Y762749D3*
D61*
X2897749Y581499D3*
X2997749D3*
X3097749D3*
X3197749D3*
X3297749D3*
X3397749D3*
X3497749D3*
X3597749D3*
X3697749D3*
D62*
X1962749Y1862749D3*
X700249Y1019000D3*
X731500Y956500D3*
X1000249Y2450249D3*
X1175249Y2312749D3*
X1150249Y2425249D3*
X1262749Y2419000D3*
X1337749Y2431500D3*
X3356500Y819000D3*
M02*
