%TF.GenerationSoftware,Novarm,DipTrace,3.3.1.1*%
%TF.CreationDate,2019-02-09T17:58:53-08:00*%
%FSLAX26Y26*%
%MOIN*%
%TF.FileFunction,Legend,Bot*%
%TF.Part,Single*%
%ADD12C,0.003*%
%ADD147C,0.015439*%
G75*
G01*
%LPD*%
X3118495Y1522110D2*
D12*
X3211495D1*
X3108830Y1519110D2*
X3222059D1*
X3099414Y1516110D2*
X3231902D1*
X3090402Y1513110D2*
X3240580D1*
X3082094Y1510110D2*
X3248365D1*
X3074810Y1507110D2*
X3255637D1*
X3068498Y1504110D2*
X3262299D1*
X3062921Y1501110D2*
X3268104D1*
X3057672Y1498110D2*
X3273265D1*
X3052542Y1495110D2*
X3278055D1*
X3047627Y1492110D2*
X3282676D1*
X3042924Y1489110D2*
X3287219D1*
X3038427Y1486110D2*
X3291737D1*
X3034270Y1483110D2*
X3133723D1*
X3200308D2*
X3296229D1*
X3030482Y1480110D2*
X3122516D1*
X3210399D2*
X3300628D1*
X3026842Y1477110D2*
X3112188D1*
X3220128D2*
X3304732D1*
X3023161Y1474110D2*
X3102726D1*
X3229004D2*
X3308411D1*
X3019476Y1471110D2*
X3094208D1*
X3237097D2*
X3311745D1*
X3015834Y1468110D2*
X3086751D1*
X3244411D2*
X3314900D1*
X3012409Y1465110D2*
X3080132D1*
X3250824D2*
X3317957D1*
X3009278Y1462110D2*
X3074220D1*
X3256383D2*
X3320984D1*
X3006456Y1459110D2*
X3069022D1*
X3261393D2*
X3323988D1*
X3003847Y1456110D2*
X3064519D1*
X3266096D2*
X3326996D1*
X3001165Y1453110D2*
X3060567D1*
X3270579D2*
X3329992D1*
X2998348Y1450110D2*
X3056772D1*
X3274727D2*
X3332985D1*
X2995447Y1447110D2*
X3052779D1*
X3278510D2*
X3335887D1*
X2992589Y1444110D2*
X3048656D1*
X3282137D2*
X3338591D1*
X2989986Y1441110D2*
X3044672D1*
X3285724D2*
X3341051D1*
X2987722Y1438110D2*
X3041050D1*
X3289120D2*
X3343334D1*
X2985598Y1435110D2*
X3037731D1*
X3292332D2*
X3345415D1*
X2983504Y1432110D2*
X3034588D1*
X3295418D2*
X3347451D1*
X2981513Y1429110D2*
X3031529D1*
X3298365D2*
X3349508D1*
X2979515Y1426110D2*
X3028519D1*
X3301092D2*
X3351485D1*
X2977473Y1423110D2*
X3025616D1*
X3303668D2*
X3353477D1*
X2975502Y1420110D2*
X3022996D1*
X3306331D2*
X3355506D1*
X2973511Y1417110D2*
X3020713D1*
X3309136D2*
X3357383D1*
X2971484Y1414110D2*
X3018494D1*
X3311948D2*
X3359084D1*
X2969607Y1411110D2*
X3016122D1*
X3314615D2*
X3360682D1*
X2967905Y1408110D2*
X3013783D1*
X3317060D2*
X3362231D1*
X2966308Y1405110D2*
X3011640D1*
X3319326D2*
X3363843D1*
X2964770Y1402110D2*
X3009568D1*
X3321311D2*
X3365623D1*
X2963252Y1399110D2*
X3007505D1*
X3323058D2*
X3367463D1*
X2961749Y1396110D2*
X3005615D1*
X3324672D2*
X3369012D1*
X2960256Y1393110D2*
X3003908D1*
X3326228D2*
X3370269D1*
X2958852Y1390110D2*
X3002308D1*
X3327842D2*
X3371522D1*
X2957638Y1387110D2*
X3000770D1*
X3329623D2*
X3372861D1*
X2956570Y1384110D2*
X2999252D1*
X3331463D2*
X3374179D1*
X2955407Y1381110D2*
X2997749D1*
X3333012D2*
X3375267D1*
X2954103Y1378110D2*
X2996245D1*
X3334269D2*
X3376033D1*
X2952772Y1375110D2*
X2994746D1*
X3335522D2*
X3376761D1*
X2951562Y1372110D2*
X2993255D1*
X3336861D2*
X3377734D1*
X2950495Y1369110D2*
X2956495D1*
X2973316D2*
X2991863D1*
X3338179D2*
X3378946D1*
X2979813Y1366110D2*
X2990746D1*
X3339255D2*
X3380211D1*
X2956495Y1363110D2*
X2974495D1*
X2984705D2*
X2990021D1*
X3339918D2*
X3381266D1*
X2954084Y1360110D2*
X2977728D1*
X2988180D2*
X2989495D1*
X3340270D2*
X3381920D1*
X2952330Y1357110D2*
X2980207D1*
X2990770D2*
X3058495D1*
X3127495D2*
X3175495D1*
X3241495D2*
X3382263D1*
X2951325Y1354110D2*
X2981970D1*
X2991661D2*
X3064815D1*
X3126355D2*
X3173547D1*
X3236096D2*
X3337031D1*
X3343958D2*
X3382516D1*
X2950838Y1351110D2*
X2983348D1*
X2992141D2*
X3069582D1*
X3125066D2*
X3171567D1*
X3231459D2*
X3336287D1*
X3344702D2*
X3382959D1*
X2950627Y1348110D2*
X2984830D1*
X2992357D2*
X3072851D1*
X3123673D2*
X3169495D1*
X3227954D2*
X3335511D1*
X3345479D2*
X3383700D1*
X2950543Y1345110D2*
X2986495D1*
X2992444D2*
X3075171D1*
X3122215D2*
X3171917D1*
X3225290D2*
X3334985D1*
X3346004D2*
X3384478D1*
X2950535Y1342110D2*
X2984623D1*
X2992478D2*
X3076912D1*
X3120736D2*
X3173789D1*
X3224362D2*
X3334706D1*
X3346295D2*
X3385004D1*
X2950747Y1339110D2*
X2982807D1*
X2992495D2*
X3078157D1*
X3119252D2*
X3175281D1*
X3223863D2*
X3334579D1*
X3346528D2*
X3385283D1*
X2951269Y1336110D2*
X2980825D1*
X3040495D2*
X3078881D1*
X3117862D2*
X3176869D1*
X3223638D2*
X3262495D1*
X3295495D2*
X3334526D1*
X3346963D2*
X3385410D1*
X2953487Y1333110D2*
X2978616D1*
X3040495D2*
X3079238D1*
X3116743D2*
X3178579D1*
X3223548D2*
X3262495D1*
X3295495D2*
X3334506D1*
X3347702D2*
X3385463D1*
X2956365Y1330110D2*
X2976455D1*
X3040495D2*
X3079395D1*
X3115952D2*
X3180073D1*
X3223513D2*
X3262495D1*
X3295495D2*
X3334499D1*
X3348490D2*
X3385483D1*
X2959495Y1327110D2*
X2974495D1*
X3040495D2*
X3079458D1*
X3115125D2*
X3157381D1*
X3164073D2*
X3181393D1*
X3223501D2*
X3262495D1*
X3295495D2*
X3334496D1*
X3349121D2*
X3385491D1*
X3040495Y1324110D2*
X3079482D1*
X3113874D2*
X3156984D1*
X3165201D2*
X3182911D1*
X3223497D2*
X3262506D1*
X3295483D2*
X3334495D1*
X3349782D2*
X3385493D1*
X3040495Y1321110D2*
X3079490D1*
X3112314D2*
X3156160D1*
X3166697D2*
X3184594D1*
X3223495D2*
X3262621D1*
X3295369D2*
X3334495D1*
X3350629D2*
X3385494D1*
X3040495Y1318110D2*
X3079493D1*
X3110893D2*
X3154996D1*
X3168003D2*
X3186066D1*
X3223518D2*
X3263084D1*
X3294905D2*
X3334495D1*
X3351450D2*
X3385495D1*
X3040495Y1315110D2*
X3079494D1*
X3109689D2*
X3153649D1*
X3168922D2*
X3187290D1*
X3223776D2*
X3264110D1*
X3293880D2*
X3334495D1*
X3351994D2*
X3385495D1*
X3040495Y1312110D2*
X3079495D1*
X3108457D2*
X3152208D1*
X3169816D2*
X3188529D1*
X3224409D2*
X3265495D1*
X3292495D2*
X3334495D1*
X3352279D2*
X3385495D1*
X3040495Y1309110D2*
X3079495D1*
X3107124D2*
X3150733D1*
X3171097D2*
X3189876D1*
X3227415D2*
X3334495D1*
X3352409D2*
X3385495D1*
X3040495Y1306110D2*
X3079495D1*
X3105798D2*
X3149251D1*
X3172669D2*
X3191297D1*
X3234000D2*
X3334495D1*
X3352463D2*
X3385495D1*
X3040495Y1303110D2*
X3079495D1*
X3104605D2*
X3147861D1*
X3174103D2*
X3192766D1*
X3241495D2*
X3334495D1*
X3352483D2*
X3385495D1*
X3040495Y1300110D2*
X3079495D1*
X3103457D2*
X3146746D1*
X3175381D2*
X3194251D1*
X3233904D2*
X3334495D1*
X3352491D2*
X3385495D1*
X3040495Y1297110D2*
X3079495D1*
X3102022D2*
X3146021D1*
X3176837D2*
X3195749D1*
X3227797D2*
X3334495D1*
X3352493D2*
X3385495D1*
X3040495Y1294110D2*
X3079495D1*
X3100385D2*
X3145495D1*
X3178495D2*
X3197244D1*
X3225190D2*
X3334495D1*
X3352494D2*
X3385495D1*
X3040495Y1291110D2*
X3079495D1*
X3099021D2*
X3198746D1*
X3224279D2*
X3266084D1*
X3295495D2*
X3334495D1*
X3352483D2*
X3385495D1*
X3040495Y1288110D2*
X3079495D1*
X3098091D2*
X3200244D1*
X3223814D2*
X3264330D1*
X3295495D2*
X3334495D1*
X3352378D2*
X3385495D1*
X3040495Y1285110D2*
X3079495D1*
X3097283D2*
X3201734D1*
X3223615D2*
X3263325D1*
X3295495D2*
X3334495D1*
X3351995D2*
X3385495D1*
X3040495Y1282110D2*
X3079495D1*
X3096277D2*
X3203138D1*
X3223538D2*
X3262838D1*
X3295495D2*
X3334495D1*
X3351277D2*
X3385495D1*
X3040495Y1279110D2*
X3079495D1*
X3095040D2*
X3204364D1*
X3223509D2*
X3262627D1*
X3295495D2*
X3334495D1*
X3350496D2*
X3385495D1*
X3040495Y1276110D2*
X3079495D1*
X3093664D2*
X3205525D1*
X3223500D2*
X3262543D1*
X3295495D2*
X3334495D1*
X3349867D2*
X3385495D1*
X2956495Y1273110D2*
X2974495D1*
X3040495D2*
X3079495D1*
X3092213D2*
X3136970D1*
X3187019D2*
X3206965D1*
X3223496D2*
X3262512D1*
X3295495D2*
X3334495D1*
X3349207D2*
X3385495D1*
X2954084Y1270110D2*
X2977728D1*
X3040495D2*
X3079483D1*
X3090735D2*
X3134819D1*
X3189158D2*
X3208615D1*
X3223495D2*
X3262500D1*
X3295495D2*
X3334495D1*
X3348361D2*
X3385495D1*
X2952330Y1267110D2*
X2980195D1*
X3040495D2*
X3079378D1*
X3089251D2*
X3132990D1*
X3190894D2*
X3210085D1*
X3223495D2*
X3262495D1*
X3295495D2*
X3334495D1*
X3347539D2*
X3385495D1*
X2951325Y1264110D2*
X2981844D1*
X2992495D2*
X3004495D1*
X3010495D2*
X3078984D1*
X3087850D2*
X3131351D1*
X3192256D2*
X3211398D1*
X3223518D2*
X3334495D1*
X3346996D2*
X3385483D1*
X2950838Y1261110D2*
X2982756D1*
X2992495D2*
X3078136D1*
X3086625D2*
X3129910D1*
X3193361D2*
X3212924D1*
X3223729D2*
X3334506D1*
X3346698D2*
X3385378D1*
X2950627Y1258110D2*
X2983180D1*
X2992495D2*
X3076739D1*
X3085464D2*
X3128885D1*
X3194336D2*
X3214712D1*
X3224221D2*
X3334612D1*
X3346463D2*
X3384995D1*
X2950543Y1255110D2*
X2983261D1*
X2992495D2*
X3074870D1*
X3084022D2*
X3128317D1*
X3195133D2*
X3216577D1*
X3226356D2*
X3334996D1*
X3346015D2*
X3384277D1*
X2950535Y1252110D2*
X2982929D1*
X2992495D2*
X3070572D1*
X3082351D2*
X3128921D1*
X3194788D2*
X3218617D1*
X3229824D2*
X3335740D1*
X3345171D2*
X3383508D1*
X2950758Y1249110D2*
X2982016D1*
X2992495D2*
X3064917D1*
X3080826D2*
X3129707D1*
X3194166D2*
X3220972D1*
X3235078D2*
X3336633D1*
X3344012D2*
X3382973D1*
X2951316Y1246110D2*
X2980373D1*
X2992495D2*
X3058495D1*
X3079495D2*
X3130495D1*
X3193495D2*
X3223495D1*
X3241495D2*
X3337495D1*
X3342768D2*
X3382589D1*
X2954056Y1243110D2*
X2977900D1*
X2986495D2*
X2989495D1*
X3341708D2*
X3382079D1*
X2957975Y1240110D2*
X2974796D1*
X2984891D2*
X2990520D1*
X3340940D2*
X3381297D1*
X2962495Y1237110D2*
X2971495D1*
X2982818D2*
X2991425D1*
X3340121D2*
X3380402D1*
X2950495Y1234110D2*
X2953495D1*
X2980495D2*
X2992099D1*
X3338873D2*
X3379489D1*
X2951635Y1231110D2*
X2992787D1*
X3337313D2*
X3378489D1*
X2952912Y1228110D2*
X2993743D1*
X3335892D2*
X3377580D1*
X2954200Y1225110D2*
X2994961D1*
X3334689D2*
X3376887D1*
X2955275Y1222110D2*
X2996341D1*
X3333456D2*
X3376101D1*
X2956048Y1219110D2*
X2997883D1*
X3332112D2*
X3374865D1*
X2956868Y1216110D2*
X2999637D1*
X3330680D2*
X3373311D1*
X2958117Y1213110D2*
X3001480D1*
X3329117D2*
X3371892D1*
X2959676Y1210110D2*
X3003131D1*
X3327344D2*
X3370688D1*
X2961109Y1207110D2*
X3004769D1*
X3325405D2*
X3369456D1*
X2962406Y1204110D2*
X3006740D1*
X3323476D2*
X3368112D1*
X2963915Y1201110D2*
X3008860D1*
X3321502D2*
X3366680D1*
X2965596Y1198110D2*
X3010830D1*
X3319469D2*
X3365117D1*
X2967078Y1195110D2*
X3012777D1*
X3317489D2*
X3363344D1*
X2968395Y1192110D2*
X3015060D1*
X3315393D2*
X3361405D1*
X2969935Y1189110D2*
X3017771D1*
X3312984D2*
X3359476D1*
X2971817Y1186110D2*
X3020501D1*
X3310377D2*
X3357502D1*
X2973960Y1183110D2*
X3023111D1*
X3307801D2*
X3355469D1*
X2976332Y1180110D2*
X3025808D1*
X3305286D2*
X3353500D1*
X2978680Y1177110D2*
X3028634D1*
X3302646D2*
X3351511D1*
X2980745Y1174110D2*
X3031552D1*
X3299838D2*
X3349472D1*
X2982644Y1171110D2*
X3034516D1*
X3296923D2*
X3347490D1*
X2984656Y1168110D2*
X3037514D1*
X3293863D2*
X3345406D1*
X2986943Y1165110D2*
X3040603D1*
X3290595D2*
X3343090D1*
X2989336Y1162110D2*
X3043890D1*
X3287154D2*
X3340771D1*
X2991764Y1159110D2*
X3047331D1*
X3283716D2*
X3338625D1*
X2994366Y1156110D2*
X3050775D1*
X3280134D2*
X3336449D1*
X2997160Y1153110D2*
X3054365D1*
X3276220D2*
X3333993D1*
X3000058Y1150110D2*
X3058389D1*
X3272008D2*
X3331279D1*
X3003022Y1147110D2*
X3062967D1*
X3267540D2*
X3328409D1*
X3006001Y1144110D2*
X3068064D1*
X3262699D2*
X3325463D1*
X3009000Y1141110D2*
X3073393D1*
X3257399D2*
X3322483D1*
X3011993Y1138110D2*
X3078908D1*
X3251729D2*
X3319479D1*
X3014997Y1135110D2*
X3085000D1*
X3245770D2*
X3316376D1*
X3018004Y1132110D2*
X3092031D1*
X3239304D2*
X3312995D1*
X3021114Y1129110D2*
X3100150D1*
X3231857D2*
X3309265D1*
X3024504Y1126110D2*
X3109603D1*
X3222666D2*
X3305390D1*
X3028332Y1123110D2*
X3120629D1*
X3210978D2*
X3301473D1*
X3032491Y1120110D2*
X3132873D1*
X3196810D2*
X3297371D1*
X3036855Y1117110D2*
X3145495D1*
X3181495D2*
X3293080D1*
X3041385Y1114110D2*
X3288681D1*
X3046153Y1111110D2*
X3284207D1*
X3051084Y1108110D2*
X3279620D1*
X3056028Y1105110D2*
X3274718D1*
X3061114Y1102110D2*
X3269293D1*
X3066652Y1099110D2*
X3263245D1*
X3072845Y1096110D2*
X3256659D1*
X3079956Y1093110D2*
X3249711D1*
X3088130Y1090110D2*
X3242200D1*
X3097706Y1087110D2*
X3233354D1*
X3109031Y1084110D2*
X3222887D1*
X3121495Y1081110D2*
X3211495D1*
X4381882Y1984563D2*
X4555882D1*
X4362274Y1981563D2*
X4575141D1*
X4343566Y1978563D2*
X4593489D1*
X4326408Y1975563D2*
X4610577D1*
X4310957Y1972563D2*
X4626179D1*
X4296957Y1969563D2*
X4640134D1*
X4284260Y1966563D2*
X4423264D1*
X4514500D2*
X4652552D1*
X4272680Y1963563D2*
X4395480D1*
X4542284D2*
X4663880D1*
X4262011Y1960563D2*
X4371460D1*
X4566304D2*
X4674479D1*
X4252005Y1957563D2*
X4350971D1*
X4586793D2*
X4684587D1*
X4242302Y1954563D2*
X4333313D1*
X4604439D2*
X4694321D1*
X4232800Y1951563D2*
X4317786D1*
X4619860D2*
X4703532D1*
X4223880Y1948563D2*
X4303909D1*
X4633355D2*
X4712249D1*
X4215776Y1945563D2*
X4291233D1*
X4645324D2*
X4720635D1*
X4208282Y1942563D2*
X4279637D1*
X4656245D2*
X4728658D1*
X4201033Y1939563D2*
X4269140D1*
X4666495D2*
X4736317D1*
X4194036Y1936563D2*
X4259418D1*
X4676287D2*
X4743545D1*
X4187411Y1933563D2*
X4250215D1*
X4685520D2*
X4750267D1*
X4181006Y1930563D2*
X4241574D1*
X4694244D2*
X4756625D1*
X4174590Y1927563D2*
X4233638D1*
X4702634D2*
X4762782D1*
X4168197Y1924563D2*
X4226225D1*
X4710657D2*
X4768845D1*
X4162125Y1921563D2*
X4219011D1*
X4718317D2*
X4774857D1*
X4156374Y1918563D2*
X4212028D1*
X4725545D2*
X4780760D1*
X4150722Y1915563D2*
X4205420D1*
X4732267D2*
X4786381D1*
X4145266Y1912563D2*
X4199110D1*
X4738624D2*
X4791652D1*
X4140165Y1909563D2*
X4192972D1*
X4744782D2*
X4796777D1*
X4135360Y1906563D2*
X4186915D1*
X4750845D2*
X4801860D1*
X4130720Y1903563D2*
X4180905D1*
X4756857D2*
X4806758D1*
X4126166Y1900563D2*
X4175003D1*
X4762760D2*
X4811468D1*
X4121643Y1897563D2*
X4169383D1*
X4768369D2*
X4816056D1*
X4117137Y1894563D2*
X4164112D1*
X4773546D2*
X4820501D1*
X4112644Y1891563D2*
X4158986D1*
X4778395D2*
X4824730D1*
X4108239Y1888563D2*
X4153904D1*
X4783142D2*
X4828792D1*
X4104025Y1885563D2*
X4149006D1*
X4787977D2*
X4832863D1*
X4099969Y1882563D2*
X4144296D1*
X4792839D2*
X4836889D1*
X4095911Y1879563D2*
X4139708D1*
X4797396D2*
X4840856D1*
X4091992Y1876563D2*
X4135275D1*
X4801643D2*
X4844876D1*
X4088407Y1873563D2*
X4131139D1*
X4805791D2*
X4848781D1*
X4085106Y1870563D2*
X4127354D1*
X4809761D2*
X4852359D1*
X4081970Y1867563D2*
X4123631D1*
X4813465D2*
X4855659D1*
X4078915Y1864563D2*
X4119761D1*
X4817154D2*
X4858794D1*
X4075894Y1861563D2*
X4115931D1*
X4735882D2*
D3*
X4821010D2*
X4861849D1*
X4072886Y1858563D2*
X4112384D1*
X4736357D2*
X4735882D1*
X4816882D2*
D3*
X4824836D2*
X4864870D1*
X4069883Y1855563D2*
X4109098D1*
X4737206D2*
X4738882D1*
X4813882D2*
X4816882D1*
X4828380D2*
X4867878D1*
X4066882Y1852563D2*
X4105967D1*
X4738377D2*
X4742241D1*
X4810882D2*
X4814919D1*
X4831666D2*
X4870881D1*
X4063882Y1849563D2*
X4102914D1*
X4739727D2*
X4745210D1*
X4807882D2*
X4812918D1*
X4834796D2*
X4873881D1*
X4060882Y1846563D2*
X4099893D1*
X4741169D2*
X4748077D1*
X4804882D2*
X4810880D1*
X4837850D2*
X4876870D1*
X4057894Y1843563D2*
X4096886D1*
X4742643D2*
X4750977D1*
X4774882D2*
D3*
X4801882D2*
X4808998D1*
X4840871D2*
X4879765D1*
X4054999Y1840563D2*
X4093883D1*
X4744137D2*
X4753923D1*
X4774870D2*
X4774882D1*
X4798882D2*
X4807294D1*
X4843866D2*
X4882382D1*
X4052381Y1837563D2*
X4090882D1*
X4745632D2*
X4756898D1*
X4774756D2*
X4777882D1*
X4795882D2*
X4805695D1*
X4846763D2*
X4884652D1*
X4050112Y1834563D2*
X4087894D1*
X4747134D2*
X4759888D1*
X4774292D2*
X4777882D1*
X4792882D2*
X4804146D1*
X4849382D2*
X4886778D1*
X4047986Y1831563D2*
X4084999D1*
X4748631D2*
X4762884D1*
X4773267D2*
X4777882D1*
X4789882D2*
X4802534D1*
X4851664D2*
X4888872D1*
X4045892Y1828563D2*
X4082381D1*
X4093882D2*
D3*
X4750133D2*
X4765882D1*
X4771882D2*
X4777882D1*
X4786882D2*
X4800742D1*
X4853883D2*
X4890864D1*
X4043900Y1825563D2*
X4080112D1*
X4093882D2*
X4096882D1*
X4751640D2*
X4798798D1*
X4856254D2*
X4892862D1*
X4041902Y1822563D2*
X4077986D1*
X4093882D2*
X4098742D1*
X4753220D2*
X4796881D1*
X4858594D2*
X4894903D1*
X4039860Y1819563D2*
X4075892D1*
X4093882D2*
X4100465D1*
X4754971D2*
X4794930D1*
X4860736D2*
X4896875D1*
X4037889Y1816563D2*
X4073900D1*
X4093882D2*
X4102165D1*
X4756882D2*
X4792882D1*
X4862809D2*
X4898866D1*
X4035898Y1813563D2*
X4071902D1*
X4093882D2*
X4103997D1*
X4738882D2*
X4813882D1*
X4864883D2*
X4900893D1*
X4033871Y1810563D2*
X4069872D1*
X4093882D2*
X4105947D1*
X4744330D2*
X4808235D1*
X4866867D2*
X4902770D1*
X4031994Y1807563D2*
X4067994D1*
X4093882D2*
X4107790D1*
X4749278D2*
X4803971D1*
X4868863D2*
X4904472D1*
X4030292Y1804563D2*
X4066281D1*
X4093882D2*
X4109479D1*
X4753882D2*
X4801081D1*
X4870892D2*
X4906069D1*
X4028695Y1801563D2*
X4064589D1*
X4093882D2*
X4111072D1*
X4240882D2*
X4342882D1*
X4354882D2*
X4456882D1*
X4465882D2*
X4570882D1*
X4579882D2*
X4684882D1*
X4748241D2*
X4798882D1*
X4872769D2*
X4907607D1*
X4027157Y1798563D2*
X4062763D1*
X4093894D2*
X4112607D1*
X4240882D2*
X4342882D1*
X4353497D2*
X4456882D1*
X4465882D2*
X4570882D1*
X4579882D2*
X4684882D1*
X4742198D2*
X4806267D1*
X4874472D2*
X4909124D1*
X4025651Y1795563D2*
X4060815D1*
X4093999D2*
X4114125D1*
X4240882D2*
X4342882D1*
X4352635D2*
X4456882D1*
X4465882D2*
X4570882D1*
X4579882D2*
X4684882D1*
X4735960D2*
X4813140D1*
X4876069D2*
X4910628D1*
X4024242Y1792563D2*
X4058973D1*
X4094381D2*
X4115628D1*
X4240882D2*
X4342882D1*
X4352199D2*
X4456882D1*
X4465882D2*
X4570882D1*
X4579882D2*
X4684882D1*
X4729489D2*
X4819670D1*
X4877607D2*
X4912120D1*
X4023026Y1789563D2*
X4057285D1*
X4095100D2*
X4117132D1*
X4240882D2*
X4342882D1*
X4352006D2*
X4456882D1*
X4465882D2*
X4570882D1*
X4579882D2*
X4684882D1*
X4722830D2*
X4826133D1*
X4879124D2*
X4913525D1*
X4021969Y1786563D2*
X4055704D1*
X4095869D2*
X4118630D1*
X4240882D2*
X4342882D1*
X4351928D2*
X4456882D1*
X4465882D2*
X4570882D1*
X4579882D2*
X4684882D1*
X4716492D2*
X4742433D1*
X4756756D2*
X4792533D1*
X4808433D2*
X4832492D1*
X4880628D2*
X4914739D1*
X4020899Y1783563D2*
X4054262D1*
X4096392D2*
X4120133D1*
X4240882D2*
X4342882D1*
X4351898D2*
X4456882D1*
X4465882D2*
X4570882D1*
X4579882D2*
X4684882D1*
X4710939D2*
X4725486D1*
X4756266D2*
X4795173D1*
X4824486D2*
X4838390D1*
X4882120D2*
X4915795D1*
X4019874Y1780563D2*
X4053033D1*
X4096671D2*
X4121631D1*
X4240882D2*
X4342882D1*
X4351887D2*
X4456882D1*
X4465882D2*
X4570882D1*
X4579882D2*
X4684882D1*
X4705882D2*
X4708882D1*
X4755162D2*
X4762416D1*
X4768894D2*
X4780768D1*
X4789882D2*
X4798127D1*
X4840882D2*
X4843882D1*
X4883525D2*
X4916864D1*
X4018908Y1777563D2*
X4051972D1*
X4096809D2*
X4123121D1*
X4240882D2*
X4342882D1*
X4351884D2*
X4456882D1*
X4465882D2*
X4570882D1*
X4579882D2*
X4684882D1*
X4753641D2*
X4758647D1*
X4768999D2*
X4780383D1*
X4792882D2*
X4801477D1*
X4884739D2*
X4917889D1*
X4017888Y1774563D2*
X4050912D1*
X4096968D2*
X4124525D1*
X4240882D2*
X4342882D1*
X4351882D2*
X4456882D1*
X4465882D2*
X4570882D1*
X4579882D2*
X4684882D1*
X4752180D2*
X4754747D1*
X4769381D2*
X4779664D1*
X4795882D2*
X4805103D1*
X4885795D2*
X4918856D1*
X4016971Y1771563D2*
X4049980D1*
X4097370D2*
X4125739D1*
X4240882D2*
X4342882D1*
X4351882D2*
X4456882D1*
X4465882D2*
X4570882D1*
X4579882D2*
X4684882D1*
X4750882D2*
D3*
X4770100D2*
X4778895D1*
X4798882D2*
X4808973D1*
X4886864D2*
X4919876D1*
X4016287Y1768563D2*
X4049290D1*
X4098096D2*
X4126795D1*
X4240882D2*
X4267882D1*
X4312882D2*
X4342882D1*
X4351882D2*
X4381882D1*
X4426882D2*
X4456882D1*
X4504882D2*
X4531882D1*
X4579882D2*
X4609882D1*
X4654882D2*
X4684882D1*
X4770869D2*
X4778371D1*
X4801882D2*
X4812816D1*
X4887889D2*
X4920781D1*
X4015605Y1765563D2*
X4048606D1*
X4098868D2*
X4127864D1*
X4240882D2*
X4267882D1*
X4312882D2*
X4342882D1*
X4351882D2*
X4381882D1*
X4426882D2*
X4456882D1*
X4504882D2*
X4531882D1*
X4579882D2*
X4609882D1*
X4654882D2*
X4684882D1*
X4771392D2*
X4778093D1*
X4804870D2*
X4816372D1*
X4888856D2*
X4921359D1*
X4014752Y1762563D2*
X4047752D1*
X4099404D2*
X4128889D1*
X4240882D2*
X4267882D1*
X4312882D2*
X4342882D1*
X4351882D2*
X4381882D1*
X4426882D2*
X4456882D1*
X4504882D2*
X4531882D1*
X4579882D2*
X4609882D1*
X4654882D2*
X4684882D1*
X4771671D2*
X4777966D1*
X4807765D2*
X4819663D1*
X4889876D2*
X4921659D1*
X4013928Y1759563D2*
X4046916D1*
X4099788D2*
X4129868D1*
X4240882D2*
X4267882D1*
X4312882D2*
X4342882D1*
X4351882D2*
X4381882D1*
X4426882D2*
X4456882D1*
X4504882D2*
X4531882D1*
X4579882D2*
X4609882D1*
X4654847D2*
X4684882D1*
X4771798D2*
X4777913D1*
X4810382D2*
X4822783D1*
X4890781D2*
X4921794D1*
X4013383Y1756563D2*
X4046266D1*
X4100297D2*
X4130993D1*
X4240882D2*
X4267882D1*
X4312882D2*
X4342882D1*
X4351882D2*
X4381882D1*
X4426882D2*
X4456882D1*
X4504882D2*
X4531882D1*
X4579882D2*
X4609882D1*
X4654495D2*
X4684882D1*
X4771862D2*
X4777893D1*
X4812652D2*
X4825732D1*
X4891371D2*
X4921849D1*
X4013097Y1753563D2*
X4045598D1*
X4101068D2*
X4132280D1*
X4240882D2*
X4267882D1*
X4312882D2*
X4342882D1*
X4351882D2*
X4381882D1*
X4426882D2*
X4456882D1*
X4504882D2*
X4531882D1*
X4653651D2*
X4684882D1*
X4771988D2*
X4777874D1*
X4814778D2*
X4828371D1*
X4891776D2*
X4921870D1*
X4012967Y1750563D2*
X4044749D1*
X4101858D2*
X4133589D1*
X4240882D2*
X4267882D1*
X4312882D2*
X4342882D1*
X4351882D2*
X4381882D1*
X4426882D2*
X4456882D1*
X4504882D2*
X4531882D1*
X4649621D2*
X4684882D1*
X4772378D2*
X4777766D1*
X4816872D2*
X4830660D1*
X4892293D2*
X4921878D1*
X4012914Y1747563D2*
X4043927D1*
X4102400D2*
X4134763D1*
X4240882D2*
X4267882D1*
X4312882D2*
X4342882D1*
X4351882D2*
X4381882D1*
X4426882D2*
X4456882D1*
X4504882D2*
X4531882D1*
X4643909D2*
X4684882D1*
X4773099D2*
X4777383D1*
X4818864D2*
X4832882D1*
X4893067D2*
X4921881D1*
X4012893Y1744563D2*
X4043383D1*
X4102786D2*
X4135804D1*
X4240882D2*
X4267894D1*
X4312882D2*
X4342882D1*
X4351882D2*
X4381882D1*
X4426882D2*
X4456882D1*
X4504882D2*
X4531882D1*
X4636972D2*
X4684882D1*
X4773869D2*
X4776663D1*
X4820862D2*
X4835254D1*
X4893857D2*
X4921881D1*
X4012886Y1741563D2*
X4043097D1*
X4103297D2*
X4136867D1*
X4240882D2*
X4268023D1*
X4312882D2*
X4342882D1*
X4351882D2*
X4381882D1*
X4426882D2*
X4456882D1*
X4504882D2*
X4531882D1*
X4629080D2*
X4684882D1*
X4774395D2*
X4775887D1*
X4822892D2*
X4837582D1*
X4894388D2*
X4921882D1*
X4012883Y1738563D2*
X4042967D1*
X4104068D2*
X4137890D1*
X4240882D2*
X4268339D1*
X4312882D2*
X4342882D1*
X4351882D2*
X4456882D1*
X4504882D2*
X4531882D1*
X4620423D2*
X4684870D1*
X4774688D2*
X4775318D1*
X4824769D2*
X4839631D1*
X4894669D2*
X4921882D1*
X4012882Y1735563D2*
X4042914D1*
X4104870D2*
X4138856D1*
X4240882D2*
X4269857D1*
X4312882D2*
X4342882D1*
X4351882D2*
X4456882D1*
X4504882D2*
X4531882D1*
X4611480D2*
X4684730D1*
X4774882D2*
D3*
X4826471D2*
X4841415D1*
X4894797D2*
X4921882D1*
X4012882Y1732563D2*
X4042893D1*
X4105506D2*
X4139888D1*
X4240882D2*
X4273425D1*
X4312882D2*
X4342882D1*
X4351882D2*
X4456882D1*
X4504882D2*
X4531882D1*
X4602691D2*
X4684378D1*
X4828057D2*
X4843048D1*
X4894850D2*
X4921882D1*
X4012882Y1729563D2*
X4042886D1*
X4106169D2*
X4140910D1*
X4240882D2*
X4277911D1*
X4312882D2*
X4342882D1*
X4351882D2*
X4456882D1*
X4504882D2*
X4531882D1*
X4594684D2*
X4682497D1*
X4829501D2*
X4844599D1*
X4894871D2*
X4921882D1*
X4012882Y1726563D2*
X4042883D1*
X4107027D2*
X4142000D1*
X4240894D2*
X4282851D1*
X4312882D2*
X4342882D1*
X4351882D2*
X4456882D1*
X4504882D2*
X4531882D1*
X4588322D2*
X4677535D1*
X4830730D2*
X4846110D1*
X4894878D2*
X4921882D1*
X4012882Y1723563D2*
X4042882D1*
X4107955D2*
X4143646D1*
X4241023D2*
X4287843D1*
X4312882D2*
X4342882D1*
X4351882D2*
X4456882D1*
X4504882D2*
X4531882D1*
X4583356D2*
X4670915D1*
X4831792D2*
X4847521D1*
X4894881D2*
X4921882D1*
X4012882Y1720563D2*
X4042882D1*
X4108869D2*
X4146361D1*
X4241339D2*
X4292952D1*
X4312882D2*
X4342882D1*
X4351882D2*
X4456882D1*
X4504882D2*
X4531882D1*
X4581260D2*
X4663072D1*
X4832863D2*
X4848738D1*
X4894881D2*
X4921882D1*
X4012882Y1717563D2*
X4042882D1*
X4109767D2*
X4150398D1*
X4243167D2*
X4298340D1*
X4312882D2*
X4342882D1*
X4351882D2*
X4456882D1*
X4504882D2*
X4531882D1*
X4580521D2*
X4654571D1*
X4833889D2*
X4849795D1*
X4894882D2*
X4921882D1*
X4012882Y1714563D2*
X4042882D1*
X4110528D2*
X4155309D1*
X4246044D2*
X4303882D1*
X4312882D2*
X4342882D1*
X4351882D2*
X4456882D1*
X4504882D2*
X4531882D1*
X4580143D2*
X4645768D1*
X4834856D2*
X4850853D1*
X4894870D2*
X4921882D1*
X4012882Y1711563D2*
X4042894D1*
X4110089D2*
X4159900D1*
X4249814D2*
X4342882D1*
X4351882D2*
X4456882D1*
X4504882D2*
X4531882D1*
X4579980D2*
X4636877D1*
X4835876D2*
X4851772D1*
X4894765D2*
X4921882D1*
X4012882Y1708563D2*
X4042999D1*
X4109177D2*
X4163372D1*
X4254112D2*
X4342882D1*
X4351882D2*
X4381882D1*
X4426882D2*
X4456882D1*
X4504882D2*
X4531882D1*
X4579917D2*
X4628255D1*
X4836781D2*
X4852356D1*
X4894382D2*
X4921882D1*
X4012882Y1705563D2*
X4043381D1*
X4107941D2*
X4165882D1*
X4258296D2*
X4342882D1*
X4351882D2*
X4381882D1*
X4426882D2*
X4456882D1*
X4504882D2*
X4531882D1*
X4579894D2*
X4620763D1*
X4837359D2*
X4852658D1*
X4893664D2*
X4921882D1*
X4012882Y1702563D2*
X4044100D1*
X4106458D2*
X4167838D1*
X4261939D2*
X4342882D1*
X4351882D2*
X4381882D1*
X4426882D2*
X4456882D1*
X4504882D2*
X4531882D1*
X4579886D2*
X4614575D1*
X4837659D2*
X4852793D1*
X4892895D2*
X4921882D1*
X4012894Y1699563D2*
X4044881D1*
X4104727D2*
X4169521D1*
X4263643D2*
X4342882D1*
X4351882D2*
X4381882D1*
X4426882D2*
X4456882D1*
X4504882D2*
X4531882D1*
X4579883D2*
X4611767D1*
X4837794D2*
X4852849D1*
X4892360D2*
X4921882D1*
X4012999Y1696563D2*
X4045510D1*
X4102927D2*
X4171082D1*
X4263843D2*
X4342882D1*
X4351882D2*
X4381882D1*
X4426882D2*
X4456882D1*
X4504882D2*
X4531882D1*
X4579882D2*
X4610760D1*
X4837849D2*
X4852870D1*
X4891976D2*
X4921882D1*
X4013381Y1693563D2*
X4046170D1*
X4101321D2*
X4172512D1*
X4263428D2*
X4342882D1*
X4351882D2*
X4381882D1*
X4426882D2*
X4456882D1*
X4504882D2*
X4531882D1*
X4579882D2*
X4610241D1*
X4837870D2*
X4852878D1*
X4891467D2*
X4921882D1*
X4014100Y1690563D2*
X4047016D1*
X4101049D2*
X4173735D1*
X4262692D2*
X4342882D1*
X4351882D2*
X4381882D1*
X4426882D2*
X4456882D1*
X4504882D2*
X4531882D1*
X4579882D2*
X4610018D1*
X4837878D2*
X4852881D1*
X4890684D2*
X4921870D1*
X4014881Y1687563D2*
X4047849D1*
X4101391D2*
X4174805D1*
X4261829D2*
X4342882D1*
X4351882D2*
X4381882D1*
X4426882D2*
X4456882D1*
X4504882D2*
X4531882D1*
X4579882D2*
X4609931D1*
X4837881D2*
X4852881D1*
X4889789D2*
X4921765D1*
X4015510Y1684563D2*
X4048498D1*
X4101985D2*
X4175969D1*
X4260747D2*
X4342882D1*
X4351882D2*
X4381882D1*
X4426882D2*
X4456882D1*
X4504882D2*
X4531882D1*
X4579882D2*
X4609899D1*
X4837881D2*
X4852882D1*
X4888876D2*
X4921382D1*
X4016170Y1681563D2*
X4049166D1*
X4102435D2*
X4177283D1*
X4259476D2*
X4294768D1*
X4303166D2*
X4342882D1*
X4351882D2*
X4381882D1*
X4426882D2*
X4456882D1*
X4504882D2*
X4531882D1*
X4579882D2*
X4609887D1*
X4837870D2*
X4852870D1*
X4887865D2*
X4920652D1*
X4017028Y1678563D2*
X4050026D1*
X4102686D2*
X4178692D1*
X4258172D2*
X4294383D1*
X4307419D2*
X4342882D1*
X4351882D2*
X4381882D1*
X4426882D2*
X4456882D1*
X4504882D2*
X4531882D1*
X4579882D2*
X4609884D1*
X4837765D2*
X4852765D1*
X4886862D2*
X4919778D1*
X4017955Y1675563D2*
X4050954D1*
X4102803D2*
X4180156D1*
X4257000D2*
X4293652D1*
X4310690D2*
X4342882D1*
X4351882D2*
X4381882D1*
X4426882D2*
X4456882D1*
X4504882D2*
X4531882D1*
X4579882D2*
X4609882D1*
X4837371D2*
X4852382D1*
X4885892D2*
X4918872D1*
X4018881Y1672563D2*
X4051892D1*
X4102864D2*
X4181639D1*
X4255960D2*
X4292778D1*
X4311826D2*
X4342882D1*
X4351882D2*
X4381882D1*
X4426882D2*
X4456882D1*
X4504882D2*
X4531882D1*
X4579882D2*
X4609882D1*
X4654882D2*
X4684882D1*
X4836547D2*
X4851652D1*
X4884769D2*
X4917864D1*
X4019896Y1669563D2*
X4053002D1*
X4102988D2*
X4183136D1*
X4254896D2*
X4291872D1*
X4312436D2*
X4342882D1*
X4351882D2*
X4381882D1*
X4426882D2*
X4456882D1*
X4504882D2*
X4531882D1*
X4579882D2*
X4609882D1*
X4654882D2*
X4684882D1*
X4835383D2*
X4850778D1*
X4883471D2*
X4916862D1*
X4020901Y1666563D2*
X4054295D1*
X4103378D2*
X4184641D1*
X4253873D2*
X4290864D1*
X4312708D2*
X4342882D1*
X4351882D2*
X4381882D1*
X4426882D2*
X4456882D1*
X4504882D2*
X4531882D1*
X4579882D2*
X4609882D1*
X4654882D2*
X4684882D1*
X4834036D2*
X4849872D1*
X4882069D2*
X4915892D1*
X4021872Y1663563D2*
X4055707D1*
X4104099D2*
X4186221D1*
X4252896D2*
X4289862D1*
X4312818D2*
X4342882D1*
X4351882D2*
X4381882D1*
X4426882D2*
X4456882D1*
X4504882D2*
X4531882D1*
X4579882D2*
X4609882D1*
X4654882D2*
X4684882D1*
X4832595D2*
X4848864D1*
X4880607D2*
X4914769D1*
X4022994Y1660563D2*
X4057263D1*
X4104869D2*
X4187971D1*
X4251771D2*
X4288903D1*
X4312860D2*
X4342882D1*
X4351882D2*
X4381882D1*
X4426882D2*
X4456882D1*
X4504882D2*
X4531882D1*
X4579882D2*
X4609882D1*
X4654882D2*
X4684882D1*
X4831109D2*
X4847850D1*
X4879124D2*
X4913471D1*
X4024292Y1657563D2*
X4059034D1*
X4105392D2*
X4189882D1*
X4250484D2*
X4287875D1*
X4312874D2*
X4342882D1*
X4351882D2*
X4381882D1*
X4426882D2*
X4456882D1*
X4504882D2*
X4531882D1*
X4579882D2*
X4609882D1*
X4654882D2*
X4684882D1*
X4829521D2*
X4846786D1*
X4877628D2*
X4912069D1*
X4025695Y1654563D2*
X4060960D1*
X4105682D2*
X4165882D1*
X4171882D2*
X4184069D1*
X4249175D2*
X4286866D1*
X4312879D2*
X4342882D1*
X4351882D2*
X4381882D1*
X4426882D2*
X4456882D1*
X4504882D2*
X4531882D1*
X4579882D2*
X4684882D1*
X4827738D2*
X4845375D1*
X4876120D2*
X4910607D1*
X4027157Y1651563D2*
X4062795D1*
X4105915D2*
X4157460D1*
X4162882D2*
D3*
X4174882D2*
X4177882D1*
X4248001D2*
X4285893D1*
X4312881D2*
X4342882D1*
X4351882D2*
X4381882D1*
X4426882D2*
X4456882D1*
X4504882D2*
X4531882D1*
X4579882D2*
X4684882D1*
X4825795D2*
X4843636D1*
X4874525D2*
X4909124D1*
X4028651Y1648563D2*
X4064492D1*
X4106350D2*
X4135330D1*
X4145357D2*
X4158600D1*
X4246960D2*
X4284770D1*
X4312882D2*
X4342882D1*
X4351882D2*
X4381882D1*
X4426882D2*
X4456882D1*
X4504882D2*
X4531882D1*
X4579882D2*
X4684882D1*
X4823853D2*
X4841800D1*
X4872739D2*
X4907628D1*
X4030242Y1645563D2*
X4066178D1*
X4107089D2*
X4123721D1*
X4129882D2*
X4134278D1*
X4146218D2*
X4160213D1*
X4245896D2*
X4283483D1*
X4312882D2*
X4342882D1*
X4351882D2*
X4381882D1*
X4426882D2*
X4456882D1*
X4504882D2*
X4531882D1*
X4579882D2*
X4684882D1*
X4821772D2*
X4839865D1*
X4870795D2*
X4906120D1*
X4032026Y1642563D2*
X4068002D1*
X4107865D2*
X4123331D1*
X4132882D2*
D3*
X4147494D2*
X4162007D1*
X4244873D2*
X4282175D1*
X4312882D2*
X4342882D1*
X4351882D2*
X4381882D1*
X4426882D2*
X4456882D1*
X4504882D2*
X4531882D1*
X4579882D2*
X4684882D1*
X4819356D2*
X4837847D1*
X4868864D2*
X4904525D1*
X4033969Y1639563D2*
X4069960D1*
X4108393D2*
X4121125D1*
X4149226D2*
X4164027D1*
X4243907D2*
X4281001D1*
X4312882D2*
X4342882D1*
X4351882D2*
X4381882D1*
X4426882D2*
X4456882D1*
X4504882D2*
X4531882D1*
X4579882D2*
X4684882D1*
X4816646D2*
X4835885D1*
X4866889D2*
X4902739D1*
X4035899Y1636563D2*
X4071896D1*
X4108688D2*
X4115495D1*
X4151387D2*
X4166420D1*
X4242887D2*
X4279958D1*
X4312882D2*
X4342882D1*
X4351882D2*
X4381882D1*
X4426882D2*
X4456882D1*
X4504882D2*
X4531882D1*
X4579882D2*
X4684882D1*
X4813676D2*
X4833897D1*
X4864856D2*
X4900795D1*
X4037874Y1633563D2*
X4073873D1*
X4108882D2*
D3*
X4153642D2*
X4169110D1*
X4241975D2*
X4278880D1*
X4312882D2*
X4342882D1*
X4351882D2*
X4381882D1*
X4426882D2*
X4456882D1*
X4504882D2*
X4531882D1*
X4579882D2*
X4684882D1*
X4810349D2*
X4831859D1*
X4862876D2*
X4898864D1*
X4039908Y1630563D2*
X4075907D1*
X4155765D2*
X4171972D1*
X4241349D2*
X4277833D1*
X4312882D2*
X4342882D1*
X4351882D2*
X4381882D1*
X4426882D2*
X4456882D1*
X4504882D2*
X4531882D1*
X4579882D2*
X4684882D1*
X4806640D2*
X4829865D1*
X4860792D2*
X4896889D1*
X4041876Y1627563D2*
X4077888D1*
X4157932D2*
X4174915D1*
X4240882D2*
X4276882D1*
X4312882D2*
X4342882D1*
X4351882D2*
X4381882D1*
X4426882D2*
X4456882D1*
X4504882D2*
X4531882D1*
X4579882D2*
X4684882D1*
X4802773D2*
X4827664D1*
X4858477D2*
X4894856D1*
X4043866Y1624563D2*
X4079983D1*
X4160373D2*
X4177894D1*
X4798859D2*
X4824860D1*
X4856158D2*
X4892888D1*
X4045905Y1621563D2*
X4082404D1*
X4162992D2*
X4180898D1*
X4794758D2*
X4821441D1*
X4854012D2*
X4890898D1*
X4047887Y1618563D2*
X4085105D1*
X4165573D2*
X4184000D1*
X4790467D2*
X4817807D1*
X4851836D2*
X4888859D1*
X4049983Y1615563D2*
X4087970D1*
X4168090D2*
X4187382D1*
X4786056D2*
X4814339D1*
X4849381D2*
X4886877D1*
X4052404Y1612563D2*
X4090915D1*
X4170742D2*
X4191100D1*
X4781489D2*
X4811082D1*
X4846667D2*
X4884781D1*
X4055105Y1609563D2*
X4093894D1*
X4173644D2*
X4194881D1*
X4776613D2*
X4807950D1*
X4843796D2*
X4882359D1*
X4057970Y1606563D2*
X4096886D1*
X4176836D2*
X4198510D1*
X4771304D2*
X4804795D1*
X4840850D2*
X4879659D1*
X4060915Y1603563D2*
X4099883D1*
X4180232D2*
X4202182D1*
X4765739D2*
X4801381D1*
X4837871D2*
X4876794D1*
X4063894Y1600563D2*
X4102894D1*
X4183563D2*
X4206145D1*
X4760167D2*
X4797550D1*
X4834866D2*
X4873849D1*
X4066886Y1597563D2*
X4105999D1*
X4186852D2*
X4210466D1*
X4754564D2*
X4793385D1*
X4831763D2*
X4870870D1*
X4069883Y1594563D2*
X4109381D1*
X4190321D2*
X4215227D1*
X4748627D2*
X4789025D1*
X4828382D2*
X4867878D1*
X4072882Y1591563D2*
X4113100D1*
X4194089D2*
X4220500D1*
X4742284D2*
X4784478D1*
X4824664D2*
X4864881D1*
X4075882Y1588563D2*
X4116869D1*
X4197990D2*
X4226141D1*
X4735659D2*
X4779609D1*
X4820883D2*
X4861881D1*
X4078882Y1585563D2*
X4120404D1*
X4202006D2*
X4231983D1*
X4728779D2*
X4774291D1*
X4817254D2*
X4858870D1*
X4081894Y1582563D2*
X4123788D1*
X4206399D2*
X4237931D1*
X4721818D2*
X4768633D1*
X4813594D2*
X4855765D1*
X4084999Y1579563D2*
X4127309D1*
X4211132D2*
X4244024D1*
X4714752D2*
X4762785D1*
X4809736D2*
X4852382D1*
X4088381Y1576563D2*
X4131186D1*
X4215976D2*
X4250515D1*
X4707137D2*
X4756834D1*
X4805797D2*
X4848652D1*
X4092112Y1573563D2*
X4135369D1*
X4221016D2*
X4257730D1*
X4698635D2*
X4750752D1*
X4801766D2*
X4844778D1*
X4095986Y1570563D2*
X4139735D1*
X4226416D2*
X4265728D1*
X4689340D2*
X4744366D1*
X4797368D2*
X4840872D1*
X4099904Y1567563D2*
X4144273D1*
X4232121D2*
X4274355D1*
X4679645D2*
X4737534D1*
X4792645D2*
X4836864D1*
X4104006Y1564563D2*
X4149037D1*
X4238089D2*
X4283655D1*
X4669675D2*
X4730266D1*
X4787905D2*
X4832862D1*
X4108296Y1561563D2*
X4153973D1*
X4244426D2*
X4293918D1*
X4658985D2*
X4722525D1*
X4783247D2*
X4828892D1*
X4112696Y1558563D2*
X4158913D1*
X4251241D2*
X4305502D1*
X4646987D2*
X4714260D1*
X4778566D2*
X4824769D1*
X4117158Y1555563D2*
X4163992D1*
X4258502D2*
X4318882D1*
X4633327D2*
X4705610D1*
X4773642D2*
X4820471D1*
X4121640Y1552563D2*
X4169407D1*
X4266252D2*
X4334841D1*
X4617795D2*
X4696652D1*
X4768303D2*
X4816057D1*
X4126136Y1549563D2*
X4175106D1*
X4274633D2*
X4354466D1*
X4599626D2*
X4687216D1*
X4762637D2*
X4811501D1*
X4130643Y1546563D2*
X4180970D1*
X4283770D2*
X4378545D1*
X4577774D2*
X4677022D1*
X4756786D2*
X4806730D1*
X4135251Y1543563D2*
X4186915D1*
X4293853D2*
X4406389D1*
X4552577D2*
X4666032D1*
X4750846D2*
X4801792D1*
X4140130Y1540563D2*
X4192905D1*
X4305011D2*
X4450882D1*
X4513882D2*
X4654396D1*
X4744858D2*
X4796852D1*
X4145363Y1537563D2*
X4199003D1*
X4317531D2*
X4641968D1*
X4738760D2*
X4791772D1*
X4150747Y1534563D2*
X4205383D1*
X4332110D2*
X4628089D1*
X4732369D2*
X4786356D1*
X4156260Y1531563D2*
X4212112D1*
X4349608D2*
X4611804D1*
X4725535D2*
X4780658D1*
X4162149Y1528563D2*
X4218998D1*
X4370681D2*
X4592443D1*
X4718278D2*
X4774793D1*
X4168371Y1525563D2*
X4226032D1*
X4395012D2*
X4570316D1*
X4710630D2*
X4768849D1*
X4174620Y1522563D2*
X4233622D1*
X4420882D2*
X4546882D1*
X4702642D2*
X4762858D1*
X4180873Y1519563D2*
X4242014D1*
X4694340D2*
X4756761D1*
X4187329Y1516563D2*
X4250936D1*
X4685538D2*
X4750369D1*
X4194092Y1513563D2*
X4260007D1*
X4676251D2*
X4743535D1*
X4200991Y1510563D2*
X4269472D1*
X4666624D2*
X4736278D1*
X4208030Y1507563D2*
X4279870D1*
X4656529D2*
X4728630D1*
X4215622Y1504563D2*
X4291246D1*
X4645689D2*
X4720642D1*
X4224025Y1501563D2*
X4303673D1*
X4633675D2*
X4712340D1*
X4233030Y1498563D2*
X4317405D1*
X4620175D2*
X4703538D1*
X4242284Y1495563D2*
X4332713D1*
X4604977D2*
X4694251D1*
X4251797Y1492563D2*
X4350295D1*
X4587440D2*
X4684636D1*
X4261803Y1489563D2*
X4371135D1*
X4566618D2*
X4674646D1*
X4272489Y1486563D2*
X4395935D1*
X4541825D2*
X4664200D1*
X4284093Y1483563D2*
X4424153D1*
X4513609D2*
X4653010D1*
X4296756Y1480563D2*
X4640674D1*
X4310735Y1477563D2*
X4626880D1*
X4326350Y1474563D2*
X4611353D1*
X4343347Y1471563D2*
X4594395D1*
X4360882Y1468563D2*
X4576882D1*
X3118495Y1522110D2*
X3108830Y1519110D1*
X3099414Y1516110D1*
X3090402Y1513110D1*
X3082094Y1510110D1*
X3074810Y1507110D1*
X3068498Y1504110D1*
X3062921Y1501110D1*
X3057672Y1498110D1*
X3052542Y1495110D1*
X3047627Y1492110D1*
X3042924Y1489110D1*
X3038427Y1486110D1*
X3034270Y1483110D1*
X3030482Y1480110D1*
X3026842Y1477110D1*
X3023161Y1474110D1*
X3019476Y1471110D1*
X3015834Y1468110D1*
X3012409Y1465110D1*
X3009278Y1462110D1*
X3006456Y1459110D1*
X3003847Y1456110D1*
X3001165Y1453110D1*
X2998348Y1450110D1*
X2995447Y1447110D1*
X2992589Y1444110D1*
X2989986Y1441110D1*
X2987722Y1438110D1*
X2985598Y1435110D1*
X2983504Y1432110D1*
X2981513Y1429110D1*
X2979515Y1426110D1*
X2977473Y1423110D1*
X2975502Y1420110D1*
X2973511Y1417110D1*
X2971484Y1414110D1*
X2969607Y1411110D1*
X2967905Y1408110D1*
X2966308Y1405110D1*
X2964770Y1402110D1*
X2963252Y1399110D1*
X2961749Y1396110D1*
X2960256Y1393110D1*
X2958852Y1390110D1*
X2957638Y1387110D1*
X2956570Y1384110D1*
X2955407Y1381110D1*
X2954103Y1378110D1*
X2952772Y1375110D1*
X2951562Y1372110D1*
X2950495Y1369110D1*
X3211495Y1522110D2*
X3222059Y1519110D1*
X3231902Y1516110D1*
X3240580Y1513110D1*
X3248365Y1510110D1*
X3255637Y1507110D1*
X3262299Y1504110D1*
X3268104Y1501110D1*
X3273265Y1498110D1*
X3278055Y1495110D1*
X3282676Y1492110D1*
X3287219Y1489110D1*
X3291737Y1486110D1*
X3296229Y1483110D1*
X3300628Y1480110D1*
X3304732Y1477110D1*
X3308411Y1474110D1*
X3311745Y1471110D1*
X3314900Y1468110D1*
X3317957Y1465110D1*
X3320984Y1462110D1*
X3323988Y1459110D1*
X3326996Y1456110D1*
X3329992Y1453110D1*
X3332985Y1450110D1*
X3335887Y1447110D1*
X3338591Y1444110D1*
X3341051Y1441110D1*
X3343334Y1438110D1*
X3345415Y1435110D1*
X3347451Y1432110D1*
X3349508Y1429110D1*
X3351485Y1426110D1*
X3353477Y1423110D1*
X3355506Y1420110D1*
X3357383Y1417110D1*
X3359084Y1414110D1*
X3360682Y1411110D1*
X3362231Y1408110D1*
X3363843Y1405110D1*
X3365623Y1402110D1*
X3367463Y1399110D1*
X3369012Y1396110D1*
X3370269Y1393110D1*
X3371522Y1390110D1*
X3372861Y1387110D1*
X3374179Y1384110D1*
X3375267Y1381110D1*
X3376033Y1378110D1*
X3376761Y1375110D1*
X3377734Y1372110D1*
X3378946Y1369110D1*
X3380211Y1366110D1*
X3381266Y1363110D1*
X3381920Y1360110D1*
X3382263Y1357110D1*
X3382516Y1354110D1*
X3382959Y1351110D1*
X3383700Y1348110D1*
X3384478Y1345110D1*
X3385004Y1342110D1*
X3385283Y1339110D1*
X3385410Y1336110D1*
X3385463Y1333110D1*
X3385483Y1330110D1*
X3385491Y1327110D1*
X3385493Y1324110D1*
X3385494Y1321110D1*
X3385495Y1318110D1*
Y1315110D1*
Y1312110D1*
Y1309110D1*
Y1306110D1*
Y1303110D1*
Y1300110D1*
Y1297110D1*
Y1294110D1*
Y1291110D1*
Y1288110D1*
Y1285110D1*
Y1282110D1*
Y1279110D1*
Y1276110D1*
Y1273110D1*
Y1270110D1*
Y1267110D1*
X3385483Y1264110D1*
X3385378Y1261110D1*
X3384995Y1258110D1*
X3384277Y1255110D1*
X3383508Y1252110D1*
X3382973Y1249110D1*
X3382589Y1246110D1*
X3382079Y1243110D1*
X3381297Y1240110D1*
X3380402Y1237110D1*
X3379489Y1234110D1*
X3378489Y1231110D1*
X3377580Y1228110D1*
X3376887Y1225110D1*
X3376101Y1222110D1*
X3374865Y1219110D1*
X3373311Y1216110D1*
X3371892Y1213110D1*
X3370688Y1210110D1*
X3369456Y1207110D1*
X3368112Y1204110D1*
X3366680Y1201110D1*
X3365117Y1198110D1*
X3363344Y1195110D1*
X3361405Y1192110D1*
X3359476Y1189110D1*
X3357502Y1186110D1*
X3355469Y1183110D1*
X3353500Y1180110D1*
X3351511Y1177110D1*
X3349472Y1174110D1*
X3347490Y1171110D1*
X3345406Y1168110D1*
X3343090Y1165110D1*
X3340771Y1162110D1*
X3338625Y1159110D1*
X3336449Y1156110D1*
X3333993Y1153110D1*
X3331279Y1150110D1*
X3328409Y1147110D1*
X3325463Y1144110D1*
X3322483Y1141110D1*
X3319479Y1138110D1*
X3316376Y1135110D1*
X3312995Y1132110D1*
X3309265Y1129110D1*
X3305390Y1126110D1*
X3301473Y1123110D1*
X3297371Y1120110D1*
X3293080Y1117110D1*
X3288681Y1114110D1*
X3284207Y1111110D1*
X3279620Y1108110D1*
X3274718Y1105110D1*
X3269293Y1102110D1*
X3263245Y1099110D1*
X3256659Y1096110D1*
X3249711Y1093110D1*
X3242200Y1090110D1*
X3233354Y1087110D1*
X3222887Y1084110D1*
X3211495Y1081110D1*
X3145495Y1486110D2*
X3133723Y1483110D1*
X3122516Y1480110D1*
X3112188Y1477110D1*
X3102726Y1474110D1*
X3094208Y1471110D1*
X3086751Y1468110D1*
X3080132Y1465110D1*
X3074220Y1462110D1*
X3069022Y1459110D1*
X3064519Y1456110D1*
X3060567Y1453110D1*
X3056772Y1450110D1*
X3052779Y1447110D1*
X3048656Y1444110D1*
X3044672Y1441110D1*
X3041050Y1438110D1*
X3037731Y1435110D1*
X3034588Y1432110D1*
X3031529Y1429110D1*
X3028519Y1426110D1*
X3025616Y1423110D1*
X3022996Y1420110D1*
X3020713Y1417110D1*
X3018494Y1414110D1*
X3016122Y1411110D1*
X3013783Y1408110D1*
X3011640Y1405110D1*
X3009568Y1402110D1*
X3007505Y1399110D1*
X3005615Y1396110D1*
X3003908Y1393110D1*
X3002308Y1390110D1*
X3000770Y1387110D1*
X2999252Y1384110D1*
X2997749Y1381110D1*
X2996245Y1378110D1*
X2994746Y1375110D1*
X2993255Y1372110D1*
X2991863Y1369110D1*
X2990746Y1366110D1*
X2990021Y1363110D1*
X2989495Y1360110D1*
X3190495Y1486110D2*
X3200308Y1483110D1*
X3210399Y1480110D1*
X3220128Y1477110D1*
X3229004Y1474110D1*
X3237097Y1471110D1*
X3244411Y1468110D1*
X3250824Y1465110D1*
X3256383Y1462110D1*
X3261393Y1459110D1*
X3266096Y1456110D1*
X3270579Y1453110D1*
X3274727Y1450110D1*
X3278510Y1447110D1*
X3282137Y1444110D1*
X3285724Y1441110D1*
X3289120Y1438110D1*
X3292332Y1435110D1*
X3295418Y1432110D1*
X3298365Y1429110D1*
X3301092Y1426110D1*
X3303668Y1423110D1*
X3306331Y1420110D1*
X3309136Y1417110D1*
X3311948Y1414110D1*
X3314615Y1411110D1*
X3317060Y1408110D1*
X3319326Y1405110D1*
X3321311Y1402110D1*
X3323058Y1399110D1*
X3324672Y1396110D1*
X3326228Y1393110D1*
X3327842Y1390110D1*
X3329623Y1387110D1*
X3331463Y1384110D1*
X3333012Y1381110D1*
X3334269Y1378110D1*
X3335522Y1375110D1*
X3336861Y1372110D1*
X3338179Y1369110D1*
X3339255Y1366110D1*
X3339918Y1363110D1*
X3340270Y1360110D1*
X3340495Y1357110D1*
X2959495Y1372110D2*
X2956495Y1369110D1*
X2965495Y1372110D2*
X2973316Y1369110D1*
X2979813Y1366110D1*
X2984705Y1363110D1*
X2988180Y1360110D1*
X2990770Y1357110D1*
X2991661Y1354110D1*
X2992141Y1351110D1*
X2992357Y1348110D1*
X2992444Y1345110D1*
X2992478Y1342110D1*
X2992495Y1339110D1*
X2956495Y1363110D2*
X2954084Y1360110D1*
X2952330Y1357110D1*
X2951325Y1354110D1*
X2950838Y1351110D1*
X2950627Y1348110D1*
X2950543Y1345110D1*
X2950535Y1342110D1*
X2950747Y1339110D1*
X2951269Y1336110D1*
X2953487Y1333110D1*
X2956365Y1330110D1*
X2959495Y1327110D1*
X2974495Y1363110D2*
X2977728Y1360110D1*
X2980207Y1357110D1*
X2981970Y1354110D1*
X2983348Y1351110D1*
X2984830Y1348110D1*
X2986495Y1345110D1*
X2984623Y1342110D1*
X2982807Y1339110D1*
X2980825Y1336110D1*
X2978616Y1333110D1*
X2976455Y1330110D1*
X2974495Y1327110D1*
X3058495Y1357110D2*
X3064815Y1354110D1*
X3069582Y1351110D1*
X3072851Y1348110D1*
X3075171Y1345110D1*
X3076912Y1342110D1*
X3078157Y1339110D1*
X3078881Y1336110D1*
X3079238Y1333110D1*
X3079395Y1330110D1*
X3079458Y1327110D1*
X3079482Y1324110D1*
X3079490Y1321110D1*
X3079493Y1318110D1*
X3079494Y1315110D1*
X3079495Y1312110D1*
Y1309110D1*
Y1306110D1*
Y1303110D1*
Y1300110D1*
Y1297110D1*
Y1294110D1*
Y1291110D1*
Y1288110D1*
Y1285110D1*
Y1282110D1*
Y1279110D1*
Y1276110D1*
Y1273110D1*
X3079483Y1270110D1*
X3079378Y1267110D1*
X3078984Y1264110D1*
X3078136Y1261110D1*
X3076739Y1258110D1*
X3074870Y1255110D1*
X3070572Y1252110D1*
X3064917Y1249110D1*
X3058495Y1246110D1*
X3127495Y1357110D2*
X3126355Y1354110D1*
X3125066Y1351110D1*
X3123673Y1348110D1*
X3122215Y1345110D1*
X3120736Y1342110D1*
X3119252Y1339110D1*
X3117862Y1336110D1*
X3116743Y1333110D1*
X3115952Y1330110D1*
X3115125Y1327110D1*
X3113874Y1324110D1*
X3112314Y1321110D1*
X3110893Y1318110D1*
X3109689Y1315110D1*
X3108457Y1312110D1*
X3107124Y1309110D1*
X3105798Y1306110D1*
X3104605Y1303110D1*
X3103457Y1300110D1*
X3102022Y1297110D1*
X3100385Y1294110D1*
X3099021Y1291110D1*
X3098091Y1288110D1*
X3097283Y1285110D1*
X3096277Y1282110D1*
X3095040Y1279110D1*
X3093664Y1276110D1*
X3092213Y1273110D1*
X3090735Y1270110D1*
X3089251Y1267110D1*
X3087850Y1264110D1*
X3086625Y1261110D1*
X3085464Y1258110D1*
X3084022Y1255110D1*
X3082351Y1252110D1*
X3080826Y1249110D1*
X3079495Y1246110D1*
X3175495Y1357110D2*
X3173547Y1354110D1*
X3171567Y1351110D1*
X3169495Y1348110D1*
X3171917Y1345110D1*
X3173789Y1342110D1*
X3175281Y1339110D1*
X3176869Y1336110D1*
X3178579Y1333110D1*
X3180073Y1330110D1*
X3181393Y1327110D1*
X3182911Y1324110D1*
X3184594Y1321110D1*
X3186066Y1318110D1*
X3187290Y1315110D1*
X3188529Y1312110D1*
X3189876Y1309110D1*
X3191297Y1306110D1*
X3192766Y1303110D1*
X3194251Y1300110D1*
X3195749Y1297110D1*
X3197244Y1294110D1*
X3198746Y1291110D1*
X3200244Y1288110D1*
X3201734Y1285110D1*
X3203138Y1282110D1*
X3204364Y1279110D1*
X3205525Y1276110D1*
X3206965Y1273110D1*
X3208615Y1270110D1*
X3210085Y1267110D1*
X3211398Y1264110D1*
X3212924Y1261110D1*
X3214712Y1258110D1*
X3216577Y1255110D1*
X3218617Y1252110D1*
X3220972Y1249110D1*
X3223495Y1246110D1*
X3241495Y1357110D2*
X3236096Y1354110D1*
X3231459Y1351110D1*
X3227954Y1348110D1*
X3225290Y1345110D1*
X3224362Y1342110D1*
X3223863Y1339110D1*
X3223638Y1336110D1*
X3223548Y1333110D1*
X3223513Y1330110D1*
X3223501Y1327110D1*
X3223497Y1324110D1*
X3223495Y1321110D1*
X3223518Y1318110D1*
X3223776Y1315110D1*
X3224409Y1312110D1*
X3227415Y1309110D1*
X3234000Y1306110D1*
X3241495Y1303110D1*
X3233904Y1300110D1*
X3227797Y1297110D1*
X3225190Y1294110D1*
X3224279Y1291110D1*
X3223814Y1288110D1*
X3223615Y1285110D1*
X3223538Y1282110D1*
X3223509Y1279110D1*
X3223500Y1276110D1*
X3223496Y1273110D1*
X3223495Y1270110D1*
Y1267110D1*
X3223518Y1264110D1*
X3223729Y1261110D1*
X3224221Y1258110D1*
X3226356Y1255110D1*
X3229824Y1252110D1*
X3235078Y1249110D1*
X3241495Y1246110D1*
X3337495Y1357110D2*
X3337031Y1354110D1*
X3336287Y1351110D1*
X3335511Y1348110D1*
X3334985Y1345110D1*
X3334706Y1342110D1*
X3334579Y1339110D1*
X3334526Y1336110D1*
X3334506Y1333110D1*
X3334499Y1330110D1*
X3334496Y1327110D1*
X3334495Y1324110D1*
Y1321110D1*
Y1318110D1*
Y1315110D1*
Y1312110D1*
Y1309110D1*
Y1306110D1*
Y1303110D1*
Y1300110D1*
Y1297110D1*
Y1294110D1*
Y1291110D1*
Y1288110D1*
Y1285110D1*
Y1282110D1*
Y1279110D1*
Y1276110D1*
Y1273110D1*
Y1270110D1*
Y1267110D1*
Y1264110D1*
X3334506Y1261110D1*
X3334612Y1258110D1*
X3334996Y1255110D1*
X3335740Y1252110D1*
X3336633Y1249110D1*
X3337495Y1246110D1*
X3343495Y1357110D2*
X3343958Y1354110D1*
X3344702Y1351110D1*
X3345479Y1348110D1*
X3346004Y1345110D1*
X3346295Y1342110D1*
X3346528Y1339110D1*
X3346963Y1336110D1*
X3347702Y1333110D1*
X3348490Y1330110D1*
X3349121Y1327110D1*
X3349782Y1324110D1*
X3350629Y1321110D1*
X3351450Y1318110D1*
X3351994Y1315110D1*
X3352279Y1312110D1*
X3352409Y1309110D1*
X3352463Y1306110D1*
X3352483Y1303110D1*
X3352491Y1300110D1*
X3352493Y1297110D1*
X3352494Y1294110D1*
X3352483Y1291110D1*
X3352378Y1288110D1*
X3351995Y1285110D1*
X3351277Y1282110D1*
X3350496Y1279110D1*
X3349867Y1276110D1*
X3349207Y1273110D1*
X3348361Y1270110D1*
X3347539Y1267110D1*
X3346996Y1264110D1*
X3346698Y1261110D1*
X3346463Y1258110D1*
X3346015Y1255110D1*
X3345171Y1252110D1*
X3344012Y1249110D1*
X3342768Y1246110D1*
X3341708Y1243110D1*
X3340940Y1240110D1*
X3340121Y1237110D1*
X3338873Y1234110D1*
X3337313Y1231110D1*
X3335892Y1228110D1*
X3334689Y1225110D1*
X3333456Y1222110D1*
X3332112Y1219110D1*
X3330680Y1216110D1*
X3329117Y1213110D1*
X3327344Y1210110D1*
X3325405Y1207110D1*
X3323476Y1204110D1*
X3321502Y1201110D1*
X3319469Y1198110D1*
X3317489Y1195110D1*
X3315393Y1192110D1*
X3312984Y1189110D1*
X3310377Y1186110D1*
X3307801Y1183110D1*
X3305286Y1180110D1*
X3302646Y1177110D1*
X3299838Y1174110D1*
X3296923Y1171110D1*
X3293863Y1168110D1*
X3290595Y1165110D1*
X3287154Y1162110D1*
X3283716Y1159110D1*
X3280134Y1156110D1*
X3276220Y1153110D1*
X3272008Y1150110D1*
X3267540Y1147110D1*
X3262699Y1144110D1*
X3257399Y1141110D1*
X3251729Y1138110D1*
X3245770Y1135110D1*
X3239304Y1132110D1*
X3231857Y1129110D1*
X3222666Y1126110D1*
X3210978Y1123110D1*
X3196810Y1120110D1*
X3181495Y1117110D1*
X3040495Y1339110D2*
Y1336110D1*
Y1333110D1*
Y1330110D1*
Y1327110D1*
Y1324110D1*
Y1321110D1*
Y1318110D1*
Y1315110D1*
Y1312110D1*
Y1309110D1*
Y1306110D1*
Y1303110D1*
Y1300110D1*
Y1297110D1*
Y1294110D1*
Y1291110D1*
Y1288110D1*
Y1285110D1*
Y1282110D1*
Y1279110D1*
Y1276110D1*
Y1273110D1*
Y1270110D1*
Y1267110D1*
X3010495Y1264110D1*
X3262495Y1339110D2*
Y1336110D1*
Y1333110D1*
Y1330110D1*
Y1327110D1*
X3262506Y1324110D1*
X3262621Y1321110D1*
X3263084Y1318110D1*
X3264110Y1315110D1*
X3265495Y1312110D1*
X3295495Y1339110D2*
Y1336110D1*
Y1333110D1*
Y1330110D1*
Y1327110D1*
X3295483Y1324110D1*
X3295369Y1321110D1*
X3294905Y1318110D1*
X3293880Y1315110D1*
X3292495Y1312110D1*
X3157495Y1330110D2*
X3157381Y1327110D1*
X3156984Y1324110D1*
X3156160Y1321110D1*
X3154996Y1318110D1*
X3153649Y1315110D1*
X3152208Y1312110D1*
X3150733Y1309110D1*
X3149251Y1306110D1*
X3147861Y1303110D1*
X3146746Y1300110D1*
X3146021Y1297110D1*
X3145495Y1294110D1*
X3163495Y1330110D2*
X3164073Y1327110D1*
X3165201Y1324110D1*
X3166697Y1321110D1*
X3168003Y1318110D1*
X3168922Y1315110D1*
X3169816Y1312110D1*
X3171097Y1309110D1*
X3172669Y1306110D1*
X3174103Y1303110D1*
X3175381Y1300110D1*
X3176837Y1297110D1*
X3178495Y1294110D1*
X3268495D2*
X3266084Y1291110D1*
X3264330Y1288110D1*
X3263325Y1285110D1*
X3262838Y1282110D1*
X3262627Y1279110D1*
X3262543Y1276110D1*
X3262512Y1273110D1*
X3262500Y1270110D1*
X3262495Y1267110D1*
X3295495Y1294110D2*
Y1291110D1*
Y1288110D1*
Y1285110D1*
Y1282110D1*
Y1279110D1*
Y1276110D1*
Y1273110D1*
Y1270110D1*
Y1267110D1*
X2956495Y1273110D2*
X2954084Y1270110D1*
X2952330Y1267110D1*
X2951325Y1264110D1*
X2950838Y1261110D1*
X2950627Y1258110D1*
X2950543Y1255110D1*
X2950535Y1252110D1*
X2950758Y1249110D1*
X2951316Y1246110D1*
X2954056Y1243110D1*
X2957975Y1240110D1*
X2962495Y1237110D1*
X2974495Y1273110D2*
X2977728Y1270110D1*
X2980195Y1267110D1*
X2981844Y1264110D1*
X2982756Y1261110D1*
X2983180Y1258110D1*
X2983261Y1255110D1*
X2982929Y1252110D1*
X2982016Y1249110D1*
X2980373Y1246110D1*
X2977900Y1243110D1*
X2974796Y1240110D1*
X2971495Y1237110D1*
X3139495Y1276110D2*
X3136970Y1273110D1*
X3134819Y1270110D1*
X3132990Y1267110D1*
X3131351Y1264110D1*
X3129910Y1261110D1*
X3128885Y1258110D1*
X3128317Y1255110D1*
X3128921Y1252110D1*
X3129707Y1249110D1*
X3130495Y1246110D1*
X3184495Y1276110D2*
X3187019Y1273110D1*
X3189158Y1270110D1*
X3190894Y1267110D1*
X3192256Y1264110D1*
X3193361Y1261110D1*
X3194336Y1258110D1*
X3195133Y1255110D1*
X3194788Y1252110D1*
X3194166Y1249110D1*
X3193495Y1246110D1*
X2992495Y1264110D2*
Y1261110D1*
Y1258110D1*
Y1255110D1*
Y1252110D1*
Y1249110D1*
Y1246110D1*
X3004495Y1264110D2*
X2986495Y1243110D2*
X2984891Y1240110D1*
X2982818Y1237110D1*
X2980495Y1234110D1*
X2989495Y1243110D2*
X2990520Y1240110D1*
X2991425Y1237110D1*
X2992099Y1234110D1*
X2992787Y1231110D1*
X2993743Y1228110D1*
X2994961Y1225110D1*
X2996341Y1222110D1*
X2997883Y1219110D1*
X2999637Y1216110D1*
X3001480Y1213110D1*
X3003131Y1210110D1*
X3004769Y1207110D1*
X3006740Y1204110D1*
X3008860Y1201110D1*
X3010830Y1198110D1*
X3012777Y1195110D1*
X3015060Y1192110D1*
X3017771Y1189110D1*
X3020501Y1186110D1*
X3023111Y1183110D1*
X3025808Y1180110D1*
X3028634Y1177110D1*
X3031552Y1174110D1*
X3034516Y1171110D1*
X3037514Y1168110D1*
X3040603Y1165110D1*
X3043890Y1162110D1*
X3047331Y1159110D1*
X3050775Y1156110D1*
X3054365Y1153110D1*
X3058389Y1150110D1*
X3062967Y1147110D1*
X3068064Y1144110D1*
X3073393Y1141110D1*
X3078908Y1138110D1*
X3085000Y1135110D1*
X3092031Y1132110D1*
X3100150Y1129110D1*
X3109603Y1126110D1*
X3120629Y1123110D1*
X3132873Y1120110D1*
X3145495Y1117110D1*
X2950495Y1234110D2*
X2951635Y1231110D1*
X2952912Y1228110D1*
X2954200Y1225110D1*
X2955275Y1222110D1*
X2956048Y1219110D1*
X2956868Y1216110D1*
X2958117Y1213110D1*
X2959676Y1210110D1*
X2961109Y1207110D1*
X2962406Y1204110D1*
X2963915Y1201110D1*
X2965596Y1198110D1*
X2967078Y1195110D1*
X2968395Y1192110D1*
X2969935Y1189110D1*
X2971817Y1186110D1*
X2973960Y1183110D1*
X2976332Y1180110D1*
X2978680Y1177110D1*
X2980745Y1174110D1*
X2982644Y1171110D1*
X2984656Y1168110D1*
X2986943Y1165110D1*
X2989336Y1162110D1*
X2991764Y1159110D1*
X2994366Y1156110D1*
X2997160Y1153110D1*
X3000058Y1150110D1*
X3003022Y1147110D1*
X3006001Y1144110D1*
X3009000Y1141110D1*
X3011993Y1138110D1*
X3014997Y1135110D1*
X3018004Y1132110D1*
X3021114Y1129110D1*
X3024504Y1126110D1*
X3028332Y1123110D1*
X3032491Y1120110D1*
X3036855Y1117110D1*
X3041385Y1114110D1*
X3046153Y1111110D1*
X3051084Y1108110D1*
X3056028Y1105110D1*
X3061114Y1102110D1*
X3066652Y1099110D1*
X3072845Y1096110D1*
X3079956Y1093110D1*
X3088130Y1090110D1*
X3097706Y1087110D1*
X3109031Y1084110D1*
X3121495Y1081110D1*
X2953495Y1234110D2*
X4381882Y1984563D2*
X4362274Y1981563D1*
X4343566Y1978563D1*
X4326408Y1975563D1*
X4310957Y1972563D1*
X4296957Y1969563D1*
X4284260Y1966563D1*
X4272680Y1963563D1*
X4262011Y1960563D1*
X4252005Y1957563D1*
X4242302Y1954563D1*
X4232800Y1951563D1*
X4223880Y1948563D1*
X4215776Y1945563D1*
X4208282Y1942563D1*
X4201033Y1939563D1*
X4194036Y1936563D1*
X4187411Y1933563D1*
X4181006Y1930563D1*
X4174590Y1927563D1*
X4168197Y1924563D1*
X4162125Y1921563D1*
X4156374Y1918563D1*
X4150722Y1915563D1*
X4145266Y1912563D1*
X4140165Y1909563D1*
X4135360Y1906563D1*
X4130720Y1903563D1*
X4126166Y1900563D1*
X4121643Y1897563D1*
X4117137Y1894563D1*
X4112644Y1891563D1*
X4108239Y1888563D1*
X4104025Y1885563D1*
X4099969Y1882563D1*
X4095911Y1879563D1*
X4091992Y1876563D1*
X4088407Y1873563D1*
X4085106Y1870563D1*
X4081970Y1867563D1*
X4078915Y1864563D1*
X4075894Y1861563D1*
X4072886Y1858563D1*
X4069883Y1855563D1*
X4066882Y1852563D1*
X4063882Y1849563D1*
X4060882Y1846563D1*
X4057894Y1843563D1*
X4054999Y1840563D1*
X4052381Y1837563D1*
X4050112Y1834563D1*
X4047986Y1831563D1*
X4045892Y1828563D1*
X4043900Y1825563D1*
X4041902Y1822563D1*
X4039860Y1819563D1*
X4037889Y1816563D1*
X4035898Y1813563D1*
X4033871Y1810563D1*
X4031994Y1807563D1*
X4030292Y1804563D1*
X4028695Y1801563D1*
X4027157Y1798563D1*
X4025651Y1795563D1*
X4024242Y1792563D1*
X4023026Y1789563D1*
X4021969Y1786563D1*
X4020899Y1783563D1*
X4019874Y1780563D1*
X4018908Y1777563D1*
X4017888Y1774563D1*
X4016971Y1771563D1*
X4016287Y1768563D1*
X4015605Y1765563D1*
X4014752Y1762563D1*
X4013928Y1759563D1*
X4013383Y1756563D1*
X4013097Y1753563D1*
X4012967Y1750563D1*
X4012914Y1747563D1*
X4012893Y1744563D1*
X4012886Y1741563D1*
X4012883Y1738563D1*
X4012882Y1735563D1*
Y1732563D1*
Y1729563D1*
Y1726563D1*
Y1723563D1*
Y1720563D1*
Y1717563D1*
Y1714563D1*
Y1711563D1*
Y1708563D1*
Y1705563D1*
Y1702563D1*
X4012894Y1699563D1*
X4012999Y1696563D1*
X4013381Y1693563D1*
X4014100Y1690563D1*
X4014881Y1687563D1*
X4015510Y1684563D1*
X4016170Y1681563D1*
X4017028Y1678563D1*
X4017955Y1675563D1*
X4018881Y1672563D1*
X4019896Y1669563D1*
X4020901Y1666563D1*
X4021872Y1663563D1*
X4022994Y1660563D1*
X4024292Y1657563D1*
X4025695Y1654563D1*
X4027157Y1651563D1*
X4028651Y1648563D1*
X4030242Y1645563D1*
X4032026Y1642563D1*
X4033969Y1639563D1*
X4035899Y1636563D1*
X4037874Y1633563D1*
X4039908Y1630563D1*
X4041876Y1627563D1*
X4043866Y1624563D1*
X4045905Y1621563D1*
X4047887Y1618563D1*
X4049983Y1615563D1*
X4052404Y1612563D1*
X4055105Y1609563D1*
X4057970Y1606563D1*
X4060915Y1603563D1*
X4063894Y1600563D1*
X4066886Y1597563D1*
X4069883Y1594563D1*
X4072882Y1591563D1*
X4075882Y1588563D1*
X4078882Y1585563D1*
X4081894Y1582563D1*
X4084999Y1579563D1*
X4088381Y1576563D1*
X4092112Y1573563D1*
X4095986Y1570563D1*
X4099904Y1567563D1*
X4104006Y1564563D1*
X4108296Y1561563D1*
X4112696Y1558563D1*
X4117158Y1555563D1*
X4121640Y1552563D1*
X4126136Y1549563D1*
X4130643Y1546563D1*
X4135251Y1543563D1*
X4140130Y1540563D1*
X4145363Y1537563D1*
X4150747Y1534563D1*
X4156260Y1531563D1*
X4162149Y1528563D1*
X4168371Y1525563D1*
X4174620Y1522563D1*
X4180873Y1519563D1*
X4187329Y1516563D1*
X4194092Y1513563D1*
X4200991Y1510563D1*
X4208030Y1507563D1*
X4215622Y1504563D1*
X4224025Y1501563D1*
X4233030Y1498563D1*
X4242284Y1495563D1*
X4251797Y1492563D1*
X4261803Y1489563D1*
X4272489Y1486563D1*
X4284093Y1483563D1*
X4296756Y1480563D1*
X4310735Y1477563D1*
X4326350Y1474563D1*
X4343347Y1471563D1*
X4360882Y1468563D1*
X4555882Y1984563D2*
X4575141Y1981563D1*
X4593489Y1978563D1*
X4610577Y1975563D1*
X4626179Y1972563D1*
X4640134Y1969563D1*
X4652552Y1966563D1*
X4663880Y1963563D1*
X4674479Y1960563D1*
X4684587Y1957563D1*
X4694321Y1954563D1*
X4703532Y1951563D1*
X4712249Y1948563D1*
X4720635Y1945563D1*
X4728658Y1942563D1*
X4736317Y1939563D1*
X4743545Y1936563D1*
X4750267Y1933563D1*
X4756625Y1930563D1*
X4762782Y1927563D1*
X4768845Y1924563D1*
X4774857Y1921563D1*
X4780760Y1918563D1*
X4786381Y1915563D1*
X4791652Y1912563D1*
X4796777Y1909563D1*
X4801860Y1906563D1*
X4806758Y1903563D1*
X4811468Y1900563D1*
X4816056Y1897563D1*
X4820501Y1894563D1*
X4824730Y1891563D1*
X4828792Y1888563D1*
X4832863Y1885563D1*
X4836889Y1882563D1*
X4840856Y1879563D1*
X4844876Y1876563D1*
X4848781Y1873563D1*
X4852359Y1870563D1*
X4855659Y1867563D1*
X4858794Y1864563D1*
X4861849Y1861563D1*
X4864870Y1858563D1*
X4867878Y1855563D1*
X4870881Y1852563D1*
X4873881Y1849563D1*
X4876870Y1846563D1*
X4879765Y1843563D1*
X4882382Y1840563D1*
X4884652Y1837563D1*
X4886778Y1834563D1*
X4888872Y1831563D1*
X4890864Y1828563D1*
X4892862Y1825563D1*
X4894903Y1822563D1*
X4896875Y1819563D1*
X4898866Y1816563D1*
X4900893Y1813563D1*
X4902770Y1810563D1*
X4904472Y1807563D1*
X4906069Y1804563D1*
X4907607Y1801563D1*
X4909124Y1798563D1*
X4910628Y1795563D1*
X4912120Y1792563D1*
X4913525Y1789563D1*
X4914739Y1786563D1*
X4915795Y1783563D1*
X4916864Y1780563D1*
X4917889Y1777563D1*
X4918856Y1774563D1*
X4919876Y1771563D1*
X4920781Y1768563D1*
X4921359Y1765563D1*
X4921659Y1762563D1*
X4921794Y1759563D1*
X4921849Y1756563D1*
X4921870Y1753563D1*
X4921878Y1750563D1*
X4921881Y1747563D1*
Y1744563D1*
X4921882Y1741563D1*
Y1738563D1*
Y1735563D1*
Y1732563D1*
Y1729563D1*
Y1726563D1*
Y1723563D1*
Y1720563D1*
Y1717563D1*
Y1714563D1*
Y1711563D1*
Y1708563D1*
Y1705563D1*
Y1702563D1*
Y1699563D1*
Y1696563D1*
Y1693563D1*
X4921870Y1690563D1*
X4921765Y1687563D1*
X4921382Y1684563D1*
X4920652Y1681563D1*
X4919778Y1678563D1*
X4918872Y1675563D1*
X4917864Y1672563D1*
X4916862Y1669563D1*
X4915892Y1666563D1*
X4914769Y1663563D1*
X4913471Y1660563D1*
X4912069Y1657563D1*
X4910607Y1654563D1*
X4909124Y1651563D1*
X4907628Y1648563D1*
X4906120Y1645563D1*
X4904525Y1642563D1*
X4902739Y1639563D1*
X4900795Y1636563D1*
X4898864Y1633563D1*
X4896889Y1630563D1*
X4894856Y1627563D1*
X4892888Y1624563D1*
X4890898Y1621563D1*
X4888859Y1618563D1*
X4886877Y1615563D1*
X4884781Y1612563D1*
X4882359Y1609563D1*
X4879659Y1606563D1*
X4876794Y1603563D1*
X4873849Y1600563D1*
X4870870Y1597563D1*
X4867878Y1594563D1*
X4864881Y1591563D1*
X4861881Y1588563D1*
X4858870Y1585563D1*
X4855765Y1582563D1*
X4852382Y1579563D1*
X4848652Y1576563D1*
X4844778Y1573563D1*
X4840872Y1570563D1*
X4836864Y1567563D1*
X4832862Y1564563D1*
X4828892Y1561563D1*
X4824769Y1558563D1*
X4820471Y1555563D1*
X4816057Y1552563D1*
X4811501Y1549563D1*
X4806730Y1546563D1*
X4801792Y1543563D1*
X4796852Y1540563D1*
X4791772Y1537563D1*
X4786356Y1534563D1*
X4780658Y1531563D1*
X4774793Y1528563D1*
X4768849Y1525563D1*
X4762858Y1522563D1*
X4756761Y1519563D1*
X4750369Y1516563D1*
X4743535Y1513563D1*
X4736278Y1510563D1*
X4728630Y1507563D1*
X4720642Y1504563D1*
X4712340Y1501563D1*
X4703538Y1498563D1*
X4694251Y1495563D1*
X4684636Y1492563D1*
X4674646Y1489563D1*
X4664200Y1486563D1*
X4653010Y1483563D1*
X4640674Y1480563D1*
X4626880Y1477563D1*
X4611353Y1474563D1*
X4594395Y1471563D1*
X4576882Y1468563D1*
X4453882Y1969563D2*
X4423264Y1966563D1*
X4395480Y1963563D1*
X4371460Y1960563D1*
X4350971Y1957563D1*
X4333313Y1954563D1*
X4317786Y1951563D1*
X4303909Y1948563D1*
X4291233Y1945563D1*
X4279637Y1942563D1*
X4269140Y1939563D1*
X4259418Y1936563D1*
X4250215Y1933563D1*
X4241574Y1930563D1*
X4233638Y1927563D1*
X4226225Y1924563D1*
X4219011Y1921563D1*
X4212028Y1918563D1*
X4205420Y1915563D1*
X4199110Y1912563D1*
X4192972Y1909563D1*
X4186915Y1906563D1*
X4180905Y1903563D1*
X4175003Y1900563D1*
X4169383Y1897563D1*
X4164112Y1894563D1*
X4158986Y1891563D1*
X4153904Y1888563D1*
X4149006Y1885563D1*
X4144296Y1882563D1*
X4139708Y1879563D1*
X4135275Y1876563D1*
X4131139Y1873563D1*
X4127354Y1870563D1*
X4123631Y1867563D1*
X4119761Y1864563D1*
X4115931Y1861563D1*
X4112384Y1858563D1*
X4109098Y1855563D1*
X4105967Y1852563D1*
X4102914Y1849563D1*
X4099893Y1846563D1*
X4096886Y1843563D1*
X4093883Y1840563D1*
X4090882Y1837563D1*
X4087894Y1834563D1*
X4084999Y1831563D1*
X4082381Y1828563D1*
X4080112Y1825563D1*
X4077986Y1822563D1*
X4075892Y1819563D1*
X4073900Y1816563D1*
X4071902Y1813563D1*
X4069872Y1810563D1*
X4067994Y1807563D1*
X4066281Y1804563D1*
X4064589Y1801563D1*
X4062763Y1798563D1*
X4060815Y1795563D1*
X4058973Y1792563D1*
X4057285Y1789563D1*
X4055704Y1786563D1*
X4054262Y1783563D1*
X4053033Y1780563D1*
X4051972Y1777563D1*
X4050912Y1774563D1*
X4049980Y1771563D1*
X4049290Y1768563D1*
X4048606Y1765563D1*
X4047752Y1762563D1*
X4046916Y1759563D1*
X4046266Y1756563D1*
X4045598Y1753563D1*
X4044749Y1750563D1*
X4043927Y1747563D1*
X4043383Y1744563D1*
X4043097Y1741563D1*
X4042967Y1738563D1*
X4042914Y1735563D1*
X4042893Y1732563D1*
X4042886Y1729563D1*
X4042883Y1726563D1*
X4042882Y1723563D1*
Y1720563D1*
Y1717563D1*
Y1714563D1*
X4042894Y1711563D1*
X4042999Y1708563D1*
X4043381Y1705563D1*
X4044100Y1702563D1*
X4044881Y1699563D1*
X4045510Y1696563D1*
X4046170Y1693563D1*
X4047016Y1690563D1*
X4047849Y1687563D1*
X4048498Y1684563D1*
X4049166Y1681563D1*
X4050026Y1678563D1*
X4050954Y1675563D1*
X4051892Y1672563D1*
X4053002Y1669563D1*
X4054295Y1666563D1*
X4055707Y1663563D1*
X4057263Y1660563D1*
X4059034Y1657563D1*
X4060960Y1654563D1*
X4062795Y1651563D1*
X4064492Y1648563D1*
X4066178Y1645563D1*
X4068002Y1642563D1*
X4069960Y1639563D1*
X4071896Y1636563D1*
X4073873Y1633563D1*
X4075907Y1630563D1*
X4077888Y1627563D1*
X4079983Y1624563D1*
X4082404Y1621563D1*
X4085105Y1618563D1*
X4087970Y1615563D1*
X4090915Y1612563D1*
X4093894Y1609563D1*
X4096886Y1606563D1*
X4099883Y1603563D1*
X4102894Y1600563D1*
X4105999Y1597563D1*
X4109381Y1594563D1*
X4113100Y1591563D1*
X4116869Y1588563D1*
X4120404Y1585563D1*
X4123788Y1582563D1*
X4127309Y1579563D1*
X4131186Y1576563D1*
X4135369Y1573563D1*
X4139735Y1570563D1*
X4144273Y1567563D1*
X4149037Y1564563D1*
X4153973Y1561563D1*
X4158913Y1558563D1*
X4163992Y1555563D1*
X4169407Y1552563D1*
X4175106Y1549563D1*
X4180970Y1546563D1*
X4186915Y1543563D1*
X4192905Y1540563D1*
X4199003Y1537563D1*
X4205383Y1534563D1*
X4212112Y1531563D1*
X4218998Y1528563D1*
X4226032Y1525563D1*
X4233622Y1522563D1*
X4242014Y1519563D1*
X4250936Y1516563D1*
X4260007Y1513563D1*
X4269472Y1510563D1*
X4279870Y1507563D1*
X4291246Y1504563D1*
X4303673Y1501563D1*
X4317405Y1498563D1*
X4332713Y1495563D1*
X4350295Y1492563D1*
X4371135Y1489563D1*
X4395935Y1486563D1*
X4424153Y1483563D1*
X4453882Y1480563D1*
X4483882Y1969563D2*
X4514500Y1966563D1*
X4542284Y1963563D1*
X4566304Y1960563D1*
X4586793Y1957563D1*
X4604439Y1954563D1*
X4619860Y1951563D1*
X4633355Y1948563D1*
X4645324Y1945563D1*
X4656245Y1942563D1*
X4666495Y1939563D1*
X4676287Y1936563D1*
X4685520Y1933563D1*
X4694244Y1930563D1*
X4702634Y1927563D1*
X4710657Y1924563D1*
X4718317Y1921563D1*
X4725545Y1918563D1*
X4732267Y1915563D1*
X4738624Y1912563D1*
X4744782Y1909563D1*
X4750845Y1906563D1*
X4756857Y1903563D1*
X4762760Y1900563D1*
X4768369Y1897563D1*
X4773546Y1894563D1*
X4778395Y1891563D1*
X4783142Y1888563D1*
X4787977Y1885563D1*
X4792839Y1882563D1*
X4797396Y1879563D1*
X4801643Y1876563D1*
X4805791Y1873563D1*
X4809761Y1870563D1*
X4813465Y1867563D1*
X4817154Y1864563D1*
X4821010Y1861563D1*
X4824836Y1858563D1*
X4828380Y1855563D1*
X4831666Y1852563D1*
X4834796Y1849563D1*
X4837850Y1846563D1*
X4840871Y1843563D1*
X4843866Y1840563D1*
X4846763Y1837563D1*
X4849382Y1834563D1*
X4851664Y1831563D1*
X4853883Y1828563D1*
X4856254Y1825563D1*
X4858594Y1822563D1*
X4860736Y1819563D1*
X4862809Y1816563D1*
X4864883Y1813563D1*
X4866867Y1810563D1*
X4868863Y1807563D1*
X4870892Y1804563D1*
X4872769Y1801563D1*
X4874472Y1798563D1*
X4876069Y1795563D1*
X4877607Y1792563D1*
X4879124Y1789563D1*
X4880628Y1786563D1*
X4882120Y1783563D1*
X4883525Y1780563D1*
X4884739Y1777563D1*
X4885795Y1774563D1*
X4886864Y1771563D1*
X4887889Y1768563D1*
X4888856Y1765563D1*
X4889876Y1762563D1*
X4890781Y1759563D1*
X4891371Y1756563D1*
X4891776Y1753563D1*
X4892293Y1750563D1*
X4893067Y1747563D1*
X4893857Y1744563D1*
X4894388Y1741563D1*
X4894669Y1738563D1*
X4894797Y1735563D1*
X4894850Y1732563D1*
X4894871Y1729563D1*
X4894878Y1726563D1*
X4894881Y1723563D1*
Y1720563D1*
X4894882Y1717563D1*
X4894870Y1714563D1*
X4894765Y1711563D1*
X4894382Y1708563D1*
X4893664Y1705563D1*
X4892895Y1702563D1*
X4892360Y1699563D1*
X4891976Y1696563D1*
X4891467Y1693563D1*
X4890684Y1690563D1*
X4889789Y1687563D1*
X4888876Y1684563D1*
X4887865Y1681563D1*
X4886862Y1678563D1*
X4885892Y1675563D1*
X4884769Y1672563D1*
X4883471Y1669563D1*
X4882069Y1666563D1*
X4880607Y1663563D1*
X4879124Y1660563D1*
X4877628Y1657563D1*
X4876120Y1654563D1*
X4874525Y1651563D1*
X4872739Y1648563D1*
X4870795Y1645563D1*
X4868864Y1642563D1*
X4866889Y1639563D1*
X4864856Y1636563D1*
X4862876Y1633563D1*
X4860792Y1630563D1*
X4858477Y1627563D1*
X4856158Y1624563D1*
X4854012Y1621563D1*
X4851836Y1618563D1*
X4849381Y1615563D1*
X4846667Y1612563D1*
X4843796Y1609563D1*
X4840850Y1606563D1*
X4837871Y1603563D1*
X4834866Y1600563D1*
X4831763Y1597563D1*
X4828382Y1594563D1*
X4824664Y1591563D1*
X4820883Y1588563D1*
X4817254Y1585563D1*
X4813594Y1582563D1*
X4809736Y1579563D1*
X4805797Y1576563D1*
X4801766Y1573563D1*
X4797368Y1570563D1*
X4792645Y1567563D1*
X4787905Y1564563D1*
X4783247Y1561563D1*
X4778566Y1558563D1*
X4773642Y1555563D1*
X4768303Y1552563D1*
X4762637Y1549563D1*
X4756786Y1546563D1*
X4750846Y1543563D1*
X4744858Y1540563D1*
X4738760Y1537563D1*
X4732369Y1534563D1*
X4725535Y1531563D1*
X4718278Y1528563D1*
X4710630Y1525563D1*
X4702642Y1522563D1*
X4694340Y1519563D1*
X4685538Y1516563D1*
X4676251Y1513563D1*
X4666624Y1510563D1*
X4656529Y1507563D1*
X4645689Y1504563D1*
X4633675Y1501563D1*
X4620175Y1498563D1*
X4604977Y1495563D1*
X4587440Y1492563D1*
X4566618Y1489563D1*
X4541825Y1486563D1*
X4513609Y1483563D1*
X4483882Y1480563D1*
X4735882Y1861563D2*
X4736357Y1858563D1*
X4737206Y1855563D1*
X4738377Y1852563D1*
X4739727Y1849563D1*
X4741169Y1846563D1*
X4742643Y1843563D1*
X4744137Y1840563D1*
X4745632Y1837563D1*
X4747134Y1834563D1*
X4748631Y1831563D1*
X4750133Y1828563D1*
X4751640Y1825563D1*
X4753220Y1822563D1*
X4754971Y1819563D1*
X4756882Y1816563D1*
X4738882Y1813563D1*
X4744330Y1810563D1*
X4749278Y1807563D1*
X4753882Y1804563D1*
X4748241Y1801563D1*
X4742198Y1798563D1*
X4735960Y1795563D1*
X4729489Y1792563D1*
X4722830Y1789563D1*
X4716492Y1786563D1*
X4710939Y1783563D1*
X4705882Y1780563D1*
X4816882Y1858563D2*
X4813882Y1855563D1*
X4810882Y1852563D1*
X4807882Y1849563D1*
X4804882Y1846563D1*
X4801882Y1843563D1*
X4798882Y1840563D1*
X4795882Y1837563D1*
X4792882Y1834563D1*
X4789882Y1831563D1*
X4786882Y1828563D1*
X4738882Y1855563D2*
X4742241Y1852563D1*
X4745210Y1849563D1*
X4748077Y1846563D1*
X4750977Y1843563D1*
X4753923Y1840563D1*
X4756898Y1837563D1*
X4759888Y1834563D1*
X4762884Y1831563D1*
X4765882Y1828563D1*
X4816882Y1855563D2*
X4814919Y1852563D1*
X4812918Y1849563D1*
X4810880Y1846563D1*
X4808998Y1843563D1*
X4807294Y1840563D1*
X4805695Y1837563D1*
X4804146Y1834563D1*
X4802534Y1831563D1*
X4800742Y1828563D1*
X4798798Y1825563D1*
X4796881Y1822563D1*
X4794930Y1819563D1*
X4792882Y1816563D1*
X4813882Y1813563D1*
X4808235Y1810563D1*
X4803971Y1807563D1*
X4801081Y1804563D1*
X4798882Y1801563D1*
X4806267Y1798563D1*
X4813140Y1795563D1*
X4819670Y1792563D1*
X4826133Y1789563D1*
X4832492Y1786563D1*
X4838390Y1783563D1*
X4843882Y1780563D1*
X4774882Y1843563D2*
X4774870Y1840563D1*
X4774756Y1837563D1*
X4774292Y1834563D1*
X4773267Y1831563D1*
X4771882Y1828563D1*
X4777882Y1837563D2*
Y1834563D1*
Y1831563D1*
Y1828563D1*
X4093882D2*
Y1825563D1*
Y1822563D1*
Y1819563D1*
Y1816563D1*
Y1813563D1*
Y1810563D1*
Y1807563D1*
Y1804563D1*
Y1801563D1*
X4093894Y1798563D1*
X4093999Y1795563D1*
X4094381Y1792563D1*
X4095100Y1789563D1*
X4095869Y1786563D1*
X4096392Y1783563D1*
X4096671Y1780563D1*
X4096809Y1777563D1*
X4096968Y1774563D1*
X4097370Y1771563D1*
X4098096Y1768563D1*
X4098868Y1765563D1*
X4099404Y1762563D1*
X4099788Y1759563D1*
X4100297Y1756563D1*
X4101068Y1753563D1*
X4101858Y1750563D1*
X4102400Y1747563D1*
X4102786Y1744563D1*
X4103297Y1741563D1*
X4104068Y1738563D1*
X4104870Y1735563D1*
X4105506Y1732563D1*
X4106169Y1729563D1*
X4107027Y1726563D1*
X4107955Y1723563D1*
X4108869Y1720563D1*
X4109767Y1717563D1*
X4110528Y1714563D1*
X4110089Y1711563D1*
X4109177Y1708563D1*
X4107941Y1705563D1*
X4106458Y1702563D1*
X4104727Y1699563D1*
X4102927Y1696563D1*
X4101321Y1693563D1*
X4101049Y1690563D1*
X4101391Y1687563D1*
X4101985Y1684563D1*
X4102435Y1681563D1*
X4102686Y1678563D1*
X4102803Y1675563D1*
X4102864Y1672563D1*
X4102988Y1669563D1*
X4103378Y1666563D1*
X4104099Y1663563D1*
X4104869Y1660563D1*
X4105392Y1657563D1*
X4105682Y1654563D1*
X4105915Y1651563D1*
X4106350Y1648563D1*
X4107089Y1645563D1*
X4107865Y1642563D1*
X4108393Y1639563D1*
X4108688Y1636563D1*
X4108882Y1633563D1*
X4096882Y1825563D2*
X4098742Y1822563D1*
X4100465Y1819563D1*
X4102165Y1816563D1*
X4103997Y1813563D1*
X4105947Y1810563D1*
X4107790Y1807563D1*
X4109479Y1804563D1*
X4111072Y1801563D1*
X4112607Y1798563D1*
X4114125Y1795563D1*
X4115628Y1792563D1*
X4117132Y1789563D1*
X4118630Y1786563D1*
X4120133Y1783563D1*
X4121631Y1780563D1*
X4123121Y1777563D1*
X4124525Y1774563D1*
X4125739Y1771563D1*
X4126795Y1768563D1*
X4127864Y1765563D1*
X4128889Y1762563D1*
X4129868Y1759563D1*
X4130993Y1756563D1*
X4132280Y1753563D1*
X4133589Y1750563D1*
X4134763Y1747563D1*
X4135804Y1744563D1*
X4136867Y1741563D1*
X4137890Y1738563D1*
X4138856Y1735563D1*
X4139888Y1732563D1*
X4140910Y1729563D1*
X4142000Y1726563D1*
X4143646Y1723563D1*
X4146361Y1720563D1*
X4150398Y1717563D1*
X4155309Y1714563D1*
X4159900Y1711563D1*
X4163372Y1708563D1*
X4165882Y1705563D1*
X4167838Y1702563D1*
X4169521Y1699563D1*
X4171082Y1696563D1*
X4172512Y1693563D1*
X4173735Y1690563D1*
X4174805Y1687563D1*
X4175969Y1684563D1*
X4177283Y1681563D1*
X4178692Y1678563D1*
X4180156Y1675563D1*
X4181639Y1672563D1*
X4183136Y1669563D1*
X4184641Y1666563D1*
X4186221Y1663563D1*
X4187971Y1660563D1*
X4189882Y1657563D1*
X4184069Y1654563D1*
X4177882Y1651563D1*
X4240882Y1801563D2*
Y1798563D1*
Y1795563D1*
Y1792563D1*
Y1789563D1*
Y1786563D1*
Y1783563D1*
Y1780563D1*
Y1777563D1*
Y1774563D1*
Y1771563D1*
Y1768563D1*
Y1765563D1*
Y1762563D1*
Y1759563D1*
Y1756563D1*
Y1753563D1*
Y1750563D1*
Y1747563D1*
Y1744563D1*
Y1741563D1*
Y1738563D1*
Y1735563D1*
Y1732563D1*
Y1729563D1*
X4240894Y1726563D1*
X4241023Y1723563D1*
X4241339Y1720563D1*
X4243167Y1717563D1*
X4246044Y1714563D1*
X4249814Y1711563D1*
X4254112Y1708563D1*
X4258296Y1705563D1*
X4261939Y1702563D1*
X4263643Y1699563D1*
X4263843Y1696563D1*
X4263428Y1693563D1*
X4262692Y1690563D1*
X4261829Y1687563D1*
X4260747Y1684563D1*
X4259476Y1681563D1*
X4258172Y1678563D1*
X4257000Y1675563D1*
X4255960Y1672563D1*
X4254896Y1669563D1*
X4253873Y1666563D1*
X4252896Y1663563D1*
X4251771Y1660563D1*
X4250484Y1657563D1*
X4249175Y1654563D1*
X4248001Y1651563D1*
X4246960Y1648563D1*
X4245896Y1645563D1*
X4244873Y1642563D1*
X4243907Y1639563D1*
X4242887Y1636563D1*
X4241975Y1633563D1*
X4241349Y1630563D1*
X4240882Y1627563D1*
X4342882Y1801563D2*
Y1798563D1*
Y1795563D1*
Y1792563D1*
Y1789563D1*
Y1786563D1*
Y1783563D1*
Y1780563D1*
Y1777563D1*
Y1774563D1*
Y1771563D1*
Y1768563D1*
Y1765563D1*
Y1762563D1*
Y1759563D1*
Y1756563D1*
Y1753563D1*
Y1750563D1*
Y1747563D1*
Y1744563D1*
Y1741563D1*
Y1738563D1*
Y1735563D1*
Y1732563D1*
Y1729563D1*
Y1726563D1*
Y1723563D1*
Y1720563D1*
Y1717563D1*
Y1714563D1*
Y1711563D1*
Y1708563D1*
Y1705563D1*
Y1702563D1*
Y1699563D1*
Y1696563D1*
Y1693563D1*
Y1690563D1*
Y1687563D1*
Y1684563D1*
Y1681563D1*
Y1678563D1*
Y1675563D1*
Y1672563D1*
Y1669563D1*
Y1666563D1*
Y1663563D1*
Y1660563D1*
Y1657563D1*
Y1654563D1*
Y1651563D1*
Y1648563D1*
Y1645563D1*
Y1642563D1*
Y1639563D1*
Y1636563D1*
Y1633563D1*
Y1630563D1*
Y1627563D1*
X4354882Y1801563D2*
X4353497Y1798563D1*
X4352635Y1795563D1*
X4352199Y1792563D1*
X4352006Y1789563D1*
X4351928Y1786563D1*
X4351898Y1783563D1*
X4351887Y1780563D1*
X4351884Y1777563D1*
X4351882Y1774563D1*
Y1771563D1*
Y1768563D1*
Y1765563D1*
Y1762563D1*
Y1759563D1*
Y1756563D1*
Y1753563D1*
Y1750563D1*
Y1747563D1*
Y1744563D1*
Y1741563D1*
Y1738563D1*
Y1735563D1*
Y1732563D1*
Y1729563D1*
Y1726563D1*
Y1723563D1*
Y1720563D1*
Y1717563D1*
Y1714563D1*
Y1711563D1*
Y1708563D1*
Y1705563D1*
Y1702563D1*
Y1699563D1*
Y1696563D1*
Y1693563D1*
Y1690563D1*
Y1687563D1*
Y1684563D1*
Y1681563D1*
Y1678563D1*
Y1675563D1*
Y1672563D1*
Y1669563D1*
Y1666563D1*
Y1663563D1*
Y1660563D1*
Y1657563D1*
Y1654563D1*
Y1651563D1*
Y1648563D1*
Y1645563D1*
Y1642563D1*
Y1639563D1*
Y1636563D1*
Y1633563D1*
Y1630563D1*
Y1627563D1*
X4456882Y1801563D2*
Y1798563D1*
Y1795563D1*
Y1792563D1*
Y1789563D1*
Y1786563D1*
Y1783563D1*
Y1780563D1*
Y1777563D1*
Y1774563D1*
Y1771563D1*
Y1768563D1*
Y1765563D1*
Y1762563D1*
Y1759563D1*
Y1756563D1*
Y1753563D1*
Y1750563D1*
Y1747563D1*
Y1744563D1*
Y1741563D1*
Y1738563D1*
Y1735563D1*
Y1732563D1*
Y1729563D1*
Y1726563D1*
Y1723563D1*
Y1720563D1*
Y1717563D1*
Y1714563D1*
Y1711563D1*
Y1708563D1*
Y1705563D1*
Y1702563D1*
Y1699563D1*
Y1696563D1*
Y1693563D1*
Y1690563D1*
Y1687563D1*
Y1684563D1*
Y1681563D1*
Y1678563D1*
Y1675563D1*
Y1672563D1*
Y1669563D1*
Y1666563D1*
Y1663563D1*
Y1660563D1*
Y1657563D1*
Y1654563D1*
Y1651563D1*
Y1648563D1*
Y1645563D1*
Y1642563D1*
Y1639563D1*
Y1636563D1*
Y1633563D1*
Y1630563D1*
Y1627563D1*
X4465882Y1801563D2*
Y1798563D1*
Y1795563D1*
Y1792563D1*
Y1789563D1*
Y1786563D1*
Y1783563D1*
Y1780563D1*
Y1777563D1*
Y1774563D1*
Y1771563D1*
X4570882Y1801563D2*
Y1798563D1*
Y1795563D1*
Y1792563D1*
Y1789563D1*
Y1786563D1*
Y1783563D1*
Y1780563D1*
Y1777563D1*
Y1774563D1*
Y1771563D1*
X4579882Y1801563D2*
Y1798563D1*
Y1795563D1*
Y1792563D1*
Y1789563D1*
Y1786563D1*
Y1783563D1*
Y1780563D1*
Y1777563D1*
Y1774563D1*
Y1771563D1*
Y1768563D1*
Y1765563D1*
Y1762563D1*
Y1759563D1*
Y1756563D1*
X4684882Y1801563D2*
Y1798563D1*
Y1795563D1*
Y1792563D1*
Y1789563D1*
Y1786563D1*
Y1783563D1*
Y1780563D1*
Y1777563D1*
Y1774563D1*
Y1771563D1*
Y1768563D1*
Y1765563D1*
Y1762563D1*
Y1759563D1*
Y1756563D1*
Y1753563D1*
Y1750563D1*
Y1747563D1*
Y1744563D1*
Y1741563D1*
X4684870Y1738563D1*
X4684730Y1735563D1*
X4684378Y1732563D1*
X4682497Y1729563D1*
X4677535Y1726563D1*
X4670915Y1723563D1*
X4663072Y1720563D1*
X4654571Y1717563D1*
X4645768Y1714563D1*
X4636877Y1711563D1*
X4628255Y1708563D1*
X4620763Y1705563D1*
X4614575Y1702563D1*
X4611767Y1699563D1*
X4610760Y1696563D1*
X4610241Y1693563D1*
X4610018Y1690563D1*
X4609931Y1687563D1*
X4609899Y1684563D1*
X4609887Y1681563D1*
X4609884Y1678563D1*
X4609882Y1675563D1*
Y1672563D1*
Y1669563D1*
Y1666563D1*
Y1663563D1*
Y1660563D1*
Y1657563D1*
Y1654563D1*
X4759882Y1789563D2*
X4742433Y1786563D1*
X4725486Y1783563D1*
X4708882Y1780563D1*
X4756882Y1789563D2*
X4756756Y1786563D1*
X4756266Y1783563D1*
X4755162Y1780563D1*
X4753641Y1777563D1*
X4752180Y1774563D1*
X4750882Y1771563D1*
X4789882Y1789563D2*
X4792533Y1786563D1*
X4795173Y1783563D1*
X4798127Y1780563D1*
X4801477Y1777563D1*
X4805103Y1774563D1*
X4808973Y1771563D1*
X4812816Y1768563D1*
X4816372Y1765563D1*
X4819663Y1762563D1*
X4822783Y1759563D1*
X4825732Y1756563D1*
X4828371Y1753563D1*
X4830660Y1750563D1*
X4832882Y1747563D1*
X4835254Y1744563D1*
X4837582Y1741563D1*
X4839631Y1738563D1*
X4841415Y1735563D1*
X4843048Y1732563D1*
X4844599Y1729563D1*
X4846110Y1726563D1*
X4847521Y1723563D1*
X4848738Y1720563D1*
X4849795Y1717563D1*
X4850853Y1714563D1*
X4851772Y1711563D1*
X4852356Y1708563D1*
X4852658Y1705563D1*
X4852793Y1702563D1*
X4852849Y1699563D1*
X4852870Y1696563D1*
X4852878Y1693563D1*
X4852881Y1690563D1*
Y1687563D1*
X4852882Y1684563D1*
X4852870Y1681563D1*
X4852765Y1678563D1*
X4852382Y1675563D1*
X4851652Y1672563D1*
X4850778Y1669563D1*
X4849872Y1666563D1*
X4848864Y1663563D1*
X4847850Y1660563D1*
X4846786Y1657563D1*
X4845375Y1654563D1*
X4843636Y1651563D1*
X4841800Y1648563D1*
X4839865Y1645563D1*
X4837847Y1642563D1*
X4835885Y1639563D1*
X4833897Y1636563D1*
X4831859Y1633563D1*
X4829865Y1630563D1*
X4827664Y1627563D1*
X4824860Y1624563D1*
X4821441Y1621563D1*
X4817807Y1618563D1*
X4814339Y1615563D1*
X4811082Y1612563D1*
X4807950Y1609563D1*
X4804795Y1606563D1*
X4801381Y1603563D1*
X4797550Y1600563D1*
X4793385Y1597563D1*
X4789025Y1594563D1*
X4784478Y1591563D1*
X4779609Y1588563D1*
X4774291Y1585563D1*
X4768633Y1582563D1*
X4762785Y1579563D1*
X4756834Y1576563D1*
X4750752Y1573563D1*
X4744366Y1570563D1*
X4737534Y1567563D1*
X4730266Y1564563D1*
X4722525Y1561563D1*
X4714260Y1558563D1*
X4705610Y1555563D1*
X4696652Y1552563D1*
X4687216Y1549563D1*
X4677022Y1546563D1*
X4666032Y1543563D1*
X4654396Y1540563D1*
X4641968Y1537563D1*
X4628089Y1534563D1*
X4611804Y1531563D1*
X4592443Y1528563D1*
X4570316Y1525563D1*
X4546882Y1522563D1*
X4792882Y1789563D2*
X4808433Y1786563D1*
X4824486Y1783563D1*
X4840882Y1780563D1*
X4765882Y1783563D2*
X4762416Y1780563D1*
X4758647Y1777563D1*
X4754747Y1774563D1*
X4750882Y1771563D1*
X4768882Y1783563D2*
X4768894Y1780563D1*
X4768999Y1777563D1*
X4769381Y1774563D1*
X4770100Y1771563D1*
X4770869Y1768563D1*
X4771392Y1765563D1*
X4771671Y1762563D1*
X4771798Y1759563D1*
X4771862Y1756563D1*
X4771988Y1753563D1*
X4772378Y1750563D1*
X4773099Y1747563D1*
X4773869Y1744563D1*
X4774395Y1741563D1*
X4774688Y1738563D1*
X4774882Y1735563D1*
X4780882Y1783563D2*
X4780768Y1780563D1*
X4780383Y1777563D1*
X4779664Y1774563D1*
X4778895Y1771563D1*
X4778371Y1768563D1*
X4778093Y1765563D1*
X4777966Y1762563D1*
X4777913Y1759563D1*
X4777893Y1756563D1*
X4777874Y1753563D1*
X4777766Y1750563D1*
X4777383Y1747563D1*
X4776663Y1744563D1*
X4775887Y1741563D1*
X4775318Y1738563D1*
X4774882Y1735563D1*
X4786882Y1783563D2*
X4789882Y1780563D1*
X4792882Y1777563D1*
X4795882Y1774563D1*
X4798882Y1771563D1*
X4801882Y1768563D1*
X4804870Y1765563D1*
X4807765Y1762563D1*
X4810382Y1759563D1*
X4812652Y1756563D1*
X4814778Y1753563D1*
X4816872Y1750563D1*
X4818864Y1747563D1*
X4820862Y1744563D1*
X4822892Y1741563D1*
X4824769Y1738563D1*
X4826471Y1735563D1*
X4828057Y1732563D1*
X4829501Y1729563D1*
X4830730Y1726563D1*
X4831792Y1723563D1*
X4832863Y1720563D1*
X4833889Y1717563D1*
X4834856Y1714563D1*
X4835876Y1711563D1*
X4836781Y1708563D1*
X4837359Y1705563D1*
X4837659Y1702563D1*
X4837794Y1699563D1*
X4837849Y1696563D1*
X4837870Y1693563D1*
X4837878Y1690563D1*
X4837881Y1687563D1*
Y1684563D1*
X4837870Y1681563D1*
X4837765Y1678563D1*
X4837371Y1675563D1*
X4836547Y1672563D1*
X4835383Y1669563D1*
X4834036Y1666563D1*
X4832595Y1663563D1*
X4831109Y1660563D1*
X4829521Y1657563D1*
X4827738Y1654563D1*
X4825795Y1651563D1*
X4823853Y1648563D1*
X4821772Y1645563D1*
X4819356Y1642563D1*
X4816646Y1639563D1*
X4813676Y1636563D1*
X4810349Y1633563D1*
X4806640Y1630563D1*
X4802773Y1627563D1*
X4798859Y1624563D1*
X4794758Y1621563D1*
X4790467Y1618563D1*
X4786056Y1615563D1*
X4781489Y1612563D1*
X4776613Y1609563D1*
X4771304Y1606563D1*
X4765739Y1603563D1*
X4760167Y1600563D1*
X4754564Y1597563D1*
X4748627Y1594563D1*
X4742284Y1591563D1*
X4735659Y1588563D1*
X4728779Y1585563D1*
X4721818Y1582563D1*
X4714752Y1579563D1*
X4707137Y1576563D1*
X4698635Y1573563D1*
X4689340Y1570563D1*
X4679645Y1567563D1*
X4669675Y1564563D1*
X4658985Y1561563D1*
X4646987Y1558563D1*
X4633327Y1555563D1*
X4617795Y1552563D1*
X4599626Y1549563D1*
X4577774Y1546563D1*
X4552577Y1543563D1*
X4525882Y1540563D1*
X4267882Y1771563D2*
Y1768563D1*
Y1765563D1*
Y1762563D1*
Y1759563D1*
Y1756563D1*
Y1753563D1*
Y1750563D1*
Y1747563D1*
X4267894Y1744563D1*
X4268023Y1741563D1*
X4268339Y1738563D1*
X4269857Y1735563D1*
X4273425Y1732563D1*
X4277911Y1729563D1*
X4282851Y1726563D1*
X4287843Y1723563D1*
X4292952Y1720563D1*
X4298340Y1717563D1*
X4303882Y1714563D1*
X4312882Y1771563D2*
Y1768563D1*
Y1765563D1*
Y1762563D1*
Y1759563D1*
Y1756563D1*
Y1753563D1*
Y1750563D1*
Y1747563D1*
Y1744563D1*
Y1741563D1*
Y1738563D1*
Y1735563D1*
Y1732563D1*
Y1729563D1*
Y1726563D1*
Y1723563D1*
Y1720563D1*
Y1717563D1*
Y1714563D1*
X4381882Y1771563D2*
Y1768563D1*
Y1765563D1*
Y1762563D1*
Y1759563D1*
Y1756563D1*
Y1753563D1*
Y1750563D1*
Y1747563D1*
Y1744563D1*
Y1741563D1*
Y1738563D1*
X4426882Y1771563D2*
Y1768563D1*
Y1765563D1*
Y1762563D1*
Y1759563D1*
Y1756563D1*
Y1753563D1*
Y1750563D1*
Y1747563D1*
Y1744563D1*
Y1741563D1*
Y1738563D1*
X4504882Y1771563D2*
Y1768563D1*
Y1765563D1*
Y1762563D1*
Y1759563D1*
Y1756563D1*
Y1753563D1*
Y1750563D1*
Y1747563D1*
Y1744563D1*
Y1741563D1*
Y1738563D1*
Y1735563D1*
Y1732563D1*
Y1729563D1*
Y1726563D1*
Y1723563D1*
Y1720563D1*
Y1717563D1*
Y1714563D1*
Y1711563D1*
Y1708563D1*
Y1705563D1*
Y1702563D1*
Y1699563D1*
Y1696563D1*
Y1693563D1*
Y1690563D1*
Y1687563D1*
Y1684563D1*
Y1681563D1*
Y1678563D1*
Y1675563D1*
Y1672563D1*
Y1669563D1*
Y1666563D1*
Y1663563D1*
Y1660563D1*
Y1657563D1*
Y1654563D1*
Y1651563D1*
Y1648563D1*
Y1645563D1*
Y1642563D1*
Y1639563D1*
Y1636563D1*
Y1633563D1*
Y1630563D1*
Y1627563D1*
X4531882Y1771563D2*
Y1768563D1*
Y1765563D1*
Y1762563D1*
Y1759563D1*
Y1756563D1*
Y1753563D1*
Y1750563D1*
Y1747563D1*
Y1744563D1*
Y1741563D1*
Y1738563D1*
Y1735563D1*
Y1732563D1*
Y1729563D1*
Y1726563D1*
Y1723563D1*
Y1720563D1*
Y1717563D1*
Y1714563D1*
Y1711563D1*
Y1708563D1*
Y1705563D1*
Y1702563D1*
Y1699563D1*
Y1696563D1*
Y1693563D1*
Y1690563D1*
Y1687563D1*
Y1684563D1*
Y1681563D1*
Y1678563D1*
Y1675563D1*
Y1672563D1*
Y1669563D1*
Y1666563D1*
Y1663563D1*
Y1660563D1*
Y1657563D1*
Y1654563D1*
Y1651563D1*
Y1648563D1*
Y1645563D1*
Y1642563D1*
Y1639563D1*
Y1636563D1*
Y1633563D1*
Y1630563D1*
Y1627563D1*
X4609882Y1771563D2*
Y1768563D1*
Y1765563D1*
Y1762563D1*
Y1759563D1*
Y1756563D1*
X4654882Y1771563D2*
Y1768563D1*
Y1765563D1*
Y1762563D1*
X4654847Y1759563D1*
X4654495Y1756563D1*
X4653651Y1753563D1*
X4649621Y1750563D1*
X4643909Y1747563D1*
X4636972Y1744563D1*
X4629080Y1741563D1*
X4620423Y1738563D1*
X4611480Y1735563D1*
X4602691Y1732563D1*
X4594684Y1729563D1*
X4588322Y1726563D1*
X4583356Y1723563D1*
X4581260Y1720563D1*
X4580521Y1717563D1*
X4580143Y1714563D1*
X4579980Y1711563D1*
X4579917Y1708563D1*
X4579894Y1705563D1*
X4579886Y1702563D1*
X4579883Y1699563D1*
X4579882Y1696563D1*
Y1693563D1*
Y1690563D1*
Y1687563D1*
Y1684563D1*
Y1681563D1*
Y1678563D1*
Y1675563D1*
Y1672563D1*
Y1669563D1*
Y1666563D1*
Y1663563D1*
Y1660563D1*
Y1657563D1*
Y1654563D1*
Y1651563D1*
Y1648563D1*
Y1645563D1*
Y1642563D1*
Y1639563D1*
Y1636563D1*
Y1633563D1*
Y1630563D1*
Y1627563D1*
X4381882Y1711563D2*
Y1708563D1*
Y1705563D1*
Y1702563D1*
Y1699563D1*
Y1696563D1*
Y1693563D1*
Y1690563D1*
Y1687563D1*
Y1684563D1*
Y1681563D1*
Y1678563D1*
Y1675563D1*
Y1672563D1*
Y1669563D1*
Y1666563D1*
Y1663563D1*
Y1660563D1*
Y1657563D1*
Y1654563D1*
Y1651563D1*
Y1648563D1*
Y1645563D1*
Y1642563D1*
Y1639563D1*
Y1636563D1*
Y1633563D1*
Y1630563D1*
Y1627563D1*
X4426882Y1711563D2*
Y1708563D1*
Y1705563D1*
Y1702563D1*
Y1699563D1*
Y1696563D1*
Y1693563D1*
Y1690563D1*
Y1687563D1*
Y1684563D1*
Y1681563D1*
Y1678563D1*
Y1675563D1*
Y1672563D1*
Y1669563D1*
Y1666563D1*
Y1663563D1*
Y1660563D1*
Y1657563D1*
Y1654563D1*
Y1651563D1*
Y1648563D1*
Y1645563D1*
Y1642563D1*
Y1639563D1*
Y1636563D1*
Y1633563D1*
Y1630563D1*
Y1627563D1*
X4294882Y1684563D2*
X4294768Y1681563D1*
X4294383Y1678563D1*
X4293652Y1675563D1*
X4292778Y1672563D1*
X4291872Y1669563D1*
X4290864Y1666563D1*
X4289862Y1663563D1*
X4288903Y1660563D1*
X4287875Y1657563D1*
X4286866Y1654563D1*
X4285893Y1651563D1*
X4284770Y1648563D1*
X4283483Y1645563D1*
X4282175Y1642563D1*
X4281001Y1639563D1*
X4279958Y1636563D1*
X4278880Y1633563D1*
X4277833Y1630563D1*
X4276882Y1627563D1*
X4297882Y1684563D2*
X4303166Y1681563D1*
X4307419Y1678563D1*
X4310690Y1675563D1*
X4311826Y1672563D1*
X4312436Y1669563D1*
X4312708Y1666563D1*
X4312818Y1663563D1*
X4312860Y1660563D1*
X4312874Y1657563D1*
X4312879Y1654563D1*
X4312881Y1651563D1*
X4312882Y1648563D1*
Y1645563D1*
Y1642563D1*
Y1639563D1*
Y1636563D1*
Y1633563D1*
Y1630563D1*
Y1627563D1*
X4654882Y1672563D2*
Y1669563D1*
Y1666563D1*
Y1663563D1*
Y1660563D1*
Y1657563D1*
Y1654563D1*
X4684882Y1672563D2*
Y1669563D1*
Y1666563D1*
Y1663563D1*
Y1660563D1*
Y1657563D1*
Y1654563D1*
Y1651563D1*
Y1648563D1*
Y1645563D1*
Y1642563D1*
Y1639563D1*
Y1636563D1*
Y1633563D1*
Y1630563D1*
Y1627563D1*
X4168882Y1657563D2*
X4165882Y1654563D1*
X4162882Y1651563D1*
X4168882Y1657563D2*
X4171882Y1654563D1*
X4174882Y1651563D1*
X4156882Y1654563D2*
X4157460Y1651563D1*
X4158600Y1648563D1*
X4160213Y1645563D1*
X4162007Y1642563D1*
X4164027Y1639563D1*
X4166420Y1636563D1*
X4169110Y1633563D1*
X4171972Y1630563D1*
X4174915Y1627563D1*
X4177894Y1624563D1*
X4180898Y1621563D1*
X4184000Y1618563D1*
X4187382Y1615563D1*
X4191100Y1612563D1*
X4194881Y1609563D1*
X4198510Y1606563D1*
X4202182Y1603563D1*
X4206145Y1600563D1*
X4210466Y1597563D1*
X4215227Y1594563D1*
X4220500Y1591563D1*
X4226141Y1588563D1*
X4231983Y1585563D1*
X4237931Y1582563D1*
X4244024Y1579563D1*
X4250515Y1576563D1*
X4257730Y1573563D1*
X4265728Y1570563D1*
X4274355Y1567563D1*
X4283655Y1564563D1*
X4293918Y1561563D1*
X4305502Y1558563D1*
X4318882Y1555563D1*
X4334841Y1552563D1*
X4354466Y1549563D1*
X4378545Y1546563D1*
X4406389Y1543563D1*
X4435882Y1540563D1*
X4135882Y1651563D2*
X4135330Y1648563D1*
X4134278Y1645563D1*
X4132882Y1642563D1*
X4144882Y1651563D2*
X4145357Y1648563D1*
X4146218Y1645563D1*
X4147494Y1642563D1*
X4149226Y1639563D1*
X4151387Y1636563D1*
X4153642Y1633563D1*
X4155765Y1630563D1*
X4157932Y1627563D1*
X4160373Y1624563D1*
X4162992Y1621563D1*
X4165573Y1618563D1*
X4168090Y1615563D1*
X4170742Y1612563D1*
X4173644Y1609563D1*
X4176836Y1606563D1*
X4180232Y1603563D1*
X4183563Y1600563D1*
X4186852Y1597563D1*
X4190321Y1594563D1*
X4194089Y1591563D1*
X4197990Y1588563D1*
X4202006Y1585563D1*
X4206399Y1582563D1*
X4211132Y1579563D1*
X4215976Y1576563D1*
X4221016Y1573563D1*
X4226416Y1570563D1*
X4232121Y1567563D1*
X4238089Y1564563D1*
X4244426Y1561563D1*
X4251241Y1558563D1*
X4258502Y1555563D1*
X4266252Y1552563D1*
X4274633Y1549563D1*
X4283770Y1546563D1*
X4293853Y1543563D1*
X4305011Y1540563D1*
X4317531Y1537563D1*
X4332110Y1534563D1*
X4349608Y1531563D1*
X4370681Y1528563D1*
X4395012Y1525563D1*
X4420882Y1522563D1*
X4123882Y1648563D2*
X4123721Y1645563D1*
X4123331Y1642563D1*
X4121125Y1639563D1*
X4115495Y1636563D1*
X4108882Y1633563D1*
X4126882Y1648563D2*
X4129882Y1645563D1*
X4132882Y1642563D1*
X4450882Y1540563D2*
Y1537563D1*
X4513882Y1540563D2*
Y1537563D1*
X4776168Y3068122D2*
D147*
Y2967642D1*
X4809661Y3068122D2*
X4742674D1*
X4711796Y3005889D2*
X4654426D1*
Y3015505D1*
X4659179Y3025122D1*
X4663932Y3029875D1*
X4673549Y3034629D1*
X4687919D1*
X4697426Y3029875D1*
X4707043Y3020259D1*
X4711796Y3005889D1*
Y2996382D1*
X4707043Y2982012D1*
X4697426Y2972506D1*
X4687919Y2967642D1*
X4673549D1*
X4663932Y2972506D1*
X4654426Y2982012D1*
X4623547Y3068122D2*
Y2967642D1*
X4592669Y3005889D2*
X4535299D1*
Y3015505D1*
X4540052Y3025122D1*
X4544806Y3029875D1*
X4554422Y3034629D1*
X4568792D1*
X4578299Y3029875D1*
X4587916Y3020259D1*
X4592669Y3005889D1*
Y2996382D1*
X4587916Y2982012D1*
X4578299Y2972506D1*
X4568792Y2967642D1*
X4554422D1*
X4544806Y2972506D1*
X4535299Y2982012D1*
X4504421Y3034629D2*
Y2967642D1*
Y3015505D2*
X4490051Y3029875D1*
X4480434Y3034629D1*
X4466174D1*
X4456557Y3029875D1*
X4451804Y3015505D1*
Y2967642D1*
Y3015505D2*
X4437434Y3029875D1*
X4427817Y3034629D1*
X4413558D1*
X4403941Y3029875D1*
X4399077Y3015505D1*
Y2967642D1*
X4368198Y3005889D2*
X4310829D1*
Y3015505D1*
X4315582Y3025122D1*
X4320335Y3029875D1*
X4329952Y3034629D1*
X4344322D1*
X4353828Y3029875D1*
X4363445Y3020259D1*
X4368198Y3005889D1*
Y2996382D1*
X4363445Y2982012D1*
X4353828Y2972506D1*
X4344322Y2967642D1*
X4329952D1*
X4320335Y2972506D1*
X4310829Y2982012D1*
X4265580Y3068122D2*
Y2986765D1*
X4260827Y2972506D1*
X4251210Y2967642D1*
X4241704D1*
X4279950Y3034629D2*
X4246457D1*
X4210825D2*
Y2967642D1*
Y3005889D2*
X4205961Y3020259D1*
X4196455Y3029875D1*
X4186838Y3034629D1*
X4172468D1*
X4136726D2*
X4108096Y2967642D1*
X4117603Y2948519D1*
X4127220Y2938902D1*
X4136726Y2934149D1*
X4141590D1*
X4079356Y3034629D2*
X4108096Y2967642D1*
X4535559Y2696755D2*
X4492449D1*
X4478190Y2701508D1*
X4473326Y2706372D1*
X4468573Y2715878D1*
Y2730248D1*
X4473326Y2739754D1*
X4478190Y2744618D1*
X4492449Y2749371D1*
X4535559D1*
Y2648891D1*
X4413818Y2715878D2*
X4423324Y2711125D1*
X4432941Y2701508D1*
X4437694Y2687138D1*
Y2677631D1*
X4432941Y2663261D1*
X4423324Y2653755D1*
X4413818Y2648891D1*
X4399448D1*
X4389831Y2653755D1*
X4380325Y2663261D1*
X4375461Y2677631D1*
Y2687138D1*
X4380325Y2701508D1*
X4389831Y2711125D1*
X4399448Y2715878D1*
X4413818D1*
X4344582D2*
X4325459Y2648891D1*
X4306336Y2715878D1*
X4287213Y2648891D1*
X4268089Y2715878D1*
X4237211Y2687138D2*
X4179841D1*
Y2696755D1*
X4184594Y2706372D1*
X4189347Y2711125D1*
X4198964Y2715878D1*
X4213334D1*
X4222841Y2711125D1*
X4232458Y2701508D1*
X4237211Y2687138D1*
Y2677631D1*
X4232458Y2663261D1*
X4222841Y2653755D1*
X4213334Y2648891D1*
X4198964D1*
X4189347Y2653755D1*
X4179841Y2663261D1*
X4148963Y2715878D2*
Y2648891D1*
Y2687138D2*
X4144099Y2701508D1*
X4134592Y2711125D1*
X4124976Y2715878D1*
X4110605D1*
X4549564Y2425495D2*
X4554317Y2435001D1*
X4563934Y2444618D1*
X4573440Y2449371D1*
X4592563D1*
X4602180Y2444618D1*
X4611687Y2435001D1*
X4616550Y2425495D1*
X4621303Y2411125D1*
Y2387138D1*
X4616550Y2372878D1*
X4611687Y2363261D1*
X4602180Y2353755D1*
X4592563Y2348891D1*
X4573440D1*
X4563934Y2353755D1*
X4554317Y2363261D1*
X4549564Y2372878D1*
X4494809Y2415878D2*
X4504315Y2411125D1*
X4513932Y2401508D1*
X4518685Y2387138D1*
Y2377631D1*
X4513932Y2363261D1*
X4504315Y2353755D1*
X4494809Y2348891D1*
X4480439D1*
X4470822Y2353755D1*
X4461315Y2363261D1*
X4456452Y2377631D1*
Y2387138D1*
X4461315Y2401508D1*
X4470822Y2411125D1*
X4480439Y2415878D1*
X4494809D1*
X4425573D2*
Y2348891D1*
Y2396755D2*
X4411203Y2411125D1*
X4401586Y2415878D1*
X4387327D1*
X4377710Y2411125D1*
X4372956Y2396755D1*
Y2348891D1*
X4327708Y2449371D2*
Y2368015D1*
X4322955Y2353755D1*
X4313338Y2348891D1*
X4303831D1*
X4342078Y2415878D2*
X4308585D1*
X4272953D2*
Y2348891D1*
Y2387138D2*
X4268089Y2401508D1*
X4258583Y2411125D1*
X4248966Y2415878D1*
X4234596D1*
X4179841D2*
X4189347Y2411125D1*
X4198964Y2401508D1*
X4203717Y2387138D1*
Y2377631D1*
X4198964Y2363261D1*
X4189347Y2353755D1*
X4179841Y2348891D1*
X4165471D1*
X4155854Y2353755D1*
X4146348Y2363261D1*
X4141484Y2377631D1*
Y2387138D1*
X4146348Y2401508D1*
X4155854Y2411125D1*
X4165471Y2415878D1*
X4179841D1*
X4110605Y2449371D2*
Y2348891D1*
X4222841Y2115878D2*
X4194101Y2048891D1*
X4165471Y2115878D1*
X4134592Y2130138D2*
X4124976Y2135001D1*
X4110605Y2149261D1*
Y2048891D1*
M02*
