%TF.GenerationSoftware,Novarm,DipTrace,3.3.1.1*%
%TF.CreationDate,2019-02-09T17:58:58-08:00*%
%FSLAX26Y26*%
%MOIN*%
%TF.FileFunction,Plated,1,2,PTH,Drill*%
%TF.Part,Single*%
%TA.AperFunction,ComponentDrill*%
%ADD20C,0.03937*%
%ADD62C,0.059055*%
%TA.AperFunction,ViaDrill*%
%ADD64C,0.01378*%
%TA.AperFunction,ComponentDrill*%
%ADD67C,0.064173*%
%ADD68C,0.055118*%
%ADD69C,0.066929*%
%ADD70C,0.035433*%
%ADD71C,0.035*%
%ADD72C,0.043307*%
%ADD73C,0.042992*%
G75*
G01*
D67*
X1566501Y3137749D3*
X1769257D3*
Y3340505D3*
X1566501D3*
D68*
X1667879Y3239127D3*
D69*
X2178999Y1850249D3*
Y1108517D3*
D70*
X578992Y1575106D3*
Y1675106D3*
Y1775106D3*
D71*
X3416194Y3343671D3*
Y2556269D3*
X3897661Y2471829D2*
D62*
Y2629310D1*
Y2160806D2*
Y2318286D1*
X3897749Y1121723D2*
Y1279203D1*
Y810699D2*
Y968180D1*
Y3146509D2*
Y3303990D1*
Y2835486D2*
Y2992966D1*
Y1796652D2*
Y1954133D1*
Y1485629D2*
Y1643109D1*
D70*
X1341500Y643999D3*
X1441500D3*
D72*
X744000Y500249D3*
X844000D3*
X944000D3*
X1044000D3*
X1144000D3*
X1244000D3*
D20*
X1597751Y762749D3*
Y939915D3*
X1341845D3*
Y762749D3*
D73*
X2897749Y581499D3*
X2997749D3*
X3097749D3*
X3197749D3*
X3297749D3*
X3397749D3*
X3497749D3*
X3597749D3*
X3697749D3*
D64*
X2122751Y2300249D3*
X3470235Y3180220D3*
X3360251Y1575251D3*
X1647749Y1562751D3*
X1622749Y1443999D3*
X1191499Y2068999D3*
X1550249Y1806500D3*
X966652Y1777646D3*
X935251Y1294000D3*
X1050249Y819000D3*
X1103999Y1493999D3*
X1166499Y1450249D3*
X1054000Y1394000D3*
X616488Y1225142D3*
X1791499Y1218999D3*
X1560251Y1275251D3*
X1322664Y1556358D3*
X741476Y2237535D3*
X1097749Y1637751D3*
X1469000Y2119000D3*
X1331501Y1087749D3*
X793730Y1368167D3*
X1341412Y2881218D3*
X2685249Y662751D3*
X960203Y1093906D3*
X1213681Y3380711D3*
X3281500Y819000D3*
X3260249Y1656500D3*
X3472751Y1075249D3*
X878962Y2056304D3*
X1241499Y1637751D3*
X722728Y2350024D3*
X1428999Y1694000D3*
X1047693Y3068699D3*
X1785251Y1837751D3*
X2053837Y3274927D3*
X1619000Y1756500D3*
X1691500Y1669000D3*
X1485126Y525226D3*
X685232Y3074949D3*
X535247Y2631244D3*
X847751Y3581500D3*
X2485251Y3106499D3*
X2135251Y2743999D3*
X1654000Y3525251D3*
X3010249Y3175251D3*
X2597749Y3312749D3*
X2997749Y3550249D3*
X2641276Y2287532D3*
X4010251Y3600249D3*
X4310605Y3475570D3*
X4510249Y3600249D3*
D70*
X1962749Y1862749D3*
X700249Y1019000D3*
X731500Y956500D3*
X1000249Y2450249D3*
X1175249Y2312749D3*
X1150249Y2425249D3*
X1262749Y2419000D3*
X1337749Y2431500D3*
X3356500Y819000D3*
M02*
