%TF.GenerationSoftware,Novarm,DipTrace,3.3.1.1*%
%TF.CreationDate,2019-02-09T17:58:56-08:00*%
%FSLAX26Y26*%
%MOIN*%
%TF.FileFunction,Drawing,Top*%
%TF.Part,Single*%
%ADD13C,0.001378*%
%ADD149C,0.006176*%
G75*
G01*
%LPD*%
X456501Y3694001D2*
D13*
X80564D1*
X456500Y394000D2*
X80564D1*
X100249Y2044001D2*
Y3654631D1*
G36*
Y3694001D2*
X108123Y3654631D1*
X92375D1*
X100249Y3694001D1*
G37*
Y2044001D2*
D13*
Y433370D1*
G36*
Y394000D2*
X92375Y433370D1*
X108123D1*
X100249Y394000D1*
G37*
X394000Y456500D2*
D13*
Y105564D1*
X5029000Y456500D2*
Y105564D1*
X2711500Y125249D2*
X433370D1*
G36*
X394000D2*
X433370Y133123D1*
Y117375D1*
X394000Y125249D1*
G37*
X2711500D2*
D13*
X4989630D1*
G36*
X5029000D2*
X4989630Y117375D1*
Y133123D1*
X5029000Y125249D1*
G37*
X549000Y3539000D2*
D13*
Y3801185D1*
X4874000Y3539000D2*
Y3801185D1*
X2711500Y3781500D2*
X588370D1*
G36*
X549000D2*
X588370Y3789374D1*
Y3773626D1*
X549000Y3781500D1*
G37*
X2711500D2*
D13*
X4834630D1*
G36*
X4874000D2*
X4834630Y3773626D1*
Y3789374D1*
X4874000Y3781500D1*
G37*
Y3539000D2*
D13*
X5163685D1*
X4874000Y549000D2*
X5163685D1*
X5144000Y2044000D2*
Y3499630D1*
G36*
Y3539000D2*
X5151874Y3499630D1*
X5136126D1*
X5144000Y3539000D1*
G37*
Y2044000D2*
D13*
Y588370D1*
G36*
Y549000D2*
X5136126Y588370D1*
X5151874D1*
X5144000Y549000D1*
G37*
X486500D2*
D13*
Y280564D1*
X611500Y549000D2*
Y280564D1*
X549000Y300249D2*
X525870D1*
G36*
X486500D2*
X525870Y308123D1*
Y292375D1*
X486500Y300249D1*
G37*
X549000D2*
D13*
X572130D1*
G36*
X611500D2*
X572130Y292375D1*
Y308123D1*
X611500Y300249D1*
G37*
X860676D2*
D13*
X611500D1*
X549000Y486500D2*
X218064D1*
X549000Y611500D2*
X218064D1*
X237749Y549000D2*
Y525870D1*
G36*
Y486500D2*
X229875Y525870D1*
X245623D1*
X237749Y486500D1*
G37*
Y549000D2*
D13*
Y572130D1*
G36*
Y611500D2*
X245623Y572130D1*
X229875D1*
X237749Y611500D1*
G37*
Y860676D2*
D13*
Y611500D1*
X47891Y1917859D2*
D149*
Y1938862D1*
X63189Y1927410D1*
Y1933158D1*
X65091Y1936960D1*
X66992Y1938862D1*
X72740Y1940807D1*
X76543D1*
X82291Y1938862D1*
X86137Y1935059D1*
X88039Y1929311D1*
Y1923563D1*
X86137Y1917859D1*
X84192Y1915958D1*
X80389Y1914012D1*
X47891Y1957005D2*
Y1978008D1*
X63189Y1966556D1*
Y1972304D1*
X65091Y1976106D1*
X66992Y1978008D1*
X72740Y1979953D1*
X76543D1*
X82291Y1978008D1*
X86137Y1974205D1*
X88039Y1968457D1*
Y1962709D1*
X86137Y1957005D1*
X84192Y1955104D1*
X80389Y1953159D1*
X47891Y2003801D2*
X49792Y1998053D1*
X55540Y1994206D1*
X65091Y1992305D1*
X70839D1*
X80389Y1994206D1*
X86137Y1998053D1*
X88039Y2003801D1*
Y2007603D1*
X86137Y2013351D1*
X80389Y2017154D1*
X70839Y2019099D1*
X65091D1*
X55540Y2017154D1*
X49792Y2013351D1*
X47891Y2007603D1*
Y2003801D1*
X55540Y2017154D2*
X80389Y1994206D1*
X47891Y2042947D2*
X49792Y2037199D1*
X55540Y2033352D1*
X65091Y2031451D1*
X70839D1*
X80389Y2033352D1*
X86137Y2037199D1*
X88039Y2042947D1*
Y2046749D1*
X86137Y2052497D1*
X80389Y2056300D1*
X70839Y2058245D1*
X65091D1*
X55540Y2056300D1*
X49792Y2052497D1*
X47891Y2046749D1*
Y2042947D1*
X55540Y2056300D2*
X80389Y2033352D1*
X61244Y2109478D2*
X88039D1*
X68893D2*
X63145Y2115226D1*
X61244Y2119072D1*
Y2124776D1*
X63145Y2128623D1*
X68893Y2130524D1*
X88039D1*
X68893D2*
X63145Y2136272D1*
X61244Y2140119D1*
Y2145823D1*
X63145Y2149670D1*
X68893Y2151615D1*
X88039D1*
X47847Y2163966D2*
X49748Y2165868D1*
X47847Y2167813D1*
X45901Y2165868D1*
X47847Y2163966D1*
X61244Y2165868D2*
X88039D1*
X47847Y2180165D2*
X88039D1*
X2600679Y137460D2*
Y177608D1*
X2581534Y150857D1*
X2610230D1*
X2645529Y171904D2*
X2643628Y175707D1*
X2637880Y177608D1*
X2634077D1*
X2628329Y175707D1*
X2624483Y169959D1*
X2622581Y160408D1*
Y150857D1*
X2624483Y143208D1*
X2628329Y139361D1*
X2634077Y137460D1*
X2635979D1*
X2641682Y139361D1*
X2645529Y143208D1*
X2647430Y148956D1*
Y150857D1*
X2645529Y156605D1*
X2641682Y160408D1*
X2635979Y162309D1*
X2634077D1*
X2628329Y160408D1*
X2624483Y156605D1*
X2622581Y150857D1*
X2663629Y177608D2*
X2684631D1*
X2673179Y162309D1*
X2678927D1*
X2682730Y160408D1*
X2684631Y158507D1*
X2686577Y152759D1*
Y148956D1*
X2684631Y143208D1*
X2680828Y139361D1*
X2675080Y137460D1*
X2669332D1*
X2663629Y139361D1*
X2661727Y141307D1*
X2659782Y145109D1*
X2721876Y177608D2*
X2702775D1*
X2700873Y160408D1*
X2702775Y162309D1*
X2708523Y164255D1*
X2714227D1*
X2719975Y162309D1*
X2723821Y158507D1*
X2725723Y152759D1*
Y148956D1*
X2723821Y143208D1*
X2719975Y139361D1*
X2714227Y137460D1*
X2708523D1*
X2702775Y139361D1*
X2700873Y141307D1*
X2698928Y145109D1*
X2776955Y164255D2*
Y137460D1*
Y156605D2*
X2782703Y162354D1*
X2786550Y164255D1*
X2792253D1*
X2796100Y162354D1*
X2798001Y156605D1*
Y137460D1*
Y156605D2*
X2803749Y162354D1*
X2807596Y164255D1*
X2813300D1*
X2817147Y162354D1*
X2819092Y156605D1*
Y137460D1*
X2831444Y177652D2*
X2833345Y175751D1*
X2835290Y177652D1*
X2833345Y179598D1*
X2831444Y177652D1*
X2833345Y164255D2*
Y137460D1*
X2847642Y177652D2*
Y137460D1*
X2599707Y3793711D2*
Y3833859D1*
X2580561Y3807108D1*
X2609257D1*
X2625455Y3833859D2*
X2646458D1*
X2635006Y3818560D1*
X2640754D1*
X2644556Y3816659D1*
X2646458Y3814757D1*
X2648403Y3809009D1*
Y3805207D1*
X2646458Y3799459D1*
X2642655Y3795612D1*
X2636907Y3793711D1*
X2631159D1*
X2625455Y3795612D1*
X2623554Y3797558D1*
X2621609Y3801360D1*
X2662700Y3824308D2*
Y3826209D1*
X2664601Y3830056D1*
X2666503Y3831957D1*
X2670349Y3833859D1*
X2677999D1*
X2681801Y3831957D1*
X2683702Y3830056D1*
X2685648Y3826209D1*
Y3822407D1*
X2683702Y3818560D1*
X2679900Y3812856D1*
X2660755Y3793711D1*
X2687549D1*
X2722849Y3833859D2*
X2703747D1*
X2701846Y3816659D1*
X2703747Y3818560D1*
X2709495Y3820505D1*
X2715199D1*
X2720947Y3818560D1*
X2724794Y3814757D1*
X2726695Y3809009D1*
Y3805207D1*
X2724794Y3799459D1*
X2720947Y3795612D1*
X2715199Y3793711D1*
X2709495D1*
X2703747Y3795612D1*
X2701846Y3797558D1*
X2699901Y3801360D1*
X2777927Y3820505D2*
Y3793711D1*
Y3812856D2*
X2783676Y3818604D1*
X2787522Y3820505D1*
X2793226D1*
X2797073Y3818604D1*
X2798974Y3812856D1*
Y3793711D1*
Y3812856D2*
X2804722Y3818604D1*
X2808569Y3820505D1*
X2814273D1*
X2818119Y3818604D1*
X2820065Y3812856D1*
Y3793711D1*
X2832416Y3833903D2*
X2834318Y3832001D1*
X2836263Y3833903D1*
X2834318Y3835848D1*
X2832416Y3833903D1*
X2834318Y3820505D2*
Y3793711D1*
X2848615Y3833903D2*
Y3793711D1*
X5186808Y2170141D2*
X5188709D1*
X5192556Y2168240D1*
X5194457Y2166339D1*
X5196359Y2162492D1*
Y2154843D1*
X5194457Y2151040D1*
X5192556Y2149139D1*
X5188709Y2147194D1*
X5184907D1*
X5181060Y2149139D1*
X5175356Y2152942D1*
X5156211Y2172087D1*
Y2145292D1*
X5183005Y2108047D2*
X5177257Y2109993D1*
X5173411Y2113795D1*
X5171509Y2119544D1*
Y2121445D1*
X5173411Y2127193D1*
X5177257Y2130995D1*
X5183005Y2132941D1*
X5184907D1*
X5190655Y2130995D1*
X5194457Y2127193D1*
X5196359Y2121445D1*
Y2119544D1*
X5194457Y2113795D1*
X5190655Y2109993D1*
X5183005Y2108047D1*
X5173411D1*
X5163860Y2109993D1*
X5158112Y2113795D1*
X5156211Y2119544D1*
Y2123346D1*
X5158112Y2129094D1*
X5161959Y2130995D1*
X5183005Y2070803D2*
X5177257Y2072748D1*
X5173411Y2076551D1*
X5171509Y2082299D1*
Y2084200D1*
X5173411Y2089948D1*
X5177257Y2093751D1*
X5183005Y2095696D1*
X5184907D1*
X5190655Y2093751D1*
X5194457Y2089948D1*
X5196359Y2084200D1*
Y2082299D1*
X5194457Y2076551D1*
X5190655Y2072748D1*
X5183005Y2070803D1*
X5173411D1*
X5163860Y2072748D1*
X5158112Y2076551D1*
X5156211Y2082299D1*
Y2086101D1*
X5158112Y2091849D1*
X5161959Y2093751D1*
X5196359Y2046955D2*
X5194457Y2052703D1*
X5188709Y2056550D1*
X5179159Y2058451D1*
X5173411D1*
X5163860Y2056550D1*
X5158112Y2052703D1*
X5156211Y2046955D1*
Y2043153D1*
X5158112Y2037405D1*
X5163860Y2033602D1*
X5173411Y2031657D1*
X5179159D1*
X5188709Y2033602D1*
X5194457Y2037405D1*
X5196359Y2043153D1*
Y2046955D1*
X5188709Y2033602D2*
X5163860Y2056550D1*
X5183005Y1980424D2*
X5156211D1*
X5175356D2*
X5181104Y1974676D1*
X5183005Y1970830D1*
Y1965126D1*
X5181104Y1961279D1*
X5175356Y1959378D1*
X5156211D1*
X5175356D2*
X5181104Y1953630D1*
X5183005Y1949783D1*
Y1944079D1*
X5181104Y1940232D1*
X5175356Y1938287D1*
X5156211D1*
X5196403Y1925936D2*
X5194501Y1924034D1*
X5196403Y1922089D1*
X5198348Y1924034D1*
X5196403Y1925936D1*
X5183005Y1924034D2*
X5156211D1*
X5196403Y1909737D2*
X5156211D1*
X660134Y344959D2*
X663980Y346904D1*
X669728Y352608D1*
Y312460D1*
X684025Y343057D2*
Y344959D1*
X685927Y348805D1*
X687828Y350707D1*
X691675Y352608D1*
X699324D1*
X703126Y350707D1*
X705028Y348805D1*
X706973Y344959D1*
Y341156D1*
X705028Y337309D1*
X701225Y331605D1*
X682080Y312460D1*
X708874D1*
X744174Y352608D2*
X725073D1*
X723171Y335408D1*
X725073Y337309D1*
X730821Y339255D1*
X736524D1*
X742273Y337309D1*
X746119Y333507D1*
X748021Y327759D1*
Y323956D1*
X746119Y318208D1*
X742273Y314361D1*
X736524Y312460D1*
X730821D1*
X725073Y314361D1*
X723171Y316307D1*
X721226Y320109D1*
X799253Y339255D2*
Y312460D1*
Y331605D2*
X805001Y337354D1*
X808848Y339255D1*
X814551D1*
X818398Y337354D1*
X820299Y331605D1*
Y312460D1*
Y331605D2*
X826047Y337354D1*
X829894Y339255D1*
X835598D1*
X839445Y337354D1*
X841390Y331605D1*
Y312460D1*
X853742Y352652D2*
X855643Y350751D1*
X857588Y352652D1*
X855643Y354598D1*
X853742Y352652D1*
X855643Y339255D2*
Y312460D1*
X869940Y352652D2*
Y312460D1*
X193040Y660134D2*
X191095Y663980D1*
X185391Y669728D1*
X225539D1*
X194941Y684025D2*
X193040D1*
X189193Y685927D1*
X187292Y687828D1*
X185391Y691675D1*
Y699324D1*
X187292Y703126D1*
X189193Y705028D1*
X193040Y706973D1*
X196843D1*
X200689Y705028D1*
X206393Y701225D1*
X225539Y682080D1*
Y708874D1*
X185391Y744174D2*
Y725073D1*
X202591Y723171D1*
X200689Y725073D1*
X198744Y730821D1*
Y736524D1*
X200689Y742273D1*
X204492Y746119D1*
X210240Y748021D1*
X214043D1*
X219791Y746119D1*
X223637Y742273D1*
X225539Y736524D1*
Y730821D1*
X223637Y725073D1*
X221692Y723171D1*
X217889Y721226D1*
X198744Y799253D2*
X225539D1*
X206393D2*
X200645Y805001D1*
X198744Y808848D1*
Y814551D1*
X200645Y818398D1*
X206393Y820299D1*
X225539D1*
X206393D2*
X200645Y826047D1*
X198744Y829894D1*
Y835598D1*
X200645Y839445D1*
X206393Y841390D1*
X225539D1*
X185347Y853742D2*
X187248Y855643D1*
X185347Y857588D1*
X183401Y855643D1*
X185347Y853742D1*
X198744Y855643D2*
X225539D1*
X185347Y869940D2*
X225539D1*
M02*
