%TF.GenerationSoftware,Novarm,DipTrace,3.3.1.1*%
%TF.CreationDate,2019-02-09T17:58:49-08:00*%
%FSLAX26Y26*%
%MOIN*%
%TF.FileFunction,Paste,Top*%
%TF.Part,Single*%
%ADD36C,0.059055*%
%ADD81R,0.03149X0.125978*%
%ADD83R,0.41338X0.330703*%
%ADD85R,0.080703X0.047238*%
%ADD87R,0.043301X0.025585*%
%ADD89R,0.078734X0.015742*%
%ADD91R,0.043695X0.009837*%
%ADD93R,0.096451X0.1496*%
%ADD95R,0.044089X0.014561*%
%ADD97R,0.047238X0.080703*%
%ADD99R,0.025585X0.043301*%
%ADD101R,0.03149X0.1496*%
%ADD103R,0.003931X0.049207*%
%ADD105R,0.049207X0.003931*%
%ADD107R,0.22834X0.07086*%
%ADD109R,0.07086X0.22834*%
%ADD111R,0.029522X0.03149*%
%ADD125R,0.023616X0.027553*%
%ADD131R,0.047238X0.074797*%
%ADD133R,0.114167X0.035427*%
%ADD135R,0.157474X0.066923*%
%ADD137R,0.035427X0.03149*%
%ADD139R,0.03149X0.035427*%
G75*
G01*
%LPD*%
D139*
X1119932Y3374462D3*
Y3441391D3*
X1047749Y3375249D3*
Y3442178D3*
D137*
X1394181Y1179161D3*
X1327252D3*
D139*
X1481500Y1319000D3*
Y1252071D3*
D137*
X1309974Y1876715D3*
X1376903D3*
X1587749Y1581500D3*
X1520820D3*
X1587749Y1631500D3*
X1520820D3*
X1310251Y1825251D3*
X1377180D3*
X979092Y1841883D3*
X1046021D3*
D139*
X856500Y1300249D3*
Y1367178D3*
X1000249Y787749D3*
Y720820D3*
X1670497Y934261D3*
Y867332D3*
X1106500Y1844000D3*
Y1910929D3*
D135*
X1792521Y2546451D3*
X2068112D3*
D133*
X2628777Y1456369D3*
X2392556D3*
D139*
X3672751Y800249D3*
Y733320D3*
X3747751Y1381499D3*
Y1314570D3*
D135*
X2472545Y850181D3*
X2196954D3*
D137*
X3547749Y1137749D3*
X3480820D3*
D139*
X3441130Y1407441D3*
Y1474370D3*
X897710Y1900071D3*
Y1833142D3*
D131*
X3232478Y2448799D3*
X3405706D3*
D125*
X3310249Y1425249D3*
X3347651Y1503990D3*
X3272848D3*
D137*
X2072587Y3212434D3*
X2005657D3*
D125*
X3353631Y1219942D3*
X3316230Y1141202D3*
X3391033D3*
D111*
X1760249Y1731500D3*
X1697257D3*
D109*
X2457017Y1766782D3*
X2622371D3*
D107*
X2647749Y1225251D3*
Y1059896D3*
D139*
X3377341Y3249739D3*
Y3182810D3*
D137*
X2035089Y3412413D3*
X1968160D3*
X3197751Y2825251D3*
X3264680D3*
D139*
X3635249Y2637751D3*
Y2704680D3*
X3541182Y3224933D3*
Y3291862D3*
X1916348Y3249913D3*
Y3316843D3*
X694000Y831500D3*
Y898429D3*
X1262749Y1181500D3*
Y1114571D3*
X3499965Y733715D3*
Y666786D3*
X710228Y2000062D3*
Y2066991D3*
X3372751Y1706499D3*
Y1639570D3*
X1169000Y1912749D3*
Y1845820D3*
D137*
X3316499Y1800249D3*
X3249570D3*
X2547751Y662751D3*
X2614680D3*
D139*
X1572751Y525251D3*
Y458322D3*
X710249Y1779678D3*
Y1712749D3*
X3291499Y893999D3*
Y960928D3*
D105*
X1405638Y1348362D3*
Y1368047D3*
Y1387732D3*
Y1407417D3*
Y1427102D3*
Y1446787D3*
Y1466472D3*
Y1486157D3*
Y1505843D3*
Y1525528D3*
Y1545213D3*
Y1564898D3*
Y1584583D3*
Y1604268D3*
Y1623953D3*
Y1643638D3*
D103*
X1326898Y1722378D3*
X1307213D3*
X1287528D3*
X1267843D3*
X1248157D3*
X1228472D3*
X1208787D3*
X1189102D3*
X1169417D3*
X1149732D3*
X1130047D3*
X1110362D3*
X1090677D3*
X1070992D3*
X1051307D3*
X1031622D3*
D105*
X952882Y1643638D3*
Y1623953D3*
Y1604268D3*
Y1584583D3*
Y1564898D3*
Y1545213D3*
Y1525528D3*
Y1505843D3*
Y1486157D3*
Y1466472D3*
Y1446787D3*
Y1427102D3*
Y1407417D3*
Y1387732D3*
Y1368047D3*
Y1348362D3*
D103*
X1031622Y1269622D3*
X1051307D3*
X1070992D3*
X1090677D3*
X1110362D3*
X1130047D3*
X1149732D3*
X1169417D3*
X1189102D3*
X1208787D3*
X1228472D3*
X1248157D3*
X1267843D3*
X1287528D3*
X1307213D3*
X1326898D3*
D101*
X885251Y2594000D3*
X963991D3*
X1042731D3*
X1121471D3*
X1200211D3*
X1278951D3*
X1357692D3*
X1436432D3*
Y3223921D3*
X1357692D3*
X1278951D3*
X1200211D3*
X1121471D3*
X1042731D3*
X963991D3*
X885251D3*
D99*
X2035089Y3474907D3*
X2084302D3*
D97*
X2161073Y3561324D3*
X1958318D3*
D95*
X2535251Y525251D3*
Y562652D3*
Y600054D3*
X2436825D3*
Y525251D3*
D99*
X3628672Y3443660D3*
X3677885D3*
D97*
X3754656Y3530077D3*
X3551900D3*
D93*
X3560249Y925251D3*
D91*
X3448045Y1002022D3*
Y976432D3*
Y950841D3*
Y925251D3*
Y899660D3*
Y874070D3*
Y848479D3*
X3672454Y1002022D3*
Y976432D3*
Y950841D3*
Y925251D3*
Y899660D3*
Y874070D3*
Y848479D3*
D89*
X1019000Y856500D3*
Y906500D3*
Y956500D3*
Y1006500D3*
X814276Y856500D3*
Y906500D3*
Y956500D3*
Y1006500D3*
D87*
X635238Y856430D3*
Y905643D3*
Y954856D3*
Y1004068D3*
Y1053281D3*
D85*
X548820Y1130053D3*
Y779659D3*
D83*
X2416651Y2507449D3*
D81*
X2282793Y2090126D3*
X2349722D3*
X2416651D3*
X2483580D3*
X2550509D3*
D93*
X3634836Y1544948D3*
D91*
X3522631Y1621719D3*
Y1596129D3*
Y1570538D3*
Y1544948D3*
Y1519357D3*
Y1493766D3*
Y1468176D3*
X3747041Y1621719D3*
Y1596129D3*
Y1570538D3*
Y1544948D3*
Y1519357D3*
Y1493766D3*
Y1468176D3*
D95*
X1685249Y587749D3*
Y550348D3*
Y512946D3*
X1783675D3*
Y587749D3*
D89*
X991449Y2006310D3*
Y2056310D3*
Y2106310D3*
Y2156310D3*
X786724Y2006310D3*
Y2056310D3*
Y2106310D3*
Y2156310D3*
D87*
X647736Y2012559D3*
Y2061772D3*
Y2110984D3*
Y2160197D3*
Y2209409D3*
D85*
X561319Y2286181D3*
Y1935787D3*
D36*
X3454000Y1725249D3*
X3297749Y1037749D3*
M02*
