%TF.GenerationSoftware,Novarm,DipTrace,3.3.1.1*%
%TF.CreationDate,2019-02-09T17:58:48-08:00*%
%FSLAX26Y26*%
%MOIN*%
%TF.FileFunction,Legend,Top*%
%TF.Part,Single*%
%ADD10C,0.009843*%
%ADD30C,0.023625*%
%ADD46C,0.007874*%
%ADD52C,0.015389*%
%ADD144C,0.00772*%
%ADD145C,0.003088*%
%ADD146C,0.009264*%
%ADD148C,0.012351*%
G75*
G01*
%LPD*%
X1632455Y3365050D2*
D10*
X1703303D1*
X1793802Y3274552D2*
Y3203703D1*
X1703303Y3113205D2*
X1632455D1*
X1541957Y3203703D2*
Y3274552D1*
X1694077Y2546451D2*
G02X1694077Y2546451I236229J0D01*
G01*
X2677995Y1623692D2*
X2343367D1*
Y1289046D1*
X2677995D1*
Y1623692D1*
X2098530Y850181D2*
G02X2098530Y850181I236229J0D01*
G01*
D30*
X3175382Y2448799D3*
X3271852Y2499980D2*
D10*
X3366327D1*
X3271852Y2397618D2*
X3366327D1*
X2068762Y1668435D2*
Y1290331D1*
X2289235Y1668435D2*
Y1290331D1*
X2068762Y1668435D2*
X2289235D1*
X2068762Y1318191D2*
Y1286924D1*
X2289235D1*
Y1318191D1*
Y1629244D2*
X2068762D1*
X3370092Y1437058D2*
X3250407D1*
Y1492181D1*
X3370092D1*
Y1437058D1*
X2106051Y3228182D2*
Y3196686D1*
X3293789Y1208134D2*
X3413474D1*
Y1153011D1*
X3293789D1*
Y1208134D1*
X628992Y1525106D2*
X528992D1*
Y1825106D1*
X628992D2*
X528992D1*
X628992Y1525106D2*
Y1825106D1*
X3471312Y3089942D2*
X3361076D1*
Y2809997D1*
X3471312D1*
Y3089942D1*
X4964591Y2064349D2*
X3828606D1*
Y2726058D1*
X4964591D1*
Y2064349D1*
Y2395071D2*
X3838603D1*
X3996164Y2725793D2*
Y2064349D1*
X4964678Y714243D2*
X3828694D1*
Y1375951D1*
X4964678D1*
Y714243D1*
Y1044965D2*
X3838691D1*
X3996252Y1375687D2*
Y714243D1*
X4964678Y2739029D2*
X3828694D1*
Y3400738D1*
X4964678D1*
Y2739029D1*
Y3069751D2*
X3838691D1*
X3996252Y3400473D2*
Y2739029D1*
X4964678Y1389172D2*
X3828694D1*
Y2050881D1*
X4964678D1*
Y1389172D1*
Y1719894D2*
X3838691D1*
X3996252Y2050616D2*
Y1389172D1*
X1491500Y593999D2*
Y693999D1*
X1291500Y593999D2*
X1491500D1*
X1291500D2*
Y693999D1*
X1491500D1*
X694028Y550251D2*
X1293972D1*
Y450250D1*
X694028D1*
Y550251D1*
X2415678Y1890798D2*
X2663710D1*
Y1642766D1*
X2415678D1*
Y1890798D1*
X2771765Y1266589D2*
X2523734D1*
Y1018558D1*
X2771765D1*
Y1266589D1*
X1398936Y851332D2*
G02X1398936Y851332I70862J0D01*
G01*
X1560353Y969449D2*
X1379243D1*
X1351673Y890729D2*
Y811960D1*
X1379243Y733215D2*
X1544599D1*
X1587923Y811960D2*
Y890729D1*
X1410751Y851344D2*
G02X1410751Y851344I59046J0D01*
G01*
X1363324Y1311936D2*
D46*
X995196D1*
Y1680064D1*
X1363324D1*
Y1311936D1*
X1419401Y1318820D2*
D10*
G02X1419401Y1318820I4925J0D01*
G01*
X1475802Y2594032D2*
X845881D1*
Y3223890D1*
X1475802D1*
Y2594032D1*
X845881Y2475890D2*
X1475802D1*
Y3342032D1*
X845881D1*
Y2475890D1*
X1946515Y3624513D2*
X2172876D1*
Y3470971D1*
X1946515D1*
Y3624513D1*
D52*
X2555816Y498337D3*
X2501741Y503599D2*
D10*
Y621707D1*
X2470260Y503599D2*
Y621707D1*
X2501741D2*
X2470260D1*
X2501741Y503599D2*
X2470260D1*
X3540097Y3593266D2*
X3766459D1*
Y3439724D1*
X3540097D1*
Y3593266D1*
X3638988Y1023676D2*
X3481511D1*
Y826825D1*
X3638988D1*
Y1023676D1*
X995387Y833075D2*
X837889D1*
Y1029925D1*
X995387D1*
Y833075D1*
X485631Y767834D2*
X639174D1*
Y1141878D1*
X485631D1*
Y767834D1*
X2206611Y2763551D2*
X2626691D1*
Y2317488D1*
X2206611D1*
Y2763551D1*
X2797749Y1841499D2*
X3797749D1*
Y501499D1*
X2797749D1*
Y1841499D1*
X3713574Y1643373D2*
X3556098D1*
Y1446522D1*
X3713574D1*
Y1643373D1*
D52*
X1664684Y614663D3*
X1718760Y609401D2*
D10*
Y491293D1*
X1750240Y609401D2*
Y491293D1*
X1718760D2*
X1750240D1*
X1718760Y609401D2*
X1750240D1*
X967835Y1982885D2*
X810338D1*
Y2179735D1*
X967835D1*
Y1982885D1*
X498130Y1923962D2*
X651672D1*
Y2298006D1*
X498130D1*
Y1923962D1*
X1662585Y3420899D2*
D144*
X1643406Y3471139D1*
X1624283Y3420899D1*
X1631468Y3437646D2*
X1655400D1*
X1680456Y3459146D2*
Y3461522D1*
X1682833Y3466331D1*
X1685209Y3468707D1*
X1690018Y3471084D1*
X1699579D1*
X1704332Y3468707D1*
X1706709Y3466331D1*
X1709141Y3461522D1*
Y3456769D1*
X1706709Y3451961D1*
X1701956Y3444831D1*
X1678024Y3420899D1*
X1711517D1*
X1113962Y3537147D2*
X1109209Y3534770D1*
X1104400Y3529961D1*
X1102024Y3525208D1*
Y3515647D1*
X1104400Y3510838D1*
X1109209Y3506085D1*
X1113962Y3503653D1*
X1121147Y3501277D1*
X1133140D1*
X1140270Y3503653D1*
X1145079Y3506085D1*
X1149832Y3510838D1*
X1152264Y3515647D1*
Y3525208D1*
X1149832Y3529961D1*
X1145079Y3534770D1*
X1140270Y3537146D1*
X1111641Y3552586D2*
X1109209Y3557394D1*
X1102079Y3564579D1*
X1152264D1*
X1029280Y3533433D2*
X1024526Y3531057D1*
X1019718Y3526248D1*
X1017341Y3521495D1*
Y3511934D1*
X1019718Y3507125D1*
X1024526Y3502372D1*
X1029279Y3499940D1*
X1036464Y3497563D1*
X1048458D1*
X1055588Y3499940D1*
X1060396Y3502372D1*
X1065149Y3507125D1*
X1067581Y3511933D1*
Y3521495D1*
X1065149Y3526248D1*
X1060396Y3531057D1*
X1055588Y3533433D1*
X1029335Y3551304D2*
X1026958D1*
X1022150Y3553681D1*
X1019773Y3556058D1*
X1017397Y3560866D1*
Y3570428D1*
X1019773Y3575181D1*
X1022150Y3577557D1*
X1026958Y3579989D1*
X1031711D1*
X1036520Y3577557D1*
X1043650Y3572804D1*
X1067581Y3548873D1*
Y3582366D1*
X1354185Y1135131D2*
X1351809Y1139885D1*
X1347000Y1144693D1*
X1342247Y1147070D1*
X1332685D1*
X1327877Y1144693D1*
X1323124Y1139885D1*
X1320692Y1135131D1*
X1318315Y1127946D1*
Y1115953D1*
X1320692Y1108823D1*
X1323124Y1104015D1*
X1327877Y1099261D1*
X1332685Y1096830D1*
X1342247D1*
X1347000Y1099261D1*
X1351809Y1104015D1*
X1354185Y1108823D1*
X1398309Y1147014D2*
X1374433D1*
X1372056Y1125514D1*
X1374433Y1127891D1*
X1381618Y1130323D1*
X1388748D1*
X1395933Y1127891D1*
X1400741Y1123138D1*
X1403118Y1115953D1*
Y1111200D1*
X1400741Y1104015D1*
X1395933Y1099206D1*
X1388748Y1096830D1*
X1381618D1*
X1374433Y1099206D1*
X1372056Y1101638D1*
X1369624Y1106391D1*
X1481780Y1386471D2*
X1477026Y1384094D1*
X1472218Y1379286D1*
X1469841Y1374533D1*
Y1364971D1*
X1472218Y1360163D1*
X1477026Y1355409D1*
X1481779Y1352977D1*
X1488964Y1350601D1*
X1500958D1*
X1508088Y1352977D1*
X1512896Y1355409D1*
X1517649Y1360163D1*
X1520081Y1364971D1*
Y1374533D1*
X1517649Y1379286D1*
X1512896Y1384094D1*
X1508088Y1386471D1*
X1477026Y1430595D2*
X1472273Y1428218D1*
X1469897Y1421033D1*
Y1416280D1*
X1472273Y1409095D1*
X1479458Y1404287D1*
X1491396Y1401910D1*
X1503335D1*
X1512896Y1404287D1*
X1517705Y1409095D1*
X1520081Y1416280D1*
Y1418657D1*
X1517705Y1425786D1*
X1512896Y1430595D1*
X1505711Y1432971D1*
X1503335D1*
X1496150Y1430595D1*
X1491396Y1425786D1*
X1489020Y1418657D1*
Y1416280D1*
X1491396Y1409095D1*
X1496150Y1404287D1*
X1503335Y1401910D1*
X1455656Y1901436D2*
X1453280Y1906189D1*
X1448471Y1910997D1*
X1443718Y1913374D1*
X1434156D1*
X1429348Y1910997D1*
X1424595Y1906189D1*
X1422163Y1901436D1*
X1419786Y1894251D1*
Y1882257D1*
X1422163Y1875127D1*
X1424595Y1870319D1*
X1429348Y1865566D1*
X1434156Y1863134D1*
X1443718D1*
X1448471Y1865566D1*
X1453280Y1870319D1*
X1455656Y1875127D1*
X1480657Y1863134D2*
X1504589Y1913319D1*
X1471096D1*
X1547781Y1537470D2*
X1545405Y1542223D1*
X1540596Y1547032D1*
X1535843Y1549408D1*
X1526281D1*
X1521473Y1547032D1*
X1516720Y1542223D1*
X1514288Y1537470D1*
X1511911Y1530285D1*
Y1518291D1*
X1514288Y1511162D1*
X1516720Y1506353D1*
X1521473Y1501600D1*
X1526281Y1499168D1*
X1535843D1*
X1540596Y1501600D1*
X1545405Y1506353D1*
X1547781Y1511162D1*
X1575159Y1549353D2*
X1568029Y1546976D1*
X1565597Y1542223D1*
Y1537415D1*
X1568029Y1532661D1*
X1572782Y1530230D1*
X1582344Y1527853D1*
X1589529Y1525476D1*
X1594282Y1520668D1*
X1596658Y1515915D1*
Y1508730D1*
X1594282Y1503977D1*
X1591905Y1501545D1*
X1584720Y1499168D1*
X1575159D1*
X1568029Y1501545D1*
X1565597Y1503977D1*
X1563220Y1508730D1*
Y1515915D1*
X1565597Y1520668D1*
X1570405Y1525476D1*
X1577535Y1527853D1*
X1587097Y1530230D1*
X1591905Y1532661D1*
X1594282Y1537415D1*
Y1542223D1*
X1591905Y1546976D1*
X1584720Y1549353D1*
X1575159D1*
X1548942Y1712470D2*
X1546565Y1717223D1*
X1541757Y1722032D1*
X1537004Y1724408D1*
X1527442D1*
X1522633Y1722032D1*
X1517880Y1717223D1*
X1515448Y1712470D1*
X1513072Y1705285D1*
Y1693291D1*
X1515448Y1686162D1*
X1517880Y1681353D1*
X1522633Y1676600D1*
X1527442Y1674168D1*
X1537004D1*
X1541757Y1676600D1*
X1546565Y1681353D1*
X1548942Y1686162D1*
X1595498Y1707661D2*
X1593066Y1700476D1*
X1588313Y1695668D1*
X1581128Y1693291D1*
X1578751D1*
X1571566Y1695668D1*
X1566813Y1700476D1*
X1564381Y1707661D1*
Y1710038D1*
X1566813Y1717223D1*
X1571566Y1721976D1*
X1578751Y1724353D1*
X1581128D1*
X1588313Y1721976D1*
X1593066Y1717223D1*
X1595498Y1707661D1*
Y1695668D1*
X1593066Y1683730D1*
X1588313Y1676545D1*
X1581128Y1674168D1*
X1576374D1*
X1569189Y1676545D1*
X1566813Y1681353D1*
X1448468Y1837471D2*
X1446091Y1842224D1*
X1441282Y1847033D1*
X1436529Y1849409D1*
X1426968D1*
X1422159Y1847033D1*
X1417406Y1842224D1*
X1414974Y1837471D1*
X1412598Y1830286D1*
Y1818293D1*
X1414974Y1811163D1*
X1417406Y1806354D1*
X1422159Y1801601D1*
X1426968Y1799169D1*
X1436529D1*
X1441282Y1801601D1*
X1446091Y1806354D1*
X1448468Y1811163D1*
X1463907Y1839793D2*
X1468715Y1842224D1*
X1475900Y1849354D1*
Y1799169D1*
X1505710Y1849354D2*
X1498525Y1846978D1*
X1493716Y1839793D1*
X1491340Y1827854D1*
Y1820669D1*
X1493716Y1808731D1*
X1498525Y1801546D1*
X1505710Y1799169D1*
X1510463D1*
X1517648Y1801546D1*
X1522401Y1808731D1*
X1524833Y1820669D1*
Y1827854D1*
X1522401Y1839793D1*
X1517648Y1846978D1*
X1510463Y1849354D1*
X1505710D1*
X1522401Y1839793D2*
X1493716Y1808731D1*
X928052Y1785360D2*
X925676Y1790113D1*
X920867Y1794921D1*
X916114Y1797298D1*
X906552D1*
X901744Y1794921D1*
X896991Y1790113D1*
X894559Y1785360D1*
X892182Y1778175D1*
Y1766181D1*
X894559Y1759051D1*
X896991Y1754243D1*
X901744Y1749490D1*
X906552Y1747058D1*
X916114D1*
X920867Y1749490D1*
X925676Y1754243D1*
X928052Y1759051D1*
X943491Y1787681D2*
X948300Y1790113D1*
X955485Y1797243D1*
Y1747058D1*
X970924Y1787681D2*
X975733Y1790113D1*
X982918Y1797243D1*
Y1747058D1*
X838030Y1194716D2*
X833277Y1192339D1*
X828469Y1187531D1*
X826092Y1182777D1*
Y1173216D1*
X828468Y1168407D1*
X833277Y1163654D1*
X838030Y1161222D1*
X845215Y1158846D1*
X857209D1*
X864338Y1161222D1*
X869147Y1163654D1*
X873900Y1168407D1*
X876332Y1173216D1*
Y1182777D1*
X873900Y1187531D1*
X869147Y1192339D1*
X864338Y1194716D1*
X835709Y1210155D2*
X833277Y1214963D1*
X826147Y1222148D1*
X876332D1*
X838085Y1240019D2*
X835709D1*
X830900Y1242396D1*
X828524Y1244773D1*
X826147Y1249581D1*
Y1259143D1*
X828524Y1263896D1*
X830900Y1266272D1*
X835709Y1268704D1*
X840462D1*
X845270Y1266272D1*
X852400Y1261519D1*
X876332Y1237588D1*
Y1271081D1*
X1063029Y734037D2*
X1058276Y731661D1*
X1053467Y726852D1*
X1051091Y722099D1*
Y712537D1*
X1053467Y707729D1*
X1058276Y702976D1*
X1063029Y700544D1*
X1070214Y698167D1*
X1082207D1*
X1089337Y700544D1*
X1094146Y702976D1*
X1098899Y707729D1*
X1101331Y712537D1*
Y722099D1*
X1098899Y726852D1*
X1094146Y731661D1*
X1089337Y734037D1*
X1060708Y749476D2*
X1058276Y754285D1*
X1051146Y761470D1*
X1101331D1*
X1051146Y781718D2*
Y807971D1*
X1070269Y793656D1*
Y800841D1*
X1072646Y805594D1*
X1075022Y807971D1*
X1082207Y810402D1*
X1086961D1*
X1094146Y807971D1*
X1098954Y803217D1*
X1101331Y796032D1*
Y788847D1*
X1098954Y781718D1*
X1096522Y779341D1*
X1091769Y776909D1*
X1727028Y873111D2*
X1722274Y870735D1*
X1717466Y865926D1*
X1715089Y861173D1*
Y851612D1*
X1717466Y846803D1*
X1722274Y842050D1*
X1727027Y839618D1*
X1734213Y837241D1*
X1746206D1*
X1753336Y839618D1*
X1758144Y842050D1*
X1762897Y846803D1*
X1765329Y851611D1*
Y861173D1*
X1762897Y865926D1*
X1758144Y870735D1*
X1753336Y873111D1*
X1724706Y888551D2*
X1722274Y893359D1*
X1715145Y900544D1*
X1765329D1*
Y939915D2*
X1715145D1*
X1748583Y915983D1*
Y951853D1*
X1094268Y1994717D2*
X1089515Y1992340D1*
X1084706Y1987532D1*
X1082329Y1982779D1*
Y1973217D1*
X1084706Y1968409D1*
X1089514Y1963656D1*
X1094268Y1961224D1*
X1101453Y1958847D1*
X1113446D1*
X1120576Y1961224D1*
X1125384Y1963656D1*
X1130138Y1968409D1*
X1132569Y1973217D1*
Y1982779D1*
X1130138Y1987532D1*
X1125384Y1992340D1*
X1120576Y1994717D1*
X1091946Y2010156D2*
X1089515Y2014965D1*
X1082385Y2022150D1*
X1132569D1*
X1082385Y2066274D2*
Y2042397D1*
X1103885Y2040021D1*
X1101508Y2042397D1*
X1099076Y2049582D1*
Y2056712D1*
X1101508Y2063897D1*
X1106261Y2068706D1*
X1113446Y2071082D1*
X1118199D1*
X1125384Y2068706D1*
X1130193Y2063897D1*
X1132569Y2056712D1*
Y2049582D1*
X1130193Y2042397D1*
X1127761Y2040021D1*
X1123008Y2037589D1*
X1860644Y2843957D2*
X1858268Y2848710D1*
X1853459Y2853518D1*
X1848706Y2855895D1*
X1839144D1*
X1834336Y2853518D1*
X1829583Y2848710D1*
X1827151Y2843957D1*
X1824774Y2836772D1*
Y2824778D1*
X1827151Y2817648D1*
X1829583Y2812840D1*
X1834336Y2808087D1*
X1839144Y2805655D1*
X1848706D1*
X1853459Y2808087D1*
X1858268Y2812840D1*
X1860644Y2817648D1*
X1876083Y2846278D2*
X1880892Y2848710D1*
X1888077Y2855840D1*
Y2805655D1*
X1932201Y2848710D2*
X1929824Y2853463D1*
X1922639Y2855840D1*
X1917886D1*
X1910701Y2853463D1*
X1905893Y2846278D1*
X1903516Y2834340D1*
Y2822402D1*
X1905893Y2812840D1*
X1910701Y2808032D1*
X1917886Y2805655D1*
X1920263D1*
X1927393Y2808032D1*
X1932201Y2812840D1*
X1934578Y2820025D1*
Y2822402D1*
X1932201Y2829587D1*
X1927393Y2834340D1*
X1920263Y2836716D1*
X1917886D1*
X1910701Y2834340D1*
X1905893Y2829587D1*
X1903516Y2822402D1*
X2709815Y1553444D2*
X2705062Y1551067D1*
X2700253Y1546259D1*
X2697877Y1541506D1*
Y1531944D1*
X2700253Y1527136D1*
X2705062Y1522383D1*
X2709815Y1519951D1*
X2717000Y1517574D1*
X2728993D1*
X2736123Y1519951D1*
X2740932Y1522383D1*
X2745685Y1527136D1*
X2748117Y1531944D1*
Y1541506D1*
X2745685Y1546259D1*
X2740932Y1551067D1*
X2736123Y1553444D1*
X2707494Y1568883D2*
X2705062Y1573692D1*
X2697932Y1580877D1*
X2748117D1*
Y1605878D2*
X2697932Y1629809D1*
Y1596316D1*
X3604281Y721565D2*
X3599528Y719188D1*
X3594719Y714380D1*
X3592343Y709627D1*
Y700065D1*
X3594719Y695257D1*
X3599528Y690503D1*
X3604281Y688072D1*
X3611466Y685695D1*
X3623459D1*
X3630589Y688072D1*
X3635398Y690503D1*
X3640151Y695257D1*
X3642583Y700065D1*
Y709627D1*
X3640151Y714380D1*
X3635398Y719188D1*
X3630589Y721565D1*
X3601960Y737004D2*
X3599528Y741812D1*
X3592398Y748998D1*
X3642583Y748997D1*
X3592398Y776375D2*
X3594774Y769245D1*
X3599528Y766813D1*
X3604336D1*
X3609089Y769245D1*
X3611521Y773998D1*
X3613898Y783560D1*
X3616274Y790745D1*
X3621083Y795498D1*
X3625836Y797875D1*
X3633021D1*
X3637774Y795498D1*
X3640206Y793122D1*
X3642583Y785937D1*
Y776375D1*
X3640206Y769245D1*
X3637774Y766813D1*
X3633021Y764437D1*
X3625836D1*
X3621083Y766813D1*
X3616274Y771622D1*
X3613898Y778752D1*
X3611521Y788313D1*
X3609089Y793122D1*
X3604336Y795498D1*
X3599528D1*
X3594774Y793122D1*
X3592398Y785937D1*
Y776375D1*
X3685530Y1328975D2*
X3680777Y1326598D1*
X3675969Y1321790D1*
X3673592Y1317037D1*
Y1307475D1*
X3675968Y1302667D1*
X3680777Y1297913D1*
X3685530Y1295482D1*
X3692715Y1293105D1*
X3704709D1*
X3711838Y1295482D1*
X3716647Y1297913D1*
X3721400Y1302667D1*
X3723832Y1307475D1*
Y1317037D1*
X3721400Y1321790D1*
X3716647Y1326598D1*
X3711838Y1328975D1*
X3683209Y1344414D2*
X3680777Y1349222D1*
X3673647Y1356408D1*
X3723832Y1356407D1*
X3690339Y1402963D2*
X3697524Y1400532D1*
X3702332Y1395778D1*
X3704709Y1388593D1*
Y1386217D1*
X3702332Y1379032D1*
X3697524Y1374279D1*
X3690339Y1371847D1*
X3687962D1*
X3680777Y1374279D1*
X3676024Y1379032D1*
X3673647Y1386217D1*
Y1388593D1*
X3676024Y1395778D1*
X3680777Y1400532D1*
X3690339Y1402963D1*
X3702332D1*
X3714270Y1400532D1*
X3721455Y1395778D1*
X3723832Y1388593D1*
Y1383840D1*
X3721455Y1376655D1*
X3716647Y1374279D1*
X2304392Y1141436D2*
X2302016Y1146189D1*
X2297207Y1150997D1*
X2292454Y1153374D1*
X2282892D1*
X2278084Y1150997D1*
X2273331Y1146189D1*
X2270899Y1141436D1*
X2268522Y1134251D1*
Y1122257D1*
X2270899Y1115127D1*
X2273331Y1110319D1*
X2278084Y1105566D1*
X2282892Y1103134D1*
X2292454D1*
X2297207Y1105566D1*
X2302016Y1110319D1*
X2304392Y1115127D1*
X2322263Y1141381D2*
Y1143757D1*
X2324640Y1148566D1*
X2327016Y1150942D1*
X2331825Y1153319D1*
X2341387D1*
X2346140Y1150942D1*
X2348516Y1148566D1*
X2350948Y1143757D1*
Y1139004D1*
X2348516Y1134195D1*
X2343763Y1127066D1*
X2319831Y1103134D1*
X2353325D1*
X2383134Y1153319D2*
X2375949Y1150942D1*
X2371141Y1143757D1*
X2368764Y1131819D1*
Y1124634D1*
X2371141Y1112696D1*
X2375949Y1105511D1*
X2383134Y1103134D1*
X2387887D1*
X2395072Y1105511D1*
X2399825Y1112696D1*
X2402257Y1124634D1*
Y1131819D1*
X2399825Y1143757D1*
X2395072Y1150942D1*
X2387887Y1153319D1*
X2383134D1*
X2399825Y1143757D2*
X2371141Y1112696D1*
X3531537Y1212469D2*
X3529160Y1217222D1*
X3524352Y1222030D1*
X3519599Y1224407D1*
X3510037D1*
X3505229Y1222030D1*
X3500476Y1217222D1*
X3498044Y1212469D1*
X3495667Y1205284D1*
Y1193290D1*
X3498044Y1186160D1*
X3500476Y1181352D1*
X3505229Y1176599D1*
X3510037Y1174167D1*
X3519599D1*
X3524352Y1176599D1*
X3529160Y1181352D1*
X3531537Y1186160D1*
X3549408Y1212413D2*
Y1214790D1*
X3551785Y1219598D1*
X3554161Y1221975D1*
X3558970Y1224352D1*
X3568531D1*
X3573285Y1221975D1*
X3575661Y1219598D1*
X3578093Y1214790D1*
Y1210037D1*
X3575661Y1205228D1*
X3570908Y1198099D1*
X3546976Y1174167D1*
X3580470D1*
X3595909Y1214790D2*
X3600717Y1217222D1*
X3607902Y1224352D1*
Y1174167D1*
X3515447Y1402190D2*
X3513071Y1406944D1*
X3508262Y1411752D1*
X3503509Y1414129D1*
X3493947D1*
X3489139Y1411752D1*
X3484386Y1406944D1*
X3481954Y1402190D1*
X3479577Y1395005D1*
Y1383012D1*
X3481954Y1375882D1*
X3484386Y1371074D1*
X3489139Y1366320D1*
X3493947Y1363889D1*
X3503509D1*
X3508262Y1366320D1*
X3513071Y1371074D1*
X3515447Y1375882D1*
X3533318Y1402135D2*
Y1404512D1*
X3535695Y1409320D1*
X3538072Y1411697D1*
X3542880Y1414073D1*
X3552442D1*
X3557195Y1411697D1*
X3559571Y1409320D1*
X3562003Y1404512D1*
Y1399759D1*
X3559571Y1394950D1*
X3554818Y1387820D1*
X3530887Y1363889D1*
X3564380D1*
X3582251Y1402135D2*
Y1404512D1*
X3584628Y1409320D1*
X3587004Y1411697D1*
X3591813Y1414073D1*
X3601374D1*
X3606127Y1411697D1*
X3608504Y1409320D1*
X3610936Y1404512D1*
Y1399759D1*
X3608504Y1394950D1*
X3603751Y1387820D1*
X3579819Y1363889D1*
X3613312D1*
X816740Y1835609D2*
X811987Y1833232D1*
X807179Y1828424D1*
X804802Y1823671D1*
Y1814109D1*
X807178Y1809301D1*
X811987Y1804547D1*
X816740Y1802115D1*
X823925Y1799739D1*
X835919D1*
X843048Y1802115D1*
X847857Y1804547D1*
X852610Y1809300D1*
X855042Y1814109D1*
Y1823671D1*
X852610Y1828424D1*
X847857Y1833232D1*
X843048Y1835609D1*
X816795Y1853480D2*
X814419D1*
X809610Y1855856D1*
X807234Y1858233D1*
X804857Y1863041D1*
Y1872603D1*
X807234Y1877356D1*
X809610Y1879733D1*
X814419Y1882165D1*
X819172D1*
X823980Y1879733D1*
X831110Y1874980D1*
X855042Y1851048D1*
Y1884541D1*
X804857Y1904789D2*
Y1931042D1*
X823980Y1916727D1*
Y1923912D1*
X826357Y1928665D1*
X828734Y1931042D1*
X835919Y1933474D1*
X840672D1*
X847857Y1931042D1*
X852665Y1926289D1*
X855042Y1919104D1*
Y1911919D1*
X852665Y1904789D1*
X850233Y1902412D1*
X845480Y1899981D1*
X3267954Y2573203D2*
Y2522963D1*
X3284701D1*
X3291886Y2525395D1*
X3296694Y2530148D1*
X3299071Y2534957D1*
X3301448Y2542087D1*
Y2554080D1*
X3299071Y2561265D1*
X3296694Y2566018D1*
X3291886Y2570827D1*
X3284701Y2573203D1*
X3267954D1*
X3316887Y2563586D2*
X3321695Y2566018D1*
X3328880Y2573148D1*
Y2522963D1*
X1995539Y1438170D2*
X2045779D1*
Y1454917D1*
X2043348Y1462102D1*
X2038594Y1466910D1*
X2033786Y1469287D1*
X2026656Y1471664D1*
X2014663D1*
X2007478Y1469287D1*
X2002724Y1466911D1*
X1997916Y1462102D1*
X1995539Y1454917D1*
Y1438170D1*
X2007533Y1489535D2*
X2005156D1*
X2000348Y1491911D1*
X1997971Y1494288D1*
X1995595Y1499096D1*
Y1508658D1*
X1997971Y1513411D1*
X2000348Y1515788D1*
X2005156Y1518220D1*
X2009910D1*
X2014718Y1515788D1*
X2021848Y1511035D1*
X2045779Y1487103D1*
Y1520596D1*
X3131536Y1494929D2*
Y1444689D1*
X3148283D1*
X3155468Y1447121D1*
X3160277Y1451874D1*
X3162653Y1456683D1*
X3165030Y1463812D1*
Y1475806D1*
X3162653Y1482991D1*
X3160277Y1487744D1*
X3155468Y1492553D1*
X3148283Y1494929D1*
X3131536D1*
X3185277Y1494874D2*
X3211530D1*
X3197216Y1475751D1*
X3204401D1*
X3209154Y1473374D1*
X3211530Y1470997D1*
X3213962Y1463812D1*
Y1459059D1*
X3211530Y1451874D1*
X3206777Y1447066D1*
X3199592Y1444689D1*
X3192407D1*
X3185277Y1447066D1*
X3182901Y1449498D1*
X3180469Y1454251D1*
X1996377Y3180356D2*
Y3130116D1*
X2013124D1*
X2020309Y3132547D1*
X2025117Y3137301D1*
X2027494Y3142109D1*
X2029870Y3149239D1*
Y3161232D1*
X2027494Y3168417D1*
X2025117Y3173171D1*
X2020309Y3177979D1*
X2013124Y3180356D1*
X1996377D1*
X2069241Y3130116D2*
Y3180300D1*
X2045310Y3146862D1*
X2081179D1*
X3187418Y1210882D2*
Y1160642D1*
X3204165D1*
X3211350Y1163074D1*
X3216158Y1167827D1*
X3218535Y1172635D1*
X3220912Y1179765D1*
Y1191759D1*
X3218535Y1198944D1*
X3216158Y1203697D1*
X3211350Y1208505D1*
X3204165Y1210882D1*
X3187418D1*
X3265036Y1210827D2*
X3241159D1*
X3238783Y1189327D1*
X3241159Y1191703D1*
X3248344Y1194135D1*
X3255474D1*
X3262659Y1191703D1*
X3267468Y1186950D1*
X3269844Y1179765D1*
Y1175012D1*
X3267468Y1167827D1*
X3262659Y1163018D1*
X3255474Y1160642D1*
X3248344D1*
X3241159Y1163018D1*
X3238783Y1165450D1*
X3236351Y1170203D1*
X437818Y1504579D2*
Y1454339D1*
X454564D1*
X461749Y1456771D1*
X466558Y1461524D1*
X468934Y1466332D1*
X471311Y1473462D1*
Y1485455D1*
X468934Y1492641D1*
X466558Y1497394D1*
X461749Y1502202D1*
X454564Y1504579D1*
X437818D1*
X486750Y1473462D2*
X515435D1*
Y1478270D1*
X513059Y1483079D1*
X510682Y1485455D1*
X505873Y1487832D1*
X498688D1*
X493935Y1485455D1*
X489127Y1480647D1*
X486750Y1473462D1*
Y1468709D1*
X489127Y1461524D1*
X493935Y1456771D1*
X498688Y1454339D1*
X505873D1*
X510682Y1456771D1*
X515435Y1461524D1*
X530874Y1504579D2*
Y1454339D1*
Y1480647D2*
X535683Y1485455D1*
X540436Y1487832D1*
X547621D1*
X552374Y1485455D1*
X557183Y1480647D1*
X559559Y1473462D1*
Y1468709D1*
X557183Y1461524D1*
X552374Y1456771D1*
X547621Y1454339D1*
X540436D1*
X535683Y1456771D1*
X530874Y1461524D1*
X574999Y1487832D2*
Y1463900D1*
X577375Y1456771D1*
X582184Y1454339D1*
X589369D1*
X594122Y1456771D1*
X601307Y1463900D1*
Y1487832D2*
Y1454339D1*
X645431Y1485455D2*
Y1447154D1*
X643054Y1440024D1*
X640678Y1437592D1*
X635869Y1435215D1*
X628684D1*
X623931Y1437592D1*
X645431Y1478270D2*
X640678Y1483024D1*
X635869Y1485455D1*
X628684D1*
X623931Y1483024D1*
X619123Y1478270D1*
X616746Y1471085D1*
Y1466277D1*
X619123Y1459147D1*
X623931Y1454339D1*
X628684Y1451962D1*
X635869D1*
X640678Y1454339D1*
X645431Y1459147D1*
X660870Y1504579D2*
Y1468709D1*
X663247Y1461524D1*
X668055Y1456771D1*
X675240Y1454339D1*
X679993D1*
X687178Y1456771D1*
X691987Y1461524D1*
X694364Y1468709D1*
Y1504579D1*
X738488Y1487832D2*
Y1454339D1*
Y1480647D2*
X733734Y1485455D1*
X728926Y1487832D1*
X721796D1*
X716988Y1485455D1*
X712235Y1480647D1*
X709803Y1473462D1*
Y1468709D1*
X712235Y1461524D1*
X716988Y1456771D1*
X721796Y1454339D1*
X728926D1*
X733734Y1456771D1*
X738488Y1461524D1*
X753927Y1487832D2*
Y1454339D1*
Y1473462D2*
X756359Y1480647D1*
X761112Y1485455D1*
X765920Y1487832D1*
X773105D1*
X795730Y1504579D2*
Y1463900D1*
X798106Y1456771D1*
X802915Y1454339D1*
X807668D1*
X788545Y1487832D2*
X805291D1*
X3505471Y2950513D2*
Y2919396D1*
X3555711D1*
X3529403D2*
Y2938519D1*
X3515088Y2965952D2*
X3512656Y2970760D1*
X3505526Y2977945D1*
X3555711D1*
X4394848Y2799281D2*
Y2761034D1*
X4392471Y2753849D1*
X4390039Y2751473D1*
X4385286Y2749041D1*
X4380478D1*
X4375725Y2751473D1*
X4373348Y2753849D1*
X4370916Y2761034D1*
Y2765787D1*
X4410287Y2789664D2*
X4415096Y2792096D1*
X4422281Y2799226D1*
Y2749041D1*
X4384186Y1449175D2*
Y1410928D1*
X4381809Y1403743D1*
X4379377Y1401366D1*
X4374624Y1398935D1*
X4369816D1*
X4365063Y1401366D1*
X4362686Y1403743D1*
X4360254Y1410928D1*
Y1415681D1*
X4402057Y1437181D2*
Y1439558D1*
X4404434Y1444366D1*
X4406810Y1446743D1*
X4411619Y1449119D1*
X4421180D1*
X4425933Y1446743D1*
X4428310Y1444366D1*
X4430742Y1439558D1*
Y1434804D1*
X4428310Y1429996D1*
X4423557Y1422866D1*
X4399625Y1398935D1*
X4433119D1*
X4384186Y3473961D2*
Y3435714D1*
X4381809Y3428529D1*
X4379377Y3426152D1*
X4374624Y3423721D1*
X4369816D1*
X4365063Y3426152D1*
X4362686Y3428529D1*
X4360254Y3435714D1*
Y3440467D1*
X4404434Y3473905D2*
X4430687D1*
X4416372Y3454782D1*
X4423557D1*
X4428310Y3452405D1*
X4430687Y3450029D1*
X4433119Y3442844D1*
Y3438091D1*
X4430687Y3430906D1*
X4425933Y3426097D1*
X4418748Y3423721D1*
X4411563D1*
X4404434Y3426097D1*
X4402057Y3428529D1*
X4399625Y3433282D1*
X4382998Y2124104D2*
Y2085857D1*
X4380621Y2078672D1*
X4378189Y2076296D1*
X4373436Y2073864D1*
X4368628D1*
X4363874Y2076296D1*
X4361498Y2078672D1*
X4359066Y2085857D1*
Y2090610D1*
X4422369Y2073864D2*
Y2124048D1*
X4398437Y2090610D1*
X4434307D1*
X1547749Y667222D2*
Y628975D1*
X1545372Y621790D1*
X1542940Y619414D1*
X1538187Y616982D1*
X1533379D1*
X1528626Y619414D1*
X1526249Y621790D1*
X1523817Y628975D1*
Y633728D1*
X1591873Y667167D2*
X1567997D1*
X1565620Y645667D1*
X1567997Y648043D1*
X1575182Y650475D1*
X1582311D1*
X1589496Y648043D1*
X1594305Y643290D1*
X1596681Y636105D1*
Y631352D1*
X1594305Y624167D1*
X1589496Y619358D1*
X1582311Y616982D1*
X1575182D1*
X1567997Y619358D1*
X1565620Y621790D1*
X1563188Y626543D1*
X981500Y667224D2*
Y628977D1*
X979123Y621792D1*
X976691Y619416D1*
X971938Y616984D1*
X967129D1*
X962376Y619416D1*
X960000Y621792D1*
X957568Y628977D1*
Y633730D1*
X1006500Y616984D2*
X1030432Y667168D1*
X996939D1*
X1700694Y1824408D2*
Y1774168D1*
X1729379D1*
X1744819Y1814791D2*
X1749627Y1817223D1*
X1756812Y1824353D1*
Y1774168D1*
X2500885Y1964021D2*
Y1913781D1*
X2529570D1*
X2547441Y1952027D2*
Y1954404D1*
X2549818Y1959213D1*
X2552195Y1961589D1*
X2557003Y1963966D1*
X2566565D1*
X2571318Y1961589D1*
X2573695Y1959213D1*
X2576126Y1954404D1*
Y1949651D1*
X2573695Y1944842D1*
X2568941Y1937713D1*
X2545010Y1913781D1*
X2578503D1*
X2814002Y1177312D2*
Y1127072D1*
X2842687D1*
X2882058D2*
Y1177257D1*
X2858126Y1143819D1*
X2893996D1*
X3320865Y3148311D2*
Y3169811D1*
X3318433Y3176996D1*
X3316056Y3179428D1*
X3311303Y3181805D1*
X3306495D1*
X3301742Y3179428D1*
X3299310Y3176996D1*
X3296933Y3169811D1*
Y3148311D1*
X3347173D1*
X3320865Y3165058D2*
X3347173Y3181805D1*
X3306550Y3197244D2*
X3304118Y3202052D1*
X3296988Y3209237D1*
X3347173D1*
X2079175Y3400134D2*
X2100675D1*
X2107860Y3402566D1*
X2110292Y3404942D1*
X2112669Y3409696D1*
Y3414504D1*
X2110292Y3419257D1*
X2107860Y3421689D1*
X2100675Y3424066D1*
X2079175D1*
Y3373826D1*
X2095922Y3400134D2*
X2112669Y3373826D1*
X2130540Y3412072D2*
Y3414449D1*
X2132917Y3419257D1*
X2135293Y3421634D1*
X2140102Y3424010D1*
X2149663D1*
X2154416Y3421634D1*
X2156793Y3419257D1*
X2159225Y3414449D1*
Y3409696D1*
X2156793Y3404887D1*
X2152040Y3397757D1*
X2128108Y3373826D1*
X2161601D1*
X3190002Y2894227D2*
X3211502D1*
X3218687Y2896659D1*
X3221119Y2899036D1*
X3223496Y2903789D1*
Y2908597D1*
X3221119Y2913350D1*
X3218687Y2915782D1*
X3211502Y2918159D1*
X3190002D1*
Y2867919D1*
X3206749Y2894227D2*
X3223496Y2867919D1*
X3243743Y2918104D2*
X3269996D1*
X3255682Y2898980D1*
X3262867D1*
X3267620Y2896604D1*
X3269996Y2894227D1*
X3272428Y2887042D1*
Y2882289D1*
X3269996Y2875104D1*
X3265243Y2870295D1*
X3258058Y2867919D1*
X3250873D1*
X3243743Y2870295D1*
X3241367Y2872727D1*
X3238935Y2877480D1*
X3697524Y2635065D2*
Y2656565D1*
X3695092Y2663750D1*
X3692715Y2666181D1*
X3687962Y2668558D1*
X3683154D1*
X3678400Y2666181D1*
X3675969Y2663750D1*
X3673592Y2656565D1*
Y2635065D1*
X3723832D1*
X3697524Y2651811D2*
X3723832Y2668558D1*
Y2707929D2*
X3673647D1*
X3707085Y2683997D1*
Y2719867D1*
X3540955Y3329686D2*
Y3351186D1*
X3538524Y3358371D1*
X3536147Y3360803D1*
X3531394Y3363179D1*
X3526585D1*
X3521832Y3360803D1*
X3519400Y3358371D1*
X3517024Y3351186D1*
Y3329686D1*
X3567264D1*
X3540955Y3346433D2*
X3567264Y3363179D1*
X3517079Y3407304D2*
Y3383427D1*
X3538579Y3381051D1*
X3536202Y3383427D1*
X3533770Y3390612D1*
Y3397742D1*
X3536202Y3404927D1*
X3540955Y3409735D1*
X3548140Y3412112D1*
X3552894D1*
X3560079Y3409735D1*
X3564887Y3404927D1*
X3567264Y3397742D1*
Y3390612D1*
X3564887Y3383427D1*
X3562455Y3381050D1*
X3557702Y3378619D1*
X1972371Y3243378D2*
Y3264878D1*
X1969940Y3272063D1*
X1967563Y3274495D1*
X1962810Y3276872D1*
X1958001D1*
X1953248Y3274495D1*
X1950816Y3272063D1*
X1948440Y3264878D1*
Y3243378D1*
X1998680D1*
X1972371Y3260125D2*
X1998680Y3276872D1*
X1955625Y3320996D2*
X1950872Y3318619D1*
X1948495Y3311434D1*
Y3306681D1*
X1950872Y3299496D1*
X1958057Y3294688D1*
X1969995Y3292311D1*
X1981933D1*
X1991495Y3294688D1*
X1996303Y3299496D1*
X1998680Y3306681D1*
Y3309058D1*
X1996303Y3316187D1*
X1991495Y3320996D1*
X1984310Y3323372D1*
X1981933D1*
X1974748Y3320996D1*
X1969995Y3316187D1*
X1967618Y3309058D1*
Y3306681D1*
X1969995Y3299496D1*
X1974748Y3294688D1*
X1981933Y3292311D1*
X718777Y711264D2*
Y732763D1*
X716345Y739948D1*
X713968Y742380D1*
X709215Y744757D1*
X704407D1*
X699654Y742380D1*
X697222Y739948D1*
X694845Y732763D1*
Y711264D1*
X745085D1*
X718777Y728010D2*
X745085Y744757D1*
Y769758D2*
X694901Y793689D1*
Y760196D1*
X1193773Y1106850D2*
Y1128350D1*
X1191341Y1135535D1*
X1188965Y1137967D1*
X1184211Y1140344D1*
X1179403D1*
X1174650Y1137967D1*
X1172218Y1135535D1*
X1169841Y1128350D1*
Y1106850D1*
X1220081D1*
X1193773Y1123597D2*
X1220081Y1140343D1*
X1169897Y1167721D2*
X1172273Y1160591D1*
X1177026Y1158159D1*
X1181835D1*
X1186588Y1160591D1*
X1189020Y1165344D1*
X1191396Y1174906D1*
X1193773Y1182091D1*
X1198581Y1186844D1*
X1203335Y1189221D1*
X1210520D1*
X1215273Y1186844D1*
X1217705Y1184468D1*
X1220081Y1177283D1*
Y1167721D1*
X1217705Y1160591D1*
X1215273Y1158159D1*
X1210520Y1155783D1*
X1203335D1*
X1198581Y1158159D1*
X1193773Y1162968D1*
X1191396Y1170098D1*
X1189020Y1179659D1*
X1186588Y1184468D1*
X1181835Y1186844D1*
X1177026D1*
X1172273Y1184468D1*
X1169897Y1177283D1*
Y1167721D1*
X3440988Y658226D2*
Y679726D1*
X3438556Y686911D1*
X3436180Y689343D1*
X3431427Y691719D1*
X3426618D1*
X3421865Y689343D1*
X3419433Y686911D1*
X3417056Y679726D1*
Y658226D1*
X3467296D1*
X3440988Y674973D2*
X3467297Y691719D1*
X3433803Y738275D2*
X3440988Y735844D1*
X3445797Y731090D1*
X3448173Y723905D1*
Y721529D1*
X3445797Y714344D1*
X3440988Y709590D1*
X3433803Y707159D1*
X3431427D1*
X3424242Y709591D1*
X3419488Y714344D1*
X3417112Y721529D1*
Y723905D1*
X3419488Y731090D1*
X3424242Y735844D1*
X3433803Y738275D1*
X3445797D1*
X3457735Y735843D1*
X3464920Y731090D1*
X3467296Y723905D1*
X3467297Y719152D1*
X3464920Y711967D1*
X3460111Y709590D1*
X709993Y1853610D2*
Y1875110D1*
X707562Y1882295D1*
X705185Y1884727D1*
X700432Y1887103D1*
X695623D1*
X690870Y1884727D1*
X688438Y1882295D1*
X686062Y1875110D1*
Y1853610D1*
X736302D1*
X709993Y1870357D2*
X736302Y1887103D1*
X695679Y1902543D2*
X693247Y1907351D1*
X686117Y1914536D1*
X736302D1*
X686117Y1944345D2*
X688494Y1937160D1*
X695679Y1932352D1*
X707617Y1929975D1*
X714802D1*
X726740Y1932352D1*
X733925Y1937160D1*
X736302Y1944345D1*
Y1949099D1*
X733925Y1956284D1*
X726740Y1961037D1*
X714802Y1963469D1*
X707617D1*
X695679Y1961037D1*
X688494Y1956284D1*
X686117Y1949099D1*
Y1944345D1*
X695679Y1961037D2*
X726740Y1932352D1*
X3316274Y1622606D2*
Y1644105D1*
X3313842Y1651290D1*
X3311466Y1653722D1*
X3306713Y1656099D1*
X3301904D1*
X3297151Y1653722D1*
X3294719Y1651290D1*
X3292343Y1644105D1*
Y1622606D1*
X3342583D1*
X3316274Y1639352D2*
X3342583Y1656099D1*
X3301960Y1671538D2*
X3299528Y1676346D1*
X3292398Y1683532D1*
X3342583Y1683531D1*
X3301960Y1698971D2*
X3299528Y1703779D1*
X3292398Y1710964D1*
X3342583D1*
X1243774Y1818106D2*
Y1839606D1*
X1241342Y1846791D1*
X1238966Y1849223D1*
X1234213Y1851600D1*
X1229404D1*
X1224651Y1849223D1*
X1222219Y1846791D1*
X1219843Y1839606D1*
Y1818106D1*
X1270083D1*
X1243774Y1834853D2*
X1270083Y1851599D1*
X1229460Y1867039D2*
X1227028Y1871847D1*
X1219898Y1879032D1*
X1270083D1*
X1231836Y1896903D2*
X1229460D1*
X1224651Y1899280D1*
X1222274Y1901657D1*
X1219898Y1906465D1*
Y1916027D1*
X1222274Y1920780D1*
X1224651Y1923156D1*
X1229460Y1925588D1*
X1234213D1*
X1239021Y1923156D1*
X1246151Y1918403D1*
X1270083Y1894471D1*
Y1927965D1*
X3090605Y1787976D2*
X3112105D1*
X3119290Y1790408D1*
X3121722Y1792785D1*
X3124098Y1797538D1*
Y1802346D1*
X3121722Y1807100D1*
X3119290Y1809532D1*
X3112105Y1811908D1*
X3090605D1*
Y1761668D1*
X3107351Y1787976D2*
X3124098Y1761668D1*
X3139537Y1802291D2*
X3144346Y1804723D1*
X3151531Y1811853D1*
Y1761668D1*
X3171779Y1811853D2*
X3198032D1*
X3183717Y1792730D1*
X3190902D1*
X3195655Y1790353D1*
X3198032Y1787976D1*
X3200463Y1780791D1*
Y1776038D1*
X3198032Y1768853D1*
X3193278Y1764045D1*
X3186093Y1761668D1*
X3178908D1*
X3171779Y1764045D1*
X3169402Y1766477D1*
X3166970Y1771230D1*
X2562598Y731727D2*
X2584097D1*
X2591282Y734159D1*
X2593714Y736536D1*
X2596091Y741289D1*
Y746097D1*
X2593714Y750850D1*
X2591282Y753282D1*
X2584097Y755659D1*
X2562598D1*
Y705419D1*
X2579344Y731727D2*
X2596091Y705419D1*
X2611530Y746042D2*
X2616339Y748474D1*
X2623524Y755604D1*
Y705419D1*
X2662895D2*
Y755604D1*
X2638963Y722165D1*
X2674833D1*
X1622510Y436856D2*
X1622511Y458355D1*
X1620079Y465540D1*
X1617702Y467972D1*
X1612949Y470349D1*
X1608140D1*
X1603387Y467972D1*
X1600955Y465540D1*
X1598579Y458355D1*
Y436856D1*
X1648819D1*
X1622511Y453602D2*
X1648819Y470349D1*
X1608196Y485788D2*
X1605764Y490597D1*
X1598634Y497782D1*
X1648819D1*
X1598634Y541906D2*
Y518029D1*
X1620134Y515653D1*
X1617757Y518029D1*
X1615325Y525214D1*
Y532344D1*
X1617757Y539529D1*
X1622511Y544338D1*
X1629696Y546714D1*
X1634449D1*
X1641634Y544338D1*
X1646442Y539529D1*
X1648819Y532344D1*
Y525214D1*
X1646442Y518029D1*
X1644010Y515653D1*
X1639257Y513221D1*
X766273Y1692501D2*
Y1714000D1*
X763841Y1721186D1*
X761465Y1723617D1*
X756711Y1725994D1*
X751903D1*
X747150Y1723617D1*
X744718Y1721186D1*
X742341Y1714000D1*
Y1692501D1*
X792581D1*
X766273Y1709247D2*
X792581Y1725994D1*
X751958Y1741433D2*
X749526Y1746242D1*
X742397Y1753427D1*
X792581D1*
X749526Y1797551D2*
X744773Y1795174D1*
X742397Y1787989D1*
Y1783236D1*
X744773Y1776051D1*
X751958Y1771242D1*
X763896Y1768866D1*
X775835D1*
X785396Y1771242D1*
X790205Y1776051D1*
X792581Y1783236D1*
Y1785613D1*
X790205Y1792742D1*
X785396Y1797551D1*
X778211Y1799927D1*
X775835D1*
X768650Y1797551D1*
X763896Y1792742D1*
X761520Y1785613D1*
Y1783236D1*
X763896Y1776051D1*
X768650Y1771242D1*
X775835Y1768866D1*
X3228772Y878785D2*
Y900285D1*
X3226340Y907470D1*
X3223963Y909901D1*
X3219210Y912278D1*
X3214402D1*
X3209648Y909901D1*
X3207217Y907470D1*
X3204840Y900285D1*
Y878785D1*
X3255080D1*
X3228772Y895531D2*
X3255080Y912278D1*
X3214457Y927717D2*
X3212025Y932526D1*
X3204895Y939711D1*
X3255080D1*
Y964712D2*
X3204895Y988643D1*
Y955150D1*
X1472828Y1039417D2*
X1468075Y1044226D1*
X1460890Y1046602D1*
X1451328D1*
X1444143Y1044226D1*
X1439335Y1039417D1*
Y1034664D1*
X1441767Y1029856D1*
X1444143Y1027479D1*
X1448897Y1025103D1*
X1463267Y1020294D1*
X1468075Y1017917D1*
X1470452Y1015486D1*
X1472828Y1010732D1*
Y1003547D1*
X1468075Y998794D1*
X1460890Y996362D1*
X1451328D1*
X1444143Y998794D1*
X1439335Y1003547D1*
X1488267Y1036985D2*
X1493076Y1039417D1*
X1500261Y1046547D1*
Y996362D1*
X1355047Y1302738D2*
Y1266868D1*
X1357424Y1259683D1*
X1362233Y1254929D1*
X1369418Y1252498D1*
X1374171D1*
X1381356Y1254929D1*
X1386164Y1259683D1*
X1388541Y1266868D1*
Y1302738D1*
X1403980Y1293121D2*
X1408789Y1295552D1*
X1415974Y1302682D1*
Y1252498D1*
X1082128Y3034005D2*
Y2998135D1*
X1084505Y2990950D1*
X1089313Y2986197D1*
X1096498Y2983765D1*
X1101252D1*
X1108437Y2986197D1*
X1113245Y2990950D1*
X1115622Y2998135D1*
Y3034005D1*
X1133493Y3022012D2*
Y3024388D1*
X1135869Y3029197D1*
X1138246Y3031573D1*
X1143054Y3033950D1*
X1152616D1*
X1157369Y3031573D1*
X1159746Y3029197D1*
X1162178Y3024388D1*
Y3019635D1*
X1159746Y3014827D1*
X1154993Y3007697D1*
X1131061Y2983765D1*
X1164554D1*
X1812236Y3591482D2*
Y3555612D1*
X1814612Y3548427D1*
X1819421Y3543673D1*
X1826606Y3541242D1*
X1831359D1*
X1838544Y3543673D1*
X1843353Y3548427D1*
X1845729Y3555612D1*
Y3591482D1*
X1865977Y3591426D2*
X1892230D1*
X1877915Y3572303D1*
X1885100D1*
X1889853Y3569926D1*
X1892230Y3567550D1*
X1894662Y3560365D1*
Y3555612D1*
X1892230Y3548427D1*
X1887477Y3543618D1*
X1880292Y3541242D1*
X1873107D1*
X1865977Y3543618D1*
X1863600Y3546050D1*
X1861168Y3550803D1*
X2444775Y482430D2*
Y446561D1*
X2447151Y439375D1*
X2451960Y434622D1*
X2459145Y432190D1*
X2463898D1*
X2471083Y434622D1*
X2475891Y439375D1*
X2478268Y446561D1*
Y482430D1*
X2517639Y432190D2*
Y482375D1*
X2493707Y448937D1*
X2529577D1*
X3624565Y3360240D2*
Y3324370D1*
X3626942Y3317185D1*
X3631750Y3312432D1*
X3638935Y3310000D1*
X3643689D1*
X3650874Y3312432D1*
X3655682Y3317185D1*
X3658059Y3324370D1*
Y3360240D1*
X3702183Y3360185D2*
X3678306D1*
X3675930Y3338685D1*
X3678306Y3341062D1*
X3685491Y3343493D1*
X3692621D1*
X3699806Y3341062D1*
X3704615Y3336308D1*
X3706991Y3329123D1*
Y3324370D1*
X3704615Y3317185D1*
X3699806Y3312377D1*
X3692621Y3310000D1*
X3685491D1*
X3678306Y3312377D1*
X3675930Y3314809D1*
X3673498Y3319562D1*
X3557752Y1084399D2*
Y1048529D1*
X3560129Y1041344D1*
X3564937Y1036591D1*
X3572122Y1034159D1*
X3576876D1*
X3584061Y1036591D1*
X3588869Y1041344D1*
X3591246Y1048529D1*
Y1084399D1*
X3635370Y1077214D2*
X3632993Y1081967D1*
X3625808Y1084344D1*
X3621055D1*
X3613870Y1081967D1*
X3609061Y1074782D1*
X3606685Y1062844D1*
Y1050906D1*
X3609061Y1041344D1*
X3613870Y1036536D1*
X3621055Y1034159D1*
X3623432D1*
X3630561Y1036536D1*
X3635370Y1041344D1*
X3637746Y1048529D1*
Y1050906D1*
X3635370Y1058091D1*
X3630561Y1062844D1*
X3623432Y1065220D1*
X3621055D1*
X3613870Y1062844D1*
X3609061Y1058091D1*
X3606685Y1050906D1*
X881674Y1103148D2*
Y1067278D1*
X884051Y1060093D1*
X888859Y1055340D1*
X896044Y1052908D1*
X900797D1*
X907982Y1055340D1*
X912791Y1060093D1*
X915168Y1067278D1*
Y1103148D1*
X940168Y1052908D2*
X964100Y1103093D1*
X930607D1*
X506955Y1240559D2*
Y1204689D1*
X509332Y1197504D1*
X514140Y1192751D1*
X521325Y1190319D1*
X526078D1*
X533263Y1192751D1*
X538072Y1197504D1*
X540448Y1204689D1*
Y1240559D1*
X567826Y1240504D2*
X560696Y1238127D1*
X558264Y1233374D1*
Y1228566D1*
X560696Y1223812D1*
X565449Y1221381D1*
X575011Y1219004D1*
X582196Y1216627D1*
X586949Y1211819D1*
X589326Y1207066D1*
Y1199881D1*
X586949Y1195127D1*
X584573Y1192696D1*
X577388Y1190319D1*
X567826D1*
X560696Y1192696D1*
X558264Y1195127D1*
X555888Y1199881D1*
Y1207066D1*
X558264Y1211819D1*
X563073Y1216627D1*
X570202Y1219004D1*
X579764Y1221381D1*
X584573Y1223812D1*
X586949Y1228566D1*
Y1233374D1*
X584573Y1238127D1*
X577388Y1240504D1*
X567826D1*
X2376626Y2836774D2*
Y2800904D1*
X2379003Y2793719D1*
X2383811Y2788966D1*
X2390996Y2786534D1*
X2395750D1*
X2402935Y2788966D1*
X2407743Y2793719D1*
X2410120Y2800904D1*
Y2836774D1*
X2456676Y2820028D2*
X2454244Y2812843D1*
X2449491Y2808034D1*
X2442306Y2805658D1*
X2439929D1*
X2432744Y2808034D1*
X2427991Y2812843D1*
X2425559Y2820028D1*
Y2822404D1*
X2427991Y2829589D1*
X2432744Y2834342D1*
X2439929Y2836719D1*
X2442306D1*
X2449491Y2834342D1*
X2454244Y2829589D1*
X2456676Y2820028D1*
Y2808034D1*
X2454244Y2796096D1*
X2449491Y2788911D1*
X2442306Y2786534D1*
X2437552D1*
X2430367Y2788911D1*
X2427991Y2793719D1*
X2942820Y1952222D2*
Y1916352D1*
X2945197Y1909167D1*
X2950005Y1904414D1*
X2957190Y1901982D1*
X2961943D1*
X2969128Y1904414D1*
X2973937Y1909167D1*
X2976313Y1916352D1*
Y1952222D1*
X2991753Y1942605D2*
X2996561Y1945037D1*
X3003746Y1952167D1*
Y1901982D1*
X3033555Y1952167D2*
X3026370Y1949790D1*
X3021562Y1942605D1*
X3019185Y1930667D1*
Y1923482D1*
X3021562Y1911543D1*
X3026370Y1904358D1*
X3033555Y1901982D1*
X3038309D1*
X3045494Y1904358D1*
X3050247Y1911543D1*
X3052679Y1923482D1*
Y1930667D1*
X3050247Y1942605D1*
X3045494Y1949790D1*
X3038309Y1952167D1*
X3033555D1*
X3050247Y1942605D2*
X3021562Y1911543D1*
X3590657Y1716596D2*
Y1680726D1*
X3593033Y1673541D1*
X3597842Y1668788D1*
X3605027Y1666356D1*
X3609780D1*
X3616965Y1668788D1*
X3621773Y1673541D1*
X3624150Y1680726D1*
Y1716596D1*
X3639589Y1706979D2*
X3644398Y1709411D1*
X3651583Y1716541D1*
Y1666356D1*
X3667022Y1706979D2*
X3671830Y1709411D1*
X3679015Y1716541D1*
Y1666356D1*
X1678395Y695587D2*
Y659717D1*
X1680771Y652532D1*
X1685580Y647778D1*
X1692765Y645347D1*
X1697518D1*
X1704703Y647778D1*
X1709512Y652532D1*
X1711888Y659717D1*
Y695587D1*
X1727327Y685970D2*
X1732136Y688402D1*
X1739321Y695531D1*
Y645347D1*
X1757192Y683593D2*
Y685970D1*
X1759569Y690778D1*
X1761945Y693155D1*
X1766754Y695531D1*
X1776315D1*
X1781068Y693155D1*
X1783445Y690778D1*
X1785877Y685970D1*
Y681217D1*
X1783445Y676408D1*
X1778692Y669278D1*
X1754760Y645347D1*
X1788253D1*
X834157Y2252958D2*
Y2217088D1*
X836534Y2209903D1*
X841342Y2205150D1*
X848527Y2202718D1*
X853281D1*
X860466Y2205150D1*
X865274Y2209903D1*
X867651Y2217088D1*
Y2252958D1*
X883090Y2243341D2*
X887898Y2245773D1*
X895083Y2252903D1*
Y2202718D1*
X915331Y2252903D2*
X941584D1*
X927269Y2233779D1*
X934454D1*
X939208Y2231403D1*
X941584Y2229026D1*
X944016Y2221841D1*
Y2217088D1*
X941584Y2209903D1*
X936831Y2205095D1*
X929646Y2202718D1*
X922461D1*
X915331Y2205095D1*
X912954Y2207526D1*
X910523Y2212280D1*
X504521Y2384188D2*
Y2348318D1*
X506898Y2341133D1*
X511707Y2336380D1*
X518892Y2333948D1*
X523645D1*
X530830Y2336380D1*
X535638Y2341133D1*
X538015Y2348318D1*
Y2384188D1*
X553454Y2374571D2*
X558263Y2377003D1*
X565448Y2384132D1*
Y2333948D1*
X604819D2*
Y2384132D1*
X580887Y2350694D1*
X616757D1*
X3402943Y1815500D2*
X3371882D1*
Y1765260D1*
X3402943D1*
X3371882Y1791568D2*
X3391005D1*
X3454253Y1803562D2*
X3451876Y1808315D1*
X3447068Y1813123D1*
X3442314Y1815500D1*
X3432753D1*
X3427944Y1813123D1*
X3423191Y1808315D1*
X3420759Y1803562D1*
X3418383Y1796377D1*
Y1784383D1*
X3420759Y1777253D1*
X3423191Y1772445D1*
X3427944Y1767692D1*
X3432753Y1765260D1*
X3442314D1*
X3447068Y1767692D1*
X3451876Y1772445D1*
X3454253Y1777253D1*
X3486439Y1815500D2*
Y1765260D1*
X3469692Y1815500D2*
X3503185D1*
X3518624Y1784383D2*
X3547309D1*
Y1789192D1*
X3544933Y1794000D1*
X3542556Y1796377D1*
X3537748Y1798753D1*
X3530563D1*
X3525809Y1796377D1*
X3521001Y1791568D1*
X3518624Y1784383D1*
Y1779630D1*
X3521001Y1772445D1*
X3525809Y1767692D1*
X3530563Y1765260D1*
X3537748D1*
X3542556Y1767692D1*
X3547309Y1772445D1*
X3589057Y1791568D2*
X3586680Y1796377D1*
X3579495Y1798753D1*
X3572310D1*
X3565125Y1796377D1*
X3562749Y1791568D1*
X3565125Y1786815D1*
X3569934Y1784383D1*
X3581872Y1782007D1*
X3586680Y1779630D1*
X3589057Y1774822D1*
Y1772445D1*
X3586680Y1767692D1*
X3579495Y1765260D1*
X3572310D1*
X3565125Y1767692D1*
X3562749Y1772445D1*
X3611681Y1815500D2*
Y1774822D1*
X3614058Y1767692D1*
X3618866Y1765260D1*
X3623619D1*
X3604496Y1798753D2*
X3621243D1*
X3034219Y1090500D2*
X3003102D1*
Y1040260D1*
Y1066568D2*
X3022226D1*
X3085528Y1078562D2*
X3083152Y1083315D1*
X3078343Y1088123D1*
X3073590Y1090500D1*
X3064028D1*
X3059220Y1088123D1*
X3054467Y1083315D1*
X3052035Y1078562D1*
X3049658Y1071377D1*
Y1059383D1*
X3052035Y1052253D1*
X3054467Y1047445D1*
X3059220Y1042692D1*
X3064028Y1040260D1*
X3073590D1*
X3078343Y1042692D1*
X3083152Y1047445D1*
X3085528Y1052253D1*
X3117714Y1090500D2*
Y1040260D1*
X3100968Y1090500D2*
X3134461D1*
X3149900Y1059383D2*
X3178585D1*
Y1064192D1*
X3176208Y1069000D1*
X3173832Y1071377D1*
X3169023Y1073753D1*
X3161838D1*
X3157085Y1071377D1*
X3152277Y1066568D1*
X3149900Y1059383D1*
Y1054630D1*
X3152277Y1047445D1*
X3157085Y1042692D1*
X3161838Y1040260D1*
X3169023D1*
X3173832Y1042692D1*
X3178585Y1047445D1*
X3220333Y1066568D2*
X3217956Y1071377D1*
X3210771Y1073753D1*
X3203586D1*
X3196401Y1071377D1*
X3194024Y1066568D1*
X3196401Y1061815D1*
X3201209Y1059383D1*
X3213147Y1057007D1*
X3217956Y1054630D1*
X3220333Y1049822D1*
Y1047445D1*
X3217956Y1042692D1*
X3210771Y1040260D1*
X3203586D1*
X3196401Y1042692D1*
X3194024Y1047445D1*
X3242957Y1090500D2*
Y1049822D1*
X3245333Y1042692D1*
X3250142Y1040260D1*
X3254895D1*
X3235772Y1073753D2*
X3252518D1*
X730922Y583911D2*
D145*
X729971Y585812D1*
X728048Y587736D1*
X726147Y588686D1*
X722322D1*
X720399Y587736D1*
X718497Y585812D1*
X717525Y583911D1*
X716574Y581037D1*
Y576240D1*
X717525Y573388D1*
X718497Y571464D1*
X720399Y569563D1*
X722322Y568590D1*
X726147D1*
X728048Y569563D1*
X729971Y571464D1*
X730922Y573388D1*
Y576240D1*
X726147D1*
X750495Y588686D2*
Y568590D1*
X737098Y588686D1*
Y568590D1*
X756671Y588686D2*
Y568590D1*
X763369D1*
X766244Y569563D1*
X768167Y571464D1*
X769118Y573388D1*
X770068Y576240D1*
Y581037D1*
X769118Y583911D1*
X768167Y585812D1*
X766244Y587736D1*
X763369Y588686D1*
X756671D1*
X917473Y585812D2*
X915571Y587736D1*
X912697Y588686D1*
X908873D1*
X905999Y587736D1*
X904075Y585812D1*
Y583911D1*
X905048Y581988D1*
X905999Y581037D1*
X907900Y580086D1*
X913648Y578163D1*
X915571Y577212D1*
X916522Y576240D1*
X917473Y574338D1*
Y571464D1*
X915571Y569563D1*
X912697Y568590D1*
X908873D1*
X905999Y569563D1*
X904075Y571464D1*
X923648Y588686D2*
X928446Y568590D1*
X933221Y588686D1*
X937996Y568590D1*
X942794Y588686D1*
X963317Y583911D2*
X962367Y585812D1*
X960443Y587736D1*
X958542Y588686D1*
X954718D1*
X952794Y587736D1*
X950893Y585812D1*
X949920Y583911D1*
X948970Y581037D1*
Y576240D1*
X949920Y573388D1*
X950893Y571464D1*
X952794Y569563D1*
X954718Y568590D1*
X958542D1*
X960443Y569563D1*
X962367Y571464D1*
X963317Y573388D1*
X969493Y588686D2*
Y568590D1*
X980967D1*
X987143Y588686D2*
Y568590D1*
X1000540Y588686D2*
X987143Y575289D1*
X991918Y580086D2*
X1000540Y568590D1*
X817471Y588686D2*
Y568590D1*
X804074Y588686D1*
Y568590D1*
X823647Y579114D2*
X832247D1*
X835121Y580086D1*
X836094Y581037D1*
X837044Y582938D1*
Y584862D1*
X836094Y586763D1*
X835121Y587736D1*
X832247Y588686D1*
X823647D1*
Y568590D1*
X830346Y579114D2*
X837044Y568590D1*
X856618Y585812D2*
X854716Y587736D1*
X851842Y588686D1*
X848018D1*
X845144Y587736D1*
X843220Y585812D1*
Y583911D1*
X844193Y581988D1*
X845144Y581037D1*
X847045Y580086D1*
X852793Y578163D1*
X854716Y577212D1*
X855667Y576240D1*
X856618Y574338D1*
Y571464D1*
X854716Y569563D1*
X851842Y568590D1*
X848018D1*
X845144Y569563D1*
X843220Y571464D1*
X869492Y588686D2*
Y568590D1*
X862793Y588686D2*
X876191D1*
X1029970Y585812D2*
X1028069Y587736D1*
X1025195Y588686D1*
X1021370D1*
X1018496Y587736D1*
X1016573Y585812D1*
Y583911D1*
X1017546Y581988D1*
X1018496Y581037D1*
X1020397Y580086D1*
X1026145Y578163D1*
X1028069Y577212D1*
X1029020Y576240D1*
X1029970Y574338D1*
Y571464D1*
X1028069Y569563D1*
X1025195Y568590D1*
X1021370D1*
X1018496Y569563D1*
X1016573Y571464D1*
X1036146Y588686D2*
X1040943Y568590D1*
X1045719Y588686D1*
X1050494Y568590D1*
X1055291Y588686D1*
X1061467D2*
Y568590D1*
X1068166D1*
X1071040Y569563D1*
X1072963Y571464D1*
X1073914Y573388D1*
X1074864Y576240D1*
Y581037D1*
X1073914Y583911D1*
X1072963Y585812D1*
X1071040Y587736D1*
X1068166Y588686D1*
X1061467D1*
X1081040D2*
Y568590D1*
X1092964Y588686D2*
X1091040Y587736D1*
X1089139Y585812D1*
X1088166Y583911D1*
X1087216Y581037D1*
Y576240D1*
X1088166Y573388D1*
X1089139Y571464D1*
X1091040Y569563D1*
X1092964Y568590D1*
X1096788D1*
X1098690Y569563D1*
X1100613Y571464D1*
X1101564Y573388D1*
X1102514Y576240D1*
Y581037D1*
X1101564Y583911D1*
X1100613Y585812D1*
X1098690Y587736D1*
X1096788Y588686D1*
X1092964D1*
X3285773Y532437D2*
Y512341D1*
X3279074Y532437D2*
X3292471D1*
X3298647D2*
X3312044Y512341D1*
Y532437D2*
X3298647Y512341D1*
X3385323Y522864D2*
X3393923D1*
X3396797Y523837D1*
X3397770Y524788D1*
X3398721Y526689D1*
Y528612D1*
X3397770Y530514D1*
X3396797Y531486D1*
X3393923Y532437D1*
X3385323D1*
Y512341D1*
X3392022Y522864D2*
X3398721Y512341D1*
X3404896Y532437D2*
X3418294Y512341D1*
Y532437D2*
X3404896Y512341D1*
X3568497Y532415D2*
X3578999D1*
X3573273Y524766D1*
X3576147D1*
X3578048Y523815D1*
X3578999Y522864D1*
X3579971Y519990D1*
Y518089D1*
X3578999Y515215D1*
X3577097Y513292D1*
X3574223Y512341D1*
X3571349D1*
X3568497Y513292D1*
X3567547Y514264D1*
X3566574Y516166D1*
X3587098Y514264D2*
X3586147Y513292D1*
X3587098Y512341D1*
X3588071Y513292D1*
X3587098Y514264D1*
X3596170Y532415D2*
X3606671D1*
X3600945Y524766D1*
X3603819D1*
X3605720Y523815D1*
X3606671Y522864D1*
X3607644Y519990D1*
Y518089D1*
X3606671Y515215D1*
X3604770Y513292D1*
X3601896Y512341D1*
X3599022D1*
X3596170Y513292D1*
X3595219Y514264D1*
X3594246Y516166D1*
X3613819Y532437D2*
X3621469Y512341D1*
X3629118Y532437D1*
X3480921Y527662D2*
X3479970Y529563D1*
X3478047Y531486D1*
X3476145Y532437D1*
X3472321D1*
X3470397Y531486D1*
X3468496Y529563D1*
X3467523Y527662D1*
X3466573Y524788D1*
Y519990D1*
X3467523Y517138D1*
X3468496Y515215D1*
X3470397Y513314D1*
X3472321Y512341D1*
X3476145D1*
X3478047Y513314D1*
X3479970Y515215D1*
X3480921Y517138D1*
Y519990D1*
X3476145D1*
X3500494Y532437D2*
Y512341D1*
X3487096Y532437D1*
Y512341D1*
X3506670Y532437D2*
Y512341D1*
X3513368D1*
X3516242Y513314D1*
X3518166Y515215D1*
X3519116Y517138D1*
X3520067Y519990D1*
Y524788D1*
X3519116Y527662D1*
X3518166Y529563D1*
X3516242Y531486D1*
X3513368Y532437D1*
X3506670D1*
X4112988Y2550494D2*
D146*
X4110136Y2556198D1*
X4104366Y2561968D1*
X4098662Y2564820D1*
X4087188D1*
X4081418Y2561968D1*
X4075714Y2556198D1*
X4072796Y2550494D1*
X4069944Y2541872D1*
Y2527480D1*
X4072796Y2518924D1*
X4075714Y2513154D1*
X4081418Y2507450D1*
X4087188Y2504532D1*
X4098662D1*
X4104366Y2507450D1*
X4110136Y2513154D1*
X4112988Y2518924D1*
Y2527480D1*
X4098662D1*
X4171707Y2564820D2*
Y2504532D1*
X4131515Y2564820D1*
Y2504532D1*
X4190234Y2564820D2*
Y2504532D1*
X4210330D1*
X4218952Y2507450D1*
X4224722Y2513154D1*
X4227574Y2518924D1*
X4230426Y2527480D1*
Y2541872D1*
X4227574Y2550494D1*
X4224722Y2556198D1*
X4218952Y2561968D1*
X4210330Y2564820D1*
X4190234D1*
X4069944Y2214500D2*
X4095810D1*
X4104366Y2217351D1*
X4107284Y2220270D1*
X4110136Y2225974D1*
Y2234596D1*
X4107284Y2240299D1*
X4104366Y2243218D1*
X4095810Y2246070D1*
X4069944D1*
Y2185782D1*
X4145907Y2246070D2*
X4140137Y2243218D1*
X4134433Y2237447D1*
X4131515Y2231744D1*
X4128663Y2223122D1*
Y2208729D1*
X4131515Y2200174D1*
X4134433Y2194404D1*
X4140137Y2188700D1*
X4145907Y2185782D1*
X4157381D1*
X4163085Y2188700D1*
X4168855Y2194404D1*
X4171707Y2200174D1*
X4174559Y2208729D1*
Y2223122D1*
X4171707Y2231744D1*
X4168855Y2237447D1*
X4163085Y2243218D1*
X4157381Y2246070D1*
X4145907D1*
X4233278Y2237447D2*
X4227574Y2243218D1*
X4218952Y2246070D1*
X4207478D1*
X4198856Y2243218D1*
X4193086Y2237447D1*
Y2231744D1*
X4196004Y2225974D1*
X4198856Y2223122D1*
X4204560Y2220270D1*
X4221804Y2214500D1*
X4227574Y2211648D1*
X4230426Y2208729D1*
X4233278Y2203026D1*
Y2194404D1*
X4227574Y2188700D1*
X4218952Y2185782D1*
X4207478D1*
X4198856Y2188700D1*
X4193086Y2194404D1*
X429074Y2015164D2*
D145*
X437674D1*
X440548Y2016136D1*
X441521Y2017087D1*
X442471Y2018988D1*
Y2020912D1*
X441521Y2022813D1*
X440548Y2023786D1*
X437674Y2024736D1*
X429074D1*
Y2004640D1*
X435773Y2015164D2*
X442471Y2004640D1*
X448647Y2024736D2*
X462044Y2004640D1*
Y2024736D2*
X448647Y2004640D1*
X476820Y2023288D2*
Y2006066D1*
X468220Y2014666D2*
X485442D1*
X429073Y2065153D2*
X437673D1*
X440547Y2066126D1*
X441520Y2067076D1*
X442470Y2068978D1*
Y2070901D1*
X441520Y2072802D1*
X440547Y2073775D1*
X437673Y2074726D1*
X429073D1*
Y2054630D1*
X435771Y2065153D2*
X442470Y2054630D1*
X448646Y2074726D2*
X462043Y2054630D1*
Y2074726D2*
X448646Y2054630D1*
X468219Y2064667D2*
X479273D1*
X435771Y2124715D2*
Y2104619D1*
X429073Y2124715D2*
X442470D1*
X448646D2*
X462043Y2104619D1*
Y2124715D2*
X448646Y2104619D1*
X468219Y2114656D2*
X479273D1*
X416585Y858913D2*
X425185D1*
X428059Y859886D1*
X429031Y860836D1*
X429982Y862738D1*
Y864661D1*
X429031Y866562D1*
X428059Y867535D1*
X425185Y868486D1*
X416585D1*
Y848390D1*
X423283Y858913D2*
X429982Y848390D1*
X436158Y868486D2*
X449555Y848390D1*
Y868486D2*
X436158Y848390D1*
X464331Y867037D2*
Y849816D1*
X455731Y858415D2*
X472953D1*
X416582Y915150D2*
X425182D1*
X428056Y916123D1*
X429029Y917074D1*
X429979Y918975D1*
Y920898D1*
X429029Y922800D1*
X428056Y923772D1*
X425182Y924723D1*
X416582D1*
Y904627D1*
X423281Y915150D2*
X429979Y904627D1*
X436155Y924723D2*
X449552Y904627D1*
Y924723D2*
X436155Y904627D1*
X455728Y914664D2*
X466782D1*
X423281Y974713D2*
Y954617D1*
X416582Y974713D2*
X429979D1*
X436155D2*
X449552Y954617D1*
Y974713D2*
X436155Y954617D1*
X455728Y964654D2*
X466782D1*
X423281Y1018453D2*
Y998357D1*
X416582Y1018453D2*
X429979D1*
X436155D2*
X449552Y998357D1*
Y1018453D2*
X436155Y998357D1*
X464328Y1017005D2*
Y999783D1*
X455728Y1008383D2*
X472950D1*
X430933Y1063667D2*
X429982Y1065568D1*
X428059Y1067492D1*
X426157Y1068442D1*
X422333D1*
X420409Y1067492D1*
X418508Y1065568D1*
X417535Y1063667D1*
X416585Y1060793D1*
Y1055996D1*
X417535Y1053144D1*
X418508Y1051220D1*
X420409Y1049319D1*
X422333Y1048346D1*
X426157D1*
X428059Y1049319D1*
X429982Y1051220D1*
X430933Y1053144D1*
Y1055996D1*
X426157D1*
X450506Y1068442D2*
Y1048346D1*
X437108Y1068442D1*
Y1048346D1*
X456681Y1068442D2*
Y1048346D1*
X463380D1*
X466254Y1049319D1*
X468177Y1051220D1*
X469128Y1053144D1*
X470079Y1055996D1*
Y1060793D1*
X469128Y1063667D1*
X468177Y1065568D1*
X466254Y1067492D1*
X463380Y1068442D1*
X456681D1*
X2254075Y2199715D2*
X2261725Y2179619D1*
X2269374Y2199715D1*
X2275550D2*
Y2179619D1*
X2295123Y2199715D2*
Y2179619D1*
X2281725Y2199715D1*
Y2179619D1*
X2328574Y2199715D2*
X2326651Y2198765D1*
X2324749Y2196841D1*
X2323777Y2194940D1*
X2322826Y2192066D1*
Y2187269D1*
X2323777Y2184417D1*
X2324749Y2182493D1*
X2326651Y2180592D1*
X2328574Y2179619D1*
X2332399D1*
X2334300Y2180592D1*
X2336223Y2182493D1*
X2337174Y2184417D1*
X2338125Y2187269D1*
Y2192066D1*
X2337174Y2194940D1*
X2336223Y2196841D1*
X2334300Y2198765D1*
X2332399Y2199715D1*
X2328574D1*
X2344300D2*
Y2185367D1*
X2345251Y2182493D1*
X2347174Y2180592D1*
X2350048Y2179619D1*
X2351950D1*
X2354824Y2180592D1*
X2356747Y2182493D1*
X2357698Y2185367D1*
Y2199715D1*
X2370572D2*
Y2179619D1*
X2363873Y2199715D2*
X2377271D1*
X2485271Y2205965D2*
X2472825D1*
Y2185869D1*
Y2196392D2*
X2480474D1*
X2491447Y2205965D2*
Y2185869D1*
X2500069D1*
X2502943Y2186841D1*
X2503894Y2187792D1*
X2504845Y2189693D1*
Y2192567D1*
X2503894Y2194491D1*
X2502943Y2195441D1*
X2500069Y2196392D1*
X2502943Y2197365D1*
X2503894Y2198315D1*
X2504845Y2200217D1*
Y2202140D1*
X2503894Y2204041D1*
X2502943Y2205014D1*
X2500069Y2205965D1*
X2491447D1*
Y2196392D2*
X2500069D1*
X3414961Y1045993D2*
Y1025897D1*
X3421660D1*
X3424534Y1026870D1*
X3426457Y1028771D1*
X3427408Y1030695D1*
X3428359Y1033547D1*
Y1038344D1*
X3427408Y1041218D1*
X3426457Y1043119D1*
X3424534Y1045043D1*
X3421660Y1045993D1*
X3414961D1*
X3446959D2*
X3434534D1*
Y1025897D1*
X3446959D1*
X3434534Y1036421D2*
X3442184D1*
X3466532Y1045993D2*
Y1025897D1*
X3453135Y1045993D1*
Y1025897D1*
X3658209Y1052243D2*
X3656286Y1051292D1*
X3654385Y1049369D1*
X3653412Y1047467D1*
X3652461Y1044593D1*
Y1039796D1*
X3653412Y1036944D1*
X3654385Y1035021D1*
X3656286Y1033120D1*
X3658209Y1032147D1*
X3662034D1*
X3663935Y1033120D1*
X3665859Y1035021D1*
X3666809Y1036944D1*
X3667760Y1039796D1*
Y1044593D1*
X3666809Y1047467D1*
X3665859Y1049369D1*
X3663935Y1051292D1*
X3662034Y1052243D1*
X3658209D1*
X3673936D2*
Y1037895D1*
X3674886Y1035021D1*
X3676810Y1033120D1*
X3679684Y1032147D1*
X3681585D1*
X3684459Y1033120D1*
X3686382Y1035021D1*
X3687333Y1037895D1*
Y1052243D1*
X3700207D2*
Y1032147D1*
X3693509Y1052243D2*
X3706906D1*
X1986278Y3651423D2*
X1994900D1*
X1997751Y3652374D1*
X1998724Y3653346D1*
X1999675Y3655248D1*
Y3658122D1*
X1998724Y3660023D1*
X1997751Y3660996D1*
X1994900Y3661946D1*
X1986278D1*
Y3641850D1*
X2011599Y3661946D2*
X2009675Y3660996D1*
X2007774Y3659072D1*
X2006801Y3657171D1*
X2005851Y3654297D1*
Y3649499D1*
X2006801Y3646648D1*
X2007774Y3644724D1*
X2009675Y3642823D1*
X2011599Y3641850D1*
X2015423D1*
X2017325Y3642823D1*
X2019248Y3644724D1*
X2020199Y3646648D1*
X2021149Y3649499D1*
Y3654297D1*
X2020199Y3657171D1*
X2019248Y3659072D1*
X2017325Y3660996D1*
X2015423Y3661946D1*
X2011599D1*
X2040722Y3659072D2*
X2038821Y3660996D1*
X2035947Y3661946D1*
X2032122D1*
X2029248Y3660996D1*
X2027325Y3659072D1*
Y3657171D1*
X2028298Y3655248D1*
X2029248Y3654297D1*
X2031150Y3653346D1*
X2036898Y3651423D1*
X2038821Y3650472D1*
X2039772Y3649499D1*
X2040722Y3647598D1*
Y3644724D1*
X2038821Y3642823D1*
X2035947Y3641850D1*
X2032122D1*
X2029248Y3642823D1*
X2027325Y3644724D1*
X460773Y1787215D2*
Y1767119D1*
X454074Y1787215D2*
X467471D1*
X473647D2*
X487044Y1767119D1*
Y1787215D2*
X473647Y1767119D1*
X3573767Y3643189D2*
Y3623093D1*
X3587164Y3643189D2*
X3573767Y3629792D1*
X3578542Y3634589D2*
X3587164Y3623093D1*
X3593340Y3630742D2*
X3604814D1*
Y3632666D1*
X3603863Y3634589D1*
X3602913Y3635540D1*
X3600989Y3636490D1*
X3598115D1*
X3596214Y3635540D1*
X3594291Y3633616D1*
X3593340Y3630742D1*
Y3628841D1*
X3594291Y3625967D1*
X3596214Y3624066D1*
X3598115Y3623093D1*
X3600989D1*
X3602913Y3624066D1*
X3604814Y3625967D1*
X3611962Y3636490D2*
X3617688Y3623093D1*
X3615787Y3619268D1*
X3613864Y3617345D1*
X3611962Y3616394D1*
X3610990D1*
X3623436Y3636490D2*
X3617688Y3623093D1*
X3640135Y3633616D2*
X3639185Y3635540D1*
X3636311Y3636490D1*
X3633437D1*
X3630563Y3635540D1*
X3629612Y3633616D1*
X3630563Y3631715D1*
X3632486Y3630742D1*
X3637261Y3629792D1*
X3639185Y3628841D1*
X3640135Y3626918D1*
Y3625967D1*
X3639185Y3624066D1*
X3636311Y3623093D1*
X3633437D1*
X3630563Y3624066D1*
X3629612Y3625967D1*
X3646311Y3636490D2*
X3650136Y3623093D1*
X3653960Y3636490D1*
X3657785Y3623093D1*
X3661610Y3636490D1*
X3667785Y3643189D2*
X3668736Y3642238D1*
X3669709Y3643189D1*
X3668736Y3644162D1*
X3667785Y3643189D1*
X3668736Y3636490D2*
Y3623093D1*
X3678759Y3643189D2*
Y3626918D1*
X3679709Y3624066D1*
X3681633Y3623093D1*
X3683534D1*
X3675885Y3636490D2*
X3682583D1*
X3701206Y3633616D2*
X3699282Y3635540D1*
X3697359Y3636490D1*
X3694507D1*
X3692584Y3635540D1*
X3690682Y3633616D1*
X3689710Y3630742D1*
Y3628841D1*
X3690682Y3625967D1*
X3692584Y3624066D1*
X3694507Y3623093D1*
X3697359D1*
X3699282Y3624066D1*
X3701206Y3625967D1*
X3707381Y3643189D2*
Y3623093D1*
Y3632666D2*
X3710255Y3635540D1*
X3712179Y3636490D1*
X3715053D1*
X3716954Y3635540D1*
X3717905Y3632666D1*
Y3623093D1*
X429523Y2174703D2*
Y2154607D1*
X422825Y2174703D2*
X436222D1*
X442398D2*
X455795Y2154607D1*
Y2174703D2*
X442398Y2154607D1*
X470571Y2173255D2*
Y2156033D1*
X461971Y2164633D2*
X479193D1*
X437173Y2219918D2*
X436222Y2221819D1*
X434299Y2223742D1*
X432397Y2224693D1*
X428573D1*
X426649Y2223742D1*
X424748Y2221819D1*
X423775Y2219918D1*
X422825Y2217044D1*
Y2212246D1*
X423775Y2209394D1*
X424748Y2207471D1*
X426649Y2205570D1*
X428573Y2204597D1*
X432397D1*
X434299Y2205570D1*
X436222Y2207471D1*
X437173Y2209394D1*
Y2212246D1*
X432397D1*
X456746Y2224693D2*
Y2204597D1*
X443348Y2224693D1*
Y2204597D1*
X462921Y2224693D2*
Y2204597D1*
X469620D1*
X472494Y2205570D1*
X474418Y2207471D1*
X475368Y2209394D1*
X476319Y2212246D1*
Y2217044D1*
X475368Y2219918D1*
X474418Y2221819D1*
X472494Y2223742D1*
X469620Y2224693D1*
X462921D1*
X1124736Y588664D2*
X1135238D1*
X1129512Y581015D1*
X1132386D1*
X1134287Y580064D1*
X1135238Y579114D1*
X1136210Y576240D1*
Y574338D1*
X1135238Y571464D1*
X1133336Y569541D1*
X1130462Y568590D1*
X1127588D1*
X1124736Y569541D1*
X1123786Y570514D1*
X1122813Y572415D1*
X1142386Y588686D2*
X1150035Y568590D1*
X1157685Y588686D1*
X1165784Y588664D2*
X1176285D1*
X1170559Y581015D1*
X1173433D1*
X1175334Y580064D1*
X1176285Y579114D1*
X1177258Y576240D1*
Y574338D1*
X1176285Y571464D1*
X1174384Y569541D1*
X1171510Y568590D1*
X1168636D1*
X1165784Y569541D1*
X1164833Y570514D1*
X1163860Y572415D1*
X3727043Y1663652D2*
X3725119Y1662702D1*
X3723218Y1660778D1*
X3722245Y1658877D1*
X3721295Y1656003D1*
Y1651206D1*
X3722245Y1648354D1*
X3723218Y1646430D1*
X3725119Y1644529D1*
X3727043Y1643556D1*
X3730867D1*
X3732769Y1644529D1*
X3734692Y1646430D1*
X3735643Y1648354D1*
X3736593Y1651206D1*
Y1656003D1*
X3735643Y1658877D1*
X3734692Y1660778D1*
X3732769Y1662702D1*
X3730867Y1663652D1*
X3727043D1*
X3742769D2*
Y1649304D1*
X3743720Y1646430D1*
X3745643Y1644529D1*
X3748517Y1643556D1*
X3750418D1*
X3753292Y1644529D1*
X3755216Y1646430D1*
X3756166Y1649304D1*
Y1663652D1*
X3769041D2*
Y1643556D1*
X3762342Y1663652D2*
X3775739D1*
X3496212Y1658493D2*
Y1638397D1*
X3502911D1*
X3505785Y1639370D1*
X3507708Y1641271D1*
X3508659Y1643195D1*
X3509609Y1646047D1*
Y1650844D1*
X3508659Y1653718D1*
X3507708Y1655619D1*
X3505785Y1657543D1*
X3502911Y1658493D1*
X3496212D1*
X3528210D2*
X3515785D1*
Y1638397D1*
X3528210D1*
X3515785Y1648921D2*
X3523434D1*
X3547783Y1658493D2*
Y1638397D1*
X3534385Y1658493D1*
Y1638397D1*
X4112988Y1850494D2*
D146*
X4110136Y1856198D1*
X4104366Y1861968D1*
X4098662Y1864820D1*
X4087188D1*
X4081418Y1861968D1*
X4075714Y1856198D1*
X4072796Y1850494D1*
X4069944Y1841872D1*
Y1827480D1*
X4072796Y1818924D1*
X4075714Y1813154D1*
X4081418Y1807450D1*
X4087188Y1804532D1*
X4098662D1*
X4104366Y1807450D1*
X4110136Y1813154D1*
X4112988Y1818924D1*
Y1827480D1*
X4098662D1*
X4171707Y1864820D2*
Y1804532D1*
X4131515Y1864820D1*
Y1804532D1*
X4190234Y1864820D2*
Y1804532D1*
X4210330D1*
X4218952Y1807450D1*
X4224722Y1813154D1*
X4227574Y1818924D1*
X4230426Y1827480D1*
Y1841872D1*
X4227574Y1850494D1*
X4224722Y1856198D1*
X4218952Y1861968D1*
X4210330Y1864820D1*
X4190234D1*
X4069944Y1514501D2*
X4095810D1*
X4104366Y1517353D1*
X4107284Y1520271D1*
X4110136Y1525975D1*
Y1534597D1*
X4107284Y1540301D1*
X4104366Y1543219D1*
X4095810Y1546071D1*
X4069944D1*
Y1485783D1*
X4145907Y1546071D2*
X4140137Y1543219D1*
X4134433Y1537449D1*
X4131515Y1531745D1*
X4128663Y1523123D1*
Y1508731D1*
X4131515Y1500175D1*
X4134433Y1494405D1*
X4140137Y1488701D1*
X4145907Y1485783D1*
X4157381D1*
X4163085Y1488701D1*
X4168855Y1494405D1*
X4171707Y1500175D1*
X4174559Y1508731D1*
Y1523123D1*
X4171707Y1531745D1*
X4168855Y1537449D1*
X4163085Y1543219D1*
X4157381Y1546071D1*
X4145907D1*
X4233278Y1537449D2*
X4227574Y1543219D1*
X4218952Y1546071D1*
X4207478D1*
X4198856Y1543219D1*
X4193086Y1537449D1*
Y1531745D1*
X4196004Y1525975D1*
X4198856Y1523123D1*
X4204560Y1520271D1*
X4221804Y1514501D1*
X4227574Y1511649D1*
X4230426Y1508731D1*
X4233278Y1503027D1*
Y1494405D1*
X4227574Y1488701D1*
X4218952Y1485783D1*
X4207478D1*
X4198856Y1488701D1*
X4193086Y1494405D1*
X4069944Y2914500D2*
X4095810D1*
X4104366Y2917351D1*
X4107284Y2920270D1*
X4110136Y2925974D1*
Y2934596D1*
X4107284Y2940299D1*
X4104366Y2943218D1*
X4095810Y2946070D1*
X4069944D1*
Y2885782D1*
X4145907Y2946070D2*
X4140137Y2943218D1*
X4134433Y2937447D1*
X4131515Y2931744D1*
X4128663Y2923122D1*
Y2908729D1*
X4131515Y2900174D1*
X4134433Y2894404D1*
X4140137Y2888700D1*
X4145907Y2885782D1*
X4157381D1*
X4163085Y2888700D1*
X4168855Y2894404D1*
X4171707Y2900174D1*
X4174559Y2908729D1*
Y2923122D1*
X4171707Y2931744D1*
X4168855Y2937447D1*
X4163085Y2943218D1*
X4157381Y2946070D1*
X4145907D1*
X4233278Y2937447D2*
X4227574Y2943218D1*
X4218952Y2946070D1*
X4207478D1*
X4198856Y2943218D1*
X4193086Y2937447D1*
Y2931744D1*
X4196004Y2925974D1*
X4198856Y2923122D1*
X4204560Y2920270D1*
X4221804Y2914500D1*
X4227574Y2911648D1*
X4230426Y2908729D1*
X4233278Y2903026D1*
Y2894404D1*
X4227574Y2888700D1*
X4218952Y2885782D1*
X4207478D1*
X4198856Y2888700D1*
X4193086Y2894404D1*
X4112988Y3250496D2*
X4110136Y3256199D1*
X4104366Y3261970D1*
X4098662Y3264821D1*
X4087188D1*
X4081418Y3261970D1*
X4075714Y3256199D1*
X4072796Y3250496D1*
X4069944Y3241874D1*
Y3227481D1*
X4072796Y3218926D1*
X4075714Y3213156D1*
X4081418Y3207452D1*
X4087188Y3204533D1*
X4098662D1*
X4104366Y3207452D1*
X4110136Y3213156D1*
X4112988Y3218926D1*
Y3227481D1*
X4098662D1*
X4171707Y3264821D2*
Y3204533D1*
X4131515Y3264821D1*
Y3204533D1*
X4190234Y3264821D2*
Y3204533D1*
X4210330D1*
X4218952Y3207452D1*
X4224722Y3213156D1*
X4227574Y3218926D1*
X4230426Y3227481D1*
Y3241874D1*
X4227574Y3250496D1*
X4224722Y3256199D1*
X4218952Y3261970D1*
X4210330Y3264821D1*
X4190234D1*
X4112988Y1250494D2*
X4110136Y1256198D1*
X4104366Y1261968D1*
X4098662Y1264820D1*
X4087188D1*
X4081418Y1261968D1*
X4075714Y1256198D1*
X4072796Y1250494D1*
X4069944Y1241872D1*
Y1227480D1*
X4072796Y1218924D1*
X4075714Y1213154D1*
X4081418Y1207450D1*
X4087188Y1204532D1*
X4098662D1*
X4104366Y1207450D1*
X4110136Y1213154D1*
X4112988Y1218924D1*
Y1227480D1*
X4098662D1*
X4171707Y1264820D2*
Y1204532D1*
X4131515Y1264820D1*
Y1204532D1*
X4190234Y1264820D2*
Y1204532D1*
X4210330D1*
X4218952Y1207450D1*
X4224722Y1213154D1*
X4227574Y1218924D1*
X4230426Y1227480D1*
Y1241872D1*
X4227574Y1250494D1*
X4224722Y1256198D1*
X4218952Y1261968D1*
X4210330Y1264820D1*
X4190234D1*
X4069944Y889501D2*
X4095810D1*
X4104366Y892353D1*
X4107284Y895271D1*
X4110136Y900975D1*
Y909597D1*
X4107284Y915301D1*
X4104366Y918219D1*
X4095810Y921071D1*
X4069944D1*
Y860783D1*
X4145907Y921071D2*
X4140137Y918219D1*
X4134433Y912449D1*
X4131515Y906745D1*
X4128663Y898123D1*
Y883731D1*
X4131515Y875175D1*
X4134433Y869405D1*
X4140137Y863701D1*
X4145907Y860783D1*
X4157381D1*
X4163085Y863701D1*
X4168855Y869405D1*
X4171707Y875175D1*
X4174559Y883731D1*
Y898123D1*
X4171707Y906745D1*
X4168855Y912449D1*
X4163085Y918219D1*
X4157381Y921071D1*
X4145907D1*
X4233278Y912449D2*
X4227574Y918219D1*
X4218952Y921071D1*
X4207478D1*
X4198856Y918219D1*
X4193086Y912449D1*
Y906745D1*
X4196004Y900975D1*
X4198856Y898123D1*
X4204560Y895271D1*
X4221804Y889501D1*
X4227574Y886649D1*
X4230426Y883731D1*
X4233278Y878027D1*
Y869405D1*
X4227574Y863701D1*
X4218952Y860783D1*
X4207478D1*
X4198856Y863701D1*
X4193086Y869405D1*
X462174Y1576192D2*
D145*
X461223Y1578093D1*
X459300Y1580017D1*
X457399Y1580967D1*
X453574D1*
X451651Y1580017D1*
X449749Y1578093D1*
X448777Y1576192D1*
X447826Y1573318D1*
Y1568520D1*
X448777Y1565669D1*
X449749Y1563745D1*
X451651Y1561844D1*
X453574Y1560871D1*
X457399D1*
X459300Y1561844D1*
X461223Y1563745D1*
X462174Y1565669D1*
Y1568520D1*
X457399D1*
X481747Y1580967D2*
Y1560871D1*
X468350Y1580967D1*
Y1560871D1*
X487923Y1580967D2*
Y1560871D1*
X494621D1*
X497495Y1561844D1*
X499419Y1563745D1*
X500369Y1565669D1*
X501320Y1568520D1*
Y1573318D1*
X500369Y1576192D1*
X499419Y1578093D1*
X497495Y1580017D1*
X494621Y1580967D1*
X487923D1*
X3616070Y2775501D2*
D146*
X3676358D1*
Y2801367D1*
X3673439Y2809989D1*
X3670588Y2812841D1*
X3664884Y2815693D1*
X3656262D1*
X3650492Y2812841D1*
X3647640Y2809989D1*
X3644788Y2801367D1*
X3641869Y2809989D1*
X3639018Y2812841D1*
X3633314Y2815693D1*
X3627544D1*
X3621840Y2812841D1*
X3618922Y2809989D1*
X3616070Y2801367D1*
Y2775501D1*
X3644788D2*
Y2801367D1*
X3636166Y2868642D2*
X3676358D1*
X3644788D2*
X3639018Y2862938D1*
X3636166Y2857168D1*
Y2848612D1*
X3639018Y2842842D1*
X3644788Y2837138D1*
X3653410Y2834220D1*
X3659114D1*
X3667736Y2837138D1*
X3673439Y2842842D1*
X3676358Y2848612D1*
Y2857168D1*
X3673439Y2862938D1*
X3667736Y2868642D1*
X3616070Y2895791D2*
X3664884D1*
X3673439Y2898643D1*
X3676358Y2904413D1*
Y2910117D1*
X3636166Y2887169D2*
Y2907265D1*
X3630395Y3030009D2*
X3624692Y3027157D1*
X3618922Y3021387D1*
X3616070Y3015683D1*
Y3004209D1*
X3618922Y2998439D1*
X3624692Y2992735D1*
X3630395Y2989817D1*
X3639018Y2986965D1*
X3653410D1*
X3661965Y2989817D1*
X3667736Y2992735D1*
X3673439Y2998439D1*
X3676358Y3004209D1*
Y3015683D1*
X3673439Y3021387D1*
X3667736Y3027157D1*
X3661965Y3030009D1*
X3616070Y3048536D2*
X3676358D1*
X3647640D2*
X3639018Y3057158D1*
X3636166Y3062928D1*
Y3071550D1*
X3639018Y3077254D1*
X3647640Y3080106D1*
X3676358D1*
X3636166Y3133055D2*
X3676358D1*
X3644788D2*
X3639018Y3127351D1*
X3636166Y3121581D1*
Y3113025D1*
X3639018Y3107255D1*
X3644788Y3101551D1*
X3653410Y3098633D1*
X3659114D1*
X3667736Y3101551D1*
X3673439Y3107255D1*
X3676358Y3113025D1*
Y3121581D1*
X3673439Y3127351D1*
X3667736Y3133055D1*
X3636166Y3151582D2*
X3676358D1*
X3653410D2*
X3644788Y3154500D1*
X3639018Y3160204D1*
X3636166Y3165974D1*
Y3174596D1*
X3639018Y3227545D2*
X3684980D1*
X3693535Y3224693D1*
X3696454Y3221841D1*
X3699306Y3216071D1*
Y3207449D1*
X3696454Y3201745D1*
X3647640Y3227545D2*
X3641936Y3221841D1*
X3639018Y3216071D1*
Y3207449D1*
X3641936Y3201745D1*
X3647640Y3195975D1*
X3656262Y3193123D1*
X3662032D1*
X3670587Y3195975D1*
X3676358Y3201745D1*
X3679210Y3207449D1*
Y3216071D1*
X3676358Y3221841D1*
X3670587Y3227545D1*
X3653410Y3246072D2*
Y3280494D1*
X3647640D1*
X3641869Y3277642D1*
X3639018Y3274790D1*
X3636166Y3269020D1*
Y3260398D1*
X3639018Y3254694D1*
X3644788Y3248924D1*
X3653410Y3246072D1*
X3659114D1*
X3667736Y3248924D1*
X3673439Y3254694D1*
X3676358Y3260398D1*
Y3269020D1*
X3673439Y3274790D1*
X3667736Y3280494D1*
X3616070Y2375502D2*
X3676358D1*
Y2401368D1*
X3673439Y2409990D1*
X3670588Y2412842D1*
X3664884Y2415694D1*
X3656262D1*
X3650492Y2412842D1*
X3647640Y2409990D1*
X3644788Y2401368D1*
X3641869Y2409990D1*
X3639018Y2412842D1*
X3633314Y2415694D1*
X3627544D1*
X3621840Y2412842D1*
X3618922Y2409990D1*
X3616070Y2401368D1*
Y2375502D1*
X3644788D2*
Y2401368D1*
X3636166Y2468643D2*
X3676358D1*
X3644788D2*
X3639018Y2462939D1*
X3636166Y2457169D1*
Y2448613D1*
X3639018Y2442843D1*
X3644788Y2437139D1*
X3653410Y2434221D1*
X3659114D1*
X3667736Y2437139D1*
X3673439Y2442843D1*
X3676358Y2448613D1*
Y2457169D1*
X3673439Y2462939D1*
X3667736Y2468643D1*
X3616070Y2495792D2*
X3664884D1*
X3673439Y2498644D1*
X3676358Y2504414D1*
Y2510118D1*
X3636166Y2487170D2*
Y2507266D1*
X3415520Y1962092D2*
X3378246D1*
Y1901804D1*
X3415520D1*
X3378246Y1933374D2*
X3401194D1*
X3477091Y1947766D2*
X3474239Y1953470D1*
X3468469Y1959240D1*
X3462765Y1962092D1*
X3451291D1*
X3445521Y1959240D1*
X3439817Y1953470D1*
X3436899Y1947766D1*
X3434047Y1939144D1*
Y1924752D1*
X3436899Y1916196D1*
X3439817Y1910426D1*
X3445521Y1904722D1*
X3451291Y1901804D1*
X3462765D1*
X3468469Y1904722D1*
X3474239Y1910426D1*
X3477091Y1916196D1*
X3553939Y1930522D2*
X3579805D1*
X3588361Y1933374D1*
X3591279Y1936292D1*
X3594131Y1941996D1*
Y1950618D1*
X3591279Y1956322D1*
X3588361Y1959240D1*
X3579805Y1962092D1*
X3553939D1*
Y1901804D1*
X3626984Y1941996D2*
X3621280Y1939144D1*
X3615510Y1933374D1*
X3612658Y1924752D1*
Y1919048D1*
X3615510Y1910426D1*
X3621280Y1904722D1*
X3626984Y1901804D1*
X3635606D1*
X3641376Y1904722D1*
X3647080Y1910426D1*
X3649998Y1919048D1*
Y1924752D1*
X3647080Y1933374D1*
X3641376Y1939144D1*
X3635606Y1941996D1*
X3626984D1*
X3668525D2*
X3679999Y1901804D1*
X3691473Y1941996D1*
X3702947Y1901804D1*
X3714421Y1941996D1*
X3732948Y1924752D2*
X3767370D1*
Y1930522D1*
X3764518Y1936292D1*
X3761666Y1939144D1*
X3755896Y1941996D1*
X3747274D1*
X3741570Y1939144D1*
X3735800Y1933374D1*
X3732948Y1924752D1*
Y1919048D1*
X3735800Y1910426D1*
X3741570Y1904722D1*
X3747274Y1901804D1*
X3755896D1*
X3761666Y1904722D1*
X3767370Y1910426D1*
X3785897Y1941996D2*
Y1901804D1*
Y1924752D2*
X3788815Y1933374D1*
X3794519Y1939144D1*
X3800289Y1941996D1*
X3808911D1*
X4146804Y674626D2*
X4109464D1*
Y614338D1*
Y645908D2*
X4132412D1*
X4208375Y660300D2*
X4205523Y666004D1*
X4199753Y671774D1*
X4194049Y674626D1*
X4182575D1*
X4176805Y671774D1*
X4171101Y666004D1*
X4168183Y660300D1*
X4165331Y651678D1*
Y637286D1*
X4168183Y628730D1*
X4171101Y622960D1*
X4176805Y617256D1*
X4182575Y614338D1*
X4194049D1*
X4199753Y617256D1*
X4205523Y622960D1*
X4208375Y628730D1*
X4285223Y643056D2*
X4311089D1*
X4319645Y645908D1*
X4322563Y648826D1*
X4325415Y654530D1*
Y663152D1*
X4322563Y668856D1*
X4319645Y671774D1*
X4311089Y674626D1*
X4285223D1*
Y614338D1*
X4358268Y654530D2*
X4352564Y651678D1*
X4346794Y645908D1*
X4343942Y637286D1*
Y631582D1*
X4346794Y622960D1*
X4352564Y617256D1*
X4358268Y614338D1*
X4366890D1*
X4372660Y617256D1*
X4378364Y622960D1*
X4381282Y631582D1*
Y637286D1*
X4378364Y645908D1*
X4372660Y651678D1*
X4366890Y654530D1*
X4358268D1*
X4399809D2*
X4411283Y614338D1*
X4422757Y654530D1*
X4434231Y614338D1*
X4445705Y654530D1*
X4464232Y637286D2*
X4498654D1*
Y643056D1*
X4495802Y648826D1*
X4492950Y651678D1*
X4487180Y654530D1*
X4478558D1*
X4472854Y651678D1*
X4467084Y645908D1*
X4464232Y637286D1*
Y631582D1*
X4467084Y622960D1*
X4472854Y617256D1*
X4478558Y614338D1*
X4487180D1*
X4492950Y617256D1*
X4498654Y622960D1*
X4517181Y654530D2*
Y614338D1*
Y637286D2*
X4520100Y645908D1*
X4525803Y651678D1*
X4531574Y654530D1*
X4540196D1*
X507746Y1333225D2*
D144*
X476629D1*
Y1282985D1*
Y1309293D2*
X495752D1*
X559055Y1321287D2*
X556678Y1326040D1*
X551870Y1330848D1*
X547117Y1333225D1*
X537555D1*
X532746Y1330848D1*
X527993Y1326040D1*
X525561Y1321287D1*
X523185Y1314102D1*
Y1302108D1*
X525561Y1294979D1*
X527993Y1290170D1*
X532746Y1285417D1*
X537555Y1282985D1*
X547117D1*
X551870Y1285417D1*
X556678Y1290170D1*
X559055Y1294979D1*
X461223Y1680966D2*
D145*
Y1660870D1*
X447826Y1680966D1*
Y1660870D1*
X481747Y1676191D2*
X480796Y1678092D1*
X478873Y1680015D1*
X476972Y1680966D1*
X473147D1*
X471224Y1680015D1*
X469322Y1678092D1*
X468350Y1676191D1*
X467399Y1673317D1*
Y1668519D1*
X468350Y1665667D1*
X469322Y1663744D1*
X471224Y1661843D1*
X473147Y1660870D1*
X476972D1*
X478873Y1661843D1*
X480796Y1663744D1*
X481747Y1665667D1*
X538928Y2470783D2*
D144*
X507866D1*
Y2420543D1*
X538928D1*
X507866Y2446851D2*
X526990D1*
X590237Y2458845D2*
X587860Y2463598D1*
X583052Y2468406D1*
X578299Y2470783D1*
X568737D1*
X563929Y2468406D1*
X559176Y2463598D1*
X556744Y2458845D1*
X554367Y2451660D1*
Y2439666D1*
X556744Y2432536D1*
X559176Y2427728D1*
X563929Y2422975D1*
X568737Y2420543D1*
X578299D1*
X583052Y2422975D1*
X587860Y2427728D1*
X590237Y2432536D1*
X2088115Y3657171D2*
D145*
X2087164Y3659072D1*
X2085241Y3660996D1*
X2083340Y3661946D1*
X2079515D1*
X2077592Y3660996D1*
X2075690Y3659072D1*
X2074718Y3657171D1*
X2073767Y3654297D1*
Y3649499D1*
X2074718Y3646648D1*
X2075690Y3644724D1*
X2077592Y3642823D1*
X2079515Y3641850D1*
X2083340D1*
X2085241Y3642823D1*
X2087164Y3644724D1*
X2088115Y3646648D1*
Y3649499D1*
X2083340D1*
X2107688Y3661946D2*
Y3641850D1*
X2094291Y3661946D1*
Y3641850D1*
X2113864Y3661946D2*
Y3641850D1*
X2120562D1*
X2123436Y3642823D1*
X2125360Y3644724D1*
X2126310Y3646648D1*
X2127261Y3649499D1*
Y3654297D1*
X2126310Y3657171D1*
X2125360Y3659072D1*
X2123436Y3660996D1*
X2120562Y3661946D1*
X2113864D1*
X2248750Y3570181D2*
X2257372D1*
X2260224Y3571132D1*
X2261197Y3572105D1*
X2262147Y3574006D1*
Y3576880D1*
X2261197Y3578781D1*
X2260224Y3579754D1*
X2257372Y3580705D1*
X2248750D1*
Y3560609D1*
X2273098Y3574006D2*
X2271197Y3573055D1*
X2269274Y3571132D1*
X2268323Y3568258D1*
Y3566357D1*
X2269274Y3563483D1*
X2271197Y3561581D1*
X2273098Y3560609D1*
X2275972D1*
X2277896Y3561581D1*
X2279797Y3563483D1*
X2280770Y3566357D1*
Y3568258D1*
X2279797Y3571132D1*
X2277896Y3573055D1*
X2275972Y3574006D1*
X2273098D1*
X2286945D2*
X2290770Y3560609D1*
X2294595Y3574006D1*
X2298419Y3560609D1*
X2302244Y3574006D1*
X2308420Y3568258D2*
X2319894D1*
Y3570181D1*
X2318943Y3572105D1*
X2317992Y3573055D1*
X2316069Y3574006D1*
X2313195D1*
X2311294Y3573055D1*
X2309370Y3571132D1*
X2308420Y3568258D1*
Y3566357D1*
X2309370Y3563483D1*
X2311294Y3561581D1*
X2313195Y3560609D1*
X2316069D1*
X2317992Y3561581D1*
X2319894Y3563483D1*
X2326069Y3574006D2*
Y3560609D1*
Y3568258D2*
X2327042Y3571132D1*
X2328943Y3573055D1*
X2330867Y3574006D1*
X2333741D1*
X2359357Y3580705D2*
Y3560609D1*
X2370831D1*
X2389431Y3580705D2*
X2377007D1*
Y3560609D1*
X2389431D1*
X2377007Y3571132D2*
X2384656D1*
X2395607Y3580705D2*
Y3560609D1*
X2402305D1*
X2405179Y3561581D1*
X2407103Y3563483D1*
X2408053Y3565406D1*
X2409004Y3568258D1*
Y3573055D1*
X2408053Y3575929D1*
X2407103Y3577831D1*
X2405179Y3579754D1*
X2402305Y3580705D1*
X2395607D1*
X1229961Y585812D2*
X1228060Y587736D1*
X1225186Y588686D1*
X1221361D1*
X1218487Y587736D1*
X1216564Y585812D1*
Y583911D1*
X1217536Y581988D1*
X1218487Y581037D1*
X1220388Y580086D1*
X1226136Y578163D1*
X1228060Y577212D1*
X1229010Y576240D1*
X1229961Y574338D1*
Y571464D1*
X1228060Y569563D1*
X1225186Y568590D1*
X1221361D1*
X1218487Y569563D1*
X1216564Y571464D1*
X1236137Y588686D2*
X1240934Y568590D1*
X1245709Y588686D1*
X1250485Y568590D1*
X1255282Y588686D1*
X1267206D2*
X1265282Y587736D1*
X1263381Y585812D1*
X1262408Y583911D1*
X1261458Y581037D1*
Y576240D1*
X1262408Y573388D1*
X1263381Y571464D1*
X1265282Y569563D1*
X1267206Y568590D1*
X1271030D1*
X1272932Y569563D1*
X1274855Y571464D1*
X1275806Y573388D1*
X1276756Y576240D1*
Y581037D1*
X1275806Y583911D1*
X1274855Y585812D1*
X1272932Y587736D1*
X1271030Y588686D1*
X1267206D1*
X981873Y2374840D2*
Y2394936D1*
X974223Y2374840D1*
X966574Y2394936D1*
Y2374840D1*
X988048Y2394936D2*
Y2374840D1*
X1007621Y2392062D2*
X1005720Y2393985D1*
X1002846Y2394936D1*
X999022D1*
X996147Y2393985D1*
X994224Y2392062D1*
Y2390160D1*
X995197Y2388237D1*
X996147Y2387286D1*
X998049Y2386336D1*
X1003797Y2384412D1*
X1005720Y2383462D1*
X1006671Y2382489D1*
X1007621Y2380588D1*
Y2377714D1*
X1005720Y2375812D1*
X1002846Y2374840D1*
X999022D1*
X996147Y2375812D1*
X994224Y2377714D1*
X1019545Y2394936D2*
X1017622Y2393985D1*
X1015721Y2392062D1*
X1014748Y2390160D1*
X1013797Y2387286D1*
Y2382489D1*
X1014748Y2379637D1*
X1015721Y2377714D1*
X1017622Y2375812D1*
X1019545Y2374840D1*
X1023370D1*
X1025271Y2375812D1*
X1027194Y2377714D1*
X1028145Y2379637D1*
X1029096Y2382489D1*
Y2387286D1*
X1028145Y2390160D1*
X1027194Y2392062D1*
X1025271Y2393985D1*
X1023370Y2394936D1*
X1019545D1*
X1075622Y2306090D2*
Y2326186D1*
X1067973Y2306090D1*
X1060323Y2326186D1*
Y2306090D1*
X1087546Y2326186D2*
X1085622Y2325236D1*
X1083721Y2323312D1*
X1082748Y2321411D1*
X1081798Y2318537D1*
Y2313740D1*
X1082748Y2310888D1*
X1083721Y2308964D1*
X1085622Y2307063D1*
X1087546Y2306090D1*
X1091370D1*
X1093272Y2307063D1*
X1095195Y2308964D1*
X1096146Y2310888D1*
X1097096Y2313740D1*
Y2318537D1*
X1096146Y2321411D1*
X1095195Y2323312D1*
X1093272Y2325236D1*
X1091370Y2326186D1*
X1087546D1*
X1116669Y2323312D2*
X1114768Y2325236D1*
X1111894Y2326186D1*
X1108069D1*
X1105195Y2325236D1*
X1103272Y2323312D1*
Y2321411D1*
X1104245Y2319488D1*
X1105195Y2318537D1*
X1107097Y2317586D1*
X1112845Y2315663D1*
X1114768Y2314712D1*
X1115719Y2313740D1*
X1116669Y2311838D1*
Y2308964D1*
X1114768Y2307063D1*
X1111894Y2306090D1*
X1108069D1*
X1105195Y2307063D1*
X1103272Y2308964D1*
X1122845Y2326186D2*
Y2306090D1*
X1179971Y2385812D2*
X1178070Y2387736D1*
X1175196Y2388686D1*
X1171372D1*
X1168497Y2387736D1*
X1166574Y2385812D1*
Y2383911D1*
X1167547Y2381988D1*
X1168497Y2381037D1*
X1170399Y2380086D1*
X1176147Y2378163D1*
X1178070Y2377212D1*
X1179021Y2376240D1*
X1179971Y2374338D1*
Y2371464D1*
X1178070Y2369563D1*
X1175196Y2368590D1*
X1171372D1*
X1168497Y2369563D1*
X1166574Y2371464D1*
X1200495Y2383911D2*
X1199544Y2385812D1*
X1197621Y2387736D1*
X1195720Y2388686D1*
X1191895D1*
X1189972Y2387736D1*
X1188071Y2385812D1*
X1187098Y2383911D1*
X1186147Y2381037D1*
Y2376240D1*
X1187098Y2373388D1*
X1188071Y2371464D1*
X1189972Y2369563D1*
X1191895Y2368590D1*
X1195720D1*
X1197621Y2369563D1*
X1199544Y2371464D1*
X1200495Y2373388D1*
X1206671Y2388686D2*
Y2368590D1*
X1220068Y2388686D2*
X1206671Y2375289D1*
X1211446Y2380086D2*
X1220068Y2368590D1*
X1298721Y2376186D2*
Y2356090D1*
X1285323Y2376186D1*
Y2356090D1*
X1318294Y2373312D2*
X1316393Y2375236D1*
X1313519Y2376186D1*
X1309694D1*
X1306820Y2375236D1*
X1304896Y2373312D1*
Y2371411D1*
X1305869Y2369488D1*
X1306820Y2368537D1*
X1308721Y2367586D1*
X1314469Y2365663D1*
X1316393Y2364712D1*
X1317343Y2363740D1*
X1318294Y2361838D1*
Y2358964D1*
X1316393Y2357063D1*
X1313519Y2356090D1*
X1309694D1*
X1306820Y2357063D1*
X1304896Y2358964D1*
X1337867Y2373312D2*
X1335966Y2375236D1*
X1333092Y2376186D1*
X1329267D1*
X1326393Y2375236D1*
X1324470Y2373312D1*
Y2371411D1*
X1325442Y2369488D1*
X1326393Y2368537D1*
X1328294Y2367586D1*
X1334042Y2365663D1*
X1335966Y2364712D1*
X1336916Y2363740D1*
X1337867Y2361838D1*
Y2358964D1*
X1335966Y2357063D1*
X1333092Y2356090D1*
X1329267D1*
X1326393Y2357063D1*
X1324470Y2358964D1*
X1391574Y2435363D2*
X1400174D1*
X1403048Y2436336D1*
X1404021Y2437286D1*
X1404971Y2439188D1*
Y2441111D1*
X1404021Y2443012D1*
X1403048Y2443985D1*
X1400174Y2444936D1*
X1391574D1*
Y2424840D1*
X1398273Y2435363D2*
X1404971Y2424840D1*
X1422621Y2438237D2*
Y2424840D1*
Y2435363D2*
X1420720Y2437286D1*
X1418796Y2438237D1*
X1415945D1*
X1414021Y2437286D1*
X1412120Y2435363D1*
X1411147Y2432489D1*
Y2430588D1*
X1412120Y2427714D1*
X1414021Y2425812D1*
X1415945Y2424840D1*
X1418796D1*
X1420720Y2425812D1*
X1422621Y2427714D1*
X1440271Y2444936D2*
Y2424840D1*
Y2435363D2*
X1438369Y2437286D1*
X1436446Y2438237D1*
X1433572D1*
X1431671Y2437286D1*
X1429747Y2435363D1*
X1428797Y2432489D1*
Y2430588D1*
X1429747Y2427714D1*
X1431671Y2425812D1*
X1433572Y2424840D1*
X1436446D1*
X1438369Y2425812D1*
X1440271Y2427714D1*
X1446446Y2444936D2*
X1447397Y2443985D1*
X1448370Y2444936D1*
X1447397Y2445908D1*
X1446446Y2444936D1*
X1447397Y2438237D2*
Y2424840D1*
X1459321Y2438237D2*
X1457420Y2437286D1*
X1455496Y2435363D1*
X1454546Y2432489D1*
Y2430588D1*
X1455496Y2427714D1*
X1457420Y2425812D1*
X1459321Y2424840D1*
X1462195D1*
X1464118Y2425812D1*
X1466019Y2427714D1*
X1466992Y2430588D1*
Y2432489D1*
X1466019Y2435363D1*
X1464118Y2437286D1*
X1462195Y2438237D1*
X1459321D1*
X1473168Y2435363D2*
X1481768D1*
X1484642Y2436336D1*
X1485615Y2437286D1*
X1486565Y2439188D1*
Y2441111D1*
X1485615Y2443012D1*
X1484642Y2443985D1*
X1481768Y2444936D1*
X1473168D1*
Y2424840D1*
X1479867Y2435363D2*
X1486565Y2424840D1*
X1492741Y2432489D2*
X1504215D1*
Y2434412D1*
X1503264Y2436336D1*
X1502314Y2437286D1*
X1500390Y2438237D1*
X1497516D1*
X1495615Y2437286D1*
X1493692Y2435363D1*
X1492741Y2432489D1*
Y2430588D1*
X1493692Y2427714D1*
X1495615Y2425812D1*
X1497516Y2424840D1*
X1500390D1*
X1502314Y2425812D1*
X1504215Y2427714D1*
X1520914Y2435363D2*
X1519963Y2437286D1*
X1517089Y2438237D1*
X1514215D1*
X1511341Y2437286D1*
X1510391Y2435363D1*
X1511341Y2433462D1*
X1513265Y2432489D1*
X1518040Y2431538D1*
X1519963Y2430588D1*
X1520914Y2428664D1*
Y2427714D1*
X1519963Y2425812D1*
X1517089Y2424840D1*
X1514215D1*
X1511341Y2425812D1*
X1510391Y2427714D1*
X1527090Y2432489D2*
X1538564D1*
Y2434412D1*
X1537613Y2436336D1*
X1536662Y2437286D1*
X1534739Y2438237D1*
X1531865D1*
X1529964Y2437286D1*
X1528040Y2435363D1*
X1527090Y2432489D1*
Y2430588D1*
X1528040Y2427714D1*
X1529964Y2425812D1*
X1531865Y2424840D1*
X1534739D1*
X1536662Y2425812D1*
X1538564Y2427714D1*
X1547613Y2444936D2*
Y2428664D1*
X1548564Y2425812D1*
X1550487Y2424840D1*
X1552389D1*
X1544739Y2438237D2*
X1551438D1*
X3291521Y776185D2*
X3279074D1*
Y756089D1*
Y766612D2*
X3286723D1*
X3312044Y771410D2*
X3311094Y773311D1*
X3309170Y775234D1*
X3307269Y776185D1*
X3303445D1*
X3301521Y775234D1*
X3299620Y773311D1*
X3298647Y771410D1*
X3297697Y768536D1*
Y763738D1*
X3298647Y760886D1*
X3299620Y758963D1*
X3301521Y757062D1*
X3303445Y756089D1*
X3307269D1*
X3309170Y757062D1*
X3311094Y758963D1*
X3312044Y760886D1*
X3318220Y752773D2*
X3336393D1*
X3355966Y773311D2*
X3354065Y775234D1*
X3351191Y776185D1*
X3347366D1*
X3344492Y775234D1*
X3342569Y773311D1*
Y771410D1*
X3343541Y769486D1*
X3344492Y768536D1*
X3346393Y767585D1*
X3352141Y765662D1*
X3354065Y764711D1*
X3355015Y763738D1*
X3355966Y761837D1*
Y758963D1*
X3354065Y757062D1*
X3351191Y756089D1*
X3347366D1*
X3344492Y757062D1*
X3342569Y758963D1*
X3362142Y769486D2*
X3365966Y756089D1*
X3369791Y769486D1*
X3373615Y756089D1*
X3377440Y769486D1*
X3383616Y776185D2*
X3384566Y775234D1*
X3385539Y776185D1*
X3384566Y777158D1*
X3383616Y776185D1*
X3384566Y769486D2*
Y756089D1*
X3394589Y776185D2*
Y759914D1*
X3395540Y757062D1*
X3397463Y756089D1*
X3399364D1*
X3391715Y769486D2*
X3398414D1*
X3417036Y766612D2*
X3415113Y768536D1*
X3413189Y769486D1*
X3410337D1*
X3408414Y768536D1*
X3406513Y766612D1*
X3405540Y763738D1*
Y761837D1*
X3406513Y758963D1*
X3408414Y757062D1*
X3410337Y756089D1*
X3413189D1*
X3415113Y757062D1*
X3417036Y758963D1*
X3423212Y776185D2*
Y756089D1*
Y765662D2*
X3426086Y768536D1*
X3428009Y769486D1*
X3430883D1*
X3432784Y768536D1*
X3433735Y765662D1*
Y756089D1*
X1633391Y2588549D2*
D148*
Y2519661D1*
X1598991Y2554061D2*
X1667879D1*
X2777740Y1453307D2*
X2708853D1*
X2743252Y1487707D2*
Y1418819D1*
X2631674Y808084D2*
Y876972D1*
X2666074Y842572D2*
X2597186D1*
M02*
