%TF.GenerationSoftware,Novarm,DipTrace,3.3.0.1*%
%TF.CreationDate,2018-11-14T10:13:02-08:00*%
%FSLAX26Y26*%
%MOIN*%
%TF.FileFunction,Copper,L2,Bot*%
%TF.Part,Single*%
%TA.AperFunction,Conductor*%
%ADD14C,0.006*%
%ADD15C,0.026*%
%ADD16C,0.013*%
%ADD17C,0.011811*%
%TA.AperFunction,CopperBalancing*%
%ADD18C,0.025*%
%ADD19R,0.03937X0.043307*%
%ADD20R,0.043307X0.03937*%
%ADD22R,0.031496X0.059055*%
%ADD23R,0.057087X0.07874*%
%TA.AperFunction,ComponentPad*%
%ADD24R,0.059055X0.059055*%
%ADD25C,0.059055*%
%ADD27R,0.037402X0.03937*%
%TA.AperFunction,ComponentPad*%
%ADD28R,0.066929X0.066929*%
%ADD29C,0.066929*%
%ADD38O,0.033465X0.011811*%
%ADD39O,0.011811X0.033465*%
%ADD40R,0.009449X0.030551*%
%ADD41R,0.030551X0.009449*%
%ADD42R,0.037402X0.021654*%
%TA.AperFunction,ComponentPad*%
%ADD43C,0.049213*%
%ADD44R,0.03937X0.011811*%
%ADD45R,0.051181X0.07874*%
%TA.AperFunction,ViaPad*%
%ADD103C,0.026*%
%TA.AperFunction,CopperBalancing*%
%ADD104C,0.013*%
G75*
G01*
%LPD*%
X1507645Y1899750D2*
D14*
X1506863Y1900532D1*
X1437088D1*
X522708Y1463949D2*
X519700Y1460941D1*
Y1331949D1*
X537700Y1313949D1*
X540010D1*
X585700D1*
X699700Y1224878D2*
D15*
X669700Y1254878D1*
Y1295949D1*
X651700Y1313949D1*
X585700D1*
X540010D1*
X522708Y1334022D1*
Y1463949D1*
X699700Y1224878D2*
D16*
X718390Y1243569D1*
X762159D1*
X763545Y1244955D1*
Y1356150D1*
D17*
Y1368556D1*
Y1388241D2*
Y1375835D1*
D16*
Y1368556D1*
Y1407926D2*
D17*
Y1388241D1*
Y1407926D2*
Y1420331D1*
D16*
X762159Y1421717D1*
Y1424800D1*
X760529Y1426430D1*
X747604D1*
D17*
X735199D1*
X543432Y1228569D2*
D15*
X572178Y1199823D1*
X612175D1*
X654049Y1157949D1*
X699700D1*
X1799949Y1274949D2*
D14*
X1810081Y1264818D1*
X1905789D1*
X1281642Y849949D2*
X1281700Y850007D1*
Y893949D1*
X1299700Y911949D1*
X1317700D1*
X1323700Y917949D1*
Y929949D1*
X1912893Y849949D2*
X1911700Y851142D1*
Y935949D1*
X1930787Y1857818D2*
X1930796Y1857827D1*
X1993300D1*
X1991477Y1856004D1*
X2037025D1*
Y1968493D1*
X1986818Y2018700D1*
X1799763D1*
X1771054Y1989991D1*
Y1963133D1*
Y1936440D1*
X1728613D1*
X1930787Y1857818D2*
D15*
D3*
X1718700Y1749949D2*
X1718884Y1749766D1*
X1720123D1*
X2099519Y956099D2*
X2100885Y954733D1*
Y952312D1*
X616672Y1594718D2*
D16*
X621103Y1590288D1*
X679172D1*
X1612070Y1720333D2*
X1537078D1*
X1338913Y1187325D2*
Y1243569D1*
X1337099Y1187325D2*
X1338913D1*
X1605821Y1432863D2*
X1549577D1*
X1605821D2*
D3*
X1551390Y1193574D2*
D14*
D3*
X735199Y1350052D2*
X737162Y1352015D1*
Y1362306D1*
X715514Y1383955D1*
Y1426430D1*
X1668314Y1912249D2*
X1692506Y1936440D1*
X1728613D1*
X585700Y1380878D2*
D16*
D3*
X687167Y1407926D2*
D14*
Y1424800D1*
X670293D1*
X631144Y1463949D1*
X585700D1*
X1065107Y849949D2*
X1065700Y850543D1*
Y917949D1*
X1125700Y977949D1*
X1197700D1*
X1696357Y849949D2*
X1701700Y844607D1*
Y785949D1*
X1695700Y779949D1*
X1431700D1*
X1389700Y821949D1*
Y971949D1*
X1359700Y1001949D1*
X1275700D1*
X1399949Y1337449D2*
Y1356414D1*
X1412235Y1368700D1*
X1718165D1*
X1737451Y1349414D1*
Y1224427D1*
X1749428Y1212449D1*
X1781200D1*
X1794199Y1225448D1*
X1905789D1*
X1238335Y849949D2*
X1239700Y851314D1*
Y911949D1*
X1263700Y935949D1*
X1275700D1*
X1869586Y849949D2*
X1869700Y850064D1*
Y911949D1*
X1845700Y935949D1*
Y959949D1*
X1774951Y1243700D2*
X1776384Y1245133D1*
X1905789D1*
X2118700Y1868699D2*
X2024951Y1774949D1*
X1931200D1*
X1906200Y1749949D1*
X1881200D1*
X1824951Y1693700D1*
X1681201D1*
X1637451Y1649949D1*
Y1599949D1*
X1662451Y1574949D1*
X1687451D1*
X1787052Y1749766D2*
X1786802Y1750015D1*
Y1831007D1*
X1043700Y1237449D2*
D16*
X937449D1*
X843700Y1143700D1*
X933700Y1961949D2*
D14*
Y1706044D1*
X1269700Y1121949D2*
X1263700Y1127949D1*
X1209700D1*
X1203700Y1133949D1*
Y1187949D1*
X1047700Y1343949D1*
X987700D1*
X969700Y1361949D1*
X951700D1*
X1151721Y849949D2*
X1155700Y853928D1*
Y917949D1*
X1173700Y935949D1*
X1209700D1*
X1237109Y963359D1*
Y1031949D1*
X1191700D1*
X1782972Y849949D2*
X1774949Y841927D1*
Y946700D1*
X1689700Y1031949D1*
X1237109D1*
X1812449Y1199949D2*
X1824949Y1187449D1*
X1905789D1*
Y1205763D1*
X1337088Y1949745D2*
X1349949Y1962606D1*
Y1993842D1*
X1356057Y1999949D1*
X1631200D1*
X1949949Y1981200D2*
X1931200Y1999949D1*
X1818298D1*
Y1963133D1*
X1212112Y1849745D2*
X1180658Y1881199D1*
X1162451D1*
X1112123Y1931527D1*
Y1955994D1*
X1212112Y1849745D2*
X1237317Y1874949D1*
X1274951D1*
X1281200Y1881199D1*
Y1949949D1*
X1281405Y1949745D1*
X1337088D1*
Y1900532D2*
X1342755Y1906199D1*
X1381200D1*
X1387451Y1912449D1*
Y1974949D1*
X1393700Y1981199D1*
X1606200D1*
X1612449Y1974949D1*
X1687451D1*
X1906200Y1968493D2*
X1834046D1*
Y1963133D1*
X1212112Y1749745D2*
X1186907Y1774949D1*
X1149949D1*
X1112123Y1812776D1*
Y1843506D1*
X1212112Y1749745D2*
X1268566Y1806199D1*
X1281199D1*
X1299949Y1824949D1*
Y1899949D1*
X1300532Y1900532D1*
X1337088D1*
X1824949Y1299949D2*
X1840396Y1284503D1*
X1905789D1*
X1849949Y1324949D2*
X1870710Y1304188D1*
X1905789D1*
X2118700Y1768699D2*
X2112203D1*
X2087204Y1743700D1*
X2006200D1*
X1981200Y1718700D1*
X1899951D1*
X1843700Y1662449D1*
X1699951D1*
X1743700Y1606200D2*
X1756200Y1618700D1*
X1956200D1*
X2006199Y1668699D1*
X2118700D1*
X1251700Y1169949D2*
X1257700Y1175949D1*
Y1199949D1*
X1071700Y1385949D1*
X1035700D1*
X1101700Y1037949D2*
X1137700Y1073949D1*
X1311700D1*
X1323700Y1085949D1*
Y1115949D1*
X1299700Y1139949D1*
Y1362403D1*
X1305997Y1368700D1*
X1324951D1*
X687167Y1368556D2*
D17*
Y1356150D1*
D16*
X674669Y1343651D1*
X687167Y1518540D2*
X682348Y1523359D1*
X679172D1*
X1537078Y1787262D2*
D14*
X1522233Y1802107D1*
X1437088D1*
X1612070Y1787262D2*
X1537078D1*
X1612070D2*
X1624569Y1799760D1*
Y1955994D1*
X1618319Y1949745D1*
X1437088D1*
X1930787Y1924747D2*
X1919094Y1936440D1*
X1860739D1*
X1993300Y1924756D2*
X1993291Y1924747D1*
X1930787D1*
X1860739Y1936440D2*
X1859934Y1937246D1*
X1837046D1*
X1824548Y1924747D1*
X1818298D1*
X1799550D1*
X1802550Y1927747D1*
Y1963133D1*
X1799550Y1924747D2*
X1762054Y1887251D1*
Y1862254D1*
X1757501Y1857700D1*
X1728613D1*
X616672Y1527789D2*
D15*
X613263Y1531199D1*
X556200D1*
Y1656199D1*
X687451D1*
Y1824949D1*
X1024951Y1793700D2*
X1045193Y1813943D1*
Y1843506D1*
Y1955994D2*
Y1843506D1*
X687451Y1824949D2*
X718700Y1793700D1*
X837449D1*
X856200Y1774949D1*
Y1656199D1*
X916747Y1595651D1*
X946629Y1565770D1*
Y1547949D1*
X1193699Y731199D2*
X1195028Y732528D1*
Y849949D1*
X1826279Y724949D2*
Y849949D1*
Y904872D1*
X1812451Y918700D1*
Y937448D1*
X1806200Y943699D1*
Y1006199D1*
X2018700D1*
X2118700Y1106199D1*
Y1248331D1*
X2085833Y1281199D1*
X2069844Y1297187D1*
X2042082Y1324949D1*
X2012449D1*
X1837449Y1499949D1*
X1772670D1*
Y1506041D1*
X1637067D1*
X1905789Y1323873D2*
D17*
X1931974Y1324949D1*
D16*
X2012449D1*
X2069844Y1297187D2*
D15*
X2118700Y1346043D1*
Y1568699D1*
X1618700Y1193699D2*
X1681100Y1131298D1*
X1806200Y1006199D1*
X1681100Y1131298D2*
X1668502Y1118700D1*
X1431199D1*
X1406201Y1143697D1*
Y1187449D1*
X1993700Y1924949D2*
X1993507Y1924756D1*
X1993300D2*
X1993291Y1924747D1*
X1930787D1*
X2081200Y1281199D2*
X2085833D1*
X1405842Y1187325D2*
D16*
X1406201Y1187449D1*
X1405842Y1187325D2*
Y1243569D1*
X1618319Y1193574D2*
X1618700Y1193699D1*
X1605821Y1499792D2*
X1637067Y1506041D1*
X1549577Y1499792D2*
X1605821D1*
X1337099Y1493543D2*
D3*
X1612070Y1787262D2*
D14*
X1682508Y1857700D1*
X1728613D1*
X1612070Y1787262D2*
D3*
X1174616Y1524789D2*
D15*
X1162117Y1537288D1*
Y1649776D1*
X1112123Y1699771D1*
X1030881D1*
X926762Y1595651D1*
X916747D1*
X1174616Y1524789D2*
X1205863Y1493543D1*
X1337099D1*
X1405842Y1243569D2*
Y1187325D1*
X1618319Y1249818D2*
Y1193574D1*
X1337099Y1493543D2*
D16*
Y1662275D1*
X1368346Y1693522D1*
X1430839D1*
X1437088Y1699771D1*
Y1802107D1*
X687167Y1388241D2*
D17*
X663935D1*
D16*
X662998Y1387304D1*
X643422D1*
X618424Y1531039D2*
X616672Y1529287D1*
Y1527789D1*
X1818298Y1831007D2*
D14*
Y1924747D1*
X879700Y1547949D2*
X878289Y1546539D1*
X808602D1*
X712165Y1306062D2*
X715514Y1309411D1*
Y1350052D1*
D103*
X1799949Y1274949D3*
X1323700Y929949D3*
X1911700Y935949D3*
X1930787Y1857818D3*
X1718700Y1749949D3*
X2099519Y956099D3*
X1337099Y1187325D3*
X1605821Y1432863D3*
X1551390Y1193574D3*
X585700Y1380878D3*
X1197700Y977949D3*
X1275700Y1001949D3*
D3*
X1399949Y1337449D3*
X1275700Y935949D3*
X1845700Y959949D3*
X1275700Y935949D3*
X1774951Y1243700D3*
X1687451Y1574949D3*
X1043700Y1237449D3*
X1269700Y1121949D3*
X951700Y1361949D3*
X1191700Y1031949D3*
X1812449Y1199949D3*
X1631200Y1999949D3*
X1949949Y1981200D3*
X1687451Y1974949D3*
X1906200Y1968493D3*
X1824949Y1299949D3*
X1849949Y1324949D3*
X1699951Y1662449D3*
X1743700Y1606200D3*
X1251700Y1169949D3*
X1035700Y1385949D3*
X1101700Y1037949D3*
X1324951Y1368700D3*
X674669Y1343651D3*
X687167Y1518540D3*
X687451Y1824949D3*
X1024951Y1793700D3*
X1193699Y731199D3*
X1826279Y724949D3*
X1637067Y1506041D3*
X1618700Y1193699D3*
X1406201Y1187449D3*
X1993700Y1924949D3*
X1772670Y1499949D3*
X2081200Y1281199D3*
X1618700Y1193699D3*
X1337099Y1493543D3*
X1612070Y1787262D3*
X1174616Y1524789D3*
D3*
X1337099Y1493543D3*
X643422Y1387304D3*
X618424Y1531039D3*
X808602Y1546539D3*
X712165Y1306062D3*
X2187010Y768619D3*
X1818298Y537393D3*
X1918288Y618634D3*
X1987031Y499897D3*
X1712060Y606136D3*
X1124621Y637382D3*
X1274606D3*
X1362096D3*
X862149Y531144D3*
X762159Y487398D3*
Y587388D3*
X493438Y1774763D3*
X580928Y1768514D3*
X843401Y2005989D3*
X1474585Y2055983D3*
X2237449Y1918700D3*
Y1818700D3*
Y1718700D3*
X2237451Y1612449D3*
X1474585Y1474794D3*
X1343348Y1443548D3*
X893396Y1437298D3*
X843401Y1274815D3*
X1668314Y1912249D3*
X630184Y2037581D2*
D18*
X1616700D1*
X1645707D2*
X2253716D1*
X645183Y2012712D2*
X722107D1*
X790945D2*
X871242D1*
X996167D2*
X1324781D1*
X1701543D2*
X1789195D1*
X1976271D2*
X2060157D1*
X2177222D2*
X2253716D1*
X653365Y1987843D2*
X699966D1*
X813121D2*
X871242D1*
X1270645D2*
X1317964D1*
X1991378D2*
X2060157D1*
X2177222D2*
X2253716D1*
X656057Y1962974D2*
X694082D1*
X819007D2*
X871242D1*
X2041976D2*
X2060157D1*
X2177222D2*
X2253716D1*
X653653Y1938106D2*
X698998D1*
X814054D2*
X871242D1*
X1656579D2*
X1670705D1*
X2041976D2*
X2060157D1*
X2177222D2*
X2253716D1*
X645830Y1913237D2*
X719057D1*
X793995D2*
X871242D1*
X1656579D2*
X1684342D1*
X2041976D2*
X2060157D1*
X2177222D2*
X2253716D1*
X631333Y1888368D2*
X901708D1*
X965701D2*
X994540D1*
X1656579D2*
X1684342D1*
X2041976D2*
X2063745D1*
X2173670D2*
X2253716D1*
X433718Y1863499D2*
X455703D1*
X606141D2*
X676355D1*
X698579D2*
X901708D1*
X965701D2*
X994540D1*
X2041976D2*
X2060407D1*
X2176972D2*
X2253716D1*
X433718Y1838630D2*
X647898D1*
X732130D2*
X901708D1*
X965701D2*
X994540D1*
X1484801D2*
X1592586D1*
X2168468D2*
X2253716D1*
X433718Y1813762D2*
X645459D1*
X875739D2*
X901708D1*
X965701D2*
X988439D1*
X1682775D2*
X1721590D1*
X1867758D2*
X1882099D1*
X2154508D2*
X2253716D1*
X433718Y1788893D2*
X645459D1*
X965701D2*
X983237D1*
X1078234D2*
X1091785D1*
X1660742D2*
X1669486D1*
X1837722D2*
X1900939D1*
X2173455D2*
X2253716D1*
X433718Y1764024D2*
X645459D1*
X965701D2*
X996369D1*
X1053510D2*
X1116654D1*
X1270609D2*
X1401574D1*
X1472602D2*
X1488378D1*
X1660742D2*
X1669486D1*
X1837722D2*
X1851060D1*
X2177044D2*
X2253716D1*
X433718Y1739155D2*
X645459D1*
X986191D2*
X1025364D1*
X1117634D2*
X1154583D1*
X1269640D2*
X1401574D1*
X1472602D2*
X1488378D1*
X1660742D2*
X1669486D1*
X2168791D2*
X2253716D1*
X433718Y1714287D2*
X645459D1*
X1155959D2*
X1166246D1*
X1257978D2*
X1339926D1*
X1472602D2*
X1488378D1*
X2153755D2*
X2253716D1*
X433718Y1689418D2*
X532315D1*
X1180827D2*
X1315057D1*
X1470914D2*
X1488378D1*
X2173239D2*
X2253716D1*
X433718Y1664549D2*
X515091D1*
X802321D2*
X814225D1*
X1201245D2*
X1301672D1*
X1449133D2*
X1609308D1*
X1890006D2*
X1957815D1*
X2177079D2*
X2253716D1*
X433718Y1639680D2*
X514193D1*
X725815D2*
X817810D1*
X1101918D2*
X1113855D1*
X1204116D2*
X1301600D1*
X1372592D2*
X1605468D1*
X2169113D2*
X2253716D1*
X433718Y1614812D2*
X514193D1*
X727860D2*
X839233D1*
X1101918D2*
X1120134D1*
X1204116D2*
X1301600D1*
X1372592D2*
X1605468D1*
X1669461D2*
X1702642D1*
X1996546D2*
X2084378D1*
X2153037D2*
X2253716D1*
X433718Y1589943D2*
X514193D1*
X1101918D2*
X1120134D1*
X1204116D2*
X1301600D1*
X1372592D2*
X1607191D1*
X1965291D2*
X2064355D1*
X2173061D2*
X2253716D1*
X433718Y1565074D2*
X514193D1*
X1101918D2*
X1120134D1*
X1204116D2*
X1301600D1*
X1372592D2*
X1628111D1*
X1728204D2*
X2060300D1*
X2177115D2*
X2253716D1*
X433718Y1540205D2*
X514193D1*
X1090291D2*
X1120134D1*
X1217573D2*
X1301600D1*
X1372592D2*
X1500902D1*
X1794985D2*
X2067944D1*
X2169436D2*
X2253716D1*
X433718Y1515336D2*
X517531D1*
X1101128D2*
X1126773D1*
X1454695D2*
X1500902D1*
X1880424D2*
X2076699D1*
X2160716D2*
X2253716D1*
X433718Y1490468D2*
X475008D1*
X727860D2*
X987040D1*
X1099692D2*
X1150565D1*
X1454695D2*
X1500902D1*
X1905293D2*
X1957491D1*
X2066663D2*
X2076699D1*
X2160716D2*
X2253716D1*
X433718Y1465599D2*
X475008D1*
X673712D2*
X697312D1*
X753410D2*
X1002111D1*
X1084657D2*
X1175432D1*
X1454695D2*
X1500902D1*
X1654498D2*
X1750655D1*
X1930161D2*
X1957491D1*
X2066663D2*
X2076699D1*
X2160716D2*
X2253716D1*
X433718Y1440730D2*
X475008D1*
X793565D2*
X1500902D1*
X1654498D2*
X1838321D1*
X2066663D2*
X2076699D1*
X2160716D2*
X2253716D1*
X433718Y1415861D2*
X480714D1*
X808277D2*
X1007386D1*
X1063987D2*
X1500902D1*
X1654498D2*
X1863188D1*
X2066663D2*
X2076699D1*
X2160716D2*
X2253716D1*
X433718Y1390993D2*
X480714D1*
X809174D2*
X922413D1*
X980987D2*
X994037D1*
X1110889D2*
X1284161D1*
X1360069D2*
X1390414D1*
X1739974D2*
X1888056D1*
X2066663D2*
X2076699D1*
X2160716D2*
X2253716D1*
X433718Y1366124D2*
X480714D1*
X809174D2*
X909924D1*
X1135756D2*
X1267941D1*
X1764268D2*
X1857088D1*
X2029632D2*
X2076699D1*
X2160716D2*
X2253716D1*
X433718Y1341255D2*
X480714D1*
X799054D2*
X915558D1*
X1160624D2*
X1267691D1*
X1769435D2*
X1811480D1*
X2160393D2*
X2253716D1*
X433718Y1316386D2*
X484877D1*
X799054D2*
X974696D1*
X1185491D2*
X1267691D1*
X1331684D2*
X1364040D1*
X1435856D2*
X1705441D1*
X1769435D2*
X1786540D1*
X2147403D2*
X2253716D1*
X433718Y1291518D2*
X504684D1*
X799054D2*
X1055902D1*
X1210359D2*
X1267691D1*
X1331684D2*
X1500722D1*
X1668960D2*
X1705441D1*
X1954490D2*
X1988927D1*
X2133875D2*
X2253716D1*
X433718Y1266649D2*
X506838D1*
X799054D2*
X919578D1*
X1072815D2*
X1080802D1*
X1235228D2*
X1267691D1*
X1456489D2*
X1500722D1*
X1668960D2*
X1705441D1*
X1954490D2*
X2041964D1*
X2156195D2*
X2253716D1*
X433718Y1241780D2*
X491552D1*
X595305D2*
X629920D1*
X798876D2*
X892629D1*
X1085447D2*
X1105637D1*
X1260095D2*
X1267691D1*
X1456489D2*
X1500722D1*
X1668960D2*
X1705441D1*
X1954490D2*
X2066903D1*
X2160716D2*
X2253716D1*
X433718Y1216911D2*
X491157D1*
X784127D2*
X867725D1*
X1079956D2*
X1130504D1*
X1456489D2*
X1500722D1*
X1668960D2*
X1706410D1*
X1954490D2*
X2076699D1*
X2160716D2*
X2253716D1*
X433718Y1192043D2*
X505187D1*
X748386D2*
X812894D1*
X974528D2*
X985174D1*
X1102241D2*
X1155373D1*
X1456489D2*
X1500722D1*
X1678720D2*
X1725608D1*
X1954490D2*
X2076699D1*
X2160716D2*
X2253716D1*
X433718Y1167174D2*
X492843D1*
X748386D2*
X790323D1*
X1102241D2*
X1171700D1*
X1456489D2*
X1500722D1*
X1703587D2*
X1787903D1*
X1929730D2*
X1957491D1*
X2066663D2*
X2076699D1*
X2160716D2*
X2253716D1*
X433718Y1142305D2*
X490367D1*
X596489D2*
X611333D1*
X748386D2*
X785191D1*
X1102241D2*
X1171700D1*
X1728456D2*
X1957491D1*
X2066663D2*
X2076699D1*
X2160716D2*
X2253716D1*
X433718Y1117436D2*
X501419D1*
X585472D2*
X651020D1*
X748386D2*
X791722D1*
X1102241D2*
X1176759D1*
X1355654D2*
X1374195D1*
X1753323D2*
X1957491D1*
X2160716D2*
X2253716D1*
X433718Y1092567D2*
X818313D1*
X869100D2*
X918285D1*
X969109D2*
X985174D1*
X1102241D2*
X1112096D1*
X1355691D2*
X1398955D1*
X1778191D2*
X1957491D1*
X2158276D2*
X2253716D1*
X433718Y1067699D2*
X518679D1*
X616728D2*
X695840D1*
X793888D2*
X1073197D1*
X1349375D2*
X1686351D1*
X1803058D2*
X1957491D1*
X2138575D2*
X2253716D1*
X433718Y1042830D2*
X506658D1*
X628749D2*
X683818D1*
X805909D2*
X1059993D1*
X2113708D2*
X2253716D1*
X433718Y1017961D2*
X506443D1*
X628964D2*
X683603D1*
X806124D2*
X870739D1*
X985833D2*
X1065124D1*
X1138268D2*
X1152251D1*
X2158419D2*
X2253716D1*
X433718Y993092D2*
X517818D1*
X617588D2*
X694978D1*
X794749D2*
X870739D1*
X985833D2*
X1096630D1*
X1617107D2*
X1684342D1*
X2158419D2*
X2253716D1*
X433718Y968224D2*
X870739D1*
X985833D2*
X1071763D1*
X1300966D2*
X1311434D1*
X1335955D2*
X1349220D1*
X1617107D2*
X1709209D1*
X2032071D2*
X2043327D1*
X2158419D2*
X2253716D1*
X433718Y943355D2*
X870739D1*
X985833D2*
X1046894D1*
X1617107D2*
X1734077D1*
X1952982D2*
X2043327D1*
X2158419D2*
X2253716D1*
X433718Y918486D2*
X870739D1*
X985833D2*
X1033690D1*
X1110457D2*
X1123687D1*
X1617107D2*
X1742940D1*
X1949645D2*
X2043327D1*
X2158419D2*
X2253716D1*
X433718Y893617D2*
X870739D1*
X2000960D2*
X2043327D1*
X2158419D2*
X2253716D1*
X433718Y868749D2*
X977065D1*
X1421717D2*
X1608302D1*
X2000960D2*
X2253716D1*
X433718Y843880D2*
X977065D1*
X1421717D2*
X1608302D1*
X2000960D2*
X2253716D1*
X433718Y819011D2*
X505224D1*
X630148D2*
X702801D1*
X786926D2*
X977065D1*
X1436860D2*
X1608302D1*
X2000960D2*
X2253716D1*
X433718Y794142D2*
X505224D1*
X630148D2*
X685899D1*
X803827D2*
X977065D1*
X2000960D2*
X2253716D1*
X433718Y769273D2*
X505224D1*
X630148D2*
X682599D1*
X807165D2*
X1153040D1*
X1237022D2*
X1398165D1*
X1728527D2*
X1784279D1*
X1868296D2*
X2253716D1*
X433718Y744405D2*
X505224D1*
X630148D2*
X690170D1*
X799557D2*
X1153040D1*
X1237022D2*
X1784279D1*
X1868296D2*
X2253716D1*
X433718Y719536D2*
X505224D1*
X630148D2*
X717155D1*
X772573D2*
X1153470D1*
X1234833D2*
X1784638D1*
X1867901D2*
X2253716D1*
X433718Y694667D2*
X1176186D1*
X1211221D2*
X1798418D1*
X1854158D2*
X2253716D1*
X433718Y669798D2*
X870739D1*
X985833D2*
X1412088D1*
X1617107D2*
X2043327D1*
X2158419D2*
X2253716D1*
X433718Y644930D2*
X469482D1*
X592361D2*
X870739D1*
X985833D2*
X1412088D1*
X1617107D2*
X2043327D1*
X2158419D2*
X2253716D1*
X624012Y620061D2*
X870739D1*
X985833D2*
X1412088D1*
X1617107D2*
X2043327D1*
X2158419D2*
X2253716D1*
X641595Y595192D2*
X870739D1*
X985833D2*
X1412088D1*
X1617107D2*
X2043327D1*
X2158419D2*
X2253716D1*
X651571Y570323D2*
X870739D1*
X985833D2*
X1412088D1*
X1617107D2*
X2043327D1*
X2244936D2*
X2253724D1*
X655805Y545455D2*
X2098409D1*
X654909Y520586D2*
X2090443D1*
X648772Y495717D2*
X2089869D1*
X636428Y470848D2*
X2096543D1*
X433718Y445980D2*
X446679D1*
X615184D2*
X2112691D1*
X1568822Y1547945D2*
X1650602D1*
X1647037Y1549796D1*
X1643292Y1552518D1*
X1616591Y1579090D1*
X1613585Y1582609D1*
X1611166Y1586557D1*
X1609394Y1590834D1*
X1608314Y1595335D1*
X1607951Y1599959D1*
X1608041Y1652264D1*
X1608766Y1656836D1*
X1610196Y1661238D1*
X1612297Y1665363D1*
X1615019Y1669108D1*
X1617835Y1672179D1*
X1490893D1*
Y1772588D1*
X1482293Y1772607D1*
X1482289Y1764780D1*
X1470053D1*
X1469987Y1697182D1*
X1469176Y1692067D1*
X1467577Y1687142D1*
X1465226Y1682528D1*
X1462182Y1678339D1*
X1452271Y1668428D1*
X1448082Y1665384D1*
X1443468Y1663033D1*
X1438543Y1661434D1*
X1433428Y1660623D1*
X1382001Y1660522D1*
X1370087Y1648594D1*
X1370099Y1539730D1*
X1452182Y1539728D1*
Y1447357D1*
X1288945D1*
Y1454067D1*
X1202763Y1454165D1*
X1196642Y1455134D1*
X1190747Y1457049D1*
X1185224Y1459863D1*
X1180209Y1463506D1*
X1146676Y1496868D1*
X1132082Y1511634D1*
X1128438Y1516649D1*
X1125624Y1522172D1*
X1123709Y1528067D1*
X1122739Y1534188D1*
X1122617Y1574033D1*
Y1633422D1*
X1099399Y1656633D1*
X1099407Y1550003D1*
X1078128D1*
X1082998Y1545649D1*
X1088707Y1538962D1*
X1093301Y1531466D1*
X1096665Y1523344D1*
X1098717Y1514796D1*
X1099407Y1506031D1*
X1098717Y1497266D1*
X1096665Y1488717D1*
X1093301Y1480595D1*
X1088707Y1473099D1*
X1082998Y1466413D1*
X1076312Y1460704D1*
X1068815Y1456109D1*
X1060693Y1452746D1*
X1052145Y1450693D1*
X1043380Y1450003D1*
X1034615Y1450693D1*
X1026066Y1452746D1*
X1017944Y1456109D1*
X1010448Y1460704D1*
X1003762Y1466413D1*
X998053Y1473099D1*
X993459Y1480595D1*
X990095Y1488717D1*
X988043Y1497266D1*
X987520Y1501755D1*
X856767Y1501764D1*
X856755Y1500354D1*
X725356D1*
X725357Y1475205D1*
X661591D1*
X682528Y1454284D1*
X687176Y1454300D1*
X688775Y1455564D1*
X692259Y1459826D1*
X696415Y1463436D1*
X701123Y1466291D1*
X706245Y1468308D1*
X711634Y1469428D1*
X717136Y1469621D1*
X722591Y1468880D1*
X725336Y1468124D1*
X730129Y1469263D1*
X735199Y1469662D1*
X740268Y1469263D1*
X745213Y1468075D1*
X749910Y1466130D1*
X754246Y1463473D1*
X758794Y1459434D1*
X765692Y1459023D1*
X770728Y1457814D1*
X775511Y1455833D1*
X779926Y1453128D1*
X785169Y1448460D1*
X788857Y1444196D1*
X791562Y1439781D1*
X793546Y1434987D1*
X795418Y1432567D1*
X799014Y1428972D1*
X802002Y1424857D1*
X804310Y1420327D1*
X805882Y1415490D1*
X806678Y1410468D1*
Y1405384D1*
X805882Y1400361D1*
X805242Y1398094D1*
X806378Y1393310D1*
X806777Y1388241D1*
X806378Y1383171D1*
X805242Y1378409D1*
X806378Y1373625D1*
X806777Y1368556D1*
X806378Y1363486D1*
X805191Y1358541D1*
X803246Y1353844D1*
X800588Y1349508D1*
X796549Y1344960D1*
X796444Y1242365D1*
X795633Y1237251D1*
X794033Y1232326D1*
X791683Y1227712D1*
X788638Y1223523D1*
X783591Y1218476D1*
X779402Y1215431D1*
X774788Y1213081D1*
X769863Y1211481D1*
X764749Y1210670D1*
X745903Y1210569D1*
X745885Y1109796D1*
X653515D1*
Y1118444D1*
X647869Y1118936D1*
X641843Y1120382D1*
X636116Y1122755D1*
X630831Y1125993D1*
X626109Y1130028D1*
X595796Y1160340D1*
X593480Y1160323D1*
X594435Y1153088D1*
X594406Y1146157D1*
X593355Y1138890D1*
X591271Y1131850D1*
X588201Y1125179D1*
X584207Y1119018D1*
X579371Y1113493D1*
X573792Y1108717D1*
X567587Y1104792D1*
X560884Y1101794D1*
X553821Y1099789D1*
X546543Y1098817D1*
X539200Y1098898D1*
X531945Y1100029D1*
X524927Y1102190D1*
X518292Y1105334D1*
X512175Y1109396D1*
X506703Y1114292D1*
X501990Y1119923D1*
X498132Y1126170D1*
X495209Y1132906D1*
X493281Y1139991D1*
X492389Y1147280D1*
X492552Y1154621D1*
X493763Y1161863D1*
X496001Y1168856D1*
X499217Y1175457D1*
X503346Y1181529D1*
X508302Y1186947D1*
X510846Y1189193D1*
X504571Y1195378D1*
X499857Y1201865D1*
X496216Y1209011D1*
X493738Y1216638D1*
X492483Y1224560D1*
Y1232578D1*
X493738Y1240499D1*
X496216Y1248127D1*
X499857Y1255272D1*
X504571Y1261759D1*
X510242Y1267430D1*
X516729Y1272144D1*
X523875Y1275785D1*
X526595Y1276788D1*
X522237Y1278674D1*
X516938Y1281888D1*
X512207Y1285892D1*
X492671Y1308368D1*
X489028Y1313382D1*
X486214Y1318906D1*
X484300Y1324801D1*
X483330Y1330922D1*
X483208Y1370767D1*
Y1417739D1*
X477507Y1417764D1*
Y1510134D1*
X522756D1*
X519707Y1516083D1*
X517792Y1521978D1*
X516822Y1528099D1*
X516700Y1567944D1*
X516822Y1659298D1*
X517792Y1665419D1*
X519707Y1671314D1*
X522520Y1676838D1*
X526163Y1681852D1*
X530546Y1686235D1*
X535561Y1689878D1*
X541085Y1692692D1*
X546980Y1694607D1*
X553100Y1695577D1*
X592945Y1695699D1*
X647956D1*
X648073Y1828049D1*
X649043Y1834170D1*
X650957Y1840065D1*
X653771Y1845588D1*
X657414Y1850603D1*
X661797Y1854986D1*
X666812Y1858629D1*
X672335Y1861443D1*
X678230Y1863357D1*
X684351Y1864327D1*
X690550D1*
X696671Y1863357D1*
X702566Y1861443D1*
X708090Y1858629D1*
X713104Y1854986D1*
X735046Y1833216D1*
X840549Y1833078D1*
X846670Y1832108D1*
X852565Y1830193D1*
X858088Y1827380D1*
X863103Y1823735D1*
X884130Y1802880D1*
X888157Y1798167D1*
X891394Y1792882D1*
X893767Y1787155D1*
X895213Y1781129D1*
X895700Y1774949D1*
Y1752449D1*
X902368Y1757172D1*
X904214Y1758205D1*
X904200Y1902007D1*
X873735Y1901985D1*
Y2021914D1*
X993665D1*
Y1901985D1*
X963199D1*
X963200Y1758235D1*
X968947Y1754556D1*
X976102Y1748445D1*
X982212Y1741291D1*
X987129Y1733267D1*
X990730Y1724574D1*
X992549Y1717318D1*
X1005228Y1729808D1*
X1010242Y1733451D1*
X1015766Y1736264D1*
X1021661Y1738179D1*
X1027781Y1739149D1*
X1067627Y1739271D1*
X1115222Y1739149D1*
X1121343Y1738179D1*
X1127238Y1736264D1*
X1132762Y1733451D1*
X1137776Y1729806D1*
X1166036Y1701718D1*
X1192153Y1675430D1*
X1195797Y1670415D1*
X1198611Y1664892D1*
X1200525Y1658997D1*
X1201495Y1652876D1*
X1201617Y1613031D1*
Y1553642D1*
X1222212Y1533056D1*
X1288935Y1533043D1*
X1288945Y1539728D1*
X1304124D1*
X1304200Y1664864D1*
X1305011Y1669978D1*
X1306611Y1674903D1*
X1308961Y1679518D1*
X1312006Y1683707D1*
X1345011Y1716856D1*
X1348948Y1720220D1*
X1353364Y1722924D1*
X1358148Y1724906D1*
X1363183Y1726116D1*
X1368346Y1726522D1*
X1404123D1*
X1404088Y1764758D1*
X1391888Y1764780D1*
Y1878707D1*
X1385814Y1877062D1*
X1383506Y1876789D1*
X1382289Y1870273D1*
Y1764780D1*
X1291888D1*
Y1778739D1*
X1288086Y1777514D1*
X1283514Y1776789D1*
X1280794Y1776699D1*
X1266666Y1762578D1*
X1267966Y1754141D1*
Y1745348D1*
X1266591Y1736666D1*
X1263875Y1728304D1*
X1259884Y1720470D1*
X1254716Y1713357D1*
X1248499Y1707141D1*
X1241386Y1701973D1*
X1233553Y1697982D1*
X1225191Y1695266D1*
X1216508Y1693890D1*
X1207716D1*
X1199033Y1695266D1*
X1190671Y1697982D1*
X1182838Y1701973D1*
X1175725Y1707141D1*
X1169508Y1713357D1*
X1164340Y1720470D1*
X1160350Y1728304D1*
X1157633Y1736666D1*
X1156254Y1745435D1*
X1147634Y1745540D1*
X1143062Y1746264D1*
X1138661Y1747695D1*
X1134536Y1749796D1*
X1130791Y1752518D1*
X1091263Y1791917D1*
X1088251Y1795444D1*
X1084161Y1797321D1*
X1081039D1*
X1077150Y1790725D1*
X1073116Y1786003D1*
X1050604Y1763663D1*
X1045590Y1760020D1*
X1040066Y1757207D1*
X1034171Y1755292D1*
X1028050Y1754322D1*
X1021851D1*
X1015730Y1755292D1*
X1009835Y1757207D1*
X1004312Y1760020D1*
X999297Y1763663D1*
X994914Y1768046D1*
X991271Y1773061D1*
X988457Y1778585D1*
X986543Y1784480D1*
X985573Y1790600D1*
Y1796800D1*
X986543Y1802920D1*
X988457Y1808815D1*
X991271Y1814339D1*
X994914Y1819354D1*
X997045Y1821657D1*
X997040Y1889691D1*
X1005688D1*
X1005693Y1909784D1*
X997040Y1909809D1*
Y2002179D1*
X1156092D1*
X1156085Y2005772D1*
X1268140D1*
Y1976397D1*
X1272085Y1978006D1*
X1276586Y1979086D1*
X1281200Y1979449D1*
X1291919Y1979245D1*
X1291888Y1987071D1*
X1320415D1*
X1320540Y1996157D1*
X1321264Y2000729D1*
X1322695Y2005130D1*
X1324796Y2009255D1*
X1327518Y2013001D1*
X1336898Y2022381D1*
X1340644Y2025103D1*
X1344768Y2027204D1*
X1349170Y2028634D1*
X1353742Y2029359D1*
X1438734Y2029449D1*
X1604914D1*
X1610561Y2033629D1*
X1616085Y2036443D1*
X1621980Y2038357D1*
X1628100Y2039327D1*
X1634300D1*
X1640420Y2038357D1*
X1646315Y2036443D1*
X1651839Y2033629D1*
X1656854Y2029985D1*
X1661235Y2025603D1*
X1664880Y2020588D1*
X1667693Y2015065D1*
X1669355Y2010069D1*
X1675245Y2012516D1*
X1681271Y2013962D1*
X1687451Y2014449D1*
X1693630Y2013962D1*
X1699657Y2012516D1*
X1705384Y2010144D1*
X1710669Y2006906D1*
X1715381Y2002880D1*
X1719407Y1998167D1*
X1722645Y1992882D1*
X1724082Y1989691D1*
Y2004909D1*
X1789214D1*
X1790242Y2009065D1*
X1792014Y2013342D1*
X1794432Y2017289D1*
X1797439Y2020809D1*
X1800959Y2023815D1*
X1804906Y2026234D1*
X1809183Y2028006D1*
X1813683Y2029086D1*
X1818308Y2029449D1*
X1933515Y2029359D1*
X1938087Y2028634D1*
X1942489Y2027204D1*
X1946613Y2025103D1*
X1950359Y2022381D1*
X1952066Y2020802D1*
X1959170Y2019608D1*
X1965065Y2017693D1*
X1970588Y2014880D1*
X1975603Y2011235D1*
X1979985Y2006854D1*
X1983629Y2001839D1*
X1986443Y1996315D1*
X1988357Y1990420D1*
X1989327Y1984300D1*
Y1978100D1*
X1988545Y1972918D1*
X2039485Y1972910D1*
Y1831205D1*
X2064151Y1855869D1*
X2062846Y1864302D1*
Y1873095D1*
X2064221Y1881777D1*
X2066938Y1890140D1*
X2070928Y1897973D1*
X2076096Y1905086D1*
X2082313Y1911302D1*
X2084054Y1912675D1*
X2062672Y1912671D1*
Y2024726D1*
X2174728D1*
Y1912671D1*
X2153419D1*
X2158318Y1908317D1*
X2164027Y1901630D1*
X2168621Y1894134D1*
X2171985Y1886012D1*
X2174037Y1877464D1*
X2174728Y1868699D1*
X2174037Y1859934D1*
X2171985Y1851385D1*
X2168621Y1843263D1*
X2164027Y1835767D1*
X2158318Y1829081D1*
X2151632Y1823372D1*
X2143964Y1818699D1*
X2151632Y1814025D1*
X2158318Y1808317D1*
X2164027Y1801630D1*
X2168621Y1794134D1*
X2171985Y1786012D1*
X2174037Y1777464D1*
X2174728Y1768699D1*
X2174037Y1759934D1*
X2171985Y1751385D1*
X2168621Y1743263D1*
X2164027Y1735767D1*
X2158318Y1729081D1*
X2151632Y1723372D1*
X2143964Y1718699D1*
X2151632Y1714025D1*
X2158318Y1708317D1*
X2164027Y1701630D1*
X2168621Y1694134D1*
X2171985Y1686012D1*
X2174037Y1677464D1*
X2174728Y1668699D1*
X2174037Y1659934D1*
X2171985Y1651385D1*
X2168621Y1643263D1*
X2164027Y1635767D1*
X2158318Y1629081D1*
X2151632Y1623372D1*
X2143964Y1618699D1*
X2151632Y1614025D1*
X2158318Y1608317D1*
X2164027Y1601630D1*
X2168621Y1594134D1*
X2171985Y1586012D1*
X2174037Y1577464D1*
X2174728Y1568699D1*
X2174037Y1559934D1*
X2171985Y1551385D1*
X2168621Y1543263D1*
X2164027Y1535767D1*
X2158204Y1528976D1*
X2158078Y1342943D1*
X2157108Y1336822D1*
X2155193Y1330927D1*
X2152380Y1325403D1*
X2148737Y1320389D1*
X2125697Y1297178D1*
X2148737Y1273985D1*
X2152380Y1268970D1*
X2155193Y1263447D1*
X2157108Y1257552D1*
X2158078Y1251431D1*
X2158200Y1211586D1*
X2158078Y1103099D1*
X2157108Y1096978D1*
X2155193Y1091083D1*
X2152380Y1085560D1*
X2148737Y1080545D1*
X2120648Y1052285D1*
X2086520Y1018157D1*
X2155928Y1018182D1*
Y886441D1*
X2045842D1*
Y977494D1*
X2041918Y974242D1*
X2036633Y971004D1*
X2030906Y968632D1*
X2024880Y967184D1*
X2018688Y966699D1*
X1936489D1*
X1941735Y961603D1*
X1945380Y956588D1*
X1948193Y951065D1*
X1950108Y945170D1*
X1951078Y939049D1*
Y932850D1*
X1950108Y926729D1*
X1948193Y920834D1*
X1945380Y915310D1*
X1941201Y909718D1*
X1941200Y905986D1*
X1998448Y905977D1*
Y793922D1*
X1865764D1*
X1865657Y721850D1*
X1864687Y715729D1*
X1862772Y709834D1*
X1859959Y704310D1*
X1856315Y699296D1*
X1851932Y694913D1*
X1846918Y691270D1*
X1841394Y688456D1*
X1835499Y686541D1*
X1829378Y685571D1*
X1823179D1*
X1817058Y686541D1*
X1811163Y688456D1*
X1805640Y691270D1*
X1800625Y694913D1*
X1796242Y699296D1*
X1792599Y704310D1*
X1789785Y709834D1*
X1787871Y715729D1*
X1786901Y721850D1*
X1786779Y761695D1*
Y793955D1*
X1731178Y793922D1*
X1731109Y783634D1*
X1730385Y779062D1*
X1728955Y774661D1*
X1726854Y770536D1*
X1724132Y766791D1*
X1714859Y757518D1*
X1711113Y754796D1*
X1706989Y752695D1*
X1702587Y751264D1*
X1698015Y750540D1*
X1613023Y750449D1*
X1429385Y750540D1*
X1424813Y751264D1*
X1420411Y752695D1*
X1416287Y754796D1*
X1412541Y757518D1*
X1368840Y801090D1*
X1367263Y802797D1*
X1367197Y793922D1*
X1234514D1*
X1234406Y729428D1*
X1233436Y723308D1*
X1231522Y717413D1*
X1228708Y711889D1*
X1225065Y706875D1*
X1219352Y701163D1*
X1214338Y697519D1*
X1208814Y694705D1*
X1202919Y692791D1*
X1196798Y691821D1*
X1190599D1*
X1184478Y692791D1*
X1178583Y694705D1*
X1173060Y697519D1*
X1168045Y701163D1*
X1163663Y705545D1*
X1160019Y710560D1*
X1157205Y716083D1*
X1155291Y721978D1*
X1154321Y728099D1*
Y734298D1*
X1155528Y741714D1*
Y793926D1*
X979552Y793922D1*
Y886468D1*
X873252Y886441D1*
Y1018182D1*
X983339D1*
Y905972D1*
X1036213Y905977D1*
X1036291Y920264D1*
X1037015Y924836D1*
X1038445Y929238D1*
X1040546Y933363D1*
X1043268Y937108D1*
X1104582Y998550D1*
X1098600Y998571D1*
X1092480Y999541D1*
X1086585Y1001456D1*
X1081061Y1004270D1*
X1076046Y1007914D1*
X1071665Y1012296D1*
X1068020Y1017310D1*
X1065207Y1022834D1*
X1063292Y1028729D1*
X1062322Y1034850D1*
Y1041049D1*
X1063292Y1047170D1*
X1065207Y1053065D1*
X1068020Y1058588D1*
X1071665Y1063603D1*
X1076046Y1067985D1*
X1081061Y1071629D1*
X1086585Y1074443D1*
X1092480Y1076357D1*
X1099388Y1077359D1*
X1118541Y1096381D1*
X1122287Y1099103D1*
X1126411Y1101204D1*
X1130813Y1102634D1*
X1135385Y1103359D1*
X1193284Y1103449D1*
X1188840Y1107090D1*
X1181268Y1114791D1*
X1178546Y1118536D1*
X1176445Y1122661D1*
X1175015Y1127062D1*
X1174291Y1131634D1*
X1174200Y1175754D1*
X1035494Y1314436D1*
X985385Y1314540D1*
X980813Y1315264D1*
X976411Y1316695D1*
X972287Y1318796D1*
X968541Y1321518D1*
X965140Y1324789D1*
X957880Y1322936D1*
X951700Y1322449D1*
X945520Y1322936D1*
X939494Y1324382D1*
X933767Y1326755D1*
X928482Y1329993D1*
X923770Y1334019D1*
X919743Y1338731D1*
X916506Y1344016D1*
X914133Y1349743D1*
X912687Y1355770D1*
X912200Y1361949D1*
X912687Y1368129D1*
X914133Y1374155D1*
X916506Y1379882D1*
X919743Y1385167D1*
X923770Y1389880D1*
X928482Y1393906D1*
X933767Y1397144D1*
X939494Y1399516D1*
X945520Y1400962D1*
X951700Y1401449D1*
X957880Y1400962D1*
X963906Y1399516D1*
X969633Y1397144D1*
X974918Y1393906D1*
X979836Y1389658D1*
X985113Y1387103D1*
X988859Y1384381D1*
X997487Y1375882D1*
X996322Y1382850D1*
Y1389049D1*
X997292Y1395170D1*
X999207Y1401065D1*
X1002020Y1406588D1*
X1005665Y1411603D1*
X1010046Y1415985D1*
X1015061Y1419629D1*
X1020585Y1422443D1*
X1026480Y1424357D1*
X1032600Y1425327D1*
X1038800D1*
X1044920Y1424357D1*
X1050815Y1422443D1*
X1056339Y1419629D1*
X1061931Y1415451D1*
X1074015Y1415359D1*
X1078587Y1414634D1*
X1082989Y1413204D1*
X1087113Y1411103D1*
X1090859Y1408381D1*
X1151022Y1348347D1*
X1270203Y1229166D1*
X1270291Y1364718D1*
X1271015Y1369291D1*
X1272445Y1373692D1*
X1274546Y1377817D1*
X1277268Y1381562D1*
X1286838Y1391132D1*
X1290583Y1393854D1*
X1294708Y1395955D1*
X1296889Y1396759D1*
X1304312Y1402380D1*
X1309835Y1405193D1*
X1315730Y1407108D1*
X1321851Y1408078D1*
X1328050D1*
X1334171Y1407108D1*
X1340066Y1405193D1*
X1345590Y1402380D1*
X1350604Y1398735D1*
X1354986Y1394354D1*
X1358630Y1389339D1*
X1361444Y1383815D1*
X1363359Y1377920D1*
X1364329Y1371800D1*
Y1365600D1*
X1363359Y1359480D1*
X1361444Y1353585D1*
X1358630Y1348061D1*
X1354986Y1343046D1*
X1350604Y1338665D1*
X1345590Y1335020D1*
X1340066Y1332207D1*
X1334171Y1330292D1*
X1329192Y1329457D1*
X1329342Y1289754D1*
X1453995D1*
Y1158188D1*
X1503218Y1158200D1*
X1503237Y1296003D1*
X1666473D1*
Y1201758D1*
X1822579Y1045680D1*
X2002308Y1045699D1*
X2005968Y1049329D1*
X1959998Y1049342D1*
Y1181082D1*
X2064179D1*
Y1107554D1*
X2079197Y1122558D1*
X2079200Y1231973D1*
X2066741Y1244430D1*
X2060561Y1247519D1*
X2055546Y1251162D1*
X2051163Y1255545D1*
X2047520Y1260560D1*
X2044703Y1266094D1*
X2035418Y1275752D1*
X2025700Y1285470D1*
X2009350Y1285571D1*
X2003229Y1286541D1*
X1997334Y1288456D1*
X1991801Y1291277D1*
X1984890Y1291949D1*
X1951985D1*
X1951974Y1173357D1*
X1931700D1*
X1928221Y1168291D1*
X1924948Y1165018D1*
X1921203Y1162296D1*
X1917078Y1160195D1*
X1912676Y1158764D1*
X1908104Y1158040D1*
X1824949Y1157949D1*
X1820335Y1158313D1*
X1815834Y1159393D1*
X1812449Y1160449D1*
X1806270Y1160936D1*
X1800243Y1162382D1*
X1794516Y1164755D1*
X1789231Y1167993D1*
X1784519Y1172019D1*
X1780493Y1176731D1*
X1776823Y1182952D1*
X1747113Y1183040D1*
X1742541Y1183764D1*
X1738140Y1185195D1*
X1734015Y1187296D1*
X1730270Y1190018D1*
X1716591Y1203567D1*
X1713585Y1207087D1*
X1711166Y1211035D1*
X1709394Y1215312D1*
X1708314Y1219812D1*
X1707951Y1224427D1*
Y1337210D1*
X1699792Y1339200D1*
X1439380D1*
X1439327Y1334350D1*
X1438357Y1328229D1*
X1436443Y1322334D1*
X1433629Y1316810D1*
X1429985Y1311796D1*
X1425603Y1307414D1*
X1420588Y1303770D1*
X1415065Y1300956D1*
X1409170Y1299041D1*
X1403049Y1298071D1*
X1396850D1*
X1390729Y1299041D1*
X1384834Y1300956D1*
X1379310Y1303770D1*
X1374296Y1307414D1*
X1369914Y1311796D1*
X1366270Y1316810D1*
X1363456Y1322334D1*
X1361541Y1328229D1*
X1360571Y1334350D1*
Y1340549D1*
X1361541Y1346670D1*
X1363456Y1352565D1*
X1366270Y1358088D1*
X1369914Y1363103D1*
X1371893Y1365529D1*
X1373665Y1369806D1*
X1376083Y1373754D1*
X1379090Y1377273D1*
X1393077Y1391132D1*
X1396822Y1393854D1*
X1400947Y1395955D1*
X1405348Y1397385D1*
X1409920Y1398109D1*
X1494913Y1398200D1*
X1503417D1*
X1503392Y1547945D1*
X1568822D1*
X1652006Y1466541D2*
Y1398203D1*
X1720480Y1398109D1*
X1725052Y1397385D1*
X1729453Y1395955D1*
X1733578Y1393854D1*
X1737323Y1391132D1*
X1758310Y1370273D1*
X1761317Y1366754D1*
X1763735Y1362806D1*
X1765507Y1358529D1*
X1766587Y1354029D1*
X1766951Y1349414D1*
Y1296628D1*
X1769914Y1300603D1*
X1774296Y1304985D1*
X1779310Y1308629D1*
X1784834Y1311443D1*
X1787459Y1312411D1*
X1789755Y1317882D1*
X1792993Y1323167D1*
X1797019Y1327880D1*
X1801731Y1331906D1*
X1807016Y1335144D1*
X1812459Y1337411D1*
X1814755Y1342882D1*
X1817993Y1348167D1*
X1822019Y1352880D1*
X1826731Y1356906D1*
X1832016Y1360144D1*
X1837743Y1362516D1*
X1843770Y1363962D1*
X1849949Y1364449D1*
X1856129Y1363962D1*
X1859602Y1363237D1*
X1859604Y1375964D1*
X1905571D1*
X1821085Y1460452D1*
X1769570Y1460571D1*
X1763449Y1461541D1*
X1757554Y1463456D1*
X1752022Y1466276D1*
X1735924Y1466541D1*
X1651991D1*
X722734Y1638441D2*
X725357D1*
Y1592718D1*
X831535Y1592724D1*
X831546Y1594134D1*
X862371D1*
X826165Y1630545D1*
X822520Y1635560D1*
X819707Y1641083D1*
X817792Y1646978D1*
X816822Y1653099D1*
X816700Y1692944D1*
Y1754199D1*
X792271Y1754200D1*
X798365Y1749008D1*
X803305Y1743571D1*
X807541Y1737573D1*
X811014Y1731100D1*
X813667Y1724252D1*
X815465Y1717132D1*
X816378Y1709844D1*
X816386Y1702372D1*
X815489Y1695082D1*
X813707Y1687957D1*
X811066Y1681104D1*
X807608Y1674624D1*
X803385Y1668616D1*
X798457Y1663170D1*
X792902Y1658365D1*
X786800Y1654277D1*
X780245Y1650966D1*
X773334Y1648481D1*
X766170Y1646859D1*
X758863Y1646124D1*
X751520Y1646289D1*
X744252Y1647351D1*
X737170Y1649292D1*
X730377Y1652086D1*
X726880Y1653930D1*
X725859Y1646978D1*
X723939Y1641071D1*
X1366777Y1141140D2*
X1340224D1*
X1346132Y1135108D1*
X1348854Y1131363D1*
X1350955Y1127238D1*
X1352385Y1122836D1*
X1353109Y1118264D1*
X1353200Y1085949D1*
X1352836Y1081335D1*
X1351756Y1076834D1*
X1349985Y1072557D1*
X1347566Y1068609D1*
X1344553Y1065083D1*
X1340913Y1061443D1*
X1692015Y1061359D1*
X1694323Y1061085D1*
X1693825Y1062712D1*
X1676494Y1080043D1*
X1671602Y1079322D1*
X1631756Y1079200D1*
X1428099Y1079322D1*
X1421978Y1080292D1*
X1416083Y1082207D1*
X1410560Y1085020D1*
X1405545Y1088663D1*
X1378271Y1115767D1*
X1374245Y1120480D1*
X1371007Y1125764D1*
X1368634Y1131491D1*
X1367187Y1137518D1*
X1366822Y1140611D1*
X630199Y1265796D2*
X578453D1*
X582293Y1261759D1*
X587007Y1255272D1*
X590649Y1248127D1*
X593127Y1240499D1*
X593361Y1239315D1*
X615275Y1239201D1*
X621396Y1238231D1*
X627291Y1236317D1*
X632814Y1233503D1*
X637829Y1229860D1*
X653528Y1214331D1*
X652283Y1216435D1*
X639665Y1229225D1*
X636020Y1234239D1*
X633207Y1239763D1*
X631292Y1245658D1*
X630322Y1251779D1*
X630200Y1265823D1*
X1976972Y1809674D2*
X1884602Y1809665D1*
Y1826480D1*
X1865304Y1826476D1*
X1865271Y1789231D1*
X1835235D1*
X1835205Y1745676D1*
X1862041Y1772381D1*
X1865787Y1775103D1*
X1869911Y1777204D1*
X1874313Y1778634D1*
X1878885Y1779359D1*
X1894011Y1779449D1*
X1912041Y1797381D1*
X1915787Y1800103D1*
X1919911Y1802204D1*
X1924313Y1803634D1*
X1928885Y1804359D1*
X2012764Y1804449D1*
X2017970Y1809688D1*
X1976968Y1809674D1*
X1673806Y1795951D2*
X1724081D1*
X1724082Y1826443D1*
X1692987Y1826476D1*
X1658279Y1791751D1*
X1658255Y1712470D1*
X1663861Y1717566D1*
X1667809Y1719985D1*
X1671969Y1721953D1*
Y1795951D1*
X1673806D1*
X1575071Y1835415D2*
X1595060D1*
X1595069Y1853550D1*
X1482272Y1853565D1*
X1482289Y1831575D1*
X1490878Y1831607D1*
X1490893Y1835415D1*
X1575071D1*
X1118659Y905977D2*
X1126231D1*
X1126291Y920264D1*
X1127015Y924836D1*
X1128445Y929238D1*
X1130546Y933363D1*
X1133268Y937108D1*
X1144457Y948426D1*
X1137953Y948449D1*
X1095562Y905977D1*
X1118659D1*
X1504503Y886441D2*
X1419200D1*
Y834190D1*
X1443927Y809443D1*
X1610798Y809449D1*
X1610802Y886466D1*
X1504503Y886448D1*
X1416428Y691410D2*
X1614590D1*
Y559670D1*
X1414591D1*
Y691410D1*
X1416428D1*
X875090D2*
X983339D1*
Y559670D1*
X873252D1*
Y691410D1*
X875090D1*
X1740724Y905969D2*
X1745424Y905977D1*
X1745449Y934473D1*
X1677486Y1002444D1*
X1614595Y1002449D1*
X1614590Y905972D1*
X1740729Y905977D1*
X2047679Y691410D2*
X2155928D1*
Y591616D1*
X2166838Y594050D1*
X2173777Y594872D1*
X2180760Y595146D1*
X2187743Y594872D1*
X2194683Y594050D1*
X2201537Y592687D1*
X2208263Y590791D1*
X2214819Y588372D1*
X2221166Y585445D1*
X2227263Y582031D1*
X2233073Y578149D1*
X2238561Y573822D1*
X2243693Y569079D1*
X2248436Y563947D1*
X2252763Y558459D1*
X2256200Y553558D1*
Y2062452D1*
X601628Y2062449D1*
X608154Y2057508D1*
X615066Y2051462D1*
X621508Y2044915D1*
X627441Y2037905D1*
X632833Y2030470D1*
X637654Y2022653D1*
X641876Y2014497D1*
X645474Y2006046D1*
X648432Y1997352D1*
X650730Y1988460D1*
X652356Y1979420D1*
X653301Y1970285D1*
X653565Y1962243D1*
X653221Y1953066D1*
X652191Y1943939D1*
X650481Y1934915D1*
X648100Y1926045D1*
X645064Y1917378D1*
X641385Y1908962D1*
X637088Y1900846D1*
X632195Y1893073D1*
X626734Y1885688D1*
X620737Y1878734D1*
X614234Y1872247D1*
X607266Y1866266D1*
X599868Y1860822D1*
X592085Y1855947D1*
X583959Y1851669D1*
X575533Y1848010D1*
X566860Y1844993D1*
X557983Y1842633D1*
X548956Y1840944D1*
X539827Y1839935D1*
X530649Y1839612D1*
X521472Y1839978D1*
X512348Y1841028D1*
X503329Y1842759D1*
X494464Y1845161D1*
X485804Y1848218D1*
X477397Y1851915D1*
X469289Y1856231D1*
X461528Y1861142D1*
X454157Y1866620D1*
X447216Y1872634D1*
X440745Y1879151D1*
X434779Y1886134D1*
X431196Y1891025D1*
X431200Y608758D1*
X435489Y614392D1*
X441519Y621318D1*
X448052Y627775D1*
X455048Y633725D1*
X462470Y639134D1*
X470276Y643972D1*
X478423Y648213D1*
X486864Y651833D1*
X495553Y654809D1*
X504439Y657128D1*
X513474Y658775D1*
X522608Y659741D1*
X531788Y660022D1*
X540962Y659613D1*
X550082Y658520D1*
X559094Y656747D1*
X567947Y654305D1*
X576592Y651207D1*
X584982Y647470D1*
X593069Y643117D1*
X600808Y638170D1*
X608154Y632658D1*
X615066Y626612D1*
X621508Y620065D1*
X627441Y613054D1*
X632833Y605620D1*
X637654Y597802D1*
X641876Y589646D1*
X645474Y581196D1*
X648432Y572502D1*
X650730Y563609D1*
X652356Y554570D1*
X653301Y545435D1*
X653565Y537393D1*
X653221Y528216D1*
X652191Y519088D1*
X650481Y510065D1*
X648100Y501195D1*
X645064Y492528D1*
X641385Y484112D1*
X637088Y475995D1*
X632195Y468222D1*
X626734Y460838D1*
X620737Y453884D1*
X614234Y447397D1*
X607266Y441415D1*
X601863Y437439D1*
X2124167Y437449D1*
X2117827Y443213D1*
X2113085Y448346D1*
X2108758Y453834D1*
X2104876Y459644D1*
X2101461Y465741D1*
X2098535Y472087D1*
X2096116Y478644D1*
X2094220Y485369D1*
X2092856Y492224D1*
X2092035Y499163D1*
X2091760Y506146D1*
X2092035Y513129D1*
X2092856Y520069D1*
X2094220Y526923D1*
X2096116Y533649D1*
X2098535Y540205D1*
X2101461Y546552D1*
X2104876Y552649D1*
X2109721Y559682D1*
X2045842Y559670D1*
Y691410D1*
X2047679D1*
X989510Y1199728D2*
X1031494Y1199882D1*
X1025767Y1202255D1*
X1022044Y1204449D1*
X951083D1*
X946346Y1199676D1*
X952465Y1199037D1*
X961014Y1196985D1*
X969136Y1193621D1*
X976632Y1189027D1*
X983318Y1183318D1*
X987676Y1178346D1*
X987672Y1199728D1*
X989510D1*
X1055415D2*
X1099728D1*
Y1087672D1*
X987672D1*
Y1108981D1*
X983318Y1104082D1*
X976632Y1098373D1*
X969136Y1093779D1*
X961014Y1090415D1*
X952465Y1088363D1*
X943700Y1087672D1*
X934935Y1088363D1*
X926386Y1090415D1*
X918264Y1093779D1*
X910768Y1098373D1*
X904082Y1104082D1*
X898373Y1110768D1*
X893700Y1118436D1*
X889027Y1110768D1*
X883318Y1104082D1*
X876632Y1098373D1*
X869136Y1093779D1*
X861014Y1090415D1*
X852465Y1088363D1*
X843700Y1087672D1*
X834935Y1088363D1*
X826386Y1090415D1*
X818264Y1093779D1*
X810768Y1098373D1*
X804082Y1104082D1*
X798373Y1110768D1*
X793779Y1118264D1*
X790415Y1126386D1*
X788363Y1134935D1*
X787672Y1143700D1*
X788363Y1152465D1*
X790415Y1161014D1*
X793779Y1169136D1*
X798373Y1176632D1*
X804082Y1183318D1*
X810768Y1189027D1*
X818264Y1193621D1*
X826386Y1196985D1*
X834935Y1199037D1*
X843700Y1199728D1*
X852380Y1199048D1*
X916018Y1262543D1*
X920207Y1265587D1*
X924821Y1267938D1*
X929746Y1269537D1*
X934860Y1270348D1*
X1001754Y1270449D1*
X1021957D1*
X1028585Y1273943D1*
X1034480Y1275857D1*
X1040600Y1276827D1*
X1046800D1*
X1052920Y1275857D1*
X1058815Y1273943D1*
X1064339Y1271129D1*
X1069354Y1267485D1*
X1073735Y1263103D1*
X1077380Y1258088D1*
X1080193Y1252565D1*
X1082108Y1246670D1*
X1083078Y1240549D1*
Y1234350D1*
X1082108Y1228229D1*
X1080193Y1222334D1*
X1077380Y1216810D1*
X1073735Y1211796D1*
X1069354Y1207414D1*
X1064339Y1203770D1*
X1058815Y1200956D1*
X1055357Y1199728D1*
X816472Y1960112D2*
X815797Y1952798D1*
X814234Y1945623D1*
X811805Y1938691D1*
X808548Y1932109D1*
X804508Y1925974D1*
X799751Y1920380D1*
X794346Y1915407D1*
X788372Y1911134D1*
X781920Y1907624D1*
X775088Y1904927D1*
X767980Y1903087D1*
X760697Y1902129D1*
X753354Y1902069D1*
X746057Y1902907D1*
X738917Y1904632D1*
X732043Y1907214D1*
X725535Y1910620D1*
X719491Y1914794D1*
X714004Y1919676D1*
X709157Y1925193D1*
X705018Y1931260D1*
X701653Y1937789D1*
X699111Y1944679D1*
X697430Y1951829D1*
X696637Y1959130D1*
X696741Y1966474D1*
X697743Y1973750D1*
X699627Y1980848D1*
X702364Y1987665D1*
X705914Y1994094D1*
X710224Y2000041D1*
X715228Y2005417D1*
X720851Y2010141D1*
X727010Y2014142D1*
X733612Y2017360D1*
X740558Y2019746D1*
X747743Y2021266D1*
X755061Y2021896D1*
X762401Y2021627D1*
X769651Y2020461D1*
X776707Y2018419D1*
X783459Y2015529D1*
X789808Y2011836D1*
X795657Y2007394D1*
X800918Y2002271D1*
X805515Y1996543D1*
X809376Y1990296D1*
X812445Y1983623D1*
X814675Y1976625D1*
X816033Y1969407D1*
X816499Y1961949D1*
X816472Y1960112D1*
X509573Y833914D2*
X627665D1*
Y713985D1*
X507735D1*
Y833914D1*
X509573D1*
X804645Y769245D2*
X803172Y759951D1*
X800266Y751002D1*
X795994Y742617D1*
X790462Y735006D1*
X783809Y728352D1*
X776197Y722821D1*
X767813Y718549D1*
X758864Y715642D1*
X749570Y714170D1*
X740161D1*
X730867Y715642D1*
X721918Y718549D1*
X713533Y722821D1*
X705922Y728352D1*
X699268Y735006D1*
X693737Y742617D1*
X689465Y751002D1*
X686558Y759951D1*
X685086Y769245D1*
Y778654D1*
X686558Y787948D1*
X689465Y796897D1*
X693737Y805281D1*
X699268Y812893D1*
X705922Y819546D1*
X713533Y825078D1*
X721918Y829350D1*
X730867Y832256D1*
X740161Y833729D1*
X749570D1*
X758864Y832256D1*
X767813Y829350D1*
X776197Y825078D1*
X783809Y819546D1*
X790462Y812893D1*
X795994Y805281D1*
X800266Y796897D1*
X803172Y787948D1*
X804645Y778654D1*
Y769245D1*
Y1025150D2*
X803172Y1015856D1*
X800266Y1006907D1*
X795994Y998523D1*
X790462Y990911D1*
X783809Y984258D1*
X776197Y978726D1*
X767813Y974455D1*
X758864Y971548D1*
X749570Y970075D1*
X740161D1*
X730867Y971548D1*
X721918Y974455D1*
X713533Y978726D1*
X705922Y984258D1*
X699268Y990911D1*
X693737Y998523D1*
X689465Y1006907D1*
X686558Y1015856D1*
X685086Y1025150D1*
Y1034560D1*
X686558Y1043854D1*
X689465Y1052802D1*
X693737Y1061187D1*
X699268Y1068798D1*
X705922Y1075452D1*
X713533Y1080983D1*
X721918Y1085255D1*
X730867Y1088162D1*
X740161Y1089634D1*
X749570D1*
X758864Y1088162D1*
X767813Y1085255D1*
X776197Y1080983D1*
X783809Y1075452D1*
X790462Y1068798D1*
X795994Y1061187D1*
X800266Y1052802D1*
X803172Y1043854D1*
X804645Y1034560D1*
Y1025150D1*
X627637Y1028018D2*
X626962Y1020704D1*
X625399Y1013528D1*
X622970Y1006596D1*
X619713Y1000015D1*
X615674Y993880D1*
X610917Y988285D1*
X605511Y983313D1*
X599537Y979040D1*
X593086Y975529D1*
X586254Y972833D1*
X579145Y970993D1*
X571863Y970035D1*
X564519Y969974D1*
X557222Y970813D1*
X550082Y972537D1*
X543208Y975120D1*
X536700Y978525D1*
X530657Y982700D1*
X525170Y987582D1*
X520322Y993099D1*
X516183Y999166D1*
X512818Y1005695D1*
X510276Y1012585D1*
X508595Y1019734D1*
X507802Y1027036D1*
X507906Y1034380D1*
X508909Y1041655D1*
X510792Y1048754D1*
X513529Y1055570D1*
X517079Y1061999D1*
X521389Y1067947D1*
X526393Y1073322D1*
X532016Y1078046D1*
X538175Y1082048D1*
X544777Y1085266D1*
X551724Y1087651D1*
X558909Y1089171D1*
X566226Y1089801D1*
X573566Y1089532D1*
X580817Y1088367D1*
X587872Y1086325D1*
X594624Y1083435D1*
X600973Y1079742D1*
X606822Y1075300D1*
X612083Y1070176D1*
X616680Y1064448D1*
X620541Y1058201D1*
X623611Y1051528D1*
X625840Y1044531D1*
X627199Y1037313D1*
X627665Y1029855D1*
X627637Y1028018D1*
X1686838Y1887178D2*
Y1935452D1*
X1681271Y1935936D1*
X1675245Y1937382D1*
X1669518Y1939755D1*
X1664233Y1942993D1*
X1661220Y1945448D1*
X1654043Y1945449D1*
X1654069Y1870985D1*
X1663350Y1880132D1*
X1667095Y1882854D1*
X1671220Y1884955D1*
X1675621Y1886385D1*
X1680193Y1887109D1*
X1686851Y1887200D1*
X2093436Y1618699D2*
X2085768Y1623372D1*
X2079082Y1629081D1*
X2073373Y1635767D1*
X2071071Y1639210D1*
X2018403Y1639199D1*
X1975359Y1596268D1*
X1971613Y1593546D1*
X1967489Y1591445D1*
X1963087Y1590015D1*
X1958515Y1589291D1*
X1873523Y1589200D1*
X1779327D1*
X1777380Y1585561D1*
X1773735Y1580546D1*
X1769354Y1576165D1*
X1764339Y1572520D1*
X1758815Y1569707D1*
X1752920Y1567792D1*
X1746800Y1566822D1*
X1740600D1*
X1734480Y1567792D1*
X1728585Y1569707D1*
X1726703Y1570574D1*
X1725859Y1565729D1*
X1723944Y1559834D1*
X1721130Y1554310D1*
X1717486Y1549296D1*
X1713789Y1545546D1*
X1775770Y1545419D1*
X1781890Y1544449D1*
X1787785Y1542535D1*
X1793318Y1539714D1*
X1809415Y1539449D1*
X1840549Y1539327D1*
X1846670Y1538357D1*
X1852565Y1536443D1*
X1858088Y1533629D1*
X1863103Y1529985D1*
X1891363Y1501897D1*
X1959999Y1433260D1*
X1959998Y1499980D1*
X2064179D1*
Y1368239D1*
X2025029D1*
X2028814Y1364447D1*
X2045182Y1364327D1*
X2051302Y1363357D1*
X2057197Y1361443D1*
X2062721Y1358629D1*
X2067745Y1354977D1*
X2074392Y1357596D1*
X2079188Y1362392D1*
X2079082Y1529081D1*
X2073373Y1535767D1*
X2068779Y1543263D1*
X2065415Y1551385D1*
X2063363Y1559934D1*
X2062672Y1568699D1*
X2063363Y1577464D1*
X2065415Y1586012D1*
X2068779Y1594134D1*
X2073373Y1601630D1*
X2079082Y1608317D1*
X2085768Y1614025D1*
X2093436Y1618699D1*
X2071071Y1698187D2*
X2076096Y1705086D1*
X2082313Y1711302D1*
X2086040Y1714208D1*
X2018414Y1714200D1*
X2002124Y1697905D1*
X2006199Y1698199D1*
X2071041D1*
X431218Y2033522D2*
X435489Y2039242D1*
X441519Y2046169D1*
X448052Y2052625D1*
X455048Y2058575D1*
X460354Y2062441D1*
X431179Y2062449D1*
X431200Y2033575D1*
X459944Y437469D2*
X454157Y441770D1*
X447216Y447784D1*
X440745Y454301D1*
X434779Y461284D1*
X431196Y466175D1*
X431200Y437426D1*
X459859Y437449D1*
X1303579Y963919D2*
X1308585Y966443D1*
X1314480Y968357D1*
X1320600Y969327D1*
X1326800D1*
X1332920Y968357D1*
X1338815Y966443D1*
X1344339Y963629D1*
X1349354Y959985D1*
X1353735Y955603D1*
X1357380Y950588D1*
X1360197Y945054D1*
X1360200Y959709D1*
X1347501Y972430D1*
X1301962Y972449D1*
X1297376Y968964D1*
X1301354Y965985D1*
X1303569Y963938D1*
X1298918Y969993D1*
X1297376Y968964D1*
X1301354Y965985D1*
X1303569Y963938D1*
X1301354Y971914D1*
X1298918Y969993D1*
X1126813Y1007449D2*
X1160687D1*
X1156506Y1014016D1*
X1154133Y1019743D1*
X1152687Y1025770D1*
X1152200Y1031949D1*
X1152687Y1038129D1*
X1154238Y1044440D1*
X1141078Y1034850D1*
X1140108Y1028729D1*
X1138193Y1022834D1*
X1135380Y1017310D1*
X1131735Y1012296D1*
X1126772Y1007456D1*
X1666951Y1637713D2*
Y1612163D1*
X1669518Y1610144D1*
X1675245Y1612516D1*
X1681271Y1613962D1*
X1687451Y1614449D1*
X1693630Y1613962D1*
X1699657Y1612516D1*
X1704448Y1610575D1*
X1705292Y1615420D1*
X1707207Y1621315D1*
X1708378Y1623857D1*
X1703050Y1623071D1*
X1696851D1*
X1690730Y1624041D1*
X1684835Y1625956D1*
X1679312Y1628770D1*
X1674297Y1632414D1*
X1669915Y1636796D1*
X1668197Y1638976D1*
X1657844Y1545812D2*
X1653326Y1546897D1*
X1655440Y1545541D1*
X1660141D1*
X1972014Y1689200D2*
X1912195D1*
X1871154Y1648183D1*
X1943982Y1648200D1*
X1985250Y1689470D1*
X1981200Y1689200D1*
X1972014D1*
X1149907Y1044438D2*
X1141128Y1035658D1*
X1605821Y1432863D2*
D104*
X1651970D1*
X679172Y1590288D2*
X725322D1*
X1503272Y1193574D2*
X1551390D1*
X1404028Y1539692D2*
Y1447393D1*
Y1493543D2*
X1452146D1*
X1338913Y1289718D2*
Y1243569D1*
Y1187325D2*
Y1141175D1*
X1551390Y1295966D2*
Y1249818D1*
X1503273D2*
X1551390D1*
X1503428Y1432863D2*
X1549577D1*
X1930787Y1857818D2*
Y1809700D1*
X1993300Y1857827D2*
Y1809709D1*
Y1857827D2*
X2039449D1*
X1720123Y1795915D2*
Y1749766D1*
X1672004D2*
X1720123D1*
X1612070Y1720333D2*
Y1672214D1*
Y1720333D2*
X1658220D1*
X1537078D2*
Y1672214D1*
X1490928Y1720333D2*
X1537078D1*
X1574574Y1899750D2*
Y1853600D1*
X1108414Y905940D2*
Y793957D1*
X1469634Y952312D2*
Y886477D1*
Y691375D2*
Y559705D1*
X1414627Y625540D2*
X1469634D1*
X928296Y1018146D2*
Y886477D1*
X873288Y952312D2*
X983304D1*
X928296Y691375D2*
Y559705D1*
X873288Y625540D2*
X983304D1*
X1739665Y905941D2*
Y793957D1*
X2100885Y1018146D2*
Y886477D1*
X2045877Y952312D2*
X2155893D1*
X2100885Y691373D2*
Y559705D1*
X2045878Y625540D2*
X2155893D1*
X1559546Y952312D2*
Y886477D1*
Y952312D2*
X1614554D1*
X1559546Y691373D2*
Y559705D1*
Y625540D2*
X1614554D1*
X1043700Y1199691D2*
Y1087708D1*
Y1143700D2*
X1099692D1*
X1212112Y2005735D2*
Y1949745D1*
X741672Y1592688D2*
Y1500389D1*
X756535Y2021878D2*
Y1902020D1*
X696606Y1961949D2*
X816464D1*
X756535Y1706044D2*
Y1646115D1*
Y1706044D2*
X816464D1*
X567700Y833878D2*
Y714020D1*
X507771Y773949D2*
X627629D1*
X567700Y1089784D2*
Y969926D1*
X507771Y1029855D2*
X627629D1*
X715514Y1469627D2*
Y1426430D1*
X1391923Y1851319D2*
X1482254D1*
X543432Y1149829D2*
Y1098758D1*
X492361Y1149829D2*
X594503D1*
X2118700Y2024691D2*
Y1968699D1*
X2062708D2*
X2174692D1*
X1905789Y1375928D2*
Y1343558D1*
D19*
X1605821Y1499792D3*
Y1432863D3*
X679172Y1590288D3*
Y1523359D3*
D20*
X1618319Y1193574D3*
X1551390D3*
X1337099Y1493543D3*
X1404028D3*
X1405842Y1243569D3*
X1338913D3*
X1405842Y1187325D3*
X1338913D3*
X1618319Y1249818D3*
X1551390D3*
D19*
X1549577Y1499792D3*
Y1432863D3*
X585700Y1313949D3*
Y1380878D3*
X616672Y1527789D3*
Y1594718D3*
X1930787Y1924747D3*
Y1857818D3*
X1993300Y1924756D3*
Y1857827D3*
D20*
X1787052Y1749766D3*
X1720123D3*
D19*
X1612070Y1787262D3*
Y1720333D3*
X1537078Y1787262D3*
Y1720333D3*
D20*
X1574574Y1899750D3*
X1507645D3*
D19*
X699700Y1157949D3*
Y1224878D3*
D22*
X1324949Y849949D3*
X1281642D3*
X1238335D3*
X1195028D3*
X1151721D3*
X1108414D3*
X1065107D3*
X1021800D3*
D23*
X1469634Y952312D3*
Y625540D3*
X928296Y952312D3*
Y625540D3*
D22*
X1956200Y849949D3*
X1912893D3*
X1869586D3*
X1826279D3*
X1782972D3*
X1739665D3*
X1696357D3*
X1653050D3*
D23*
X2100885Y952312D3*
Y625540D3*
X1559546Y952312D3*
Y625540D3*
D24*
X1043380Y1606031D3*
D25*
Y1506031D3*
D24*
X1043700Y1143700D3*
D25*
X943700D3*
X843700D3*
D24*
X1212112Y1949745D3*
D25*
Y1849745D3*
Y1749745D3*
D27*
X585700Y1463949D3*
X522708D3*
D20*
X879700Y1547949D3*
X946629D3*
X741672Y1546539D3*
X808602D3*
X1112123Y1955994D3*
X1045193D3*
X1112123Y1843506D3*
X1045193D3*
D28*
X933700Y1961949D3*
D29*
X756535D3*
Y1706044D3*
X933700D3*
D28*
X567700Y773949D3*
D29*
X744865D3*
Y1029855D3*
X567700D3*
D38*
X687167Y1368556D3*
Y1388241D3*
Y1407926D3*
D39*
X715514Y1426430D3*
X735199D3*
D38*
X763545Y1407926D3*
Y1388241D3*
Y1368556D3*
D39*
X735199Y1350052D3*
X715514D3*
D40*
X1818298Y1831007D3*
X1802550D3*
X1786802D3*
X1834046D3*
X1771054D3*
X1755306D3*
D41*
X1728613Y1857700D3*
Y1873448D3*
Y1889196D3*
Y1904944D3*
Y1920692D3*
Y1936440D3*
D40*
X1755306Y1963133D3*
X1771054D3*
X1786802D3*
X1802550D3*
X1818298D3*
X1834046D3*
D41*
X1860739Y1857700D3*
Y1873448D3*
Y1889196D3*
Y1904944D3*
Y1920692D3*
Y1936440D3*
D42*
X1437088Y1949745D3*
Y1851319D3*
Y1900532D3*
Y1802107D3*
X1337088Y1949745D3*
Y1900532D3*
Y1851319D3*
Y1802107D3*
D43*
X543432Y1149829D3*
Y1228569D3*
D24*
X2118700Y1968699D3*
D25*
Y1868699D3*
Y1768699D3*
Y1668699D3*
Y1568699D3*
D44*
X1905789Y1343558D3*
Y1323873D3*
Y1304188D3*
Y1284503D3*
Y1264818D3*
Y1245133D3*
Y1225448D3*
Y1205763D3*
D45*
X2012088Y1434109D3*
Y1115212D3*
M02*
