%TF.GenerationSoftware,Novarm,DipTrace,3.3.0.1*%
%TF.CreationDate,2018-11-14T10:13:03-08:00*%
%FSLAX26Y26*%
%MOIN*%
%TF.FileFunction,Paste,Bot*%
%TF.Part,Single*%
%ADD54R,0.043301X0.07086*%
%ADD56R,0.03149X0.003931*%
%ADD60R,0.029522X0.013774*%
%ADD62R,0.022671X0.001569*%
%ADD64R,0.001569X0.022671*%
%ADD66O,0.003931X0.025585*%
%ADD68O,0.025585X0.003931*%
%ADD80R,0.029522X0.03149*%
%ADD88R,0.049207X0.07086*%
%ADD90R,0.023616X0.051175*%
%ADD94R,0.035427X0.03149*%
%ADD96R,0.03149X0.035427*%
G75*
G01*
%LPD*%
D96*
X1605821Y1499792D3*
Y1432863D3*
X679172Y1590288D3*
Y1523359D3*
D94*
X1618319Y1193574D3*
X1551390D3*
X1337099Y1493543D3*
X1404028D3*
X1405842Y1243569D3*
X1338913D3*
X1405842Y1187325D3*
X1338913D3*
X1618319Y1249818D3*
X1551390D3*
D96*
X1549577Y1499792D3*
Y1432863D3*
X585700Y1313949D3*
Y1380878D3*
X616672Y1527789D3*
Y1594718D3*
X1930787Y1924747D3*
Y1857818D3*
X1993300Y1924756D3*
Y1857827D3*
D94*
X1787052Y1749766D3*
X1720123D3*
D96*
X1612070Y1787262D3*
Y1720333D3*
X1537078Y1787262D3*
Y1720333D3*
D94*
X1574574Y1899750D3*
X1507645D3*
D96*
X699700Y1157949D3*
Y1224878D3*
D90*
X1324949Y849949D3*
X1281642D3*
X1238335D3*
X1195028D3*
X1151721D3*
X1108414D3*
X1065107D3*
X1021800D3*
D88*
X1469634Y952312D3*
Y625540D3*
X928296Y952312D3*
Y625540D3*
D90*
X1956200Y849949D3*
X1912893D3*
X1869586D3*
X1826279D3*
X1782972D3*
X1739665D3*
X1696357D3*
X1653050D3*
D88*
X2100885Y952312D3*
Y625540D3*
X1559546Y952312D3*
Y625540D3*
D80*
X585700Y1463949D3*
X522708D3*
D94*
X879700Y1547949D3*
X946629D3*
X741672Y1546539D3*
X808602D3*
X1112123Y1955994D3*
X1045193D3*
X1112123Y1843506D3*
X1045193D3*
D68*
X687167Y1368556D3*
Y1388241D3*
Y1407926D3*
D66*
X715514Y1426430D3*
X735199D3*
D68*
X763545Y1407926D3*
Y1388241D3*
Y1368556D3*
D66*
X735199Y1350052D3*
X715514D3*
D64*
X1818298Y1831007D3*
X1802550D3*
X1786802D3*
X1834046D3*
X1771054D3*
X1755306D3*
D62*
X1728613Y1857700D3*
Y1873448D3*
Y1889196D3*
Y1904944D3*
Y1920692D3*
Y1936440D3*
D64*
X1755306Y1963133D3*
X1771054D3*
X1786802D3*
X1802550D3*
X1818298D3*
X1834046D3*
D62*
X1860739Y1857700D3*
Y1873448D3*
Y1889196D3*
Y1904944D3*
Y1920692D3*
Y1936440D3*
D60*
X1437088Y1949745D3*
Y1851319D3*
Y1900532D3*
Y1802107D3*
X1337088Y1949745D3*
Y1900532D3*
Y1851319D3*
Y1802107D3*
D56*
X1905789Y1343558D3*
Y1323873D3*
Y1304188D3*
Y1284503D3*
Y1264818D3*
Y1245133D3*
Y1225448D3*
Y1205763D3*
D54*
X2012088Y1434109D3*
Y1115212D3*
M02*
