%TF.GenerationSoftware,Novarm,DipTrace,3.3.0.1*%
%TF.CreationDate,2018-11-14T10:13:01-08:00*%
%FSLAX26Y26*%
%MOIN*%
%TF.FileFunction,Copper,L1,Top*%
%TF.Part,Single*%
%ADD12C,0.003*%
%TA.AperFunction,Conductor*%
%ADD14C,0.006*%
%ADD15C,0.026*%
%ADD16C,0.013*%
%ADD17C,0.011811*%
%TA.AperFunction,CopperBalancing*%
%ADD18C,0.025*%
%ADD19R,0.03937X0.043307*%
%ADD20R,0.043307X0.03937*%
%ADD21R,0.031496X0.031496*%
%TA.AperFunction,ComponentPad*%
%ADD24R,0.059055X0.059055*%
%ADD25C,0.059055*%
%ADD26R,0.03937X0.037402*%
%TA.AperFunction,ComponentPad*%
%ADD28R,0.066929X0.066929*%
%ADD29C,0.066929*%
%ADD34R,0.057087X0.011811*%
%ADD35R,0.011811X0.057087*%
%ADD36R,0.035433X0.031496*%
%TA.AperFunction,ComponentPad*%
%ADD43C,0.049213*%
%TA.AperFunction,ViaPad*%
%ADD103C,0.026*%
%TA.AperFunction,CopperBalancing*%
%ADD104C,0.013*%
G75*
G01*
%LPD*%
X1124949Y1237449D2*
D14*
X1181200D1*
X1207480Y1263729D1*
X1249949D1*
X1181200Y1187941D2*
Y1237449D1*
X1885630Y1387451D2*
X1891880Y1393700D1*
X1947834D1*
X1407430Y1578690D2*
X1406200Y1579919D1*
Y1618700D1*
X1387451Y1637449D1*
Y1651770D1*
X1702705Y1263729D2*
X1701426Y1262449D1*
X1756200D1*
X1768700Y1274949D1*
X1799949D1*
X1323700Y929949D2*
X1347700Y953949D1*
X1461700D1*
X1466485Y958734D1*
Y1125934D1*
X1911700Y935949D2*
X1851700Y995949D1*
X1737700D1*
X1725700Y983949D1*
X1485700D1*
X1486170Y984419D1*
Y1125934D1*
X1885630Y1449949D2*
X1894636Y1440944D1*
X1947834D1*
X1124949Y1304378D2*
X1181200D1*
X1202165Y1283414D1*
X1249949D1*
X1930787Y1857818D2*
D15*
X1822918Y1749949D1*
X1718700D1*
X1348375Y1578690D2*
D14*
X1349949Y1580264D1*
Y1643700D1*
X1343700Y1649949D1*
Y1699949D1*
X1362449Y1718699D1*
X1387451D1*
X1660629Y1056200D2*
D15*
X1660741Y1056088D1*
X2055773D1*
X2099519Y1012343D1*
Y956099D1*
X1099951Y1374949D2*
D16*
X1124949Y1349951D1*
Y1304378D1*
X1348375Y1125934D2*
D17*
Y1160977D1*
D16*
X1337099Y1172252D1*
Y1187325D1*
X1605821Y1432863D2*
X1622755Y1449797D1*
X1643317D1*
X1649566Y1456046D1*
Y1468545D1*
X1661285Y1480264D1*
X1667662D1*
D17*
X1702705D1*
X1604280Y1125934D2*
D14*
X1605821Y1124393D1*
Y1099834D1*
X1551390Y1193574D2*
X1557640Y1187325D1*
X1587073D1*
X1604280Y1170117D1*
Y1125934D1*
X1649455Y1056200D2*
X1660629D1*
X843401Y1274815D2*
D16*
X843700D1*
Y1400102D1*
X868398Y1424800D1*
X893396D1*
X1080876D1*
X1087125Y1418550D1*
Y1387775D1*
X1099951Y1374949D1*
X893396Y1437298D2*
Y1424800D1*
X585700Y1380878D2*
X593427Y1373151D1*
Y1318561D1*
X680918Y1231070D1*
X693417D1*
X718414Y1256067D1*
X793406D1*
X812154Y1274815D1*
X843401D1*
X1702705Y1342469D2*
D14*
X1704186Y1343949D1*
X1737700D1*
X1781201Y1387451D1*
X1818701D1*
X1702705Y1362154D2*
X1702910Y1361949D1*
X1731700D1*
X1749700Y1379949D1*
Y1445949D1*
X1753700Y1449949D1*
X1818701D1*
X2074949Y1368700D2*
X2149949D1*
Y1218699D1*
X2106200Y1174949D1*
X2043700D1*
X1868700Y1349949D1*
X1767700D1*
X1740535Y1322784D1*
X1702705D1*
X1197700Y977949D2*
X1257700Y1037949D1*
X1277145D1*
X1407700D1*
X1427115Y1057364D1*
Y1125934D1*
X1275700Y1001949D2*
X1268356Y1009293D1*
X1275700Y1001949D2*
X1277145Y1003394D1*
Y1037949D1*
X1249949Y1303099D2*
X1253049Y1306199D1*
X1316039D1*
Y1337449D1*
X1399949D1*
X1275700Y935949D2*
X1317700Y977949D1*
X1413700D1*
X1446800Y1011049D1*
Y1125934D1*
X1845700Y959949D2*
X1755700Y869949D1*
X1275700D1*
Y935949D1*
X1702705Y1244044D2*
X1703049Y1243700D1*
X1774951D1*
X1166880Y1374949D2*
X1173770Y1381839D1*
X1249949D1*
X1687451Y1574949D2*
X1643700Y1531199D1*
X1618700D1*
X1499951Y1412449D1*
X1318700D1*
X1288090Y1381839D1*
X1249949D1*
X1043380Y1506031D2*
X1118361Y1431049D1*
X1155868D1*
X1166880Y1420037D1*
Y1374949D1*
X2074949Y1435629D2*
X2069634Y1440944D1*
X2018700D1*
X943700Y1237449D2*
D16*
Y1143700D1*
X1043700Y1237449D2*
D3*
X933700Y1706044D2*
D14*
X1033713Y1606031D1*
X1043380D1*
X1328690Y1125934D2*
X1324705Y1121949D1*
X1269700D1*
X951700Y1361949D2*
X943700Y1353949D1*
Y1304378D1*
X1191700Y1031949D2*
X1234700Y1074949D1*
X1406700D1*
X1407430Y1074220D1*
Y1125934D1*
X1702705Y1224359D2*
X1703296Y1224949D1*
X1737449D1*
X1762449Y1199949D1*
X1812449D1*
X1631200Y1999949D2*
X1649951Y2018700D1*
X1949949D1*
Y1981200D1*
X1446800Y1578690D2*
X1449949Y1575540D1*
Y1837449D1*
X1437654Y1849745D1*
X1212112D1*
X1687451Y1974949D2*
X1693700Y1981199D1*
X1906200D1*
Y1968493D1*
X1427115Y1578690D2*
X1424949Y1580855D1*
Y1618699D1*
X1431200Y1624949D1*
Y1799949D1*
X1418700Y1812449D1*
X1356200D1*
X1337451Y1793700D1*
X1237451D1*
X1212112Y1768361D1*
Y1749745D1*
X1702705Y1283414D2*
X1700490Y1281199D1*
X1743700D1*
X1762451Y1299949D1*
X1824949D1*
X1702705Y1303099D2*
X1705805Y1306199D1*
X1747949D1*
X1766700Y1324949D1*
X1849949D1*
X1949949Y1583020D2*
Y1518700D1*
X1699951Y1662449D2*
X1623965Y1586464D1*
Y1578690D1*
X1702705Y1460579D2*
X1704575Y1462449D1*
X1737210D1*
X1743700Y1468939D1*
Y1606200D1*
X1249949Y1204674D2*
X1251700Y1202923D1*
Y1169949D1*
X1035700Y1385949D2*
X1043700Y1377949D1*
Y1304378D1*
X887449Y1037449D2*
X879855Y1029855D1*
X744865D1*
Y773949D1*
X887449Y1037449D2*
X887949Y1037949D1*
X1101700D1*
X1324951Y1368700D2*
X1318405Y1362154D1*
X1249949D1*
X674669Y1343651D2*
D16*
X687167Y1356150D1*
Y1518540D1*
X1593700Y1056200D2*
D14*
X1584595Y1065305D1*
Y1125934D1*
X687451Y1824949D2*
D15*
X718700Y1793700D1*
X1024951D1*
X887449Y970520D2*
X881200Y964271D1*
Y743699D1*
X893700Y731199D1*
X1193699D1*
X1199948Y724949D1*
X1826279D1*
X1637067Y1506041D2*
D14*
Y1499949D1*
X1702705D1*
X1181200Y1124949D2*
D15*
X1149949Y1093699D1*
Y924949D1*
X1193699Y881200D1*
Y731199D1*
X1623965Y1125934D2*
D14*
Y1188434D1*
X1618700Y1193699D1*
X1406201Y1187449D2*
X1399951Y1181199D1*
X1374949D1*
X1368060Y1174309D1*
Y1125934D1*
X1772670Y1499949D2*
D15*
X1812451Y1539730D1*
Y1649949D1*
X1837473Y1674972D1*
X1877519Y1715018D1*
X1993700Y1831199D1*
Y1924949D1*
X1877519Y1715018D2*
X1942587Y1649949D1*
X1949949D1*
X2018700Y1393700D2*
Y1299948D1*
X2037449Y1281199D1*
X2081200D1*
X2118700Y1568699D2*
X2087449Y1599949D1*
X2043700D1*
X1993700Y1649949D1*
X1949949D1*
X1337099Y1493543D2*
D16*
X1328690Y1501952D1*
Y1543646D1*
D17*
Y1578690D1*
Y1501952D2*
D16*
X1284993Y1499949D1*
D17*
X1249949D1*
X1214906D1*
D16*
X1190066Y1524789D1*
X1174616D1*
X1612070Y1787262D2*
D14*
X1699561Y1699771D1*
X1805800D1*
X1830599Y1674972D1*
X1837473D1*
X1174616Y1524789D2*
D15*
D3*
X643422Y1387304D2*
D16*
X618424Y1412301D1*
Y1531039D1*
X808602Y1546539D2*
D14*
X812154Y1542986D1*
Y1356057D1*
X762159Y1306062D1*
X712165D1*
D103*
X1799949Y1274949D3*
X1323700Y929949D3*
X1911700Y935949D3*
X1930787Y1857818D3*
X1718700Y1749949D3*
X2099519Y956099D3*
X1337099Y1187325D3*
X1605821Y1432863D3*
X1551390Y1193574D3*
X585700Y1380878D3*
X1197700Y977949D3*
X1275700Y1001949D3*
D3*
X1399949Y1337449D3*
X1275700Y935949D3*
X1845700Y959949D3*
X1275700Y935949D3*
X1774951Y1243700D3*
X1687451Y1574949D3*
X1043700Y1237449D3*
X1269700Y1121949D3*
X951700Y1361949D3*
X1191700Y1031949D3*
X1812449Y1199949D3*
X1631200Y1999949D3*
X1949949Y1981200D3*
X1687451Y1974949D3*
X1906200Y1968493D3*
X1824949Y1299949D3*
X1849949Y1324949D3*
X1699951Y1662449D3*
X1743700Y1606200D3*
X1251700Y1169949D3*
X1035700Y1385949D3*
X1101700Y1037949D3*
X1324951Y1368700D3*
X674669Y1343651D3*
X687167Y1518540D3*
X687451Y1824949D3*
X1024951Y1793700D3*
X1193699Y731199D3*
X1826279Y724949D3*
X1637067Y1506041D3*
X1618700Y1193699D3*
X1406201Y1187449D3*
X1993700Y1924949D3*
X1772670Y1499949D3*
X2081200Y1281199D3*
X1618700Y1193699D3*
X1337099Y1493543D3*
X1612070Y1787262D3*
X1174616Y1524789D3*
D3*
X1337099Y1493543D3*
X643422Y1387304D3*
X618424Y1531039D3*
X808602Y1546539D3*
X712165Y1306062D3*
X2187010Y768619D3*
X1818298Y537393D3*
X1918288Y618634D3*
X1987031Y499897D3*
X1712060Y606136D3*
X1124621Y637382D3*
X1274606D3*
X1362096D3*
X862149Y531144D3*
X762159Y487398D3*
Y587388D3*
X493438Y1774763D3*
X580928Y1768514D3*
X843401Y2005989D3*
X1474585Y2055983D3*
X2237449Y1918700D3*
Y1818700D3*
Y1718700D3*
X2237451Y1612449D3*
X1474585Y1474794D3*
X1343348Y1443548D3*
X893396Y1437298D3*
X843401Y1274815D3*
X1668314Y1912249D3*
X630184Y2037581D2*
D18*
X1616700D1*
X1975123D2*
X2253716D1*
X645183Y2012712D2*
X722107D1*
X790945D2*
X871242D1*
X996167D2*
X1591330D1*
X1981941D2*
X2060157D1*
X2177222D2*
X2253716D1*
X653365Y1987843D2*
X699966D1*
X813121D2*
X871242D1*
X996167D2*
X1153578D1*
X1270645D2*
X1591115D1*
X1991378D2*
X2060157D1*
X2177222D2*
X2253716D1*
X656057Y1962974D2*
X694082D1*
X819007D2*
X871242D1*
X996167D2*
X1153578D1*
X1270645D2*
X1614798D1*
X2006881D2*
X2060157D1*
X2177222D2*
X2253716D1*
X653653Y1938106D2*
X698998D1*
X814054D2*
X871242D1*
X996167D2*
X1153578D1*
X1270645D2*
X1670705D1*
X1704197D2*
X1878476D1*
X1933928D2*
X1953939D1*
X2033435D2*
X2060157D1*
X2177222D2*
X2253716D1*
X645830Y1913237D2*
X719057D1*
X793995D2*
X871242D1*
X996167D2*
X1153578D1*
X1270645D2*
X1951714D1*
X2035696D2*
X2060157D1*
X2177222D2*
X2253716D1*
X631333Y1888368D2*
X1169008D1*
X1255214D2*
X1951714D1*
X2035696D2*
X2063745D1*
X2173670D2*
X2253716D1*
X433718Y1863499D2*
X455703D1*
X606141D2*
X676355D1*
X698579D2*
X1155301D1*
X1468116D2*
X1951714D1*
X2035696D2*
X2060407D1*
X2176972D2*
X2253716D1*
X433718Y1838630D2*
X647898D1*
X732130D2*
X1154691D1*
X1481931D2*
X1942780D1*
X2035696D2*
X2068913D1*
X2168468D2*
X2253716D1*
X433718Y1813762D2*
X647073D1*
X1061476D2*
X1166676D1*
X1481966D2*
X1580277D1*
X1643876D2*
X1917911D1*
X2031641D2*
X2082907D1*
X2154508D2*
X2253716D1*
X433718Y1788893D2*
X665159D1*
X1066644D2*
X1169546D1*
X1481966D2*
X1570086D1*
X1654641D2*
X1893044D1*
X2009751D2*
X2063924D1*
X2173455D2*
X2253716D1*
X433718Y1764024D2*
X690134D1*
X1053510D2*
X1155444D1*
X1268779D2*
X1338777D1*
X1481966D2*
X1577623D1*
X1679510D2*
X1868176D1*
X1984884D2*
X2060372D1*
X2177044D2*
X2253716D1*
X433718Y1739155D2*
X704057D1*
X809031D2*
X881217D1*
X986191D2*
X1154583D1*
X1269640D2*
X1338777D1*
X1481966D2*
X1615947D1*
X1704413D2*
X1843309D1*
X1960016D2*
X2068590D1*
X2168791D2*
X2253716D1*
X433718Y1714287D2*
X694655D1*
X818432D2*
X871815D1*
X995592D2*
X1166246D1*
X1257978D2*
X1338777D1*
X1481966D2*
X1640814D1*
X1936620D2*
X2083625D1*
X2153755D2*
X2253716D1*
X433718Y1689418D2*
X696414D1*
X816638D2*
X873574D1*
X994552D2*
X1338777D1*
X1481966D2*
X1665682D1*
X1998628D2*
X2064140D1*
X2173239D2*
X2253716D1*
X433718Y1664549D2*
X710731D1*
X802321D2*
X887928D1*
X1019419D2*
X1338777D1*
X1481966D2*
X1657823D1*
X1741911D2*
X1773263D1*
X2037455D2*
X2060336D1*
X2177079D2*
X2253716D1*
X433718Y1639680D2*
X955856D1*
X1101918D2*
X1125948D1*
X1223314D2*
X1338777D1*
X1481966D2*
X1632956D1*
X1860545D2*
X1894480D1*
X2169113D2*
X2253716D1*
X433718Y1614812D2*
X980725D1*
X1101918D2*
X1125948D1*
X1223314D2*
X1293777D1*
X1854444D2*
X1901262D1*
X2153037D2*
X2253716D1*
X433718Y1589943D2*
X984851D1*
X1101918D2*
X1125948D1*
X1223314D2*
X1293777D1*
X1854444D2*
X1901262D1*
X2173061D2*
X2253716D1*
X433718Y1565074D2*
X595867D1*
X640985D2*
X771233D1*
X845991D2*
X984851D1*
X1101918D2*
X1125948D1*
X1223314D2*
X1293777D1*
X1854444D2*
X1901262D1*
X1998628D2*
X2022658D1*
X2177115D2*
X2253716D1*
X433718Y1540205D2*
X577494D1*
X722693D2*
X767106D1*
X850082D2*
X996477D1*
X1090291D2*
X1125948D1*
X1223815D2*
X1293204D1*
X1854444D2*
X1901262D1*
X2057692D2*
X2067944D1*
X2169436D2*
X2253716D1*
X433718Y1515336D2*
X579683D1*
X729045D2*
X780167D1*
X844161D2*
X985641D1*
X1101128D2*
X1125948D1*
X1372556D2*
X1558603D1*
X1846012D2*
X1905209D1*
X2057692D2*
X2099127D1*
X2138288D2*
X2253716D1*
X433718Y1490468D2*
X582913D1*
X722658D2*
X780167D1*
X844161D2*
X987040D1*
X1103174D2*
X1125948D1*
X1378980D2*
X1533735D1*
X2057692D2*
X2253716D1*
X433718Y1465599D2*
X582913D1*
X722658D2*
X780167D1*
X844161D2*
X1002111D1*
X1128041D2*
X1192405D1*
X1367532D2*
X1508868D1*
X1597334D2*
X1645155D1*
X2123648D2*
X2253716D1*
X433718Y1440730D2*
X582913D1*
X722658D2*
X780167D1*
X844161D2*
X1064478D1*
X1572466D2*
X1645155D1*
X2123648D2*
X2253716D1*
X433718Y1415861D2*
X582913D1*
X722658D2*
X780167D1*
X844161D2*
X1007386D1*
X1547599D2*
X1645155D1*
X2123648D2*
X2253716D1*
X433718Y1390993D2*
X590735D1*
X722658D2*
X780167D1*
X844161D2*
X922413D1*
X980987D2*
X994037D1*
X1522695D2*
X1645155D1*
X2171768D2*
X2253716D1*
X433718Y1366124D2*
X607565D1*
X722658D2*
X778015D1*
X844161D2*
X909924D1*
X1429612D2*
X1645155D1*
X2181960D2*
X2253716D1*
X433718Y1341255D2*
X632755D1*
X732598D2*
X753148D1*
X840178D2*
X895033D1*
X1441776D2*
X1645155D1*
X1921620D2*
X1976690D1*
X2181960D2*
X2253716D1*
X433718Y1316386D2*
X643592D1*
X816710D2*
X895033D1*
X1435856D2*
X1645155D1*
X1946487D2*
X1976690D1*
X2101651D2*
X2117966D1*
X2181960D2*
X2253716D1*
X433718Y1291518D2*
X672945D1*
X791842D2*
X895033D1*
X1344136D2*
X1645155D1*
X1873499D2*
X1882924D1*
X2181960D2*
X2253716D1*
X433718Y1266649D2*
X506838D1*
X580018D2*
X895033D1*
X1307498D2*
X1645155D1*
X1848703D2*
X1907792D1*
X2181960D2*
X2253716D1*
X433718Y1241780D2*
X491552D1*
X595305D2*
X895033D1*
X1307498D2*
X1645155D1*
X1823907D2*
X1932661D1*
X2021091D2*
X2032418D1*
X2086221D2*
X2117966D1*
X2181960D2*
X2253716D1*
X433718Y1216911D2*
X491157D1*
X595699D2*
X895033D1*
X1307498D2*
X1377388D1*
X1434994D2*
X1584225D1*
X1850606D2*
X1957528D1*
X2045959D2*
X2103935D1*
X2181888D2*
X2253716D1*
X433718Y1192043D2*
X505187D1*
X581669D2*
X812894D1*
X874519D2*
X895033D1*
X1307498D2*
X1341970D1*
X1447948D2*
X1576725D1*
X1853655D2*
X1982396D1*
X2167498D2*
X2253716D1*
X433718Y1167174D2*
X492843D1*
X594012D2*
X790323D1*
X1102241D2*
X1132515D1*
X1658876D2*
X1787903D1*
X1837004D2*
X2007263D1*
X2142630D2*
X2253716D1*
X433718Y1142305D2*
X490367D1*
X596489D2*
X785191D1*
X1102241D2*
X1132515D1*
X1658876D2*
X2253716D1*
X433718Y1117436D2*
X501419D1*
X585472D2*
X791722D1*
X1102241D2*
X1115864D1*
X1658876D2*
X2253716D1*
X433718Y1092567D2*
X818313D1*
X869100D2*
X918285D1*
X969109D2*
X985174D1*
X1711267D2*
X2253716D1*
X433718Y1067699D2*
X518679D1*
X616728D2*
X695840D1*
X793888D2*
X838767D1*
X936133D2*
X1073197D1*
X1518174D2*
X1543029D1*
X1711267D2*
X2253716D1*
X433718Y1042830D2*
X506658D1*
X628749D2*
X683818D1*
X1518174D2*
X1543029D1*
X1711267D2*
X2253716D1*
X433718Y1017961D2*
X506443D1*
X628964D2*
X683603D1*
X1518174D2*
X1543029D1*
X1873857D2*
X2253716D1*
X433718Y993092D2*
X517818D1*
X617588D2*
X694978D1*
X794749D2*
X838767D1*
X936133D2*
X1107934D1*
X1898762D2*
X2253716D1*
X433718Y968224D2*
X712848D1*
X776878D2*
X838767D1*
X936133D2*
X1107934D1*
X1238493D2*
X1250430D1*
X1936978D2*
X2253716D1*
X433718Y943355D2*
X712848D1*
X776878D2*
X838767D1*
X936133D2*
X1107934D1*
X1219259D2*
X1234390D1*
X1494167D2*
X1784889D1*
X1952982D2*
X2253716D1*
X433718Y918486D2*
X712848D1*
X776878D2*
X839197D1*
X923214D2*
X1108472D1*
X1214773D2*
X1237763D1*
X1364015D2*
X1760022D1*
X1848452D2*
X1873773D1*
X1949645D2*
X2253716D1*
X433718Y893617D2*
X712848D1*
X776878D2*
X839197D1*
X923214D2*
X1122934D1*
X1233684D2*
X1243707D1*
X1823585D2*
X2253716D1*
X433718Y868749D2*
X712848D1*
X776878D2*
X839197D1*
X923214D2*
X1147801D1*
X1235693D2*
X1243697D1*
X1798717D2*
X2253716D1*
X433718Y843880D2*
X712848D1*
X776878D2*
X839197D1*
X923214D2*
X1151713D1*
X1235693D2*
X1259401D1*
X1772019D2*
X2253716D1*
X433718Y819011D2*
X505224D1*
X630148D2*
X702801D1*
X786926D2*
X839197D1*
X923214D2*
X1151713D1*
X1235693D2*
X2253716D1*
X433718Y794142D2*
X505224D1*
X630148D2*
X685899D1*
X803827D2*
X839197D1*
X923214D2*
X1151713D1*
X1235693D2*
X2253716D1*
X433718Y769273D2*
X505224D1*
X630148D2*
X682599D1*
X807165D2*
X839197D1*
X1235693D2*
X2253716D1*
X433718Y744405D2*
X505224D1*
X630148D2*
X690170D1*
X799557D2*
X839197D1*
X1863165D2*
X2253716D1*
X433718Y719536D2*
X505224D1*
X630148D2*
X717155D1*
X772573D2*
X847451D1*
X1867901D2*
X2253716D1*
X433718Y694667D2*
X876193D1*
X1854158D2*
X2253716D1*
X433718Y669798D2*
X2164687D1*
X433718Y644930D2*
X469482D1*
X592361D2*
X2164687D1*
X624012Y620061D2*
X2164687D1*
X641595Y595192D2*
X2253716D1*
X651571Y570323D2*
X2116603D1*
X2244936D2*
X2253724D1*
X655805Y545455D2*
X2098409D1*
X654909Y520586D2*
X2090443D1*
X648772Y495717D2*
X2089869D1*
X636428Y470848D2*
X2096543D1*
X433718Y445980D2*
X446679D1*
X615184D2*
X2112691D1*
X1191556Y1476636D2*
X1128431D1*
Y1639872D1*
X1220801D1*
X1220794Y1543565D1*
X1233279Y1532355D1*
X1278766D1*
X1283482Y1532915D1*
X1295705Y1533476D1*
X1295791Y1546235D1*
X1296284Y1552833D1*
Y1633733D1*
X1341288D1*
X1341266Y1764455D1*
X1337451Y1764200D1*
X1266221D1*
X1267449Y1758510D1*
X1268140Y1749745D1*
X1267449Y1740980D1*
X1265397Y1732431D1*
X1262033Y1724309D1*
X1257439Y1716813D1*
X1251730Y1710127D1*
X1245044Y1704418D1*
X1237548Y1699823D1*
X1229426Y1696460D1*
X1220877Y1694407D1*
X1212112Y1693717D1*
X1203347Y1694407D1*
X1194798Y1696460D1*
X1186676Y1699823D1*
X1179180Y1704418D1*
X1172494Y1710127D1*
X1166785Y1716813D1*
X1162191Y1724309D1*
X1158827Y1732431D1*
X1156775Y1740980D1*
X1156085Y1749745D1*
X1156775Y1758510D1*
X1158827Y1767058D1*
X1162191Y1775180D1*
X1166785Y1782676D1*
X1172494Y1789363D1*
X1179180Y1795071D1*
X1186848Y1799745D1*
X1179180Y1804418D1*
X1172494Y1810127D1*
X1166785Y1816813D1*
X1162191Y1824309D1*
X1158827Y1832431D1*
X1156775Y1840980D1*
X1156085Y1849745D1*
X1156775Y1858510D1*
X1158827Y1867058D1*
X1162191Y1875180D1*
X1166785Y1882676D1*
X1172494Y1889363D1*
X1177466Y1893721D1*
X1156085Y1893717D1*
Y2005772D1*
X1268140D1*
Y1893717D1*
X1246831D1*
X1251730Y1889363D1*
X1257439Y1882676D1*
X1259741Y1879233D1*
X1439969Y1879154D1*
X1444541Y1878430D1*
X1448943Y1876999D1*
X1453067Y1874898D1*
X1456813Y1872176D1*
X1470809Y1858309D1*
X1473815Y1854789D1*
X1476234Y1850842D1*
X1478006Y1846565D1*
X1479086Y1842065D1*
X1479449Y1837440D1*
Y1633735D1*
X1629489Y1633733D1*
X1660527Y1664745D1*
X1661543Y1671670D1*
X1663457Y1677565D1*
X1666271Y1683088D1*
X1669742Y1687884D1*
X1609760Y1747852D1*
X1602850Y1748854D1*
X1596955Y1750768D1*
X1591431Y1753582D1*
X1586417Y1757226D1*
X1582035Y1761608D1*
X1578390Y1766623D1*
X1575577Y1772146D1*
X1573662Y1778041D1*
X1572692Y1784162D1*
Y1790361D1*
X1573662Y1796482D1*
X1575577Y1802377D1*
X1578390Y1807901D1*
X1582035Y1812915D1*
X1586417Y1817297D1*
X1591431Y1820941D1*
X1596955Y1823755D1*
X1602850Y1825670D1*
X1608970Y1826640D1*
X1615170D1*
X1621291Y1825670D1*
X1627186Y1823755D1*
X1632709Y1820941D1*
X1637724Y1817297D1*
X1642106Y1812915D1*
X1645750Y1807901D1*
X1648564Y1802377D1*
X1650478Y1796482D1*
X1651480Y1789574D1*
X1711767Y1729284D1*
X1808115Y1729180D1*
X1812687Y1728456D1*
X1817088Y1727025D1*
X1821213Y1724924D1*
X1824959Y1722203D1*
X1826989Y1720301D1*
X1954205Y1847565D1*
X1954322Y1928049D1*
X1955292Y1934170D1*
X1957212Y1940077D1*
X1956129Y1942187D1*
X1949949Y1941700D1*
X1943770Y1942187D1*
X1937095Y1943872D1*
X1931854Y1938457D1*
X1926839Y1934813D1*
X1921315Y1931999D1*
X1915420Y1930085D1*
X1909300Y1929115D1*
X1903100D1*
X1896980Y1930085D1*
X1891085Y1931999D1*
X1885561Y1934813D1*
X1880546Y1938457D1*
X1876165Y1942839D1*
X1872520Y1947854D1*
X1870482Y1951693D1*
X1719351Y1951699D1*
X1715381Y1947019D1*
X1710669Y1942993D1*
X1705384Y1939755D1*
X1699657Y1937382D1*
X1693630Y1935936D1*
X1687451Y1935449D1*
X1681271Y1935936D1*
X1675245Y1937382D1*
X1669518Y1939755D1*
X1664233Y1942993D1*
X1659520Y1947019D1*
X1655494Y1951731D1*
X1652256Y1957016D1*
X1649884Y1962743D1*
X1649133Y1964755D1*
X1643406Y1962382D1*
X1637380Y1960936D1*
X1631200Y1960449D1*
X1625020Y1960936D1*
X1618994Y1962382D1*
X1613267Y1964755D1*
X1607982Y1967993D1*
X1603270Y1972019D1*
X1599243Y1976731D1*
X1596006Y1982016D1*
X1593633Y1987743D1*
X1592187Y1993770D1*
X1591700Y1999949D1*
X1592187Y2006129D1*
X1593633Y2012155D1*
X1596006Y2017882D1*
X1599243Y2023167D1*
X1603270Y2027880D1*
X1607982Y2031906D1*
X1613267Y2035144D1*
X1618994Y2037516D1*
X1625020Y2038962D1*
X1629091Y2039560D1*
X1632611Y2042566D1*
X1636558Y2044985D1*
X1640835Y2046756D1*
X1645335Y2047836D1*
X1649951Y2048200D1*
X1952264Y2048109D1*
X1956836Y2047385D1*
X1961238Y2045955D1*
X1965363Y2043854D1*
X1969108Y2041132D1*
X1972381Y2037859D1*
X1975103Y2034113D1*
X1977204Y2029989D1*
X1978634Y2025587D1*
X1979359Y2021015D1*
X1979449Y2007468D1*
X1983629Y2001839D1*
X1986443Y1996315D1*
X1988357Y1990420D1*
X1989327Y1984300D1*
Y1978100D1*
X1988357Y1971980D1*
X1986443Y1966085D1*
X1985271Y1963543D1*
X1990600Y1964327D1*
X1996800D1*
X2002920Y1963357D1*
X2008815Y1961443D1*
X2014339Y1958629D1*
X2019354Y1954985D1*
X2023735Y1950603D1*
X2027380Y1945588D1*
X2030193Y1940065D1*
X2032108Y1934170D1*
X2033078Y1928049D1*
X2033200Y1888204D1*
X2033078Y1828099D1*
X2032108Y1821978D1*
X2030193Y1816083D1*
X2027380Y1810560D1*
X2023735Y1805545D1*
X1995648Y1777285D1*
X1933406Y1715043D1*
X1950285Y1698112D1*
X1996134Y1698103D1*
Y1689382D1*
X2002920Y1688357D1*
X2008815Y1686443D1*
X2014339Y1683629D1*
X2019354Y1679986D1*
X2047613Y1651897D1*
X2060073Y1639439D1*
X2070936Y1639449D1*
X2066938Y1647258D1*
X2064221Y1655620D1*
X2062846Y1664302D1*
Y1673095D1*
X2064221Y1681777D1*
X2066938Y1690140D1*
X2070928Y1697973D1*
X2076096Y1705086D1*
X2082313Y1711302D1*
X2089426Y1716470D1*
X2093264Y1718777D1*
X2085768Y1723372D1*
X2079082Y1729081D1*
X2073373Y1735767D1*
X2068779Y1743263D1*
X2065415Y1751385D1*
X2063363Y1759934D1*
X2062672Y1768699D1*
X2063363Y1777464D1*
X2065415Y1786012D1*
X2068779Y1794134D1*
X2073373Y1801630D1*
X2079082Y1808317D1*
X2085768Y1814025D1*
X2093436Y1818699D1*
X2085768Y1823372D1*
X2079082Y1829081D1*
X2073373Y1835767D1*
X2068779Y1843263D1*
X2065415Y1851385D1*
X2063363Y1859934D1*
X2062672Y1868699D1*
X2063363Y1877464D1*
X2065415Y1886012D1*
X2068779Y1894134D1*
X2073373Y1901630D1*
X2079082Y1908317D1*
X2084054Y1912675D1*
X2062672Y1912671D1*
Y2024726D1*
X2174728D1*
Y1912671D1*
X2153420D1*
X2158318Y1908317D1*
X2164027Y1901630D1*
X2168621Y1894134D1*
X2171985Y1886012D1*
X2174037Y1877464D1*
X2174728Y1868699D1*
X2174037Y1859934D1*
X2171985Y1851385D1*
X2168621Y1843263D1*
X2164027Y1835767D1*
X2158318Y1829081D1*
X2151632Y1823372D1*
X2143964Y1818699D1*
X2151632Y1814025D1*
X2158318Y1808317D1*
X2164027Y1801630D1*
X2168621Y1794134D1*
X2171985Y1786012D1*
X2174037Y1777464D1*
X2174728Y1768699D1*
X2174037Y1759934D1*
X2171985Y1751385D1*
X2168621Y1743263D1*
X2164027Y1735767D1*
X2158318Y1729081D1*
X2151632Y1723372D1*
X2143964Y1718699D1*
X2151632Y1714025D1*
X2158318Y1708317D1*
X2164027Y1701630D1*
X2168621Y1694134D1*
X2171985Y1686012D1*
X2174037Y1677464D1*
X2174728Y1668699D1*
X2174037Y1659934D1*
X2171985Y1651385D1*
X2168621Y1643263D1*
X2164027Y1635767D1*
X2158318Y1629081D1*
X2151632Y1623372D1*
X2143964Y1618699D1*
X2151632Y1614025D1*
X2158318Y1608317D1*
X2164027Y1601630D1*
X2168621Y1594134D1*
X2171985Y1586012D1*
X2174037Y1577464D1*
X2174728Y1568699D1*
X2174037Y1559934D1*
X2171985Y1551385D1*
X2168621Y1543263D1*
X2164027Y1535767D1*
X2158318Y1529081D1*
X2151632Y1523372D1*
X2144136Y1518777D1*
X2136014Y1515414D1*
X2127465Y1513361D1*
X2118700Y1512671D1*
X2109935Y1513361D1*
X2101386Y1515414D1*
X2093264Y1518777D1*
X2085768Y1523372D1*
X2079082Y1529081D1*
X2073373Y1535767D1*
X2068779Y1543263D1*
X2065415Y1551385D1*
X2063363Y1559934D1*
X2063300Y1560462D1*
X2055190Y1560449D1*
Y1483789D1*
X2121134Y1483783D1*
Y1398199D1*
X2152264Y1398109D1*
X2156836Y1397385D1*
X2161238Y1395955D1*
X2165363Y1393854D1*
X2169108Y1391132D1*
X2172381Y1387859D1*
X2175103Y1384113D1*
X2177204Y1379989D1*
X2178634Y1375587D1*
X2179359Y1371015D1*
X2179449Y1286023D1*
X2179359Y1216384D1*
X2178634Y1211812D1*
X2177204Y1207410D1*
X2175103Y1203285D1*
X2172381Y1199540D1*
X2127060Y1154090D1*
X2123540Y1151083D1*
X2119592Y1148665D1*
X2115315Y1146893D1*
X2110815Y1145813D1*
X2106200Y1145449D1*
X2041385Y1145540D1*
X2036813Y1146264D1*
X2032411Y1147695D1*
X2028287Y1149796D1*
X2024541Y1152518D1*
X1964378Y1212552D1*
X1878894Y1298036D1*
X1873167Y1292993D1*
X1867882Y1289755D1*
X1862440Y1287487D1*
X1860144Y1282016D1*
X1856906Y1276731D1*
X1852880Y1272019D1*
X1848167Y1267993D1*
X1842882Y1264755D1*
X1837440Y1262487D1*
X1835144Y1257016D1*
X1831906Y1251731D1*
X1827880Y1247019D1*
X1823167Y1242993D1*
X1817882Y1239755D1*
X1816726Y1239222D1*
X1821670Y1238357D1*
X1827565Y1236443D1*
X1833088Y1233629D1*
X1838103Y1229985D1*
X1842485Y1225603D1*
X1846129Y1220588D1*
X1848943Y1215065D1*
X1850857Y1209170D1*
X1851827Y1203049D1*
Y1196850D1*
X1850857Y1190729D1*
X1848943Y1184834D1*
X1846129Y1179310D1*
X1842485Y1174296D1*
X1838103Y1169914D1*
X1833088Y1166270D1*
X1827565Y1163456D1*
X1821670Y1161541D1*
X1815549Y1160571D1*
X1809350D1*
X1803229Y1161541D1*
X1797334Y1163456D1*
X1791810Y1166270D1*
X1786218Y1170448D1*
X1760134Y1170540D1*
X1755562Y1171264D1*
X1753325Y1171897D1*
X1748562Y1172268D1*
X1656381D1*
X1656570Y1102385D1*
X1708783D1*
Y1013443D1*
X1714440Y1014409D1*
X1720360Y1019815D1*
X1724308Y1022234D1*
X1728585Y1024006D1*
X1733085Y1025086D1*
X1737700Y1025449D1*
X1854015Y1025359D1*
X1858587Y1024634D1*
X1862989Y1023204D1*
X1867113Y1021103D1*
X1870859Y1018381D1*
X1913995Y975373D1*
X1920920Y974357D1*
X1926815Y972443D1*
X1932339Y969629D1*
X1937354Y965985D1*
X1941735Y961603D1*
X1945380Y956588D1*
X1948193Y951065D1*
X1950108Y945170D1*
X1951078Y939049D1*
Y932850D1*
X1950108Y926729D1*
X1948193Y920834D1*
X1945380Y915310D1*
X1941735Y910296D1*
X1937354Y905914D1*
X1932339Y902270D1*
X1926815Y899456D1*
X1920920Y897541D1*
X1914800Y896571D1*
X1908600D1*
X1902480Y897541D1*
X1896585Y899456D1*
X1891061Y902270D1*
X1886046Y905914D1*
X1881665Y910296D1*
X1878020Y915310D1*
X1875207Y920834D1*
X1873292Y926729D1*
X1872545Y930961D1*
X1868918Y927993D1*
X1863633Y924755D1*
X1857906Y922382D1*
X1851880Y920936D1*
X1848012Y920540D1*
X1774859Y847518D1*
X1771113Y844796D1*
X1766989Y842695D1*
X1762587Y841264D1*
X1758015Y840540D1*
X1673023Y840449D1*
X1273385Y840540D1*
X1268813Y841264D1*
X1264411Y842695D1*
X1260287Y844796D1*
X1256541Y847518D1*
X1253268Y850791D1*
X1250546Y854536D1*
X1248445Y858661D1*
X1247015Y863062D1*
X1246291Y867634D1*
X1246200Y909674D1*
X1242020Y915310D1*
X1239207Y920834D1*
X1237292Y926729D1*
X1236322Y932850D1*
Y939049D1*
X1237292Y945170D1*
X1239207Y951065D1*
X1242020Y956588D1*
X1245665Y961603D1*
X1250046Y965985D1*
X1254024Y968935D1*
X1250046Y971914D1*
X1245665Y976296D1*
X1242323Y980857D1*
X1237124Y975654D1*
X1236108Y968729D1*
X1234193Y962834D1*
X1231380Y957310D1*
X1227735Y952296D1*
X1223354Y947914D1*
X1218339Y944270D1*
X1212815Y941456D1*
X1206920Y939541D1*
X1200800Y938571D1*
X1194600D1*
X1191869Y938894D1*
X1223735Y906854D1*
X1227378Y901839D1*
X1230192Y896315D1*
X1232107Y890420D1*
X1233077Y884300D1*
X1233199Y844455D1*
Y764469D1*
X1829378Y764327D1*
X1835499Y763357D1*
X1841394Y761443D1*
X1846918Y758629D1*
X1851932Y754985D1*
X1856314Y750603D1*
X1859959Y745588D1*
X1862772Y740065D1*
X1864687Y734170D1*
X1865657Y728049D1*
Y721850D1*
X1864687Y715729D1*
X1862772Y709834D1*
X1859959Y704310D1*
X1856314Y699296D1*
X1851932Y694914D1*
X1846918Y691270D1*
X1841394Y688456D1*
X1835499Y686541D1*
X1829378Y685571D1*
X1789533Y685449D1*
X1196848Y685571D1*
X1190728Y686541D1*
X1184833Y688456D1*
X1179300Y691276D1*
X1175326Y691699D1*
X890600Y691821D1*
X884480Y692791D1*
X878585Y694705D1*
X873061Y697519D1*
X868046Y701163D1*
X853270Y715768D1*
X849243Y720481D1*
X846006Y725766D1*
X843633Y731493D1*
X842187Y737519D1*
X841700Y743710D1*
Y922367D1*
X841264D1*
Y1000384D1*
X797070Y1000355D1*
X793377Y994608D1*
X787267Y987453D1*
X780112Y981343D1*
X774351Y977693D1*
X774365Y826141D1*
X780112Y822461D1*
X787267Y816351D1*
X793377Y809196D1*
X798294Y801172D1*
X801896Y792480D1*
X804091Y783330D1*
X804830Y773949D1*
X804091Y764569D1*
X801896Y755419D1*
X798294Y746726D1*
X793377Y738703D1*
X787267Y731548D1*
X780112Y725438D1*
X772088Y720520D1*
X763396Y716919D1*
X754246Y714724D1*
X744865Y713985D1*
X735485Y714724D1*
X726335Y716919D1*
X717642Y720520D1*
X709619Y725438D1*
X702464Y731548D1*
X696354Y738703D1*
X691436Y746726D1*
X687835Y755419D1*
X685640Y764569D1*
X684901Y773949D1*
X685640Y783330D1*
X687835Y792480D1*
X691436Y801172D1*
X696354Y809196D1*
X702464Y816351D1*
X709619Y822461D1*
X715380Y826111D1*
X715365Y977663D1*
X709619Y981343D1*
X702464Y987453D1*
X696354Y994608D1*
X691436Y1002632D1*
X687835Y1011325D1*
X685640Y1020474D1*
X684901Y1029855D1*
X685640Y1039235D1*
X687835Y1048385D1*
X691436Y1057078D1*
X696354Y1065102D1*
X702464Y1072256D1*
X709619Y1078367D1*
X717642Y1083284D1*
X726335Y1086885D1*
X735485Y1089081D1*
X744865Y1089819D1*
X754246Y1089081D1*
X763396Y1086885D1*
X772088Y1083284D1*
X780112Y1078367D1*
X787267Y1072256D1*
X793377Y1065102D1*
X797027Y1059340D1*
X841287Y1059355D1*
X841264Y1085603D1*
X933634D1*
Y1067481D1*
X1075444Y1067449D1*
X1081061Y1071629D1*
X1086585Y1074443D1*
X1092480Y1076357D1*
X1098600Y1077327D1*
X1104800D1*
X1110457Y1076451D1*
X1110571Y1096798D1*
X1111541Y1102919D1*
X1113456Y1108814D1*
X1116270Y1114338D1*
X1119913Y1119352D1*
X1135036Y1134646D1*
X1135015Y1189331D1*
X1099760Y1189296D1*
X1099728Y1087672D1*
X987672D1*
Y1108981D1*
X983318Y1104082D1*
X976632Y1098373D1*
X969136Y1093779D1*
X961014Y1090415D1*
X952465Y1088363D1*
X943700Y1087672D1*
X934935Y1088363D1*
X926386Y1090415D1*
X918264Y1093779D1*
X910768Y1098373D1*
X904082Y1104082D1*
X898373Y1110768D1*
X893700Y1118436D1*
X889027Y1110768D1*
X883318Y1104082D1*
X876632Y1098373D1*
X869136Y1093779D1*
X861014Y1090415D1*
X852465Y1088363D1*
X843700Y1087672D1*
X834935Y1088363D1*
X826386Y1090415D1*
X818264Y1093779D1*
X810768Y1098373D1*
X804082Y1104082D1*
X798373Y1110768D1*
X793779Y1118264D1*
X790415Y1126386D1*
X788363Y1134935D1*
X787672Y1143700D1*
X788363Y1152465D1*
X790415Y1161014D1*
X793779Y1169136D1*
X798373Y1176632D1*
X804082Y1183318D1*
X810768Y1189027D1*
X818264Y1193621D1*
X826386Y1196985D1*
X834935Y1199037D1*
X843700Y1199728D1*
X852465Y1199037D1*
X861014Y1196985D1*
X869136Y1193621D1*
X876632Y1189027D1*
X883318Y1183318D1*
X889027Y1176632D1*
X893700Y1168964D1*
X898373Y1176632D1*
X904082Y1183318D1*
X910700Y1188974D1*
X907208Y1189296D1*
X897515D1*
Y1352532D1*
X913292Y1352729D1*
X912322Y1358850D1*
Y1365049D1*
X913292Y1371170D1*
X915207Y1377065D1*
X918020Y1382588D1*
X921665Y1387603D1*
X926046Y1391985D1*
X931061Y1395629D1*
X936585Y1398443D1*
X942480Y1400357D1*
X948600Y1401327D1*
X954800D1*
X960920Y1400357D1*
X966815Y1398443D1*
X972339Y1395629D1*
X977354Y1391985D1*
X981735Y1387603D1*
X985380Y1382588D1*
X988193Y1377065D1*
X990108Y1371170D1*
X991078Y1365049D1*
Y1358850D1*
X989888Y1351947D1*
X989885Y1199731D1*
X997512Y1199728D1*
X997515Y1352532D1*
X1014201D1*
X1007770Y1358019D1*
X1003743Y1362731D1*
X1000506Y1368016D1*
X998133Y1373743D1*
X996687Y1379770D1*
X996200Y1385949D1*
X996687Y1392129D1*
X998133Y1398155D1*
X1000506Y1403882D1*
X1003743Y1409167D1*
X1007770Y1413880D1*
X1012482Y1417906D1*
X1017767Y1421144D1*
X1023494Y1423516D1*
X1029520Y1424962D1*
X1035700Y1425449D1*
X1041880Y1424962D1*
X1047906Y1423516D1*
X1053644Y1421138D1*
X1086554Y1421134D1*
X1056218Y1451473D1*
X1047776Y1450176D1*
X1038983D1*
X1030301Y1451552D1*
X1021939Y1454268D1*
X1014106Y1458259D1*
X1006993Y1463427D1*
X1000776Y1469644D1*
X995608Y1476756D1*
X991617Y1484590D1*
X988901Y1492952D1*
X987525Y1501634D1*
Y1510427D1*
X988901Y1519109D1*
X991617Y1527472D1*
X995608Y1535305D1*
X1000776Y1542418D1*
X1006993Y1548634D1*
X1008734Y1550007D1*
X987352Y1550003D1*
Y1610683D1*
X949749Y1648276D1*
X943081Y1646818D1*
X933700Y1646079D1*
X924319Y1646818D1*
X915170Y1649014D1*
X906477Y1652615D1*
X898453Y1657532D1*
X891298Y1663642D1*
X885188Y1670797D1*
X880271Y1678821D1*
X876670Y1687514D1*
X874474Y1696663D1*
X873735Y1706044D1*
X874474Y1715424D1*
X876670Y1724574D1*
X880271Y1733267D1*
X885188Y1741291D1*
X891298Y1748445D1*
X898006Y1754203D1*
X792242Y1754200D1*
X797029Y1750270D1*
X802133Y1744987D1*
X806552Y1739120D1*
X810220Y1732758D1*
X813083Y1725994D1*
X815098Y1718931D1*
X816234Y1711675D1*
X816472Y1704207D1*
X815797Y1696893D1*
X814234Y1689717D1*
X811805Y1682785D1*
X808548Y1676204D1*
X804508Y1670069D1*
X799751Y1664474D1*
X794346Y1659502D1*
X788372Y1655229D1*
X781920Y1651718D1*
X775088Y1649022D1*
X767980Y1647182D1*
X760697Y1646224D1*
X753354Y1646163D1*
X746057Y1647002D1*
X738917Y1648726D1*
X732043Y1651309D1*
X725535Y1654714D1*
X719491Y1658889D1*
X714004Y1663771D1*
X709157Y1669288D1*
X705018Y1675355D1*
X701653Y1681884D1*
X699111Y1688773D1*
X697430Y1695923D1*
X696637Y1703225D1*
X696741Y1710569D1*
X697743Y1717844D1*
X699627Y1724943D1*
X702364Y1731759D1*
X705914Y1738188D1*
X710224Y1744136D1*
X715228Y1749511D1*
X720800Y1754196D1*
X712520Y1754686D1*
X706494Y1756133D1*
X700767Y1758504D1*
X695482Y1761743D1*
X690760Y1765777D1*
X657414Y1799296D1*
X653771Y1804310D1*
X650957Y1809834D1*
X649043Y1815729D1*
X648073Y1821850D1*
Y1828049D1*
X649043Y1834170D1*
X650957Y1840065D1*
X653771Y1845588D1*
X657414Y1850603D1*
X661797Y1854986D1*
X666812Y1858629D1*
X672335Y1861443D1*
X678230Y1863357D1*
X684351Y1864327D1*
X690550D1*
X696671Y1863357D1*
X702566Y1861443D1*
X708090Y1858629D1*
X713104Y1854986D1*
X735046Y1833216D1*
X1028050Y1833078D1*
X1034172Y1832108D1*
X1040066Y1830193D1*
X1045590Y1827380D1*
X1050604Y1823737D1*
X1054987Y1819354D1*
X1058630Y1814339D1*
X1061444Y1808815D1*
X1063359Y1802922D1*
X1064329Y1796800D1*
Y1790600D1*
X1063359Y1784478D1*
X1061444Y1778585D1*
X1058630Y1773061D1*
X1054987Y1768046D1*
X1050604Y1763663D1*
X1045590Y1760020D1*
X1040066Y1757207D1*
X1034172Y1755292D1*
X1028050Y1754322D1*
X988205Y1754200D1*
X969438D1*
X976102Y1748445D1*
X982212Y1741291D1*
X987129Y1733267D1*
X990730Y1724574D1*
X992926Y1715424D1*
X993665Y1706044D1*
X992926Y1696663D1*
X991434Y1690010D1*
X1019390Y1662073D1*
X1099407Y1662058D1*
Y1550003D1*
X1078128D1*
X1082998Y1545649D1*
X1088707Y1538962D1*
X1093301Y1531466D1*
X1096665Y1523344D1*
X1098717Y1514796D1*
X1099407Y1506031D1*
X1098717Y1497266D1*
X1097910Y1493204D1*
X1130592Y1460537D1*
X1158183Y1460459D1*
X1162755Y1459734D1*
X1167157Y1458304D1*
X1171281Y1456203D1*
X1175027Y1453481D1*
X1187739Y1440897D1*
X1190746Y1437377D1*
X1193165Y1433430D1*
X1194137Y1431318D1*
X1194906Y1437360D1*
Y1473680D1*
X1191546Y1476640D1*
X1545546Y1013424D2*
Y1070910D1*
X1515670Y1070815D1*
Y1013436D1*
X1545519Y1013449D1*
X1907701Y1496153D2*
Y1534835D1*
X1903764Y1534867D1*
Y1632907D1*
X1877535Y1659141D1*
X1851930Y1633567D1*
X1851829Y1536630D1*
X1850859Y1530510D1*
X1848944Y1524615D1*
X1846130Y1519091D1*
X1842487Y1514077D1*
X1824726Y1496144D1*
X1907703Y1496134D1*
X1996136Y1560948D2*
X2037445D1*
X2031494Y1562382D1*
X2025767Y1564755D1*
X2020482Y1567993D1*
X2015770Y1572019D1*
X1996155Y1591633D1*
X1996134Y1560948D1*
X987672Y1178423D2*
Y1189289D1*
X976716Y1189296D1*
X983318Y1183318D1*
X987676Y1178346D1*
X1349670Y1766852D2*
X1401701D1*
X1401700Y1782948D1*
X1368426Y1782949D1*
X1356609Y1771268D1*
X1352864Y1768546D1*
X1350835Y1767411D1*
X933634Y1008447D2*
Y922367D1*
X920680D1*
X920700Y770675D1*
X1154183Y770699D1*
X1154199Y864867D1*
X1119913Y899296D1*
X1116270Y904310D1*
X1113456Y909834D1*
X1111541Y915729D1*
X1110571Y921850D1*
X1110449Y961695D1*
Y999409D1*
X1104800Y998571D1*
X1098600D1*
X1092480Y999541D1*
X1086585Y1001456D1*
X1081061Y1004270D1*
X1075469Y1008448D1*
X933654Y1008449D1*
X1933784Y1351424D2*
Y1341266D1*
X1919108D1*
X2055936Y1204432D1*
X2093974Y1204449D1*
X2120432Y1230901D1*
X2120449Y1276724D1*
X2119608Y1271978D1*
X2117693Y1266083D1*
X2114880Y1260560D1*
X2111235Y1255545D1*
X2106854Y1251163D1*
X2101839Y1247519D1*
X2096315Y1244705D1*
X2090420Y1242791D1*
X2084300Y1241821D1*
X2037449Y1241699D1*
X2031270Y1242186D1*
X2025243Y1243632D1*
X2019516Y1246004D1*
X2014231Y1249242D1*
X2009510Y1253277D1*
X1988665Y1274294D1*
X1985020Y1279309D1*
X1982207Y1284833D1*
X1980292Y1290728D1*
X1979322Y1296848D1*
X1979200Y1336693D1*
Y1351441D1*
X1933810Y1351452D1*
X2120453Y1320546D2*
X2084641D1*
X2090420Y1319607D1*
X2096315Y1317692D1*
X2101839Y1314878D1*
X2106854Y1311234D1*
X2111235Y1306852D1*
X2114880Y1301838D1*
X2117693Y1296314D1*
X2119608Y1290419D1*
X2120216Y1287365D1*
X2120449Y1301376D1*
Y1320574D1*
X882922Y2021914D2*
X993665D1*
Y1901985D1*
X873735D1*
Y2021914D1*
X882922D1*
X816472Y1960112D2*
X815797Y1952798D1*
X814234Y1945623D1*
X811805Y1938691D1*
X808548Y1932109D1*
X804508Y1925974D1*
X799751Y1920380D1*
X794346Y1915407D1*
X788372Y1911134D1*
X781920Y1907624D1*
X775088Y1904927D1*
X767980Y1903087D1*
X760697Y1902129D1*
X753354Y1902069D1*
X746057Y1902907D1*
X738917Y1904632D1*
X732043Y1907214D1*
X725535Y1910620D1*
X719491Y1914794D1*
X714004Y1919676D1*
X709157Y1925193D1*
X705018Y1931260D1*
X701653Y1937789D1*
X699111Y1944679D1*
X697430Y1951829D1*
X696637Y1959130D1*
X696741Y1966474D1*
X697743Y1973750D1*
X699627Y1980848D1*
X702364Y1987665D1*
X705914Y1994094D1*
X710224Y2000041D1*
X715228Y2005417D1*
X720851Y2010141D1*
X727010Y2014142D1*
X733612Y2017360D1*
X740558Y2019746D1*
X747743Y2021266D1*
X755061Y2021896D1*
X762401Y2021627D1*
X769651Y2020461D1*
X776707Y2018419D1*
X783459Y2015529D1*
X789808Y2011836D1*
X795657Y2007394D1*
X800918Y2002271D1*
X805515Y1996543D1*
X809376Y1990296D1*
X812445Y1983623D1*
X814675Y1976625D1*
X816033Y1969407D1*
X816499Y1961949D1*
X816472Y1960112D1*
X509573Y833914D2*
X627665D1*
Y713985D1*
X507735D1*
Y833914D1*
X509573D1*
X627637Y1028018D2*
X626962Y1020704D1*
X625399Y1013528D1*
X622970Y1006596D1*
X619713Y1000015D1*
X615674Y993880D1*
X610917Y988285D1*
X605511Y983313D1*
X599537Y979040D1*
X593086Y975529D1*
X586254Y972833D1*
X579145Y970993D1*
X571863Y970035D1*
X564519Y969974D1*
X557222Y970813D1*
X550082Y972537D1*
X543208Y975120D1*
X536700Y978525D1*
X530657Y982700D1*
X525170Y987582D1*
X520322Y993099D1*
X516183Y999166D1*
X512818Y1005695D1*
X510276Y1012585D1*
X508595Y1019734D1*
X507802Y1027036D1*
X507906Y1034380D1*
X508909Y1041655D1*
X510792Y1048754D1*
X513529Y1055570D1*
X517079Y1061999D1*
X521389Y1067947D1*
X526393Y1073322D1*
X532016Y1078046D1*
X538175Y1082048D1*
X544777Y1085266D1*
X551724Y1087651D1*
X558909Y1089171D1*
X566226Y1089801D1*
X573566Y1089532D1*
X580817Y1088367D1*
X587872Y1086325D1*
X594624Y1083435D1*
X600973Y1079742D1*
X606822Y1075300D1*
X612083Y1070176D1*
X616680Y1064448D1*
X620541Y1058201D1*
X623611Y1051528D1*
X625840Y1044531D1*
X627199Y1037313D1*
X627665Y1029855D1*
X627637Y1028018D1*
X1304957Y1276449D2*
X1304993Y1180993D1*
X1339309Y1180977D1*
X1340805Y1185598D1*
X1342906Y1189722D1*
X1345628Y1193468D1*
X1355791Y1203630D1*
X1359536Y1206352D1*
X1363661Y1208453D1*
X1368062Y1209884D1*
X1372644Y1210608D1*
X1376166Y1213103D1*
X1380548Y1217485D1*
X1385562Y1221129D1*
X1391086Y1223943D1*
X1396981Y1225857D1*
X1403102Y1226827D1*
X1409301D1*
X1415422Y1225857D1*
X1421317Y1223943D1*
X1426840Y1221129D1*
X1431855Y1217485D1*
X1436237Y1213103D1*
X1439881Y1208088D1*
X1442695Y1202565D1*
X1444609Y1196670D1*
X1445579Y1190549D1*
Y1184350D1*
X1445155Y1180973D1*
X1577630Y1180977D1*
X1581271D1*
X1579687Y1187519D1*
X1579200Y1193699D1*
X1579687Y1199878D1*
X1581133Y1205905D1*
X1583506Y1211632D1*
X1586743Y1216917D1*
X1590770Y1221629D1*
X1595482Y1225655D1*
X1600767Y1228893D1*
X1606494Y1231266D1*
X1612520Y1232712D1*
X1618700Y1233199D1*
X1624880Y1232712D1*
X1630906Y1231266D1*
X1636633Y1228893D1*
X1641918Y1225655D1*
X1646630Y1221629D1*
X1647659Y1220518D1*
X1647662Y1296134D1*
X1647697Y1355190D1*
X1647662Y1414245D1*
Y1468020D1*
X1643247Y1467028D1*
X1637067Y1466541D1*
X1630888Y1467028D1*
X1624861Y1468474D1*
X1619134Y1470847D1*
X1613850Y1474085D1*
X1609137Y1478111D1*
X1608273Y1479045D1*
X1519109Y1390018D1*
X1515364Y1387296D1*
X1511239Y1385195D1*
X1506838Y1383764D1*
X1502266Y1383040D1*
X1417273Y1382949D1*
X1361760D1*
X1363359Y1377920D1*
X1364329Y1371800D1*
X1364381Y1366944D1*
X1373704Y1366949D1*
X1379310Y1371129D1*
X1384834Y1373943D1*
X1390729Y1375857D1*
X1396850Y1376827D1*
X1403049D1*
X1409170Y1375857D1*
X1415065Y1373943D1*
X1420588Y1371129D1*
X1425603Y1367485D1*
X1429985Y1363103D1*
X1433629Y1358088D1*
X1436443Y1352565D1*
X1438357Y1346670D1*
X1439327Y1340549D1*
Y1334350D1*
X1438357Y1328229D1*
X1436443Y1322334D1*
X1433629Y1316810D1*
X1429985Y1311796D1*
X1425603Y1307414D1*
X1420588Y1303770D1*
X1415065Y1300956D1*
X1409170Y1299041D1*
X1403049Y1298071D1*
X1396850D1*
X1390729Y1299041D1*
X1384834Y1300956D1*
X1379310Y1303770D1*
X1373718Y1307948D1*
X1345514Y1307949D1*
X1345175Y1301583D1*
X1344095Y1297083D1*
X1342323Y1292806D1*
X1339905Y1288859D1*
X1336898Y1285339D1*
X1333378Y1282333D1*
X1329431Y1279914D1*
X1325154Y1278142D1*
X1320654Y1277062D1*
X1316029Y1276699D1*
X1305022D1*
X1296273Y1172268D2*
X1291106D1*
X1291078Y1166850D1*
X1290108Y1160729D1*
X1288818Y1156527D1*
X1292918Y1153906D1*
X1295931Y1151451D1*
X1296284Y1153567D1*
Y1172258D1*
X594506Y1147991D2*
X593716Y1140692D1*
X591886Y1133581D1*
X589058Y1126804D1*
X585288Y1120503D1*
X580653Y1114808D1*
X575250Y1109835D1*
X569191Y1105688D1*
X562599Y1102453D1*
X555612Y1100195D1*
X548375Y1098961D1*
X541033Y1098779D1*
X533742Y1099649D1*
X526651Y1101556D1*
X519907Y1104459D1*
X513649Y1108298D1*
X508004Y1112995D1*
X503091Y1118452D1*
X499011Y1124557D1*
X495848Y1131184D1*
X493667Y1138195D1*
X492514Y1145447D1*
X492411Y1152789D1*
X493363Y1160070D1*
X495347Y1167140D1*
X498323Y1173851D1*
X502233Y1180067D1*
X506991Y1185659D1*
X510846Y1189193D1*
X504571Y1195378D1*
X499857Y1201865D1*
X496216Y1209011D1*
X493738Y1216638D1*
X492483Y1224560D1*
Y1232578D1*
X493738Y1240499D1*
X496216Y1248127D1*
X499857Y1255272D1*
X504571Y1261759D1*
X510242Y1267430D1*
X516729Y1272144D1*
X523875Y1275785D1*
X531502Y1278263D1*
X539423Y1279518D1*
X547441D1*
X555363Y1278263D1*
X562990Y1275785D1*
X570136Y1272144D1*
X576623Y1267430D1*
X582293Y1261759D1*
X587007Y1255272D1*
X590649Y1248127D1*
X593127Y1240499D1*
X594381Y1232578D1*
Y1224560D1*
X593127Y1216638D1*
X590649Y1209011D1*
X587007Y1201865D1*
X582293Y1195378D1*
X576623Y1189708D1*
X575995Y1189212D1*
X580935Y1184548D1*
X585523Y1178815D1*
X589242Y1172485D1*
X592016Y1165686D1*
X593787Y1158560D1*
X594519Y1151254D1*
X594506Y1147991D1*
X653221Y1953066D2*
X652191Y1943939D1*
X650481Y1934915D1*
X648100Y1926045D1*
X645064Y1917378D1*
X641385Y1908962D1*
X637088Y1900846D1*
X632195Y1893073D1*
X626734Y1885688D1*
X620737Y1878734D1*
X614234Y1872247D1*
X607266Y1866266D1*
X599868Y1860822D1*
X592085Y1855947D1*
X583959Y1851669D1*
X575533Y1848010D1*
X566860Y1844993D1*
X557983Y1842633D1*
X548956Y1840944D1*
X539827Y1839935D1*
X530649Y1839612D1*
X521472Y1839978D1*
X512348Y1841028D1*
X503329Y1842759D1*
X494464Y1845161D1*
X485804Y1848218D1*
X477397Y1851915D1*
X469289Y1856231D1*
X461528Y1861142D1*
X454157Y1866620D1*
X447216Y1872634D1*
X440745Y1879151D1*
X434779Y1886134D1*
X431196Y1891025D1*
X431200Y608758D1*
X435489Y614392D1*
X441519Y621318D1*
X448052Y627775D1*
X455048Y633725D1*
X462470Y639134D1*
X470276Y643972D1*
X478423Y648213D1*
X486864Y651833D1*
X495553Y654809D1*
X504439Y657128D1*
X513474Y658775D1*
X522608Y659741D1*
X531788Y660022D1*
X540962Y659613D1*
X550082Y658520D1*
X559094Y656747D1*
X567947Y654305D1*
X576592Y651207D1*
X584982Y647470D1*
X593069Y643117D1*
X600808Y638170D1*
X608154Y632658D1*
X615066Y626612D1*
X621508Y620065D1*
X627441Y613054D1*
X632833Y605620D1*
X637654Y597802D1*
X641876Y589646D1*
X645474Y581196D1*
X648432Y572502D1*
X650730Y563609D1*
X652356Y554570D1*
X653301Y545435D1*
X653565Y537393D1*
X653221Y528216D1*
X652191Y519088D1*
X650481Y510065D1*
X648100Y501195D1*
X645064Y492528D1*
X641385Y484112D1*
X637088Y475995D1*
X632195Y468222D1*
X626734Y460838D1*
X620737Y453884D1*
X614234Y447397D1*
X607266Y441415D1*
X601863Y437439D1*
X2124167Y437449D1*
X2117827Y443213D1*
X2113085Y448346D1*
X2108758Y453834D1*
X2104876Y459644D1*
X2101461Y465741D1*
X2098535Y472087D1*
X2096116Y478644D1*
X2094220Y485369D1*
X2092856Y492224D1*
X2092035Y499163D1*
X2091760Y506146D1*
X2092035Y513129D1*
X2092856Y520069D1*
X2094220Y526923D1*
X2096116Y533649D1*
X2098535Y540205D1*
X2101461Y546552D1*
X2104876Y552649D1*
X2108758Y558459D1*
X2113085Y563947D1*
X2117827Y569079D1*
X2122960Y573822D1*
X2128448Y578149D1*
X2134258Y582031D1*
X2140355Y585445D1*
X2146701Y588372D1*
X2153258Y590791D1*
X2159983Y592687D1*
X2166838Y594050D1*
X2173777Y594872D1*
X2180760Y595146D1*
X2187743Y594872D1*
X2194683Y594050D1*
X2201537Y592687D1*
X2208263Y590791D1*
X2214819Y588372D1*
X2221166Y585445D1*
X2227263Y582031D1*
X2233073Y578149D1*
X2238561Y573822D1*
X2243693Y569079D1*
X2248436Y563947D1*
X2252763Y558459D1*
X2256200Y553558D1*
Y598449D1*
X2167200D1*
Y688949D1*
X2256229D1*
X2256200Y2062452D1*
X601628Y2062449D1*
X608154Y2057508D1*
X615066Y2051462D1*
X621508Y2044915D1*
X627441Y2037905D1*
X632833Y2030470D1*
X637654Y2022653D1*
X641876Y2014497D1*
X645474Y2006046D1*
X648432Y1997352D1*
X650730Y1988460D1*
X652356Y1979420D1*
X653301Y1970285D1*
X653565Y1962243D1*
X653221Y1953066D1*
X431218Y2033522D2*
X435489Y2039242D1*
X441519Y2046169D1*
X448052Y2052625D1*
X455048Y2058575D1*
X460354Y2062441D1*
X431179Y2062449D1*
X431200Y2033575D1*
X459944Y437469D2*
X454157Y441770D1*
X447216Y447784D1*
X440745Y454301D1*
X434779Y461284D1*
X431196Y466175D1*
X431200Y437447D1*
X459859Y437449D1*
X1461665Y924449D2*
X1362839D1*
X1361267Y917743D1*
X1358894Y912016D1*
X1355657Y906731D1*
X1351630Y902019D1*
X1348772Y899456D1*
X1743451Y899449D1*
X1806268Y962237D1*
X1806750Y966449D1*
X1749897D1*
X1744859Y961518D1*
X1741113Y958796D1*
X1736989Y956695D1*
X1732587Y955264D1*
X1728015Y954540D1*
X1643023Y954449D1*
X1495646D1*
X1494541Y949619D1*
X1492770Y945342D1*
X1490351Y941394D1*
X1486388Y936918D1*
X1480859Y931518D1*
X1477113Y928796D1*
X1472989Y926695D1*
X1468587Y925264D1*
X1464015Y924540D1*
X1461691Y924449D1*
X1402497Y1008449D2*
X1314653D1*
X1314812Y1007298D1*
X1336073Y1007449D1*
X1401490D1*
X1314650Y1008449D2*
X1314812Y1007298D1*
X1246199Y909718D2*
X1242020Y915310D1*
X1239207Y920834D1*
X1237292Y926729D1*
X1236322Y932850D1*
Y939049D1*
X1237292Y945170D1*
X1239207Y951065D1*
X1242020Y956588D1*
X1245665Y961603D1*
X1250046Y965985D1*
X1254024Y968964D1*
X1250046Y971914D1*
X1245665Y976296D1*
X1242323Y980857D1*
X1739329Y1659350D2*
X1738359Y1653229D1*
X1736444Y1647334D1*
X1735272Y1644792D1*
X1740600Y1645578D1*
X1746800D1*
X1752920Y1644608D1*
X1758815Y1642693D1*
X1764339Y1639880D1*
X1769354Y1636235D1*
X1772955Y1632699D1*
X1773073Y1653049D1*
X1774043Y1659171D1*
X1775957Y1665065D1*
X1778241Y1670271D1*
X1738661D1*
X1739329Y1665549D1*
Y1659350D1*
X654167Y1425298D2*
Y1496852D1*
X651419Y1501806D1*
X651424Y1426006D1*
X654170Y1425281D1*
X720167Y1496830D2*
X720066Y1353561D1*
X719255Y1348447D1*
X718344Y1345075D1*
X724371Y1343629D1*
X730098Y1341256D1*
X735382Y1338019D1*
X738396Y1335564D1*
X749951Y1335562D1*
X782634Y1368256D1*
X782654Y1516783D1*
X778566Y1520885D1*
X774922Y1525899D1*
X772108Y1531423D1*
X770193Y1537318D1*
X769224Y1543439D1*
Y1549638D1*
X770193Y1555759D1*
X772108Y1561654D1*
X774922Y1567178D1*
X778566Y1572192D1*
X782948Y1576574D1*
X787962Y1580218D1*
X793486Y1583032D1*
X799381Y1584947D1*
X805502Y1585917D1*
X811701D1*
X817822Y1584947D1*
X823717Y1583032D1*
X829241Y1580218D1*
X834255Y1576574D1*
X838637Y1572192D1*
X842281Y1567178D1*
X845095Y1561654D1*
X847010Y1555759D1*
X847980Y1549638D1*
Y1543439D1*
X847010Y1537318D1*
X845095Y1531423D1*
X842281Y1525899D1*
X841654Y1524613D1*
X841564Y1353742D1*
X840839Y1349170D1*
X839409Y1344768D1*
X837308Y1340644D1*
X834586Y1336898D1*
X783019Y1285203D1*
X779499Y1282196D1*
X775552Y1279777D1*
X771275Y1278006D1*
X766775Y1276926D1*
X762159Y1276562D1*
X738440D1*
X732804Y1272382D1*
X727280Y1269569D1*
X721385Y1267654D1*
X715264Y1266684D1*
X709065D1*
X702944Y1267654D1*
X697049Y1269569D1*
X691525Y1272382D1*
X686511Y1276027D1*
X682129Y1280409D1*
X678485Y1285423D1*
X675671Y1290947D1*
X673756Y1296842D1*
X672787Y1302962D1*
X672737Y1304210D1*
X665448Y1305243D1*
X659553Y1307158D1*
X654029Y1309972D1*
X649015Y1313616D1*
X644633Y1317998D1*
X640989Y1323012D1*
X638175Y1328536D1*
X636260Y1334431D1*
X635291Y1340552D1*
Y1346751D1*
X635511Y1348616D1*
X631216Y1349737D1*
X625489Y1352109D1*
X620204Y1355347D1*
X615491Y1359373D1*
X611465Y1364086D1*
X608228Y1369371D1*
X605855Y1375098D1*
X604775Y1379283D1*
X593331Y1390869D1*
X590287Y1395058D1*
X587936Y1399672D1*
X586336Y1404598D1*
X585525Y1409712D1*
X585424Y1476606D1*
Y1509296D1*
X581931Y1515923D1*
X580016Y1521818D1*
X579046Y1527939D1*
Y1534138D1*
X580016Y1540259D1*
X581931Y1546154D1*
X584745Y1551678D1*
X588389Y1556692D1*
X592771Y1561074D1*
X597785Y1564718D1*
X603309Y1567532D1*
X609204Y1569447D1*
X615325Y1570417D1*
X621524D1*
X627645Y1569447D1*
X633540Y1567532D1*
X639064Y1564718D1*
X644078Y1561074D1*
X648460Y1556692D1*
X652104Y1551678D1*
X654918Y1546154D1*
X656087Y1542906D1*
X659237Y1546470D1*
X663949Y1550497D1*
X669234Y1553734D1*
X674961Y1556107D1*
X680987Y1557553D1*
X687167Y1558040D1*
X693347Y1557553D1*
X699373Y1556107D1*
X705100Y1553734D1*
X710385Y1550497D1*
X715098Y1546470D1*
X719124Y1541758D1*
X722361Y1536473D1*
X724734Y1530746D1*
X726180Y1524720D1*
X726667Y1518540D1*
X726180Y1512360D1*
X724734Y1506334D1*
X722361Y1500607D1*
X720167Y1496884D1*
X1581322Y1180981D2*
X1579687Y1187519D1*
X1579200Y1193699D1*
X1579687Y1199878D1*
X1581133Y1205905D1*
X1583506Y1211632D1*
X1586743Y1216917D1*
X1590770Y1221629D1*
X1595482Y1225655D1*
X1600767Y1228893D1*
X1606494Y1231266D1*
X1612520Y1232712D1*
X1618700Y1233199D1*
X1624880Y1232712D1*
X1630906Y1231266D1*
X1636633Y1228893D1*
X1641918Y1225655D1*
X1646630Y1221629D1*
X1647659Y1220518D1*
X1220784Y1540741D2*
X1229158Y1532367D1*
X1362666Y1523646D2*
X1367134Y1519196D1*
X1370779Y1514182D1*
X1373592Y1508658D1*
X1375507Y1502763D1*
X1376477Y1496642D1*
Y1490443D1*
X1375507Y1484322D1*
X1373592Y1478427D1*
X1370779Y1472903D1*
X1367134Y1467889D1*
X1362752Y1463507D1*
X1357738Y1459863D1*
X1352214Y1457049D1*
X1346319Y1455134D1*
X1340199Y1454165D1*
X1333999D1*
X1327878Y1455134D1*
X1321983Y1457049D1*
X1316460Y1459863D1*
X1311445Y1463507D1*
X1307064Y1467889D1*
X1311445Y1463507D1*
X1316460Y1459863D1*
X1321983Y1457049D1*
X1327878Y1455134D1*
X1333999Y1454165D1*
X1340199D1*
X1346319Y1455134D1*
X1352214Y1457049D1*
X1357738Y1459863D1*
X1362752Y1463507D1*
X1367134Y1467889D1*
X1370779Y1472903D1*
X1373592Y1478427D1*
X1375507Y1484322D1*
X1376477Y1490443D1*
Y1496642D1*
X1375507Y1502763D1*
X1373592Y1508658D1*
X1370779Y1514182D1*
X1367134Y1519196D1*
X1362674Y1523646D1*
X1569448Y1523666D1*
X1487750Y1441949D1*
X1316385Y1441859D1*
X1311813Y1441134D1*
X1307411Y1439704D1*
X1304993Y1438579D1*
Y1467809D1*
X1174616Y1639836D2*
D104*
Y1591718D1*
X1128466D2*
X1220766D1*
X1660629Y1102350D2*
Y1056200D1*
X1708747D1*
X2012941Y1560913D2*
Y1518700D1*
X2055154D1*
X1043700Y1143700D2*
Y1087708D1*
Y1143700D2*
X1099692D1*
X1212112Y2005735D2*
Y1949745D1*
X1156121D2*
X1268104D1*
X1387451Y1766817D2*
Y1718699D1*
X1341301D2*
X1387451D1*
X756535Y2021878D2*
Y1902020D1*
X696606Y1961949D2*
X816464D1*
X756535Y1706044D2*
Y1646115D1*
X696606Y1706044D2*
X816464D1*
X567700Y833877D2*
Y714020D1*
X507772Y773949D2*
X627629D1*
X567700Y1089784D2*
Y969926D1*
X507771Y1029855D2*
X627629D1*
X543432Y1149829D2*
Y1098758D1*
X492361Y1149829D2*
X594503D1*
X2118700Y2024690D2*
Y1968699D1*
X2062709D2*
X2174692D1*
D19*
X1174616Y1524789D3*
Y1591718D3*
X1124949Y1237449D3*
Y1304378D3*
X1181200Y1237449D3*
Y1304378D3*
D20*
X1593700Y1056200D3*
X1660629D3*
X1099951Y1374949D3*
X1166880D3*
D21*
X1949949Y1518700D3*
X2012941D3*
D24*
X1043380Y1606031D3*
D25*
Y1506031D3*
D24*
X1043700Y1143700D3*
D25*
X943700D3*
X843700D3*
D24*
X1212112Y1949745D3*
D25*
Y1849745D3*
Y1749745D3*
D26*
X1181200Y1124949D3*
Y1187941D3*
D19*
X943700Y1237449D3*
Y1304378D3*
X1043700Y1237449D3*
Y1304378D3*
X1387451Y1718699D3*
Y1651770D3*
X887449Y1037449D3*
Y970520D3*
D20*
X1818701Y1449949D3*
X1885630D3*
X1818701Y1387451D3*
X1885630D3*
D19*
X2074949Y1368700D3*
Y1435629D3*
X1949949Y1649949D3*
Y1583020D3*
D28*
X933700Y1961949D3*
D29*
X756535D3*
Y1706044D3*
X933700D3*
D28*
X567700Y773949D3*
D29*
X744865D3*
Y1029855D3*
X567700D3*
D34*
X1249949Y1499949D3*
Y1480264D3*
Y1460579D3*
Y1440894D3*
Y1421209D3*
Y1401524D3*
Y1381839D3*
Y1362154D3*
Y1342469D3*
Y1322784D3*
Y1303099D3*
Y1283414D3*
Y1263729D3*
Y1244044D3*
Y1224359D3*
Y1204674D3*
D35*
X1328690Y1125934D3*
X1348375D3*
X1368060D3*
X1387745D3*
X1407430D3*
X1427115D3*
X1446800D3*
X1466485D3*
X1486170D3*
X1505855D3*
X1525540D3*
X1545225D3*
X1564910D3*
X1584595D3*
X1604280D3*
X1623965D3*
D34*
X1702705Y1204674D3*
Y1224359D3*
Y1244044D3*
Y1263729D3*
Y1283414D3*
Y1303099D3*
Y1322784D3*
Y1342469D3*
Y1362154D3*
Y1381839D3*
Y1401524D3*
Y1421209D3*
Y1440894D3*
Y1460579D3*
Y1480264D3*
Y1499949D3*
D35*
X1623965Y1578690D3*
X1604280D3*
X1584595D3*
X1564910D3*
X1545225D3*
X1525540D3*
X1505855D3*
X1486170D3*
X1466485D3*
X1446800D3*
X1427115D3*
X1407430D3*
X1387745D3*
X1368060D3*
X1348375D3*
X1328690D3*
D36*
X2018700Y1393700D3*
Y1440944D3*
X1947834D3*
Y1393700D3*
D43*
X543432Y1149829D3*
Y1228569D3*
D24*
X2118700Y1968699D3*
D25*
Y1868699D3*
Y1768699D3*
Y1668699D3*
Y1568699D3*
X2208700Y656449D2*
D12*
X2229700D1*
X2204441Y653449D2*
X2233495D1*
X2201081Y650449D2*
X2236549D1*
X2198484Y647449D2*
X2237759D1*
X2197575Y644449D2*
X2237595D1*
X2197192Y641449D2*
X2235438D1*
X2197432Y638449D2*
X2232700D1*
X2198365Y635449D2*
X2202700D1*
X2208700D2*
X2238700D1*
X2199700Y632449D2*
X2202700D1*
X2211700D2*
X2214700D1*
X2229700D2*
X2235700D1*
X2208700Y656449D2*
X2204441Y653449D1*
X2201081Y650449D1*
X2198484Y647449D1*
X2197575Y644449D1*
X2197192Y641449D1*
X2197432Y638449D1*
X2198365Y635449D1*
X2199700Y632449D1*
X2229700Y656449D2*
X2233495Y653449D1*
X2236549Y650449D1*
X2237759Y647449D1*
X2237595Y644449D1*
X2235438Y641449D1*
X2232700Y638449D1*
X2238700Y635449D1*
X2235700Y632449D1*
X2202700Y638449D2*
Y635449D1*
Y632449D1*
X2205700Y638449D2*
X2208700Y635449D1*
X2211700Y632449D1*
X2217700Y635449D2*
X2214700Y632449D1*
X2226700Y635449D2*
X2229700Y632449D1*
M02*
