%TF.GenerationSoftware,Novarm,DipTrace,3.3.0.1*%
%TF.CreationDate,2018-11-14T10:13:06-08:00*%
%FSLAX26Y26*%
%MOIN*%
%TF.FileFunction,Drawing,Top*%
%TF.Part,Single*%
%ADD13C,0.001378*%
%ADD99C,0.006176*%
G75*
G01*
%LPD*%
X393700Y2093700D2*
D13*
Y2319634D1*
X2293249Y2093480D2*
Y2319634D1*
X1343474Y2299949D2*
X433070D1*
G36*
X393700D2*
X433070Y2307823D1*
Y2292075D1*
X393700Y2299949D1*
G37*
X1343474D2*
D13*
X2253878D1*
G36*
X2293249D2*
X2253878Y2292075D1*
Y2307823D1*
X2293249Y2299949D1*
G37*
Y2093480D2*
D13*
X2513385D1*
X2293700Y393700D2*
X2513385D1*
X2493700Y1243590D2*
Y2054109D1*
G36*
Y2093480D2*
X2501574Y2054109D1*
X2485826D1*
X2493700Y2093480D1*
G37*
Y1243590D2*
D13*
Y433070D1*
G36*
Y393700D2*
X2485826Y433070D1*
X2501574D1*
X2493700Y393700D1*
G37*
X393700Y2093700D2*
D13*
X261275D1*
X493700Y2074949D2*
X261275D1*
X280960Y2093700D2*
Y2074949D1*
Y2152755D2*
Y2133070D1*
G36*
Y2093700D2*
X273086Y2133070D1*
X288834D1*
X280960Y2093700D1*
G37*
Y2015894D2*
D13*
Y2035579D1*
G36*
Y2074949D2*
X288834Y2035579D1*
X273086D1*
X280960Y2074949D1*
G37*
Y2274400D2*
D13*
Y2093700D1*
X493700Y2074949D2*
X161515D1*
X530934Y2024743D2*
X161515D1*
X181200Y2074949D2*
Y2024743D1*
Y2134004D2*
Y2114319D1*
G36*
Y2074949D2*
X173326Y2114319D1*
X189074D1*
X181200Y2074949D1*
G37*
Y1965688D2*
D13*
Y1985373D1*
G36*
Y2024743D2*
X189074Y1985373D1*
X173326D1*
X181200Y2024743D1*
G37*
Y2235604D2*
D13*
Y2074949D1*
X530934Y2024743D2*
X61515D1*
X530934Y1962243D2*
X61515D1*
X81200Y2024743D2*
Y1962243D1*
Y2083798D2*
Y2064113D1*
G36*
Y2024743D2*
X73326Y2064113D1*
X89074D1*
X81200Y2024743D1*
G37*
Y1903188D2*
D13*
Y1922873D1*
G36*
Y1962243D2*
X89074Y1922873D1*
X73326D1*
X81200Y1962243D1*
G37*
Y2222599D2*
D13*
Y2024743D1*
X2293700Y393700D2*
Y236487D1*
X2268700Y424949D2*
Y236487D1*
Y256172D2*
X2293700D1*
X2209645D2*
X2229330D1*
G36*
X2268700D2*
X2229330Y248298D1*
Y264046D1*
X2268700Y256172D1*
G37*
X2352755D2*
D13*
X2333070D1*
G36*
X2293700D2*
X2333070Y264046D1*
Y248298D1*
X2293700Y256172D1*
G37*
X2493501D2*
D13*
X2293700D1*
X2268700Y424949D2*
Y148997D1*
X2243260Y506146D2*
Y148997D1*
Y168682D2*
X2268700D1*
X2184205D2*
X2203890D1*
G36*
X2243260D2*
X2203890Y160808D1*
Y176556D1*
X2243260Y168682D1*
G37*
X2327755D2*
D13*
X2308070D1*
G36*
X2268700D2*
X2308070Y176556D1*
Y160808D1*
X2268700Y168682D1*
G37*
X2468501D2*
D13*
X2268700D1*
X2243260Y506146D2*
Y42758D1*
X2180760Y506146D2*
Y42758D1*
Y62443D2*
X2243260D1*
X2121705D2*
X2141390D1*
G36*
X2180760D2*
X2141390Y54569D1*
Y70317D1*
X2180760Y62443D1*
G37*
X2302315D2*
D13*
X2282630D1*
G36*
X2243260D2*
X2282630Y70317D1*
Y54569D1*
X2243260Y62443D1*
G37*
X2441116D2*
D13*
X2243260D1*
X1315043Y2344659D2*
D99*
X1318890Y2346604D1*
X1324638Y2352308D1*
Y2312160D1*
X1338891Y2316007D2*
X1336989Y2314061D1*
X1338891Y2312160D1*
X1340836Y2314061D1*
X1338891Y2316007D1*
X1378081Y2338955D2*
X1376136Y2333207D1*
X1372333Y2329360D1*
X1366585Y2327459D1*
X1364684D1*
X1358936Y2329360D1*
X1355133Y2333207D1*
X1353188Y2338955D1*
Y2340856D1*
X1355133Y2346604D1*
X1358936Y2350407D1*
X1364684Y2352308D1*
X1366585D1*
X1372333Y2350407D1*
X1376136Y2346604D1*
X1378081Y2338955D1*
Y2329360D1*
X1376136Y2319809D1*
X1372333Y2314061D1*
X1366585Y2312160D1*
X1362782D1*
X1357034Y2314061D1*
X1355133Y2317908D1*
X2538409Y1272971D2*
X2540355Y1269125D1*
X2546059Y1263377D1*
X2505911D1*
X2509758Y1249124D2*
X2507812Y1251025D1*
X2505911Y1249124D1*
X2507812Y1247178D1*
X2509758Y1249124D1*
X2505911Y1227178D2*
X2546059Y1208032D1*
Y1234827D1*
X228601Y2153830D2*
X230503Y2148082D1*
X236251Y2144235D1*
X245801Y2142334D1*
X251549D1*
X261100Y2144235D1*
X266848Y2148082D1*
X268749Y2153830D1*
Y2157632D1*
X266848Y2163380D1*
X261100Y2167183D1*
X251549Y2169128D1*
X245801D1*
X236251Y2167183D1*
X230503Y2163380D1*
X228601Y2157632D1*
Y2153830D1*
X236251Y2167183D2*
X261100Y2144235D1*
X264902Y2183381D2*
X266848Y2181480D1*
X268749Y2183381D1*
X266848Y2185326D1*
X264902Y2183381D1*
X228601Y2209174D2*
X230503Y2203426D1*
X236251Y2199579D1*
X245801Y2197678D1*
X251549D1*
X261100Y2199579D1*
X266848Y2203426D1*
X268749Y2209174D1*
Y2212976D1*
X266848Y2218724D1*
X261100Y2222527D1*
X251549Y2224473D1*
X245801D1*
X236251Y2222527D1*
X230503Y2218724D1*
X228601Y2212976D1*
Y2209174D1*
X236251Y2222527D2*
X261100Y2199579D1*
X236251Y2236824D2*
X234305Y2240671D1*
X228601Y2246419D1*
X268749D1*
X241954Y2283664D2*
X247702Y2281718D1*
X251549Y2277915D1*
X253450Y2272167D1*
Y2270266D1*
X251549Y2264518D1*
X247702Y2260716D1*
X241954Y2258770D1*
X240053D1*
X234305Y2260716D1*
X230503Y2264518D1*
X228601Y2270266D1*
Y2272167D1*
X230503Y2277915D1*
X234305Y2281718D1*
X241954Y2283664D1*
X251549D1*
X261100Y2281718D1*
X266848Y2277915D1*
X268749Y2272167D1*
Y2268365D1*
X266848Y2262617D1*
X263001Y2260716D1*
X128841Y2135079D2*
X130743Y2129331D1*
X136491Y2125484D1*
X146041Y2123583D1*
X151789D1*
X161340Y2125484D1*
X167088Y2129331D1*
X168989Y2135079D1*
Y2138882D1*
X167088Y2144630D1*
X161340Y2148432D1*
X151789Y2150378D1*
X146041D1*
X136491Y2148432D1*
X130743Y2144630D1*
X128841Y2138882D1*
Y2135079D1*
X136491Y2148432D2*
X161340Y2125484D1*
X165142Y2164630D2*
X167088Y2162729D1*
X168989Y2164630D1*
X167088Y2166576D1*
X165142Y2164630D1*
X128841Y2190423D2*
X130743Y2184675D1*
X136491Y2180828D1*
X146041Y2178927D1*
X151789D1*
X161340Y2180828D1*
X167088Y2184675D1*
X168989Y2190423D1*
Y2194226D1*
X167088Y2199974D1*
X161340Y2203776D1*
X151789Y2205722D1*
X146041D1*
X136491Y2203776D1*
X130743Y2199974D1*
X128841Y2194226D1*
Y2190423D1*
X136491Y2203776D2*
X161340Y2180828D1*
X128841Y2241021D2*
Y2221920D1*
X146041Y2220019D1*
X144140Y2221920D1*
X142195Y2227668D1*
Y2233372D1*
X144140Y2239120D1*
X147943Y2242967D1*
X153691Y2244868D1*
X157493D1*
X163241Y2242967D1*
X167088Y2239120D1*
X168989Y2233372D1*
Y2227668D1*
X167088Y2221920D1*
X165142Y2220019D1*
X161340Y2218073D1*
X28841Y2084873D2*
X30743Y2079125D1*
X36491Y2075278D1*
X46041Y2073377D1*
X51789D1*
X61340Y2075278D1*
X67088Y2079125D1*
X68989Y2084873D1*
Y2088676D1*
X67088Y2094424D1*
X61340Y2098226D1*
X51789Y2100172D1*
X46041D1*
X36491Y2098226D1*
X30743Y2094424D1*
X28841Y2088676D1*
Y2084873D1*
X36491Y2098226D2*
X61340Y2075278D1*
X65142Y2114424D2*
X67088Y2112523D1*
X68989Y2114424D1*
X67088Y2116370D1*
X65142Y2114424D1*
X28841Y2140217D2*
X30743Y2134469D1*
X36491Y2130622D1*
X46041Y2128721D1*
X51789D1*
X61340Y2130622D1*
X67088Y2134469D1*
X68989Y2140217D1*
Y2144020D1*
X67088Y2149768D1*
X61340Y2153570D1*
X51789Y2155516D1*
X46041D1*
X36491Y2153570D1*
X30743Y2149768D1*
X28841Y2144020D1*
Y2140217D1*
X36491Y2153570D2*
X61340Y2130622D1*
X34545Y2190815D2*
X30743Y2188914D1*
X28841Y2183166D1*
Y2179363D1*
X30743Y2173615D1*
X36491Y2169768D1*
X46041Y2167867D1*
X55592D1*
X63241Y2169768D1*
X67088Y2173615D1*
X68989Y2179363D1*
Y2181265D1*
X67088Y2186968D1*
X63241Y2190815D1*
X57493Y2192716D1*
X55592D1*
X49844Y2190815D1*
X46041Y2186968D1*
X44140Y2181265D1*
Y2179363D1*
X46041Y2173615D1*
X49844Y2169768D1*
X55592Y2167867D1*
X38392Y2207013D2*
X36491D1*
X32644Y2208915D1*
X30743Y2210816D1*
X28841Y2214663D1*
Y2222312D1*
X30743Y2226114D1*
X32644Y2228016D1*
X36491Y2229961D1*
X40293D1*
X44140Y2228016D1*
X49844Y2224213D1*
X68989Y2205068D1*
Y2231862D1*
X2353830Y308531D2*
X2348082Y306630D1*
X2344235Y300882D1*
X2342334Y291331D1*
Y285583D1*
X2344235Y276033D1*
X2348082Y270284D1*
X2353830Y268383D1*
X2357632D1*
X2363380Y270284D1*
X2367183Y276033D1*
X2369128Y285583D1*
Y291331D1*
X2367183Y300882D1*
X2363380Y306630D1*
X2357632Y308531D1*
X2353830D1*
X2367183Y300882D2*
X2344235Y276033D1*
X2383381Y272230D2*
X2381480Y270284D1*
X2383381Y268383D1*
X2385326Y270284D1*
X2383381Y272230D1*
X2409174Y308531D2*
X2403426Y306630D1*
X2399579Y300882D1*
X2397678Y291331D1*
Y285583D1*
X2399579Y276033D1*
X2403426Y270284D1*
X2409174Y268383D1*
X2412976D1*
X2418724Y270284D1*
X2422527Y276033D1*
X2424473Y285583D1*
Y291331D1*
X2422527Y300882D1*
X2418724Y306630D1*
X2412976Y308531D1*
X2409174D1*
X2422527Y300882D2*
X2399579Y276033D1*
X2438769Y298980D2*
Y300882D1*
X2440671Y304728D1*
X2442572Y306630D1*
X2446419Y308531D1*
X2454068D1*
X2457871Y306630D1*
X2459772Y304728D1*
X2461717Y300882D1*
Y297079D1*
X2459772Y293232D1*
X2455969Y287529D1*
X2436824Y268383D1*
X2463619D1*
X2498918Y308531D2*
X2479817D1*
X2477915Y291331D1*
X2479817Y293232D1*
X2485565Y295178D1*
X2491269D1*
X2497017Y293232D1*
X2500863Y289430D1*
X2502765Y283682D1*
Y279879D1*
X2500863Y274131D1*
X2497017Y270284D1*
X2491269Y268383D1*
X2485565D1*
X2479817Y270284D1*
X2477915Y272230D1*
X2475970Y276033D1*
X2328830Y221040D2*
X2323082Y219139D1*
X2319235Y213391D1*
X2317334Y203840D1*
Y198092D1*
X2319235Y188542D1*
X2323082Y182794D1*
X2328830Y180892D1*
X2332632D1*
X2338380Y182794D1*
X2342183Y188542D1*
X2344128Y198092D1*
Y203840D1*
X2342183Y213391D1*
X2338380Y219139D1*
X2332632Y221040D1*
X2328830D1*
X2342183Y213391D2*
X2319235Y188542D1*
X2358381Y184739D2*
X2356480Y182794D1*
X2358381Y180892D1*
X2360326Y182794D1*
X2358381Y184739D1*
X2384174Y221040D2*
X2378426Y219139D1*
X2374579Y213391D1*
X2372678Y203840D1*
Y198092D1*
X2374579Y188542D1*
X2378426Y182794D1*
X2384174Y180892D1*
X2387976D1*
X2393724Y182794D1*
X2397527Y188542D1*
X2399473Y198092D1*
Y203840D1*
X2397527Y213391D1*
X2393724Y219139D1*
X2387976Y221040D1*
X2384174D1*
X2397527Y213391D2*
X2374579Y188542D1*
X2413769Y211490D2*
Y213391D1*
X2415671Y217238D1*
X2417572Y219139D1*
X2421419Y221040D1*
X2429068D1*
X2432871Y219139D1*
X2434772Y217238D1*
X2436717Y213391D1*
Y209588D1*
X2434772Y205742D1*
X2430969Y200038D1*
X2411824Y180892D1*
X2438619D1*
X2473918Y221040D2*
X2454817D1*
X2452915Y203840D1*
X2454817Y205742D1*
X2460565Y207687D1*
X2466269D1*
X2472017Y205742D1*
X2475863Y201939D1*
X2477765Y196191D1*
Y192388D1*
X2475863Y186640D1*
X2472017Y182794D1*
X2466269Y180892D1*
X2460565D1*
X2454817Y182794D1*
X2452915Y184739D1*
X2450970Y188542D1*
X2303390Y114801D2*
X2297642Y112900D1*
X2293795Y107152D1*
X2291894Y97601D1*
Y91853D1*
X2293795Y82303D1*
X2297642Y76555D1*
X2303390Y74654D1*
X2307193D1*
X2312941Y76555D1*
X2316743Y82303D1*
X2318689Y91853D1*
Y97601D1*
X2316743Y107152D1*
X2312941Y112900D1*
X2307193Y114801D1*
X2303390D1*
X2316743Y107152D2*
X2293795Y82303D1*
X2332941Y78500D2*
X2331040Y76555D1*
X2332941Y74654D1*
X2334887Y76555D1*
X2332941Y78500D1*
X2358734Y114801D2*
X2352986Y112900D1*
X2349139Y107152D1*
X2347238Y97601D1*
Y91853D1*
X2349139Y82303D1*
X2352986Y76555D1*
X2358734Y74654D1*
X2362537D1*
X2368285Y76555D1*
X2372087Y82303D1*
X2374033Y91853D1*
Y97601D1*
X2372087Y107152D1*
X2368285Y112900D1*
X2362537Y114801D1*
X2358734D1*
X2372087Y107152D2*
X2349139Y82303D1*
X2409332Y109098D2*
X2407431Y112900D1*
X2401683Y114801D1*
X2397880D1*
X2392132Y112900D1*
X2388286Y107152D1*
X2386384Y97601D1*
Y88051D1*
X2388286Y80402D1*
X2392132Y76555D1*
X2397880Y74654D1*
X2399782D1*
X2405485Y76555D1*
X2409332Y80402D1*
X2411233Y86150D1*
Y88051D1*
X2409332Y93799D1*
X2405485Y97601D1*
X2399782Y99503D1*
X2397880D1*
X2392132Y97601D1*
X2388286Y93799D1*
X2386384Y88051D1*
X2425530Y105251D2*
Y107152D1*
X2427432Y110999D1*
X2429333Y112900D1*
X2433180Y114801D1*
X2440829D1*
X2444632Y112900D1*
X2446533Y110999D1*
X2448478Y107152D1*
Y103349D1*
X2446533Y99503D1*
X2442730Y93799D1*
X2423585Y74654D1*
X2450380D1*
M02*
