%TF.GenerationSoftware,Novarm,DipTrace,3.3.0.1*%
%TF.CreationDate,2018-11-14T10:13:00-08:00*%
%FSLAX26Y26*%
%MOIN*%
%TF.FileFunction,Soldermask,Top*%
%TF.Part,Single*%
%ADD47C,0.125*%
%ADD57C,0.057093*%
%ADD69R,0.043313X0.039376*%
%ADD71R,0.019691X0.064967*%
%ADD73R,0.064967X0.019691*%
%ADD75C,0.074809*%
%ADD77R,0.074809X0.074809*%
%ADD81R,0.04725X0.045282*%
%ADD83C,0.066935*%
%ADD85R,0.066935X0.066935*%
%ADD91R,0.039376X0.039376*%
%ADD93R,0.051187X0.04725*%
%ADD95R,0.04725X0.051187*%
G75*
G01*
%LPD*%
D95*
X1174616Y1524789D3*
Y1591718D3*
X1124949Y1237449D3*
Y1304378D3*
X1181200Y1237449D3*
Y1304378D3*
D93*
X1593700Y1056200D3*
X1660629D3*
X1099951Y1374949D3*
X1166880D3*
D91*
X1949949Y1518700D3*
X2012941D3*
D85*
X1043380Y1606031D3*
D83*
Y1506031D3*
D85*
X1043700Y1143700D3*
D83*
X943700D3*
X843700D3*
D85*
X1212112Y1949745D3*
D83*
Y1849745D3*
Y1749745D3*
D81*
X1181200Y1124949D3*
Y1187941D3*
D95*
X943700Y1237449D3*
Y1304378D3*
X1043700Y1237449D3*
Y1304378D3*
X1387451Y1718699D3*
Y1651770D3*
X887449Y1037449D3*
Y970520D3*
D93*
X1818701Y1449949D3*
X1885630D3*
X1818701Y1387451D3*
X1885630D3*
D95*
X2074949Y1368700D3*
Y1435629D3*
X1949949Y1649949D3*
Y1583020D3*
D77*
X933700Y1961949D3*
D75*
X756535D3*
Y1706044D3*
X933700D3*
D77*
X567700Y773949D3*
D75*
X744865D3*
Y1029855D3*
X567700D3*
D73*
X1249949Y1499949D3*
Y1480264D3*
Y1460579D3*
Y1440894D3*
Y1421209D3*
Y1401524D3*
Y1381839D3*
Y1362154D3*
Y1342469D3*
Y1322784D3*
Y1303099D3*
Y1283414D3*
Y1263729D3*
Y1244044D3*
Y1224359D3*
Y1204674D3*
D71*
X1328690Y1125934D3*
X1348375D3*
X1368060D3*
X1387745D3*
X1407430D3*
X1427115D3*
X1446800D3*
X1466485D3*
X1486170D3*
X1505855D3*
X1525540D3*
X1545225D3*
X1564910D3*
X1584595D3*
X1604280D3*
X1623965D3*
D73*
X1702705Y1204674D3*
Y1224359D3*
Y1244044D3*
Y1263729D3*
Y1283414D3*
Y1303099D3*
Y1322784D3*
Y1342469D3*
Y1362154D3*
Y1381839D3*
Y1401524D3*
Y1421209D3*
Y1440894D3*
Y1460579D3*
Y1480264D3*
Y1499949D3*
D71*
X1623965Y1578690D3*
X1604280D3*
X1584595D3*
X1564910D3*
X1545225D3*
X1525540D3*
X1505855D3*
X1486170D3*
X1466485D3*
X1446800D3*
X1427115D3*
X1407430D3*
X1387745D3*
X1368060D3*
X1348375D3*
X1328690D3*
D69*
X2018700Y1393700D3*
Y1440944D3*
X1947834D3*
Y1393700D3*
D57*
X543432Y1149829D3*
Y1228569D3*
D85*
X2118700Y1968699D3*
D83*
Y1868699D3*
Y1768699D3*
Y1668699D3*
Y1568699D3*
D47*
X530934Y1962243D3*
Y537393D3*
X2180760Y506146D3*
M02*
