%TF.GenerationSoftware,Novarm,DipTrace,3.3.0.1*%
%TF.CreationDate,2018-11-14T10:13:01-08:00*%
%FSLAX26Y26*%
%MOIN*%
%TF.FileFunction,Paste,Top*%
%TF.Part,Single*%
%ADD70R,0.027553X0.023616*%
%ADD72R,0.003931X0.049207*%
%ADD74R,0.049207X0.003931*%
%ADD82R,0.03149X0.029522*%
%ADD92R,0.023616X0.023616*%
%ADD94R,0.035427X0.03149*%
%ADD96R,0.03149X0.035427*%
G75*
G01*
%LPD*%
D96*
X1174616Y1524789D3*
Y1591718D3*
X1124949Y1237449D3*
Y1304378D3*
X1181200Y1237449D3*
Y1304378D3*
D94*
X1593700Y1056200D3*
X1660629D3*
X1099951Y1374949D3*
X1166880D3*
D92*
X1949949Y1518700D3*
X2012941D3*
D82*
X1181200Y1124949D3*
Y1187941D3*
D96*
X943700Y1237449D3*
Y1304378D3*
X1043700Y1237449D3*
Y1304378D3*
X1387451Y1718699D3*
Y1651770D3*
X887449Y1037449D3*
Y970520D3*
D94*
X1818701Y1449949D3*
X1885630D3*
X1818701Y1387451D3*
X1885630D3*
D96*
X2074949Y1368700D3*
Y1435629D3*
X1949949Y1649949D3*
Y1583020D3*
D74*
X1249949Y1499949D3*
Y1480264D3*
Y1460579D3*
Y1440894D3*
Y1421209D3*
Y1401524D3*
Y1381839D3*
Y1362154D3*
Y1342469D3*
Y1322784D3*
Y1303099D3*
Y1283414D3*
Y1263729D3*
Y1244044D3*
Y1224359D3*
Y1204674D3*
D72*
X1328690Y1125934D3*
X1348375D3*
X1368060D3*
X1387745D3*
X1407430D3*
X1427115D3*
X1446800D3*
X1466485D3*
X1486170D3*
X1505855D3*
X1525540D3*
X1545225D3*
X1564910D3*
X1584595D3*
X1604280D3*
X1623965D3*
D74*
X1702705Y1204674D3*
Y1224359D3*
Y1244044D3*
Y1263729D3*
Y1283414D3*
Y1303099D3*
Y1322784D3*
Y1342469D3*
Y1362154D3*
Y1381839D3*
Y1401524D3*
Y1421209D3*
Y1440894D3*
Y1460579D3*
Y1480264D3*
Y1499949D3*
D72*
X1623965Y1578690D3*
X1604280D3*
X1584595D3*
X1564910D3*
X1545225D3*
X1525540D3*
X1505855D3*
X1486170D3*
X1466485D3*
X1446800D3*
X1427115D3*
X1407430D3*
X1387745D3*
X1368060D3*
X1348375D3*
X1328690D3*
D70*
X2018700Y1393700D3*
Y1440944D3*
X1947834D3*
Y1393700D3*
M02*
