%TF.GenerationSoftware,Novarm,DipTrace,3.3.0.1*%
%TF.CreationDate,2018-11-14T10:12:59-08:00*%
%FSLAX26Y26*%
%MOIN*%
%TF.FileFunction,Legend,Top*%
%TF.Part,Single*%
%ADD10C,0.009843*%
%ADD12C,0.003*%
%ADD32C,0.007874*%
%ADD97C,0.00772*%
%ADD98C,0.015439*%
%ADD99C,0.006176*%
%ADD100C,0.003088*%
%ADD101C,0.004632*%
%ADD102C,0.001544*%
G75*
G01*
%LPD*%
X2046406Y1506889D2*
D10*
Y1530511D1*
X993380Y1456031D2*
X1093380D1*
X993380Y1656031D2*
Y1456031D1*
Y1656031D2*
X1093380D1*
Y1456031D1*
X1093700Y1193700D2*
Y1093700D1*
X793700D1*
Y1193700D2*
Y1093700D1*
X1093700Y1193700D2*
X793700D1*
X1162112Y1999745D2*
X1262112D1*
Y1699745D1*
X1162112D2*
X1262112D1*
X1162112Y1999745D2*
Y1699745D1*
X774257Y1833997D2*
G02X774257Y1833997I70861J0D01*
G01*
X727000Y1924552D2*
Y1743441D1*
X805720Y1715871D2*
X884490D1*
X963235Y1743441D2*
Y1908797D1*
X884490Y1952122D2*
X805720D1*
X786046Y1833997D2*
G02X786046Y1833997I59059J0D01*
G01*
X585422Y901902D2*
G02X585422Y901902I70861J0D01*
G01*
X774400Y811347D2*
Y992457D1*
X695680Y1020027D2*
X616910D1*
X538165Y992457D2*
Y827101D1*
X616910Y783777D2*
X695680D1*
X597236Y901902D2*
G02X597236Y901902I59059J0D01*
G01*
X1292264Y1536375D2*
D32*
X1660391D1*
Y1168248D1*
X1292264D1*
Y1536375D1*
X1226337Y1529491D2*
D10*
G02X1226337Y1529491I4925J0D01*
G01*
X2068700Y1518699D2*
X2168700D1*
X2068700Y2018699D2*
Y1518699D1*
X2168700Y2018699D2*
Y1518699D1*
X2068700Y2018699D2*
X2168700D1*
X2115700Y1096949D2*
D12*
X2175700D1*
X2108327Y1093949D2*
X2182971D1*
X2101571Y1090949D2*
X2189436D1*
X2095529Y1087949D2*
X2195047D1*
X2090171Y1084949D2*
X2200066D1*
X2085362Y1081949D2*
X2204691D1*
X2081073Y1078949D2*
X2124940D1*
X2166110D2*
X2208897D1*
X2077328Y1075949D2*
X2116838D1*
X2173853D2*
X2212692D1*
X2073973Y1072949D2*
X2109893D1*
X2180741D2*
X2216221D1*
X2070919Y1069949D2*
X2104137D1*
X2186728D2*
X2219428D1*
X2068237Y1066949D2*
X2099284D1*
X2191721D2*
X2222095D1*
X2065943Y1063949D2*
X2094955D1*
X2195818D2*
X2224432D1*
X2063809Y1060949D2*
X2090802D1*
X2199339D2*
X2226625D1*
X2061723Y1057949D2*
X2086948D1*
X2202562D2*
X2228657D1*
X2059824Y1054949D2*
X2083732D1*
X2205638D2*
X2230671D1*
X2058114Y1051949D2*
X2081156D1*
X2208565D2*
X2232707D1*
X2056514Y1048949D2*
X2078894D1*
X2211195D2*
X2234575D1*
X2054976Y1045949D2*
X2076743D1*
X2213468D2*
X2236172D1*
X2053469Y1042949D2*
X2074730D1*
X2215595D2*
X2237376D1*
X2052060Y1039949D2*
X2072736D1*
X2217678D2*
X2238089D1*
X2050844Y1036949D2*
X2070809D1*
X2219567D2*
X2238444D1*
X2049787Y1033949D2*
X2069324D1*
X2221199D2*
X2238600D1*
X2048729Y1030949D2*
X2068443D1*
X2222551D2*
X2238663D1*
X2047810Y1027949D2*
X2067987D1*
X2223700D2*
X2238687D1*
X2047225Y1024949D2*
X2112700D1*
X2139700D2*
X2163700D1*
X2206416D2*
X2238696D1*
X2046924Y1021949D2*
X2115470D1*
X2142700D2*
X2164840D1*
X2195152D2*
X2238699D1*
X2046788Y1018949D2*
X2117521D1*
X2140840D2*
X2166117D1*
X2187935D2*
X2238700D1*
X2046733Y1015949D2*
X2061700D1*
X2067700D2*
X2118147D1*
X2139129D2*
X2167417D1*
X2185853D2*
X2238700D1*
X2046712Y1012949D2*
X2061700D1*
X2067700D2*
X2085700D1*
X2100700D2*
X2118460D1*
X2137534D2*
X2168585D1*
X2185215D2*
X2202700D1*
X2229700D2*
X2238700D1*
X2046704Y1009949D2*
X2061700D1*
X2067700D2*
X2085700D1*
X2100700D2*
X2118487D1*
X2136085D2*
X2169635D1*
X2184902D2*
X2202700D1*
X2046701Y1006949D2*
X2061700D1*
X2067700D2*
X2085700D1*
X2100700D2*
X2118079D1*
X2134853D2*
X2170792D1*
X2184774D2*
X2202700D1*
X2046700Y1003949D2*
X2061700D1*
X2067700D2*
X2117075D1*
X2133779D2*
X2142148D1*
X2152252D2*
X2172091D1*
X2184726D2*
X2202700D1*
X2046700Y1000949D2*
X2061700D1*
X2067700D2*
X2115700D1*
X2132613D2*
X2141096D1*
X2153304D2*
X2173405D1*
X2184709D2*
X2202700D1*
X2046700Y997949D2*
X2061700D1*
X2067700D2*
X2117085D1*
X2131299D2*
X2139700D1*
X2154700D2*
X2174580D1*
X2184703D2*
X2202700D1*
X2046700Y994949D2*
X2061700D1*
X2067700D2*
X2085700D1*
X2100700D2*
X2117946D1*
X2129890D2*
X2175624D1*
X2184701D2*
X2202700D1*
X2046700Y991949D2*
X2061700D1*
X2067700D2*
X2085700D1*
X2100700D2*
X2118382D1*
X2128435D2*
X2176702D1*
X2184700D2*
X2202700D1*
X2046700Y988949D2*
X2061700D1*
X2067700D2*
X2085700D1*
X2100700D2*
X2118576D1*
X2127030D2*
X2177749D1*
X2184700D2*
X2202700D1*
X2232700D2*
X2238700D1*
X2046700Y985949D2*
X2061700D1*
X2067700D2*
X2085700D1*
X2100700D2*
X2118657D1*
X2125786D2*
X2133700D1*
X2157110D2*
X2178700D1*
X2184700D2*
X2202700D1*
X2229700D2*
X2238700D1*
X2046700Y982949D2*
X2118700D1*
X2124700D2*
X2133700D1*
X2158865D2*
X2238700D1*
X2046712Y979949D2*
X2133700D1*
X2159873D2*
X2238700D1*
X2046817Y976949D2*
X2133700D1*
X2160383D2*
X2238700D1*
X2047200Y973949D2*
X2109700D1*
X2118700D2*
X2133700D1*
X2160700D2*
X2184700D1*
X2193700D2*
X2238700D1*
X2047930Y970949D2*
X2068175D1*
X2223700D2*
X2238700D1*
X2048804Y967949D2*
X2069025D1*
X2222548D2*
X2238700D1*
X2049722Y964949D2*
X2070195D1*
X2221166D2*
X2238688D1*
X2050824Y961949D2*
X2071556D1*
X2219484D2*
X2238583D1*
X2052114Y958949D2*
X2073104D1*
X2217585D2*
X2238189D1*
X2053514Y955949D2*
X2074973D1*
X2215660D2*
X2237353D1*
X2054976Y952949D2*
X2077291D1*
X2213587D2*
X2236096D1*
X2056469Y949949D2*
X2079949D1*
X2211173D2*
X2234460D1*
X2058071Y946949D2*
X2082797D1*
X2208476D2*
X2232577D1*
X2059961Y943949D2*
X2085736D1*
X2205611D2*
X2230658D1*
X2062275Y940949D2*
X2088724D1*
X2202655D2*
X2228586D1*
X2064830Y937949D2*
X2091833D1*
X2199559D2*
X2226173D1*
X2067309Y934949D2*
X2095342D1*
X2196056D2*
X2223475D1*
X2069635Y931949D2*
X2099676D1*
X2191723D2*
X2220611D1*
X2072225Y928949D2*
X2105161D1*
X2186238D2*
X2217667D1*
X2075424Y925949D2*
X2111878D1*
X2179522D2*
X2214677D1*
X2079017Y922949D2*
X2119578D1*
X2171822D2*
X2211579D1*
X2082806Y919949D2*
X2127700D1*
X2163700D2*
X2208176D1*
X2086879Y916949D2*
X2204235D1*
X2091368Y913949D2*
X2199583D1*
X2096610Y910949D2*
X2194107D1*
X2102866Y907949D2*
X2188001D1*
X2109700Y904949D2*
X2181700D1*
X2007200Y884449D2*
X2115200D1*
X1994978Y881449D2*
X2128447D1*
X1983617Y878449D2*
X2045684D1*
X2079716D2*
X2140690D1*
X1973362Y875449D2*
X2024180D1*
X2101220D2*
X2151419D1*
X1964286Y872449D2*
X2006508D1*
X2118892D2*
X2160513D1*
X1956131Y869449D2*
X1992163D1*
X2133237D2*
X2168464D1*
X1948791Y866449D2*
X1980549D1*
X2144851D2*
X2175808D1*
X1942364Y863449D2*
X1971207D1*
X2154193D2*
X2182501D1*
X1936705Y860449D2*
X1963494D1*
X2161906D2*
X2188413D1*
X1931422Y857449D2*
X1956717D1*
X2168683D2*
X2193849D1*
X1926366Y854449D2*
X1950406D1*
X2174994D2*
X2198969D1*
X1921732Y851449D2*
X1944387D1*
X2181001D2*
X2203543D1*
X1917455Y848449D2*
X1938735D1*
X2186559D2*
X2207556D1*
X1913296Y845449D2*
X1933555D1*
X2191463D2*
X2211383D1*
X1909346Y842449D2*
X1928818D1*
X2195863D2*
X2215284D1*
X1905852Y839449D2*
X1924558D1*
X1956200D2*
D3*
X2200061D2*
X2219025D1*
X1902927Y836449D2*
X1920823D1*
X1926200D2*
D3*
X1953200D2*
X1956200D1*
X2203914D2*
X2222195D1*
X1900508Y833449D2*
X1917472D1*
X1927349D2*
X1929200D1*
X1941200D2*
D3*
X1950200D2*
X1955051D1*
X2207319D2*
X2224765D1*
X1898232Y830449D2*
X1914418D1*
X1928716D2*
X1932200D1*
X1941200D2*
D3*
X1947200D2*
X1953684D1*
X2209066D2*
X2227115D1*
X1895839Y827449D2*
X1911737D1*
X1930357D2*
X1952043D1*
X2208998D2*
X2229540D1*
X1893504Y824449D2*
X1909443D1*
X1932200D2*
X1950200D1*
X2207613D2*
X2211200D1*
X2217778D2*
X2231889D1*
X1891452Y821449D2*
X1907309D1*
X1926200D2*
X1956200D1*
X2206075D2*
X2211200D1*
X2218918D2*
X2233933D1*
X1889667Y818449D2*
X1905223D1*
X1929200D2*
X1953200D1*
X2204520D2*
X2211188D1*
X2220519D2*
X2235615D1*
X1888046Y815449D2*
X1903324D1*
X1924596D2*
X1957804D1*
X1977200D2*
X2154200D1*
X2202980D2*
X2211083D1*
X2222208D2*
X2236854D1*
X1886600Y812449D2*
X1901614D1*
X1919523D2*
X1962877D1*
X1977200D2*
X2154200D1*
X2201464D2*
X2210700D1*
X2223834D2*
X2237581D1*
X1885471Y809449D2*
X1900026D1*
X1914200D2*
X1926200D1*
X1932097D2*
X1949261D1*
X1956200D2*
X1968200D1*
X1977200D2*
X2154200D1*
X2199965D2*
X2209982D1*
X2225391D2*
X2237941D1*
X1884790Y806449D2*
X1898581D1*
X1928818D2*
X1947668D1*
X1977200D2*
X2154200D1*
X2198558D2*
X2209213D1*
X2226813D2*
X2238099D1*
X1884449Y803449D2*
X1897352D1*
X1925482D2*
X1932212D1*
X1937610D2*
X1945732D1*
X1977200D2*
X1989578D1*
X2007200D2*
X2019200D1*
X2037200D2*
X2049200D1*
X2067200D2*
X2079200D1*
X2097200D2*
X2124200D1*
X2142200D2*
X2154200D1*
X2197343D2*
X2208678D1*
X2227945D2*
X2238163D1*
X1884297Y800449D2*
X1896290D1*
X1922443D2*
X1929317D1*
X1939365D2*
X1943962D1*
X1977200D2*
X1990430D1*
X2007200D2*
X2019200D1*
X2037200D2*
X2049200D1*
X2067200D2*
X2079200D1*
X2097200D2*
X2124200D1*
X2142177D2*
X2154200D1*
X2196287D2*
X2208294D1*
X2228728D2*
X2238187D1*
X1884236Y797449D2*
X1895230D1*
X1919794D2*
X1926711D1*
X1940373D2*
X1942627D1*
X1977223D2*
X1994552D1*
X2007200D2*
X2019200D1*
X2037200D2*
X2049200D1*
X2067200D2*
X2079200D1*
X2097200D2*
X2124200D1*
X2141942D2*
X2154200D1*
X2195218D2*
X2207785D1*
X2229451D2*
X2238196D1*
X1884213Y794449D2*
X1894310D1*
X1917433D2*
X1924535D1*
X1940883D2*
X1941793D1*
X1977470D2*
X2000390D1*
X2037200D2*
X2049200D1*
X2067200D2*
X2079200D1*
X2097200D2*
X2124200D1*
X2141380D2*
X2154188D1*
X2194169D2*
X2207013D1*
X2230321D2*
X2238199D1*
X1884204Y791449D2*
X1893726D1*
X1915420D2*
X1922698D1*
X1941200D2*
D3*
X1978067D2*
X2006836D1*
X2037200D2*
X2049200D1*
X2067200D2*
X2124200D1*
X2138639D2*
X2154071D1*
X2192980D2*
X2206224D1*
X2231140D2*
X2238200D1*
X1884201Y788449D2*
X1893436D1*
X1913763D2*
X1921057D1*
X1980739D2*
X2012274D1*
X2037200D2*
X2049200D1*
X2067200D2*
X2124200D1*
X2134720D2*
X2153560D1*
X2191090D2*
X2205705D1*
X2231581D2*
X2238200D1*
X1884200Y785449D2*
X1893406D1*
X1912537D2*
X1919604D1*
X1986369D2*
X2016458D1*
X2037200D2*
X2049200D1*
X2067200D2*
X2124200D1*
X2130200D2*
X2152589D1*
X2188354D2*
X2205530D1*
X2231485D2*
X2238200D1*
X1884200Y782449D2*
X1893732D1*
X1911815D2*
X1918473D1*
X1992787D2*
X2017886D1*
X2037200D2*
X2049200D1*
X2067200D2*
X2149870D1*
X2185413D2*
X2205784D1*
X2230896D2*
X2238200D1*
X1884200Y779449D2*
X1894441D1*
X1911457D2*
X1917791D1*
X1998694D2*
X2018647D1*
X2037200D2*
X2049200D1*
X2067200D2*
X2079200D1*
X2097200D2*
X2146290D1*
X2182904D2*
X2206450D1*
X2230169D2*
X2238200D1*
X1884200Y776449D2*
X1895308D1*
X1911300D2*
X1917449D1*
X2003576D2*
X2018986D1*
X2037200D2*
X2049200D1*
X2067200D2*
X2079200D1*
X2097200D2*
X2142200D1*
X2180865D2*
X2207198D1*
X2229561D2*
X2238200D1*
X1884212Y773449D2*
X1896223D1*
X1911237D2*
X1917309D1*
X2005755D2*
X2019122D1*
X2037200D2*
X2049200D1*
X2067200D2*
X2079200D1*
X2097200D2*
X2144048D1*
X2179114D2*
X2207703D1*
X2228896D2*
X2238200D1*
X1884317Y770449D2*
X1897324D1*
X1911225D2*
X1917365D1*
X2006531D2*
X2019173D1*
X2037200D2*
X2049200D1*
X2067200D2*
X2079200D1*
X2097200D2*
X2145666D1*
X2177504D2*
X2207873D1*
X2227948D2*
X2238200D1*
X1884711Y767449D2*
X1898614D1*
X1911333D2*
X1917841D1*
X1977200D2*
X1989200D1*
X2006945D2*
X2019191D1*
X2037200D2*
X2049200D1*
X2067200D2*
X2079200D1*
X2097200D2*
X2124200D1*
X2129725D2*
X2146984D1*
X2175884D2*
X2207617D1*
X2226733D2*
X2238188D1*
X1885535Y764449D2*
X1900026D1*
X1911818D2*
X1919051D1*
X1977200D2*
X1989200D1*
X2007200D2*
X2019197D1*
X2037200D2*
X2049200D1*
X2067200D2*
X2079200D1*
X2097200D2*
X2124200D1*
X2131864D2*
X2148085D1*
X2174119D2*
X2206951D1*
X2225354D2*
X2238083D1*
X1886698Y761449D2*
X1901581D1*
X1912930D2*
X1921035D1*
X1977200D2*
X2019199D1*
X2037200D2*
X2049200D1*
X2067200D2*
X2079200D1*
X2097200D2*
X2124200D1*
X2133599D2*
X2149172D1*
X2172200D2*
X2206201D1*
X2223811D2*
X2237689D1*
X1888057Y758449D2*
X1903352D1*
X1914534D2*
X1923545D1*
X1977200D2*
X2019200D1*
X2037200D2*
X2049200D1*
X2067200D2*
X2079200D1*
X2097200D2*
X2124200D1*
X2134970D2*
X2150213D1*
X2178012D2*
X2205683D1*
X2222046D2*
X2236853D1*
X1889604Y755449D2*
X1905290D1*
X1916326D2*
X1926345D1*
X1977200D2*
X2019200D1*
X2037200D2*
X2049200D1*
X2067200D2*
X2079200D1*
X2097200D2*
X2124200D1*
X2136170D2*
X2151265D1*
X2184200D2*
X2190664D1*
X2196200D2*
X2205392D1*
X2220109D2*
X2235584D1*
X1891461Y752449D2*
X1907230D1*
X1918345D2*
X1929377D1*
X1977200D2*
X2019200D1*
X2037200D2*
X2049200D1*
X2067200D2*
X2079200D1*
X2097200D2*
X2124200D1*
X2137576D2*
X2152609D1*
X2181086D2*
X2188407D1*
X2199200D2*
X2205200D1*
X2218169D2*
X2233843D1*
X1893674Y749449D2*
X1909310D1*
X1920750D2*
X1932845D1*
X1977200D2*
X2019200D1*
X2037200D2*
X2049200D1*
X2067200D2*
X2079200D1*
X2097200D2*
X2124200D1*
X2139200D2*
X2154200D1*
X2177690D2*
X2186184D1*
X2216090D2*
X2231578D1*
X1895949Y746449D2*
X1911737D1*
X1923546D2*
X1937052D1*
X2173865D2*
X2183698D1*
X2213663D2*
X2228940D1*
X1898091Y743449D2*
X1914541D1*
X1926801D2*
X1942047D1*
X2169702D2*
X2180871D1*
X2210859D2*
X2226099D1*
X1900366Y740449D2*
X1917788D1*
X1930580D2*
X1947674D1*
X2165331D2*
X2177605D1*
X2207612D2*
X2223163D1*
X1903202Y737449D2*
X1921463D1*
X1934827D2*
X1953961D1*
X2160667D2*
X2173822D1*
X2203937D2*
X2220187D1*
X1906634Y734449D2*
X1925328D1*
X1939573D2*
X1961107D1*
X2155287D2*
X2169573D1*
X2200072D2*
X2217184D1*
X1910284Y731449D2*
X1929343D1*
X1944953D2*
X1969215D1*
X2148587D2*
X2164839D1*
X2196057D2*
X2214081D1*
X1913871Y728449D2*
X1933836D1*
X1951100D2*
X1978565D1*
X2139974D2*
X2159553D1*
X2191564D2*
X2210688D1*
X1917617Y725449D2*
X1938950D1*
X1958277D2*
X1990064D1*
X2128402D2*
X2153682D1*
X2186450D2*
X2206853D1*
X1921849Y722449D2*
X1944524D1*
X1966723D2*
X2004585D1*
X2112861D2*
X2146818D1*
X2180876D2*
X2202584D1*
X1926516Y719449D2*
X1950450D1*
X1976655D2*
X2021795D1*
X2093810D2*
X2138218D1*
X2174950D2*
X2197843D1*
X1931432Y716449D2*
X1956873D1*
X1988346D2*
X2127347D1*
X2168527D2*
X2192578D1*
X1936841Y713449D2*
X1964074D1*
X2001795D2*
X2114330D1*
X2161326D2*
X2186928D1*
X1942967Y710449D2*
X1972180D1*
X2016200D2*
X2100200D1*
X2153209D2*
X2180970D1*
X1949556Y707449D2*
X1981362D1*
X2143933D2*
X2174534D1*
X1956558Y704449D2*
X1992437D1*
X2132587D2*
X2167329D1*
X1964496Y701449D2*
X2006862D1*
X2117882D2*
X2159236D1*
X1973793Y698449D2*
X2025363D1*
X2099514D2*
X2150266D1*
X1984245Y695449D2*
X2046200D1*
X2079200D2*
X2140460D1*
X1995200Y692449D2*
X2130200D1*
X2115700Y1096949D2*
X2108327Y1093949D1*
X2101571Y1090949D1*
X2095529Y1087949D1*
X2090171Y1084949D1*
X2085362Y1081949D1*
X2081073Y1078949D1*
X2077328Y1075949D1*
X2073973Y1072949D1*
X2070919Y1069949D1*
X2068237Y1066949D1*
X2065943Y1063949D1*
X2063809Y1060949D1*
X2061723Y1057949D1*
X2059824Y1054949D1*
X2058114Y1051949D1*
X2056514Y1048949D1*
X2054976Y1045949D1*
X2053469Y1042949D1*
X2052060Y1039949D1*
X2050844Y1036949D1*
X2049787Y1033949D1*
X2048729Y1030949D1*
X2047810Y1027949D1*
X2047225Y1024949D1*
X2046924Y1021949D1*
X2046788Y1018949D1*
X2046733Y1015949D1*
X2046712Y1012949D1*
X2046704Y1009949D1*
X2046701Y1006949D1*
X2046700Y1003949D1*
Y1000949D1*
Y997949D1*
Y994949D1*
Y991949D1*
Y988949D1*
Y985949D1*
Y982949D1*
X2046712Y979949D1*
X2046817Y976949D1*
X2047200Y973949D1*
X2047930Y970949D1*
X2048804Y967949D1*
X2049722Y964949D1*
X2050824Y961949D1*
X2052114Y958949D1*
X2053514Y955949D1*
X2054976Y952949D1*
X2056469Y949949D1*
X2058071Y946949D1*
X2059961Y943949D1*
X2062275Y940949D1*
X2064830Y937949D1*
X2067309Y934949D1*
X2069635Y931949D1*
X2072225Y928949D1*
X2075424Y925949D1*
X2079017Y922949D1*
X2082806Y919949D1*
X2086879Y916949D1*
X2091368Y913949D1*
X2096610Y910949D1*
X2102866Y907949D1*
X2109700Y904949D1*
X2175700Y1096949D2*
X2182971Y1093949D1*
X2189436Y1090949D1*
X2195047Y1087949D1*
X2200066Y1084949D1*
X2204691Y1081949D1*
X2208897Y1078949D1*
X2212692Y1075949D1*
X2216221Y1072949D1*
X2219428Y1069949D1*
X2222095Y1066949D1*
X2224432Y1063949D1*
X2226625Y1060949D1*
X2228657Y1057949D1*
X2230671Y1054949D1*
X2232707Y1051949D1*
X2234575Y1048949D1*
X2236172Y1045949D1*
X2237376Y1042949D1*
X2238089Y1039949D1*
X2238444Y1036949D1*
X2238600Y1033949D1*
X2238663Y1030949D1*
X2238687Y1027949D1*
X2238696Y1024949D1*
X2238699Y1021949D1*
X2238700Y1018949D1*
Y1015949D1*
Y1012949D1*
X2133700Y1081949D2*
X2124940Y1078949D1*
X2116838Y1075949D1*
X2109893Y1072949D1*
X2104137Y1069949D1*
X2099284Y1066949D1*
X2094955Y1063949D1*
X2090802Y1060949D1*
X2086948Y1057949D1*
X2083732Y1054949D1*
X2081156Y1051949D1*
X2078894Y1048949D1*
X2076743Y1045949D1*
X2074730Y1042949D1*
X2072736Y1039949D1*
X2070809Y1036949D1*
X2069324Y1033949D1*
X2068443Y1030949D1*
X2067987Y1027949D1*
X2067700Y1024949D1*
X2157700Y1081949D2*
X2166110Y1078949D1*
X2173853Y1075949D1*
X2180741Y1072949D1*
X2186728Y1069949D1*
X2191721Y1066949D1*
X2195818Y1063949D1*
X2199339Y1060949D1*
X2202562Y1057949D1*
X2205638Y1054949D1*
X2208565Y1051949D1*
X2211195Y1048949D1*
X2213468Y1045949D1*
X2215595Y1042949D1*
X2217678Y1039949D1*
X2219567Y1036949D1*
X2221199Y1033949D1*
X2222551Y1030949D1*
X2223700Y1027949D1*
X2206416Y1024949D1*
X2195152Y1021949D1*
X2187935Y1018949D1*
X2185853Y1015949D1*
X2185215Y1012949D1*
X2184902Y1009949D1*
X2184774Y1006949D1*
X2184726Y1003949D1*
X2184709Y1000949D1*
X2184703Y997949D1*
X2184701Y994949D1*
X2184700Y991949D1*
Y988949D1*
Y985949D1*
X2112700Y1024949D2*
X2115470Y1021949D1*
X2117521Y1018949D1*
X2118147Y1015949D1*
X2118460Y1012949D1*
X2118487Y1009949D1*
X2118079Y1006949D1*
X2117075Y1003949D1*
X2115700Y1000949D1*
X2117085Y997949D1*
X2117946Y994949D1*
X2118382Y991949D1*
X2118576Y988949D1*
X2118657Y985949D1*
X2118700Y982949D1*
X2139700Y1024949D2*
X2142700Y1021949D1*
X2140840Y1018949D1*
X2139129Y1015949D1*
X2137534Y1012949D1*
X2136085Y1009949D1*
X2134853Y1006949D1*
X2133779Y1003949D1*
X2132613Y1000949D1*
X2131299Y997949D1*
X2129890Y994949D1*
X2128435Y991949D1*
X2127030Y988949D1*
X2125786Y985949D1*
X2124700Y982949D1*
X2163700Y1024949D2*
X2164840Y1021949D1*
X2166117Y1018949D1*
X2167417Y1015949D1*
X2168585Y1012949D1*
X2169635Y1009949D1*
X2170792Y1006949D1*
X2172091Y1003949D1*
X2173405Y1000949D1*
X2174580Y997949D1*
X2175624Y994949D1*
X2176702Y991949D1*
X2177749Y988949D1*
X2178700Y985949D1*
X2061700Y1018949D2*
Y1015949D1*
Y1012949D1*
Y1009949D1*
Y1006949D1*
Y1003949D1*
Y1000949D1*
Y997949D1*
Y994949D1*
Y991949D1*
Y988949D1*
Y985949D1*
X2067700Y1018949D2*
Y1015949D1*
Y1012949D1*
Y1009949D1*
Y1006949D1*
Y1003949D1*
Y1000949D1*
Y997949D1*
Y994949D1*
Y991949D1*
Y988949D1*
Y985949D1*
X2085700Y1015949D2*
Y1012949D1*
Y1009949D1*
Y1006949D1*
X2100700Y1015949D2*
Y1012949D1*
Y1009949D1*
Y1006949D1*
X2202700Y1015949D2*
Y1012949D1*
Y1009949D1*
Y1006949D1*
Y1003949D1*
Y1000949D1*
Y997949D1*
Y994949D1*
Y991949D1*
Y988949D1*
Y985949D1*
X2226700Y1015949D2*
X2229700Y1012949D1*
X2142700Y1006949D2*
X2142148Y1003949D1*
X2141096Y1000949D1*
X2139700Y997949D1*
X2151700Y1006949D2*
X2152252Y1003949D1*
X2153304Y1000949D1*
X2154700Y997949D1*
X2085700D2*
Y994949D1*
Y991949D1*
Y988949D1*
Y985949D1*
X2100700Y997949D2*
Y994949D1*
Y991949D1*
Y988949D1*
Y985949D1*
X2232700Y988949D2*
X2229700Y985949D1*
X2238700Y988949D2*
Y985949D1*
Y982949D1*
Y979949D1*
Y976949D1*
Y973949D1*
Y970949D1*
Y967949D1*
X2238688Y964949D1*
X2238583Y961949D1*
X2238189Y958949D1*
X2237353Y955949D1*
X2236096Y952949D1*
X2234460Y949949D1*
X2232577Y946949D1*
X2230658Y943949D1*
X2228586Y940949D1*
X2226173Y937949D1*
X2223475Y934949D1*
X2220611Y931949D1*
X2217667Y928949D1*
X2214677Y925949D1*
X2211579Y922949D1*
X2208176Y919949D1*
X2204235Y916949D1*
X2199583Y913949D1*
X2194107Y910949D1*
X2188001Y907949D1*
X2181700Y904949D1*
X2133700Y988949D2*
Y985949D1*
Y982949D1*
Y979949D1*
Y976949D1*
Y973949D1*
X2154700Y988949D2*
X2157110Y985949D1*
X2158865Y982949D1*
X2159873Y979949D1*
X2160383Y976949D1*
X2160700Y973949D1*
X2112700Y976949D2*
X2109700Y973949D1*
X2115700Y976949D2*
X2118700Y973949D1*
X2187700Y976949D2*
X2184700Y973949D1*
X2163700Y976949D2*
X2193700Y973949D1*
X2223700Y970949D1*
X2222548Y967949D1*
X2221166Y964949D1*
X2219484Y961949D1*
X2217585Y958949D1*
X2215660Y955949D1*
X2213587Y952949D1*
X2211173Y949949D1*
X2208476Y946949D1*
X2205611Y943949D1*
X2202655Y940949D1*
X2199559Y937949D1*
X2196056Y934949D1*
X2191723Y931949D1*
X2186238Y928949D1*
X2179522Y925949D1*
X2171822Y922949D1*
X2163700Y919949D1*
X2067700Y973949D2*
X2068175Y970949D1*
X2069025Y967949D1*
X2070195Y964949D1*
X2071556Y961949D1*
X2073104Y958949D1*
X2074973Y955949D1*
X2077291Y952949D1*
X2079949Y949949D1*
X2082797Y946949D1*
X2085736Y943949D1*
X2088724Y940949D1*
X2091833Y937949D1*
X2095342Y934949D1*
X2099676Y931949D1*
X2105161Y928949D1*
X2111878Y925949D1*
X2119578Y922949D1*
X2127700Y919949D1*
X2007200Y884449D2*
X1994978Y881449D1*
X1983617Y878449D1*
X1973362Y875449D1*
X1964286Y872449D1*
X1956131Y869449D1*
X1948791Y866449D1*
X1942364Y863449D1*
X1936705Y860449D1*
X1931422Y857449D1*
X1926366Y854449D1*
X1921732Y851449D1*
X1917455Y848449D1*
X1913296Y845449D1*
X1909346Y842449D1*
X1905852Y839449D1*
X1902927Y836449D1*
X1900508Y833449D1*
X1898232Y830449D1*
X1895839Y827449D1*
X1893504Y824449D1*
X1891452Y821449D1*
X1889667Y818449D1*
X1888046Y815449D1*
X1886600Y812449D1*
X1885471Y809449D1*
X1884790Y806449D1*
X1884449Y803449D1*
X1884297Y800449D1*
X1884236Y797449D1*
X1884213Y794449D1*
X1884204Y791449D1*
X1884201Y788449D1*
X1884200Y785449D1*
Y782449D1*
Y779449D1*
Y776449D1*
X1884212Y773449D1*
X1884317Y770449D1*
X1884711Y767449D1*
X1885535Y764449D1*
X1886698Y761449D1*
X1888057Y758449D1*
X1889604Y755449D1*
X1891461Y752449D1*
X1893674Y749449D1*
X1895949Y746449D1*
X1898091Y743449D1*
X1900366Y740449D1*
X1903202Y737449D1*
X1906634Y734449D1*
X1910284Y731449D1*
X1913871Y728449D1*
X1917617Y725449D1*
X1921849Y722449D1*
X1926516Y719449D1*
X1931432Y716449D1*
X1936841Y713449D1*
X1942967Y710449D1*
X1949556Y707449D1*
X1956558Y704449D1*
X1964496Y701449D1*
X1973793Y698449D1*
X1984245Y695449D1*
X1995200Y692449D1*
X2115200Y884449D2*
X2128447Y881449D1*
X2140690Y878449D1*
X2151419Y875449D1*
X2160513Y872449D1*
X2168464Y869449D1*
X2175808Y866449D1*
X2182501Y863449D1*
X2188413Y860449D1*
X2193849Y857449D1*
X2198969Y854449D1*
X2203543Y851449D1*
X2207556Y848449D1*
X2211383Y845449D1*
X2215284Y842449D1*
X2219025Y839449D1*
X2222195Y836449D1*
X2224765Y833449D1*
X2227115Y830449D1*
X2229540Y827449D1*
X2231889Y824449D1*
X2233933Y821449D1*
X2235615Y818449D1*
X2236854Y815449D1*
X2237581Y812449D1*
X2237941Y809449D1*
X2238099Y806449D1*
X2238163Y803449D1*
X2238187Y800449D1*
X2238196Y797449D1*
X2238199Y794449D1*
X2238200Y791449D1*
Y788449D1*
Y785449D1*
Y782449D1*
Y779449D1*
Y776449D1*
Y773449D1*
Y770449D1*
X2238188Y767449D1*
X2238083Y764449D1*
X2237689Y761449D1*
X2236853Y758449D1*
X2235584Y755449D1*
X2233843Y752449D1*
X2231578Y749449D1*
X2228940Y746449D1*
X2226099Y743449D1*
X2223163Y740449D1*
X2220187Y737449D1*
X2217184Y734449D1*
X2214081Y731449D1*
X2210688Y728449D1*
X2206853Y725449D1*
X2202584Y722449D1*
X2197843Y719449D1*
X2192578Y716449D1*
X2186928Y713449D1*
X2180970Y710449D1*
X2174534Y707449D1*
X2167329Y704449D1*
X2159236Y701449D1*
X2150266Y698449D1*
X2140460Y695449D1*
X2130200Y692449D1*
X2070200Y881449D2*
X2045684Y878449D1*
X2024180Y875449D1*
X2006508Y872449D1*
X1992163Y869449D1*
X1980549Y866449D1*
X1971207Y863449D1*
X1963494Y860449D1*
X1956717Y857449D1*
X1950406Y854449D1*
X1944387Y851449D1*
X1938735Y848449D1*
X1933555Y845449D1*
X1928818Y842449D1*
X1924558Y839449D1*
X1920823Y836449D1*
X1917472Y833449D1*
X1914418Y830449D1*
X1911737Y827449D1*
X1909443Y824449D1*
X1907309Y821449D1*
X1905223Y818449D1*
X1903324Y815449D1*
X1901614Y812449D1*
X1900026Y809449D1*
X1898581Y806449D1*
X1897352Y803449D1*
X1896290Y800449D1*
X1895230Y797449D1*
X1894310Y794449D1*
X1893726Y791449D1*
X1893436Y788449D1*
X1893406Y785449D1*
X1893732Y782449D1*
X1894441Y779449D1*
X1895308Y776449D1*
X1896223Y773449D1*
X1897324Y770449D1*
X1898614Y767449D1*
X1900026Y764449D1*
X1901581Y761449D1*
X1903352Y758449D1*
X1905290Y755449D1*
X1907230Y752449D1*
X1909310Y749449D1*
X1911737Y746449D1*
X1914541Y743449D1*
X1917788Y740449D1*
X1921463Y737449D1*
X1925328Y734449D1*
X1929343Y731449D1*
X1933836Y728449D1*
X1938950Y725449D1*
X1944524Y722449D1*
X1950450Y719449D1*
X1956873Y716449D1*
X1964074Y713449D1*
X1972180Y710449D1*
X1981362Y707449D1*
X1992437Y704449D1*
X2006862Y701449D1*
X2025363Y698449D1*
X2046200Y695449D1*
X2055200Y881449D2*
X2079716Y878449D1*
X2101220Y875449D1*
X2118892Y872449D1*
X2133237Y869449D1*
X2144851Y866449D1*
X2154193Y863449D1*
X2161906Y860449D1*
X2168683Y857449D1*
X2174994Y854449D1*
X2181001Y851449D1*
X2186559Y848449D1*
X2191463Y845449D1*
X2195863Y842449D1*
X2200061Y839449D1*
X2203914Y836449D1*
X2207319Y833449D1*
X2209066Y830449D1*
X2208998Y827449D1*
X2207613Y824449D1*
X2206075Y821449D1*
X2204520Y818449D1*
X2202980Y815449D1*
X2201464Y812449D1*
X2199965Y809449D1*
X2198558Y806449D1*
X2197343Y803449D1*
X2196287Y800449D1*
X2195218Y797449D1*
X2194169Y794449D1*
X2192980Y791449D1*
X2191090Y788449D1*
X2188354Y785449D1*
X2185413Y782449D1*
X2182904Y779449D1*
X2180865Y776449D1*
X2179114Y773449D1*
X2177504Y770449D1*
X2175884Y767449D1*
X2174119Y764449D1*
X2172200Y761449D1*
X2178012Y758449D1*
X2184200Y755449D1*
X2181086Y752449D1*
X2177690Y749449D1*
X2173865Y746449D1*
X2169702Y743449D1*
X2165331Y740449D1*
X2160667Y737449D1*
X2155287Y734449D1*
X2148587Y731449D1*
X2139974Y728449D1*
X2128402Y725449D1*
X2112861Y722449D1*
X2093810Y719449D1*
X2073200Y716449D1*
X1956200Y839449D2*
X1953200Y836449D1*
X1950200Y833449D1*
X1947200Y830449D1*
X1926200Y836449D2*
X1927349Y833449D1*
X1928716Y830449D1*
X1930357Y827449D1*
X1932200Y824449D1*
X1926200Y821449D1*
X1929200Y818449D1*
X1924596Y815449D1*
X1919523Y812449D1*
X1914200Y809449D1*
X1929200Y806449D1*
X1925638Y803449D1*
X1922501Y800449D1*
X1919814Y797449D1*
X1917440Y794449D1*
X1915422Y791449D1*
X1913764Y788449D1*
X1912537Y785449D1*
X1911815Y782449D1*
X1911457Y779449D1*
X1911300Y776449D1*
X1911237Y773449D1*
X1911225Y770449D1*
X1911333Y767449D1*
X1911818Y764449D1*
X1912930Y761449D1*
X1914534Y758449D1*
X1916326Y755449D1*
X1918345Y752449D1*
X1920750Y749449D1*
X1923546Y746449D1*
X1926801Y743449D1*
X1930580Y740449D1*
X1934827Y737449D1*
X1939573Y734449D1*
X1944953Y731449D1*
X1951100Y728449D1*
X1958277Y725449D1*
X1966723Y722449D1*
X1976655Y719449D1*
X1988346Y716449D1*
X2001795Y713449D1*
X2016200Y710449D1*
X1956200Y836449D2*
X1955051Y833449D1*
X1953684Y830449D1*
X1952043Y827449D1*
X1950200Y824449D1*
X1956200Y821449D1*
X1953200Y818449D1*
X1957804Y815449D1*
X1962877Y812449D1*
X1968200Y809449D1*
X1929200Y833449D2*
X1932200Y830449D1*
X1941200Y833449D2*
Y830449D1*
X2211200Y824449D2*
Y821449D1*
X2211188Y818449D1*
X2211083Y815449D1*
X2210700Y812449D1*
X2209982Y809449D1*
X2209213Y806449D1*
X2208678Y803449D1*
X2208294Y800449D1*
X2207785Y797449D1*
X2207013Y794449D1*
X2206224Y791449D1*
X2205705Y788449D1*
X2205530Y785449D1*
X2205784Y782449D1*
X2206450Y779449D1*
X2207198Y776449D1*
X2207703Y773449D1*
X2207873Y770449D1*
X2207617Y767449D1*
X2206951Y764449D1*
X2206201Y761449D1*
X2205683Y758449D1*
X2205392Y755449D1*
X2205200Y752449D1*
X2217200Y827449D2*
X2217778Y824449D1*
X2218918Y821449D1*
X2220519Y818449D1*
X2222208Y815449D1*
X2223834Y812449D1*
X2225391Y809449D1*
X2226813Y806449D1*
X2227945Y803449D1*
X2228728Y800449D1*
X2229451Y797449D1*
X2230321Y794449D1*
X2231140Y791449D1*
X2231581Y788449D1*
X2231485Y785449D1*
X2230896Y782449D1*
X2230169Y779449D1*
X2229561Y776449D1*
X2228896Y773449D1*
X2227948Y770449D1*
X2226733Y767449D1*
X2225354Y764449D1*
X2223811Y761449D1*
X2222046Y758449D1*
X2220109Y755449D1*
X2218169Y752449D1*
X2216090Y749449D1*
X2213663Y746449D1*
X2210859Y743449D1*
X2207612Y740449D1*
X2203937Y737449D1*
X2200072Y734449D1*
X2196057Y731449D1*
X2191564Y728449D1*
X2186450Y725449D1*
X2180876Y722449D1*
X2174950Y719449D1*
X2168527Y716449D1*
X2161326Y713449D1*
X2153209Y710449D1*
X2143933Y707449D1*
X2132587Y704449D1*
X2117882Y701449D1*
X2099514Y698449D1*
X2079200Y695449D1*
X1977200Y815449D2*
Y812449D1*
Y809449D1*
Y806449D1*
Y803449D1*
Y800449D1*
X1977223Y797449D1*
X1977470Y794449D1*
X1978067Y791449D1*
X1980739Y788449D1*
X1986369Y785449D1*
X1992787Y782449D1*
X1998694Y779449D1*
X2003576Y776449D1*
X2005755Y773449D1*
X2006531Y770449D1*
X2006945Y767449D1*
X2007200Y764449D1*
X2154200Y815449D2*
Y812449D1*
Y809449D1*
Y806449D1*
Y803449D1*
Y800449D1*
Y797449D1*
X2154188Y794449D1*
X2154071Y791449D1*
X2153560Y788449D1*
X2152589Y785449D1*
X2149870Y782449D1*
X2146290Y779449D1*
X2142200Y776449D1*
X2144048Y773449D1*
X2145666Y770449D1*
X2146984Y767449D1*
X2148085Y764449D1*
X2149172Y761449D1*
X2150213Y758449D1*
X2151265Y755449D1*
X2152609Y752449D1*
X2154200Y749449D1*
X1929200Y812449D2*
X1926200Y809449D1*
X1935200Y812449D2*
X1932097Y809449D1*
X1928818Y806449D1*
X1925482Y803449D1*
X1922443Y800449D1*
X1919794Y797449D1*
X1917433Y794449D1*
X1915420Y791449D1*
X1913763Y788449D1*
X1912537Y785449D1*
X1911815Y782449D1*
X1911457Y779449D1*
X1911300Y776449D1*
X1911237Y773449D1*
X1911225Y770449D1*
X1911333Y767449D1*
X1911818Y764449D1*
X1912930Y761449D1*
X1914534Y758449D1*
X1916326Y755449D1*
X1918345Y752449D1*
X1920750Y749449D1*
X1923546Y746449D1*
X1926801Y743449D1*
X1930580Y740449D1*
X1934827Y737449D1*
X1939573Y734449D1*
X1944953Y731449D1*
X1951100Y728449D1*
X1958277Y725449D1*
X1966723Y722449D1*
X1976655Y719449D1*
X1988346Y716449D1*
X2001795Y713449D1*
X2016200Y710449D1*
X1950200Y812449D2*
X1949261Y809449D1*
X1947668Y806449D1*
X1945732Y803449D1*
X1943962Y800449D1*
X1942627Y797449D1*
X1941793Y794449D1*
X1941200Y791449D1*
X1953200Y812449D2*
X1956200Y809449D1*
X1935200Y806449D2*
X1932212Y803449D1*
X1929317Y800449D1*
X1926711Y797449D1*
X1924535Y794449D1*
X1922698Y791449D1*
X1921057Y788449D1*
X1919604Y785449D1*
X1918473Y782449D1*
X1917791Y779449D1*
X1917449Y776449D1*
X1917309Y773449D1*
X1917365Y770449D1*
X1917841Y767449D1*
X1919051Y764449D1*
X1921035Y761449D1*
X1923545Y758449D1*
X1926345Y755449D1*
X1929377Y752449D1*
X1932845Y749449D1*
X1937052Y746449D1*
X1942047Y743449D1*
X1947674Y740449D1*
X1953961Y737449D1*
X1961107Y734449D1*
X1969215Y731449D1*
X1978565Y728449D1*
X1990064Y725449D1*
X2004585Y722449D1*
X2021795Y719449D1*
X2040200Y716449D1*
X1935200Y806449D2*
X1937610Y803449D1*
X1939365Y800449D1*
X1940373Y797449D1*
X1940883Y794449D1*
X1941200Y791449D1*
X1989200Y806449D2*
X1989578Y803449D1*
X1990430Y800449D1*
X1994552Y797449D1*
X2000390Y794449D1*
X2006836Y791449D1*
X2012274Y788449D1*
X2016458Y785449D1*
X2017886Y782449D1*
X2018647Y779449D1*
X2018986Y776449D1*
X2019122Y773449D1*
X2019173Y770449D1*
X2019191Y767449D1*
X2019197Y764449D1*
X2019199Y761449D1*
X2019200Y758449D1*
Y755449D1*
Y752449D1*
Y749449D1*
X2007200Y806449D2*
Y803449D1*
Y800449D1*
Y797449D1*
X2019200Y806449D2*
Y803449D1*
Y800449D1*
Y797449D1*
X2037200Y806449D2*
Y803449D1*
Y800449D1*
Y797449D1*
Y794449D1*
Y791449D1*
Y788449D1*
Y785449D1*
Y782449D1*
Y779449D1*
Y776449D1*
Y773449D1*
Y770449D1*
Y767449D1*
Y764449D1*
Y761449D1*
Y758449D1*
Y755449D1*
Y752449D1*
Y749449D1*
X2049200Y806449D2*
Y803449D1*
Y800449D1*
Y797449D1*
Y794449D1*
Y791449D1*
Y788449D1*
Y785449D1*
Y782449D1*
Y779449D1*
Y776449D1*
Y773449D1*
Y770449D1*
Y767449D1*
Y764449D1*
Y761449D1*
Y758449D1*
Y755449D1*
Y752449D1*
Y749449D1*
X2067200Y806449D2*
Y803449D1*
Y800449D1*
Y797449D1*
Y794449D1*
Y791449D1*
Y788449D1*
Y785449D1*
Y782449D1*
Y779449D1*
Y776449D1*
Y773449D1*
Y770449D1*
Y767449D1*
Y764449D1*
Y761449D1*
Y758449D1*
Y755449D1*
Y752449D1*
Y749449D1*
X2079200Y806449D2*
Y803449D1*
Y800449D1*
Y797449D1*
Y794449D1*
X2097200Y806449D2*
Y803449D1*
Y800449D1*
Y797449D1*
Y794449D1*
X2124200Y806449D2*
Y803449D1*
Y800449D1*
Y797449D1*
Y794449D1*
Y791449D1*
Y788449D1*
Y785449D1*
X2142200Y806449D2*
Y803449D1*
X2142177Y800449D1*
X2141942Y797449D1*
X2141380Y794449D1*
X2138639Y791449D1*
X2134720Y788449D1*
X2130200Y785449D1*
X2079200Y782449D2*
Y779449D1*
Y776449D1*
Y773449D1*
Y770449D1*
Y767449D1*
Y764449D1*
Y761449D1*
Y758449D1*
Y755449D1*
Y752449D1*
Y749449D1*
X2097200Y782449D2*
Y779449D1*
Y776449D1*
Y773449D1*
Y770449D1*
Y767449D1*
Y764449D1*
Y761449D1*
Y758449D1*
Y755449D1*
Y752449D1*
Y749449D1*
X1977200Y767449D2*
Y764449D1*
Y761449D1*
Y758449D1*
Y755449D1*
Y752449D1*
Y749449D1*
X1989200Y767449D2*
Y764449D1*
X2124200Y770449D2*
Y767449D1*
Y764449D1*
Y761449D1*
Y758449D1*
Y755449D1*
Y752449D1*
Y749449D1*
X2127200Y770449D2*
X2129725Y767449D1*
X2131864Y764449D1*
X2133599Y761449D1*
X2134970Y758449D1*
X2136170Y755449D1*
X2137576Y752449D1*
X2139200Y749449D1*
X2193200Y758449D2*
X2190664Y755449D1*
X2188407Y752449D1*
X2186184Y749449D1*
X2183698Y746449D1*
X2180871Y743449D1*
X2177605Y740449D1*
X2173822Y737449D1*
X2169573Y734449D1*
X2164839Y731449D1*
X2159553Y728449D1*
X2153682Y725449D1*
X2146818Y722449D1*
X2138218Y719449D1*
X2127347Y716449D1*
X2114330Y713449D1*
X2100200Y710449D1*
X2193200Y758449D2*
X2196200Y755449D1*
X2199200Y752449D1*
X1167148Y1675783D2*
D97*
X1164771Y1680536D1*
X1159963Y1685344D1*
X1155209Y1687721D1*
X1145648D1*
X1140839Y1685344D1*
X1136086Y1680536D1*
X1133654Y1675783D1*
X1131278Y1668598D1*
Y1656604D1*
X1133654Y1649474D1*
X1136086Y1644666D1*
X1140839Y1639913D1*
X1145648Y1637481D1*
X1155209D1*
X1159963Y1639913D1*
X1164771Y1644666D1*
X1167148Y1649474D1*
X1211272Y1687666D2*
X1187395D1*
X1185019Y1666166D1*
X1187395Y1668542D1*
X1194580Y1670974D1*
X1201710D1*
X1208895Y1668542D1*
X1213704Y1663789D1*
X1216080Y1656604D1*
Y1651851D1*
X1213704Y1644666D1*
X1208895Y1639858D1*
X1201710Y1637481D1*
X1194580D1*
X1187395Y1639858D1*
X1185019Y1642289D1*
X1182587Y1647043D1*
X1105010Y1194713D2*
X1102633Y1199466D1*
X1097825Y1204275D1*
X1093072Y1206651D1*
X1083510D1*
X1078702Y1204275D1*
X1073948Y1199466D1*
X1071517Y1194713D1*
X1069140Y1187528D1*
Y1175535D1*
X1071517Y1168405D1*
X1073948Y1163596D1*
X1078702Y1158843D1*
X1083510Y1156411D1*
X1093072D1*
X1097825Y1158843D1*
X1102633Y1163596D1*
X1105010Y1168405D1*
X1132387Y1206596D2*
X1125258Y1204220D1*
X1122826Y1199466D1*
Y1194658D1*
X1125258Y1189905D1*
X1130011Y1187473D1*
X1139572Y1185096D1*
X1146757Y1182720D1*
X1151511Y1177911D1*
X1153887Y1173158D1*
Y1165973D1*
X1151511Y1161220D1*
X1149134Y1158788D1*
X1141949Y1156411D1*
X1132387D1*
X1125258Y1158788D1*
X1122826Y1161220D1*
X1120449Y1165973D1*
Y1173158D1*
X1122826Y1177911D1*
X1127634Y1182720D1*
X1134764Y1185096D1*
X1144326Y1187473D1*
X1149134Y1189905D1*
X1151511Y1194658D1*
Y1199466D1*
X1149134Y1204220D1*
X1141949Y1206596D1*
X1132387D1*
X1343652Y1282204D2*
X1341276Y1286957D1*
X1336467Y1291766D1*
X1331714Y1294142D1*
X1322152D1*
X1317344Y1291766D1*
X1312591Y1286957D1*
X1310159Y1282204D1*
X1307782Y1275019D1*
Y1263025D1*
X1310159Y1255896D1*
X1312591Y1251087D1*
X1317344Y1246334D1*
X1322152Y1243902D1*
X1331714D1*
X1336467Y1246334D1*
X1341276Y1251087D1*
X1343652Y1255896D1*
X1390208Y1277396D2*
X1387776Y1270211D1*
X1383023Y1265402D1*
X1375838Y1263025D1*
X1373462D1*
X1366277Y1265402D1*
X1361523Y1270211D1*
X1359091Y1277396D1*
Y1279772D1*
X1361523Y1286957D1*
X1366277Y1291710D1*
X1373462Y1294087D1*
X1375838D1*
X1383023Y1291710D1*
X1387776Y1286957D1*
X1390208Y1277396D1*
Y1265402D1*
X1387776Y1253464D1*
X1383023Y1246279D1*
X1375838Y1243902D1*
X1371085D1*
X1363900Y1246279D1*
X1361523Y1251087D1*
X1744402Y1062178D2*
X1742026Y1066931D1*
X1737217Y1071739D1*
X1732464Y1074116D1*
X1722903D1*
X1718094Y1071739D1*
X1713341Y1066931D1*
X1710909Y1062178D1*
X1708533Y1054993D1*
Y1042999D1*
X1710909Y1035869D1*
X1713341Y1031061D1*
X1718094Y1026308D1*
X1722903Y1023876D1*
X1732464D1*
X1737217Y1026308D1*
X1742026Y1031061D1*
X1744402Y1035869D1*
X1759842Y1064499D2*
X1764650Y1066931D1*
X1771835Y1074061D1*
Y1023876D1*
X1815959Y1074061D2*
X1792083D1*
X1789706Y1052561D1*
X1792083Y1054937D1*
X1799268Y1057369D1*
X1806398D1*
X1813583Y1054937D1*
X1818391Y1050184D1*
X1820768Y1042999D1*
Y1038246D1*
X1818391Y1031061D1*
X1813583Y1026253D1*
X1806398Y1023876D1*
X1799268D1*
X1792083Y1026253D1*
X1789706Y1028684D1*
X1787274Y1033438D1*
X1101229Y1455919D2*
X1098853Y1460672D1*
X1094044Y1465481D1*
X1089291Y1467857D1*
X1079729D1*
X1074921Y1465481D1*
X1070168Y1460672D1*
X1067736Y1455919D1*
X1065359Y1448734D1*
Y1436741D1*
X1067736Y1429611D1*
X1070168Y1424802D1*
X1074921Y1420049D1*
X1079729Y1417617D1*
X1089291D1*
X1094044Y1420049D1*
X1098853Y1424802D1*
X1101229Y1429611D1*
X1119100Y1455864D2*
Y1458241D1*
X1121477Y1463049D1*
X1123854Y1465426D1*
X1128662Y1467802D1*
X1138224D1*
X1142977Y1465426D1*
X1145353Y1463049D1*
X1147785Y1458241D1*
Y1453487D1*
X1145353Y1448679D1*
X1140600Y1441549D1*
X1116669Y1417617D1*
X1150162D1*
X1189533D2*
Y1467802D1*
X1165601Y1434364D1*
X1201471D1*
X1986587Y1607671D2*
Y1557431D1*
X2003333D1*
X2010518Y1559863D1*
X2015327Y1564616D1*
X2017704Y1569425D1*
X2020080Y1576554D1*
Y1588548D1*
X2017704Y1595733D1*
X2015327Y1600486D1*
X2010518Y1605295D1*
X2003333Y1607671D1*
X1986587D1*
X2040328Y1607616D2*
X2066581D1*
X2052266Y1588493D1*
X2059451D1*
X2064204Y1586116D1*
X2066581Y1583739D1*
X2069013Y1576554D1*
Y1571801D1*
X2066581Y1564616D1*
X2061828Y1559808D1*
X2054643Y1557431D1*
X2047458D1*
X2040328Y1559808D1*
X2037951Y1562240D1*
X2035519Y1566993D1*
X1030879Y1729254D2*
Y1691007D1*
X1028503Y1683822D1*
X1026071Y1681446D1*
X1021318Y1679014D1*
X1016509D1*
X1011756Y1681446D1*
X1009380Y1683822D1*
X1006948Y1691007D1*
Y1695760D1*
X1051127Y1729199D2*
X1077380D1*
X1063065Y1710075D1*
X1070250D1*
X1075003Y1707699D1*
X1077380Y1705322D1*
X1079812Y1698137D1*
Y1693384D1*
X1077380Y1686199D1*
X1072627Y1681390D1*
X1065442Y1679014D1*
X1058257D1*
X1051127Y1681390D1*
X1048750Y1683822D1*
X1046319Y1688575D1*
X711284Y1166934D2*
Y1128687D1*
X708908Y1121502D1*
X706476Y1119125D1*
X701723Y1116694D1*
X696914D1*
X692161Y1119125D1*
X689784Y1121502D1*
X687353Y1128687D1*
Y1133440D1*
X750655Y1116694D2*
Y1166878D1*
X726723Y1133440D1*
X762593D1*
X1200828Y2072968D2*
Y2034721D1*
X1198451Y2027536D1*
X1196019Y2025160D1*
X1191266Y2022728D1*
X1186457D1*
X1181704Y2025160D1*
X1179328Y2027536D1*
X1176896Y2034721D1*
Y2039474D1*
X1244952Y2065783D2*
X1242575Y2070536D1*
X1235390Y2072912D1*
X1230637D1*
X1223452Y2070536D1*
X1218643Y2063351D1*
X1216267Y2051413D1*
Y2039474D1*
X1218643Y2029913D1*
X1223452Y2025104D1*
X1230637Y2022728D1*
X1233013D1*
X1240143Y2025104D1*
X1244952Y2029913D1*
X1247328Y2037098D1*
Y2039474D1*
X1244952Y2046659D1*
X1240143Y2051413D1*
X1233013Y2053789D1*
X1230637D1*
X1223452Y2051413D1*
X1218643Y2046659D1*
X1216267Y2039474D1*
X1114708Y1098432D2*
Y1048192D1*
X1143393D1*
X1158832Y1088815D2*
X1163641Y1091247D1*
X1170826Y1098377D1*
Y1048192D1*
X837308Y1326455D2*
X858808D1*
X865993Y1328886D1*
X868425Y1331263D1*
X870801Y1336016D1*
Y1340825D1*
X868425Y1345578D1*
X865993Y1348010D1*
X858808Y1350386D1*
X837308D1*
Y1300146D1*
X854054Y1326455D2*
X870801Y1300146D1*
X886240Y1340769D2*
X891049Y1343201D1*
X898234Y1350331D1*
Y1300146D1*
X951555Y1401447D2*
X973055D1*
X980240Y1403879D1*
X982672Y1406255D1*
X985049Y1411008D1*
Y1415817D1*
X982672Y1420570D1*
X980240Y1423002D1*
X973055Y1425378D1*
X951555D1*
Y1375138D1*
X968302Y1401447D2*
X985049Y1375138D1*
X1002920Y1413385D2*
Y1415762D1*
X1005296Y1420570D1*
X1007673Y1422947D1*
X1012481Y1425323D1*
X1022043D1*
X1026796Y1422947D1*
X1029173Y1420570D1*
X1031605Y1415762D1*
Y1411008D1*
X1029173Y1406200D1*
X1024420Y1399070D1*
X1000488Y1375138D1*
X1033981D1*
X1318474Y1645237D2*
Y1666737D1*
X1316042Y1673922D1*
X1313666Y1676354D1*
X1308913Y1678731D1*
X1304104D1*
X1299351Y1676354D1*
X1296919Y1673922D1*
X1294543Y1666737D1*
Y1645237D1*
X1344783D1*
X1318474Y1661984D2*
X1344783Y1678730D1*
X1301728Y1722855D2*
X1296974Y1720478D1*
X1294598Y1713293D1*
Y1708540D1*
X1296974Y1701355D1*
X1304160Y1696546D1*
X1316098Y1694170D1*
X1328036D1*
X1337598Y1696546D1*
X1342406Y1701355D1*
X1344783Y1708540D1*
Y1710916D1*
X1342406Y1718046D1*
X1337598Y1722855D1*
X1330413Y1725231D1*
X1328036D1*
X1320851Y1722855D1*
X1316098Y1718046D1*
X1313721Y1710916D1*
Y1708540D1*
X1316098Y1701355D1*
X1320851Y1696546D1*
X1328036Y1694170D1*
X937822Y978284D2*
X959322D1*
X966507Y980716D1*
X968939Y983092D1*
X971315Y987846D1*
Y992654D1*
X968939Y997407D1*
X966507Y999839D1*
X959322Y1002216D1*
X937822D1*
Y951976D1*
X954569Y978284D2*
X971315Y951976D1*
X986754Y992599D2*
X991563Y995031D1*
X998748Y1002160D1*
Y951976D1*
X1018996Y1002160D2*
X1045249D1*
X1030934Y983037D1*
X1038119D1*
X1042872Y980661D1*
X1045249Y978284D1*
X1047681Y971099D1*
Y966346D1*
X1045249Y959161D1*
X1040495Y954352D1*
X1033310Y951976D1*
X1026125D1*
X1018996Y954352D1*
X1016619Y956784D1*
X1014187Y961537D1*
X1796048Y1525175D2*
X1817548D1*
X1824733Y1527607D1*
X1827165Y1529984D1*
X1829542Y1534737D1*
Y1539545D1*
X1827165Y1544298D1*
X1824733Y1546730D1*
X1817548Y1549107D1*
X1796048D1*
Y1498867D1*
X1812795Y1525175D2*
X1829542Y1498867D1*
X1844981Y1539490D2*
X1849789Y1541922D1*
X1856974Y1549052D1*
Y1498867D1*
X1896345D2*
Y1549052D1*
X1872414Y1515613D1*
X1908284D1*
X1884727Y1318941D2*
X1906227D1*
X1913412Y1321373D1*
X1915844Y1323750D1*
X1918221Y1328503D1*
Y1333312D1*
X1915844Y1338065D1*
X1913412Y1340497D1*
X1906227Y1342873D1*
X1884727D1*
Y1292633D1*
X1901474Y1318941D2*
X1918221Y1292633D1*
X1933660Y1333256D2*
X1938468Y1335688D1*
X1945653Y1342818D1*
Y1292633D1*
X1989778Y1342818D2*
X1965901D1*
X1963525Y1321318D1*
X1965901Y1323695D1*
X1973086Y1326127D1*
X1980216D1*
X1987401Y1323695D1*
X1992209Y1318941D1*
X1994586Y1311756D1*
Y1307003D1*
X1992209Y1299818D1*
X1987401Y1295010D1*
X1980216Y1292633D1*
X1973086D1*
X1965901Y1295010D1*
X1963525Y1297442D1*
X1961093Y1302195D1*
X2120288Y1407711D2*
X2141788D1*
X2148973Y1410142D1*
X2151405Y1412519D1*
X2153782Y1417272D1*
Y1422081D1*
X2151405Y1426834D1*
X2148973Y1429266D1*
X2141788Y1431642D1*
X2120288D1*
Y1381402D1*
X2137035Y1407711D2*
X2153782Y1381402D1*
X2169221Y1422025D2*
X2174029Y1424457D1*
X2181215Y1431587D1*
Y1381402D1*
X2225339Y1424457D2*
X2222962Y1429210D1*
X2215777Y1431587D1*
X2211024D1*
X2203839Y1429210D1*
X2199030Y1422025D1*
X2196654Y1410087D1*
Y1398149D1*
X2199030Y1388587D1*
X2203839Y1383779D1*
X2211024Y1381402D1*
X2213400D1*
X2220530Y1383779D1*
X2225339Y1388587D1*
X2227715Y1395772D1*
Y1398149D1*
X2225339Y1405334D1*
X2220530Y1410087D1*
X2213400Y1412464D1*
X2211024D1*
X2203839Y1410087D1*
X2199030Y1405334D1*
X2196654Y1398149D1*
X1880973Y1561556D2*
Y1583055D1*
X1878541Y1590240D1*
X1876165Y1592672D1*
X1871411Y1595049D1*
X1866603D1*
X1861850Y1592672D1*
X1859418Y1590240D1*
X1857041Y1583055D1*
Y1561556D1*
X1907281D1*
X1880973Y1578302D2*
X1907281Y1595049D1*
X1866658Y1610488D2*
X1864226Y1615297D1*
X1857097Y1622482D1*
X1907281D1*
Y1647482D2*
X1857097Y1671414D1*
Y1637921D1*
X1035628Y1886470D2*
X1030875Y1891279D1*
X1023690Y1893655D1*
X1014128D1*
X1006943Y1891279D1*
X1002135Y1886470D1*
Y1881717D1*
X1004566Y1876909D1*
X1006943Y1874532D1*
X1011696Y1872156D1*
X1026066Y1867347D1*
X1030875Y1864970D1*
X1033251Y1862539D1*
X1035628Y1857785D1*
Y1850600D1*
X1030875Y1845847D1*
X1023690Y1843415D1*
X1014128D1*
X1006943Y1845847D1*
X1002135Y1850600D1*
X1051067Y1884038D2*
X1055876Y1886470D1*
X1063061Y1893600D1*
Y1843415D1*
X473581Y916880D2*
X468828Y921688D1*
X461643Y924065D1*
X452082D1*
X444897Y921688D1*
X440088Y916880D1*
Y912127D1*
X442520Y907318D1*
X444897Y904942D1*
X449650Y902565D1*
X464020Y897757D1*
X468828Y895380D1*
X471205Y892948D1*
X473581Y888195D1*
Y881010D1*
X468828Y876257D1*
X461643Y873825D1*
X452082D1*
X444897Y876257D1*
X440088Y881010D1*
X491453Y912071D2*
Y914448D1*
X493829Y919256D1*
X496206Y921633D1*
X501014Y924010D1*
X510576D1*
X515329Y921633D1*
X517706Y919256D1*
X520137Y914448D1*
Y909695D1*
X517706Y904886D1*
X512952Y897757D1*
X489021Y873825D1*
X522514D1*
X1508358Y1684049D2*
Y1648179D1*
X1510734Y1640994D1*
X1515543Y1636241D1*
X1522728Y1633809D1*
X1527481D1*
X1534666Y1636241D1*
X1539474Y1640994D1*
X1541851Y1648179D1*
Y1684049D1*
X1557290Y1674432D2*
X1562099Y1676864D1*
X1569284Y1683994D1*
Y1633809D1*
X1942054Y1529915D2*
Y1494045D1*
X1944431Y1486860D1*
X1949239Y1482107D1*
X1956424Y1479675D1*
X1961177D1*
X1968362Y1482107D1*
X1973171Y1486860D1*
X1975547Y1494045D1*
Y1529915D1*
X1993418Y1517922D2*
Y1520298D1*
X1995795Y1525107D1*
X1998172Y1527483D1*
X2002980Y1529860D1*
X2012542D1*
X2017295Y1527483D1*
X2019671Y1525107D1*
X2022103Y1520298D1*
Y1515545D1*
X2019671Y1510737D1*
X2014918Y1503607D1*
X1990987Y1479675D1*
X2024480D1*
X503826Y1362411D2*
Y1326541D1*
X506203Y1319356D1*
X511011Y1314603D1*
X518196Y1312171D1*
X522950D1*
X530135Y1314603D1*
X534943Y1319356D1*
X537320Y1326541D1*
Y1362411D1*
X581444Y1355226D2*
X579067Y1359979D1*
X571882Y1362356D1*
X567129D1*
X559944Y1359979D1*
X555136Y1352794D1*
X552759Y1340856D1*
Y1328918D1*
X555136Y1319356D1*
X559944Y1314548D1*
X567129Y1312171D1*
X569506D1*
X576635Y1314548D1*
X581444Y1319356D1*
X583820Y1326541D1*
Y1328918D1*
X581444Y1336103D1*
X576635Y1340856D1*
X569506Y1343233D1*
X567129D1*
X559944Y1340856D1*
X555136Y1336103D1*
X552759Y1328918D1*
X2077478Y2079435D2*
Y2043565D1*
X2079854Y2036380D1*
X2084663Y2031627D1*
X2091848Y2029195D1*
X2096601D1*
X2103786Y2031627D1*
X2108595Y2036380D1*
X2110971Y2043565D1*
Y2079435D1*
X2135972Y2029195D2*
X2159904Y2079380D1*
X2126410D1*
X993386Y554940D2*
D98*
Y454460D1*
X1036496D1*
X1050866Y459324D1*
X1055619Y464077D1*
X1060372Y473583D1*
Y487953D1*
X1055619Y497570D1*
X1050866Y502324D1*
X1036496Y507077D1*
X1050866Y511940D1*
X1055619Y516694D1*
X1060372Y526200D1*
Y535817D1*
X1055619Y545323D1*
X1050866Y550187D1*
X1036496Y554940D1*
X993386D1*
Y507077D2*
X1036496D1*
X1091251Y554940D2*
Y454460D1*
X1148620D1*
X1256103D2*
X1217745Y554940D1*
X1179499Y454460D1*
X1193869Y487953D2*
X1241732D1*
X1358721Y531064D2*
X1353968Y540570D1*
X1344351Y550187D1*
X1334844Y554940D1*
X1315721D1*
X1306104Y550187D1*
X1296598Y540570D1*
X1291734Y531064D1*
X1286981Y516694D1*
Y492707D1*
X1291734Y478447D1*
X1296598Y468830D1*
X1306104Y459324D1*
X1315721Y454460D1*
X1334844D1*
X1344351Y459324D1*
X1353968Y468830D1*
X1358721Y478447D1*
X1389599Y554940D2*
Y454460D1*
X1456586Y554940D2*
X1389599Y487953D1*
X1413476Y511940D2*
X1456586Y454460D1*
X1487465Y554940D2*
Y454460D1*
X1530575D1*
X1544945Y459324D1*
X1549698Y464077D1*
X1554451Y473583D1*
Y487953D1*
X1549698Y497570D1*
X1544945Y502324D1*
X1530575Y507077D1*
X1544945Y511940D1*
X1549698Y516694D1*
X1554451Y526200D1*
Y535817D1*
X1549698Y545323D1*
X1544945Y550187D1*
X1530575Y554940D1*
X1487465D1*
Y507077D2*
X1530575D1*
X1614070Y554940D2*
X1604453Y550187D1*
X1594947Y540570D1*
X1590083Y531064D1*
X1585330Y516694D1*
Y492707D1*
X1590083Y478447D1*
X1594947Y468830D1*
X1604453Y459324D1*
X1614070Y454460D1*
X1633193D1*
X1642699Y459324D1*
X1652316Y468830D1*
X1657070Y478447D1*
X1661823Y492707D1*
Y516694D1*
X1657070Y531064D1*
X1652316Y540570D1*
X1642699Y550187D1*
X1633193Y554940D1*
X1614070D1*
X1692701D2*
X1759688Y454460D1*
Y554940D2*
X1692701Y454460D1*
X2022779Y2013634D2*
D99*
Y1996390D1*
X2024681Y1990686D1*
X2026626Y1988741D1*
X2030429Y1986840D1*
X2036177D1*
X2039979Y1988741D1*
X2041925Y1990686D1*
X2043826Y1996390D1*
Y2013634D1*
X2003634D1*
X2024681Y1974488D2*
Y1957288D1*
X2026626Y1951540D1*
X2028527Y1949595D1*
X2032330Y1947694D1*
X2036177D1*
X2039979Y1949595D1*
X2041925Y1951540D1*
X2043826Y1957288D1*
Y1974488D1*
X2003634D1*
X2024681Y1961091D2*
X2003634Y1947694D1*
X2043826Y1923846D2*
X2041925Y1927693D1*
X2038078Y1931496D1*
X2034275Y1933441D1*
X2028527Y1935342D1*
X2018933D1*
X2013229Y1933441D1*
X2009382Y1931496D1*
X2005579Y1927693D1*
X2003634Y1923846D1*
Y1916197D1*
X2005579Y1912394D1*
X2009382Y1908548D1*
X2013229Y1906646D1*
X2018933Y1904745D1*
X2028527D1*
X2034275Y1906646D1*
X2038078Y1908548D1*
X2041925Y1912394D1*
X2043826Y1916197D1*
Y1923846D1*
X2034275Y1863698D2*
X2038078Y1865599D1*
X2041925Y1869446D1*
X2043826Y1873248D1*
Y1880898D1*
X2041925Y1884744D1*
X2038078Y1888547D1*
X2034275Y1890492D1*
X2028527Y1892394D1*
X2018933D1*
X2013229Y1890492D1*
X2009382Y1888547D1*
X2005579Y1884744D1*
X2003634Y1880898D1*
Y1873248D1*
X2005579Y1869446D1*
X2009382Y1865599D1*
X2013229Y1863698D1*
X2018933D1*
Y1873248D1*
X993459Y599352D2*
D100*
Y579256D1*
X1006856Y599352D2*
Y579256D1*
X993459Y589780D2*
X1006856D1*
X1018780Y599352D2*
X1016857Y598402D1*
X1014956Y596478D1*
X1013983Y594577D1*
X1013032Y591703D1*
Y586906D1*
X1013983Y584054D1*
X1014956Y582130D1*
X1016857Y580229D1*
X1018780Y579256D1*
X1022605D1*
X1024506Y580229D1*
X1026430Y582130D1*
X1027380Y584054D1*
X1028331Y586906D1*
Y591703D1*
X1027380Y594577D1*
X1026430Y596478D1*
X1024506Y598402D1*
X1022605Y599352D1*
X1018780D1*
X1041205D2*
Y579256D1*
X1034506Y599352D2*
X1047904D1*
X1054080Y589293D2*
X1065133D1*
X1071309Y588829D2*
X1079931D1*
X1082783Y589780D1*
X1083756Y590752D1*
X1084706Y592654D1*
Y595528D1*
X1083756Y597429D1*
X1082783Y598402D1*
X1079931Y599352D1*
X1071309D1*
Y579256D1*
X1090882Y599352D2*
Y579256D1*
X1110455Y599352D2*
Y579256D1*
X1097058Y599352D1*
Y579256D1*
X1116631Y599352D2*
Y579256D1*
X1130028Y599352D2*
X1116631Y585955D1*
X1121406Y590752D2*
X1130028Y579256D1*
X1136204Y589293D2*
X1147258D1*
X1165880Y599352D2*
X1153434D1*
Y579256D1*
Y589780D2*
X1161083D1*
X1172056Y599352D2*
Y579256D1*
X1183530D1*
X1189706Y599352D2*
Y585004D1*
X1190656Y582130D1*
X1192580Y580229D1*
X1195454Y579256D1*
X1197355D1*
X1200229Y580229D1*
X1202152Y582130D1*
X1203103Y585004D1*
Y599352D1*
X1215027D2*
X1213103Y598402D1*
X1211202Y596478D1*
X1210229Y594577D1*
X1209279Y591703D1*
Y586906D1*
X1210229Y584054D1*
X1211202Y582130D1*
X1213103Y580229D1*
X1215027Y579256D1*
X1218851D1*
X1220753Y580229D1*
X1222676Y582130D1*
X1223627Y584054D1*
X1224577Y586906D1*
Y591703D1*
X1223627Y594577D1*
X1222676Y596478D1*
X1220753Y598402D1*
X1218851Y599352D1*
X1215027D1*
X1230753Y589780D2*
X1239353D1*
X1242227Y590752D1*
X1243200Y591703D1*
X1244150Y593604D1*
Y595528D1*
X1243200Y597429D1*
X1242227Y598402D1*
X1239353Y599352D1*
X1230753D1*
Y579256D1*
X1237452Y589780D2*
X1244150Y579256D1*
X1262751Y599352D2*
X1250326D1*
Y579256D1*
X1262751D1*
X1250326Y589780D2*
X1257975D1*
X1282324Y596478D2*
X1280422Y598402D1*
X1277548Y599352D1*
X1273724D1*
X1270850Y598402D1*
X1268926Y596478D1*
Y594577D1*
X1269899Y592654D1*
X1270850Y591703D1*
X1272751Y590752D1*
X1278499Y588829D1*
X1280422Y587878D1*
X1281373Y586906D1*
X1282324Y585004D1*
Y582130D1*
X1280422Y580229D1*
X1277548Y579256D1*
X1273724D1*
X1270850Y580229D1*
X1268926Y582130D1*
X1302847Y594577D2*
X1301897Y596478D1*
X1299973Y598402D1*
X1298072Y599352D1*
X1294247D1*
X1292324Y598402D1*
X1290423Y596478D1*
X1289450Y594577D1*
X1288499Y591703D1*
Y586906D1*
X1289450Y584054D1*
X1290423Y582130D1*
X1292324Y580229D1*
X1294247Y579256D1*
X1298072D1*
X1299973Y580229D1*
X1301897Y582130D1*
X1302847Y584054D1*
X1321448Y599352D2*
X1309023D1*
Y579256D1*
X1321448D1*
X1309023Y589780D2*
X1316672D1*
X1341021Y599352D2*
Y579256D1*
X1327623Y599352D1*
Y579256D1*
X1353895Y599352D2*
Y579256D1*
X1347196Y599352D2*
X1360594D1*
X794252Y1241113D2*
D101*
Y1219591D1*
X795678Y1215280D1*
X798563Y1212428D1*
X802874Y1210969D1*
X805726D1*
X810037Y1212428D1*
X812922Y1215280D1*
X814348Y1219591D1*
Y1241113D1*
X846593Y1210969D2*
X835086Y1241113D1*
X823612Y1210969D1*
X827923Y1221017D2*
X842282D1*
X855856Y1226754D2*
X868756D1*
X873067Y1228213D1*
X874526Y1229639D1*
X875952Y1232491D1*
Y1235376D1*
X874526Y1238228D1*
X873067Y1239687D1*
X868756Y1241113D1*
X855856D1*
Y1210969D1*
X865904Y1226754D2*
X875952Y1210969D1*
X895264Y1241113D2*
Y1210969D1*
X885216Y1241113D2*
X905312D1*
X1034298Y1075776D2*
D100*
X1033347Y1077678D1*
X1031424Y1079601D1*
X1029523Y1080552D1*
X1025698D1*
X1023775Y1079601D1*
X1021873Y1077678D1*
X1020901Y1075776D1*
X1019950Y1072902D1*
Y1068105D1*
X1020901Y1065253D1*
X1021873Y1063330D1*
X1023775Y1061428D1*
X1025698Y1060456D1*
X1029523D1*
X1031424Y1061428D1*
X1033347Y1063330D1*
X1034298Y1065253D1*
Y1068105D1*
X1029523D1*
X1053871Y1080552D2*
Y1060456D1*
X1040474Y1080552D1*
Y1060456D1*
X1060047Y1080552D2*
Y1060456D1*
X1066745D1*
X1069619Y1061428D1*
X1071543Y1063330D1*
X1072493Y1065253D1*
X1073444Y1068105D1*
Y1072902D1*
X1072493Y1075776D1*
X1071543Y1077678D1*
X1069619Y1079601D1*
X1066745Y1080552D1*
X1060047D1*
X932436Y1070979D2*
X941035D1*
X943909Y1071952D1*
X944882Y1072902D1*
X945833Y1074804D1*
Y1076727D1*
X944882Y1078628D1*
X943909Y1079601D1*
X941035Y1080552D1*
X932436D1*
Y1060456D1*
X939134Y1070979D2*
X945833Y1060456D1*
X952009Y1080552D2*
X965406Y1060456D1*
Y1080552D2*
X952009Y1060456D1*
X826943Y1082022D2*
Y1061926D1*
X820244Y1082022D2*
X833641D1*
X839817D2*
X853214Y1061926D1*
Y1082022D2*
X839817Y1061926D1*
X751279Y2049738D2*
D99*
X768479D1*
X774227Y2051684D1*
X776172Y2053585D1*
X778073Y2057388D1*
Y2061234D1*
X776172Y2065037D1*
X774227Y2066982D1*
X768479Y2068884D1*
X751279D1*
Y2028692D1*
X764676Y2049738D2*
X778073Y2028692D1*
X815274Y2068884D2*
X790425D1*
Y2028692D1*
X815274D1*
X790425Y2049738D2*
X805723D1*
X854420Y2063136D2*
X850617Y2066982D1*
X844869Y2068884D1*
X837220D1*
X831472Y2066982D1*
X827625Y2063136D1*
Y2059333D1*
X829571Y2055486D1*
X831472Y2053585D1*
X835275Y2051684D1*
X846771Y2047837D1*
X850617Y2045936D1*
X852519Y2043990D1*
X854420Y2040188D1*
Y2034440D1*
X850617Y2030637D1*
X844869Y2028692D1*
X837220D1*
X831472Y2030637D1*
X827625Y2034440D1*
X891621Y2068884D2*
X866771D1*
Y2028692D1*
X891621D1*
X866771Y2049738D2*
X882070D1*
X917369Y2068884D2*
Y2028692D1*
X903972Y2068884D2*
X930767D1*
X576297Y712776D2*
Y684080D1*
X578198Y678332D1*
X582045Y674530D1*
X587793Y672584D1*
X591596D1*
X597344Y674530D1*
X601190Y678332D1*
X603092Y684080D1*
Y712776D1*
X642238Y707028D2*
X638435Y710875D1*
X632687Y712776D1*
X625038D1*
X619290Y710875D1*
X615443Y707028D1*
Y703226D1*
X617389Y699379D1*
X619290Y697477D1*
X623092Y695576D1*
X634588Y691729D1*
X638435Y689828D1*
X640337Y687883D1*
X642238Y684080D1*
Y678332D1*
X638435Y674530D1*
X632687Y672584D1*
X625038D1*
X619290Y674530D1*
X615443Y678332D1*
X679438Y712776D2*
X654589D1*
Y672584D1*
X679438D1*
X654589Y693631D2*
X669888D1*
X691790D2*
X708990D1*
X714738Y695576D1*
X716683Y697477D1*
X718584Y701280D1*
Y705127D1*
X716683Y708929D1*
X714738Y710875D1*
X708990Y712776D1*
X691790D1*
Y672584D1*
X705187Y693631D2*
X718584Y672584D1*
X739478Y1612743D2*
D101*
X752378D1*
X756689Y1614202D1*
X758148Y1615628D1*
X759574Y1618480D1*
Y1621365D1*
X758148Y1624217D1*
X756689Y1625676D1*
X752378Y1627102D1*
X739478D1*
Y1596958D1*
X749526Y1612743D2*
X759574Y1596958D1*
X787474Y1627102D2*
X768837D1*
Y1596958D1*
X787474D1*
X768837Y1612743D2*
X780311D1*
X816834Y1622791D2*
X813982Y1625676D1*
X809671Y1627102D1*
X803934D1*
X799623Y1625676D1*
X796738Y1622791D1*
Y1619939D1*
X798197Y1617054D1*
X799623Y1615628D1*
X802475Y1614202D1*
X811097Y1611317D1*
X813982Y1609891D1*
X815408Y1608432D1*
X816834Y1605580D1*
Y1601269D1*
X813982Y1598417D1*
X809671Y1596958D1*
X803934D1*
X799623Y1598417D1*
X796738Y1601269D1*
X844734Y1627102D2*
X826097D1*
Y1596958D1*
X844734D1*
X826097Y1612743D2*
X837571D1*
X864046Y1627102D2*
Y1596958D1*
X853998Y1627102D2*
X874094D1*
X883357Y1591984D2*
X910616D1*
X938517Y1627102D2*
X919880D1*
Y1596958D1*
X938517D1*
X919880Y1612743D2*
X931354D1*
X967876Y1627102D2*
Y1596958D1*
X947780Y1627102D1*
Y1596958D1*
X1103531Y1744361D2*
X1133675D1*
X1110728Y1755084D2*
X1109302D1*
X1106416Y1756510D1*
X1104991Y1757936D1*
X1103565Y1760821D1*
Y1766558D1*
X1104991Y1769410D1*
X1106417Y1770836D1*
X1109302Y1772295D1*
X1112153D1*
X1115039Y1770836D1*
X1119316Y1767984D1*
X1133675Y1753625D1*
Y1773721D1*
X1110694Y1804506D2*
X1107842Y1803080D1*
X1104957Y1800195D1*
X1103531Y1797343D1*
Y1791606D1*
X1104957Y1788721D1*
X1107842Y1785869D1*
X1110694Y1784410D1*
X1115005Y1782984D1*
X1122201D1*
X1126479Y1784410D1*
X1129364Y1785869D1*
X1132216Y1788721D1*
X1133675Y1791606D1*
Y1797343D1*
X1132216Y1800195D1*
X1129364Y1803080D1*
X1126479Y1804506D1*
X1138650Y1813770D2*
Y1841029D1*
X1103531Y1850292D2*
X1133675D1*
Y1860340D1*
X1132216Y1864651D1*
X1129364Y1867536D1*
X1126479Y1868962D1*
X1122201Y1870388D1*
X1115005D1*
X1110694Y1868962D1*
X1107842Y1867536D1*
X1104957Y1864651D1*
X1103531Y1860340D1*
Y1850292D1*
Y1898289D2*
Y1879652D1*
X1133675D1*
Y1898289D1*
X1117890Y1879652D2*
Y1891126D1*
X1103531Y1907552D2*
X1133675D1*
Y1920485D1*
X1132216Y1924796D1*
X1130790Y1926222D1*
X1127938Y1927648D1*
X1123627D1*
X1120742Y1926222D1*
X1119316Y1924796D1*
X1117890Y1920485D1*
X1116431Y1924796D1*
X1115005Y1926222D1*
X1112153Y1927648D1*
X1109268D1*
X1106416Y1926222D1*
X1104957Y1924796D1*
X1103531Y1920485D1*
Y1907552D1*
X1117890D2*
Y1920485D1*
X1103531Y1936912D2*
X1125053D1*
X1129364Y1938338D1*
X1132216Y1941223D1*
X1133675Y1945534D1*
Y1948386D1*
X1132216Y1952697D1*
X1129364Y1955582D1*
X1125053Y1957008D1*
X1103531D1*
X1110694Y1987793D2*
X1107842Y1986367D1*
X1104957Y1983482D1*
X1103531Y1980630D1*
Y1974893D1*
X1104957Y1972008D1*
X1107842Y1969156D1*
X1110694Y1967697D1*
X1115005Y1966271D1*
X1122201D1*
X1126479Y1967697D1*
X1129364Y1969156D1*
X1132216Y1972008D1*
X1133675Y1974893D1*
Y1980630D1*
X1132216Y1983482D1*
X1129364Y1986367D1*
X1126479Y1987793D1*
X1122201D1*
Y1980630D1*
X1276544Y1933483D2*
D100*
X1274642Y1932532D1*
X1272719Y1930609D1*
X1271768Y1928708D1*
Y1924883D1*
X1272719Y1922960D1*
X1274642Y1921059D1*
X1276544Y1920086D1*
X1279418Y1919135D1*
X1284215D1*
X1287067Y1920086D1*
X1288990Y1921059D1*
X1290892Y1922960D1*
X1291864Y1924883D1*
Y1928708D1*
X1290892Y1930609D1*
X1288990Y1932532D1*
X1287067Y1933483D1*
X1284215D1*
Y1928708D1*
X1271768Y1953056D2*
X1291864D1*
X1271768Y1939659D1*
X1291864D1*
X1271768Y1959232D2*
X1291864D1*
Y1965930D1*
X1290892Y1968804D1*
X1288990Y1970728D1*
X1287067Y1971678D1*
X1284215Y1972629D1*
X1279418D1*
X1276544Y1971678D1*
X1274642Y1970728D1*
X1272719Y1968804D1*
X1271768Y1965930D1*
Y1959232D1*
X1273680Y1839745D2*
X1271757Y1837844D1*
X1270806Y1834970D1*
Y1831145D1*
X1271757Y1828271D1*
X1273680Y1826348D1*
X1275582D1*
X1277505Y1827320D1*
X1278456Y1828271D1*
X1279406Y1830172D1*
X1281330Y1835920D1*
X1282280Y1837844D1*
X1283253Y1838794D1*
X1285154Y1839745D1*
X1288028D1*
X1289930Y1837844D1*
X1290902Y1834970D1*
Y1831145D1*
X1289930Y1828271D1*
X1288028Y1826348D1*
X1275582Y1860269D2*
X1273680Y1859318D1*
X1271757Y1857395D1*
X1270806Y1855493D1*
Y1851669D1*
X1271757Y1849745D1*
X1273680Y1847844D1*
X1275582Y1846871D1*
X1278456Y1845921D1*
X1283253D1*
X1286105Y1846871D1*
X1288028Y1847844D1*
X1289930Y1849745D1*
X1290902Y1851669D1*
Y1855493D1*
X1289930Y1857395D1*
X1288028Y1859318D1*
X1286105Y1860269D1*
X1270806Y1866444D2*
X1290902D1*
Y1877918D1*
X1275129Y1738296D2*
X1273206Y1736395D1*
X1272255Y1733521D1*
Y1729696D1*
X1273206Y1726822D1*
X1275129Y1724899D1*
X1277030D1*
X1278954Y1725872D1*
X1279904Y1726822D1*
X1280855Y1728724D1*
X1282779Y1734472D1*
X1283729Y1736395D1*
X1284702Y1737346D1*
X1286603Y1738296D1*
X1289477D1*
X1291378Y1736395D1*
X1292351Y1733521D1*
Y1729696D1*
X1291378Y1726822D1*
X1289477Y1724899D1*
X1272255Y1744472D2*
X1292351D1*
Y1751170D1*
X1291378Y1754045D1*
X1289477Y1755968D1*
X1287554Y1756919D1*
X1284702Y1757869D1*
X1279904D1*
X1277030Y1756919D1*
X1275129Y1755968D1*
X1273206Y1754045D1*
X1272255Y1751171D1*
Y1744472D1*
X1292351Y1779366D2*
X1272255Y1771694D1*
X1292351Y1764045D1*
X1285653Y1766919D2*
X1285652Y1776492D1*
X2180075Y1964146D2*
D102*
X2179125Y1963671D1*
X2178163Y1962709D1*
X2177688Y1961758D1*
Y1959846D1*
X2178163Y1958884D1*
X2179125Y1957934D1*
X2180075Y1957447D1*
X2181512Y1956972D1*
X2183911D1*
X2185337Y1957447D1*
X2186299Y1957934D1*
X2187249Y1958884D1*
X2187736Y1959846D1*
Y1961758D1*
X2187249Y1962709D1*
X2186299Y1963671D1*
X2185337Y1964146D1*
X2183911D1*
Y1961758D1*
X2177688Y1973933D2*
X2187736Y1973932D1*
X2177688Y1967234D1*
X2187736D1*
X2177688Y1977020D2*
X2187736D1*
Y1980370D1*
X2187249Y1981807D1*
X2186299Y1982768D1*
X2185337Y1983244D1*
X2183911Y1983719D1*
X2181512D1*
X2180075Y1983244D1*
X2179125Y1982768D1*
X2178163Y1981807D1*
X2177688Y1980370D1*
Y1977020D1*
Y1857420D2*
X2187736D1*
X2177688Y1850721D1*
X2187736D1*
X2182474Y1860508D2*
Y1864808D1*
X2181988Y1866245D1*
X2181512Y1866731D1*
X2180562Y1867207D1*
X2179600D1*
X2178649Y1866731D1*
X2178163Y1866245D1*
X2177688Y1864808D1*
Y1860508D1*
X2187736D1*
X2182474Y1863857D2*
X2187736Y1867206D1*
X2179125Y1876993D2*
X2178163Y1876042D1*
X2177688Y1874605D1*
Y1872693D1*
X2178163Y1871256D1*
X2179125Y1870294D1*
X2180075D1*
X2181037Y1870781D1*
X2181512Y1871256D1*
X2181988Y1872207D1*
X2182949Y1875081D1*
X2183425Y1876042D1*
X2183911Y1876518D1*
X2184862Y1876993D1*
X2186299D1*
X2187249Y1876042D1*
X2187736Y1874605D1*
Y1872693D1*
X2187249Y1871256D1*
X2186299Y1870294D1*
X2177688Y1883430D2*
X2187736D1*
X2177688Y1880081D2*
Y1886780D1*
X2179125Y1744920D2*
X2178163Y1743969D1*
X2177688Y1742532D1*
Y1740620D1*
X2178163Y1739183D1*
X2179125Y1738221D1*
X2180075D1*
X2181037Y1738708D1*
X2181512Y1739183D1*
X2181988Y1740134D1*
X2182949Y1743008D1*
X2183425Y1743969D1*
X2183911Y1744445D1*
X2184862Y1744920D1*
X2186299D1*
X2187249Y1743969D1*
X2187736Y1742532D1*
Y1740620D1*
X2187249Y1739183D1*
X2186299Y1738221D1*
X2177688Y1748008D2*
X2187736Y1750407D1*
X2177688Y1752794D1*
X2187736Y1755182D1*
X2177688Y1757581D1*
Y1760668D2*
X2187736D1*
Y1764018D1*
X2187249Y1765455D1*
X2186299Y1766416D1*
X2185337Y1766892D1*
X2183911Y1767367D1*
X2181512D1*
X2180075Y1766892D1*
X2179125Y1766416D1*
X2178163Y1765455D1*
X2177688Y1764018D1*
Y1760668D1*
X2180075Y1777629D2*
X2179125Y1777154D1*
X2178163Y1776192D1*
X2177688Y1775241D1*
Y1773329D1*
X2178163Y1772367D1*
X2179125Y1771417D1*
X2180075Y1770930D1*
X2181512Y1770455D1*
X2183911D1*
X2185337Y1770930D1*
X2186299Y1771417D1*
X2187249Y1772367D1*
X2187736Y1773329D1*
Y1775241D1*
X2187249Y1776192D1*
X2186299Y1777154D1*
X2185337Y1777629D1*
X2177688Y1780717D2*
X2187736D1*
Y1786454D1*
X2177688Y1789542D2*
X2187736D1*
X2177688Y1796240D2*
X2184386Y1789542D1*
X2181988Y1791929D2*
X2187736Y1796240D1*
X2179125Y1651171D2*
X2178163Y1650220D1*
X2177688Y1648783D1*
Y1646871D1*
X2178163Y1645434D1*
X2179125Y1644472D1*
X2180075D1*
X2181037Y1644958D1*
X2181512Y1645434D1*
X2181988Y1646384D1*
X2182949Y1649258D1*
X2183425Y1650220D1*
X2183911Y1650695D1*
X2184862Y1651171D1*
X2186299D1*
X2187249Y1650220D1*
X2187736Y1648783D1*
Y1646871D1*
X2187249Y1645434D1*
X2186299Y1644472D1*
X2177688Y1654259D2*
X2187736Y1656657D1*
X2177688Y1659045D1*
X2187736Y1661432D1*
X2177688Y1663831D1*
Y1666919D2*
X2187736D1*
Y1670268D1*
X2187249Y1671705D1*
X2186299Y1672667D1*
X2185337Y1673142D1*
X2183911Y1673618D1*
X2181512D1*
X2180075Y1673142D1*
X2179125Y1672667D1*
X2178163Y1671705D1*
X2177688Y1670268D1*
Y1666919D1*
Y1676706D2*
X2187736D1*
X2177688Y1682667D2*
X2178163Y1681706D1*
X2179125Y1680755D1*
X2180075Y1680269D1*
X2181512Y1679793D1*
X2183911D1*
X2185337Y1680269D1*
X2186299Y1680755D1*
X2187249Y1681706D1*
X2187736Y1682667D1*
Y1684580D1*
X2187249Y1685530D1*
X2186299Y1686492D1*
X2185337Y1686967D1*
X2183911Y1687443D1*
X2181512D1*
X2180075Y1686967D1*
X2179125Y1686492D1*
X2178163Y1685530D1*
X2177688Y1684580D1*
Y1682667D1*
Y1538221D2*
X2187736Y1542046D1*
X2177688Y1545871D1*
Y1548959D2*
X2187736Y1548958D1*
Y1552308D1*
X2187249Y1553745D1*
X2186299Y1554707D1*
X2185337Y1555182D1*
X2183911Y1555657D1*
X2181512D1*
X2180075Y1555182D1*
X2179125Y1554707D1*
X2178163Y1553745D1*
X2177688Y1552308D1*
Y1548959D1*
Y1558745D2*
X2187736D1*
Y1562094D1*
X2187249Y1563531D1*
X2186299Y1564493D1*
X2185337Y1564968D1*
X2183911Y1565444D1*
X2181512D1*
X2180075Y1564968D1*
X2179125Y1564493D1*
X2178163Y1563531D1*
X2177688Y1562094D1*
Y1558745D1*
M02*
