%TF.GenerationSoftware,Novarm,DipTrace,3.3.0.1*%
%TF.CreationDate,2018-11-14T10:18:33-08:00*%
%FSLAX26Y26*%
%MOIN*%
%TF.FileFunction,Legend,Bot*%
%TF.Part,Single*%
%ADD12C,0.003*%
%ADD95C,0.010807*%
G75*
G01*
%LPD*%
X2368700Y978200D2*
D12*
X2392700D1*
X2366164Y975200D2*
X2395236D1*
X2363907Y972200D2*
X2397493D1*
X2361684Y969200D2*
X2399716D1*
X2359221Y966200D2*
X2402179D1*
X2356606Y963200D2*
X2404794D1*
X2354115Y960200D2*
X2407285D1*
X2351886Y957200D2*
X2409514D1*
X2349676Y954200D2*
X2411724D1*
X2347207Y951200D2*
X2414193D1*
X2344499Y948200D2*
X2374700D1*
X2386700D2*
X2416901D1*
X2341733Y945200D2*
X2368700D1*
X2374700D2*
X2386700D1*
X2392700D2*
X2419667D1*
X2339168Y942200D2*
X2365700D1*
X2371700D2*
X2389700D1*
X2395700D2*
X2422232D1*
X2336907Y939200D2*
X2362700D1*
X2368700D2*
X2392700D1*
X2398700D2*
X2424493D1*
X2334683Y936200D2*
X2359700D1*
X2365700D2*
X2395700D1*
X2401700D2*
X2426717D1*
X2332209Y933200D2*
X2356700D1*
X2362700D2*
X2398700D1*
X2404700D2*
X2429191D1*
X2329488Y930200D2*
X2353700D1*
X2359700D2*
X2401700D1*
X2407700D2*
X2431912D1*
X2326616Y927200D2*
X2350700D1*
X2356700D2*
X2404700D1*
X2410700D2*
X2434784D1*
X2323668Y924200D2*
X2347700D1*
X2353700D2*
X2407700D1*
X2413700D2*
X2437732D1*
X2320689Y921200D2*
X2344700D1*
X2350700D2*
X2410700D1*
X2416700D2*
X2440711D1*
X2317696Y918200D2*
X2341700D1*
X2347700D2*
X2377700D1*
X2383700D2*
X2413700D1*
X2419700D2*
X2443704D1*
X2314699Y915200D2*
X2338700D1*
X2344700D2*
X2377688D1*
X2383712D2*
X2416700D1*
X2422700D2*
X2446701D1*
X2311700Y912200D2*
X2335700D1*
X2341700D2*
X2377583D1*
X2383817D2*
X2419700D1*
X2425700D2*
X2449700D1*
X2308700Y909200D2*
X2332700D1*
X2338700D2*
X2377200D1*
X2384200D2*
X2422700D1*
X2428700D2*
X2452700D1*
X2305700Y906200D2*
X2329700D1*
X2335700D2*
X2376470D1*
X2384918D2*
X2425700D1*
X2431700D2*
X2455700D1*
X2302700Y903200D2*
X2326700D1*
X2332700D2*
X2375596D1*
X2385699D2*
X2428700D1*
X2434700D2*
X2458700D1*
X2299700Y900200D2*
X2323688D1*
X2329700D2*
X2374690D1*
X2386328D2*
X2431700D1*
X2437700D2*
X2461700D1*
X2296700Y897200D2*
X2320583D1*
X2326700D2*
X2373693D1*
X2386988D2*
X2434700D1*
X2440700D2*
X2464712D1*
X2293688Y894200D2*
X2317200D1*
X2323688D2*
X2372797D1*
X2387834D2*
X2437700D1*
X2443712D2*
X2467817D1*
X2290583Y891200D2*
X2313482D1*
X2320583D2*
X2372219D1*
X2388664D2*
X2440700D1*
X2446817D2*
X2471200D1*
X2287200Y888200D2*
X2309713D1*
X2317200D2*
X2371904D1*
X2389253D2*
X2443712D1*
X2450200D2*
X2474918D1*
X2283482Y885200D2*
X2306190D1*
X2313482D2*
X2365700D1*
X2371700D2*
D3*
X2389700D2*
D3*
X2395700D2*
X2446817D1*
X2453918D2*
X2478687D1*
X2279713Y882200D2*
X2302911D1*
X2309713D2*
X2365700D1*
X2395700D2*
X2450200D1*
X2457687D2*
X2482210D1*
X2276178Y879200D2*
X2299784D1*
X2306190D2*
X2365700D1*
X2395700D2*
X2453918D1*
X2461210D2*
X2485500D1*
X2272794Y876200D2*
X2296732D1*
X2302911D2*
X2365700D1*
X2395700D2*
X2457687D1*
X2464489D2*
X2488733D1*
X2269285Y873200D2*
X2293711D1*
X2299784D2*
X2461210D1*
X2467616D2*
X2492168D1*
X2265513Y870200D2*
X2290704D1*
X2296732D2*
X2464489D1*
X2470668D2*
X2495918D1*
X2261712Y867200D2*
X2287701D1*
X2293711D2*
X2467616D1*
X2473689D2*
X2499801D1*
X2258076Y864200D2*
X2284700D1*
X2290704D2*
X2470668D1*
X2476696D2*
X2503709D1*
X2254413Y861200D2*
X2281700D1*
X2287701D2*
X2473689D1*
X2479699D2*
X2507718D1*
X2250555Y858200D2*
X2278700D1*
X2284700D2*
X2476696D1*
X2482700D2*
X2511720D1*
X2246627Y855200D2*
X2275700D1*
X2281700D2*
X2479699D1*
X2485700D2*
X2515678D1*
X2242690Y852200D2*
X2272700D1*
X2278700D2*
X2365700D1*
X2395700D2*
X2482700D1*
X2488700D2*
X2519707D1*
X2238580Y849200D2*
X2269700D1*
X2275700D2*
X2365700D1*
X2395700D2*
X2485700D1*
X2491700D2*
X2523705D1*
X2234310Y846200D2*
X2266700D1*
X2272700D2*
X2365700D1*
X2395700D2*
X2488700D1*
X2494700D2*
X2527548D1*
X2230132Y843200D2*
X2263700D1*
X2269700D2*
X2365700D1*
X2395700D2*
X2491700D1*
X2497700D2*
X2531067D1*
X2226564Y840200D2*
X2260700D1*
X2266700D2*
X2365700D1*
X2395700D2*
X2494688D1*
X2500688D2*
X2534144D1*
X2223717Y837200D2*
X2257712D1*
X2263712D2*
X2326700D1*
X2341700D2*
X2365700D1*
X2377700D2*
X2383700D1*
X2395700D2*
X2497583D1*
X2503583D2*
X2535442D1*
X2222676Y834200D2*
X2254829D1*
X2260829D2*
X2323700D1*
X2329700D2*
X2365700D1*
X2374512D2*
X2386887D1*
X2395700D2*
X2500198D1*
X2506198D2*
X2536157D1*
X2222114Y831200D2*
X2252340D1*
X2258340D2*
X2365700D1*
X2371700D2*
X2375301D1*
X2380148D2*
X2380700D1*
X2386099D2*
X2389700D1*
X2395700D2*
X2502455D1*
X2508455D2*
X2536485D1*
X2221862Y828200D2*
X2250311D1*
X2256311D2*
X2373308D1*
X2379096D2*
X2380700D1*
X2388092D2*
X2504562D1*
X2510562D2*
X2536620D1*
X2221760Y825200D2*
X2249739D1*
X2255739D2*
X2372725D1*
X2377700D2*
X2380700D1*
X2388675D2*
X2506700D1*
X2512700D2*
X2536672D1*
X2221733Y822200D2*
X2250496D1*
X2256496D2*
X2373534D1*
X2387866D2*
X2504726D1*
X2510726D2*
X2536690D1*
X2221848Y819200D2*
X2252568D1*
X2258568D2*
X2365700D1*
X2371700D2*
X2374700D1*
X2386700D2*
X2389700D1*
X2395700D2*
X2502618D1*
X2508618D2*
X2536673D1*
X2222158Y816200D2*
X2255068D1*
X2261068D2*
X2287712D1*
X2293712D2*
X2365700D1*
X2375919D2*
X2385481D1*
X2395700D2*
X2467688D1*
X2473688D2*
X2500187D1*
X2506187D2*
X2536453D1*
X2223986Y813200D2*
X2257844D1*
X2263844D2*
X2287829D1*
X2293829D2*
X2365700D1*
X2380700D2*
D3*
X2395700D2*
X2467571D1*
X2473571D2*
X2497481D1*
X2503481D2*
X2535926D1*
X2226851Y810200D2*
X2260753D1*
X2266753D2*
X2288328D1*
X2294328D2*
X2365700D1*
X2395700D2*
X2467072D1*
X2473072D2*
X2494613D1*
X2500613D2*
X2533610D1*
X2230526Y807200D2*
X2263719D1*
X2269719D2*
X2289535D1*
X2295535D2*
X2365700D1*
X2395700D2*
X2465865D1*
X2471865D2*
X2491668D1*
X2497668D2*
X2530391D1*
X2234572Y804200D2*
X2266706D1*
X2272706D2*
X2291454D1*
X2297454D2*
X2365700D1*
X2395700D2*
X2463946D1*
X2469946D2*
X2488689D1*
X2494689D2*
X2526516D1*
X2238641Y801200D2*
X2269702D1*
X2275702D2*
X2293700D1*
X2299700D2*
X2365700D1*
X2395700D2*
X2461700D1*
X2467700D2*
X2485696D1*
X2491696D2*
X2522293D1*
X2242643Y798200D2*
X2272701D1*
X2278701D2*
X2299700D1*
X2308224D2*
X2365700D1*
X2395700D2*
X2453176D1*
X2461700D2*
X2482699D1*
X2488699D2*
X2517996D1*
X2246693Y795200D2*
X2275700D1*
X2281700D2*
X2305604D1*
X2318504D2*
X2365700D1*
X2395700D2*
X2442896D1*
X2455796D2*
X2479700D1*
X2485700D2*
X2513822D1*
X2250711Y792200D2*
X2278700D1*
X2284700D2*
X2312752D1*
X2329996D2*
X2365700D1*
X2395700D2*
X2431404D1*
X2448648D2*
X2476700D1*
X2482700D2*
X2509780D1*
X2254675Y789200D2*
X2281700D1*
X2287700D2*
X2321766D1*
X2340303D2*
X2365700D1*
X2395700D2*
X2421097D1*
X2439634D2*
X2473700D1*
X2479700D2*
X2505727D1*
X2258694Y786200D2*
X2284700D1*
X2290700D2*
X2332738D1*
X2347822D2*
X2365700D1*
X2395700D2*
X2413578D1*
X2428662D2*
X2470688D1*
X2476700D2*
X2501797D1*
X2262611Y783200D2*
X2287700D1*
X2293712D2*
X2344700D1*
X2353700D2*
X2365700D1*
X2395700D2*
X2407700D1*
X2416700D2*
X2467583D1*
X2473700D2*
X2498108D1*
X2266295Y780200D2*
X2290700D1*
X2296817D2*
X2365700D1*
X2395700D2*
X2464200D1*
X2470688D2*
X2494424D1*
X2269976Y777200D2*
X2293712D1*
X2300200D2*
X2365700D1*
X2395700D2*
X2460482D1*
X2467583D2*
X2490570D1*
X2273830Y774200D2*
X2296817D1*
X2303918D2*
X2365700D1*
X2395700D2*
X2456713D1*
X2464200D2*
X2486746D1*
X2277654Y771200D2*
X2300200D1*
X2307687D2*
X2365700D1*
X2395700D2*
X2453190D1*
X2460482D2*
X2483201D1*
X2281199Y768200D2*
X2303918D1*
X2311210D2*
X2365700D1*
X2395700D2*
X2449911D1*
X2456713D2*
X2479915D1*
X2284485Y765200D2*
X2307687D1*
X2314489D2*
X2365700D1*
X2395700D2*
X2446784D1*
X2453190D2*
X2476785D1*
X2287615Y762200D2*
X2311210D1*
X2317616D2*
X2365700D1*
X2395700D2*
X2443732D1*
X2449911D2*
X2473720D1*
X2290668Y759200D2*
X2314489D1*
X2320668D2*
X2365700D1*
X2395700D2*
X2440711D1*
X2446784D2*
X2470594D1*
X2293689Y756200D2*
X2317616D1*
X2323689D2*
X2365700D1*
X2395700D2*
X2437704D1*
X2443732D2*
X2467204D1*
X2296696Y753200D2*
X2320668D1*
X2326696D2*
X2365700D1*
X2395700D2*
X2434701D1*
X2440711D2*
X2463483D1*
X2299699Y750200D2*
X2323689D1*
X2329699D2*
X2365700D1*
X2395700D2*
X2431700D1*
X2437704D2*
X2459713D1*
X2302700Y747200D2*
X2326696D1*
X2332700D2*
X2365700D1*
X2395700D2*
X2428700D1*
X2434701D2*
X2456190D1*
X2305700Y744200D2*
X2329699D1*
X2335700D2*
X2365700D1*
X2395700D2*
X2425700D1*
X2431700D2*
X2452911D1*
X2308700Y741200D2*
X2332700D1*
X2338700D2*
X2365700D1*
X2395700D2*
X2422700D1*
X2428700D2*
X2449796D1*
X2311700Y738200D2*
X2335700D1*
X2341700D2*
X2365700D1*
X2395700D2*
X2419700D1*
X2425700D2*
X2446849D1*
X2314700Y735200D2*
X2338700D1*
X2344700D2*
X2365700D1*
X2395700D2*
X2416700D1*
X2422700D2*
X2444211D1*
X2317700Y732200D2*
X2341700D1*
X2347700D2*
X2365688D1*
X2395712D2*
X2413700D1*
X2419700D2*
X2441922D1*
X2320700Y729200D2*
X2344700D1*
X2350700D2*
X2365559D1*
X2395841D2*
X2410700D1*
X2416700D2*
X2439688D1*
X2323700Y726200D2*
X2347700D1*
X2353700D2*
X2365243D1*
X2396157D2*
X2407700D1*
X2413700D2*
X2437211D1*
X2326700Y723200D2*
X2350700D1*
X2356700D2*
X2363740D1*
X2397660D2*
X2404700D1*
X2410700D2*
X2434489D1*
X2329700Y720200D2*
X2353700D1*
X2359700D2*
X2360447D1*
X2400953D2*
X2401700D1*
X2407700D2*
X2431616D1*
X2332688Y717200D2*
X2356700D1*
X2404700D2*
X2428669D1*
X2335583Y714200D2*
X2359712D1*
X2401688D2*
X2425700D1*
X2338200Y711200D2*
X2362826D1*
X2398574D2*
X2422813D1*
X2340482Y708200D2*
X2366290D1*
X2395110D2*
X2420198D1*
X2342713Y705200D2*
X2370315D1*
X2391085D2*
X2417918D1*
X2345178Y702200D2*
X2374700D1*
X2386700D2*
X2415687D1*
X2347794Y699200D2*
X2413222D1*
X2350285Y696200D2*
X2410606D1*
X2352513Y693200D2*
X2408115D1*
X2354712Y690200D2*
X2405898D1*
X2357076Y687200D2*
X2403793D1*
X2359411Y684200D2*
X2401708D1*
X2361539Y681200D2*
X2399733D1*
X2363591Y678200D2*
X2397760D1*
X2365700Y675200D2*
X2395700D1*
X2701200Y978200D2*
X2779200D1*
X2691405Y975200D2*
X2788433D1*
X2682789Y972200D2*
X2796900D1*
X2675348Y969200D2*
X2804549D1*
X2668679Y966200D2*
X2811449D1*
X2662496Y963200D2*
X2817779D1*
X2656776Y960200D2*
X2823572D1*
X2651558Y957200D2*
X2828822D1*
X2646706Y954200D2*
X2833687D1*
X2642060Y951200D2*
X2716687D1*
X2763713D2*
X2838338D1*
X2637605Y948200D2*
X2705665D1*
X2774735D2*
X2842794D1*
X2633485Y945200D2*
X2695453D1*
X2784947D2*
X2846927D1*
X2629896Y942200D2*
X2686520D1*
X2793880D2*
X2850609D1*
X2626831Y939200D2*
X2679155D1*
X2801245D2*
X2853951D1*
X2624016Y936200D2*
X2673034D1*
X2807366D2*
X2857091D1*
X2621017Y933200D2*
X2667550D1*
X2812850D2*
X2860047D1*
X2617853Y930200D2*
X2662425D1*
X2817975D2*
X2862688D1*
X2614982Y927200D2*
X2657865D1*
X2822535D2*
X2864978D1*
X2612547Y924200D2*
X2653960D1*
X2826440D2*
X2867211D1*
X2610252Y921200D2*
X2650504D1*
X2829884D2*
X2869677D1*
X2607848Y918200D2*
X2647217D1*
X2833077D2*
X2872294D1*
X2605496Y915200D2*
X2643863D1*
X2836155D2*
X2874773D1*
X2603348Y912200D2*
X2640497D1*
X2839184D2*
X2876896D1*
X2601274Y909200D2*
X2637436D1*
X2842195D2*
X2878725D1*
X2599211Y906200D2*
X2634690D1*
X2845186D2*
X2880464D1*
X2597320Y903200D2*
X2632040D1*
X2848082D2*
X2882308D1*
X2595613Y900200D2*
X2629584D1*
X2850700D2*
X2884263D1*
X2594014Y897200D2*
X2627483D1*
X2852970D2*
X2886108D1*
X2592476Y894200D2*
X2625678D1*
X2855084D2*
X2887797D1*
X2590958Y891200D2*
X2624038D1*
X2857073D2*
X2889378D1*
X2589454Y888200D2*
X2622484D1*
X2858682D2*
X2890820D1*
X2587962Y885200D2*
X2620961D1*
X2859962D2*
X2892049D1*
X2586592Y882200D2*
X2619455D1*
X2861223D2*
X2893110D1*
X2585401Y879200D2*
X2617950D1*
X2862577D2*
X2894182D1*
X2585453Y876200D2*
X2616442D1*
X2864013D2*
X2895207D1*
X2587530Y873200D2*
X2587200D1*
X2601599D2*
X2614862D1*
X2865588D2*
X2896174D1*
X2590200Y870200D2*
X2599200D1*
X2606236D2*
X2613111D1*
X2867459D2*
X2897194D1*
X2587430Y867200D2*
X2602433D1*
X2609741D2*
X2611200D1*
X2869729D2*
X2898099D1*
X2585379Y864200D2*
X2604900D1*
X2612404D2*
X2662200D1*
X2713200D2*
X2746200D1*
X2797200D2*
X2898677D1*
X2584753Y861200D2*
X2606537D1*
X2613333D2*
X2668203D1*
X2711340D2*
X2746314D1*
X2790635D2*
X2898977D1*
X2584428Y858200D2*
X2607602D1*
X2613833D2*
X2672993D1*
X2709629D2*
X2746710D1*
X2785530D2*
X2863200D1*
X2872200D2*
X2899112D1*
X2584310Y855200D2*
X2607438D1*
X2614066D2*
X2675384D1*
X2708022D2*
X2747535D1*
X2783487D2*
X2863200D1*
X2872212D2*
X2899167D1*
X2584483Y852200D2*
X2606629D1*
X2614200D2*
X2676330D1*
X2706479D2*
X2748698D1*
X2782792D2*
X2863200D1*
X2872317D2*
X2899188D1*
X2585002Y849200D2*
X2604987D1*
X2630459D2*
X2676834D1*
X2704971D2*
X2750046D1*
X2782439D2*
X2812200D1*
X2836200D2*
X2863200D1*
X2872700D2*
X2899196D1*
X2587337Y846200D2*
X2602392D1*
X2642742D2*
X2677058D1*
X2703560D2*
X2751487D1*
X2782289D2*
X2812212D1*
X2836188D2*
X2863200D1*
X2873418D2*
X2899199D1*
X2590200Y843200D2*
X2599200D1*
X2647373D2*
X2677148D1*
X2702344D2*
X2752961D1*
X2782232D2*
X2812326D1*
X2836074D2*
X2863200D1*
X2874187D2*
X2899200D1*
X2649201Y840200D2*
X2677182D1*
X2701276D2*
X2734675D1*
X2739622D2*
X2754456D1*
X2782234D2*
X2812790D1*
X2835610D2*
X2863200D1*
X2874710D2*
X2899200D1*
X2649755Y837200D2*
X2677194D1*
X2700112D2*
X2732536D1*
X2741482D2*
X2755950D1*
X2782456D2*
X2813815D1*
X2834585D2*
X2863200D1*
X2874989D2*
X2899200D1*
X2650026Y834200D2*
X2677198D1*
X2698798D2*
X2730801D1*
X2742881D2*
X2757452D1*
X2782997D2*
X2815200D1*
X2833200D2*
X2863200D1*
X2875116D2*
X2899200D1*
X2650137Y831200D2*
X2677199D1*
X2697390D2*
X2729430D1*
X2744201D2*
X2758949D1*
X2785335D2*
X2863200D1*
X2875168D2*
X2899200D1*
X2650178Y828200D2*
X2677200D1*
X2695937D2*
X2728230D1*
X2745653D2*
X2760451D1*
X2788200D2*
X2863200D1*
X2875189D2*
X2899200D1*
X2650193Y825200D2*
X2677200D1*
X2694548D2*
X2726824D1*
X2747333D2*
X2761949D1*
X2785790D2*
X2863200D1*
X2875196D2*
X2899200D1*
X2650198Y822200D2*
X2677200D1*
X2693340D2*
X2725200D1*
X2749200D2*
X2763439D1*
X2784035D2*
X2863200D1*
X2875199D2*
X2899200D1*
X2650199Y819200D2*
X2677200D1*
X2692274D2*
X2764843D1*
X2783030D2*
X2812200D1*
X2836200D2*
X2863200D1*
X2875200D2*
X2899200D1*
X2650200Y816200D2*
X2677200D1*
X2691112D2*
X2766057D1*
X2782543D2*
X2812200D1*
X2836200D2*
X2863200D1*
X2875188D2*
X2899200D1*
X2650200Y813200D2*
X2677200D1*
X2689798D2*
X2767125D1*
X2782332D2*
X2812200D1*
X2836200D2*
X2863200D1*
X2875083D2*
X2899200D1*
X2650200Y810200D2*
X2677200D1*
X2688390D2*
X2768288D1*
X2782248D2*
X2812200D1*
X2836200D2*
X2863200D1*
X2874700D2*
X2899200D1*
X2587200Y807200D2*
X2602200D1*
X2650200D2*
X2677188D1*
X2686926D2*
X2769602D1*
X2782217D2*
X2812200D1*
X2836200D2*
X2863200D1*
X2873982D2*
X2899200D1*
X2585815Y804200D2*
X2604610D1*
X2650200D2*
X2677083D1*
X2685443D2*
X2719675D1*
X2757622D2*
X2771022D1*
X2782217D2*
X2812200D1*
X2836200D2*
X2863200D1*
X2873213D2*
X2899200D1*
X2584954Y801200D2*
X2606365D1*
X2614200D2*
X2676689D1*
X2683946D2*
X2717548D1*
X2759491D2*
X2772592D1*
X2782331D2*
X2863200D1*
X2872690D2*
X2899200D1*
X2584518Y798200D2*
X2607358D1*
X2614200D2*
X2675855D1*
X2682441D2*
X2715938D1*
X2760962D2*
X2774468D1*
X2782828D2*
X2863200D1*
X2872411D2*
X2899200D1*
X2584336Y795200D2*
X2607728D1*
X2614200D2*
X2674615D1*
X2680861D2*
X2714763D1*
X2762499D2*
X2776787D1*
X2784035D2*
X2863200D1*
X2872278D2*
X2899200D1*
X2584433Y792200D2*
X2607710D1*
X2614200D2*
X2673021D1*
X2679111D2*
X2715282D1*
X2764200D2*
X2779428D1*
X2785954D2*
X2863200D1*
X2872200D2*
X2899188D1*
X2584853Y789200D2*
X2606375D1*
X2614200D2*
X2671200D1*
X2677200D2*
X2716200D1*
X2761200D2*
X2782200D1*
X2788200D2*
X2899083D1*
X2587756Y786200D2*
X2601579D1*
X2611200D2*
D3*
X2869778D2*
X2898700D1*
X2595723Y783200D2*
X2593845D1*
X2608200D2*
X2611200D1*
X2867918D2*
X2897970D1*
X2584200Y780200D2*
D3*
X2605200D2*
X2613060D1*
X2866519D2*
X2897096D1*
X2584200Y777200D2*
X2614771D1*
X2865208D2*
X2896178D1*
X2585237Y774200D2*
X2616378D1*
X2863834D2*
X2895076D1*
X2586236Y771200D2*
X2617932D1*
X2862403D2*
X2893797D1*
X2587198Y768200D2*
X2619546D1*
X2860930D2*
X2892491D1*
X2588328Y765200D2*
X2621339D1*
X2859433D2*
X2891307D1*
X2589717Y762200D2*
X2623274D1*
X2857829D2*
X2890161D1*
X2591407Y759200D2*
X2625112D1*
X2855951D2*
X2888715D1*
X2593300Y756200D2*
X2626810D1*
X2853731D2*
X2886973D1*
X2595121Y753200D2*
X2628507D1*
X2851452D2*
X2885227D1*
X2596813Y750200D2*
X2630437D1*
X2849321D2*
X2883567D1*
X2598508Y747200D2*
X2632778D1*
X2847151D2*
X2881884D1*
X2600425Y744200D2*
X2635444D1*
X2844698D2*
X2879972D1*
X2602661Y741200D2*
X2638296D1*
X2841973D2*
X2877738D1*
X2604945Y738200D2*
X2641247D1*
X2838997D2*
X2875455D1*
X2607078Y735200D2*
X2644330D1*
X2835669D2*
X2873322D1*
X2609248Y732200D2*
X2647716D1*
X2831959D2*
X2871152D1*
X2611702Y729200D2*
X2651548D1*
X2828092D2*
X2868698D1*
X2614416Y726200D2*
X2655804D1*
X2824177D2*
X2865984D1*
X2617286Y723200D2*
X2660440D1*
X2820064D2*
X2863114D1*
X2620232Y720200D2*
X2665323D1*
X2815668D2*
X2860168D1*
X2623211Y717200D2*
X2670265D1*
X2810851D2*
X2857189D1*
X2626216Y714200D2*
X2675572D1*
X2805331D2*
X2854184D1*
X2629318Y711200D2*
X2682007D1*
X2798664D2*
X2851082D1*
X2632700Y708200D2*
X2690369D1*
X2790156D2*
X2847688D1*
X2636430Y705200D2*
X2701128D1*
X2779323D2*
X2843865D1*
X2640316Y702200D2*
X2714097D1*
X2766322D2*
X2839702D1*
X2644327Y699200D2*
X2728200D1*
X2752200D2*
X2835343D1*
X2648730Y696200D2*
X2830796D1*
X2653567Y693200D2*
X2825927D1*
X2658806Y690200D2*
X2820598D1*
X2664681Y687200D2*
X2814822D1*
X2671349Y684200D2*
X2808475D1*
X2678774Y681200D2*
X2801329D1*
X2686844Y678200D2*
X2793434D1*
X2695200Y675200D2*
X2785200D1*
X1642200Y1215700D2*
X1807200D1*
X1620183Y1212700D2*
X1829114D1*
X1600217Y1209700D2*
X1848801D1*
X1582627Y1206700D2*
X1866043D1*
X1567264Y1203700D2*
X1881261D1*
X1553644Y1200700D2*
X1681200D1*
X1766643D2*
X1894850D1*
X1541342Y1197700D2*
X1646403D1*
X1795623D2*
X1907061D1*
X1530139Y1194700D2*
X1625116D1*
X1820754D2*
X1918365D1*
X1519722Y1191700D2*
X1606000D1*
X1841862D2*
X1929102D1*
X1509850Y1188700D2*
X1589091D1*
X1859592D2*
X1939251D1*
X1500583Y1185700D2*
X1574031D1*
X1874745D2*
X1948682D1*
X1491845Y1182700D2*
X1560509D1*
X1887984D2*
X1957500D1*
X1483451Y1179700D2*
X1548336D1*
X1899884D2*
X1965928D1*
X1475426Y1176700D2*
X1537136D1*
X1911013D2*
X1973967D1*
X1467765Y1173700D2*
X1526691D1*
X1921659D2*
X1981632D1*
X1460537Y1170700D2*
X1516995D1*
X1931753D2*
X1988862D1*
X1453815Y1167700D2*
X1508092D1*
X1940977D2*
X1995585D1*
X1447457Y1164700D2*
X1500036D1*
X1949217D2*
X2001942D1*
X1441300Y1161700D2*
X1492573D1*
X1956767D2*
X2008100D1*
X1435237Y1158700D2*
X1485340D1*
X1964037D2*
X2014163D1*
X1429225Y1155700D2*
X1478350D1*
X1971042D2*
X2020175D1*
X1423322Y1152700D2*
X1471740D1*
X1977657D2*
X2026078D1*
X1417713Y1149700D2*
X1465429D1*
X1983970D2*
X2031687D1*
X1412536Y1146700D2*
X1459290D1*
X1990110D2*
X2036864D1*
X1407687Y1143700D2*
X1453233D1*
X1996166D2*
X2041701D1*
X1402940Y1140700D2*
X1447224D1*
X2002176D2*
X2046354D1*
X1398105Y1137700D2*
X1441321D1*
X2008067D2*
X2050913D1*
X1393255Y1134700D2*
X1435713D1*
X2013582D2*
X2055427D1*
X1388792Y1131700D2*
X1430536D1*
X2018482D2*
X2059839D1*
X1384821Y1128700D2*
X1425699D1*
X2022983D2*
X2064056D1*
X1381009Y1125700D2*
X1421057D1*
X2027573D2*
X2068113D1*
X1377102Y1122700D2*
X1416593D1*
X2032284D2*
X2072171D1*
X1373257Y1119700D2*
X1412356D1*
X2036766D2*
X2076090D1*
X1369705Y1116700D2*
X1408291D1*
X2040982D2*
X2079675D1*
X1366417Y1113700D2*
X1404231D1*
X1966200D2*
D3*
X2045117D2*
X2082976D1*
X1363286Y1110700D2*
X1400298D1*
X1967701D2*
X1969200D1*
X2041200D2*
D3*
X2049070D2*
X2086112D1*
X1360232Y1107700D2*
X1396620D1*
X1969443D2*
X1972561D1*
X2038200D2*
X2041200D1*
X2052667D2*
X2089167D1*
X1357211Y1104700D2*
X1393030D1*
X1971183D2*
X1976026D1*
X2035200D2*
X2039237D1*
X2055973D2*
X2092188D1*
X1354204Y1101700D2*
X1389465D1*
X1972826D2*
X1979466D1*
X2032200D2*
X2037236D1*
X2059111D2*
X2095196D1*
X1351201Y1098700D2*
X1386081D1*
X1974400D2*
X1982940D1*
X2005200D2*
D3*
X2029200D2*
X2035187D1*
X2062167D2*
X2098199D1*
X1348200Y1095700D2*
X1382970D1*
X1975929D2*
X1986465D1*
X2004174D2*
X2005200D1*
X2026200D2*
X2033211D1*
X2065188D2*
X2101188D1*
X1345200Y1092700D2*
X1380157D1*
X1977444D2*
X1989839D1*
X2003273D2*
X2005200D1*
X2023200D2*
X2031218D1*
X2068196D2*
X2104083D1*
X1342212Y1089700D2*
X1377551D1*
X1978958D2*
X1993055D1*
X2002658D2*
X2006606D1*
X2020200D2*
X2029189D1*
X2071199D2*
X2106700D1*
X1339317Y1086700D2*
X1374870D1*
X1980567D2*
X1996200D1*
X2002200D2*
X2008200D1*
X2017200D2*
X2027322D1*
X2074200D2*
X2108982D1*
X1336700Y1083700D2*
X1372053D1*
X1384200D2*
D3*
X1982451D2*
X2025697D1*
X2077188D2*
X2111201D1*
X1334430Y1080700D2*
X1369152D1*
X1384200D2*
X1387200D1*
X1984726D2*
X2024348D1*
X2080083D2*
X2113572D1*
X1332304Y1077700D2*
X1366294D1*
X1384200D2*
X1389725D1*
X1987200D2*
X2023200D1*
X2082700D2*
X2115912D1*
X1330222Y1074700D2*
X1363691D1*
X1384200D2*
X1391875D1*
X1969200D2*
X2038200D1*
X2084970D2*
X2118054D1*
X1328324Y1071700D2*
X1361427D1*
X1384200D2*
X1393716D1*
X1974648D2*
X2034147D1*
X2087096D2*
X2120127D1*
X1326603Y1068700D2*
X1359303D1*
X1384200D2*
X1395461D1*
X1979596D2*
X2030127D1*
X2089190D2*
X2122190D1*
X1324909Y1065700D2*
X1357210D1*
X1384200D2*
X1397307D1*
X1984200D2*
X2026200D1*
X2091182D2*
X2124080D1*
X1323093Y1062700D2*
X1355218D1*
X1384200D2*
X1399263D1*
X1516200D2*
X1609200D1*
X1618200D2*
X1714200D1*
X1723200D2*
X1816200D1*
X1828200D2*
X1921200D1*
X1977725D2*
X2031852D1*
X2093180D2*
X2125787D1*
X1321239Y1059700D2*
X1353232D1*
X1384200D2*
X1401108D1*
X1516200D2*
X1609200D1*
X1618200D2*
X1714200D1*
X1723200D2*
X1816200D1*
X1828200D2*
X1921200D1*
X1970875D2*
X2037989D1*
X2095210D2*
X2127386D1*
X1319685Y1056700D2*
X1351296D1*
X1384200D2*
X1402797D1*
X1516200D2*
X1609200D1*
X1618200D2*
X1714200D1*
X1723200D2*
X1816200D1*
X1828200D2*
X1921200D1*
X1963714D2*
X2044506D1*
X2097087D2*
X2128924D1*
X1318427Y1053700D2*
X1349707D1*
X1384200D2*
X1404390D1*
X1516200D2*
X1609200D1*
X1618200D2*
X1714200D1*
X1723200D2*
X1816200D1*
X1828200D2*
X1921200D1*
X1956443D2*
X2051351D1*
X2098790D2*
X2130431D1*
X1317173Y1050700D2*
X1348434D1*
X1384212D2*
X1405926D1*
X1516200D2*
X1609200D1*
X1618200D2*
X1714200D1*
X1723200D2*
X1816200D1*
X1828200D2*
X1921200D1*
X1949255D2*
X1972200D1*
X1987074D2*
X2020314D1*
X2035200D2*
X2058301D1*
X2100387D2*
X2131840D1*
X1315833Y1047700D2*
X1347176D1*
X1384317D2*
X1407443D1*
X1516200D2*
X1609200D1*
X1618200D2*
X1714200D1*
X1723200D2*
X1816200D1*
X1828200D2*
X1921200D1*
X1942200D2*
X1957200D1*
X1986573D2*
X2023699D1*
X2050200D2*
X2065200D1*
X2101925D2*
X2133056D1*
X1314504Y1044700D2*
X1345834D1*
X1384700D2*
X1408946D1*
X1516200D2*
X1609200D1*
X1618200D2*
X1714200D1*
X1723200D2*
X1816200D1*
X1828200D2*
X1921200D1*
X1985365D2*
X1990200D1*
X1999200D2*
X2008200D1*
X2016610D2*
X2027418D1*
X2103431D2*
X2134113D1*
X1313323Y1041700D2*
X1344504D1*
X1385418D2*
X1410450D1*
X1516200D2*
X1609200D1*
X1618200D2*
X1714200D1*
X1723200D2*
X1816200D1*
X1828200D2*
X1921200D1*
X1983446D2*
X1987200D1*
X1999200D2*
X2008200D1*
X2021365D2*
X2031199D1*
X2104840D2*
X2135171D1*
X1312280Y1038700D2*
X1343323D1*
X1386187D2*
X1411948D1*
X1516200D2*
X1609200D1*
X1618200D2*
X1714200D1*
X1723200D2*
X1816200D1*
X1828200D2*
X1921200D1*
X1981200D2*
X1984200D1*
X1999212D2*
X2008188D1*
X2025370D2*
X2034828D1*
X2106056D2*
X2136090D1*
X1311227Y1035700D2*
X1342280D1*
X1386722D2*
X1413439D1*
X1516200D2*
X1543200D1*
X1582200D2*
X1609200D1*
X1618200D2*
X1645200D1*
X1687200D2*
X1714200D1*
X1756200D2*
X1783200D1*
X1828200D2*
X1852200D1*
X1894200D2*
X1921200D1*
X1999317D2*
X2008083D1*
X2028857D2*
X2038488D1*
X2107113D2*
X2136675D1*
X1310309Y1032700D2*
X1341227D1*
X1387106D2*
X1414843D1*
X1516200D2*
X1543200D1*
X1582200D2*
X1609200D1*
X1618200D2*
X1645200D1*
X1687200D2*
X1714200D1*
X1756200D2*
X1783200D1*
X1828200D2*
X1852200D1*
X1894200D2*
X1921200D1*
X1999700D2*
X2007700D1*
X2032056D2*
X2042334D1*
X2108171D2*
X2136976D1*
X1309725Y1029700D2*
X1340297D1*
X1387615D2*
X1416057D1*
X1516200D2*
X1543200D1*
X1582200D2*
X1609200D1*
X1618200D2*
X1645200D1*
X1687200D2*
X1714200D1*
X1756200D2*
X1783200D1*
X1828200D2*
X1852200D1*
X1894165D2*
X1921200D1*
X2000418D2*
X2006982D1*
X2035034D2*
X2046156D1*
X2109090D2*
X2137112D1*
X1309424Y1026700D2*
X1339608D1*
X1388387D2*
X1417125D1*
X1516200D2*
X1543200D1*
X1582200D2*
X1609200D1*
X1618200D2*
X1645200D1*
X1687200D2*
X1714200D1*
X1756200D2*
X1783200D1*
X1828200D2*
X1852200D1*
X1894059D2*
X1921200D1*
X2001187D2*
X2006213D1*
X2037683D2*
X2049699D1*
X2109686D2*
X2137167D1*
X1309288Y1023700D2*
X1338924D1*
X1389188D2*
X1418288D1*
X1516200D2*
X1543200D1*
X1582200D2*
X1609200D1*
X1618200D2*
X1645200D1*
X1687200D2*
X1714200D1*
X1756200D2*
X1783200D1*
X1828200D2*
X1852200D1*
X1892923D2*
X1921200D1*
X2001710D2*
X2005690D1*
X2039964D2*
X2052973D1*
X2110093D2*
X2137188D1*
X1309233Y1020700D2*
X1338070D1*
X1389824D2*
X1419590D1*
X1516200D2*
X1543200D1*
X1582200D2*
X1609200D1*
X1618200D2*
X1645200D1*
X1687200D2*
X1714200D1*
X1756200D2*
X1783200D1*
X1888342D2*
X1921200D1*
X2001989D2*
X2005411D1*
X2042094D2*
X2055997D1*
X2110611D2*
X2137196D1*
X1309212Y1017700D2*
X1337246D1*
X1390487D2*
X1420904D1*
X1516200D2*
X1543212D1*
X1582200D2*
X1609200D1*
X1618200D2*
X1645200D1*
X1687200D2*
X1714200D1*
X1756200D2*
X1783200D1*
X1881526D2*
X1921200D1*
X2002116D2*
X2005284D1*
X2044189D2*
X2058657D1*
X2111385D2*
X2137199D1*
X1309204Y1014700D2*
X1336701D1*
X1391333D2*
X1422080D1*
X1516200D2*
X1543341D1*
X1582200D2*
X1609200D1*
X1618200D2*
X1645200D1*
X1687200D2*
X1714200D1*
X1756200D2*
X1783200D1*
X1873180D2*
X1921200D1*
X2002169D2*
X2005231D1*
X2046181D2*
X2060853D1*
X2112175D2*
X2137200D1*
X1309201Y1011700D2*
X1336415D1*
X1392167D2*
X1423121D1*
X1516200D2*
X1543657D1*
X1582200D2*
X1609200D1*
X1618200D2*
X1714200D1*
X1756200D2*
X1783200D1*
X1864189D2*
X1921177D1*
X2002189D2*
X2005211D1*
X2048180D2*
X2062698D1*
X2112706D2*
X2137200D1*
X1309200Y1008700D2*
X1336285D1*
X1392816D2*
X1424185D1*
X1516200D2*
X1545175D1*
X1582200D2*
X1609200D1*
X1618200D2*
X1714200D1*
X1756200D2*
X1783200D1*
X1854919D2*
X1920930D1*
X2002200D2*
X2005200D1*
X2050210D2*
X2064353D1*
X2112987D2*
X2137200D1*
X1309200Y1005700D2*
X1336232D1*
X1393496D2*
X1425220D1*
X1516200D2*
X1548755D1*
X1582200D2*
X1609200D1*
X1618200D2*
X1714200D1*
X1756200D2*
X1783200D1*
X1845901D2*
X1920333D1*
X2052076D2*
X2065913D1*
X2113115D2*
X2137200D1*
X1309200Y1002700D2*
X1336211D1*
X1394450D2*
X1426315D1*
X1516212D2*
X1553346D1*
X1582200D2*
X1609200D1*
X1618200D2*
X1714200D1*
X1756200D2*
X1783200D1*
X1838330D2*
X1917614D1*
X2053684D2*
X2067438D1*
X2113168D2*
X2137200D1*
X1309200Y999700D2*
X1336204D1*
X1395655D2*
X1427963D1*
X1516341D2*
X1558669D1*
X1582200D2*
X1609200D1*
X1618200D2*
X1714200D1*
X1756200D2*
X1783200D1*
X1832358D2*
X1911400D1*
X2054993D2*
X2068944D1*
X2113189D2*
X2137200D1*
X1309200Y996700D2*
X1336201D1*
X1396905D2*
X1430667D1*
X1516657D2*
X1564379D1*
X1582200D2*
X1609200D1*
X1618200D2*
X1714200D1*
X1756200D2*
X1783200D1*
X1829840D2*
X1903514D1*
X2056101D2*
X2070438D1*
X2113196D2*
X2137200D1*
X1309200Y993700D2*
X1336200D1*
X1397855D2*
X1434611D1*
X1518175D2*
X1570262D1*
X1582200D2*
X1609200D1*
X1618200D2*
X1714200D1*
X1756200D2*
X1783200D1*
X1828960D2*
X1894605D1*
X2057279D2*
X2071831D1*
X2113187D2*
X2137200D1*
X1309200Y990700D2*
X1336212D1*
X1398385D2*
X1439245D1*
X1521743D2*
X1576200D1*
X1582200D2*
X1609200D1*
X1618200D2*
X1714200D1*
X1756200D2*
X1783200D1*
X1828509D2*
X1885369D1*
X2058587D2*
X2072940D1*
X2113082D2*
X2137200D1*
X1309200Y987700D2*
X1336317D1*
X1397666D2*
X1443500D1*
X1526220D2*
X1609200D1*
X1618200D2*
X1714200D1*
X1756200D2*
X1783200D1*
X1828316D2*
X1876100D1*
X2059892D2*
X2073625D1*
X2112700D2*
X2137200D1*
X1309200Y984700D2*
X1336700D1*
X1396400D2*
X1446909D1*
X1531078D2*
X1609200D1*
X1618200D2*
X1645200D1*
X1687200D2*
X1714200D1*
X1756200D2*
X1783200D1*
X1828241D2*
X1867423D1*
X2060963D2*
X2074070D1*
X2111982D2*
X2137200D1*
X1309200Y981700D2*
X1337418D1*
X1394453D2*
X1449571D1*
X1535753D2*
X1609200D1*
X1618200D2*
X1645200D1*
X1687200D2*
X1714200D1*
X1756200D2*
X1783200D1*
X1828214D2*
X1860556D1*
X2061622D2*
X2074603D1*
X2111213D2*
X2137200D1*
X1309200Y978700D2*
X1338199D1*
X1392094D2*
X1451484D1*
X1540200D2*
X1609200D1*
X1618200D2*
X1645200D1*
X1687200D2*
X1714200D1*
X1756200D2*
X1783200D1*
X1828205D2*
X1855423D1*
X2061956D2*
X2075382D1*
X2110678D2*
X2137200D1*
X1309212Y975700D2*
X1338828D1*
X1389884D2*
X1452888D1*
X1538701D2*
X1609200D1*
X1618200D2*
X1645200D1*
X1687200D2*
X1714200D1*
X1756200D2*
X1783200D1*
X1828202D2*
X1853444D1*
X2062104D2*
X2076163D1*
X2110294D2*
X2137200D1*
X1309317Y972700D2*
X1339488D1*
X1389536D2*
X1454208D1*
X1537443D2*
X1609200D1*
X1618200D2*
X1645200D1*
X1687200D2*
X1714200D1*
X1756200D2*
X1783200D1*
X1828200D2*
X1852771D1*
X2062164D2*
X2076589D1*
X2109785D2*
X2137200D1*
X1309700Y969700D2*
X1340346D1*
X1389679D2*
X1455673D1*
X1536183D2*
X1609200D1*
X1618200D2*
X1645200D1*
X1687200D2*
X1714200D1*
X1756200D2*
X1783200D1*
X1828200D2*
X1852431D1*
X2062176D2*
X2076488D1*
X2109002D2*
X2137188D1*
X1310430Y966700D2*
X1341273D1*
X1389908D2*
X1457380D1*
X1534838D2*
X1609200D1*
X1618200D2*
X1645200D1*
X1687200D2*
X1714200D1*
X1756200D2*
X1783200D1*
X1828200D2*
X1852286D1*
X2062079D2*
X2075897D1*
X2108107D2*
X2137083D1*
X1311304Y963700D2*
X1342210D1*
X1390074D2*
X1459189D1*
X1533506D2*
X1566725D1*
X1572484D2*
X1609200D1*
X1618200D2*
X1645200D1*
X1687200D2*
X1714200D1*
X1756200D2*
X1783200D1*
X1828200D2*
X1852231D1*
X2061699D2*
X2075181D1*
X2107182D2*
X2136700D1*
X1312222Y960700D2*
X1343320D1*
X1390259D2*
X1460737D1*
X1532323D2*
X1565875D1*
X1576737D2*
X1609200D1*
X1618200D2*
X1645200D1*
X1687200D2*
X1714200D1*
X1756200D2*
X1783200D1*
X1828200D2*
X1852210D1*
X2060970D2*
X2074667D1*
X2106077D2*
X2135970D1*
X1313324Y957700D2*
X1344601D1*
X1390677D2*
X1462082D1*
X1531268D2*
X1564716D1*
X1580008D2*
X1609200D1*
X1618200D2*
X1645200D1*
X1687200D2*
X1714200D1*
X1756200D2*
X1783200D1*
X1828200D2*
X1852203D1*
X1894200D2*
X1921200D1*
X2060095D2*
X2074290D1*
X2104786D2*
X2135096D1*
X1314603Y954700D2*
X1345908D1*
X1391410D2*
X1463610D1*
X1530110D2*
X1563461D1*
X1581144D2*
X1609200D1*
X1618200D2*
X1645200D1*
X1687200D2*
X1714200D1*
X1756200D2*
X1783200D1*
X1828200D2*
X1852201D1*
X1894200D2*
X1921200D1*
X2059178D2*
X2073772D1*
X2103386D2*
X2134178D1*
X1315909Y951700D2*
X1347093D1*
X1392184D2*
X1465274D1*
X1528809D2*
X1562307D1*
X1581754D2*
X1609200D1*
X1618200D2*
X1645200D1*
X1687200D2*
X1714200D1*
X1756200D2*
X1783200D1*
X1828200D2*
X1852200D1*
X1894200D2*
X1921200D1*
X2058064D2*
X2072896D1*
X2101924D2*
X2133076D1*
X1317093Y948700D2*
X1348239D1*
X1392709D2*
X1466795D1*
X1527495D2*
X1561274D1*
X1582026D2*
X1609200D1*
X1618200D2*
X1645200D1*
X1687200D2*
X1714200D1*
X1756200D2*
X1783200D1*
X1828200D2*
X1852200D1*
X1894200D2*
X1921200D1*
X2056669D2*
X2071713D1*
X2100431D2*
X2131786D1*
X1318239Y945700D2*
X1349685D1*
X1393000D2*
X1467246D1*
X1526320D2*
X1560213D1*
X1582136D2*
X1609200D1*
X1618200D2*
X1645200D1*
X1687200D2*
X1714200D1*
X1756200D2*
X1783200D1*
X1828200D2*
X1852200D1*
X1894200D2*
X1921200D1*
X2054886D2*
X2070358D1*
X2098840D2*
X2130386D1*
X1319685Y942700D2*
X1351438D1*
X1393233D2*
X1466395D1*
X1525267D2*
X1559191D1*
X1582178D2*
X1609200D1*
X1618200D2*
X1645200D1*
X1687200D2*
X1714200D1*
X1756200D2*
X1783200D1*
X1828200D2*
X1921200D1*
X2052706D2*
X2068914D1*
X2097056D2*
X2128924D1*
X1321427Y939700D2*
X1353279D1*
X1393668D2*
X1448505D1*
X1456200D2*
X1465200D1*
X1524109D2*
X1558214D1*
X1582192D2*
X1609200D1*
X1618200D2*
X1645200D1*
X1687200D2*
X1714200D1*
X1756200D2*
X1783200D1*
X1828200D2*
X1921200D1*
X2050443D2*
X2067427D1*
X2095113D2*
X2127431D1*
X1323173Y936700D2*
X1355216D1*
X1394407D2*
X1444733D1*
X1522809D2*
X1557089D1*
X1582198D2*
X1609200D1*
X1618200D2*
X1645200D1*
X1687200D2*
X1714200D1*
X1756200D2*
X1783200D1*
X1828200D2*
X1921200D1*
X2048318D2*
X2065827D1*
X2093182D2*
X2125840D1*
X1324833Y933700D2*
X1357234D1*
X1395183D2*
X1420200D1*
X1428736D2*
X1443239D1*
X1521495D2*
X1555802D1*
X1582199D2*
X1609200D1*
X1618200D2*
X1645200D1*
X1687200D2*
X1714200D1*
X1756200D2*
X1783200D1*
X1828200D2*
X1921200D1*
X2046139D2*
X2063939D1*
X2091208D2*
X2124056D1*
X1326504Y930700D2*
X1359209D1*
X1395711D2*
X1411200D1*
X1417200D2*
D3*
X1430993D2*
X1445243D1*
X1520320D2*
X1554493D1*
X1582200D2*
X1609200D1*
X1618200D2*
X1645200D1*
X1687200D2*
X1714200D1*
X1756200D2*
X1783200D1*
X1828200D2*
X1921200D1*
X2043580D2*
X2061613D1*
X2089174D2*
X2122113D1*
X1328323Y927700D2*
X1361302D1*
X1396006D2*
X1408200D1*
X1433204D2*
X1447662D1*
X1519276D2*
X1553310D1*
X1582200D2*
X1609200D1*
X1618200D2*
X1645200D1*
X1687200D2*
X1714200D1*
X1756200D2*
X1783200D1*
X1828200D2*
X1921200D1*
X2040485D2*
X2058964D1*
X2087194D2*
X2120171D1*
X1330280Y924700D2*
X1363723D1*
X1396200D2*
X1405200D1*
X1435573D2*
X1450386D1*
X1518198D2*
X1552186D1*
X1582200D2*
X1609200D1*
X1618200D2*
X1645200D1*
X1687200D2*
X1714200D1*
X1756200D2*
X1783200D1*
X1828200D2*
X1921200D1*
X2036885D2*
X2056220D1*
X2085099D2*
X2118102D1*
X1332227Y921700D2*
X1366423D1*
X1437912D2*
X1453282D1*
X1517151D2*
X1550809D1*
X1582200D2*
X1609200D1*
X1618200D2*
X1645200D1*
X1687200D2*
X1714200D1*
X1756200D2*
X1783200D1*
X1828200D2*
X1921200D1*
X2033064D2*
X2053652D1*
X2082677D2*
X2115792D1*
X1334309Y918700D2*
X1369276D1*
X1440066D2*
X1456342D1*
X1516200D2*
X1549200D1*
X1582200D2*
X1609200D1*
X1618200D2*
X1645200D1*
X1687200D2*
X1714200D1*
X1756200D2*
X1783200D1*
X1828200D2*
X1921200D1*
X2029167D2*
X2051288D1*
X2079977D2*
X2113475D1*
X1336725Y915700D2*
X1372104D1*
X1442244D2*
X1459708D1*
X2025061D2*
X2048683D1*
X2077112D2*
X2111330D1*
X1339424Y912700D2*
X1374584D1*
X1444701D2*
X1463421D1*
X2020667D2*
X2045491D1*
X2074167D2*
X2109154D1*
X1342288Y909700D2*
X1376369D1*
X1447427D2*
X1467200D1*
X2015874D2*
X2041989D1*
X2071188D2*
X2106699D1*
X1345233Y906700D2*
X1377448D1*
X1450403D2*
X1470828D1*
X2010589D2*
X2038488D1*
X2068196D2*
X2103985D1*
X1348212Y903700D2*
X1384200D1*
X1453731D2*
X1474500D1*
X2004944D2*
X2034869D1*
X2065199D2*
X2101115D1*
X1351204Y900700D2*
X1386841D1*
X1457441D2*
X1478463D1*
X1999100D2*
X2030938D1*
X2062200D2*
X2098168D1*
X1354201Y897700D2*
X1389884D1*
X1461308D2*
X1482784D1*
X1993151D2*
X2026729D1*
X2059188D2*
X2095189D1*
X1357200Y894700D2*
X1393122D1*
X1465223D2*
X1487546D1*
X1987070D2*
X2022353D1*
X2056083D2*
X2092196D1*
X1360200Y891700D2*
X1396605D1*
X1469324D2*
X1492818D1*
X1980684D2*
X2017799D1*
X2052700D2*
X2089199D1*
X1363212Y888700D2*
X1400389D1*
X1473614D2*
X1498459D1*
X1973863D2*
X2012928D1*
X2048970D2*
X2086188D1*
X1366317Y885700D2*
X1404288D1*
X1478026D2*
X1504312D1*
X1966701D2*
X2007610D1*
X2045084D2*
X2083083D1*
X1369700Y882700D2*
X1408216D1*
X1482593D2*
X1510366D1*
X1959343D2*
X2001940D1*
X2041073D2*
X2079700D1*
X1373418Y879700D2*
X1412322D1*
X1487469D2*
X1516842D1*
X1951784D2*
X1995986D1*
X2036694D2*
X2075970D1*
X1377199Y876700D2*
X1416614D1*
X1492789D2*
X1524063D1*
X1943798D2*
X1989665D1*
X2032067D2*
X2072096D1*
X1380839Y873700D2*
X1421026D1*
X1498448D2*
X1532152D1*
X1934981D2*
X1982946D1*
X2027605D2*
X2068178D1*
X1384605Y870700D2*
X1425593D1*
X1504309D2*
X1541067D1*
X1925093D2*
X1975974D1*
X2023284D2*
X2064076D1*
X1388845Y867700D2*
X1430469D1*
X1510365D2*
X1550809D1*
X1914140D2*
X1968666D1*
X2018653D2*
X2059786D1*
X1393491Y864700D2*
X1435789D1*
X1516841D2*
X1561516D1*
X1902180D2*
X1960729D1*
X2013483D2*
X2055386D1*
X1398198Y861700D2*
X1441437D1*
X1524051D2*
X1573702D1*
X1889056D2*
X1952170D1*
X2007899D2*
X2050924D1*
X1402842Y858700D2*
X1447192D1*
X1532047D2*
X1588176D1*
X1874427D2*
X1943017D1*
X2002083D2*
X2046431D1*
X1407519Y855700D2*
X1452854D1*
X1540673D2*
X1605754D1*
X1857736D2*
X1933185D1*
X1996157D2*
X2041829D1*
X1412441Y852700D2*
X1458506D1*
X1549973D2*
X1626765D1*
X1838561D2*
X1922659D1*
X1990173D2*
X2036939D1*
X1417779Y849700D2*
X1464552D1*
X1560236D2*
X1650424D1*
X1817327D2*
X1911369D1*
X1984078D2*
X2031613D1*
X1423445Y846700D2*
X1471178D1*
X1571820D2*
X1696200D1*
X1777200D2*
X1899157D1*
X1977687D2*
X2025953D1*
X1429296Y843700D2*
X1478152D1*
X1585177D2*
X1885580D1*
X1970864D2*
X2020103D1*
X1435236Y840700D2*
X1485189D1*
X1600894D2*
X1870102D1*
X1963701D2*
X2014164D1*
X1441224Y837700D2*
X1492286D1*
X1619437D2*
X1852243D1*
X1956331D2*
X2008176D1*
X1447321Y834700D2*
X1499827D1*
X1640642D2*
X1831908D1*
X1948679D2*
X2002078D1*
X1453713Y831700D2*
X1508059D1*
X1663200D2*
X1810200D1*
X1940416D2*
X1995687D1*
X1460547Y828700D2*
X1517021D1*
X1720200D2*
X1759200D1*
X1931274D2*
X1988853D1*
X1467804Y825700D2*
X1526667D1*
X1921441D2*
X1981596D1*
X1475451Y822700D2*
X1536872D1*
X1911128D2*
X1973949D1*
X1483440Y819700D2*
X1547713D1*
X1900237D2*
X1965960D1*
X1491741Y816700D2*
X1559585D1*
X1888439D2*
X1957647D1*
X1500544Y813700D2*
X1572960D1*
X1875326D2*
X1948751D1*
X1509843Y810700D2*
X1588240D1*
X1860336D2*
X1939175D1*
X1519563Y807700D2*
X1605670D1*
X1842503D2*
X1929106D1*
X1529935Y804700D2*
X1625359D1*
X1820766D2*
X1918590D1*
X1541123Y801700D2*
X1646882D1*
X1794793D2*
X1907371D1*
X1553282Y798700D2*
X1681200D1*
X1765655D2*
X1895122D1*
X1566799Y795700D2*
X1881705D1*
X1581911Y792700D2*
X1866919D1*
X1598287Y789700D2*
X1850852D1*
X1615200Y786700D2*
X1834200D1*
X2368700Y978200D2*
X2366164Y975200D1*
X2363907Y972200D1*
X2361684Y969200D1*
X2359221Y966200D1*
X2356606Y963200D1*
X2354115Y960200D1*
X2351886Y957200D1*
X2349676Y954200D1*
X2347207Y951200D1*
X2344499Y948200D1*
X2341733Y945200D1*
X2339168Y942200D1*
X2336907Y939200D1*
X2334683Y936200D1*
X2332209Y933200D1*
X2329488Y930200D1*
X2326616Y927200D1*
X2323668Y924200D1*
X2320689Y921200D1*
X2317696Y918200D1*
X2314699Y915200D1*
X2311700Y912200D1*
X2308700Y909200D1*
X2305700Y906200D1*
X2302700Y903200D1*
X2299700Y900200D1*
X2296700Y897200D1*
X2293688Y894200D1*
X2290583Y891200D1*
X2287200Y888200D1*
X2283482Y885200D1*
X2279713Y882200D1*
X2276178Y879200D1*
X2272794Y876200D1*
X2269285Y873200D1*
X2265513Y870200D1*
X2261712Y867200D1*
X2258076Y864200D1*
X2254413Y861200D1*
X2250555Y858200D1*
X2246627Y855200D1*
X2242690Y852200D1*
X2238580Y849200D1*
X2234310Y846200D1*
X2230132Y843200D1*
X2226564Y840200D1*
X2223717Y837200D1*
X2222676Y834200D1*
X2222114Y831200D1*
X2221862Y828200D1*
X2221760Y825200D1*
X2221733Y822200D1*
X2221848Y819200D1*
X2222158Y816200D1*
X2223986Y813200D1*
X2226851Y810200D1*
X2230526Y807200D1*
X2234572Y804200D1*
X2238641Y801200D1*
X2242643Y798200D1*
X2246693Y795200D1*
X2250711Y792200D1*
X2254675Y789200D1*
X2258694Y786200D1*
X2262611Y783200D1*
X2266295Y780200D1*
X2269976Y777200D1*
X2273830Y774200D1*
X2277654Y771200D1*
X2281199Y768200D1*
X2284485Y765200D1*
X2287615Y762200D1*
X2290668Y759200D1*
X2293689Y756200D1*
X2296696Y753200D1*
X2299699Y750200D1*
X2302700Y747200D1*
X2305700Y744200D1*
X2308700Y741200D1*
X2311700Y738200D1*
X2314700Y735200D1*
X2317700Y732200D1*
X2320700Y729200D1*
X2323700Y726200D1*
X2326700Y723200D1*
X2329700Y720200D1*
X2332688Y717200D1*
X2335583Y714200D1*
X2338200Y711200D1*
X2340482Y708200D1*
X2342713Y705200D1*
X2345178Y702200D1*
X2347794Y699200D1*
X2350285Y696200D1*
X2352513Y693200D1*
X2354712Y690200D1*
X2357076Y687200D1*
X2359411Y684200D1*
X2361539Y681200D1*
X2363591Y678200D1*
X2365700Y675200D1*
X2392700Y978200D2*
X2395236Y975200D1*
X2397493Y972200D1*
X2399716Y969200D1*
X2402179Y966200D1*
X2404794Y963200D1*
X2407285Y960200D1*
X2409514Y957200D1*
X2411724Y954200D1*
X2414193Y951200D1*
X2416901Y948200D1*
X2419667Y945200D1*
X2422232Y942200D1*
X2424493Y939200D1*
X2426717Y936200D1*
X2429191Y933200D1*
X2431912Y930200D1*
X2434784Y927200D1*
X2437732Y924200D1*
X2440711Y921200D1*
X2443704Y918200D1*
X2446701Y915200D1*
X2449700Y912200D1*
X2452700Y909200D1*
X2455700Y906200D1*
X2458700Y903200D1*
X2461700Y900200D1*
X2464712Y897200D1*
X2467817Y894200D1*
X2471200Y891200D1*
X2474918Y888200D1*
X2478687Y885200D1*
X2482210Y882200D1*
X2485500Y879200D1*
X2488733Y876200D1*
X2492168Y873200D1*
X2495918Y870200D1*
X2499801Y867200D1*
X2503709Y864200D1*
X2507718Y861200D1*
X2511720Y858200D1*
X2515678Y855200D1*
X2519707Y852200D1*
X2523705Y849200D1*
X2527548Y846200D1*
X2531067Y843200D1*
X2534144Y840200D1*
X2535442Y837200D1*
X2536157Y834200D1*
X2536485Y831200D1*
X2536620Y828200D1*
X2536672Y825200D1*
X2536690Y822200D1*
X2536673Y819200D1*
X2536453Y816200D1*
X2535926Y813200D1*
X2533610Y810200D1*
X2530391Y807200D1*
X2526516Y804200D1*
X2522293Y801200D1*
X2517996Y798200D1*
X2513822Y795200D1*
X2509780Y792200D1*
X2505727Y789200D1*
X2501797Y786200D1*
X2498108Y783200D1*
X2494424Y780200D1*
X2490570Y777200D1*
X2486746Y774200D1*
X2483201Y771200D1*
X2479915Y768200D1*
X2476785Y765200D1*
X2473720Y762200D1*
X2470594Y759200D1*
X2467204Y756200D1*
X2463483Y753200D1*
X2459713Y750200D1*
X2456190Y747200D1*
X2452911Y744200D1*
X2449796Y741200D1*
X2446849Y738200D1*
X2444211Y735200D1*
X2441922Y732200D1*
X2439688Y729200D1*
X2437211Y726200D1*
X2434489Y723200D1*
X2431616Y720200D1*
X2428669Y717200D1*
X2425700Y714200D1*
X2422813Y711200D1*
X2420198Y708200D1*
X2417918Y705200D1*
X2415687Y702200D1*
X2413222Y699200D1*
X2410606Y696200D1*
X2408115Y693200D1*
X2405898Y690200D1*
X2403793Y687200D1*
X2401708Y684200D1*
X2399733Y681200D1*
X2397760Y678200D1*
X2395700Y675200D1*
X2377700Y951200D2*
X2374700Y948200D1*
X2383700Y951200D2*
X2386700Y948200D1*
X2371700D2*
X2368700Y945200D1*
X2365700Y942200D1*
X2362700Y939200D1*
X2359700Y936200D1*
X2356700Y933200D1*
X2353700Y930200D1*
X2350700Y927200D1*
X2347700Y924200D1*
X2344700Y921200D1*
X2341700Y918200D1*
X2338700Y915200D1*
X2335700Y912200D1*
X2332700Y909200D1*
X2329700Y906200D1*
X2326700Y903200D1*
X2323688Y900200D1*
X2320583Y897200D1*
X2317200Y894200D1*
X2313482Y891200D1*
X2309713Y888200D1*
X2306190Y885200D1*
X2302911Y882200D1*
X2299784Y879200D1*
X2296732Y876200D1*
X2293711Y873200D1*
X2290704Y870200D1*
X2287701Y867200D1*
X2284700Y864200D1*
X2281700Y861200D1*
X2278700Y858200D1*
X2275700Y855200D1*
X2272700Y852200D1*
X2269700Y849200D1*
X2266700Y846200D1*
X2263700Y843200D1*
X2260700Y840200D1*
X2257712Y837200D1*
X2254829Y834200D1*
X2252340Y831200D1*
X2250311Y828200D1*
X2249739Y825200D1*
X2250496Y822200D1*
X2252568Y819200D1*
X2255068Y816200D1*
X2257844Y813200D1*
X2260753Y810200D1*
X2263719Y807200D1*
X2266706Y804200D1*
X2269702Y801200D1*
X2272701Y798200D1*
X2275700Y795200D1*
X2278700Y792200D1*
X2281700Y789200D1*
X2284700Y786200D1*
X2287700Y783200D1*
X2290700Y780200D1*
X2293712Y777200D1*
X2296817Y774200D1*
X2300200Y771200D1*
X2303918Y768200D1*
X2307687Y765200D1*
X2311210Y762200D1*
X2314489Y759200D1*
X2317616Y756200D1*
X2320668Y753200D1*
X2323689Y750200D1*
X2326696Y747200D1*
X2329699Y744200D1*
X2332700Y741200D1*
X2335700Y738200D1*
X2338700Y735200D1*
X2341700Y732200D1*
X2344700Y729200D1*
X2347700Y726200D1*
X2350700Y723200D1*
X2353700Y720200D1*
X2356700Y717200D1*
X2359712Y714200D1*
X2362826Y711200D1*
X2366290Y708200D1*
X2370315Y705200D1*
X2374700Y702200D1*
Y945200D2*
X2371700Y942200D1*
X2368700Y939200D1*
X2365700Y936200D1*
X2362700Y933200D1*
X2359700Y930200D1*
X2356700Y927200D1*
X2353700Y924200D1*
X2350700Y921200D1*
X2347700Y918200D1*
X2344700Y915200D1*
X2341700Y912200D1*
X2338700Y909200D1*
X2335700Y906200D1*
X2332700Y903200D1*
X2329700Y900200D1*
X2326700Y897200D1*
X2323688Y894200D1*
X2320583Y891200D1*
X2317200Y888200D1*
X2313482Y885200D1*
X2309713Y882200D1*
X2306190Y879200D1*
X2302911Y876200D1*
X2299784Y873200D1*
X2296732Y870200D1*
X2293711Y867200D1*
X2290704Y864200D1*
X2287701Y861200D1*
X2284700Y858200D1*
X2281700Y855200D1*
X2278700Y852200D1*
X2275700Y849200D1*
X2272700Y846200D1*
X2269700Y843200D1*
X2266700Y840200D1*
X2263712Y837200D1*
X2260829Y834200D1*
X2258340Y831200D1*
X2256311Y828200D1*
X2255739Y825200D1*
X2256496Y822200D1*
X2258568Y819200D1*
X2261068Y816200D1*
X2263844Y813200D1*
X2266753Y810200D1*
X2269719Y807200D1*
X2272706Y804200D1*
X2275702Y801200D1*
X2278701Y798200D1*
X2281700Y795200D1*
X2284700Y792200D1*
X2287700Y789200D1*
X2290700Y786200D1*
X2293712Y783200D1*
X2296817Y780200D1*
X2300200Y777200D1*
X2303918Y774200D1*
X2307687Y771200D1*
X2311210Y768200D1*
X2314489Y765200D1*
X2317616Y762200D1*
X2320668Y759200D1*
X2323689Y756200D1*
X2326696Y753200D1*
X2329699Y750200D1*
X2332700Y747200D1*
X2335700Y744200D1*
X2338700Y741200D1*
X2341700Y738200D1*
X2344700Y735200D1*
X2347700Y732200D1*
X2350700Y729200D1*
X2353700Y726200D1*
X2356700Y723200D1*
X2359700Y720200D1*
X2386700Y945200D2*
X2389700Y942200D1*
X2392700Y939200D1*
X2395700Y936200D1*
X2398700Y933200D1*
X2401700Y930200D1*
X2404700Y927200D1*
X2407700Y924200D1*
X2410700Y921200D1*
X2413700Y918200D1*
X2416700Y915200D1*
X2419700Y912200D1*
X2422700Y909200D1*
X2425700Y906200D1*
X2428700Y903200D1*
X2431700Y900200D1*
X2434700Y897200D1*
X2437700Y894200D1*
X2440700Y891200D1*
X2443712Y888200D1*
X2446817Y885200D1*
X2450200Y882200D1*
X2453918Y879200D1*
X2457687Y876200D1*
X2461210Y873200D1*
X2464489Y870200D1*
X2467616Y867200D1*
X2470668Y864200D1*
X2473689Y861200D1*
X2476696Y858200D1*
X2479699Y855200D1*
X2482700Y852200D1*
X2485700Y849200D1*
X2488700Y846200D1*
X2491700Y843200D1*
X2494688Y840200D1*
X2497583Y837200D1*
X2500198Y834200D1*
X2502455Y831200D1*
X2504562Y828200D1*
X2506700Y825200D1*
X2504726Y822200D1*
X2502618Y819200D1*
X2500187Y816200D1*
X2497481Y813200D1*
X2494613Y810200D1*
X2491668Y807200D1*
X2488689Y804200D1*
X2485696Y801200D1*
X2482699Y798200D1*
X2479700Y795200D1*
X2476700Y792200D1*
X2473700Y789200D1*
X2470688Y786200D1*
X2467583Y783200D1*
X2464200Y780200D1*
X2460482Y777200D1*
X2456713Y774200D1*
X2453190Y771200D1*
X2449911Y768200D1*
X2446784Y765200D1*
X2443732Y762200D1*
X2440711Y759200D1*
X2437704Y756200D1*
X2434701Y753200D1*
X2431700Y750200D1*
X2428700Y747200D1*
X2425700Y744200D1*
X2422700Y741200D1*
X2419700Y738200D1*
X2416700Y735200D1*
X2413700Y732200D1*
X2410700Y729200D1*
X2407700Y726200D1*
X2404700Y723200D1*
X2401700Y720200D1*
X2389700Y948200D2*
X2392700Y945200D1*
X2395700Y942200D1*
X2398700Y939200D1*
X2401700Y936200D1*
X2404700Y933200D1*
X2407700Y930200D1*
X2410700Y927200D1*
X2413700Y924200D1*
X2416700Y921200D1*
X2419700Y918200D1*
X2422700Y915200D1*
X2425700Y912200D1*
X2428700Y909200D1*
X2431700Y906200D1*
X2434700Y903200D1*
X2437700Y900200D1*
X2440700Y897200D1*
X2443712Y894200D1*
X2446817Y891200D1*
X2450200Y888200D1*
X2453918Y885200D1*
X2457687Y882200D1*
X2461210Y879200D1*
X2464489Y876200D1*
X2467616Y873200D1*
X2470668Y870200D1*
X2473689Y867200D1*
X2476696Y864200D1*
X2479699Y861200D1*
X2482700Y858200D1*
X2485700Y855200D1*
X2488700Y852200D1*
X2491700Y849200D1*
X2494700Y846200D1*
X2497700Y843200D1*
X2500688Y840200D1*
X2503583Y837200D1*
X2506198Y834200D1*
X2508455Y831200D1*
X2510562Y828200D1*
X2512700Y825200D1*
X2510726Y822200D1*
X2508618Y819200D1*
X2506187Y816200D1*
X2503481Y813200D1*
X2500613Y810200D1*
X2497668Y807200D1*
X2494689Y804200D1*
X2491696Y801200D1*
X2488699Y798200D1*
X2485700Y795200D1*
X2482700Y792200D1*
X2479700Y789200D1*
X2476700Y786200D1*
X2473700Y783200D1*
X2470688Y780200D1*
X2467583Y777200D1*
X2464200Y774200D1*
X2460482Y771200D1*
X2456713Y768200D1*
X2453190Y765200D1*
X2449911Y762200D1*
X2446784Y759200D1*
X2443732Y756200D1*
X2440711Y753200D1*
X2437704Y750200D1*
X2434701Y747200D1*
X2431700Y744200D1*
X2428700Y741200D1*
X2425700Y738200D1*
X2422700Y735200D1*
X2419700Y732200D1*
X2416700Y729200D1*
X2413700Y726200D1*
X2410700Y723200D1*
X2407700Y720200D1*
X2404700Y717200D1*
X2401688Y714200D1*
X2398574Y711200D1*
X2395110Y708200D1*
X2391085Y705200D1*
X2386700Y702200D1*
X2377700Y921200D2*
Y918200D1*
X2377688Y915200D1*
X2377583Y912200D1*
X2377200Y909200D1*
X2376470Y906200D1*
X2375596Y903200D1*
X2374690Y900200D1*
X2373693Y897200D1*
X2372797Y894200D1*
X2372219Y891200D1*
X2371904Y888200D1*
X2371700Y885200D1*
X2383700Y921200D2*
Y918200D1*
X2383712Y915200D1*
X2383817Y912200D1*
X2384200Y909200D1*
X2384918Y906200D1*
X2385699Y903200D1*
X2386328Y900200D1*
X2386988Y897200D1*
X2387834Y894200D1*
X2388664Y891200D1*
X2389253Y888200D1*
X2389700Y885200D1*
X2365700Y888200D2*
Y885200D1*
Y882200D1*
Y879200D1*
Y876200D1*
X2395700Y888200D2*
Y885200D1*
Y882200D1*
Y879200D1*
Y876200D1*
X2365700Y855200D2*
Y852200D1*
Y849200D1*
Y846200D1*
Y843200D1*
Y840200D1*
Y837200D1*
Y834200D1*
Y831200D1*
X2395700Y855200D2*
Y852200D1*
Y849200D1*
Y846200D1*
Y843200D1*
Y840200D1*
Y837200D1*
Y834200D1*
Y831200D1*
X2329700Y840200D2*
X2326700Y837200D1*
X2323700Y834200D1*
X2353700Y840200D2*
X2341700Y837200D1*
X2329700Y834200D1*
X2377700Y837200D2*
X2374512Y834200D1*
X2371700Y831200D1*
X2383700Y837200D2*
X2386887Y834200D1*
X2389700Y831200D1*
X2377700Y834200D2*
X2375301Y831200D1*
X2373308Y828200D1*
X2372725Y825200D1*
X2373534Y822200D1*
X2374700Y819200D1*
X2380700Y834200D2*
X2380148Y831200D1*
X2379096Y828200D1*
X2377700Y825200D1*
X2383700Y834200D2*
X2386099Y831200D1*
X2388092Y828200D1*
X2388675Y825200D1*
X2387866Y822200D1*
X2386700Y819200D1*
X2380700Y825200D2*
X2365700Y822200D2*
Y819200D1*
Y816200D1*
Y813200D1*
Y810200D1*
Y807200D1*
Y804200D1*
Y801200D1*
Y798200D1*
Y795200D1*
Y792200D1*
Y789200D1*
Y786200D1*
Y783200D1*
Y780200D1*
Y777200D1*
Y774200D1*
Y771200D1*
Y768200D1*
Y765200D1*
Y762200D1*
Y759200D1*
Y756200D1*
Y753200D1*
Y750200D1*
Y747200D1*
Y744200D1*
Y741200D1*
Y738200D1*
Y735200D1*
X2365688Y732200D1*
X2365559Y729200D1*
X2365243Y726200D1*
X2363740Y723200D1*
X2360447Y720200D1*
X2356700Y717200D1*
X2359712Y714200D1*
X2362826Y711200D1*
X2366290Y708200D1*
X2370315Y705200D1*
X2374700Y702200D1*
X2371700Y819200D2*
X2375919Y816200D1*
X2380700Y813200D1*
X2389700Y819200D2*
X2385481Y816200D1*
X2380700Y813200D1*
X2395700Y822200D2*
Y819200D1*
Y816200D1*
Y813200D1*
Y810200D1*
Y807200D1*
Y804200D1*
Y801200D1*
Y798200D1*
Y795200D1*
Y792200D1*
Y789200D1*
Y786200D1*
Y783200D1*
Y780200D1*
Y777200D1*
Y774200D1*
Y771200D1*
Y768200D1*
Y765200D1*
Y762200D1*
Y759200D1*
Y756200D1*
Y753200D1*
Y750200D1*
Y747200D1*
Y744200D1*
Y741200D1*
Y738200D1*
Y735200D1*
X2395712Y732200D1*
X2395841Y729200D1*
X2396157Y726200D1*
X2397660Y723200D1*
X2400953Y720200D1*
X2404700Y717200D1*
X2401688Y714200D1*
X2398574Y711200D1*
X2395110Y708200D1*
X2391085Y705200D1*
X2386700Y702200D1*
X2287700Y819200D2*
X2287712Y816200D1*
X2287829Y813200D1*
X2288328Y810200D1*
X2289535Y807200D1*
X2291454Y804200D1*
X2293700Y801200D1*
Y819200D2*
X2293712Y816200D1*
X2293829Y813200D1*
X2294328Y810200D1*
X2295535Y807200D1*
X2297454Y804200D1*
X2299700Y801200D1*
X2467700Y819200D2*
X2467688Y816200D1*
X2467571Y813200D1*
X2467072Y810200D1*
X2465865Y807200D1*
X2463946Y804200D1*
X2461700Y801200D1*
X2473700Y819200D2*
X2473688Y816200D1*
X2473571Y813200D1*
X2473072Y810200D1*
X2471865Y807200D1*
X2469946Y804200D1*
X2467700Y801200D1*
X2299700Y798200D2*
X2305604Y795200D1*
X2312752Y792200D1*
X2321766Y789200D1*
X2332738Y786200D1*
X2344700Y783200D1*
X2299700Y801200D2*
X2308224Y798200D1*
X2318504Y795200D1*
X2329996Y792200D1*
X2340303Y789200D1*
X2347822Y786200D1*
X2353700Y783200D1*
X2461700Y801200D2*
X2453176Y798200D1*
X2442896Y795200D1*
X2431404Y792200D1*
X2421097Y789200D1*
X2413578Y786200D1*
X2407700Y783200D1*
X2461700Y798200D2*
X2455796Y795200D1*
X2448648Y792200D1*
X2439634Y789200D1*
X2428662Y786200D1*
X2416700Y783200D1*
X2701200Y978200D2*
X2691405Y975200D1*
X2682789Y972200D1*
X2675348Y969200D1*
X2668679Y966200D1*
X2662496Y963200D1*
X2656776Y960200D1*
X2651558Y957200D1*
X2646706Y954200D1*
X2642060Y951200D1*
X2637605Y948200D1*
X2633485Y945200D1*
X2629896Y942200D1*
X2626831Y939200D1*
X2624016Y936200D1*
X2621017Y933200D1*
X2617853Y930200D1*
X2614982Y927200D1*
X2612547Y924200D1*
X2610252Y921200D1*
X2607848Y918200D1*
X2605496Y915200D1*
X2603348Y912200D1*
X2601274Y909200D1*
X2599211Y906200D1*
X2597320Y903200D1*
X2595613Y900200D1*
X2594014Y897200D1*
X2592476Y894200D1*
X2590958Y891200D1*
X2589454Y888200D1*
X2587962Y885200D1*
X2586592Y882200D1*
X2585401Y879200D1*
X2585453Y876200D1*
X2587530Y873200D1*
X2590200Y870200D1*
X2587430Y867200D1*
X2585379Y864200D1*
X2584753Y861200D1*
X2584428Y858200D1*
X2584310Y855200D1*
X2584483Y852200D1*
X2585002Y849200D1*
X2587337Y846200D1*
X2590200Y843200D1*
X2779200Y978200D2*
X2788433Y975200D1*
X2796900Y972200D1*
X2804549Y969200D1*
X2811449Y966200D1*
X2817779Y963200D1*
X2823572Y960200D1*
X2828822Y957200D1*
X2833687Y954200D1*
X2838338Y951200D1*
X2842794Y948200D1*
X2846927Y945200D1*
X2850609Y942200D1*
X2853951Y939200D1*
X2857091Y936200D1*
X2860047Y933200D1*
X2862688Y930200D1*
X2864978Y927200D1*
X2867211Y924200D1*
X2869677Y921200D1*
X2872294Y918200D1*
X2874773Y915200D1*
X2876896Y912200D1*
X2878725Y909200D1*
X2880464Y906200D1*
X2882308Y903200D1*
X2884263Y900200D1*
X2886108Y897200D1*
X2887797Y894200D1*
X2889378Y891200D1*
X2890820Y888200D1*
X2892049Y885200D1*
X2893110Y882200D1*
X2894182Y879200D1*
X2895207Y876200D1*
X2896174Y873200D1*
X2897194Y870200D1*
X2898099Y867200D1*
X2898677Y864200D1*
X2898977Y861200D1*
X2899112Y858200D1*
X2899167Y855200D1*
X2899188Y852200D1*
X2899196Y849200D1*
X2899199Y846200D1*
X2899200Y843200D1*
Y840200D1*
Y837200D1*
Y834200D1*
Y831200D1*
Y828200D1*
Y825200D1*
Y822200D1*
Y819200D1*
Y816200D1*
Y813200D1*
Y810200D1*
Y807200D1*
Y804200D1*
Y801200D1*
Y798200D1*
Y795200D1*
X2899188Y792200D1*
X2899083Y789200D1*
X2898700Y786200D1*
X2897970Y783200D1*
X2897096Y780200D1*
X2896178Y777200D1*
X2895076Y774200D1*
X2893797Y771200D1*
X2892491Y768200D1*
X2891307Y765200D1*
X2890161Y762200D1*
X2888715Y759200D1*
X2886973Y756200D1*
X2885227Y753200D1*
X2883567Y750200D1*
X2881884Y747200D1*
X2879972Y744200D1*
X2877738Y741200D1*
X2875455Y738200D1*
X2873322Y735200D1*
X2871152Y732200D1*
X2868698Y729200D1*
X2865984Y726200D1*
X2863114Y723200D1*
X2860168Y720200D1*
X2857189Y717200D1*
X2854184Y714200D1*
X2851082Y711200D1*
X2847688Y708200D1*
X2843865Y705200D1*
X2839702Y702200D1*
X2835343Y699200D1*
X2830796Y696200D1*
X2825927Y693200D1*
X2820598Y690200D1*
X2814822Y687200D1*
X2808475Y684200D1*
X2801329Y681200D1*
X2793434Y678200D1*
X2785200Y675200D1*
X2728200Y954200D2*
X2716687Y951200D1*
X2705665Y948200D1*
X2695453Y945200D1*
X2686520Y942200D1*
X2679155Y939200D1*
X2673034Y936200D1*
X2667550Y933200D1*
X2662425Y930200D1*
X2657865Y927200D1*
X2653960Y924200D1*
X2650504Y921200D1*
X2647217Y918200D1*
X2643863Y915200D1*
X2640497Y912200D1*
X2637436Y909200D1*
X2634690Y906200D1*
X2632040Y903200D1*
X2629584Y900200D1*
X2627483Y897200D1*
X2625678Y894200D1*
X2624038Y891200D1*
X2622484Y888200D1*
X2620961Y885200D1*
X2619455Y882200D1*
X2617950Y879200D1*
X2616442Y876200D1*
X2614862Y873200D1*
X2613111Y870200D1*
X2611200Y867200D1*
X2752200Y954200D2*
X2763713Y951200D1*
X2774735Y948200D1*
X2784947Y945200D1*
X2793880Y942200D1*
X2801245Y939200D1*
X2807366Y936200D1*
X2812850Y933200D1*
X2817975Y930200D1*
X2822535Y927200D1*
X2826440Y924200D1*
X2829884Y921200D1*
X2833077Y918200D1*
X2836155Y915200D1*
X2839184Y912200D1*
X2842195Y909200D1*
X2845186Y906200D1*
X2848082Y903200D1*
X2850700Y900200D1*
X2852970Y897200D1*
X2855084Y894200D1*
X2857073Y891200D1*
X2858682Y888200D1*
X2859962Y885200D1*
X2861223Y882200D1*
X2862577Y879200D1*
X2864013Y876200D1*
X2865588Y873200D1*
X2867459Y870200D1*
X2869729Y867200D1*
X2872200Y864200D1*
X2590200Y876200D2*
X2587200Y873200D1*
X2596200Y876200D2*
X2601599Y873200D1*
X2606236Y870200D1*
X2609741Y867200D1*
X2612404Y864200D1*
X2613333Y861200D1*
X2613833Y858200D1*
X2614066Y855200D1*
X2614200Y852200D1*
X2630459Y849200D1*
X2642742Y846200D1*
X2647373Y843200D1*
X2649201Y840200D1*
X2649755Y837200D1*
X2650026Y834200D1*
X2650137Y831200D1*
X2650178Y828200D1*
X2650193Y825200D1*
X2650198Y822200D1*
X2650199Y819200D1*
X2650200Y816200D1*
Y813200D1*
Y810200D1*
Y807200D1*
Y804200D1*
Y801200D1*
X2599200Y870200D2*
X2602433Y867200D1*
X2604900Y864200D1*
X2606537Y861200D1*
X2607602Y858200D1*
X2607438Y855200D1*
X2606629Y852200D1*
X2604987Y849200D1*
X2602392Y846200D1*
X2599200Y843200D1*
X2662200Y864200D2*
X2668203Y861200D1*
X2672993Y858200D1*
X2675384Y855200D1*
X2676330Y852200D1*
X2676834Y849200D1*
X2677058Y846200D1*
X2677148Y843200D1*
X2677182Y840200D1*
X2677194Y837200D1*
X2677198Y834200D1*
X2677199Y831200D1*
X2677200Y828200D1*
Y825200D1*
Y822200D1*
Y819200D1*
Y816200D1*
Y813200D1*
Y810200D1*
X2677188Y807200D1*
X2677083Y804200D1*
X2676689Y801200D1*
X2675855Y798200D1*
X2674615Y795200D1*
X2673021Y792200D1*
X2671200Y789200D1*
X2713200Y864200D2*
X2711340Y861200D1*
X2709629Y858200D1*
X2708022Y855200D1*
X2706479Y852200D1*
X2704971Y849200D1*
X2703560Y846200D1*
X2702344Y843200D1*
X2701276Y840200D1*
X2700112Y837200D1*
X2698798Y834200D1*
X2697390Y831200D1*
X2695937Y828200D1*
X2694548Y825200D1*
X2693340Y822200D1*
X2692274Y819200D1*
X2691112Y816200D1*
X2689798Y813200D1*
X2688390Y810200D1*
X2686926Y807200D1*
X2685443Y804200D1*
X2683946Y801200D1*
X2682441Y798200D1*
X2680861Y795200D1*
X2679111Y792200D1*
X2677200Y789200D1*
X2746200Y864200D2*
X2746314Y861200D1*
X2746710Y858200D1*
X2747535Y855200D1*
X2748698Y852200D1*
X2750046Y849200D1*
X2751487Y846200D1*
X2752961Y843200D1*
X2754456Y840200D1*
X2755950Y837200D1*
X2757452Y834200D1*
X2758949Y831200D1*
X2760451Y828200D1*
X2761949Y825200D1*
X2763439Y822200D1*
X2764843Y819200D1*
X2766057Y816200D1*
X2767125Y813200D1*
X2768288Y810200D1*
X2769602Y807200D1*
X2771022Y804200D1*
X2772592Y801200D1*
X2774468Y798200D1*
X2776787Y795200D1*
X2779428Y792200D1*
X2782200Y789200D1*
X2797200Y864200D2*
X2790635Y861200D1*
X2785530Y858200D1*
X2783487Y855200D1*
X2782792Y852200D1*
X2782439Y849200D1*
X2782289Y846200D1*
X2782232Y843200D1*
X2782234Y840200D1*
X2782456Y837200D1*
X2782997Y834200D1*
X2785335Y831200D1*
X2788200Y828200D1*
X2785790Y825200D1*
X2784035Y822200D1*
X2783030Y819200D1*
X2782543Y816200D1*
X2782332Y813200D1*
X2782248Y810200D1*
X2782217Y807200D1*
Y804200D1*
X2782331Y801200D1*
X2782828Y798200D1*
X2784035Y795200D1*
X2785954Y792200D1*
X2788200Y789200D1*
X2863200Y861200D2*
Y858200D1*
Y855200D1*
Y852200D1*
Y849200D1*
Y846200D1*
Y843200D1*
Y840200D1*
Y837200D1*
Y834200D1*
Y831200D1*
Y828200D1*
Y825200D1*
Y822200D1*
Y819200D1*
Y816200D1*
Y813200D1*
Y810200D1*
Y807200D1*
Y804200D1*
Y801200D1*
Y798200D1*
Y795200D1*
Y792200D1*
X2872200Y861200D2*
Y858200D1*
X2872212Y855200D1*
X2872317Y852200D1*
X2872700Y849200D1*
X2873418Y846200D1*
X2874187Y843200D1*
X2874710Y840200D1*
X2874989Y837200D1*
X2875116Y834200D1*
X2875168Y831200D1*
X2875189Y828200D1*
X2875196Y825200D1*
X2875199Y822200D1*
X2875200Y819200D1*
X2875188Y816200D1*
X2875083Y813200D1*
X2874700Y810200D1*
X2873982Y807200D1*
X2873213Y804200D1*
X2872690Y801200D1*
X2872411Y798200D1*
X2872278Y795200D1*
X2872200Y792200D1*
X2812200Y852200D2*
Y849200D1*
X2812212Y846200D1*
X2812326Y843200D1*
X2812790Y840200D1*
X2813815Y837200D1*
X2815200Y834200D1*
X2836200Y852200D2*
Y849200D1*
X2836188Y846200D1*
X2836074Y843200D1*
X2835610Y840200D1*
X2834585Y837200D1*
X2833200Y834200D1*
X2737200Y843200D2*
X2734675Y840200D1*
X2732536Y837200D1*
X2730801Y834200D1*
X2729430Y831200D1*
X2728230Y828200D1*
X2726824Y825200D1*
X2725200Y822200D1*
X2737200Y843200D2*
X2739622Y840200D1*
X2741482Y837200D1*
X2742881Y834200D1*
X2744201Y831200D1*
X2745653Y828200D1*
X2747333Y825200D1*
X2749200Y822200D1*
X2812200D2*
Y819200D1*
Y816200D1*
Y813200D1*
Y810200D1*
Y807200D1*
Y804200D1*
X2836200Y822200D2*
Y819200D1*
Y816200D1*
Y813200D1*
Y810200D1*
Y807200D1*
Y804200D1*
X2587200Y807200D2*
X2585815Y804200D1*
X2584954Y801200D1*
X2584518Y798200D1*
X2584336Y795200D1*
X2584433Y792200D1*
X2584853Y789200D1*
X2587756Y786200D1*
X2595723Y783200D1*
X2605200Y780200D1*
X2602200Y807200D2*
X2604610Y804200D1*
X2606365Y801200D1*
X2607358Y798200D1*
X2607728Y795200D1*
X2607710Y792200D1*
X2606375Y789200D1*
X2601579Y786200D1*
X2593845Y783200D1*
X2584200Y780200D1*
X2722200Y807200D2*
X2719675Y804200D1*
X2717548Y801200D1*
X2715938Y798200D1*
X2714763Y795200D1*
X2715282Y792200D1*
X2716200Y789200D1*
X2755200Y807200D2*
X2757622Y804200D1*
X2759491Y801200D1*
X2760962Y798200D1*
X2762499Y795200D1*
X2764200Y792200D1*
X2761200Y789200D1*
X2614200Y801200D2*
Y798200D1*
Y795200D1*
Y792200D1*
Y789200D1*
X2611200Y786200D2*
X2608200Y783200D1*
X2605200Y780200D1*
X2872200Y789200D2*
X2869778Y786200D1*
X2867918Y783200D1*
X2866519Y780200D1*
X2865208Y777200D1*
X2863834Y774200D1*
X2862403Y771200D1*
X2860930Y768200D1*
X2859433Y765200D1*
X2857829Y762200D1*
X2855951Y759200D1*
X2853731Y756200D1*
X2851452Y753200D1*
X2849321Y750200D1*
X2847151Y747200D1*
X2844698Y744200D1*
X2841973Y741200D1*
X2838997Y738200D1*
X2835669Y735200D1*
X2831959Y732200D1*
X2828092Y729200D1*
X2824177Y726200D1*
X2820064Y723200D1*
X2815668Y720200D1*
X2810851Y717200D1*
X2805331Y714200D1*
X2798664Y711200D1*
X2790156Y708200D1*
X2779323Y705200D1*
X2766322Y702200D1*
X2752200Y699200D1*
X2611200Y783200D2*
X2613060Y780200D1*
X2614771Y777200D1*
X2616378Y774200D1*
X2617932Y771200D1*
X2619546Y768200D1*
X2621339Y765200D1*
X2623274Y762200D1*
X2625112Y759200D1*
X2626810Y756200D1*
X2628507Y753200D1*
X2630437Y750200D1*
X2632778Y747200D1*
X2635444Y744200D1*
X2638296Y741200D1*
X2641247Y738200D1*
X2644330Y735200D1*
X2647716Y732200D1*
X2651548Y729200D1*
X2655804Y726200D1*
X2660440Y723200D1*
X2665323Y720200D1*
X2670265Y717200D1*
X2675572Y714200D1*
X2682007Y711200D1*
X2690369Y708200D1*
X2701128Y705200D1*
X2714097Y702200D1*
X2728200Y699200D1*
X2584200Y777200D2*
X2585237Y774200D1*
X2586236Y771200D1*
X2587198Y768200D1*
X2588328Y765200D1*
X2589717Y762200D1*
X2591407Y759200D1*
X2593300Y756200D1*
X2595121Y753200D1*
X2596813Y750200D1*
X2598508Y747200D1*
X2600425Y744200D1*
X2602661Y741200D1*
X2604945Y738200D1*
X2607078Y735200D1*
X2609248Y732200D1*
X2611702Y729200D1*
X2614416Y726200D1*
X2617286Y723200D1*
X2620232Y720200D1*
X2623211Y717200D1*
X2626216Y714200D1*
X2629318Y711200D1*
X2632700Y708200D1*
X2636430Y705200D1*
X2640316Y702200D1*
X2644327Y699200D1*
X2648730Y696200D1*
X2653567Y693200D1*
X2658806Y690200D1*
X2664681Y687200D1*
X2671349Y684200D1*
X2678774Y681200D1*
X2686844Y678200D1*
X2695200Y675200D1*
X1642200Y1215700D2*
X1620183Y1212700D1*
X1600217Y1209700D1*
X1582627Y1206700D1*
X1567264Y1203700D1*
X1553644Y1200700D1*
X1541342Y1197700D1*
X1530139Y1194700D1*
X1519722Y1191700D1*
X1509850Y1188700D1*
X1500583Y1185700D1*
X1491845Y1182700D1*
X1483451Y1179700D1*
X1475426Y1176700D1*
X1467765Y1173700D1*
X1460537Y1170700D1*
X1453815Y1167700D1*
X1447457Y1164700D1*
X1441300Y1161700D1*
X1435237Y1158700D1*
X1429225Y1155700D1*
X1423322Y1152700D1*
X1417713Y1149700D1*
X1412536Y1146700D1*
X1407687Y1143700D1*
X1402940Y1140700D1*
X1398105Y1137700D1*
X1393255Y1134700D1*
X1388792Y1131700D1*
X1384821Y1128700D1*
X1381009Y1125700D1*
X1377102Y1122700D1*
X1373257Y1119700D1*
X1369705Y1116700D1*
X1366417Y1113700D1*
X1363286Y1110700D1*
X1360232Y1107700D1*
X1357211Y1104700D1*
X1354204Y1101700D1*
X1351201Y1098700D1*
X1348200Y1095700D1*
X1345200Y1092700D1*
X1342212Y1089700D1*
X1339317Y1086700D1*
X1336700Y1083700D1*
X1334430Y1080700D1*
X1332304Y1077700D1*
X1330222Y1074700D1*
X1328324Y1071700D1*
X1326603Y1068700D1*
X1324909Y1065700D1*
X1323093Y1062700D1*
X1321239Y1059700D1*
X1319685Y1056700D1*
X1318427Y1053700D1*
X1317173Y1050700D1*
X1315833Y1047700D1*
X1314504Y1044700D1*
X1313323Y1041700D1*
X1312280Y1038700D1*
X1311227Y1035700D1*
X1310309Y1032700D1*
X1309725Y1029700D1*
X1309424Y1026700D1*
X1309288Y1023700D1*
X1309233Y1020700D1*
X1309212Y1017700D1*
X1309204Y1014700D1*
X1309201Y1011700D1*
X1309200Y1008700D1*
Y1005700D1*
Y1002700D1*
Y999700D1*
Y996700D1*
Y993700D1*
Y990700D1*
Y987700D1*
Y984700D1*
Y981700D1*
Y978700D1*
X1309212Y975700D1*
X1309317Y972700D1*
X1309700Y969700D1*
X1310430Y966700D1*
X1311304Y963700D1*
X1312222Y960700D1*
X1313324Y957700D1*
X1314603Y954700D1*
X1315909Y951700D1*
X1317093Y948700D1*
X1318239Y945700D1*
X1319685Y942700D1*
X1321427Y939700D1*
X1323173Y936700D1*
X1324833Y933700D1*
X1326504Y930700D1*
X1328323Y927700D1*
X1330280Y924700D1*
X1332227Y921700D1*
X1334309Y918700D1*
X1336725Y915700D1*
X1339424Y912700D1*
X1342288Y909700D1*
X1345233Y906700D1*
X1348212Y903700D1*
X1351204Y900700D1*
X1354201Y897700D1*
X1357200Y894700D1*
X1360200Y891700D1*
X1363212Y888700D1*
X1366317Y885700D1*
X1369700Y882700D1*
X1373418Y879700D1*
X1377199Y876700D1*
X1380839Y873700D1*
X1384605Y870700D1*
X1388845Y867700D1*
X1393491Y864700D1*
X1398198Y861700D1*
X1402842Y858700D1*
X1407519Y855700D1*
X1412441Y852700D1*
X1417779Y849700D1*
X1423445Y846700D1*
X1429296Y843700D1*
X1435236Y840700D1*
X1441224Y837700D1*
X1447321Y834700D1*
X1453713Y831700D1*
X1460547Y828700D1*
X1467804Y825700D1*
X1475451Y822700D1*
X1483440Y819700D1*
X1491741Y816700D1*
X1500544Y813700D1*
X1509843Y810700D1*
X1519563Y807700D1*
X1529935Y804700D1*
X1541123Y801700D1*
X1553282Y798700D1*
X1566799Y795700D1*
X1581911Y792700D1*
X1598287Y789700D1*
X1615200Y786700D1*
X1807200Y1215700D2*
X1829114Y1212700D1*
X1848801Y1209700D1*
X1866043Y1206700D1*
X1881261Y1203700D1*
X1894850Y1200700D1*
X1907061Y1197700D1*
X1918365Y1194700D1*
X1929102Y1191700D1*
X1939251Y1188700D1*
X1948682Y1185700D1*
X1957500Y1182700D1*
X1965928Y1179700D1*
X1973967Y1176700D1*
X1981632Y1173700D1*
X1988862Y1170700D1*
X1995585Y1167700D1*
X2001942Y1164700D1*
X2008100Y1161700D1*
X2014163Y1158700D1*
X2020175Y1155700D1*
X2026078Y1152700D1*
X2031687Y1149700D1*
X2036864Y1146700D1*
X2041701Y1143700D1*
X2046354Y1140700D1*
X2050913Y1137700D1*
X2055427Y1134700D1*
X2059839Y1131700D1*
X2064056Y1128700D1*
X2068113Y1125700D1*
X2072171Y1122700D1*
X2076090Y1119700D1*
X2079675Y1116700D1*
X2082976Y1113700D1*
X2086112Y1110700D1*
X2089167Y1107700D1*
X2092188Y1104700D1*
X2095196Y1101700D1*
X2098199Y1098700D1*
X2101188Y1095700D1*
X2104083Y1092700D1*
X2106700Y1089700D1*
X2108982Y1086700D1*
X2111201Y1083700D1*
X2113572Y1080700D1*
X2115912Y1077700D1*
X2118054Y1074700D1*
X2120127Y1071700D1*
X2122190Y1068700D1*
X2124080Y1065700D1*
X2125787Y1062700D1*
X2127386Y1059700D1*
X2128924Y1056700D1*
X2130431Y1053700D1*
X2131840Y1050700D1*
X2133056Y1047700D1*
X2134113Y1044700D1*
X2135171Y1041700D1*
X2136090Y1038700D1*
X2136675Y1035700D1*
X2136976Y1032700D1*
X2137112Y1029700D1*
X2137167Y1026700D1*
X2137188Y1023700D1*
X2137196Y1020700D1*
X2137199Y1017700D1*
X2137200Y1014700D1*
Y1011700D1*
Y1008700D1*
Y1005700D1*
Y1002700D1*
Y999700D1*
Y996700D1*
Y993700D1*
Y990700D1*
Y987700D1*
Y984700D1*
Y981700D1*
Y978700D1*
Y975700D1*
Y972700D1*
X2137188Y969700D1*
X2137083Y966700D1*
X2136700Y963700D1*
X2135970Y960700D1*
X2135096Y957700D1*
X2134178Y954700D1*
X2133076Y951700D1*
X2131786Y948700D1*
X2130386Y945700D1*
X2128924Y942700D1*
X2127431Y939700D1*
X2125840Y936700D1*
X2124056Y933700D1*
X2122113Y930700D1*
X2120171Y927700D1*
X2118102Y924700D1*
X2115792Y921700D1*
X2113475Y918700D1*
X2111330Y915700D1*
X2109154Y912700D1*
X2106699Y909700D1*
X2103985Y906700D1*
X2101115Y903700D1*
X2098168Y900700D1*
X2095189Y897700D1*
X2092196Y894700D1*
X2089199Y891700D1*
X2086188Y888700D1*
X2083083Y885700D1*
X2079700Y882700D1*
X2075970Y879700D1*
X2072096Y876700D1*
X2068178Y873700D1*
X2064076Y870700D1*
X2059786Y867700D1*
X2055386Y864700D1*
X2050924Y861700D1*
X2046431Y858700D1*
X2041829Y855700D1*
X2036939Y852700D1*
X2031613Y849700D1*
X2025953Y846700D1*
X2020103Y843700D1*
X2014164Y840700D1*
X2008176Y837700D1*
X2002078Y834700D1*
X1995687Y831700D1*
X1988853Y828700D1*
X1981596Y825700D1*
X1973949Y822700D1*
X1965960Y819700D1*
X1957647Y816700D1*
X1948751Y813700D1*
X1939175Y810700D1*
X1929106Y807700D1*
X1918590Y804700D1*
X1907371Y801700D1*
X1895122Y798700D1*
X1881705Y795700D1*
X1866919Y792700D1*
X1850852Y789700D1*
X1834200Y786700D1*
X1684200Y1203700D2*
X1681200Y1200700D1*
X1735200Y1203700D2*
X1766643Y1200700D1*
X1795623Y1197700D1*
X1820754Y1194700D1*
X1841862Y1191700D1*
X1859592Y1188700D1*
X1874745Y1185700D1*
X1887984Y1182700D1*
X1899884Y1179700D1*
X1911013Y1176700D1*
X1921659Y1173700D1*
X1931753Y1170700D1*
X1940977Y1167700D1*
X1949217Y1164700D1*
X1956767Y1161700D1*
X1964037Y1158700D1*
X1971042Y1155700D1*
X1977657Y1152700D1*
X1983970Y1149700D1*
X1990110Y1146700D1*
X1996166Y1143700D1*
X2002176Y1140700D1*
X2008067Y1137700D1*
X2013582Y1134700D1*
X2018482Y1131700D1*
X2022983Y1128700D1*
X2027573Y1125700D1*
X2032284Y1122700D1*
X2036766Y1119700D1*
X2040982Y1116700D1*
X2045117Y1113700D1*
X2049070Y1110700D1*
X2052667Y1107700D1*
X2055973Y1104700D1*
X2059111Y1101700D1*
X2062167Y1098700D1*
X2065188Y1095700D1*
X2068196Y1092700D1*
X2071199Y1089700D1*
X2074200Y1086700D1*
X2077188Y1083700D1*
X2080083Y1080700D1*
X2082700Y1077700D1*
X2084970Y1074700D1*
X2087096Y1071700D1*
X2089190Y1068700D1*
X2091182Y1065700D1*
X2093180Y1062700D1*
X2095210Y1059700D1*
X2097087Y1056700D1*
X2098790Y1053700D1*
X2100387Y1050700D1*
X2101925Y1047700D1*
X2103431Y1044700D1*
X2104840Y1041700D1*
X2106056Y1038700D1*
X2107113Y1035700D1*
X2108171Y1032700D1*
X2109090Y1029700D1*
X2109686Y1026700D1*
X2110093Y1023700D1*
X2110611Y1020700D1*
X2111385Y1017700D1*
X2112175Y1014700D1*
X2112706Y1011700D1*
X2112987Y1008700D1*
X2113115Y1005700D1*
X2113168Y1002700D1*
X2113189Y999700D1*
X2113196Y996700D1*
X2113187Y993700D1*
X2113082Y990700D1*
X2112700Y987700D1*
X2111982Y984700D1*
X2111213Y981700D1*
X2110678Y978700D1*
X2110294Y975700D1*
X2109785Y972700D1*
X2109002Y969700D1*
X2108107Y966700D1*
X2107182Y963700D1*
X2106077Y960700D1*
X2104786Y957700D1*
X2103386Y954700D1*
X2101924Y951700D1*
X2100431Y948700D1*
X2098840Y945700D1*
X2097056Y942700D1*
X2095113Y939700D1*
X2093182Y936700D1*
X2091208Y933700D1*
X2089174Y930700D1*
X2087194Y927700D1*
X2085099Y924700D1*
X2082677Y921700D1*
X2079977Y918700D1*
X2077112Y915700D1*
X2074167Y912700D1*
X2071188Y909700D1*
X2068196Y906700D1*
X2065199Y903700D1*
X2062200Y900700D1*
X2059188Y897700D1*
X2056083Y894700D1*
X2052700Y891700D1*
X2048970Y888700D1*
X2045084Y885700D1*
X2041073Y882700D1*
X2036694Y879700D1*
X2032067Y876700D1*
X2027605Y873700D1*
X2023284Y870700D1*
X2018653Y867700D1*
X2013483Y864700D1*
X2007899Y861700D1*
X2002083Y858700D1*
X1996157Y855700D1*
X1990173Y852700D1*
X1984078Y849700D1*
X1977687Y846700D1*
X1970864Y843700D1*
X1963701Y840700D1*
X1956331Y837700D1*
X1948679Y834700D1*
X1940416Y831700D1*
X1931274Y828700D1*
X1921441Y825700D1*
X1911128Y822700D1*
X1900237Y819700D1*
X1888439Y816700D1*
X1875326Y813700D1*
X1860336Y810700D1*
X1842503Y807700D1*
X1820766Y804700D1*
X1794793Y801700D1*
X1765655Y798700D1*
X1735200Y795700D1*
X1669200Y1200700D2*
X1646403Y1197700D1*
X1625116Y1194700D1*
X1606000Y1191700D1*
X1589091Y1188700D1*
X1574031Y1185700D1*
X1560509Y1182700D1*
X1548336Y1179700D1*
X1537136Y1176700D1*
X1526691Y1173700D1*
X1516995Y1170700D1*
X1508092Y1167700D1*
X1500036Y1164700D1*
X1492573Y1161700D1*
X1485340Y1158700D1*
X1478350Y1155700D1*
X1471740Y1152700D1*
X1465429Y1149700D1*
X1459290Y1146700D1*
X1453233Y1143700D1*
X1447224Y1140700D1*
X1441321Y1137700D1*
X1435713Y1134700D1*
X1430536Y1131700D1*
X1425699Y1128700D1*
X1421057Y1125700D1*
X1416593Y1122700D1*
X1412356Y1119700D1*
X1408291Y1116700D1*
X1404231Y1113700D1*
X1400298Y1110700D1*
X1396620Y1107700D1*
X1393030Y1104700D1*
X1389465Y1101700D1*
X1386081Y1098700D1*
X1382970Y1095700D1*
X1380157Y1092700D1*
X1377551Y1089700D1*
X1374870Y1086700D1*
X1372053Y1083700D1*
X1369152Y1080700D1*
X1366294Y1077700D1*
X1363691Y1074700D1*
X1361427Y1071700D1*
X1359303Y1068700D1*
X1357210Y1065700D1*
X1355218Y1062700D1*
X1353232Y1059700D1*
X1351296Y1056700D1*
X1349707Y1053700D1*
X1348434Y1050700D1*
X1347176Y1047700D1*
X1345834Y1044700D1*
X1344504Y1041700D1*
X1343323Y1038700D1*
X1342280Y1035700D1*
X1341227Y1032700D1*
X1340297Y1029700D1*
X1339608Y1026700D1*
X1338924Y1023700D1*
X1338070Y1020700D1*
X1337246Y1017700D1*
X1336701Y1014700D1*
X1336415Y1011700D1*
X1336285Y1008700D1*
X1336232Y1005700D1*
X1336211Y1002700D1*
X1336204Y999700D1*
X1336201Y996700D1*
X1336200Y993700D1*
X1336212Y990700D1*
X1336317Y987700D1*
X1336700Y984700D1*
X1337418Y981700D1*
X1338199Y978700D1*
X1338828Y975700D1*
X1339488Y972700D1*
X1340346Y969700D1*
X1341273Y966700D1*
X1342210Y963700D1*
X1343320Y960700D1*
X1344601Y957700D1*
X1345908Y954700D1*
X1347093Y951700D1*
X1348239Y948700D1*
X1349685Y945700D1*
X1351438Y942700D1*
X1353279Y939700D1*
X1355216Y936700D1*
X1357234Y933700D1*
X1359209Y930700D1*
X1361302Y927700D1*
X1363723Y924700D1*
X1366423Y921700D1*
X1369276Y918700D1*
X1372104Y915700D1*
X1374584Y912700D1*
X1376369Y909700D1*
X1377448Y906700D1*
X1378200Y903700D1*
X1384200D1*
X1386841Y900700D1*
X1389884Y897700D1*
X1393122Y894700D1*
X1396605Y891700D1*
X1400389Y888700D1*
X1404288Y885700D1*
X1408216Y882700D1*
X1412322Y879700D1*
X1416614Y876700D1*
X1421026Y873700D1*
X1425593Y870700D1*
X1430469Y867700D1*
X1435789Y864700D1*
X1441437Y861700D1*
X1447192Y858700D1*
X1452854Y855700D1*
X1458506Y852700D1*
X1464552Y849700D1*
X1471178Y846700D1*
X1478152Y843700D1*
X1485189Y840700D1*
X1492286Y837700D1*
X1499827Y834700D1*
X1508059Y831700D1*
X1517021Y828700D1*
X1526667Y825700D1*
X1536872Y822700D1*
X1547713Y819700D1*
X1559585Y816700D1*
X1572960Y813700D1*
X1588240Y810700D1*
X1605670Y807700D1*
X1625359Y804700D1*
X1646882Y801700D1*
X1669200Y798700D1*
X1966200Y1113700D2*
X1967701Y1110700D1*
X1969443Y1107700D1*
X1971183Y1104700D1*
X1972826Y1101700D1*
X1974400Y1098700D1*
X1975929Y1095700D1*
X1977444Y1092700D1*
X1978958Y1089700D1*
X1980567Y1086700D1*
X1982451Y1083700D1*
X1984726Y1080700D1*
X1987200Y1077700D1*
X1969200Y1074700D1*
X1974648Y1071700D1*
X1979596Y1068700D1*
X1984200Y1065700D1*
X1977725Y1062700D1*
X1970875Y1059700D1*
X1963714Y1056700D1*
X1956443Y1053700D1*
X1949255Y1050700D1*
X1942200Y1047700D1*
X1969200Y1110700D2*
X1972561Y1107700D1*
X1976026Y1104700D1*
X1979466Y1101700D1*
X1982940Y1098700D1*
X1986465Y1095700D1*
X1989839Y1092700D1*
X1993055Y1089700D1*
X1996200Y1086700D1*
X2041200Y1110700D2*
X2038200Y1107700D1*
X2035200Y1104700D1*
X2032200Y1101700D1*
X2029200Y1098700D1*
X2026200Y1095700D1*
X2023200Y1092700D1*
X2020200Y1089700D1*
X2017200Y1086700D1*
X2041200Y1107700D2*
X2039237Y1104700D1*
X2037236Y1101700D1*
X2035187Y1098700D1*
X2033211Y1095700D1*
X2031218Y1092700D1*
X2029189Y1089700D1*
X2027322Y1086700D1*
X2025697Y1083700D1*
X2024348Y1080700D1*
X2023200Y1077700D1*
X2038200Y1074700D1*
X2034147Y1071700D1*
X2030127Y1068700D1*
X2026200Y1065700D1*
X2031852Y1062700D1*
X2037989Y1059700D1*
X2044506Y1056700D1*
X2051351Y1053700D1*
X2058301Y1050700D1*
X2065200Y1047700D1*
X2005200Y1098700D2*
X2004174Y1095700D1*
X2003273Y1092700D1*
X2002658Y1089700D1*
X2002200Y1086700D1*
X2005200Y1092700D2*
X2006606Y1089700D1*
X2008200Y1086700D1*
X1384200Y1083700D2*
Y1080700D1*
Y1077700D1*
Y1074700D1*
Y1071700D1*
Y1068700D1*
Y1065700D1*
Y1062700D1*
Y1059700D1*
Y1056700D1*
Y1053700D1*
X1384212Y1050700D1*
X1384317Y1047700D1*
X1384700Y1044700D1*
X1385418Y1041700D1*
X1386187Y1038700D1*
X1386722Y1035700D1*
X1387106Y1032700D1*
X1387615Y1029700D1*
X1388387Y1026700D1*
X1389188Y1023700D1*
X1389824Y1020700D1*
X1390487Y1017700D1*
X1391333Y1014700D1*
X1392167Y1011700D1*
X1392816Y1008700D1*
X1393496Y1005700D1*
X1394450Y1002700D1*
X1395655Y999700D1*
X1396905Y996700D1*
X1397855Y993700D1*
X1398385Y990700D1*
X1397666Y987700D1*
X1396400Y984700D1*
X1394453Y981700D1*
X1392094Y978700D1*
X1389884Y975700D1*
X1389536Y972700D1*
X1389679Y969700D1*
X1389908Y966700D1*
X1390074Y963700D1*
X1390259Y960700D1*
X1390677Y957700D1*
X1391410Y954700D1*
X1392184Y951700D1*
X1392709Y948700D1*
X1393000Y945700D1*
X1393233Y942700D1*
X1393668Y939700D1*
X1394407Y936700D1*
X1395183Y933700D1*
X1395711Y930700D1*
X1396006Y927700D1*
X1396200Y924700D1*
X1387200Y1080700D2*
X1389725Y1077700D1*
X1391875Y1074700D1*
X1393716Y1071700D1*
X1395461Y1068700D1*
X1397307Y1065700D1*
X1399263Y1062700D1*
X1401108Y1059700D1*
X1402797Y1056700D1*
X1404390Y1053700D1*
X1405926Y1050700D1*
X1407443Y1047700D1*
X1408946Y1044700D1*
X1410450Y1041700D1*
X1411948Y1038700D1*
X1413439Y1035700D1*
X1414843Y1032700D1*
X1416057Y1029700D1*
X1417125Y1026700D1*
X1418288Y1023700D1*
X1419590Y1020700D1*
X1420904Y1017700D1*
X1422080Y1014700D1*
X1423121Y1011700D1*
X1424185Y1008700D1*
X1425220Y1005700D1*
X1426315Y1002700D1*
X1427963Y999700D1*
X1430667Y996700D1*
X1434611Y993700D1*
X1439245Y990700D1*
X1443500Y987700D1*
X1446909Y984700D1*
X1449571Y981700D1*
X1451484Y978700D1*
X1452888Y975700D1*
X1454208Y972700D1*
X1455673Y969700D1*
X1457380Y966700D1*
X1459189Y963700D1*
X1460737Y960700D1*
X1462082Y957700D1*
X1463610Y954700D1*
X1465274Y951700D1*
X1466795Y948700D1*
X1467246Y945700D1*
X1466395Y942700D1*
X1465200Y939700D1*
X1516200Y1062700D2*
Y1059700D1*
Y1056700D1*
Y1053700D1*
Y1050700D1*
Y1047700D1*
Y1044700D1*
Y1041700D1*
Y1038700D1*
Y1035700D1*
Y1032700D1*
Y1029700D1*
Y1026700D1*
Y1023700D1*
Y1020700D1*
Y1017700D1*
Y1014700D1*
Y1011700D1*
Y1008700D1*
Y1005700D1*
X1516212Y1002700D1*
X1516341Y999700D1*
X1516657Y996700D1*
X1518175Y993700D1*
X1521743Y990700D1*
X1526220Y987700D1*
X1531078Y984700D1*
X1535753Y981700D1*
X1540200Y978700D1*
X1538701Y975700D1*
X1537443Y972700D1*
X1536183Y969700D1*
X1534838Y966700D1*
X1533506Y963700D1*
X1532323Y960700D1*
X1531268Y957700D1*
X1530110Y954700D1*
X1528809Y951700D1*
X1527495Y948700D1*
X1526320Y945700D1*
X1525267Y942700D1*
X1524109Y939700D1*
X1522809Y936700D1*
X1521495Y933700D1*
X1520320Y930700D1*
X1519276Y927700D1*
X1518198Y924700D1*
X1517151Y921700D1*
X1516200Y918700D1*
X1609200Y1062700D2*
Y1059700D1*
Y1056700D1*
Y1053700D1*
Y1050700D1*
Y1047700D1*
Y1044700D1*
Y1041700D1*
Y1038700D1*
Y1035700D1*
Y1032700D1*
Y1029700D1*
Y1026700D1*
Y1023700D1*
Y1020700D1*
Y1017700D1*
Y1014700D1*
Y1011700D1*
Y1008700D1*
Y1005700D1*
Y1002700D1*
Y999700D1*
Y996700D1*
Y993700D1*
Y990700D1*
Y987700D1*
Y984700D1*
Y981700D1*
Y978700D1*
Y975700D1*
Y972700D1*
Y969700D1*
Y966700D1*
Y963700D1*
Y960700D1*
Y957700D1*
Y954700D1*
Y951700D1*
Y948700D1*
Y945700D1*
Y942700D1*
Y939700D1*
Y936700D1*
Y933700D1*
Y930700D1*
Y927700D1*
Y924700D1*
Y921700D1*
Y918700D1*
X1618200Y1062700D2*
Y1059700D1*
Y1056700D1*
Y1053700D1*
Y1050700D1*
Y1047700D1*
Y1044700D1*
Y1041700D1*
Y1038700D1*
Y1035700D1*
Y1032700D1*
Y1029700D1*
Y1026700D1*
Y1023700D1*
Y1020700D1*
Y1017700D1*
Y1014700D1*
Y1011700D1*
Y1008700D1*
Y1005700D1*
Y1002700D1*
Y999700D1*
Y996700D1*
Y993700D1*
Y990700D1*
Y987700D1*
Y984700D1*
Y981700D1*
Y978700D1*
Y975700D1*
Y972700D1*
Y969700D1*
Y966700D1*
Y963700D1*
Y960700D1*
Y957700D1*
Y954700D1*
Y951700D1*
Y948700D1*
Y945700D1*
Y942700D1*
Y939700D1*
Y936700D1*
Y933700D1*
Y930700D1*
Y927700D1*
Y924700D1*
Y921700D1*
Y918700D1*
X1714200Y1062700D2*
Y1059700D1*
Y1056700D1*
Y1053700D1*
Y1050700D1*
Y1047700D1*
Y1044700D1*
Y1041700D1*
Y1038700D1*
Y1035700D1*
Y1032700D1*
Y1029700D1*
Y1026700D1*
Y1023700D1*
Y1020700D1*
Y1017700D1*
Y1014700D1*
Y1011700D1*
Y1008700D1*
Y1005700D1*
Y1002700D1*
Y999700D1*
Y996700D1*
Y993700D1*
Y990700D1*
Y987700D1*
Y984700D1*
Y981700D1*
Y978700D1*
Y975700D1*
Y972700D1*
Y969700D1*
Y966700D1*
Y963700D1*
Y960700D1*
Y957700D1*
Y954700D1*
Y951700D1*
Y948700D1*
Y945700D1*
Y942700D1*
Y939700D1*
Y936700D1*
Y933700D1*
Y930700D1*
Y927700D1*
Y924700D1*
Y921700D1*
Y918700D1*
X1723200Y1062700D2*
Y1059700D1*
Y1056700D1*
Y1053700D1*
Y1050700D1*
Y1047700D1*
Y1044700D1*
Y1041700D1*
Y1038700D1*
Y1035700D1*
X1756200D1*
Y1032700D1*
Y1029700D1*
Y1026700D1*
Y1023700D1*
Y1020700D1*
Y1017700D1*
Y1014700D1*
Y1011700D1*
Y1008700D1*
Y1005700D1*
Y1002700D1*
Y999700D1*
Y996700D1*
Y993700D1*
Y990700D1*
Y987700D1*
Y984700D1*
Y981700D1*
Y978700D1*
Y975700D1*
Y972700D1*
Y969700D1*
Y966700D1*
Y963700D1*
Y960700D1*
Y957700D1*
Y954700D1*
Y951700D1*
Y948700D1*
Y945700D1*
Y942700D1*
Y939700D1*
Y936700D1*
Y933700D1*
Y930700D1*
Y927700D1*
Y924700D1*
Y921700D1*
Y918700D1*
X1816200Y1062700D2*
Y1059700D1*
Y1056700D1*
Y1053700D1*
Y1050700D1*
Y1047700D1*
Y1044700D1*
Y1041700D1*
Y1038700D1*
Y1035700D1*
X1783200D1*
Y1032700D1*
Y1029700D1*
Y1026700D1*
Y1023700D1*
Y1020700D1*
Y1017700D1*
Y1014700D1*
Y1011700D1*
Y1008700D1*
Y1005700D1*
Y1002700D1*
Y999700D1*
Y996700D1*
Y993700D1*
Y990700D1*
Y987700D1*
Y984700D1*
Y981700D1*
Y978700D1*
Y975700D1*
Y972700D1*
Y969700D1*
Y966700D1*
Y963700D1*
Y960700D1*
Y957700D1*
Y954700D1*
Y951700D1*
Y948700D1*
Y945700D1*
Y942700D1*
Y939700D1*
Y936700D1*
Y933700D1*
Y930700D1*
Y927700D1*
Y924700D1*
Y921700D1*
Y918700D1*
X1828200Y1062700D2*
Y1059700D1*
Y1056700D1*
Y1053700D1*
Y1050700D1*
Y1047700D1*
Y1044700D1*
Y1041700D1*
Y1038700D1*
Y1035700D1*
Y1032700D1*
Y1029700D1*
Y1026700D1*
Y1023700D1*
X1921200Y1062700D2*
Y1059700D1*
Y1056700D1*
Y1053700D1*
Y1050700D1*
Y1047700D1*
Y1044700D1*
Y1041700D1*
Y1038700D1*
Y1035700D1*
Y1032700D1*
Y1029700D1*
Y1026700D1*
Y1023700D1*
Y1020700D1*
Y1017700D1*
Y1014700D1*
X1921177Y1011700D1*
X1920930Y1008700D1*
X1920333Y1005700D1*
X1917614Y1002700D1*
X1911400Y999700D1*
X1903514Y996700D1*
X1894605Y993700D1*
X1885369Y990700D1*
X1876100Y987700D1*
X1867423Y984700D1*
X1860556Y981700D1*
X1855423Y978700D1*
X1853444Y975700D1*
X1852771Y972700D1*
X1852431Y969700D1*
X1852286Y966700D1*
X1852231Y963700D1*
X1852210Y960700D1*
X1852203Y957700D1*
X1852201Y954700D1*
X1852200Y951700D1*
Y948700D1*
Y945700D1*
Y942700D1*
X1987200Y1053700D2*
X1972200Y1050700D1*
X1957200Y1047700D1*
X1987200Y1053700D2*
X1987074Y1050700D1*
X1986573Y1047700D1*
X1985365Y1044700D1*
X1983446Y1041700D1*
X1981200Y1038700D1*
X2017200Y1053700D2*
X2020314Y1050700D1*
X2023699Y1047700D1*
X2027418Y1044700D1*
X2031199Y1041700D1*
X2034828Y1038700D1*
X2038488Y1035700D1*
X2042334Y1032700D1*
X2046156Y1029700D1*
X2049699Y1026700D1*
X2052973Y1023700D1*
X2055997Y1020700D1*
X2058657Y1017700D1*
X2060853Y1014700D1*
X2062698Y1011700D1*
X2064353Y1008700D1*
X2065913Y1005700D1*
X2067438Y1002700D1*
X2068944Y999700D1*
X2070438Y996700D1*
X2071831Y993700D1*
X2072940Y990700D1*
X2073625Y987700D1*
X2074070Y984700D1*
X2074603Y981700D1*
X2075382Y978700D1*
X2076163Y975700D1*
X2076589Y972700D1*
X2076488Y969700D1*
X2075897Y966700D1*
X2075181Y963700D1*
X2074667Y960700D1*
X2074290Y957700D1*
X2073772Y954700D1*
X2072896Y951700D1*
X2071713Y948700D1*
X2070358Y945700D1*
X2068914Y942700D1*
X2067427Y939700D1*
X2065827Y936700D1*
X2063939Y933700D1*
X2061613Y930700D1*
X2058964Y927700D1*
X2056220Y924700D1*
X2053652Y921700D1*
X2051288Y918700D1*
X2048683Y915700D1*
X2045491Y912700D1*
X2041989Y909700D1*
X2038488Y906700D1*
X2034869Y903700D1*
X2030938Y900700D1*
X2026729Y897700D1*
X2022353Y894700D1*
X2017799Y891700D1*
X2012928Y888700D1*
X2007610Y885700D1*
X2001940Y882700D1*
X1995986Y879700D1*
X1989665Y876700D1*
X1982946Y873700D1*
X1975974Y870700D1*
X1968666Y867700D1*
X1960729Y864700D1*
X1952170Y861700D1*
X1943017Y858700D1*
X1933185Y855700D1*
X1922659Y852700D1*
X1911369Y849700D1*
X1899157Y846700D1*
X1885580Y843700D1*
X1870102Y840700D1*
X1852243Y837700D1*
X1831908Y834700D1*
X1810200Y831700D1*
X2020200Y1053700D2*
X2035200Y1050700D1*
X2050200Y1047700D1*
X1993200D2*
X1990200Y1044700D1*
X1987200Y1041700D1*
X1984200Y1038700D1*
X1999200Y1047700D2*
Y1044700D1*
Y1041700D1*
X1999212Y1038700D1*
X1999317Y1035700D1*
X1999700Y1032700D1*
X2000418Y1029700D1*
X2001187Y1026700D1*
X2001710Y1023700D1*
X2001989Y1020700D1*
X2002116Y1017700D1*
X2002169Y1014700D1*
X2002189Y1011700D1*
X2002200Y1008700D1*
X2008200Y1047700D2*
Y1044700D1*
Y1041700D1*
X2008188Y1038700D1*
X2008083Y1035700D1*
X2007700Y1032700D1*
X2006982Y1029700D1*
X2006213Y1026700D1*
X2005690Y1023700D1*
X2005411Y1020700D1*
X2005284Y1017700D1*
X2005231Y1014700D1*
X2005211Y1011700D1*
X2005200Y1008700D1*
X2011200Y1047700D2*
X2016610Y1044700D1*
X2021365Y1041700D1*
X2025370Y1038700D1*
X2028857Y1035700D1*
X2032056Y1032700D1*
X2035034Y1029700D1*
X2037683Y1026700D1*
X2039964Y1023700D1*
X2042094Y1020700D1*
X2044189Y1017700D1*
X2046181Y1014700D1*
X2048180Y1011700D1*
X2050210Y1008700D1*
X2052076Y1005700D1*
X2053684Y1002700D1*
X2054993Y999700D1*
X2056101Y996700D1*
X2057279Y993700D1*
X2058587Y990700D1*
X2059892Y987700D1*
X2060963Y984700D1*
X2061622Y981700D1*
X2061956Y978700D1*
X2062104Y975700D1*
X2062164Y972700D1*
X2062176Y969700D1*
X2062079Y966700D1*
X2061699Y963700D1*
X2060970Y960700D1*
X2060095Y957700D1*
X2059178Y954700D1*
X2058064Y951700D1*
X2056669Y948700D1*
X2054886Y945700D1*
X2052706Y942700D1*
X2050443Y939700D1*
X2048318Y936700D1*
X2046139Y933700D1*
X2043580Y930700D1*
X2040485Y927700D1*
X2036885Y924700D1*
X2033064Y921700D1*
X2029167Y918700D1*
X2025061Y915700D1*
X2020667Y912700D1*
X2015874Y909700D1*
X2010589Y906700D1*
X2004944Y903700D1*
X1999100Y900700D1*
X1993151Y897700D1*
X1987070Y894700D1*
X1980684Y891700D1*
X1973863Y888700D1*
X1966701Y885700D1*
X1959343Y882700D1*
X1951784Y879700D1*
X1943798Y876700D1*
X1934981Y873700D1*
X1925093Y870700D1*
X1914140Y867700D1*
X1902180Y864700D1*
X1889056Y861700D1*
X1874427Y858700D1*
X1857736Y855700D1*
X1838561Y852700D1*
X1817327Y849700D1*
X1795200Y846700D1*
X1543200Y1038700D2*
Y1035700D1*
Y1032700D1*
Y1029700D1*
Y1026700D1*
Y1023700D1*
Y1020700D1*
X1543212Y1017700D1*
X1543341Y1014700D1*
X1543657Y1011700D1*
X1545175Y1008700D1*
X1548755Y1005700D1*
X1553346Y1002700D1*
X1558669Y999700D1*
X1564379Y996700D1*
X1570262Y993700D1*
X1576200Y990700D1*
X1582200Y1038700D2*
Y1035700D1*
Y1032700D1*
Y1029700D1*
Y1026700D1*
Y1023700D1*
Y1020700D1*
Y1017700D1*
Y1014700D1*
Y1011700D1*
Y1008700D1*
Y1005700D1*
Y1002700D1*
Y999700D1*
Y996700D1*
Y993700D1*
Y990700D1*
X1645200Y1038700D2*
Y1035700D1*
Y1032700D1*
Y1029700D1*
Y1026700D1*
Y1023700D1*
Y1020700D1*
Y1017700D1*
Y1014700D1*
Y1011700D1*
X1687200Y1038700D2*
Y1035700D1*
Y1032700D1*
Y1029700D1*
Y1026700D1*
Y1023700D1*
Y1020700D1*
Y1017700D1*
Y1014700D1*
Y1011700D1*
X1852200Y1038700D2*
Y1035700D1*
Y1032700D1*
Y1029700D1*
Y1026700D1*
Y1023700D1*
X1894200Y1038700D2*
Y1035700D1*
Y1032700D1*
X1894165Y1029700D1*
X1894059Y1026700D1*
X1892923Y1023700D1*
X1888342Y1020700D1*
X1881526Y1017700D1*
X1873180Y1014700D1*
X1864189Y1011700D1*
X1854919Y1008700D1*
X1845901Y1005700D1*
X1838330Y1002700D1*
X1832358Y999700D1*
X1829840Y996700D1*
X1828960Y993700D1*
X1828509Y990700D1*
X1828316Y987700D1*
X1828241Y984700D1*
X1828214Y981700D1*
X1828205Y978700D1*
X1828202Y975700D1*
X1828200Y972700D1*
Y969700D1*
Y966700D1*
Y963700D1*
Y960700D1*
Y957700D1*
Y954700D1*
Y951700D1*
Y948700D1*
Y945700D1*
Y942700D1*
Y939700D1*
Y936700D1*
Y933700D1*
Y930700D1*
Y927700D1*
Y924700D1*
Y921700D1*
Y918700D1*
X1645200Y987700D2*
Y984700D1*
Y981700D1*
Y978700D1*
Y975700D1*
Y972700D1*
Y969700D1*
Y966700D1*
Y963700D1*
Y960700D1*
Y957700D1*
Y954700D1*
Y951700D1*
Y948700D1*
Y945700D1*
Y942700D1*
Y939700D1*
Y936700D1*
Y933700D1*
Y930700D1*
Y927700D1*
Y924700D1*
Y921700D1*
Y918700D1*
X1687200Y987700D2*
Y984700D1*
Y981700D1*
Y978700D1*
Y975700D1*
Y972700D1*
Y969700D1*
Y966700D1*
Y963700D1*
Y960700D1*
Y957700D1*
Y954700D1*
Y951700D1*
Y948700D1*
Y945700D1*
Y942700D1*
Y939700D1*
Y936700D1*
Y933700D1*
Y930700D1*
Y927700D1*
Y924700D1*
Y921700D1*
Y918700D1*
X1567200Y966700D2*
X1566725Y963700D1*
X1565875Y960700D1*
X1564716Y957700D1*
X1563461Y954700D1*
X1562307Y951700D1*
X1561274Y948700D1*
X1560213Y945700D1*
X1559191Y942700D1*
X1558214Y939700D1*
X1557089Y936700D1*
X1555802Y933700D1*
X1554493Y930700D1*
X1553310Y927700D1*
X1552186Y924700D1*
X1550809Y921700D1*
X1549200Y918700D1*
X1567200Y966700D2*
X1572484Y963700D1*
X1576737Y960700D1*
X1580008Y957700D1*
X1581144Y954700D1*
X1581754Y951700D1*
X1582026Y948700D1*
X1582136Y945700D1*
X1582178Y942700D1*
X1582192Y939700D1*
X1582198Y936700D1*
X1582199Y933700D1*
X1582200Y930700D1*
Y927700D1*
Y924700D1*
Y921700D1*
Y918700D1*
X1894200Y957700D2*
Y954700D1*
Y951700D1*
Y948700D1*
Y945700D1*
Y942700D1*
X1921200Y957700D2*
Y954700D1*
Y951700D1*
Y948700D1*
Y945700D1*
Y942700D1*
Y939700D1*
Y936700D1*
Y933700D1*
Y930700D1*
Y927700D1*
Y924700D1*
Y921700D1*
Y918700D1*
X1453200Y942700D2*
X1448505Y939700D1*
X1444733Y936700D1*
X1443239Y933700D1*
X1445243Y930700D1*
X1447662Y927700D1*
X1450386Y924700D1*
X1453282Y921700D1*
X1456342Y918700D1*
X1459708Y915700D1*
X1463421Y912700D1*
X1467200Y909700D1*
X1470828Y906700D1*
X1474500Y903700D1*
X1478463Y900700D1*
X1482784Y897700D1*
X1487546Y894700D1*
X1492818Y891700D1*
X1498459Y888700D1*
X1504312Y885700D1*
X1510366Y882700D1*
X1516842Y879700D1*
X1524063Y876700D1*
X1532152Y873700D1*
X1541067Y870700D1*
X1550809Y867700D1*
X1561516Y864700D1*
X1573702Y861700D1*
X1588176Y858700D1*
X1605754Y855700D1*
X1626765Y852700D1*
X1650424Y849700D1*
X1675200Y846700D1*
X1453200Y942700D2*
X1456200Y939700D1*
X1423200Y936700D2*
X1420200Y933700D1*
X1417200Y930700D1*
X1426200Y936700D2*
X1428736Y933700D1*
X1430993Y930700D1*
X1433204Y927700D1*
X1435573Y924700D1*
X1437912Y921700D1*
X1440066Y918700D1*
X1442244Y915700D1*
X1444701Y912700D1*
X1447427Y909700D1*
X1450403Y906700D1*
X1453731Y903700D1*
X1457441Y900700D1*
X1461308Y897700D1*
X1465223Y894700D1*
X1469324Y891700D1*
X1473614Y888700D1*
X1478026Y885700D1*
X1482593Y882700D1*
X1487469Y879700D1*
X1492789Y876700D1*
X1498448Y873700D1*
X1504309Y870700D1*
X1510365Y867700D1*
X1516841Y864700D1*
X1524051Y861700D1*
X1532047Y858700D1*
X1540673Y855700D1*
X1549973Y852700D1*
X1560236Y849700D1*
X1571820Y846700D1*
X1585177Y843700D1*
X1600894Y840700D1*
X1619437Y837700D1*
X1640642Y834700D1*
X1663200Y831700D1*
X1414200Y933700D2*
X1411200Y930700D1*
X1408200Y927700D1*
X1405200Y924700D1*
X1696200Y846700D2*
Y843700D1*
X1777200Y846700D2*
Y843700D1*
X1717200Y831700D2*
X1720200Y828700D1*
X1762200Y831700D2*
X1759200Y828700D1*
X1681200Y798700D2*
Y795700D1*
X2581656Y1290744D2*
D95*
X2584983Y1297399D1*
X2591715Y1304131D1*
X2598369Y1307458D1*
X2611755D1*
X2618487Y1304131D1*
X2625142Y1297399D1*
X2628546Y1290744D1*
X2631873Y1280685D1*
Y1263894D1*
X2628546Y1253913D1*
X2625142Y1247181D1*
X2618487Y1240526D1*
X2611755Y1237122D1*
X2598369D1*
X2591715Y1240526D1*
X2584983Y1247181D1*
X2581656Y1253913D1*
X2519882Y1284012D2*
Y1237122D1*
Y1273953D2*
X2526536Y1280685D1*
X2533268Y1284012D1*
X2543250D1*
X2549982Y1280685D1*
X2556636Y1273953D1*
X2560041Y1263894D1*
Y1257240D1*
X2556636Y1247181D1*
X2549982Y1240526D1*
X2543250Y1237122D1*
X2533268D1*
X2526536Y1240526D1*
X2519882Y1247181D1*
X2498267Y1307458D2*
Y1237122D1*
X2429761Y1297399D2*
X2436416Y1304131D1*
X2446475Y1307458D1*
X2459861D1*
X2469920Y1304131D1*
X2476652Y1297399D1*
Y1290744D1*
X2473247Y1284012D1*
X2469920Y1280685D1*
X2463266Y1277358D1*
X2443147Y1270626D1*
X2436416Y1267299D1*
X2433088Y1263894D1*
X2429761Y1257240D1*
Y1247181D1*
X2436416Y1240526D1*
X2446475Y1237122D1*
X2459861D1*
X2469920Y1240526D1*
X2476652Y1247181D1*
X2398087Y1307458D2*
Y1250508D1*
X2394760Y1240526D1*
X2388028Y1237122D1*
X2381374D1*
X2408146Y1284012D2*
X2384701D1*
X2319600D2*
Y1237122D1*
Y1273953D2*
X2326254Y1280685D1*
X2332986Y1284012D1*
X2342968D1*
X2349700Y1280685D1*
X2356354Y1273953D1*
X2359759Y1263894D1*
Y1257240D1*
X2356354Y1247181D1*
X2349700Y1240526D1*
X2342968Y1237122D1*
X2332986D1*
X2326254Y1240526D1*
X2319600Y1247181D1*
X2297985Y1284012D2*
Y1237122D1*
Y1263894D2*
X2294580Y1273953D1*
X2287926Y1280685D1*
X2281194Y1284012D1*
X2271135D1*
X2131261Y1290744D2*
X2134588Y1297399D1*
X2141320Y1304131D1*
X2147974Y1307458D1*
X2161361D1*
X2168092Y1304131D1*
X2174747Y1297399D1*
X2178152Y1290744D1*
X2181479Y1280685D1*
Y1263894D1*
X2178152Y1253913D1*
X2174747Y1247181D1*
X2168092Y1240526D1*
X2161361Y1237122D1*
X2147974D1*
X2141320Y1240526D1*
X2134588Y1247181D1*
X2131261Y1253913D1*
Y1263894D1*
X2147974D1*
X2109646Y1284012D2*
Y1237122D1*
Y1263894D2*
X2106241Y1273953D1*
X2099587Y1280685D1*
X2092855Y1284012D1*
X2082796D1*
X2044467D2*
X2051122Y1280685D1*
X2057854Y1273953D1*
X2061181Y1263894D1*
Y1257240D1*
X2057854Y1247181D1*
X2051122Y1240526D1*
X2044467Y1237122D1*
X2034408D1*
X2027677Y1240526D1*
X2021022Y1247181D1*
X2017618Y1257240D1*
Y1263894D1*
X2021022Y1273953D1*
X2027677Y1280685D1*
X2034408Y1284012D1*
X2044467D1*
X1996003D2*
Y1250508D1*
X1992675Y1240526D1*
X1985944Y1237122D1*
X1975885D1*
X1969230Y1240526D1*
X1959171Y1250508D1*
Y1284012D2*
Y1237122D1*
X1937556Y1284012D2*
Y1237122D1*
Y1270626D2*
X1927497Y1280685D1*
X1920765Y1284012D1*
X1910783D1*
X1904052Y1280685D1*
X1900724Y1270626D1*
Y1237122D1*
X1838951Y1307458D2*
Y1237122D1*
Y1273953D2*
X1845605Y1280685D1*
X1852337Y1284012D1*
X1862396D1*
X1869050Y1280685D1*
X1875782Y1273953D1*
X1879109Y1263894D1*
Y1257240D1*
X1875782Y1247181D1*
X1869050Y1240526D1*
X1862396Y1237122D1*
X1852337D1*
X1845605Y1240526D1*
X1838951Y1247181D1*
X1770445Y1297399D2*
X1777099Y1304131D1*
X1787159Y1307458D1*
X1800545D1*
X1810604Y1304131D1*
X1817336Y1297399D1*
Y1290744D1*
X1813931Y1284012D1*
X1810604Y1280685D1*
X1803949Y1277358D1*
X1783831Y1270626D1*
X1777099Y1267299D1*
X1773772Y1263894D1*
X1770445Y1257240D1*
Y1247181D1*
X1777099Y1240526D1*
X1787159Y1237122D1*
X1800545D1*
X1810604Y1240526D1*
X1817336Y1247181D1*
X1738771Y1307458D2*
Y1250508D1*
X1735444Y1240526D1*
X1728712Y1237122D1*
X1722058D1*
X1748830Y1284012D2*
X1725385D1*
X1660284D2*
Y1237122D1*
Y1273953D2*
X1666938Y1280685D1*
X1673670Y1284012D1*
X1683652D1*
X1690384Y1280685D1*
X1697038Y1273953D1*
X1700443Y1263894D1*
Y1257240D1*
X1697038Y1247181D1*
X1690384Y1240526D1*
X1683652Y1237122D1*
X1673670D1*
X1666938Y1240526D1*
X1660284Y1247181D1*
X1628610Y1307458D2*
Y1250508D1*
X1625283Y1240526D1*
X1618551Y1237122D1*
X1611896D1*
X1638669Y1284012D2*
X1615223D1*
X1590281Y1307458D2*
X1586954Y1304131D1*
X1583549Y1307458D1*
X1586954Y1310862D1*
X1590281Y1307458D1*
X1586954Y1284012D2*
Y1237122D1*
X1545221Y1284012D2*
X1551875Y1280685D1*
X1558607Y1273953D1*
X1561935Y1263894D1*
Y1257240D1*
X1558607Y1247181D1*
X1551875Y1240526D1*
X1545221Y1237122D1*
X1535162D1*
X1528430Y1240526D1*
X1521776Y1247181D1*
X1518371Y1257240D1*
Y1263894D1*
X1521776Y1273953D1*
X1528430Y1280685D1*
X1535162Y1284012D1*
X1545221D1*
X1496756D2*
Y1237122D1*
Y1270626D2*
X1486697Y1280685D1*
X1479965Y1284012D1*
X1469984D1*
X1463252Y1280685D1*
X1459924Y1270626D1*
Y1237122D1*
X1370268Y1284012D2*
X1350150Y1237122D1*
X1330109Y1284012D1*
X1301763Y1307380D2*
X1265008D1*
X1285049Y1280608D1*
X1274990D1*
X1268336Y1277281D1*
X1265008Y1273953D1*
X1261604Y1263894D1*
Y1257240D1*
X1265008Y1247181D1*
X1271663Y1240449D1*
X1281722Y1237122D1*
X1291781D1*
X1301763Y1240449D1*
X1305090Y1243854D1*
X1308494Y1250508D1*
M02*
