%TF.GenerationSoftware,Novarm,DipTrace,3.3.0.1*%
%TF.CreationDate,2018-11-14T10:18:31-08:00*%
%FSLAX26Y26*%
%MOIN*%
%TF.FileFunction,Copper,L1,Top*%
%TF.Part,Single*%
%TA.AperFunction,Conductor*%
%ADD14C,0.013*%
%ADD15C,0.011811*%
%ADD16C,0.047*%
%ADD17C,0.05*%
%TA.AperFunction,CopperBalancing*%
%ADD18C,0.025*%
%TA.AperFunction,ComponentPad*%
%ADD19C,0.102362*%
%ADD20C,0.098425*%
%ADD21R,0.043307X0.03937*%
%ADD22R,0.03937X0.043307*%
%TA.AperFunction,ComponentPad*%
%ADD23R,0.066929X0.066929*%
%ADD24C,0.066929*%
%ADD25R,0.059055X0.059055*%
%ADD26C,0.059055*%
%ADD27R,0.03937X0.037402*%
%TA.AperFunction,ComponentPad*%
%ADD28C,0.066929*%
%ADD30R,0.037402X0.084646*%
%ADD31R,0.127953X0.084646*%
%ADD36R,0.047244X0.011811*%
%ADD37R,0.011811X0.047244*%
%ADD38R,0.055118X0.017717*%
%ADD39R,0.064961X0.084646*%
%ADD40R,0.076772X0.072835*%
%ADD41R,0.076772X0.076772*%
%ADD42R,0.15748X0.03937*%
%TA.AperFunction,ViaPad*%
%ADD43C,0.034*%
%TA.AperFunction,CopperBalancing*%
%ADD97C,0.013*%
G75*
G01*
%LPD*%
X2396456Y1456200D2*
D14*
X2431200D1*
X2481200Y1506200D1*
X2543700D1*
X2317716Y1082184D2*
Y1057184D1*
X2381200Y993700D1*
Y931200D1*
X2022440Y1534940D2*
Y1593717D1*
X1997939Y1618218D1*
X2061810Y1082184D2*
Y1011810D1*
X2043700Y993700D1*
X1881200Y1506200D2*
Y1481200D1*
X1906200Y1456200D1*
X1943700D1*
X2061810Y1082184D2*
Y1113090D1*
X2043700Y1131200D1*
X2006200D1*
X1993700Y1118700D1*
Y1106200D1*
X1943700Y1056200D1*
X1868700D1*
X1856200Y1068700D1*
X2317716Y1082184D2*
Y1119684D1*
X2306200Y1131200D1*
X2043700D1*
Y931200D2*
Y993700D1*
X2243700Y731200D2*
Y793700D1*
X2381200Y931200D1*
X941830Y819291D2*
X1219291D1*
X1343700Y943700D1*
X1731200D1*
X1856200Y1068700D1*
X2718700Y1493700D2*
Y1406200D1*
Y1206200D2*
X2793700D1*
Y1193700D1*
X2718700Y1493700D2*
Y1506200D1*
X2743700Y1531200D1*
X2856200D1*
X2993700Y1668700D1*
X1943700Y1456200D2*
D15*
X1973822D1*
D14*
X1993700D1*
X2007417Y1469917D1*
X2022440Y1484940D1*
Y1504818D1*
D15*
Y1534940D1*
X2718700Y1493700D2*
D14*
X2556200D1*
X2543700Y1506200D1*
X2396456Y1456200D2*
D15*
Y1468606D1*
D14*
X2393700D1*
Y1481200D1*
X2306200D2*
X2181200D1*
X2131200Y1431200D1*
X2043700D1*
X2004983Y1469917D1*
X2007417D1*
X2718700Y1206200D2*
X2643700Y1131200D1*
X2381200Y1056200D2*
Y993700D1*
X941830Y1134251D2*
D16*
X620078Y1132578D1*
X2298031Y1082184D2*
D14*
Y1009940D1*
X2314271Y993700D1*
Y931200D1*
X1943700Y1239665D2*
X1889665D1*
X1868700Y1260629D1*
X1806200D1*
X2042125Y1534940D2*
Y1595476D1*
X2064868Y1618218D1*
X2396456Y1436515D2*
X2478444D1*
X2481200Y1439271D1*
X2543700D1*
X1976771Y993700D2*
Y931200D1*
X2042125Y1082184D2*
D15*
Y1052062D1*
D14*
Y1042125D1*
X2031200Y1031200D1*
X2014271D1*
X1976771Y993700D1*
X2006200Y1231200D2*
X1982287D1*
X1973822Y1239665D1*
D15*
X1943700D1*
X2818700Y893700D2*
D17*
X2912302D1*
X2915649Y890354D1*
X3006200D1*
Y893700D1*
X2915649Y890354D2*
Y1118700D1*
X2918700Y1193700D1*
X2860629D1*
X1931200Y1643700D2*
D14*
X1943700Y1656200D1*
X2056200D1*
X2064868Y1647532D1*
Y1618218D1*
X2120865Y1082184D2*
D15*
Y1052062D1*
D14*
Y870865D1*
X2043700Y793700D1*
X1831200D1*
X1699310Y661810D1*
X1571751D1*
X1581102Y731200D2*
X1571751Y740550D1*
Y743700D1*
X1706200D1*
X1718700Y756200D1*
X1856200D2*
X2037401D1*
X2140550Y859350D1*
Y1052062D1*
D15*
Y1082184D1*
X2176771Y731200D2*
D14*
Y714271D1*
X2031200Y568700D1*
X2389271Y731200D2*
Y610629D1*
X2431200Y568700D1*
X2993700Y743700D2*
X3143700D1*
X3193700Y793700D1*
X1142687Y1424340D2*
X886781D1*
X1256200Y1406200D2*
X1160827D1*
X1142687Y1424340D1*
X2278346Y1082184D2*
Y1024624D1*
X2257007Y1003285D1*
X2211973D1*
X2209067Y1006191D1*
X2773129Y731200D2*
Y614271D1*
X2818700Y568700D1*
X1943700Y1219980D2*
X1894980D1*
X1868700Y1193700D1*
X1806200D1*
Y1156200D1*
X1830708Y1131692D1*
X1856200D1*
X2785629Y1493700D2*
X2864271D1*
X2120865Y1534940D2*
D15*
Y1504818D1*
D14*
Y1470865D1*
X1743700Y1443700D2*
X1656200D1*
X1593700Y1506200D1*
X1281200D1*
X1193700Y1593700D1*
X875098D1*
X825098Y1643700D1*
X2179920Y1534940D2*
D15*
Y1565062D1*
D14*
Y1567420D1*
X2193700Y1581200D1*
X2368700D1*
X2393700Y1606200D1*
X2668700D1*
X2693700Y1631200D1*
Y1668700D1*
X1142687Y1247175D2*
X886781D1*
X1943700Y1338090D2*
X1899310D1*
X1881200Y1356200D1*
Y1343700D1*
X1743700D1*
X1693700Y1293700D1*
X1189212D1*
X1142687Y1247175D1*
X3143700Y1307381D2*
X2542527D1*
X2449606Y1400302D1*
X2429735D1*
X2426578Y1397145D1*
X2396456D1*
X3143700Y1281791D2*
X2531347D1*
X2438835Y1374302D1*
X2429735D1*
X2426578Y1377460D1*
X2396456D1*
X2160235Y1534940D2*
D15*
Y1565062D1*
D14*
Y1652165D1*
X2106200Y1706200D1*
X1881200D1*
X1818700Y1643700D1*
X1762598D1*
X2140550Y1534940D2*
D15*
Y1565062D1*
D14*
Y1634350D1*
X2093700Y1681200D1*
X1893700D1*
X1806200Y1593700D1*
X1500098D1*
X1450098Y1643700D1*
X2101180Y1534940D2*
D15*
Y1504818D1*
X1137598Y1643700D2*
D14*
X1193700D1*
X1306200Y1531200D1*
X1606200D1*
X1643700Y1493700D1*
X1743700D1*
X2081200Y1481200D2*
X2101180Y1501180D1*
D15*
Y1534940D1*
X941830Y740550D2*
D14*
X828050D1*
X1093700Y1006200D2*
X1343700Y1256200D1*
X1693700D1*
D15*
X1755905Y1318405D1*
X1943700D1*
Y1298720D2*
X1913578D1*
D14*
X1773720D1*
X1768700Y1293700D1*
Y1043700D1*
X1701771Y976771D1*
X1571751D1*
X3193700Y893700D2*
X3118700Y818700D1*
X2993700D1*
X2396456Y1160924D2*
D15*
X2413976D1*
X2481200Y1093700D1*
D14*
Y756200D1*
X2456200Y731200D1*
X2396456Y1259350D2*
D15*
X2426578D1*
D14*
X2453050D1*
X2468700Y1243700D1*
Y1218700D1*
X2556200Y1131200D1*
Y956200D1*
X2693700Y818700D1*
X2926771D1*
X2101180Y1082184D2*
D15*
Y1052062D1*
D14*
Y888680D1*
X2068700Y856200D1*
X1893700D1*
X1856791Y819291D1*
X1571751D1*
X2317716Y1534940D2*
D15*
X2330121D1*
D14*
X2359940D1*
X2406200Y1581200D1*
X2768700D1*
X2793700Y1606200D1*
Y1668700D1*
X2396456Y1416830D2*
D15*
X2366334D1*
D14*
X2358070D1*
X2343700Y1431200D1*
Y1481200D1*
X2418700Y1556200D1*
X2781200D1*
X2893700Y1668700D1*
X2396456Y1180609D2*
X2431791D1*
X2506200Y1106200D1*
Y931200D1*
X2706200Y731200D1*
X2396456Y1239665D2*
D15*
X2435235D1*
D14*
X2443700Y1231200D1*
Y1206200D1*
X2531200Y1118700D1*
Y943700D1*
X2681200Y793700D1*
X2881200D1*
X2926771Y748129D1*
Y743700D1*
X2396456Y1338090D2*
D15*
X2426578D1*
D14*
X2436810D1*
X2518700Y1256200D1*
X3043700D1*
Y1243700D1*
X3143700Y1256200D2*
X3043700D1*
X3143700D2*
X3181200D1*
X3193700Y1243700D1*
Y1106200D1*
X3256200Y1043700D1*
Y756200D1*
X3193700Y693700D1*
X2081495Y1082184D2*
D15*
Y1052062D1*
D14*
Y906495D1*
X2056200Y881200D1*
X1906200D1*
X1889369Y898031D1*
X1571751D1*
D43*
X2718700Y1406200D3*
Y1206200D3*
X2393700Y1481200D3*
X2306200D3*
X2643700Y1131200D3*
X2381200Y1056200D3*
X2718700Y1206200D3*
X1718700Y756200D3*
X1856200D3*
X2120865Y1470865D3*
X1743700Y1443700D3*
Y1493700D3*
X2081200Y1481200D3*
X828050Y740550D3*
X1093700Y1006200D3*
X3043700Y1343700D3*
X2006200Y1231200D3*
X1906200Y993700D3*
X2818700Y893700D3*
X3006200D3*
X2006200Y1393700D3*
X2243700Y1418700D3*
X2318700Y1181200D3*
X2193700Y1306200D3*
X2568700Y1206200D3*
X2843700Y1006200D3*
X3006200D3*
X2718700Y868700D3*
X2618700Y956200D3*
X1956200Y1531200D3*
X2868700Y731200D3*
X2543700Y818700D3*
X2393700Y831200D3*
X2181200D3*
X1793700Y943700D3*
X1806200Y693700D3*
X1456200Y631200D3*
X1081200D3*
X1431200Y881200D3*
X1081200Y918700D3*
X1443700Y1093700D3*
X1093700Y1156200D3*
X1243700Y1243700D3*
X1556200Y1331200D3*
X1681200Y1543700D3*
X1931200Y1643700D3*
X1568700Y1631200D3*
X1406200Y1568700D3*
X931200Y1631200D3*
Y1543700D3*
X1143700D3*
X1256200Y1681200D3*
X1018700Y1331200D3*
X806200Y618700D3*
X606200Y831200D3*
X3131200Y1081200D3*
X2281200Y1631200D3*
X1706200Y1056200D3*
X1718700Y1218700D3*
X2568700Y1343700D3*
X2781200Y1356200D3*
X2931200Y1343700D3*
X2318700Y731200D3*
X2293700Y581200D3*
X2718700Y656200D3*
X3106200Y681200D3*
X627237Y1730331D2*
D18*
X1856186D1*
X2131214D2*
X3097671D1*
X638182Y1705462D2*
X1831283D1*
X2156119D2*
X2535187D1*
X3038474D2*
X3086726D1*
X643241Y1680594D2*
X662642D1*
X874873D2*
X975121D1*
X1187352D2*
X1287637D1*
X1499868D2*
X1600116D1*
X2180986D2*
X2535187D1*
X3050962D2*
X3081630D1*
X643133Y1655725D2*
X662642D1*
X886356D2*
X975121D1*
X1230844D2*
X1287637D1*
X1511351D2*
X1600116D1*
X2195554D2*
X2535187D1*
X3050710D2*
X3081775D1*
X637859Y1630856D2*
X662642D1*
X887109D2*
X975121D1*
X1255712D2*
X1287637D1*
X1512104D2*
X1600116D1*
X1892514D2*
X1947296D1*
X2195734D2*
X2369258D1*
X3037506D2*
X3087049D1*
X626591Y1605987D2*
X662642D1*
X1929868D2*
X1947296D1*
X2980163D2*
X3098317D1*
X607033Y1581119D2*
X838511D1*
X1305448D2*
X1463506D1*
X1929868D2*
X1947296D1*
X2955294D2*
X3117875D1*
X434718Y1556250D2*
X467289D1*
X570109D2*
X1181994D1*
X1630200D2*
X1832503D1*
X1929868D2*
X1986948D1*
X2930427D2*
X3154763D1*
X3257619D2*
X3290190D1*
X434718Y1531381D2*
X1206861D1*
X1655175D2*
X1719468D1*
X1767923D2*
X1832503D1*
X1929868D2*
X1987128D1*
X2981850D2*
X3290190D1*
X434718Y1506512D2*
X1231729D1*
X1787767D2*
X1832503D1*
X1929868D2*
X1986983D1*
X2981850D2*
X3181641D1*
X434718Y1481644D2*
X824301D1*
X949262D2*
X1122533D1*
X1162844D2*
X1256669D1*
X1787982D2*
X1832503D1*
X2981850D2*
X3087157D1*
X434718Y1456775D2*
X824301D1*
X1195607D2*
X1229577D1*
X1282805D2*
X1297684D1*
X1414714D2*
X1593944D1*
X1787695D2*
X1832503D1*
X2592398D2*
X2668029D1*
X2981850D2*
X3087157D1*
X434718Y1431906D2*
X824301D1*
X1414714D2*
X1618813D1*
X1788054D2*
X1832503D1*
X2181058D2*
X2308183D1*
X2592398D2*
X2681092D1*
X2756281D2*
X3087157D1*
X434718Y1407037D2*
X824301D1*
X1414714D2*
X1717781D1*
X1769609D2*
X1832503D1*
X1996326D2*
X2018742D1*
X2156190D2*
X2318697D1*
X2592398D2*
X2672695D1*
X2764678D2*
X3087157D1*
X434718Y1382169D2*
X824301D1*
X949262D2*
X1097558D1*
X1414714D2*
X1832503D1*
X1996326D2*
X2343817D1*
X2516898D2*
X2679944D1*
X2757465D2*
X3087157D1*
X434718Y1357300D2*
X1226347D1*
X1414714D2*
X1708128D1*
X1996326D2*
X2343817D1*
X2541766D2*
X3087157D1*
X434718Y1332431D2*
X1683260D1*
X1996326D2*
X2343817D1*
X434718Y1307562D2*
X491367D1*
X546031D2*
X694112D1*
X748776D2*
X1153897D1*
X1996326D2*
X2343817D1*
X434718Y1282693D2*
X455699D1*
X581700D2*
X658480D1*
X784445D2*
X835962D1*
X937599D2*
X1091889D1*
X1996326D2*
X2343817D1*
X595120Y1257825D2*
X645023D1*
X797865D2*
X825270D1*
X1204183D2*
X1296142D1*
X1996326D2*
X2343817D1*
X598888Y1232956D2*
X641291D1*
X801634D2*
X826023D1*
X1203428D2*
X1271273D1*
X1719623D2*
X1733210D1*
X1996326D2*
X2343817D1*
X594439Y1208087D2*
X612045D1*
X628133D2*
X645705D1*
X797220D2*
X838797D1*
X934764D2*
X1094724D1*
X1190654D2*
X1246406D1*
X1344741D2*
X1733210D1*
X1996326D2*
X2343817D1*
X2528489D2*
X2589695D1*
X434718Y1183218D2*
X457385D1*
X954428D2*
X1221539D1*
X1319873D2*
X1733210D1*
X1996326D2*
X2343817D1*
X2553356D2*
X2589695D1*
X434718Y1158350D2*
X498364D1*
X1049557D2*
X1196671D1*
X1295006D2*
X1464008D1*
X1679504D2*
X1733210D1*
X2327465D2*
X2343817D1*
X434718Y1133481D2*
X541856D1*
X1049557D2*
X1171802D1*
X1270138D2*
X1464008D1*
X1679504D2*
X1733210D1*
X434718Y1108612D2*
X509739D1*
X527658D2*
X545767D1*
X1049557D2*
X1146935D1*
X1245270D2*
X1464008D1*
X1679504D2*
X1733210D1*
X2353230D2*
X2417953D1*
X3079633D2*
X3158208D1*
X434718Y1083743D2*
X458999D1*
X1049557D2*
X1122067D1*
X1220402D2*
X1464008D1*
X1679504D2*
X1733210D1*
X2417355D2*
X2442821D1*
X3068976D2*
X3167036D1*
X796539Y1058875D2*
X834096D1*
X1049557D2*
X1097200D1*
X1195535D2*
X1464008D1*
X1679504D2*
X1733210D1*
X2427116D2*
X2445692D1*
X3058318D2*
X3191867D1*
X598817Y1034006D2*
X641327D1*
X801598D2*
X834096D1*
X1170667D2*
X1464008D1*
X1679504D2*
X1709851D1*
X2431852D2*
X2445692D1*
X2591716D2*
X3131224D1*
X595695Y1009137D2*
X644485D1*
X798440D2*
X834096D1*
X1145798D2*
X1464008D1*
X1845792D2*
X1926124D1*
X2431852D2*
X2445692D1*
X2591716D2*
X3131224D1*
X434718Y984268D2*
X454298D1*
X583099D2*
X657044D1*
X785844D2*
X834096D1*
X1133777D2*
X1464008D1*
X1820924D2*
X1926124D1*
X2431852D2*
X2445692D1*
X2591716D2*
X3131224D1*
X434718Y959399D2*
X486558D1*
X550839D2*
X682522D1*
X779888D2*
X834096D1*
X1049557D2*
X1310245D1*
X1796057D2*
X1926124D1*
X2431852D2*
X2445692D1*
X2602159D2*
X3131224D1*
X434718Y934531D2*
X682522D1*
X779888D2*
X834096D1*
X1049557D2*
X1285376D1*
X1771188D2*
X1926124D1*
X2431852D2*
X2445692D1*
X2627027D2*
X2822655D1*
X3008619D2*
X3131224D1*
X434718Y909662D2*
X664939D1*
X798260D2*
X834096D1*
X1049557D2*
X1260508D1*
X1358843D2*
X1464008D1*
X2431852D2*
X2445692D1*
X2651894D2*
X2822655D1*
X3008619D2*
X3133413D1*
X434718Y884793D2*
X664688D1*
X1049557D2*
X1235641D1*
X1333976D2*
X1464008D1*
X2176033D2*
X2285612D1*
X2383947D2*
X2445692D1*
X2676762D2*
X2822655D1*
X3008619D2*
X3131905D1*
X434718Y859924D2*
X664688D1*
X1049557D2*
X1210737D1*
X1309108D2*
X1464008D1*
X2176033D2*
X2260745D1*
X2359079D2*
X2445692D1*
X2701629D2*
X2822655D1*
X3044360D2*
X3110770D1*
X434718Y835056D2*
X664688D1*
X1284241D2*
X1464008D1*
X2165413D2*
X2235877D1*
X2334212D2*
X2445692D1*
X2516683D2*
X2553165D1*
X434718Y810187D2*
X664688D1*
X1259372D2*
X1464008D1*
X2140545D2*
X2212624D1*
X2309344D2*
X2445692D1*
X2516683D2*
X2578032D1*
X434718Y785318D2*
X664688D1*
X1049557D2*
X1464008D1*
X2115676D2*
X2208210D1*
X2284476D2*
X2445692D1*
X2516683D2*
X2602901D1*
X434718Y760449D2*
X666015D1*
X1049557D2*
X1464008D1*
X2090809D2*
X2126107D1*
X2294344D2*
X2338613D1*
X2516683D2*
X2627768D1*
X2823780D2*
X2865285D1*
X434718Y735581D2*
X682522D1*
X1049557D2*
X1464008D1*
X2065941D2*
X2126107D1*
X2294344D2*
X2338613D1*
X2509470D2*
X2652636D1*
X2823780D2*
X2876123D1*
X434718Y710712D2*
X682522D1*
X779888D2*
X793906D1*
X1049557D2*
X1464008D1*
X1797384D2*
X2124025D1*
X2294344D2*
X2338613D1*
X2506851D2*
X2655543D1*
X2823780D2*
X2876123D1*
X434718Y685843D2*
X682522D1*
X779888D2*
X834096D1*
X1049557D2*
X1464008D1*
X1772516D2*
X2099158D1*
X2294344D2*
X2338613D1*
X2506851D2*
X2655543D1*
X2823780D2*
X3131762D1*
X434718Y660974D2*
X834096D1*
X1049557D2*
X1464008D1*
X1747649D2*
X2074291D1*
X2172661D2*
X2353756D1*
X2424783D2*
X2737645D1*
X2808636D2*
X3140948D1*
X434718Y636106D2*
X480781D1*
X556616D2*
X834096D1*
X1049557D2*
X1464008D1*
X1722494D2*
X2049423D1*
X2147758D2*
X2353756D1*
X2424783D2*
X2737645D1*
X2808636D2*
X3168292D1*
X601687Y611237D2*
X834096D1*
X1049557D2*
X1464008D1*
X1679504D2*
X1986445D1*
X2193653D2*
X2353756D1*
X2593654D2*
X2737752D1*
X2981167D2*
X3123221D1*
X623469Y586368D2*
X834096D1*
X1049557D2*
X1464008D1*
X1679504D2*
X1971410D1*
X2193653D2*
X2364378D1*
X2593654D2*
X2751855D1*
X2981167D2*
X3101439D1*
X636136Y561499D2*
X834096D1*
X1049557D2*
X1464008D1*
X1679504D2*
X1969186D1*
X2193653D2*
X2369187D1*
X2593654D2*
X2756663D1*
X2981167D2*
X3088772D1*
X642523Y536630D2*
X1978049D1*
X2193653D2*
X2378014D1*
X2593654D2*
X2765527D1*
X2981167D2*
X3082385D1*
X643636Y511762D2*
X2009878D1*
X2052520D2*
X2068728D1*
X2193653D2*
X2409878D1*
X2452522D2*
X2468729D1*
X2593654D2*
X2797393D1*
X2839999D2*
X2856242D1*
X2981167D2*
X3081272D1*
X639616Y486893D2*
X3085255D1*
X629964Y462024D2*
X3094944D1*
X612775Y437155D2*
X3112096D1*
X596359Y1029363D2*
X595600Y1020213D1*
X593767Y1011217D1*
X590885Y1002501D1*
X586995Y994184D1*
X582150Y986385D1*
X576420Y979212D1*
X569884Y972766D1*
X562632Y967134D1*
X554767Y962399D1*
X546397Y958624D1*
X537641Y955864D1*
X528620Y954155D1*
X519461Y953523D1*
X510292Y953976D1*
X501239Y955507D1*
X492431Y958095D1*
X483989Y961705D1*
X476032Y966285D1*
X468671Y971773D1*
X462010Y978091D1*
X456140Y985150D1*
X451144Y992852D1*
X447091Y1001091D1*
X444039Y1009750D1*
X442029Y1018708D1*
X441091Y1027842D1*
X441237Y1037022D1*
X442465Y1046120D1*
X444758Y1055010D1*
X448083Y1063567D1*
X452396Y1071672D1*
X457633Y1079213D1*
X463725Y1086082D1*
X470583Y1092184D1*
X478115Y1097436D1*
X486213Y1101762D1*
X494764Y1105102D1*
X503651Y1107410D1*
X512747Y1108653D1*
X521927Y1108814D1*
X531061Y1107892D1*
X540023Y1105897D1*
X548687Y1102860D1*
X550850Y1101911D1*
X548071Y1109182D1*
X546457Y1114903D1*
X545297Y1120734D1*
X544599Y1126637D1*
X544365Y1132578D1*
X544599Y1138519D1*
X545297Y1144422D1*
X546457Y1150252D1*
X548071Y1155974D1*
X550917Y1163260D1*
X542935Y1160151D1*
X534058Y1157808D1*
X524966Y1156528D1*
X515788Y1156330D1*
X506649Y1157216D1*
X497679Y1159172D1*
X489003Y1162175D1*
X480742Y1166180D1*
X473011Y1171132D1*
X465918Y1176961D1*
X459562Y1183587D1*
X454032Y1190915D1*
X449406Y1198846D1*
X445747Y1207267D1*
X443108Y1216060D1*
X441525Y1225103D1*
X441019Y1234271D1*
X441599Y1243434D1*
X443256Y1252464D1*
X445966Y1261235D1*
X449692Y1269627D1*
X454384Y1277519D1*
X459972Y1284802D1*
X466381Y1291376D1*
X473522Y1297148D1*
X481292Y1302037D1*
X489586Y1305974D1*
X498285Y1308906D1*
X507271Y1310792D1*
X516417Y1311603D1*
X525594Y1311330D1*
X534674Y1309977D1*
X543532Y1307561D1*
X552043Y1304117D1*
X560087Y1299693D1*
X567554Y1294352D1*
X574338Y1288166D1*
X580346Y1281224D1*
X585491Y1273620D1*
X589705Y1265462D1*
X592926Y1256865D1*
X595111Y1247948D1*
X596228Y1238835D1*
X596294Y1230283D1*
X595319Y1221154D1*
X593273Y1212204D1*
X590186Y1203557D1*
X589414Y1201804D1*
X596682Y1204585D1*
X602403Y1206199D1*
X608234Y1207359D1*
X614137Y1208057D1*
X620078Y1208291D1*
X626019Y1208057D1*
X631922Y1207359D1*
X637752Y1206199D1*
X643474Y1204585D1*
X650760Y1201739D1*
X647893Y1208999D1*
X645462Y1217852D1*
X644094Y1226931D1*
X643805Y1236107D1*
X644600Y1245254D1*
X646470Y1254242D1*
X649388Y1262948D1*
X653312Y1271249D1*
X658187Y1279027D1*
X663947Y1286178D1*
X670510Y1292598D1*
X677784Y1298199D1*
X685669Y1302902D1*
X694053Y1306644D1*
X702819Y1309368D1*
X711847Y1311040D1*
X721010Y1311636D1*
X730178Y1311146D1*
X739224Y1309578D1*
X748022Y1306953D1*
X756448Y1303309D1*
X764386Y1298696D1*
X771725Y1293179D1*
X778360Y1286835D1*
X784201Y1279752D1*
X789167Y1272029D1*
X793186Y1263775D1*
X796203Y1255104D1*
X798176Y1246137D1*
X799078Y1237001D1*
X798941Y1228449D1*
X797751Y1219346D1*
X795494Y1210445D1*
X792203Y1201875D1*
X787924Y1193752D1*
X782717Y1186191D1*
X780440Y1183409D1*
X945494Y1184117D1*
X953249Y1182930D1*
X960961Y1180436D1*
X1047070D1*
Y852306D1*
X1205615Y852291D1*
X1322268Y968793D1*
X1326457Y971838D1*
X1331071Y974188D1*
X1335997Y975788D1*
X1341111Y976599D1*
X1408004Y976700D1*
X1466532D1*
X1466511Y1180436D1*
X1676991D1*
Y1009771D1*
X1688124D1*
X1735705Y1057375D1*
X1735700Y1252367D1*
X1720398Y1236802D1*
X1717035Y1232865D1*
X1713098Y1229502D1*
X1708682Y1226797D1*
X1703898Y1224815D1*
X1698863Y1223607D1*
X1693700Y1223200D1*
X1357357D1*
X1137066Y1002787D1*
X1135998Y996045D1*
X1133889Y989553D1*
X1130789Y983472D1*
X1126777Y977949D1*
X1121951Y973123D1*
X1116428Y969111D1*
X1110347Y966011D1*
X1103855Y963902D1*
X1097113Y962834D1*
X1090287D1*
X1083545Y963902D1*
X1077053Y966011D1*
X1070972Y969111D1*
X1065449Y973123D1*
X1060623Y977949D1*
X1056611Y983472D1*
X1053511Y989553D1*
X1051402Y996045D1*
X1050334Y1002787D1*
Y1009613D1*
X1051402Y1016355D1*
X1053511Y1022847D1*
X1056611Y1028928D1*
X1060623Y1034451D1*
X1065449Y1039277D1*
X1070972Y1043289D1*
X1077053Y1046389D1*
X1083545Y1048498D1*
X1090407Y1049570D1*
X1301548Y1260717D1*
X1202913Y1260700D1*
X1201913Y1256556D1*
X1202651Y1247175D1*
X1201913Y1237794D1*
X1199717Y1228645D1*
X1196116Y1219952D1*
X1191199Y1211928D1*
X1185088Y1204773D1*
X1177934Y1198663D1*
X1169910Y1193746D1*
X1161217Y1190145D1*
X1152067Y1187949D1*
X1142687Y1187210D1*
X1133306Y1187949D1*
X1124157Y1190145D1*
X1115464Y1193746D1*
X1107440Y1198663D1*
X1100285Y1204773D1*
X1094175Y1211928D1*
X1092672Y1214176D1*
X936819Y1214175D1*
X932378Y1208231D1*
X925725Y1201578D1*
X918113Y1196046D1*
X909729Y1191775D1*
X900780Y1188868D1*
X891486Y1187396D1*
X882077D1*
X872783Y1188868D1*
X863834Y1191775D1*
X855449Y1196046D1*
X847838Y1201578D1*
X841184Y1208231D1*
X835653Y1215843D1*
X831381Y1224228D1*
X828474Y1233176D1*
X827002Y1242470D1*
Y1251880D1*
X828474Y1261174D1*
X831381Y1270123D1*
X835653Y1278507D1*
X841184Y1286119D1*
X847838Y1292772D1*
X855449Y1298304D1*
X863834Y1302575D1*
X872783Y1305482D1*
X882077Y1306955D1*
X891486D1*
X900780Y1305482D1*
X909729Y1302575D1*
X918113Y1298304D1*
X925725Y1292772D1*
X932378Y1286119D1*
X936796Y1280174D1*
X1092649Y1280175D1*
X1097090Y1286119D1*
X1103743Y1292772D1*
X1111355Y1298304D1*
X1119739Y1302575D1*
X1128688Y1305482D1*
X1137982Y1306955D1*
X1147392D1*
X1154720Y1305875D1*
X1167780Y1318793D1*
X1171969Y1321836D1*
X1176583Y1324188D1*
X1181508Y1325788D1*
X1186623Y1326598D1*
X1253516Y1326700D1*
X1679999D1*
X1722268Y1368793D1*
X1726457Y1371838D1*
X1731071Y1374188D1*
X1735997Y1375788D1*
X1741111Y1376599D1*
X1808004Y1376700D1*
X1835025D1*
X1835015Y1575852D1*
X1827632Y1568607D1*
X1823443Y1565562D1*
X1818829Y1563212D1*
X1813903Y1561612D1*
X1808789Y1560801D1*
X1741896Y1560700D1*
X1621182Y1560603D1*
X1625596Y1557898D1*
X1629535Y1554535D1*
X1657369Y1526700D1*
X1715449Y1526777D1*
X1720972Y1530789D1*
X1727053Y1533889D1*
X1733545Y1535998D1*
X1740287Y1537066D1*
X1747113D1*
X1753855Y1535998D1*
X1760347Y1533889D1*
X1766428Y1530789D1*
X1771951Y1526777D1*
X1776777Y1521951D1*
X1780789Y1516428D1*
X1783889Y1510347D1*
X1785998Y1503855D1*
X1787066Y1497113D1*
Y1490287D1*
X1785998Y1483545D1*
X1783889Y1477053D1*
X1780789Y1470972D1*
X1779285Y1468720D1*
X1782459Y1463448D1*
X1785071Y1457142D1*
X1786665Y1450504D1*
X1787200Y1443700D1*
X1786665Y1436896D1*
X1785071Y1430258D1*
X1782459Y1423952D1*
X1778892Y1418132D1*
X1774459Y1412941D1*
X1769268Y1408508D1*
X1763448Y1404941D1*
X1757142Y1402329D1*
X1750504Y1400735D1*
X1743700Y1400200D1*
X1736896Y1400735D1*
X1730258Y1402329D1*
X1723952Y1404941D1*
X1718132Y1408508D1*
X1715361Y1410704D1*
X1653611Y1410801D1*
X1648497Y1411612D1*
X1643571Y1413212D1*
X1638957Y1415562D1*
X1634768Y1418607D1*
X1587396Y1465835D1*
X1580011Y1473220D1*
X1278611Y1473301D1*
X1273497Y1474112D1*
X1268571Y1475712D1*
X1263957Y1478062D1*
X1259768Y1481107D1*
X1212396Y1528335D1*
X1180044Y1560687D1*
X872508Y1560801D1*
X867394Y1561612D1*
X862469Y1563212D1*
X857855Y1565562D1*
X853666Y1568607D1*
X837172Y1584956D1*
X829802Y1583920D1*
X820393D1*
X811099Y1585393D1*
X802150Y1588300D1*
X793766Y1592571D1*
X786154Y1598103D1*
X785062Y1598940D1*
Y1583735D1*
X665133D1*
Y1703665D1*
X785062D1*
Y1688342D1*
X789851Y1692212D1*
X797875Y1697129D1*
X806567Y1700730D1*
X815717Y1702926D1*
X825098Y1703665D1*
X834478Y1702926D1*
X843628Y1700730D1*
X852321Y1697129D1*
X860344Y1692212D1*
X867499Y1686102D1*
X873609Y1678947D1*
X878527Y1670923D1*
X882128Y1662230D1*
X884323Y1653081D1*
X885062Y1643700D1*
X884323Y1634319D1*
X883797Y1631667D1*
X888751Y1626716D1*
X977619Y1626700D1*
X977633Y1703665D1*
X1097562D1*
Y1688342D1*
X1102351Y1692212D1*
X1110375Y1697129D1*
X1119067Y1700730D1*
X1128217Y1702926D1*
X1137598Y1703665D1*
X1146978Y1702926D1*
X1156128Y1700730D1*
X1164821Y1697129D1*
X1172844Y1692212D1*
X1179999Y1686102D1*
X1186109Y1678947D1*
X1187612Y1676699D1*
X1196289Y1676599D1*
X1201403Y1675788D1*
X1206329Y1674188D1*
X1210943Y1671838D1*
X1215132Y1668793D1*
X1262504Y1621565D1*
X1290137Y1593932D1*
X1290133Y1703665D1*
X1410062D1*
Y1688342D1*
X1414851Y1692212D1*
X1422875Y1697129D1*
X1431567Y1700730D1*
X1440717Y1702926D1*
X1450098Y1703665D1*
X1459478Y1702926D1*
X1468628Y1700730D1*
X1477321Y1697129D1*
X1485344Y1692212D1*
X1492499Y1686102D1*
X1498609Y1678947D1*
X1503527Y1670923D1*
X1507128Y1662230D1*
X1509323Y1653081D1*
X1510062Y1643700D1*
X1509323Y1634319D1*
X1508797Y1631667D1*
X1513751Y1626716D1*
X1602619Y1626700D1*
X1602633Y1703665D1*
X1722562D1*
Y1688342D1*
X1727351Y1692212D1*
X1735375Y1697129D1*
X1744067Y1700730D1*
X1753217Y1702926D1*
X1762598Y1703665D1*
X1771978Y1702926D1*
X1781128Y1700730D1*
X1789821Y1697129D1*
X1797844Y1692212D1*
X1804999Y1686102D1*
X1809414Y1681099D1*
X1859768Y1731293D1*
X1863957Y1734338D1*
X1868571Y1736688D1*
X1873497Y1738288D1*
X1878611Y1739099D1*
X1945504Y1739200D1*
X2108789Y1739099D1*
X2113903Y1738288D1*
X2118829Y1736688D1*
X2123443Y1734338D1*
X2127632Y1731293D1*
X2175004Y1684065D1*
X2185329Y1673596D1*
X2188373Y1669407D1*
X2190724Y1664793D1*
X2192323Y1659868D1*
X2193134Y1654754D1*
X2193235Y1614163D1*
X2354999Y1614200D1*
X2372268Y1631293D1*
X2376457Y1634338D1*
X2381071Y1636688D1*
X2385997Y1638288D1*
X2391111Y1639099D1*
X2458004Y1639200D1*
X2537703D1*
X2537672Y1724728D1*
X2649728D1*
Y1703419D1*
X2654082Y1708318D1*
X2660768Y1714027D1*
X2668264Y1718621D1*
X2676386Y1721985D1*
X2684935Y1724037D1*
X2693700Y1724728D1*
X2702465Y1724037D1*
X2711014Y1721985D1*
X2719136Y1718621D1*
X2726632Y1714027D1*
X2733318Y1708318D1*
X2739027Y1701632D1*
X2743700Y1693964D1*
X2748373Y1701632D1*
X2754082Y1708318D1*
X2760768Y1714027D1*
X2768264Y1718621D1*
X2776386Y1721985D1*
X2784935Y1724037D1*
X2793700Y1724728D1*
X2802465Y1724037D1*
X2811014Y1721985D1*
X2819136Y1718621D1*
X2826632Y1714027D1*
X2833318Y1708318D1*
X2839027Y1701632D1*
X2843700Y1693964D1*
X2848373Y1701632D1*
X2854082Y1708318D1*
X2860768Y1714027D1*
X2868264Y1718621D1*
X2876386Y1721985D1*
X2884935Y1724037D1*
X2893700Y1724728D1*
X2902465Y1724037D1*
X2911014Y1721985D1*
X2919136Y1718621D1*
X2926632Y1714027D1*
X2933318Y1708318D1*
X2939027Y1701632D1*
X2943700Y1693964D1*
X2948373Y1701632D1*
X2954082Y1708318D1*
X2960768Y1714027D1*
X2968264Y1718621D1*
X2976386Y1721985D1*
X2984935Y1724037D1*
X2993700Y1724728D1*
X3002465Y1724037D1*
X3011014Y1721985D1*
X3019136Y1718621D1*
X3026632Y1714027D1*
X3033318Y1708318D1*
X3039027Y1701632D1*
X3043621Y1694136D1*
X3046985Y1686014D1*
X3049037Y1677465D1*
X3049728Y1668700D1*
X3049037Y1659935D1*
X3046985Y1651386D1*
X3043621Y1643264D1*
X3039027Y1635768D1*
X3033318Y1629082D1*
X3026632Y1623373D1*
X3019136Y1618779D1*
X3011014Y1615415D1*
X3002465Y1613363D1*
X2993700Y1612672D1*
X2985020Y1613352D1*
X2911556Y1539886D1*
X2979354Y1539885D1*
Y1447515D1*
X2751716D1*
X2751777Y1434451D1*
X2755789Y1428928D1*
X2758889Y1422847D1*
X2760998Y1416355D1*
X2762066Y1409613D1*
Y1402787D1*
X2760998Y1396045D1*
X2758889Y1389553D1*
X2755789Y1383472D1*
X2751777Y1377949D1*
X2746951Y1373123D1*
X2741428Y1369111D1*
X2735347Y1366011D1*
X2728855Y1363902D1*
X2722113Y1362834D1*
X2715287D1*
X2708545Y1363902D1*
X2702053Y1366011D1*
X2695972Y1369111D1*
X2690449Y1373123D1*
X2685623Y1377949D1*
X2681611Y1383472D1*
X2678511Y1389553D1*
X2676402Y1396045D1*
X2675334Y1402787D1*
Y1409613D1*
X2676402Y1416355D1*
X2678511Y1422847D1*
X2681611Y1428928D1*
X2685704Y1434539D1*
X2685700Y1447503D1*
X2670546Y1447515D1*
Y1460684D1*
X2589911Y1460700D1*
X2589885Y1391117D1*
X2505460D1*
X2556192Y1340385D1*
X3089653Y1340381D1*
X3089641Y1498251D1*
X3184124D1*
X3184129Y1519905D1*
X3292679D1*
X3292700Y1581809D1*
X3282532Y1572722D1*
X3275134Y1567279D1*
X3267351Y1562403D1*
X3259225Y1558125D1*
X3250800Y1554466D1*
X3242127Y1551449D1*
X3233250Y1549090D1*
X3224222Y1547401D1*
X3215094Y1546392D1*
X3205915Y1546069D1*
X3196738Y1546435D1*
X3187615Y1547485D1*
X3178595Y1549216D1*
X3169730Y1551617D1*
X3161070Y1554675D1*
X3152663Y1558372D1*
X3144556Y1562688D1*
X3136794Y1567599D1*
X3129423Y1573077D1*
X3122482Y1579091D1*
X3116011Y1585608D1*
X3110045Y1592591D1*
X3104619Y1600001D1*
X3099762Y1607796D1*
X3095502Y1615932D1*
X3091864Y1624365D1*
X3088867Y1633046D1*
X3086527Y1641928D1*
X3084859Y1650959D1*
X3083872Y1660090D1*
X3083570Y1669270D1*
X3083957Y1678445D1*
X3085029Y1687567D1*
X3086780Y1696582D1*
X3089203Y1705441D1*
X3092280Y1714095D1*
X3095997Y1722493D1*
X3100333Y1730590D1*
X3105260Y1738339D1*
X3110755Y1745699D1*
X3119414Y1755224D1*
X605596Y1755200D1*
X615208Y1744361D1*
X620599Y1736927D1*
X625420Y1729109D1*
X629642Y1720953D1*
X633241Y1712503D1*
X636199Y1703809D1*
X638497Y1694917D1*
X640123Y1685877D1*
X641067Y1676742D1*
X641331Y1668700D1*
X640987Y1659523D1*
X639957Y1650396D1*
X638247Y1641372D1*
X635867Y1632502D1*
X632830Y1623835D1*
X629151Y1615419D1*
X624855Y1607302D1*
X619961Y1599529D1*
X614501Y1592145D1*
X608503Y1585191D1*
X602001Y1578704D1*
X595032Y1572722D1*
X587634Y1567279D1*
X579851Y1562403D1*
X571725Y1558125D1*
X563300Y1554466D1*
X554627Y1551449D1*
X545750Y1549090D1*
X536722Y1547401D1*
X527594Y1546392D1*
X518415Y1546069D1*
X509238Y1546435D1*
X500115Y1547485D1*
X491095Y1549216D1*
X482230Y1551617D1*
X473570Y1554675D1*
X465163Y1558372D1*
X457056Y1562688D1*
X449294Y1567599D1*
X441923Y1573077D1*
X432176Y1581917D1*
X432200Y605591D1*
X442814Y615032D1*
X450237Y620441D1*
X458043Y625279D1*
X466190Y629520D1*
X474630Y633140D1*
X483319Y636116D1*
X492205Y638435D1*
X501241Y640082D1*
X510375Y641048D1*
X519554Y641329D1*
X528729Y640920D1*
X537848Y639827D1*
X546860Y638054D1*
X555713Y635612D1*
X564359Y632514D1*
X572749Y628777D1*
X580835Y624424D1*
X588574Y619477D1*
X595920Y613965D1*
X602833Y607919D1*
X609275Y601372D1*
X615208Y594361D1*
X620599Y586927D1*
X625420Y579109D1*
X629642Y570953D1*
X633241Y562503D1*
X636199Y553809D1*
X638497Y544917D1*
X640123Y535877D1*
X641067Y526742D1*
X641331Y518700D1*
X640987Y509523D1*
X639957Y500396D1*
X638247Y491372D1*
X635867Y482502D1*
X632830Y473835D1*
X629151Y465419D1*
X624855Y457302D1*
X619961Y449529D1*
X614501Y442145D1*
X605481Y432175D1*
X3119304Y432200D1*
X3110045Y442591D1*
X3104619Y450001D1*
X3099762Y457796D1*
X3095502Y465932D1*
X3091864Y474365D1*
X3088867Y483046D1*
X3086527Y491928D1*
X3084859Y500959D1*
X3083872Y510090D1*
X3083570Y519270D1*
X3083957Y528445D1*
X3085029Y537567D1*
X3086780Y546582D1*
X3089203Y555441D1*
X3092280Y564095D1*
X3095997Y572493D1*
X3100333Y580590D1*
X3105260Y588339D1*
X3110755Y595699D1*
X3116785Y602625D1*
X3123318Y609082D1*
X3130314Y615032D1*
X3137737Y620441D1*
X3145543Y625279D1*
X3153690Y629520D1*
X3162130Y633140D1*
X3174186Y636995D1*
X3166477Y640271D1*
X3158453Y645188D1*
X3151298Y651298D1*
X3145188Y658453D1*
X3140271Y666477D1*
X3136670Y675170D1*
X3134474Y684319D1*
X3133735Y693700D1*
X3134474Y703081D1*
X3136235Y710690D1*
X3041825Y710700D1*
X3041854Y697515D1*
X2878617D1*
Y749583D1*
X2867532Y760699D1*
X2821309Y760700D1*
X2821283Y685015D1*
X2806104D1*
X2806129Y627961D1*
X2809319Y627926D1*
X2818700Y628665D1*
X2828081Y627926D1*
X2837230Y625730D1*
X2845923Y622129D1*
X2853947Y617212D1*
X2858735Y613460D1*
Y628665D1*
X2978665D1*
Y508735D1*
X2858735D1*
Y524058D1*
X2853947Y520188D1*
X2845923Y515271D1*
X2837230Y511670D1*
X2828081Y509474D1*
X2818700Y508735D1*
X2809319Y509474D1*
X2800170Y511670D1*
X2791477Y515271D1*
X2783453Y520188D1*
X2776298Y526298D1*
X2770188Y533453D1*
X2765271Y541477D1*
X2761670Y550170D1*
X2759474Y559319D1*
X2758735Y568700D1*
X2759474Y578081D1*
X2760001Y580733D1*
X2748036Y592839D1*
X2744991Y597028D1*
X2742641Y601642D1*
X2741041Y606567D1*
X2740230Y611682D1*
X2740129Y678575D1*
Y684999D1*
X2658046Y685015D1*
Y732705D1*
X2514205Y876525D1*
X2514099Y753611D1*
X2513288Y748497D1*
X2511688Y743571D1*
X2509338Y738957D1*
X2506293Y734768D1*
X2504357Y732688D1*
X2504354Y685015D1*
X2422246D1*
X2422271Y627961D1*
X2431200Y628665D1*
X2440581Y627926D1*
X2449730Y625730D1*
X2458423Y622129D1*
X2466447Y617212D1*
X2471235Y613460D1*
Y628665D1*
X2591165D1*
Y508735D1*
X2471235D1*
Y524058D1*
X2466447Y520188D1*
X2458423Y515271D1*
X2449730Y511670D1*
X2440581Y509474D1*
X2431200Y508735D1*
X2421819Y509474D1*
X2412670Y511670D1*
X2403977Y515271D1*
X2395953Y520188D1*
X2388798Y526298D1*
X2382688Y533453D1*
X2377771Y541477D1*
X2374170Y550170D1*
X2371974Y559319D1*
X2371235Y568700D1*
X2371974Y578081D1*
X2372501Y580733D1*
X2364178Y589197D1*
X2361134Y593386D1*
X2358783Y598001D1*
X2357183Y602926D1*
X2356373Y608040D1*
X2356271Y674934D1*
Y685018D1*
X2341117Y685015D1*
Y777385D1*
X2448201D1*
X2448200Y1080844D1*
X2400560Y1128511D1*
X2350099Y1128519D1*
X2350716Y1119674D1*
Y1087209D1*
X2355632Y1091392D1*
X2361452Y1094959D1*
X2367758Y1097571D1*
X2374396Y1099165D1*
X2381200Y1099700D1*
X2388004Y1099165D1*
X2394642Y1097571D1*
X2400948Y1094959D1*
X2406768Y1091392D1*
X2411959Y1086959D1*
X2416392Y1081768D1*
X2419959Y1075948D1*
X2422571Y1069642D1*
X2424165Y1063004D1*
X2424700Y1056200D1*
X2424165Y1049396D1*
X2422571Y1042758D1*
X2421514Y1039892D1*
X2429354Y1039885D1*
Y885015D1*
X2381663D1*
X2276675Y780006D1*
X2278224Y777385D1*
X2291854D1*
Y685015D1*
X2194172D1*
X2137813Y628644D1*
X2191165Y628665D1*
Y508735D1*
X2071235D1*
Y524058D1*
X2066447Y520188D1*
X2058423Y515271D1*
X2049730Y511670D1*
X2040581Y509474D1*
X2031200Y508735D1*
X2021819Y509474D1*
X2012670Y511670D1*
X2003977Y515271D1*
X1995953Y520188D1*
X1988798Y526298D1*
X1982688Y533453D1*
X1977771Y541477D1*
X1974170Y550170D1*
X1971974Y559319D1*
X1971235Y568700D1*
X1971974Y578081D1*
X1974170Y587230D1*
X1977771Y595923D1*
X1982688Y603947D1*
X1988798Y611102D1*
X1995953Y617212D1*
X2003977Y622129D1*
X2012670Y625730D1*
X2021819Y627926D1*
X2031200Y628665D1*
X2040581Y627926D1*
X2043233Y627399D1*
X2128620Y712789D1*
X2128617Y777385D1*
X2210725D1*
X2210801Y796289D1*
X2211612Y801403D1*
X2213212Y806329D1*
X2215562Y810943D1*
X2218607Y815132D1*
X2265835Y862504D1*
X2288342Y885011D1*
X2266117Y885015D1*
Y971565D1*
X2259596Y970386D1*
X2255249Y970285D1*
X2255252Y891108D1*
X2173544D1*
X2173449Y856760D1*
X2172638Y851646D1*
X2171039Y846721D1*
X2168688Y842107D1*
X2165644Y837918D1*
X2118415Y790545D1*
X2058833Y731107D1*
X2054644Y728062D1*
X2050029Y725712D1*
X2045104Y724112D1*
X2039990Y723301D1*
X1973096Y723200D1*
X1884451Y723123D1*
X1878928Y719111D1*
X1872847Y716011D1*
X1866355Y713902D1*
X1859613Y712834D1*
X1852787D1*
X1846045Y713902D1*
X1839553Y716011D1*
X1833472Y719111D1*
X1827949Y723123D1*
X1823123Y727949D1*
X1819111Y733472D1*
X1818582Y734414D1*
X1720742Y636717D1*
X1716553Y633672D1*
X1711939Y631322D1*
X1707014Y629722D1*
X1701899Y628911D1*
X1677027Y628810D1*
X1676991Y536885D1*
X1466511D1*
Y910731D1*
X1357394Y910700D1*
X1240722Y794197D1*
X1236533Y791153D1*
X1231919Y788802D1*
X1226994Y787203D1*
X1221880Y786392D1*
X1154986Y786291D1*
X1047082D1*
X1047070Y536885D1*
X836590D1*
Y697918D1*
X831464Y697184D1*
X824637D1*
X817896Y698252D1*
X811403Y700361D1*
X805322Y703461D1*
X799800Y707473D1*
X794973Y712300D1*
X790961Y717822D1*
X787861Y723903D1*
X785752Y730396D1*
X784684Y737137D1*
Y743964D1*
X785752Y750705D1*
X786822Y754381D1*
X777386Y749665D1*
X777385Y683046D1*
X685015D1*
Y743669D1*
X679854Y746106D1*
X676490Y748549D1*
X673549Y751490D1*
X671106Y754854D1*
X669217Y758558D1*
X667932Y762514D1*
X667281Y766621D1*
X667200Y878936D1*
X667281Y908279D1*
X667932Y912386D1*
X669217Y916342D1*
X671106Y920046D1*
X673549Y923410D1*
X676490Y926351D1*
X679854Y928794D1*
X683566Y930686D1*
X685015Y932292D1*
Y962600D1*
X677266Y967313D1*
X670036Y972973D1*
X663525Y979447D1*
X657825Y986642D1*
X653012Y994461D1*
X649155Y1002793D1*
X646309Y1011522D1*
X644512Y1020525D1*
X643789Y1029678D1*
X644153Y1038851D1*
X645595Y1047918D1*
X648098Y1056751D1*
X650743Y1063351D1*
X643474Y1060571D1*
X637752Y1058957D1*
X631922Y1057797D1*
X626019Y1057099D1*
X620078Y1056865D1*
X614137Y1057099D1*
X608234Y1057797D1*
X602403Y1058957D1*
X596682Y1060571D1*
X589396Y1063417D1*
X592364Y1055859D1*
X594758Y1046995D1*
X596091Y1037911D1*
X596359Y1029363D1*
X799115D2*
X798356Y1020213D1*
X796523Y1011217D1*
X793641Y1002501D1*
X789751Y994184D1*
X784906Y986385D1*
X779176Y979212D1*
X777385Y977155D1*
Y923453D1*
X815018Y895212D1*
X836594Y895200D1*
X836590Y1083700D1*
X778998Y1083403D1*
X784201Y1076997D1*
X789167Y1069273D1*
X793186Y1061019D1*
X796203Y1052348D1*
X798176Y1043381D1*
X799078Y1034245D1*
X799115Y1029363D1*
X1927385Y1524964D2*
Y1489224D1*
X1946289Y1489099D1*
X1949805Y1488606D1*
X1968659Y1488793D1*
X1973822Y1489200D1*
X1978285Y1489313D1*
X1981649Y1493251D1*
X1985587Y1496615D1*
X1987750Y1498058D1*
X1989440Y1503313D1*
X1989847Y1509981D1*
X1990035Y1514004D1*
X1989846Y1529777D1*
X1989440Y1534940D1*
Y1572008D1*
X1949785Y1572033D1*
Y1648216D1*
X1907354Y1648200D1*
X1880470Y1621301D1*
X1927385Y1621283D1*
X1927378Y1524976D1*
X1928620Y947515D2*
X1928617Y1023195D1*
X1866100Y1023302D1*
X1853552Y1019382D1*
X1765225Y931056D1*
X1891959Y930930D1*
X1897073Y930119D1*
X1901998Y928519D1*
X1906612Y926169D1*
X1910801Y923124D1*
X1919885Y914184D1*
X1928617Y914411D1*
Y947518D1*
X3135573Y1053665D2*
X3199569D1*
X3168607Y1084768D1*
X3165562Y1088957D1*
X3163212Y1093571D1*
X3161612Y1098497D1*
X3160801Y1103611D1*
X3160700Y1116499D1*
X3089641Y1116511D1*
Y1128604D1*
X3082201Y1120431D1*
X3054812Y1056670D1*
X3052634Y1053117D1*
X3051401Y1049877D1*
X3049857D1*
X3046776Y1047262D1*
X3043230Y1045088D1*
X3039389Y1043497D1*
X3035346Y1042527D1*
X3031200Y1042200D1*
X2979121Y1042281D1*
X2975014Y1042932D1*
X2971058Y1044217D1*
X2967354Y1046106D1*
X2963983Y1048554D1*
X2960999Y1049877D1*
X2960850Y1051565D1*
Y1049877D1*
X2874850D1*
X2871776Y1047260D1*
X2868230Y1045088D1*
X2864389Y1043497D1*
X2860346Y1042527D1*
X2856200Y1042200D1*
X2616621Y1042281D1*
X2612514Y1042932D1*
X2608558Y1044217D1*
X2604854Y1046106D1*
X2601490Y1048549D1*
X2598549Y1051490D1*
X2596106Y1054854D1*
X2594217Y1058558D1*
X2592932Y1062514D1*
X2592281Y1066621D1*
X2592200Y1178936D1*
Y1223182D1*
X2516111Y1223301D1*
X2510986Y1224115D1*
X2511522Y1222548D1*
X2581293Y1152632D1*
X2584338Y1148443D1*
X2586688Y1143829D1*
X2588288Y1138903D1*
X2589099Y1133789D1*
X2589200Y1066896D1*
Y969901D1*
X2707394Y851675D1*
X2825144Y851700D1*
X2825172Y959176D1*
X3006125D1*
Y864880D1*
X3041854Y864885D1*
Y851716D1*
X3105049Y851700D1*
X3134974Y881644D1*
X3133920Y888995D1*
Y898405D1*
X3135393Y907699D1*
X3138300Y916648D1*
X3142571Y925032D1*
X3148103Y932644D1*
X3148940Y933735D1*
X3133735D1*
Y1053665D1*
X3135573D1*
X1302010Y1462228D2*
X1412228D1*
Y1350172D1*
X1300172D1*
Y1371480D1*
X1295818Y1366582D1*
X1289132Y1360873D1*
X1281636Y1356279D1*
X1273514Y1352915D1*
X1264965Y1350863D1*
X1256200Y1350172D1*
X1247435Y1350863D1*
X1238886Y1352915D1*
X1230764Y1356279D1*
X1223268Y1360873D1*
X1216582Y1366582D1*
X1210926Y1373200D1*
X1173989D1*
X1165634Y1368940D1*
X1156686Y1366033D1*
X1147392Y1364561D1*
X1137982D1*
X1128688Y1366033D1*
X1119739Y1368940D1*
X1111355Y1373212D1*
X1103743Y1378743D1*
X1097090Y1385397D1*
X1092672Y1391342D1*
X946724Y1391340D1*
X946746Y1364376D1*
X826817D1*
Y1484305D1*
X946746D1*
Y1457356D1*
X1092649Y1457340D1*
X1097090Y1463284D1*
X1103743Y1469938D1*
X1111355Y1475469D1*
X1119739Y1479741D1*
X1128688Y1482648D1*
X1137982Y1484120D1*
X1147392D1*
X1156686Y1482648D1*
X1165634Y1479741D1*
X1174019Y1475469D1*
X1181630Y1469938D1*
X1188284Y1463284D1*
X1193815Y1455672D1*
X1198087Y1447288D1*
X1200750Y1439207D1*
X1210957Y1439200D1*
X1216582Y1445818D1*
X1223268Y1451527D1*
X1230764Y1456121D1*
X1238886Y1459485D1*
X1247435Y1461537D1*
X1256200Y1462228D1*
X1264965Y1461537D1*
X1273514Y1459485D1*
X1281636Y1456121D1*
X1289132Y1451527D1*
X1295818Y1445818D1*
X1300176Y1440846D1*
X1300172Y1462228D1*
X1302010D1*
X1410062Y1599062D2*
Y1583735D1*
X1300335D1*
X1319875Y1564193D1*
X1485116Y1564297D1*
X1480701Y1567002D1*
X1476763Y1570365D1*
X1462172Y1584956D1*
X1454802Y1583920D1*
X1445393D1*
X1436099Y1585393D1*
X1427150Y1588300D1*
X1418766Y1592571D1*
X1411154Y1598103D1*
X1410060Y1599113D1*
X1993822Y1423199D2*
Y1161788D1*
X1998497Y1163288D1*
X2003611Y1164099D1*
X2071259Y1164200D1*
X2308789Y1164099D1*
X2313903Y1163288D1*
X2318829Y1161688D1*
X2323443Y1159338D1*
X2327632Y1156293D1*
X2341050Y1143019D1*
X2344414Y1139081D1*
X2345857Y1136918D1*
X2346334Y1137705D1*
Y1252385D1*
X2346371Y1311440D1*
X2346334Y1385998D1*
X2340827Y1388692D1*
X2336638Y1391737D1*
X2320365Y1407865D1*
X2317002Y1411804D1*
X2314297Y1416218D1*
X2312315Y1421002D1*
X2311107Y1426037D1*
X2310700Y1431200D1*
Y1437910D1*
X2302787Y1437834D1*
X2296045Y1438902D1*
X2289553Y1441011D1*
X2283472Y1444111D1*
X2277861Y1448204D1*
X2194851Y1448200D1*
X2152632Y1406107D1*
X2148443Y1403062D1*
X2143829Y1400712D1*
X2138903Y1399112D1*
X2133789Y1398301D1*
X2066896Y1398200D1*
X2041111Y1398302D1*
X2035997Y1399112D1*
X2031071Y1400712D1*
X2026457Y1403064D1*
X2022268Y1406107D1*
X2003543Y1424688D1*
X1998863Y1423607D1*
X1996279Y1423301D1*
X518700Y1108846D2*
D97*
Y953554D1*
X441054Y1031200D2*
X596346D1*
X643810D2*
X799102D1*
X721456Y1311602D2*
Y1233956D1*
X643810D2*
X799102D1*
X518700Y1311602D2*
Y1156310D1*
X441054Y1233956D2*
X596346D1*
X685050Y943700D2*
X777350D1*
X731200Y731200D2*
Y683082D1*
X685050Y731200D2*
X777350D1*
X2266153Y931200D2*
X2314271D1*
X1881200Y1621247D2*
Y1573129D1*
X1835050D2*
X1927350D1*
X1835050Y1423129D2*
X1881200D1*
X1928654Y993700D2*
X1976771D1*
X1928654Y931200D2*
X1976771D1*
X2543700Y1439271D2*
Y1391153D1*
Y1439271D2*
X2589850D1*
X2209067Y939262D2*
Y891144D1*
Y939262D2*
X2255217D1*
X2931200Y1539850D2*
Y1447550D1*
Y1493700D2*
X2979318D1*
X3193700Y1053628D2*
Y993700D1*
X3133772D2*
X3193700D1*
X2131200Y628628D2*
Y508771D1*
Y568700D2*
X2191129D1*
X2531200Y628628D2*
Y508771D1*
Y568700D2*
X2591129D1*
X2918700Y628628D2*
Y508771D1*
Y568700D2*
X2978629D1*
X1356200Y1462191D2*
Y1350208D1*
Y1406200D2*
X1412192D1*
X2593700Y1724692D2*
Y1668700D1*
X2537708D2*
X2593700D1*
X1662598Y1703629D2*
Y1643700D1*
X1602669D2*
X1662598D1*
X1350098Y1703629D2*
Y1583771D1*
X1290169Y1643700D2*
X1350098D1*
X1037598Y1703629D2*
Y1643700D1*
X977669D2*
X1037598D1*
X725098Y1703629D2*
Y1583771D1*
X665169Y1643700D2*
X725098D1*
X1571751Y583070D2*
Y536920D1*
X1466546Y583070D2*
X1676956D1*
X1571751Y1180401D2*
Y1134251D1*
X1466546D2*
X1676956D1*
X836625Y1055511D2*
X1047035D1*
X2915649Y1118700D2*
Y1049913D1*
Y959140D2*
Y890354D1*
X2825209D2*
X3006090D1*
X3089676Y1358562D2*
X3143700D1*
X708718Y868831D2*
D18*
X782699D1*
X708718Y843962D2*
X966210D1*
X708718Y819094D2*
X966210D1*
X708718Y794225D2*
X776814D1*
X968735Y851846D2*
X836590D1*
Y856188D1*
X804245Y856354D1*
X801417Y857151D1*
X798850Y858590D1*
X752045Y893691D1*
X706216Y893700D1*
X706200Y781216D1*
X753230Y781200D1*
X802427Y805617D1*
X805318Y806169D1*
X968720Y806200D1*
X968700Y851868D1*
X2972222Y1181331D2*
X3053704D1*
X2996193Y1156462D2*
X3052699D1*
X2996193Y1131594D2*
X3042041D1*
X2996193Y1106725D2*
X3031384D1*
X2996193Y1081856D2*
X3020726D1*
X3056190Y1195546D2*
X2997515D1*
Y1206204D1*
X2968691Y1206200D1*
X2970041Y1197741D1*
X2969784Y1182428D1*
X2969733Y1181172D1*
X2983155Y1181046D1*
X2985983Y1180249D1*
X2988548Y1178813D1*
X2990705Y1176818D1*
X2992338Y1174375D1*
X2993355Y1171619D1*
X2993700Y1168696D1*
Y1081179D1*
X3022934Y1081200D1*
X3056200Y1158766D1*
Y1195565D1*
X2633718Y1193831D2*
X2806632D1*
X2633718Y1168962D2*
X2809969D1*
X2633718Y1144094D2*
X2841188D1*
X2633718Y1119225D2*
X2841188D1*
X2633718Y1094356D2*
X2841188D1*
X2837839Y1147515D2*
X2812476D1*
Y1175469D1*
X2810552Y1181678D1*
X2809288Y1189659D1*
Y1197741D1*
X2810552Y1205722D1*
X2812476Y1211852D1*
X2812154Y1216342D1*
X2810982Y1218686D1*
X2631228Y1218700D1*
X2631200Y1081169D1*
X2843687Y1081200D1*
X2843700Y1145098D1*
X2837894Y1147515D1*
D19*
X518700Y1031200D3*
X721456D3*
Y1233956D3*
X518700D3*
D20*
X620078Y1132578D3*
D21*
X1997939Y1618218D3*
X2064868D3*
X2918700Y1193700D3*
X2985629D3*
X2793700D3*
X2860629D3*
D22*
X2481200Y1506200D3*
Y1439271D3*
X2543700Y1506200D3*
Y1439271D3*
X1881200Y1506200D3*
Y1573129D3*
Y1356200D3*
Y1423129D3*
X1806200Y1193700D3*
Y1260629D3*
X1868700Y1193700D3*
Y1260629D3*
D21*
X2043700Y993700D3*
X1976771D3*
X2381200Y931200D3*
X2314271D3*
D22*
X2209067Y1006191D3*
Y939262D3*
D21*
X2043700Y931200D3*
X1976771D3*
X2381200Y993700D3*
X2314271D3*
D22*
X731200Y731200D3*
Y798129D3*
Y943700D3*
Y876771D3*
D21*
X2931200Y1493700D3*
X2864271D3*
D22*
X3043700Y1243700D3*
Y1176771D3*
D23*
X2131200Y568700D3*
D24*
X2031200D3*
D25*
X1356200Y1406200D3*
D26*
X1256200D3*
D23*
X2531200Y568700D3*
D24*
X2431200D3*
D23*
X2918700D3*
D24*
X2818700D3*
D23*
X1662598Y1643700D3*
D24*
X1762598D3*
D23*
X1350098D3*
D24*
X1450098D3*
D25*
X2593700Y1668700D3*
D26*
X2693700D3*
X2793700D3*
X2893700D3*
X2993700D3*
D23*
X3193700Y993700D3*
D24*
Y893700D3*
Y793700D3*
Y693700D3*
D23*
X1037598Y1643700D3*
D24*
X1137598D3*
D23*
X725098D3*
D24*
X825098D3*
D27*
X1856200Y1068700D3*
Y1131692D3*
D21*
X2243700Y731200D3*
X2176771D3*
X2718700Y1493700D3*
X2785629D3*
X2456200Y731200D3*
X2389271D3*
X2706200D3*
X2773129D3*
X2993700Y743700D3*
X2926771D3*
X2993700Y818700D3*
X2926771D3*
D23*
X886781Y1424340D3*
D28*
Y1247175D3*
X1142687D3*
Y1424340D3*
D30*
X3006200Y1118700D3*
X2915649D3*
X2825098D3*
D31*
X2915649Y890354D3*
D36*
X1943700Y1456200D3*
Y1436515D3*
Y1416830D3*
Y1397145D3*
Y1377460D3*
Y1357775D3*
Y1338090D3*
Y1318405D3*
Y1298720D3*
Y1279035D3*
Y1259350D3*
Y1239665D3*
Y1219980D3*
Y1200294D3*
Y1180609D3*
Y1160924D3*
D37*
X2022440Y1082184D3*
X2042125D3*
X2061810D3*
X2081495D3*
X2101180D3*
X2120865D3*
X2140550D3*
X2160235D3*
X2179920D3*
X2199606D3*
X2219291D3*
X2238976D3*
X2258661D3*
X2278346D3*
X2298031D3*
X2317716D3*
D36*
X2396456Y1160924D3*
Y1180609D3*
Y1200294D3*
Y1219980D3*
Y1239665D3*
Y1259350D3*
Y1279035D3*
Y1298720D3*
Y1318405D3*
Y1338090D3*
Y1357775D3*
Y1377460D3*
Y1397145D3*
Y1416830D3*
Y1436515D3*
Y1456200D3*
D37*
X2317716Y1534940D3*
X2298031D3*
X2278346D3*
X2258661D3*
X2238976D3*
X2219291D3*
X2199606D3*
X2179920D3*
X2160235D3*
X2140550D3*
X2120865D3*
X2101180D3*
X2081495D3*
X2061810D3*
X2042125D3*
X2022440D3*
D38*
X3143700Y1256200D3*
Y1281791D3*
Y1307381D3*
Y1332972D3*
Y1358562D3*
D39*
X3148621Y1429428D3*
Y1185334D3*
D40*
X3249015Y1456987D3*
Y1157775D3*
D41*
Y1354625D3*
Y1260137D3*
D42*
X1571751Y583070D3*
Y661810D3*
Y740550D3*
Y819291D3*
Y898031D3*
Y976771D3*
Y1055511D3*
Y1134251D3*
X941830D3*
Y1055511D3*
Y976771D3*
Y898031D3*
Y819291D3*
Y740550D3*
Y661810D3*
Y583070D3*
M02*
